<?xml version="1.0" encoding="utf-8"?>
<!-- Generator: Adobe Illustrator 19.0.0, SVG Export Plug-In . SVG Version: 6.00 Build 0)  -->
<svg version="1.1" id="Layer_1" xmlns="http://www.w3.org/2000/svg" xmlns:xlink="http://www.w3.org/1999/xlink" x="0px" y="0px"
	 viewBox="0 0 1920 1080" style="enable-background:new 0 0 1920 1080;" xml:space="preserve">
<style type="text/css">
	.st0{fill:#E6E6E6;}
	.st1{fill:#BABCBE;}
	.st2{fill:#D0D1D2;}
	.st3{fill:#D0D1D1;}
	.st4{fill:#17B591;}
	.st5{fill:#F16E24;}
	.st6{fill:#454547;}
	.st7{fill:#E35525;}
	.st8{fill:#A5A7AA;}
</style>
<g id="XMLID_443_">
	
		<rect id="XMLID_1154_" x="1296" y="804.1" transform="matrix(0.9706 0.2406 -0.2406 0.9706 239.496 -308.1325)" class="st0" width="170.9" height="45"/>
	<polygon id="XMLID_1153_" class="st1" points="1444.2,854 1433.4,897.7 1405.9,855.8 1416.7,812.2 	"/>
	<polygon id="XMLID_1152_" class="st1" points="1497.2,867.2 1486.4,910.8 1459,869 1469.8,825.3 	"/>
	<polygon id="XMLID_1151_" class="st1" points="1386.9,839.8 1376.1,883.5 1348.6,841.6 1359.5,798 	"/>
	
		<rect id="XMLID_1150_" x="1314.3" y="702.3" transform="matrix(0.9706 0.2406 -0.2406 0.9706 222.2767 -314.7031)" class="st0" width="170.9" height="101.1"/>
	<polygon id="XMLID_1149_" class="st1" points="1494.8,724.3 1470.5,822.4 1459.8,805.8 1484.1,707.7 	"/>
	<polygon id="XMLID_1148_" class="st2" points="1494.8,724.3 1329,683.2 1318.2,666.6 1484.1,707.7 	"/>
	<polygon id="XMLID_1147_" class="st3" points="1470.5,822.4 1304.6,781.3 1293.9,764.6 1459.8,805.8 	"/>
	<polygon id="XMLID_1146_" class="st1" points="1412.8,699.4 1404,697.2 1400.3,691.4 1409,693.6 	"/>
	
		<rect id="XMLID_1145_" x="1395.4" y="853.4" transform="matrix(-0.9706 -0.2406 0.2406 -0.9706 2580.7627 2055.3789)" class="st4" width="41" height="33.4"/>
	<polygon id="XMLID_1144_" class="st1" points="1329,683.2 1304.6,781.3 1293.9,764.6 1318.2,666.6 	"/>
	<path id="XMLID_397_" class="st5" d="M1407.2,826.9c0,0,15.1,8.9,22.7,28.8l20.7-15c0,0-6-13.6-11.5-21.3l-10.2,3.7L1407.2,826.9z"
		/>
	<path id="XMLID_396_" class="st5" d="M1418.4,826c0,0,20,23.4,39.1,22v-21.4c0,0-19.9-5.1-22.1-18L1418.4,826z"/>
	
		<rect id="XMLID_1143_" x="1303.7" y="785.6" transform="matrix(0.9706 0.2406 -0.2406 0.9706 228.2612 -295.0098)" class="st6" width="36.7" height="3"/>
	
		<rect id="XMLID_1142_" x="1434.4" y="818" transform="matrix(0.9706 0.2406 -0.2406 0.9706 239.8926 -325.4921)" class="st6" width="36.7" height="3"/>
	<path id="XMLID_395_" class="st7" d="M1405,812.7l-6.3,6.4c-4.8,1-9.9,2.5-15.4,4.6l2,9l0,0c29.5-11.5,49.3-4,49.3-4l16-20.7
		C1420.7,801.9,1405,812.7,1405,812.7z"/>
	<path id="XMLID_394_" class="st5" d="M1383.3,823.7l19.7-20c0,0,15.7-10.8,45.7-4.7l-16,20.7
		C1432.6,819.7,1412.8,812.2,1383.3,823.7z"/>
	
		<rect id="XMLID_1141_" x="1379.3" y="701.9" transform="matrix(0.9706 0.2406 -0.2406 0.9706 211.0931 -317.0987)" class="st8" width="49.3" height="7.8"/>
	<g id="XMLID_460_">
		<polygon id="XMLID_1140_" class="st7" points="1316.5,770.9 1315.7,784 1348.6,817.8 1349.4,806 		"/>
		<polygon id="XMLID_1139_" class="st5" points="1390.3,808.6 1349.4,806 1316.5,770.9 1357.5,773.5 		"/>
		<polygon id="XMLID_1138_" class="st5" points="1348.6,817.8 1389.6,820.5 1390.3,808.6 1349.4,806 		"/>
	</g>
	<g id="XMLID_456_">
		<polygon id="XMLID_1137_" class="st7" points="1323.8,762.6 1324,769.7 1360.6,799.5 1360.4,793.7 		"/>
		<polygon id="XMLID_1136_" class="st5" points="1401.4,791.6 1360.4,793.7 1323.8,762.6 1364.7,760.5 		"/>
		<polygon id="XMLID_1135_" class="st5" points="1360.6,799.5 1401.6,797.4 1401.4,791.6 1360.4,793.7 		"/>
	</g>
	<polygon id="XMLID_1134_" class="st3" points="1486.4,910.8 1320.5,869.7 1293.1,827.9 1459,869 	"/>
	
		<rect id="XMLID_1133_" x="1323.4" y="845.9" transform="matrix(0.9706 0.2406 -0.2406 0.9706 250.3668 -313.5112)" class="st2" width="170.9" height="45"/>
	<polygon id="XMLID_1132_" class="st1" points="1331.4,826.1 1320.5,869.7 1293.1,827.9 1303.9,784.2 	"/>
	<path id="XMLID_393_" class="st5" d="M1332.5,762.1c0,0,27.3,24.4,60.6,17.9l24.7-21.8c0,0-35,5.9-57.4-7.4L1332.5,762.1z"/>
	<path id="XMLID_392_" class="st5" d="M1380.2,841.4l-36.3-8.4c-0.1-3-0.6-6-1.4-8.9h0c-4.1-15.2-16.1-28.9-17.9-30.8l24,24.6
		l30.2,2c0.7,2.5,1.1,4.9,1.4,7.1C1381.3,835.3,1380.2,841.4,1380.2,841.4z"/>
	<path id="XMLID_391_" class="st7" d="M1397.4,788.2c-45.4,0.9-64.8-26.1-64.8-26.1l0,0c0.7,0.6,25.2,22.1,56,18.6L1397.4,788.2z"/>
	<path id="XMLID_390_" class="st7" d="M1380.2,826.9L1380.2,826.9l-37.7-2.8h0c-4.1-15.2-16.1-28.9-17.9-30.8l24,24.6l30.2,2
		C1379.5,822.3,1380,824.7,1380.2,826.9z"/>
	<path id="XMLID_389_" class="st5" d="M1403.8,792.6c0,0,18,17,57,20.2l19.9-16c0,0-31.6-1.6-47.2-10.8L1403.8,792.6z"/>
	<path id="XMLID_388_" class="st7" d="M1440.4,809.6l-1.4,1.9c-18.3-3.5-27.4-11.6-27.4-11.6c0.6-0.2,1.2-0.4,1.9-0.5
		C1419.6,802.7,1428.5,806.8,1440.4,809.6z"/>
	<path id="XMLID_387_" class="st7" d="M1444.1,845.5l-2.5,1.8c0,0-21.9-13.1-24-21c0.4,0,0.7,0,1.1,0
		C1420.3,828.1,1431.2,840.1,1444.1,845.5z"/>
	<path id="XMLID_386_" class="st5" d="M1457.5,784.6c0,0,18.4,12.9,35.5,40.3l22.6-0.4c0,0-11.8-26.4-29-37.4L1457.5,784.6z"/>
	<path id="XMLID_385_" class="st7" d="M1470.3,795.9c1.6,1.6,3.2,3.4,5,5.3l-1.8,1.4c-2.4-2.7-4.6-5.1-6.7-7.2
		C1468,795.7,1469.2,795.8,1470.3,795.9z"/>
</g>
</svg>