<?xml version="1.0" encoding="utf-8"?>
<!-- Generator: Adobe Illustrator 19.0.0, SVG Export Plug-In . SVG Version: 6.00 Build 0)  -->
<svg version="1.1" id="Layer_1" xmlns="http://www.w3.org/2000/svg" xmlns:xlink="http://www.w3.org/1999/xlink" x="0px" y="0px"
	 viewBox="0 0 1920 1080" style="enable-background:new 0 0 1920 1080;" xml:space="preserve">
<style type="text/css">
	.st0{fill:#F16E24;}
	.st1{fill:#FFFFFF;}
	.st2{fill:#EC6E24;}
</style>
<g id="XMLID_1_">
	<g id="XMLID_270_">
		<path id="XMLID_39_" class="st0" d="M1523.4,730.6l-12.7-23.8c-3-5.6-2-12.5,2.5-17v0c5.6-5.6,14.8-5.6,20.4,0l0,0
			c4.5,4.5,5.5,11.4,2.5,17L1523.4,730.6z"/>
		<circle id="XMLID_38_" class="st1" cx="1523.4" cy="700.1" r="10.5"/>
		<path id="XMLID_271_" class="st2" d="M1523.4,704.3h-4.2v-2.8h4.2V704.3z M1529.8,701.5v-1.4l-0.7-3.5h-11.3l-0.7,3.5v1.4h0.7v4.2
			h7.1v-4.2h2.8v4.2h1.4v-4.2H1529.8z M1529.1,694.4h-11.3v1.4h11.3V694.4z"/>
	</g>
	<g id="XMLID_75_">
		<path id="XMLID_33_" class="st0" d="M373.4,845.9l-12.7-23.8c-3-5.6-2-12.5,2.5-17l0,0c5.6-5.6,14.8-5.6,20.4,0l0,0
			c4.5,4.5,5.5,11.4,2.5,17L373.4,845.9z"/>
		<circle id="XMLID_32_" class="st1" cx="373.4" cy="815.4" r="10.5"/>
		<path id="XMLID_76_" class="st2" d="M373.4,819.7h-4.2v-2.8h4.2V819.7z M379.7,816.8v-1.4l-0.7-3.5h-11.3l-0.7,3.5v1.4h0.7v4.2
			h7.1v-4.2h2.8v4.2h1.4v-4.2H379.7z M379,809.8h-11.3v1.4H379V809.8z"/>
	</g>
	<g id="XMLID_67_">
		<path id="XMLID_27_" class="st0" d="M887.1,506.3l-12.7-23.8c-3-5.6-2-12.5,2.5-17v0c5.6-5.6,14.8-5.6,20.4,0v0
			c4.5,4.5,5.5,11.4,2.5,17L887.1,506.3z"/>
		<circle id="XMLID_26_" class="st1" cx="887.1" cy="475.8" r="10.5"/>
		<path id="XMLID_68_" class="st2" d="M887.1,480.1h-4.2v-2.8h4.2V480.1z M893.5,477.3v-1.4l-0.7-3.5h-11.3l-0.7,3.5v1.4h0.7v4.2
			h7.1v-4.2h2.8v4.2h1.4v-4.2H893.5z M892.8,470.2h-11.3v1.4h11.3V470.2z"/>
	</g>
	<g id="XMLID_59_">
		<path id="XMLID_21_" class="st0" d="M1288.7,623.1l-12.7-23.8c-3-5.6-2-12.5,2.5-17l0,0c5.6-5.6,14.8-5.6,20.4,0l0,0
			c4.5,4.5,5.5,11.4,2.5,17L1288.7,623.1z"/>
		<circle id="XMLID_20_" class="st1" cx="1288.7" cy="592.6" r="10.5"/>
		<path id="XMLID_60_" class="st2" d="M1288.7,596.8h-4.2V594h4.2V596.8z M1295,594v-1.4l-0.7-3.5H1283l-0.7,3.5v1.4h0.7v4.2h7.1
			V594h2.8v4.2h1.4V594H1295z M1294.3,586.9H1283v1.4h11.3V586.9z"/>
	</g>
	<g id="XMLID_51_">
		<path id="XMLID_15_" class="st0" d="M1582.4,962.2l-12.7-23.8c-3-5.6-2-12.5,2.5-17l0,0c5.6-5.6,14.8-5.6,20.4,0h0
			c4.5,4.5,5.5,11.4,2.5,17L1582.4,962.2z"/>
		<circle id="XMLID_14_" class="st1" cx="1582.4" cy="931.7" r="10.5"/>
		<path id="XMLID_52_" class="st2" d="M1582.4,935.9h-4.2v-2.8h4.2V935.9z M1588.8,933.1v-1.4l-0.7-3.5h-11.3l-0.7,3.5v1.4h0.7v4.2
			h7.1v-4.2h2.8v4.2h1.4v-4.2H1588.8z M1588.1,926h-11.3v1.4h11.3V926z"/>
	</g>
	<g id="XMLID_43_">
		<path id="XMLID_9_" class="st0" d="M337.6,1009.3l-12.7-23.8c-3-5.6-2-12.5,2.5-17l0,0c5.6-5.6,14.8-5.6,20.4,0h0
			c4.5,4.5,5.5,11.4,2.5,17L337.6,1009.3z"/>
		<circle id="XMLID_8_" class="st1" cx="337.6" cy="978.8" r="10.5"/>
		<path id="XMLID_44_" class="st2" d="M337.6,983.1h-4.2v-2.8h4.2V983.1z M343.9,980.2v-1.4l-0.7-3.5h-11.3l-0.7,3.5v1.4h0.7v4.2
			h7.1v-4.2h2.8v4.2h1.4v-4.2H343.9z M343.2,973.2h-11.3v1.4h11.3V973.2z"/>
	</g>
</g>
</svg>