<?xml version="1.0" encoding="utf-8"?>
<!-- Generator: Adobe Illustrator 19.0.0, SVG Export Plug-In . SVG Version: 6.00 Build 0)  -->
<svg version="1.1" id="Layer_1" xmlns="http://www.w3.org/2000/svg" xmlns:xlink="http://www.w3.org/1999/xlink" x="0px" y="0px"
	 viewBox="0 0 1920 1080" style="enable-background:new 0 0 1920 1080;" xml:space="preserve">
<style type="text/css">
	.st0{fill:#DEBAA3;}
	.st1{fill:#C59D87;}
	.st2{opacity:8.000000e-02;fill:#4A4B6B;}
</style>
<g id="XMLID_447_">
	<g id="XMLID_448_">
		<path id="XMLID_504_" class="st0" d="M888,929.4V878h-27.1v-36.9H888v-22.1h-27.1v-36.4H888v-22.1h-27.1V724H888v-51.4h-27.1
			v-36.4H888V614h-27.1v-36.4H888v-22.1h-27.1V519H888v-69h-26v-18.8h26v-21.7h-69.1v-48.1H602.8v48.1h-17.9h-31h-17.3v21.7h26v18.8
			h-26v69h27.5v36.4h-27.5v22.1h27.5V614h-27.5v22.1h27.5v36.4h-27.5V724h27.5v36.4h-27.5v22.1h27.5v36.4h-27.5v22.1h27.5V878h-27.5
			v51.4h27.5v36.4h-27.5V988h27.5v36.4h-27.5v22.1h27.5v33.5h38.7v-33.5h219v33.5h39v-33.5H888v-22.1h-27.1V988H888v-22.1h-27.1
			v-36.4H888z M733.8,431.2h88v18.9h-88V431.2z M602.8,431.2h88v18.9h-88V431.2z M602.8,519h219v36.4h-219V519z M602.8,577.6h219
			V614h-219V577.6z M602.8,636.1h219v36.4h-219V636.1z M602.8,724h219v36.4h-219V724z M602.8,782.5h219v36.4h-219V782.5z
			 M821.8,1024.4h-219V988h219V1024.4z M821.8,965.8h-219v-36.4h219V965.8z M821.8,878h-219v-36.9h219V878z"/>
		<g id="XMLID_476_">
			<g id="XMLID_477_">
				<rect id="XMLID_503_" x="536.6" y="519" class="st1" width="27.5" height="36.4"/>
				<rect id="XMLID_502_" x="536.6" y="577.6" class="st1" width="27.5" height="36.4"/>
				<rect id="XMLID_501_" x="536.6" y="636.1" class="st1" width="27.5" height="36.4"/>
				<rect id="XMLID_500_" x="536.6" y="724" class="st1" width="27.5" height="36.4"/>
				<rect id="XMLID_499_" x="536.6" y="782.5" class="st1" width="27.5" height="36.4"/>
				<polygon id="XMLID_498_" class="st1" points="536.6,841.1 564.1,841.1 564.1,878 536.7,878 536.7,929.4 564.1,929.4 
					564.1,965.8 536.7,965.8 536.7,988 564.1,988 564.1,1024.4 536.7,1024.4 536.7,1046.5 564.1,1046.5 564.1,1080 536.6,1080 				
					"/>
				<rect id="XMLID_497_" x="602.8" y="519" class="st1" width="219" height="36.4"/>
				<rect id="XMLID_496_" x="602.8" y="577.6" class="st1" width="219" height="36.4"/>
				<rect id="XMLID_495_" x="602.8" y="636.1" class="st1" width="219" height="36.4"/>
				<rect id="XMLID_494_" x="602.8" y="724" class="st1" width="219" height="36.4"/>
				<rect id="XMLID_493_" x="602.8" y="782.5" class="st1" width="219" height="36.4"/>
				<rect id="XMLID_492_" x="602.8" y="841.1" class="st1" width="219" height="36.9"/>
				<rect id="XMLID_491_" x="602.8" y="929.4" class="st1" width="219" height="36.4"/>
				<rect id="XMLID_490_" x="602.8" y="988" class="st1" width="219" height="36.4"/>
				<rect id="XMLID_489_" x="602.8" y="1046.5" class="st1" width="219" height="33.5"/>
				<rect id="XMLID_488_" x="860.8" y="519" class="st1" width="27.1" height="36.4"/>
				<rect id="XMLID_487_" x="860.8" y="577.6" class="st1" width="27.1" height="36.4"/>
				<rect id="XMLID_486_" x="860.8" y="636.1" class="st1" width="27.1" height="36.4"/>
				<rect id="XMLID_485_" x="860.8" y="724" class="st1" width="27.1" height="36.4"/>
				<rect id="XMLID_484_" x="860.8" y="782.5" class="st1" width="27.1" height="36.4"/>
				<rect id="XMLID_483_" x="860.8" y="841.1" class="st1" width="27.1" height="36.9"/>
				<rect id="XMLID_482_" x="860.8" y="929.4" class="st1" width="27.1" height="36.4"/>
				<rect id="XMLID_481_" x="860.8" y="988" class="st1" width="27.1" height="36.4"/>
				<rect id="XMLID_480_" x="860.8" y="1046.5" class="st1" width="27.1" height="33.5"/>
				<rect id="XMLID_479_" x="602.8" y="431.2" class="st1" width="88" height="18.9"/>
				<rect id="XMLID_478_" x="733.8" y="431.2" class="st1" width="88" height="18.9"/>
			</g>
		</g>
		<rect id="XMLID_475_" x="602.8" y="519" class="st2" width="219" height="4.8"/>
		<rect id="XMLID_474_" x="860.8" y="519" class="st2" width="27.1" height="4.8"/>
		<rect id="XMLID_473_" x="536.8" y="519" class="st2" width="27.1" height="4.8"/>
		<rect id="XMLID_472_" x="602.8" y="577.6" class="st2" width="219" height="4.8"/>
		<rect id="XMLID_471_" x="860.8" y="577.6" class="st2" width="27.1" height="4.8"/>
		<rect id="XMLID_470_" x="536.8" y="577.6" class="st2" width="27.1" height="4.8"/>
		<rect id="XMLID_469_" x="602.8" y="636.1" class="st2" width="219" height="4.8"/>
		<rect id="XMLID_468_" x="860.8" y="636.1" class="st2" width="27.1" height="4.8"/>
		<rect id="XMLID_467_" x="536.8" y="636.1" class="st2" width="27.1" height="4.8"/>
		<rect id="XMLID_466_" x="602.8" y="724" class="st2" width="219" height="4.8"/>
		<rect id="XMLID_465_" x="860.8" y="724" class="st2" width="27.1" height="4.8"/>
		<rect id="XMLID_464_" x="536.8" y="724" class="st2" width="27.1" height="4.8"/>
		<rect id="XMLID_463_" x="602.8" y="782.5" class="st2" width="219" height="4.8"/>
		<rect id="XMLID_462_" x="860.8" y="782.5" class="st2" width="27.1" height="4.8"/>
		<rect id="XMLID_461_" x="536.8" y="782.5" class="st2" width="27.1" height="4.8"/>
		<rect id="XMLID_460_" x="602.8" y="841.1" class="st2" width="219" height="4.8"/>
		<rect id="XMLID_459_" x="860.8" y="841.1" class="st2" width="27.1" height="4.8"/>
		<rect id="XMLID_458_" x="536.8" y="841.1" class="st2" width="27.1" height="4.8"/>
		<rect id="XMLID_457_" x="602.8" y="929.4" class="st2" width="219" height="4.8"/>
		<rect id="XMLID_456_" x="860.8" y="929.4" class="st2" width="27.1" height="4.8"/>
		<rect id="XMLID_455_" x="536.8" y="929.4" class="st2" width="27.1" height="4.8"/>
		<rect id="XMLID_454_" x="602.8" y="988" class="st2" width="219" height="4.8"/>
		<rect id="XMLID_453_" x="860.8" y="988" class="st2" width="27.1" height="4.8"/>
		<rect id="XMLID_452_" x="536.8" y="988" class="st2" width="27.1" height="4.8"/>
		<rect id="XMLID_451_" x="602.8" y="1046.5" class="st2" width="219" height="4.8"/>
		<rect id="XMLID_450_" x="860.8" y="1046.5" class="st2" width="27.1" height="4.8"/>
		<rect id="XMLID_449_" x="536.8" y="1046.5" class="st2" width="27.1" height="4.8"/>
	</g>
</g>
</svg>