<?xml version="1.0" encoding="utf-8"?>
<!-- Generator: Adobe Illustrator 19.0.0, SVG Export Plug-In . SVG Version: 6.00 Build 0)  -->
<svg version="1.1" id="Layer_1" xmlns="http://www.w3.org/2000/svg" xmlns:xlink="http://www.w3.org/1999/xlink" x="0px" y="0px"
	 viewBox="0 0 1920 1080" style="enable-background:new 0 0 1920 1080;" xml:space="preserve">
<style type="text/css">
	.st0{fill:#DEBAA3;}
	.st1{fill:#C59D87;}
	.st2{opacity:8.000000e-02;fill:#4A4B6B;}
</style>
<g id="XMLID_131_">
	<g id="XMLID_332_">
		<path id="XMLID_389_" class="st0" d="M1265.3,1042.7v-39.2h193.4v39.2H1265.3L1265.3,1042.7z M1504.4,1042.7v-39.2h54.9v39.2
			H1504.4L1504.4,1042.7z M1677.1,1042.7v-39.2h56.7v39.2H1677.1L1677.1,1042.7z M1779.5,1042.7v-39.2h141v39.2H1779.5
			L1779.5,1042.7z M1265.3,985.8v-39.2h193.4v39.2H1265.3L1265.3,985.8z M1504.4,985.8v-39.2h54.9v39.2H1504.4L1504.4,985.8z
			 M1677.1,985.4v-39.2h56.7v39.2H1677.1L1677.1,985.4z M1779.5,985.4v-39.2h141v39.2H1779.5L1779.5,985.4z M1265.3,928.5v-39.2
			h193.4v39.2H1265.3L1265.3,928.5z M1504.4,928.5v-39.2h54.9v39.2H1504.4L1504.4,928.5z M1677.1,928v-39.2h56.7V928H1677.1
			L1677.1,928z M1779.5,928v-39.2h141V928H1779.5L1779.5,928z M1677.1,871.6v-39.2h56.7v39.2H1677.1L1677.1,871.6z M1779.5,871.6
			v-39.2h141v39.2H1779.5L1779.5,871.6z M1265.3,871.1v-39.2h193.4v39.2H1265.3L1265.3,871.1z M1504.4,871.1v-39.2h54.9v39.2H1504.4
			L1504.4,871.1z M1677.1,814.2V775h56.7v39.2H1677.1L1677.1,814.2z M1779.5,814.2V775h141v39.2H1779.5L1779.5,814.2z M1265.3,813.7
			v-39.2h193.4v39.2H1265.3L1265.3,813.7z M1504.4,813.7v-39.2h54.9v39.2H1504.4L1504.4,813.7z M1677.1,756.8v-39.2h56.7v39.2
			H1677.1L1677.1,756.8z M1779.5,756.8v-39.2h141v39.2H1779.5L1779.5,756.8z M1265.3,756.3v-39.2h193.4v39.2H1265.3L1265.3,756.3z
			 M1504.4,756.3v-39.2h54.9v39.2H1504.4L1504.4,756.3z M1677.1,699.4v-39.2h56.7v39.2H1677.1L1677.1,699.4z M1779.5,699.4v-39.2
			h141v39.2H1779.5L1779.5,699.4z M1265.3,698.9v-39.2h193.4v39.2H1265.3L1265.3,698.9z M1504.4,698.9v-39.2h54.9v39.2H1504.4
			L1504.4,698.9z M1677.1,642.1v-39.2h56.7v39.2H1677.1L1677.1,642.1z M1779.5,642.1v-39.2h141v39.2H1779.5L1779.5,642.1z
			 M1265.3,641.6v-39.2h193.4v39.2H1265.3L1265.3,641.6z M1504.4,641.6v-39.2h54.9v39.2H1504.4L1504.4,641.6z M1677.1,584.7v-39.2
			h56.7v39.2H1677.1L1677.1,584.7z M1779.5,584.7v-39.2h141v39.2H1779.5L1779.5,584.7z M1265.3,584.2V545h193.4v39.2H1265.3
			L1265.3,584.2z M1504.4,584.2V545h54.9v39.2H1504.4L1504.4,584.2z M1677.1,527.3v-39.2h56.7v39.2H1677.1L1677.1,527.3z
			 M1779.5,527.3v-39.2h141v39.2H1779.5L1779.5,527.3z M1265.3,526.8v-39.2h193.4v39.2H1265.3L1265.3,526.8z M1504.4,526.8v-39.2
			h54.9v39.2H1504.4L1504.4,526.8z M1677.1,469.9v-39.2h56.7v39.2H1677.1L1677.1,469.9z M1779.5,469.9v-39.2h141v39.2H1779.5
			L1779.5,469.9z M1265.3,469.4v-39.2h193.4v39.2H1265.3L1265.3,469.4z M1504.4,469.4v-39.2h54.9v39.2H1504.4L1504.4,469.4z
			 M1265.3,412v-39.2h193.4V412H1265.3L1265.3,412z M1504.4,412v-39.2h54.9V412H1504.4L1504.4,412z M1265.3,354.7v-39.2h193.4v39.2
			H1265.3L1265.3,354.7z M1504.4,354.7v-39.2h54.9v39.2H1504.4L1504.4,354.7z M1265.3,297.7v-39.2h193.4v39.2H1265.3L1265.3,297.7z
			 M1504.4,297.7v-39.2h54.9v39.2H1504.4L1504.4,297.7z M1265.3,240.3v-39.2h193.4v39.2H1265.3L1265.3,240.3z M1504.4,240.3v-39.2
			h54.9v39.2H1504.4L1504.4,240.3z M1265.3,182.9v-39.2h193.4v39.2H1265.3L1265.3,182.9z M1504.4,182.9v-39.2h54.9v39.2H1504.4
			L1504.4,182.9z M1265.3,125.4V86.2h193.4v39.2H1265.3L1265.3,125.4z M1504.4,125.4V86.2h54.9v39.2H1504.4L1504.4,125.4z M1608.8,0
			h-343.5v1080h343.5h311.8V382h-311.8V0L1608.8,0z"/>
		<polygon id="XMLID_388_" class="st1" points="1458.7,315.5 1265.3,315.5 1265.3,354.7 1458.7,354.7 1458.7,315.5 		"/>
		<polygon id="XMLID_387_" class="st1" points="1559.4,315.5 1504.4,315.5 1504.4,354.7 1559.4,354.7 1559.4,315.5 		"/>
		<polygon id="XMLID_386_" class="st1" points="1458.7,372.9 1265.3,372.9 1265.3,412 1458.7,412 1458.7,372.9 		"/>
		<polygon id="XMLID_385_" class="st1" points="1559.4,372.9 1504.4,372.9 1504.4,412 1559.4,412 1559.4,372.9 		"/>
		<polygon id="XMLID_384_" class="st1" points="1458.7,430.2 1265.3,430.2 1265.3,469.4 1458.7,469.4 1458.7,430.2 		"/>
		<polygon id="XMLID_383_" class="st1" points="1559.4,430.2 1504.4,430.2 1504.4,469.4 1559.4,469.4 1559.4,430.2 		"/>
		<polygon id="XMLID_382_" class="st1" points="1458.7,143.7 1265.3,143.7 1265.3,182.9 1458.7,182.9 1458.7,143.7 		"/>
		<polygon id="XMLID_381_" class="st1" points="1559.4,143.7 1504.4,143.7 1504.4,182.9 1559.4,182.9 1559.4,143.7 		"/>
		<polygon id="XMLID_380_" class="st1" points="1458.7,86.2 1265.3,86.2 1265.3,125.4 1458.7,125.4 1458.7,86.2 		"/>
		<polygon id="XMLID_379_" class="st1" points="1559.4,86.2 1504.4,86.2 1504.4,125.4 1559.4,125.4 1559.4,86.2 		"/>
		<polygon id="XMLID_378_" class="st1" points="1458.7,201.1 1265.3,201.1 1265.3,240.3 1458.7,240.3 1458.7,201.1 		"/>
		<polygon id="XMLID_377_" class="st1" points="1559.4,201.1 1504.4,201.1 1504.4,240.3 1559.4,240.3 1559.4,201.1 		"/>
		<polygon id="XMLID_376_" class="st1" points="1458.7,258.5 1265.3,258.5 1265.3,297.7 1458.7,297.7 1458.7,258.5 		"/>
		<polygon id="XMLID_375_" class="st1" points="1559.4,258.5 1504.4,258.5 1504.4,297.7 1559.4,297.7 1559.4,258.5 		"/>
		<polygon id="XMLID_374_" class="st1" points="1458.7,487.6 1265.3,487.6 1265.3,526.8 1458.7,526.8 1458.7,487.6 		"/>
		<polygon id="XMLID_373_" class="st1" points="1559.4,487.6 1504.4,487.6 1504.4,526.8 1559.4,526.8 1559.4,487.6 		"/>
		<polygon id="XMLID_372_" class="st1" points="1458.7,545 1265.3,545 1265.3,584.2 1458.7,584.2 1458.7,545 		"/>
		<polygon id="XMLID_371_" class="st1" points="1559.4,545 1504.4,545 1504.4,584.2 1559.4,584.2 1559.4,545 		"/>
		<polygon id="XMLID_370_" class="st1" points="1458.7,602.4 1265.3,602.4 1265.3,641.6 1458.7,641.6 1458.7,602.4 		"/>
		<polygon id="XMLID_369_" class="st1" points="1559.4,602.4 1504.4,602.4 1504.4,641.6 1559.4,641.6 1559.4,602.4 		"/>
		<polygon id="XMLID_368_" class="st1" points="1458.7,659.8 1265.3,659.8 1265.3,698.9 1458.7,698.9 1458.7,659.8 		"/>
		<polygon id="XMLID_367_" class="st1" points="1559.4,659.8 1504.4,659.8 1504.4,698.9 1559.4,698.9 1559.4,659.8 		"/>
		<polygon id="XMLID_366_" class="st1" points="1458.7,717.1 1265.3,717.1 1265.3,756.3 1458.7,756.3 1458.7,717.1 		"/>
		<polygon id="XMLID_365_" class="st1" points="1559.4,717.1 1504.4,717.1 1504.4,756.3 1559.4,756.3 1559.4,717.1 		"/>
		<polygon id="XMLID_364_" class="st1" points="1458.7,774.5 1265.3,774.5 1265.3,813.7 1458.7,813.7 1458.7,774.5 		"/>
		<polygon id="XMLID_363_" class="st1" points="1559.4,774.5 1504.4,774.5 1504.4,813.7 1559.4,813.7 1559.4,774.5 		"/>
		<polygon id="XMLID_362_" class="st1" points="1458.7,831.9 1265.3,831.9 1265.3,871.1 1458.7,871.1 1458.7,831.9 		"/>
		<polygon id="XMLID_361_" class="st1" points="1559.4,831.9 1504.4,831.9 1504.4,871.1 1559.4,871.1 1559.4,831.9 		"/>
		<polygon id="XMLID_360_" class="st1" points="1458.7,889.3 1265.3,889.3 1265.3,928.5 1458.7,928.5 1458.7,889.3 		"/>
		<polygon id="XMLID_359_" class="st1" points="1559.4,889.3 1504.4,889.3 1504.4,928.5 1559.4,928.5 1559.4,889.3 		"/>
		<polygon id="XMLID_358_" class="st1" points="1458.7,946.7 1265.3,946.7 1265.3,985.8 1458.7,985.8 1458.7,946.7 		"/>
		<polygon id="XMLID_357_" class="st1" points="1559.4,946.7 1504.4,946.7 1504.4,985.8 1559.4,985.8 1559.4,946.7 		"/>
		<polygon id="XMLID_356_" class="st1" points="1458.7,1003.6 1265.3,1003.6 1265.3,1042.7 1458.7,1042.7 1458.7,1003.6 		"/>
		<polygon id="XMLID_355_" class="st1" points="1559.4,1003.6 1504.4,1003.6 1504.4,1042.7 1559.4,1042.7 1559.4,1003.6 		"/>
		<polygon id="XMLID_354_" class="st1" points="1733.8,430.7 1677.1,430.7 1677.1,469.9 1733.8,469.9 1733.8,430.7 		"/>
		<polygon id="XMLID_353_" class="st1" points="1920.6,430.7 1779.5,430.7 1779.5,469.9 1920.6,469.9 1920.6,430.7 		"/>
		<polygon id="XMLID_352_" class="st1" points="1733.8,488.1 1677.1,488.1 1677.1,527.3 1733.8,527.3 1733.8,488.1 		"/>
		<polygon id="XMLID_351_" class="st1" points="1920.6,488.1 1779.5,488.1 1779.5,527.3 1920.6,527.3 1920.6,488.1 		"/>
		<polygon id="XMLID_350_" class="st1" points="1733.8,545.5 1677.1,545.5 1677.1,584.7 1733.8,584.7 1733.8,545.5 		"/>
		<polygon id="XMLID_349_" class="st1" points="1920.6,545.5 1779.5,545.5 1779.5,584.7 1920.6,584.7 1920.6,545.5 		"/>
		<polygon id="XMLID_348_" class="st1" points="1733.8,602.9 1677.1,602.9 1677.1,642.1 1733.8,642.1 1733.8,602.9 		"/>
		<polygon id="XMLID_347_" class="st1" points="1920.6,602.9 1779.5,602.9 1779.5,642.1 1920.6,642.1 1920.6,602.9 		"/>
		<polygon id="XMLID_346_" class="st1" points="1733.8,660.3 1677.1,660.3 1677.1,699.4 1733.8,699.4 1733.8,660.3 		"/>
		<polygon id="XMLID_345_" class="st1" points="1920.6,660.3 1779.5,660.3 1779.5,699.4 1920.6,699.4 1920.6,660.3 		"/>
		<polygon id="XMLID_344_" class="st1" points="1733.8,717.6 1677.1,717.6 1677.1,756.8 1733.8,756.8 1733.8,717.6 		"/>
		<polygon id="XMLID_343_" class="st1" points="1920.6,717.6 1779.5,717.6 1779.5,756.8 1920.6,756.8 1920.6,717.6 		"/>
		<polygon id="XMLID_342_" class="st1" points="1733.8,775 1677.1,775 1677.1,814.2 1733.8,814.2 1733.8,775 		"/>
		<polygon id="XMLID_341_" class="st1" points="1920.6,775 1779.5,775 1779.5,814.2 1920.6,814.2 1920.6,775 		"/>
		<polygon id="XMLID_340_" class="st1" points="1733.8,832.4 1677.1,832.4 1677.1,871.6 1733.8,871.6 1733.8,832.4 		"/>
		<polygon id="XMLID_339_" class="st1" points="1920.6,832.4 1779.5,832.4 1779.5,871.6 1920.6,871.6 1920.6,832.4 		"/>
		<polygon id="XMLID_338_" class="st1" points="1733.8,888.8 1677.1,888.8 1677.1,928 1733.8,928 1733.8,888.8 		"/>
		<polygon id="XMLID_337_" class="st1" points="1920.6,888.8 1779.5,888.8 1779.5,928 1920.6,928 1920.6,888.8 		"/>
		<polygon id="XMLID_336_" class="st1" points="1733.8,946.2 1677.1,946.2 1677.1,985.4 1733.8,985.4 1733.8,946.2 		"/>
		<polygon id="XMLID_335_" class="st1" points="1920.6,946.2 1779.5,946.2 1779.5,985.4 1920.6,985.4 1920.6,946.2 		"/>
		<polygon id="XMLID_334_" class="st1" points="1733.8,1003.6 1677.1,1003.6 1677.1,1042.7 1733.8,1042.7 1733.8,1003.6 		"/>
		<polygon id="XMLID_333_" class="st1" points="1920.6,1003.6 1779.5,1003.6 1779.5,1042.7 1920.6,1042.7 1920.6,1003.6 		"/>
	</g>
	<g id="XMLID_319_">
		<g id="XMLID_329_">
			<rect id="XMLID_331_" x="1265.3" y="86.2" class="st2" width="193.4" height="7"/>
			<rect id="XMLID_330_" x="1504.4" y="86.2" class="st2" width="54.9" height="7"/>
		</g>
		<g id="XMLID_326_">
			<rect id="XMLID_328_" x="1265.3" y="143.7" class="st2" width="193.4" height="7"/>
			<rect id="XMLID_327_" x="1504.4" y="143.7" class="st2" width="54.9" height="7"/>
		</g>
		<g id="XMLID_323_">
			<rect id="XMLID_325_" x="1265.3" y="201.1" class="st2" width="193.4" height="7"/>
			<rect id="XMLID_324_" x="1504.4" y="201.1" class="st2" width="54.9" height="7"/>
		</g>
		<g id="XMLID_320_">
			<rect id="XMLID_322_" x="1265.3" y="258.6" class="st2" width="193.4" height="7"/>
			<rect id="XMLID_321_" x="1504.4" y="258.6" class="st2" width="54.9" height="7"/>
		</g>
	</g>
	<g id="XMLID_306_">
		<g id="XMLID_316_">
			<rect id="XMLID_318_" x="1265.3" y="315.3" class="st2" width="193.4" height="7"/>
			<rect id="XMLID_317_" x="1504.4" y="315.3" class="st2" width="54.9" height="7"/>
		</g>
		<g id="XMLID_313_">
			<rect id="XMLID_315_" x="1265.3" y="372.8" class="st2" width="193.4" height="7"/>
			<rect id="XMLID_314_" x="1504.4" y="372.8" class="st2" width="54.9" height="7"/>
		</g>
		<g id="XMLID_310_">
			<rect id="XMLID_312_" x="1265.3" y="430.2" class="st2" width="193.4" height="7"/>
			<rect id="XMLID_311_" x="1504.4" y="430.2" class="st2" width="54.9" height="7"/>
		</g>
		<g id="XMLID_307_">
			<rect id="XMLID_309_" x="1265.3" y="487.7" class="st2" width="193.4" height="7"/>
			<rect id="XMLID_308_" x="1504.4" y="487.7" class="st2" width="54.9" height="7"/>
		</g>
	</g>
	<g id="XMLID_293_">
		<g id="XMLID_303_">
			<rect id="XMLID_305_" x="1265.3" y="545" class="st2" width="193.4" height="7"/>
			<rect id="XMLID_304_" x="1504.4" y="545" class="st2" width="54.9" height="7"/>
		</g>
		<g id="XMLID_300_">
			<rect id="XMLID_302_" x="1265.3" y="602.5" class="st2" width="193.4" height="7"/>
			<rect id="XMLID_301_" x="1504.4" y="602.5" class="st2" width="54.9" height="7"/>
		</g>
		<g id="XMLID_297_">
			<rect id="XMLID_299_" x="1265.3" y="659.9" class="st2" width="193.4" height="7"/>
			<rect id="XMLID_298_" x="1504.4" y="659.9" class="st2" width="54.9" height="7"/>
		</g>
		<g id="XMLID_294_">
			<rect id="XMLID_296_" x="1265.3" y="717.4" class="st2" width="193.4" height="7"/>
			<rect id="XMLID_295_" x="1504.4" y="717.4" class="st2" width="54.9" height="7"/>
		</g>
	</g>
	<g id="XMLID_277_">
		<g id="XMLID_290_">
			<rect id="XMLID_292_" x="1265.3" y="774.5" class="st2" width="193.4" height="7"/>
			<rect id="XMLID_291_" x="1504.4" y="774.5" class="st2" width="54.9" height="7"/>
		</g>
		<g id="XMLID_287_">
			<rect id="XMLID_289_" x="1265.3" y="832" class="st2" width="193.4" height="7"/>
			<rect id="XMLID_288_" x="1504.4" y="832" class="st2" width="54.9" height="7"/>
		</g>
		<g id="XMLID_284_">
			<rect id="XMLID_286_" x="1265.3" y="889.4" class="st2" width="193.4" height="7"/>
			<rect id="XMLID_285_" x="1504.4" y="889.4" class="st2" width="54.9" height="7"/>
		</g>
		<g id="XMLID_281_">
			<rect id="XMLID_283_" x="1265.3" y="946.9" class="st2" width="193.4" height="7"/>
			<rect id="XMLID_282_" x="1504.4" y="946.9" class="st2" width="54.9" height="7"/>
		</g>
		<g id="XMLID_278_">
			<rect id="XMLID_280_" x="1265.3" y="1003.6" class="st2" width="193.4" height="7"/>
			<rect id="XMLID_279_" x="1504.4" y="1003.6" class="st2" width="54.9" height="7"/>
		</g>
	</g>
	<g id="XMLID_199_">
		<g id="XMLID_266_">
			<g id="XMLID_272_">
				<g id="XMLID_275_">
					<rect id="XMLID_276_" x="1779.5" y="430.7" class="st2" width="141" height="7"/>
				</g>
				<g id="XMLID_273_">
					<rect id="XMLID_274_" x="1677.1" y="430.7" class="st2" width="56.7" height="7"/>
				</g>
			</g>
			<g id="XMLID_267_">
				<g id="XMLID_270_">
					<rect id="XMLID_271_" x="1779.5" y="488.1" class="st2" width="141" height="7"/>
				</g>
				<g id="XMLID_268_">
					<rect id="XMLID_269_" x="1677.1" y="488.1" class="st2" width="56.7" height="7"/>
				</g>
			</g>
		</g>
		<g id="XMLID_200_">
			<g id="XMLID_261_">
				<g id="XMLID_264_">
					<rect id="XMLID_265_" x="1779.5" y="545.5" class="st2" width="141" height="7"/>
				</g>
				<g id="XMLID_262_">
					<rect id="XMLID_263_" x="1677.1" y="545.5" class="st2" width="56.7" height="7"/>
				</g>
			</g>
			<g id="XMLID_201_">
				<g id="XMLID_204_">
					<rect id="XMLID_205_" x="1779.5" y="602.9" class="st2" width="141" height="7"/>
				</g>
				<g id="XMLID_202_">
					<rect id="XMLID_203_" x="1677.1" y="602.9" class="st2" width="56.7" height="7"/>
				</g>
			</g>
		</g>
	</g>
	<g id="XMLID_157_">
		<g id="XMLID_175_">
			<g id="XMLID_194_">
				<g id="XMLID_197_">
					<rect id="XMLID_198_" x="1779.5" y="660.3" class="st2" width="141" height="7"/>
				</g>
				<g id="XMLID_195_">
					<rect id="XMLID_196_" x="1677.1" y="660.3" class="st2" width="56.7" height="7"/>
				</g>
			</g>
			<g id="XMLID_176_">
				<g id="XMLID_192_">
					<rect id="XMLID_193_" x="1779.5" y="717.6" class="st2" width="141" height="7"/>
				</g>
				<g id="XMLID_177_">
					<rect id="XMLID_178_" x="1677.1" y="717.6" class="st2" width="56.7" height="7"/>
				</g>
			</g>
		</g>
		<g id="XMLID_158_">
			<g id="XMLID_170_">
				<g id="XMLID_173_">
					<rect id="XMLID_174_" x="1779.5" y="775" class="st2" width="141" height="7"/>
				</g>
				<g id="XMLID_171_">
					<rect id="XMLID_172_" x="1677.1" y="775" class="st2" width="56.7" height="7"/>
				</g>
			</g>
			<g id="XMLID_159_">
				<g id="XMLID_168_">
					<rect id="XMLID_169_" x="1779.5" y="832.4" class="st2" width="141" height="7"/>
				</g>
				<g id="XMLID_166_">
					<rect id="XMLID_167_" x="1677.1" y="832.4" class="st2" width="56.7" height="7"/>
				</g>
			</g>
		</g>
	</g>
	<g id="XMLID_132_">
		<g id="XMLID_145_">
			<g id="XMLID_152_">
				<g id="XMLID_155_">
					<rect id="XMLID_156_" x="1779.5" y="888.8" class="st2" width="141" height="7"/>
				</g>
				<g id="XMLID_153_">
					<rect id="XMLID_154_" x="1677.1" y="888.8" class="st2" width="56.7" height="7"/>
				</g>
			</g>
			<g id="XMLID_146_">
				<g id="XMLID_149_">
					<rect id="XMLID_151_" x="1779.5" y="946.2" class="st2" width="141" height="7"/>
				</g>
				<g id="XMLID_147_">
					<rect id="XMLID_148_" x="1677.1" y="946.2" class="st2" width="56.7" height="7"/>
				</g>
			</g>
		</g>
		<g id="XMLID_133_">
			<g id="XMLID_135_">
				<g id="XMLID_138_">
					<rect id="XMLID_139_" x="1779.5" y="1003.6" class="st2" width="141" height="7"/>
				</g>
				<g id="XMLID_136_">
					<rect id="XMLID_137_" x="1677.1" y="1003.6" class="st2" width="56.7" height="7"/>
				</g>
			</g>
		</g>
	</g>
</g>
</svg>