<svg id="Layer_1" xmlns="http://www.w3.org/2000/svg" viewBox="0 0 1920 1080"><style>.st0{fill:#debaa3}.st1{fill:#c59d87}.st2{opacity:8e-2;fill:#4a4b6b}</style><g id="XMLID_447_"><g id="XMLID_448_"><path id="XMLID_504_" class="st0" d="M888 929.4V878h-27.1v-36.9H888V819h-27.1v-36.4H888v-22.1h-27.1V724H888v-51.4h-27.1v-36.4H888V614h-27.1v-36.4H888v-22.1h-27.1V519H888v-69h-26v-18.8h26v-21.7h-69.1v-48.1H602.8v48.1h-66.2v21.7h26V450h-26v69h27.5v36.4h-27.5v22.1h27.5V614h-27.5v22.1h27.5v36.4h-27.5V724h27.5v36.4h-27.5v22.1h27.5v36.4h-27.5V841h27.5v37h-27.5v51.4h27.5v36.4h-27.5V988h27.5v36.4h-27.5v22.1h27.5v33.5h38.7v-33.5h219v33.5h39v-33.5H888v-22.1h-27.1V988H888v-22.1h-27.1v-36.4H888zM733.8 431.2h88v18.9h-88v-18.9zm-131 0h88v18.9h-88v-18.9zm0 87.8h219v36.4h-219V519zm0 58.6h219V614h-219v-36.4zm0 58.5h219v36.4h-219v-36.4zm0 87.9h219v36.4h-219V724zm0 58.5h219v36.4h-219v-36.4zm219 241.9h-219V988h219v36.4zm0-58.6h-219v-36.4h219v36.4zm0-87.8h-219v-36.9h219V878z"/><g id="XMLID_476_"><g id="XMLID_477_"><path id="XMLID_503_" class="st1" d="M536.6 519h27.5v36.4h-27.5z"/><path id="XMLID_502_" class="st1" d="M536.6 577.6h27.5V614h-27.5z"/><path id="XMLID_501_" class="st1" d="M536.6 636.1h27.5v36.4h-27.5z"/><path id="XMLID_500_" class="st1" d="M536.6 724h27.5v36.4h-27.5z"/><path id="XMLID_499_" class="st1" d="M536.6 782.5h27.5v36.4h-27.5z"/><path id="XMLID_498_" class="st1" d="M536.6 841.1h27.5V878h-27.4v51.4h27.4v36.4h-27.4V988h27.4v36.4h-27.4v22.1h27.4v33.5h-27.5z"/><path id="XMLID_497_" class="st1" d="M602.8 519h219v36.4h-219z"/><path id="XMLID_496_" class="st1" d="M602.8 577.6h219V614h-219z"/><path id="XMLID_495_" class="st1" d="M602.8 636.1h219v36.4h-219z"/><path id="XMLID_494_" class="st1" d="M602.8 724h219v36.4h-219z"/><path id="XMLID_493_" class="st1" d="M602.8 782.5h219v36.4h-219z"/><path id="XMLID_492_" class="st1" d="M602.8 841.1h219V878h-219z"/><path id="XMLID_491_" class="st1" d="M602.8 929.4h219v36.4h-219z"/><path id="XMLID_490_" class="st1" d="M602.8 988h219v36.4h-219z"/><path id="XMLID_489_" class="st1" d="M602.8 1046.5h219v33.5h-219z"/><path id="XMLID_488_" class="st1" d="M860.8 519h27.1v36.4h-27.1z"/><path id="XMLID_487_" class="st1" d="M860.8 577.6h27.1V614h-27.1z"/><path id="XMLID_486_" class="st1" d="M860.8 636.1h27.1v36.4h-27.1z"/><path id="XMLID_485_" class="st1" d="M860.8 724h27.1v36.4h-27.1z"/><path id="XMLID_484_" class="st1" d="M860.8 782.5h27.1v36.4h-27.1z"/><path id="XMLID_483_" class="st1" d="M860.8 841.1h27.1V878h-27.1z"/><path id="XMLID_482_" class="st1" d="M860.8 929.4h27.1v36.4h-27.1z"/><path id="XMLID_481_" class="st1" d="M860.8 988h27.1v36.4h-27.1z"/><path id="XMLID_480_" class="st1" d="M860.8 1046.5h27.1v33.5h-27.1z"/><path id="XMLID_479_" class="st1" d="M602.8 431.2h88v18.9h-88z"/><path id="XMLID_478_" class="st1" d="M733.8 431.2h88v18.9h-88z"/></g></g><path id="XMLID_475_" class="st2" d="M602.8 519h219v4.8h-219z"/><path id="XMLID_474_" class="st2" d="M860.8 519h27.1v4.8h-27.1z"/><path id="XMLID_473_" class="st2" d="M536.8 519h27.1v4.8h-27.1z"/><path id="XMLID_472_" class="st2" d="M602.8 577.6h219v4.8h-219z"/><path id="XMLID_471_" class="st2" d="M860.8 577.6h27.1v4.8h-27.1z"/><path id="XMLID_470_" class="st2" d="M536.8 577.6h27.1v4.8h-27.1z"/><path id="XMLID_469_" class="st2" d="M602.8 636.1h219v4.8h-219z"/><path id="XMLID_468_" class="st2" d="M860.8 636.1h27.1v4.8h-27.1z"/><path id="XMLID_467_" class="st2" d="M536.8 636.1h27.1v4.8h-27.1z"/><path id="XMLID_466_" class="st2" d="M602.8 724h219v4.8h-219z"/><path id="XMLID_465_" class="st2" d="M860.8 724h27.1v4.8h-27.1z"/><path id="XMLID_464_" class="st2" d="M536.8 724h27.1v4.8h-27.1z"/><path id="XMLID_463_" class="st2" d="M602.8 782.5h219v4.8h-219z"/><path id="XMLID_462_" class="st2" d="M860.8 782.5h27.1v4.8h-27.1z"/><path id="XMLID_461_" class="st2" d="M536.8 782.5h27.1v4.8h-27.1z"/><path id="XMLID_460_" class="st2" d="M602.8 841.1h219v4.8h-219z"/><path id="XMLID_459_" class="st2" d="M860.8 841.1h27.1v4.8h-27.1z"/><path id="XMLID_458_" class="st2" d="M536.8 841.1h27.1v4.8h-27.1z"/><path id="XMLID_457_" class="st2" d="M602.8 929.4h219v4.8h-219z"/><path id="XMLID_456_" class="st2" d="M860.8 929.4h27.1v4.8h-27.1z"/><path id="XMLID_455_" class="st2" d="M536.8 929.4h27.1v4.8h-27.1z"/><path id="XMLID_454_" class="st2" d="M602.8 988h219v4.8h-219z"/><path id="XMLID_453_" class="st2" d="M860.8 988h27.1v4.8h-27.1z"/><path id="XMLID_452_" class="st2" d="M536.8 988h27.1v4.8h-27.1z"/><path id="XMLID_451_" class="st2" d="M602.8 1046.5h219v4.8h-219z"/><path id="XMLID_450_" class="st2" d="M860.8 1046.5h27.1v4.8h-27.1z"/><path id="XMLID_449_" class="st2" d="M536.8 1046.5h27.1v4.8h-27.1z"/></g></g></svg>