<?xml version="1.0" encoding="utf-8"?>
<!-- Generator: Adobe Illustrator 19.0.0, SVG Export Plug-In . SVG Version: 6.00 Build 0)  -->
<svg version="1.1" id="Layer_1" xmlns="http://www.w3.org/2000/svg" xmlns:xlink="http://www.w3.org/1999/xlink" x="0px" y="0px"
	 viewBox="0 0 1920 1080" style="enable-background:new 0 0 1920 1080;" xml:space="preserve">
<style type="text/css">
	.st0{fill:#B3826C;}
	.st1{fill:#A1715E;}
</style>
<g id="XMLID_539_">
	<rect id="XMLID_624_" x="296.8" y="61.8" class="st0" width="353.9" height="1018.2"/>
	<g id="XMLID_603_">
		<rect id="XMLID_623_" x="317" y="130.1" class="st1" width="28.6" height="28.6"/>
		<rect id="XMLID_622_" x="364.2" y="130.1" class="st1" width="28.6" height="28.6"/>
		<rect id="XMLID_621_" x="414.5" y="130.1" class="st1" width="118.3" height="28.6"/>
		<rect id="XMLID_620_" x="601.8" y="130.1" class="st1" width="28.6" height="28.6"/>
		<rect id="XMLID_619_" x="554.6" y="130.1" class="st1" width="28.6" height="28.6"/>
		<rect id="XMLID_618_" x="317" y="177.3" class="st1" width="28.6" height="28.6"/>
		<rect id="XMLID_617_" x="364.2" y="177.3" class="st1" width="28.6" height="28.6"/>
		<rect id="XMLID_616_" x="414.5" y="177.3" class="st1" width="118.3" height="28.6"/>
		<rect id="XMLID_615_" x="601.8" y="177.3" class="st1" width="28.6" height="28.6"/>
		<rect id="XMLID_614_" x="554.6" y="177.3" class="st1" width="28.6" height="28.6"/>
		<rect id="XMLID_613_" x="317" y="224.6" class="st1" width="28.6" height="28.6"/>
		<rect id="XMLID_612_" x="364.2" y="224.6" class="st1" width="28.6" height="28.6"/>
		<rect id="XMLID_611_" x="414.5" y="224.6" class="st1" width="118.3" height="28.6"/>
		<rect id="XMLID_610_" x="601.8" y="224.6" class="st1" width="28.6" height="28.6"/>
		<rect id="XMLID_609_" x="554.6" y="224.6" class="st1" width="28.6" height="28.6"/>
		<rect id="XMLID_608_" x="317" y="271.8" class="st1" width="28.6" height="28.6"/>
		<rect id="XMLID_607_" x="364.2" y="271.8" class="st1" width="28.6" height="28.6"/>
		<rect id="XMLID_606_" x="414.5" y="271.8" class="st1" width="118.3" height="28.6"/>
		<rect id="XMLID_605_" x="601.8" y="271.8" class="st1" width="28.6" height="28.6"/>
		<rect id="XMLID_604_" x="554.6" y="271.8" class="st1" width="28.6" height="28.6"/>
	</g>
	<g id="XMLID_582_">
		<rect id="XMLID_602_" x="317" y="347.6" class="st1" width="28.6" height="28.6"/>
		<rect id="XMLID_601_" x="364.2" y="347.6" class="st1" width="28.6" height="28.6"/>
		<rect id="XMLID_600_" x="414.5" y="347.6" class="st1" width="118.3" height="28.6"/>
		<rect id="XMLID_599_" x="601.8" y="347.6" class="st1" width="28.6" height="28.6"/>
		<rect id="XMLID_598_" x="554.6" y="347.6" class="st1" width="28.6" height="28.6"/>
		<rect id="XMLID_597_" x="317" y="394.9" class="st1" width="28.6" height="28.6"/>
		<rect id="XMLID_596_" x="364.2" y="394.9" class="st1" width="28.6" height="28.6"/>
		<rect id="XMLID_595_" x="414.5" y="394.9" class="st1" width="118.3" height="28.6"/>
		<rect id="XMLID_594_" x="601.8" y="394.9" class="st1" width="28.6" height="28.6"/>
		<rect id="XMLID_593_" x="554.6" y="394.9" class="st1" width="28.6" height="28.6"/>
		<rect id="XMLID_592_" x="317" y="442.1" class="st1" width="28.6" height="28.6"/>
		<rect id="XMLID_591_" x="364.2" y="442.1" class="st1" width="28.6" height="28.6"/>
		<rect id="XMLID_590_" x="414.5" y="442.1" class="st1" width="118.3" height="28.6"/>
		<rect id="XMLID_589_" x="601.8" y="442.1" class="st1" width="28.6" height="28.6"/>
		<rect id="XMLID_588_" x="554.6" y="442.1" class="st1" width="28.6" height="28.6"/>
		<rect id="XMLID_587_" x="317" y="489.4" class="st1" width="28.6" height="28.6"/>
		<rect id="XMLID_586_" x="364.2" y="489.4" class="st1" width="28.6" height="28.6"/>
		<rect id="XMLID_585_" x="414.5" y="489.4" class="st1" width="118.3" height="28.6"/>
		<rect id="XMLID_584_" x="601.8" y="489.4" class="st1" width="28.6" height="28.6"/>
		<rect id="XMLID_583_" x="554.6" y="489.4" class="st1" width="28.6" height="28.6"/>
	</g>
	<g id="XMLID_561_">
		<rect id="XMLID_581_" x="317" y="567.5" class="st1" width="28.6" height="28.6"/>
		<rect id="XMLID_580_" x="364.2" y="567.5" class="st1" width="28.6" height="28.6"/>
		<rect id="XMLID_579_" x="414.5" y="567.5" class="st1" width="118.3" height="28.6"/>
		<rect id="XMLID_578_" x="601.8" y="567.5" class="st1" width="28.6" height="28.6"/>
		<rect id="XMLID_577_" x="554.6" y="567.5" class="st1" width="28.6" height="28.6"/>
		<rect id="XMLID_576_" x="317" y="614.7" class="st1" width="28.6" height="28.6"/>
		<rect id="XMLID_575_" x="364.2" y="614.7" class="st1" width="28.6" height="28.6"/>
		<rect id="XMLID_574_" x="414.5" y="614.7" class="st1" width="118.3" height="28.6"/>
		<rect id="XMLID_573_" x="601.8" y="614.7" class="st1" width="28.6" height="28.6"/>
		<rect id="XMLID_572_" x="554.6" y="614.7" class="st1" width="28.6" height="28.6"/>
		<rect id="XMLID_571_" x="317" y="662" class="st1" width="28.6" height="28.6"/>
		<rect id="XMLID_570_" x="364.2" y="662" class="st1" width="28.6" height="28.6"/>
		<rect id="XMLID_569_" x="414.5" y="662" class="st1" width="118.3" height="28.6"/>
		<rect id="XMLID_568_" x="601.8" y="662" class="st1" width="28.6" height="28.6"/>
		<rect id="XMLID_567_" x="554.6" y="662" class="st1" width="28.6" height="28.6"/>
		<rect id="XMLID_566_" x="317" y="709.2" class="st1" width="28.6" height="28.6"/>
		<rect id="XMLID_565_" x="364.2" y="709.2" class="st1" width="28.6" height="28.6"/>
		<rect id="XMLID_564_" x="414.5" y="709.2" class="st1" width="118.3" height="28.6"/>
		<rect id="XMLID_563_" x="601.8" y="709.2" class="st1" width="28.6" height="28.6"/>
		<rect id="XMLID_562_" x="554.6" y="709.2" class="st1" width="28.6" height="28.6"/>
	</g>
	<g id="XMLID_540_">
		<rect id="XMLID_560_" x="317" y="785" class="st1" width="28.6" height="28.6"/>
		<rect id="XMLID_559_" x="364.2" y="785" class="st1" width="28.6" height="28.6"/>
		<rect id="XMLID_558_" x="414.5" y="785" class="st1" width="118.3" height="28.6"/>
		<rect id="XMLID_557_" x="601.8" y="785" class="st1" width="28.6" height="28.6"/>
		<rect id="XMLID_556_" x="554.6" y="785" class="st1" width="28.6" height="28.6"/>
		<rect id="XMLID_555_" x="317" y="832.3" class="st1" width="28.6" height="28.6"/>
		<rect id="XMLID_554_" x="364.2" y="832.3" class="st1" width="28.6" height="28.6"/>
		<rect id="XMLID_553_" x="414.5" y="832.3" class="st1" width="118.3" height="28.6"/>
		<rect id="XMLID_552_" x="601.8" y="832.3" class="st1" width="28.6" height="28.6"/>
		<rect id="XMLID_551_" x="554.6" y="832.3" class="st1" width="28.6" height="28.6"/>
		<rect id="XMLID_550_" x="317" y="879.5" class="st1" width="28.6" height="28.6"/>
		<rect id="XMLID_549_" x="364.2" y="879.5" class="st1" width="28.6" height="28.6"/>
		<rect id="XMLID_548_" x="414.5" y="879.5" class="st1" width="118.3" height="28.6"/>
		<rect id="XMLID_547_" x="601.8" y="879.5" class="st1" width="28.6" height="28.6"/>
		<rect id="XMLID_546_" x="554.6" y="879.5" class="st1" width="28.6" height="28.6"/>
		<rect id="XMLID_545_" x="317" y="926.7" class="st1" width="28.6" height="28.6"/>
		<rect id="XMLID_544_" x="364.2" y="926.7" class="st1" width="28.6" height="28.6"/>
		<rect id="XMLID_543_" x="414.5" y="926.7" class="st1" width="118.3" height="28.6"/>
		<rect id="XMLID_542_" x="601.8" y="926.7" class="st1" width="28.6" height="28.6"/>
		<rect id="XMLID_541_" x="554.6" y="926.7" class="st1" width="28.6" height="28.6"/>
	</g>
</g>
</svg>