<?xml version="1.0" encoding="utf-8"?>
<!-- Generator: Adobe Illustrator 19.0.0, SVG Export Plug-In . SVG Version: 6.00 Build 0)  -->
<svg version="1.1" id="Layer_1" xmlns="http://www.w3.org/2000/svg" xmlns:xlink="http://www.w3.org/1999/xlink" x="0px" y="0px"
	 viewBox="0 0 1920 1080" style="enable-background:new 0 0 1920 1080;" xml:space="preserve">
<style type="text/css">
	.st0{fill:#C59D87;}
	.st1{fill:#DEBAA3;}
	.st2{opacity:8.000000e-02;fill:#4A4B6B;}
</style>
<g id="XMLID_516_">
	<g id="XMLID_517_">
		<g id="XMLID_527_">
			<rect id="XMLID_538_" x="59.7" y="198.8" class="st0" width="255.3" height="58.9"/>
			<rect id="XMLID_537_" x="59.7" y="280.5" class="st0" width="255.3" height="58.9"/>
			<rect id="XMLID_536_" x="59.7" y="362.3" class="st0" width="255.3" height="58.9"/>
			<rect id="XMLID_535_" x="59.7" y="444" class="st0" width="255.3" height="58.9"/>
			<rect id="XMLID_534_" x="59.7" y="525.7" class="st0" width="255.3" height="58.9"/>
			<rect id="XMLID_533_" x="59.7" y="661.7" class="st0" width="255.3" height="58.9"/>
			<rect id="XMLID_532_" x="59.7" y="743.5" class="st0" width="255.3" height="58.9"/>
			<rect id="XMLID_531_" x="59.7" y="825.2" class="st0" width="255.3" height="58.9"/>
			<rect id="XMLID_530_" x="59.7" y="906.9" class="st0" width="255.3" height="58.9"/>
			<rect id="XMLID_529_" x="59.7" y="988.7" class="st0" width="255.3" height="58.9"/>
			<polygon id="XMLID_528_" class="st1" points="324.3,198.8 324.3,154.1 254,154.1 254,100.6 -0.8,19.6 -0.8,1080 324.3,1080 
				324.3,1047.6 59.7,1047.6 59.7,988.7 324.3,988.7 324.3,965.8 59.7,965.8 59.7,906.9 324.3,906.9 324.3,884.1 59.7,884.1 
				59.7,825.2 324.3,825.2 324.3,802.4 59.7,802.4 59.7,743.5 324.3,743.5 324.3,720.6 59.7,720.6 59.7,661.7 324.3,661.7 
				324.3,584.7 59.7,584.7 59.7,525.7 324.3,525.7 324.3,502.9 59.7,502.9 59.7,444 324.3,444 324.3,421.2 59.7,421.2 59.7,362.3 
				324.3,362.3 324.3,339.4 59.7,339.4 59.7,280.5 324.3,280.5 324.3,257.7 59.7,257.7 59.7,198.8 			"/>
		</g>
		<g id="XMLID_518_">
			<rect id="XMLID_526_" x="59.7" y="198.8" class="st2" width="255.3" height="8.6"/>
			<rect id="XMLID_525_" x="59.7" y="280.5" class="st2" width="255.3" height="8.6"/>
			<rect id="XMLID_524_" x="59.7" y="362.3" class="st2" width="255.3" height="8.6"/>
			<rect id="XMLID_523_" x="59.7" y="444" class="st2" width="255.3" height="8.6"/>
			<rect id="XMLID_522_" x="59.7" y="525.7" class="st2" width="255.3" height="8.6"/>
			<rect id="XMLID_521_" x="59.7" y="661.9" class="st2" width="255.3" height="8.6"/>
			<rect id="XMLID_520_" x="59.7" y="743.5" class="st2" width="255.3" height="8.6"/>
			<rect id="XMLID_519_" x="59.7" y="825.2" class="st2" width="255.3" height="8.6"/>
		</g>
	</g>
</g>
</svg>