<?xml version="1.0" encoding="utf-8"?>
<!-- Generator: Adobe Illustrator 19.0.0, SVG Export Plug-In . SVG Version: 6.00 Build 0)  -->
<svg version="1.1" id="Layer_1" xmlns="http://www.w3.org/2000/svg" xmlns:xlink="http://www.w3.org/1999/xlink" x="0px" y="0px"
	 viewBox="0 0 1920 1080" style="enable-background:new 0 0 1920 1080;" xml:space="preserve">
<style type="text/css">
	.st0{fill:#A1715E;}
	.st1{fill:#B3826C;}
</style>
<g id="XMLID_701_">
	<rect id="XMLID_712_" x="1671.5" y="147.3" class="st0" width="182.3" height="42.1"/>
	<rect id="XMLID_711_" x="1671.5" y="205.7" class="st0" width="182.3" height="42.1"/>
	<rect id="XMLID_710_" x="1671.5" y="264.1" class="st0" width="182.3" height="42.1"/>
	<rect id="XMLID_709_" x="1671.5" y="322.4" class="st0" width="182.3" height="42.1"/>
	<rect id="XMLID_708_" x="1671.5" y="380.8" class="st0" width="182.3" height="42.1"/>
	<rect id="XMLID_707_" x="1671.5" y="477.9" class="st0" width="182.3" height="42.1"/>
	<rect id="XMLID_706_" x="1671.5" y="536.3" class="st0" width="182.3" height="42.1"/>
	<rect id="XMLID_705_" x="1671.5" y="594.6" class="st0" width="182.3" height="42.1"/>
	<rect id="XMLID_704_" x="1671.5" y="653" class="st0" width="182.3" height="42.1"/>
	<rect id="XMLID_703_" x="1671.5" y="711.4" class="st0" width="182.3" height="42.1"/>
	<polygon id="XMLID_702_" class="st1" points="1695.5,43.6 1695.5,82.2 1664.9,82.2 1664.9,147.3 1853.8,147.3 1853.8,189.4 
		1664.9,189.4 1664.9,205.7 1853.8,205.7 1853.8,247.8 1664.9,247.8 1664.9,264.1 1853.8,264.1 1853.8,306.1 1664.9,306.1 
		1664.9,322.4 1853.8,322.4 1853.8,364.5 1664.9,364.5 1664.9,380.8 1853.8,380.8 1853.8,422.9 1664.9,422.9 1664.9,477.9 
		1853.8,477.9 1853.8,520 1664.9,520 1664.9,536.3 1853.8,536.3 1853.8,578.3 1664.9,578.3 1664.9,594.6 1853.8,594.6 1853.8,636.7 
		1664.9,636.7 1664.9,653 1853.8,653 1853.8,695.1 1664.9,695.1 1664.9,711.4 1853.8,711.4 1853.8,753.4 1664.9,753.4 1664.9,1080 
		1918.4,1080 1918.4,446 1918.4,82.2 1918.4,43.6 	"/>
</g>
</svg>