<svg id="Layer_1" xmlns="http://www.w3.org/2000/svg" viewBox="0 0 1920 1080"><style>.st0{fill:#c59d87}.st1{fill:#debaa3}.st2{opacity:8e-2;fill:#4a4b6b}</style><g id="XMLID_516_"><g id="XMLID_517_"><g id="XMLID_527_"><path id="XMLID_538_" class="st0" d="M59.7 198.8H315v58.9H59.7z"/><path id="XMLID_537_" class="st0" d="M59.7 280.5H315v58.9H59.7z"/><path id="XMLID_536_" class="st0" d="M59.7 362.3H315v58.9H59.7z"/><path id="XMLID_535_" class="st0" d="M59.7 444H315v58.9H59.7z"/><path id="XMLID_534_" class="st0" d="M59.7 525.7H315v58.9H59.7z"/><path id="XMLID_533_" class="st0" d="M59.7 661.7H315v58.9H59.7z"/><path id="XMLID_532_" class="st0" d="M59.7 743.5H315v58.9H59.7z"/><path id="XMLID_531_" class="st0" d="M59.7 825.2H315v58.9H59.7z"/><path id="XMLID_530_" class="st0" d="M59.7 906.9H315v58.9H59.7z"/><path id="XMLID_529_" class="st0" d="M59.7 988.7H315v58.9H59.7z"/><path id="XMLID_528_" class="st1" d="M324.3 198.8v-44.7H254v-53.5L-.8 19.6V1080h325.1v-32.4H59.7v-58.9h264.6v-22.9H59.7v-58.9h264.6v-22.8H59.7v-58.9h264.6v-22.8H59.7v-58.9h264.6v-22.9H59.7v-58.9h264.6v-77H59.7v-59h264.6v-22.8H59.7V444h264.6v-22.8H59.7v-58.9h264.6v-22.9H59.7v-58.9h264.6v-22.8H59.7v-58.9z"/></g><g id="XMLID_518_"><path id="XMLID_526_" class="st2" d="M59.7 198.8H315v8.6H59.7z"/><path id="XMLID_525_" class="st2" d="M59.7 280.5H315v8.6H59.7z"/><path id="XMLID_524_" class="st2" d="M59.7 362.3H315v8.6H59.7z"/><path id="XMLID_523_" class="st2" d="M59.7 444H315v8.6H59.7z"/><path id="XMLID_522_" class="st2" d="M59.7 525.7H315v8.6H59.7z"/><path id="XMLID_521_" class="st2" d="M59.7 661.9H315v8.6H59.7z"/><path id="XMLID_520_" class="st2" d="M59.7 743.5H315v8.6H59.7z"/><path id="XMLID_519_" class="st2" d="M59.7 825.2H315v8.6H59.7z"/></g></g></g></svg>