<?xml version="1.0" encoding="utf-8"?>
<!-- Generator: Adobe Illustrator 19.0.0, SVG Export Plug-In . SVG Version: 6.00 Build 0)  -->
<svg version="1.1" id="Layer_1" xmlns="http://www.w3.org/2000/svg" xmlns:xlink="http://www.w3.org/1999/xlink" x="0px" y="0px"
	 viewBox="0 0 1920 1080" style="enable-background:new 0 0 1920 1080;" xml:space="preserve">
<style type="text/css">
	.st0{fill:#B3826C;}
	.st1{fill:#A1715E;}
</style>
<g id="XMLID_625_">
	<polygon id="XMLID_700_" class="st0" points="1326.9,288 1326.9,267.5 1343,267.5 1343,240.9 1326.9,240.9 1326.9,224.1 
		1188.4,180.9 1049.9,224.1 1049.9,240.9 1033.7,240.9 1033.7,267.5 1049.9,267.5 1049.9,288 986,288 986,1080 1390.8,1080 
		1390.8,288 	"/>
	<polygon id="XMLID_699_" class="st1" points="1046.6,335.5 986,335.5 986,368.9 1046.6,368.9 1046.6,335.5 	"/>
	<polygon id="XMLID_698_" class="st1" points="1046.6,394.9 986,394.9 986,428.3 1046.6,428.3 1046.6,394.9 	"/>
	<polygon id="XMLID_697_" class="st1" points="1046.6,454.3 986,454.3 986,487.7 1046.6,487.7 1046.6,454.3 	"/>
	<polygon id="XMLID_696_" class="st1" points="1046.6,513.7 986,513.7 986,547.1 1046.6,547.1 1046.6,513.7 	"/>
	<polygon id="XMLID_695_" class="st1" points="1046.6,573 986,573 986,606.5 1046.6,606.5 1046.6,573 	"/>
	<polygon id="XMLID_694_" class="st1" points="1046.6,632.4 986,632.4 986,665.9 1046.6,665.9 1046.6,632.4 	"/>
	<polygon id="XMLID_693_" class="st1" points="1390.8,335.5 1330.1,335.5 1330.1,368.9 1390.8,368.9 1390.8,335.5 	"/>
	<polygon id="XMLID_692_" class="st1" points="1390.8,394.9 1330.1,394.9 1330.1,428.3 1390.8,428.3 1390.8,394.9 	"/>
	<polygon id="XMLID_691_" class="st1" points="1390.8,454.3 1330.1,454.3 1330.1,487.7 1390.8,487.7 1390.8,454.3 	"/>
	<polygon id="XMLID_690_" class="st1" points="1390.8,513.7 1330.1,513.7 1330.1,547.1 1390.8,547.1 1390.8,513.7 	"/>
	<polygon id="XMLID_689_" class="st1" points="1390.8,573 1330.1,573 1330.1,606.5 1390.8,606.5 1390.8,573 	"/>
	<polygon id="XMLID_688_" class="st1" points="1390.8,632.4 1330.1,632.4 1330.1,665.9 1390.8,665.9 1390.8,632.4 	"/>
	<rect id="XMLID_687_" x="1092.3" y="335.5" class="st1" width="41.8" height="33.5"/>
	<rect id="XMLID_686_" x="1142.1" y="335.5" class="st1" width="42.2" height="33.5"/>
	<rect id="XMLID_685_" x="1192.4" y="335.5" class="st1" width="42.2" height="33.5"/>
	<rect id="XMLID_684_" x="1242.7" y="335.5" class="st1" width="41.8" height="33.5"/>
	<polygon id="XMLID_683_" class="st1" points="1175.3,267.3 1092.3,267.3 1092.3,288 1175.3,288 1175.3,267.3 	"/>
	<polygon id="XMLID_682_" class="st1" points="1284.5,267.3 1201.4,267.3 1201.4,288 1284.5,288 1284.5,267.3 	"/>
	<rect id="XMLID_681_" x="1092.3" y="394.9" class="st1" width="41.8" height="33.5"/>
	<rect id="XMLID_680_" x="1142.1" y="394.9" class="st1" width="42.2" height="33.5"/>
	<rect id="XMLID_679_" x="1192.4" y="394.9" class="st1" width="42.2" height="33.5"/>
	<rect id="XMLID_678_" x="1242.7" y="394.9" class="st1" width="41.8" height="33.5"/>
	<rect id="XMLID_677_" x="1092.3" y="454.3" class="st1" width="41.8" height="33.5"/>
	<rect id="XMLID_676_" x="1142.1" y="454.3" class="st1" width="42.2" height="33.5"/>
	<rect id="XMLID_675_" x="1192.4" y="454.3" class="st1" width="42.2" height="33.5"/>
	<rect id="XMLID_674_" x="1242.7" y="454.3" class="st1" width="41.8" height="33.5"/>
	<rect id="XMLID_673_" x="1092.3" y="513.7" class="st1" width="41.8" height="33.4"/>
	<rect id="XMLID_672_" x="1142.1" y="513.7" class="st1" width="42.2" height="33.4"/>
	<rect id="XMLID_671_" x="1192.4" y="513.7" class="st1" width="42.2" height="33.4"/>
	<rect id="XMLID_670_" x="1242.7" y="513.7" class="st1" width="41.8" height="33.4"/>
	<rect id="XMLID_669_" x="1092.3" y="573" class="st1" width="41.8" height="33.5"/>
	<rect id="XMLID_668_" x="1142.1" y="573" class="st1" width="42.2" height="33.5"/>
	<rect id="XMLID_667_" x="1192.4" y="573" class="st1" width="42.2" height="33.5"/>
	<rect id="XMLID_666_" x="1242.7" y="573" class="st1" width="41.8" height="33.5"/>
	<rect id="XMLID_665_" x="1092.3" y="632.4" class="st1" width="41.8" height="33.4"/>
	<rect id="XMLID_664_" x="1142.1" y="632.4" class="st1" width="42.2" height="33.4"/>
	<rect id="XMLID_663_" x="1192.4" y="632.4" class="st1" width="42.2" height="33.4"/>
	<rect id="XMLID_662_" x="1242.7" y="632.4" class="st1" width="41.8" height="33.4"/>
	<polygon id="XMLID_661_" class="st1" points="1046.6,720.2 986,720.2 986,753.6 1046.6,753.6 1046.6,720.2 	"/>
	<polygon id="XMLID_660_" class="st1" points="1046.6,779.6 986,779.6 986,813 1046.6,813 1046.6,779.6 	"/>
	<polygon id="XMLID_659_" class="st1" points="1046.6,839 986,839 986,872.4 1046.6,872.4 1046.6,839 	"/>
	<polygon id="XMLID_658_" class="st1" points="1046.6,898.4 986,898.4 986,931.8 1046.6,931.8 1046.6,898.4 	"/>
	<polygon id="XMLID_657_" class="st1" points="1046.6,957.8 986,957.8 986,991.2 1046.6,991.2 1046.6,957.8 	"/>
	<polygon id="XMLID_656_" class="st1" points="1046.6,1017.2 986,1017.2 986,1050.6 1046.6,1050.6 1046.6,1017.2 	"/>
	<polygon id="XMLID_655_" class="st1" points="1390.8,720.2 1330.1,720.2 1330.1,753.6 1390.8,753.6 1390.8,720.2 	"/>
	<polygon id="XMLID_654_" class="st1" points="1390.8,779.6 1330.1,779.6 1330.1,813 1390.8,813 1390.8,779.6 	"/>
	<polygon id="XMLID_653_" class="st1" points="1390.8,839 1330.1,839 1330.1,872.4 1390.8,872.4 1390.8,839 	"/>
	<polygon id="XMLID_652_" class="st1" points="1390.8,898.4 1330.1,898.4 1330.1,931.8 1390.8,931.8 1390.8,898.4 	"/>
	<polygon id="XMLID_651_" class="st1" points="1390.8,957.8 1330.1,957.8 1330.1,991.2 1390.8,991.2 1390.8,957.8 	"/>
	<polygon id="XMLID_650_" class="st1" points="1390.8,1017.2 1330.1,1017.2 1330.1,1050.6 1390.8,1050.6 1390.8,1017.2 	"/>
	<rect id="XMLID_649_" x="1092.3" y="720.2" class="st1" width="41.8" height="33.5"/>
	<rect id="XMLID_648_" x="1142.1" y="720.2" class="st1" width="42.2" height="33.5"/>
	<rect id="XMLID_647_" x="1192.4" y="720.2" class="st1" width="42.2" height="33.5"/>
	<rect id="XMLID_646_" x="1242.7" y="720.2" class="st1" width="41.8" height="33.5"/>
	<rect id="XMLID_645_" x="1092.3" y="779.6" class="st1" width="41.8" height="33.4"/>
	<rect id="XMLID_644_" x="1142.1" y="779.6" class="st1" width="42.2" height="33.4"/>
	<rect id="XMLID_643_" x="1192.4" y="779.6" class="st1" width="42.2" height="33.4"/>
	<rect id="XMLID_642_" x="1242.7" y="779.6" class="st1" width="41.8" height="33.4"/>
	<rect id="XMLID_641_" x="1092.3" y="839" class="st1" width="41.8" height="33.4"/>
	<rect id="XMLID_640_" x="1142.1" y="839" class="st1" width="42.2" height="33.4"/>
	<rect id="XMLID_639_" x="1192.4" y="839" class="st1" width="42.2" height="33.4"/>
	<rect id="XMLID_638_" x="1242.7" y="839" class="st1" width="41.8" height="33.4"/>
	<rect id="XMLID_637_" x="1092.3" y="898.4" class="st1" width="41.8" height="33.4"/>
	<rect id="XMLID_636_" x="1142.1" y="898.4" class="st1" width="42.2" height="33.4"/>
	<rect id="XMLID_635_" x="1192.4" y="898.4" class="st1" width="42.2" height="33.4"/>
	<rect id="XMLID_634_" x="1242.7" y="898.4" class="st1" width="41.8" height="33.4"/>
	<rect id="XMLID_633_" x="1092.3" y="957.8" class="st1" width="41.8" height="33.4"/>
	<rect id="XMLID_632_" x="1142.1" y="957.8" class="st1" width="42.2" height="33.4"/>
	<rect id="XMLID_631_" x="1192.4" y="957.8" class="st1" width="42.2" height="33.4"/>
	<rect id="XMLID_630_" x="1242.7" y="957.8" class="st1" width="41.8" height="33.4"/>
	<rect id="XMLID_629_" x="1092.3" y="1017.2" class="st1" width="41.8" height="33.5"/>
	<rect id="XMLID_628_" x="1142.1" y="1017.2" class="st1" width="42.2" height="33.5"/>
	<rect id="XMLID_627_" x="1192.4" y="1017.2" class="st1" width="42.2" height="33.5"/>
	<rect id="XMLID_626_" x="1242.7" y="1017.2" class="st1" width="41.8" height="33.5"/>
</g>
</svg>