<svg id="Layer_1" xmlns="http://www.w3.org/2000/svg" viewBox="0 0 1920 1080"><style>.st0{fill:#00b8ac}.st1{fill:#0c977a}.st2{fill:#fbebc8}.st3{fill:#49c8b3}.st4{fill:#51ae86}.st5{fill:#c0c0cb}.st6{fill:#008b89}.st7{fill:#097261}.st8{fill:#37978f}.st9{fill:#3d836b}</style><g id="XMLID_105_"><path id="XMLID_107_" class="st0" d="M1795.9 1079.5H124.1c14.6-41 32.1-80.5 52.3-118.5 91-171.1 236.5-308.9 413.2-390.2a882.1 882.1 0 0 1 238.8-71.1c42.9-6.4 86.9-9.7 131.6-9.7 47.6 0 94.2 3.7 139.7 10.9 77 12.2 150.8 34.3 219.8 65 150.6 66.8 279.1 174.4 371.6 308.7 43.3 63 78.7 131.7 104.8 204.9"/><path id="XMLID_108_" class="st1" d="M1098.9 500.8c-.3 1.4-4.2 2.1-5.4 2.5-5.2 1.6-10.5 2.5-15.9 2.9-7 .4-14.2-.2-20.9 1.9-15.9 4.9-24.2 22.9-39.2 30-22.5 10.7-47.5-6.5-71.5-13.3-20.3-5.7-59.3 4.2-59.3 4.2-17.4 3.1-36-1.1-50.4-11.4-3.2-2.3-6.2-5-7.6-8.6-.9-2.3-1.1-4.8-.6-7.2.5-2.5 1.5-2.5 3.9-2.9 5.4-.9 10.9-1.8 16.3-2.8 5.3-.9 10.6-1.6 16-2.2 1.8-.2 3.4 0 5.3.1 1.5 0 1.6-.4 3-.8 1.2-.3 2.5 0 3.7.1 1.8.2 3.9.5 5.7.3 2.1-.3 4.2-1.3 6.2-1.8 5.3-1.5 11-1.7 16.5-1.9 17-.7 33.9-.9 50.8-1.8 1.3-.1 2.6-.1 3.9-.2 6.2-.3 12.4-.7 18.6.2 4.6.6 9.1 1.5 13.7 1.5h30.9c10 0 19.9 1.6 29.7 3.2 2.2.4 4.4.7 6.6 1.3 1.6.4 3.1.9 4.7 1.2 2.7.5 5.4.2 8.2.2 7-.1 13.9 1.2 20.8 2.6 1.5.3 5.9.7 6.5 2.5-.2-.2-.2 0-.2.2"/><path id="XMLID_109_" class="st1" d="M962.4 570.4c-16.9-6.7-34.6-13.4-52.8-12.1-10.6.8-20.9 4.4-29.7 10.3l-5.9 3.1c3.9 7.5 10 13.9 17.4 18.1 4.2 2.4 8.7 4.1 12.5 7.1 2.3 1.8 4.4 4.1 7 5.5 3.1 1.6 6.8 1.8 10.3 1.9 20.2.8 41.3 1.4 59.5-7.5 1.2-.6 2.4-1.2 3-2.3.5-.8.6-1.8.6-2.8.1-10.9-11.8-17.3-21.9-21.3"/><path id="XMLID_110_" class="st1" d="M936.8 1068.5c-2.6 5.3-7.2 8.7-12.7 11H738.2c-3.2-6 .9-14.5 7.3-17.7 6.8-3.4 14.9-2.7 22.4-2.1 25.7 2.2 53.8 1.7 74-14.2 3.2-2.5 6.1-5.3 9.8-7 4.6-2.1 9.8-2.2 14.9-2.2 20.4-.1 40.7-.2 61-.2 1.9 0 3.9 0 5.4 1.2 1.2 1 1.7 2.6 2.2 4.1 2.9 8.9 5.6 18.8 1.6 27.1"/><path id="XMLID_111_" class="st1" d="M1215.3 966.5c.1.1.1.2.2.3l.1.1-.3-.4"/><path id="XMLID_112_" class="st1" d="M1215.7 967l.5.7c-.2-.3-.3-.6-.5-.7"/><path id="XMLID_113_" class="st1" d="M1243.8 982.3c-4.5-3.3-10-4.6-15.2-6.5-5.1-1.8-10.3-4.4-13-9-1.2-1-3.2-1.1-4.7-.6-1.9.6-3.6 1.9-5.6 2.2-1.4.3-2.9 0-4.4.3-3.3.6-5.7 3.9-6.3 7.2-.6 3.3.2 6.8.9 10.1.9 4.1 1.9 8.1 2.8 12.2.4 1.6.7 3.2 1.6 4.6 1.9 3.1 5.6 4.5 9.1 5.6 9.3 3.1 18.7 6.2 28 9.3 1.5.5 3.1 1 4.8.8 1.3-.2 2.4-.8 3.5-1.5 5.2-2.9 10.9-6.7 11.7-12.6.6-4.7-2.2-9-4.9-12.8-2.4-3.3-5-6.8-8.3-9.3"/><path id="XMLID_114_" class="st1" d="M1184.7 1014.2c-1.4-2.2-5.7-6.7-5.7-6.7-1.2-.4-2.3-.8-3.5-1.1-2-.7-4.2-1.3-6.3-.8-2.1.5-3.9 2.8-3.1 4.8.6 1.5 2.2 2.2 3.3 3.4 1.4 1.6 1.6 4 2.8 5.7 1.3 1.9 3.6 3 5.9 2.9 2.3-.1 4.5-1.3 6-3 .8-.9 1.6-2.1 1.4-3.4 0-.6-.4-1.2-.8-1.8"/><path id="XMLID_115_" class="st1" d="M1328.9 1021.3c-.1-1.6-.3-3.5-1.7-4.3-.7-.4-1.6-.4-2.5-.4-3.2 0-6.3 0-9.5.1 0 0-2.5.6-3.1 1.8-1.4-.5-3 .1-4 1.3-1 1.1-1.3 2.7-1.2 4.2.3 3.5 2.9 6.5 6.1 7.9 3.2 1.4 6.8 1.4 10.3.8 2-.4 4.2-1.1 5.2-2.9.6-1.2.6-2.5.5-3.8 0-1.7 0-3.2-.1-4.7"/><path id="XMLID_116_" class="st1" d="M1690.2 873.7c-.2.2-.5.4-.8.6-2.2 1.4-12-2-14.6-2.6-5-1.1-10-2.3-14.9-3.7-6.4-1.8-13-4-19.5-3.1-6.6.8-13.2 5.7-13.6 12.3-.2 4.2 1.9 8.5.5 12.4-1.1 2.9-4 4.8-7 5.7-10.3 3.3-21.4-2-30-8.6-8.6-6.6-16.4-14.7-26.7-18.3-8.8-3.1-18.5-2.5-27.8-1.7-16 1.2-32.1 2.4-48.2 3.6-5.2.4-10.7.8-15.3 3.4-10.7 5.9-14.4 21.4-26.1 25-6.4 1.9-13.7-.4-19.6 2.8-2.6 1.4-4.6 3.7-6.6 6-11.8 13.6-26 27-43.9 28.9-17.9 1.9-34.8-8.4-49-19.6-14.1-11.2-27.9-24-45.3-28.9-10.3-2.9-21.3-2.7-32.1-2.5-12.7.2-25.3.5-36.9-4.2-7.1-2.8-13.3-7.3-19.3-12-24.9-19.4-47.9-46.8-46.2-78.3.4-7.7 2.8-16.1 9.3-20.5 3.9-2.6 8.7-3.4 13.3-4 15.8-2 31.8-2.3 47.6-1.1 5.3.4 11.2.8 15.5-2.3 3.4-2.5 5-6.8 8-9.8 12.1-12.1 39.3.7 46.8-14.7 1.6-3.4 1.6-7.4 1.6-11.2-.1-10.8-.3-21.6-.5-32.5-.1-5.3-.3-11.1-4-15-3.2-3.5-8.1-4.5-12.8-5.4-36.1-7-73.4-18.4-99-44.8-1.2-1.3-2.5-2.9-2.1-4.6.2-.8.8-1.4 1.3-2 16.5-17.5 45.1-14.6 67-24.6 6-2.8 11.6-6.6 17.9-8.7 17.4-5.8 36.2 2.4 54.6 2.4 2.1 0 4.2-.1 6-1.2 2.3-1.4 3.4-4 4.1-6.6 1.6-6.5-.2-12.2-2.1-18.3 7.8-2.9 16.5 4.6 22.5 8.8 9.7 6.8 20.6 11.9 32.1 14.9 12.1 8.1 25.4 14.5 39.3 19 2.5.8 5 1.5 7.4 2.6 6.1 2.8 11 7.6 16.6 11.4 5.8 3.9 12.3 6.7 18.3 10.2 10.3 6 19.2 14.3 26 24.1 1.6 2.4 3.2 4.9 5.4 6.6 1.9 1.5 4.3 2.4 6.5 3.4 16.9 7.4 24.9 22.7 39.1 33.2 15.6 11.5 30.1 23.9 44.9 36.5 15.3 13.1 30.7 26.3 43 42.2 14.6 18.8 24.8 41.4 42.9 56.8 6.3 5.3 13.5 9.7 19 15.8 3.1 3.4 12.1 17.6 7.4 22.2"/><path id="XMLID_117_" class="st1" d="M447.4 1079.5h-91.2c-.1-.3-.2-.6-.3-.8-1.4-3.9-1.7-8.8-5.2-11.2-1.6-1.1-3.7-1.4-5.7-1.7-8.6-1-17.3-1.4-26-1.1-3.8.1-7.6.4-11.2-.9-2.9-1-5.3-3-7.7-4.9-12.1-9.9-24.2-19.8-36.4-29.7-.7-.6-1.4-1.2-1.8-2-1.7-3.5 3.1-6.3 6-8.9 5.8-5.3 4.2-14.9.2-21.5-4-6.7-10.7-17.1-7-23.1 0 0 5.3-4.2 8.6-3.4 3.3.7 6 3.1 8.9 4.8 8.1 4.8 17.8 4.5 27.4 4.1 3.6-.1 7.2-.2 10.8-.1 2.3.1 4.7.3 6.9 1.3 2.7 1.2 4.8 3.4 6.9 5.4 11.7 11.4 26.3 19.8 42.1 24 15.9 4.3 33.3 4.8 47 13.9-1.2 12.1 10 21.5 14 32.9.8 2.4 1.3 4.9 2.2 7.2 2.3 6.4 6.7 11.2 11.5 15.7"/><path id="XMLID_118_" class="st1" d="M628.3 1079.5H498.6c-10.3-4.9-20.2-11.8-24-18.4-3.5-6-3.6-13.4-5.3-20.2 15.2-4.2 32-2.7 46.2 4.2 3.5 1.7 6.9 3.8 10.6 5.1 9.3 3.3 19.5 1.8 29.4 1.2 16.1-.9 32.4.9 47.9 5.3 4 1.1 8 2.5 11.3 5 5.9 4.7 8.5 12.4 13.6 17.8"/><path id="XMLID_119_" class="st1" d="M570.8 1037.6c2.2-1.2 2.3-4.4 3.9-6.4 1.9-2.4 6-3.5 5.9-6.5 0-1.3-.9-2.4-1.8-3.2-4.4-4.3-10.5-6.6-16.6-7.4-6.1-.8-12.3-.3-18.5.2-1.5.1-3 .3-4.3 1-3.1 1.9-3.1 6.8-.8 9.7 2.3 2.9 5.9 4.2 9.4 5.4 2.8 1 5.5 1.9 8.3 2.9 2.7.3 5.4 1.4 7.9 2.8 2 1.1 4.5 2.6 6.6 1.5"/><path id="XMLID_120_" class="st1" d="M698.5 1013.3c-5-3.2-10.1-6.4-15.8-8-11.7-3.4-24.3.4-35.6 4.9-11.4 4.5-22.8 9.9-35.1 9.8-3 0-6.1-.4-8.8.8-5.3 2.3-7 11.6-2 14.4 4.5 2.6 13.9 5.1 20 5.9 2.2.3 4.5.3 6.7 1s4.1 2.2 6.1 3.4c5 3 10.7 4.9 16.5 5.4 1.2.1 2.5.1 3.3-.7 1-.9 1-2.5 1.2-3.8 1.1-6.8 9.3-9.6 16.1-10.9 7.2-1.5 14.5-2.9 21.7-4.4 5.6-1.1 12.6-4 12.2-9.7 0-3.6-3.4-6.1-6.5-8.1"/><path id="XMLID_121_" class="st1" d="M848.3 905.7c-.1 1.2-.5 2.3-.9 3.5-3.7 8.9-15.4 13.5-24.2 9.5-3.1-1.4-5.8-3.7-8.4-5.9-4-3.4-7.9-6.8-11.5-10.5-5.2-5.5-9.6-11.8-15.8-16-6.1-4.2-13.5-6-20.4-8.8-10.4-4.2-19.8-10.5-27.6-18.5-.8-.8-1.6-1.7-2.1-2.7-.6-1.2-.7-2.6-.7-3.9-.2-6.2.6-12.4-.6-18.5-.9-4.5-2.8-8.6-5-12.7-14.7 6.8-32.2 4.2-48.5 3.3-17.2-.9-37.1 1.6-46.6 16-5.6 8.4-6.6 19.7-14.1 26.4-7.8 7.1-19.7 6.5-30.2 5.9-53.5-2.8-107.6 6.4-157.2 26.5-5.5 2.2-11.1 4.8-14.6 9.5-7.5 10.2-1.7 24.8-4.4 37.2-2.9 13.4-16.3 22.8-29.9 24.2-13.6 1.4-27.2-3.8-38.7-11.3-4.8-3.1-9.5-6.7-14.8-8.7-5.2-2-10.7-2.4-16.2-2.9-21.5-1.7-42.9-3.5-64.4-5.2-8.9-.7-18-1.4-26.7.5-10.3 2.3-19.4 8.1-29.1 12.3-4.8 2.1-10.9 5.1-16.2 5.5-5.6.4-5.1-4.8-2.4-8.5 1.7-2.4 4.1-4.5 5-7.3.7-2.3.3-4.7.4-7.1.2-6.1 3.4-11.7 6.8-16.8 2.5-3.8 5.2-7.5 7.9-11.2 11.5-15.9 23-31.7 34.5-47.6l5.7-7.8c4.3-5.9 8.6-11.9 12.9-17.8 6.4-8.8 13.9-17.1 19.3-26.5 1-1.7 1.8-3.4 2.9-5 1.3-1.9 3-3.6 4.7-5.2 5.3-5.2 10.6-10.4 16-15.5 3.6-3.5 7.3-7.1 11-10.5 9.6-8.8 19.4-15.6 26.8-26.4 4.6-6.7 9.6-13.3 15.6-18.9 5.8-5.3 12.2-9.8 18.3-14.8 9.8-8 18-17.6 28.2-25.2.6-.4 1.2-.9 1.8-1.3 15.8-11.7 31.6-23.3 47.4-35 2.9-2.2 5.9-4.4 8.8-6.5l16.2-12c4.7-3.5 9.4-6.9 14.1-10.3 8.9-6.3 18.2-12.2 28.2-16.8 8.1-3.7 16.9-6.6 23.3-12.8 2.2-2.1 4-4.6 6.3-6.7 8.2-7.4 20.3-7.6 31.1-10 6.1-1.4 18-10.1 21.1-1.9 3.1 8.1.4 17.5 3.9 25.6 1.7 4 5.4 7.7 9.8 7.4 2.7-.1 5.1-1.8 7.5-3.3 23.8-15.1 55.5-17 80.9-4.7-1.9 9.7 2.3 20.3 10.3 26 5 3.6 11.5 5.7 14.5 11 3.2 5.8.9 13.3-3.2 18.6-4.1 5.2-9.8 9.1-14.3 14-15.1 16.2-15 44.3.3 60.3 5.4 5.7 12.2 9.7 19 13.7 11.9 3.8 24.2 6.2 36.6 7 1.6.1 3.3.2 4.5 1.2.8.6 1.3 1.6 1.8 2.5 5.6 10.3 11.9 20.9 21.7 27.2 2.7 1.8 5.6 3.1 8.3 5 3.6 2.5 6.5 5.7 9.4 8.9 10.7 11.6 21.3 23.3 32 34.9 2.7 3 5.5 6 7.3 9.5 4.3 8.2 3.5 18.1 3.3 27.4-.2 11.2.7 22.5 2.7 33.5.4 1.7.8 3.4.6 5"/><path id="XMLID_122_" class="st1" d="M753.7 936.1c6.4.9 13.1-1.9 17.3-6.8 4.2-4.9 6.1-11.6 5.7-18-.1-1.5-.3-3.1-1.1-4.4-3.5-6-13.9-3-18.3-8.4-1.6-1.9-1.9-4.6-3.3-6.7-2.5-4.1-7.9-5.3-12.7-5.5-4.8-.2-9.8.2-14.1-2l-.4.4c-6.6-2.1-13.9-2-20.4.2-1.9.6-3.8 1.5-4.7 3.2-.7 1.3-.8 3-.8 4.5v6.1c0 1.2 0 2.4.5 3.5.6 1.3 1.7 2.2 2.9 3.1 3.2 2.5 6.6 5.1 10.6 6 3.6.8 7.7.3 10.7 2.5 2.6 1.9 3.5 5.2 5.2 7.8 2.2 3.4 5.7 5.8 9.1 8 4.3 2.8 8.7 5.7 13.8 6.5"/><path id="XMLID_123_" class="st1" d="M1103.1 515.3c-1.2-.4-2.4-.4-3.6-.5-4.1-.2-8.3-.5-12.4-.7-1.4-.1-2.8-.2-4.1.2-2.4.6-4.3 2.5-6 4.3-1.8 1.8-3.5 3.7-5.3 5.5-.4.5-1.8.8-1.8.8-1.7.8-2.2 3.2-1.4 4.9.8 1.7 2.7 2.7 4.6 3 1.9.3 3.8-.1 5.6-.5 6.4-1.4 12.9-3.4 19.5-2.9 2.5.2 5.2.7 7.3-.7.7-.4 1.3-1.1 1.7-1.7 1.3-2 1.7-4.6.9-6.9-.8-2.2-2.7-4.1-5-4.8"/><path id="XMLID_124_" class="st1" d="M1137.1 523c-.7-.9-1.9-1.2-3-1.4-1.8-.4-3.6-.8-5.5-1.1-1.4-.2-2.9-.4-4 .3-1.3.8-.7 4.8-.7 4.8.1 1.7.2 3.6 1.5 4.8.3.3.8.6 1.2.8 2.3 1.3 5.1 1.7 7.8 1.2 1.2-.2 2.3-.7 3.1-1.6 1.3-1.6.9-3.9.4-6-.2-.6-.4-1.3-.8-1.8"/><path id="XMLID_125_" class="st1" d="M1070.4 544.8c-.6-.3-1.2-.7-1.9-.9-.7-.2-1.5-.2-2.2-.2-2.4 0-4.8.1-7.3.1l-2.5 1c-.6 1.1-1.1 2.4-1 3.7.1 1.3.7 2.6 1.7 3.4 1 .6 2.2.8 3.3.8 2.7.2 5.4.1 8.2.1 1 0 2.1 0 3.1-.4 1-.3 1.9-1 2.3-2 .4-1.1 0-2.5-.8-3.4-.8-1-1.9-1.6-2.9-2.2"/><path id="XMLID_126_" class="st1" d="M1468.8 943.6c0-1.6 0-3.1-.1-4.7 0-.4 0-.8-.2-1.1-.3-.4-.8-.6-1.3-.7-4-1-8.1-1.6-12.2-1.8-1.8-.1-3.6-.1-5.2.6-2.2 1-3.7 3.3-4.3 5.7-.6 2.4-.5 4.9-.4 7.3 0 .8.1 1.7.3 2.5.4 1.3 1.3 2.4 2.2 3.4.7.8 1.4 1.6 2.4 1.8.5.1.9.1 1.4.1h1c1.5.2 2.7 1.2 4.1 1.5 1.7.5 3.7-.1 4.9-1.5l-.1-.2c2.1-2.9 5.7-4.6 7.1-7.9.4-1.4.4-3.3.4-5"/><path id="XMLID_127_" class="st1" d="M1596.4 984.2c4.5.5 8.4 3.1 12.4 5 4.1 2 8.9 3.3 13 1.4 3.9-1.9 5.9-6.8 4.6-10.8-1-3.1-3.6-5.3-6.1-7.4-2.1-1.8-4.3-3.6-6.4-5.4-1.6-1.4-3.3-2.8-5.2-3.6-2.2-.9-4.6-1-7-1.4-6.9-1.2-13.3-5.1-17.4-10.7-1.4-1.9-2.6-4-4.6-5.1-1.2-.7-2.6-1-4-1-3.3-2-7.5-2.8-11.4-2.8-16.2.2-30.1 11.8-46 14.6-5.8 1-11.8.8-17.6 1.8-14.3 2.5-26.9 12.9-32.1 26.5l-.4 1.3c-3.8 1.9.5 7.4 4.4 8.8 15.7 5.8 32.3 9 49 9.5 8.9.3 18.1-.3 26.2-4 5.4-2.5 9.9-6.1 14.1-10.4 3.1 1.8 6.3 3.8 9.8 3.3 1.5-.2 2.8-1 4.1-1.7 6.5-3.8 13.2-8.7 20.6-7.9"/><path id="XMLID_128_" class="st1" d="M1638.6 1041.3c3.2-3.7 6.4-8.3 5-13-1.1-3.7-4.9-6-8.6-6.7-3.8-.7-19.3.3-22.7-1.6-4.2-2.3-6.9-7.2-11.5-8.2-3.1-.7-6.2.6-9.1 1.9-2.1.9-4.5 2.3-4.5 4.6l1.6 1.8c-1.4 4 .9 8.4 3.9 11.3 3.1 2.9 6.9 4.9 9.9 7.9 3.7 3.6 6 8.4 7.9 13.2.8 2 1.6 4.2 3.3 5.6 1 .9 2.3 1.4 3.6 1.8 6.8 2.4 15.2 2.8 20.6-2.1.6-.5 1.1-1.1 1.3-1.8.6-2.2-1.8-3.9-3.7-5.1-1.9-1.2-3.9-3.8-2.3-5.4 2.1-.7 3.8-2.5 5.3-4.2"/><path id="XMLID_129_" class="st1" d="M1682.8 1029.4c-1.5-1.9-2.9-3.8-4.4-5.7-.5-.7-1-1.3-1.7-1.8-.8-.5-1.9-.6-2.9-.6-2.1-.1-4.2-.1-6.3.1-.9.1-1.8.1-2.6.4-3.3 1.1-4.8 5-5.8 8.3l1.1 1.6c1.7 3.4 4.6 6.1 8.2 7.1 1.9.5 3.9.6 5.9.6 2.4 0 4.9-.1 7-1.2 2.1-1.1 3.8-3.5 3.2-5.8-.2-1.1-.9-2-1.7-3"/><path id="XMLID_160_" class="st2" d="M1690.7 874.1c.1.2.3.4.4.6 43.3 62.9 78.7 131.6 104.7 204.8-26-73.2-61.4-141.9-104.7-204.8-.1-.2-.2-.4-.4-.6m-9.6-24.4c.7.6 1.3 1.3 1.9 2l.1.2-.1-.2c-.6-.6-1.3-1.3-1.9-2m-20.7-17c1.2 1.1 2.4 2.2 3.6 3.2 3.2 2.7 6.7 5.2 10 7.8-3.3-2.6-6.8-5-10-7.8-1.3-1-2.5-2.1-3.6-3.2m-19.3-23.9c6.2 7.5 12.4 15.1 18.4 22.7-6-7.6-12.1-15.2-18.4-22.7m-26.7-37.7c2.3 2.6 4.5 5.3 6.6 8 2.8 3.6 5.5 7.4 8 11.2-2.6-3.8-5.2-7.6-8-11.2-2.1-2.7-4.3-5.4-6.6-8m-38.8-36.3l2.4 2.1 12.9 11.1c-4.3-3.8-8.6-7.5-12.9-11.1l-2.4-2.1m-59.3-50.4c2.7 2.8 5.3 5.6 8.1 8.3-2.8-2.7-5.4-5.5-8.1-8.3m-28.3-20.2c.7.5 1.4.9 2.1 1.3-.7-.4-1.4-.9-2.1-1.3m-25.6-27.1c7.7 5.5 14.4 12.3 19.7 20 1.5 2.2 3 4.5 5 6.2-2-1.7-3.4-4-5-6.2a85.02 85.02 0 0 0-19.7-20m-9.6-5.9c1.1.6 2.2 1.2 3.2 1.8.2.1.5.3.7.4-.2-.1-.5-.3-.7-.4-1-.6-2.1-1.2-3.2-1.8m-21.1-12.9c1 .8 2 1.6 3 2.3-1-.7-2-1.5-3-2.3m-18.5-9.6c.2.1.4.1.6.2 1.8.6 3.6 1.1 5.4 1.8-1.8-.7-3.6-1.2-5.4-1.8-.2-.1-.4-.2-.6-.2m-75.7-37.3c1.8 1.2 3.4 2.5 4.9 3.5 9.7 6.8 20.6 11.9 32.1 14.9 7.1 4.8 14.7 9 22.5 12.5-7.8-3.5-15.4-7.7-22.5-12.5-11.5-3-22.4-8.1-32.1-14.9-1.4-1-3.1-2.2-4.9-3.5m-238.3-70.5c.2 0 .3.1.5.1 77 12.2 150.8 34.3 219.8 65 .1 0 .2.1.3.1-.1 0-.2-.1-.3-.1-69.1-30.7-142.8-52.8-219.8-65-.1 0-.3-.1-.5-.1m-.3 0h.1-.1m0-.6c0 .1.1.3 0 .4v-.4m-270.2-.6h-.3.3m6-1.5c-.9.2-1.9.3-2.8.5-.3 0-.5.1-.8.1.2 0 .5-.1.8-.1.9-.1 1.8-.3 2.8-.5m254.6-1c1 .2 2 .4 3.1.6 1.4.3 4.9.6 6.2 2-1.2-1.3-4.8-1.7-6.2-2-1.1-.2-2.1-.4-3.1-.6m-25.7-2.2c1.2.2 2.3.2 3.5.2.9 0 1.9 0 2.8-.1-.9 0-1.9.1-2.8.1-1.1.1-2.3 0-3.5-.2m-202.4-.9c-3.9.5-7.7 1-11.5 1.6 3.8-.6 7.6-1.1 11.5-1.6m10.6-.9c-.8.3-1.1.6-2.2.6h-.1c-1.2 0-2.4-.1-3.6-.1h-.6.6c1.2 0 2.3.1 3.6.1h.1c1.1 0 1.4-.3 2.2-.6m183.3-.1c1.2.2 2.4.5 3.6.8 1.5.4 2.9.9 4.4 1.1-1.5-.3-2.9-.8-4.4-1.1-1.2-.4-2.4-.6-3.6-.8m-182.2-.2c-.1 0-.3 0-.4.1h-.1.1c.1 0 .2-.1.4-.1m19.1-2.2c-1.3.2-2.6.5-3.9.9-2 .6-4.1 1.6-6.2 1.8-.4.1-.9.1-1.3.1-1.4 0-3-.2-4.4-.3-.6 0-1.2-.1-1.7-.2.6.1 1.2.2 1.8.2 1.4.1 2.9.3 4.3.3.5 0 .9 0 1.3-.1 2.1-.3 4.2-1.3 6.2-1.8 1.2-.4 2.5-.7 3.9-.9m124.9-1.3h5.5c3.9 0 7.9.3 11.8.7-3.9-.4-7.8-.7-11.8-.7h-5.5m-37.4-1.4c4 .6 8 1.3 12.1 1.3h2.8-2.8c-4.1 0-8.1-.7-12.1-1.3m-16.7-.6c-1.2.1-2.4.1-3.6.2-1.3.1-2.6.1-3.9.2-16.9.9-33.9 1.1-50.8 1.8h-.9.9c17-.7 33.9-.9 50.8-1.8 1.3-.1 2.6-.1 3.9-.2 1.2-.1 2.4-.1 3.6-.2"/><path id="XMLID_172_" class="st3" d="M1674.3 1039.5c-2 0-4 0-5.9-.6-3.6-1-6.6-3.8-8.2-7.1l-1.1-1.6c1-3.4 2.5-7.2 5.8-8.3.8-.3 1.7-.4 2.6-.4 1.3-.1 2.5-.1 3.8-.1.8 0 1.7 0 2.5.1 1 0 2 .1 2.9.6.7.4 1.2 1.1 1.7 1.8 1.5 1.9 2.9 3.8 4.4 5.7.7.9 1.5 1.9 1.7 3.1.5 2.3-1.1 4.7-3.2 5.8-2.1.9-4.6 1-7 1m-47.4 22.1c-3.2 0-6.5-.7-9.5-1.7-1.3-.4-2.6-1-3.6-1.8-1.7-1.4-2.5-3.6-3.3-5.6-1.9-4.8-4.2-9.6-7.9-13.2-3-2.9-6.9-4.9-9.9-7.9-3.1-2.9-5.3-7.3-3.9-11.3l-1.6-1.8c0-2.3 2.4-3.7 4.5-4.6 2.4-1 4.9-2 7.4-2 .6 0 1.2.1 1.7.2 4.7 1 7.4 5.8 11.5 8.2 3.3 1.9 18.9.8 22.7 1.6 3.8.7 7.5 3 8.6 6.7 1.4 4.6-1.8 9.3-5 13-1.5 1.7-3.2 3.5-5.4 4.2-1.5 1.7.4 4.2 2.3 5.4 1.9 1.2 4.3 2.9 3.7 5.1-.2.7-.7 1.3-1.3 1.8-3 2.7-6.9 3.7-11 3.7m16.6-196.9c-1 0-2.1.1-3.1.2-6.6.8-13.2 5.7-13.6 12.3-.2 4.2 1.9 8.5.5 12.4-1.1 2.9-4 4.8-7 5.7-2.2.7-4.4 1-6.6 1-8.3 0-16.6-4.4-23.4-9.6-8.6-6.6-16.4-14.7-26.7-18.3-5.1-1.8-10.5-2.3-15.9-2.3-4 0-8 .3-11.9.6-16 1.2-32.1 2.4-48.2 3.6-5.2.4-10.7.8-15.3 3.4-10.7 5.9-14.4 21.4-26.1 25-1.8.5-3.7.8-5.7.8 7.7 12 15.1 24.3 22.3 36.7 1.5.3 2.9.6 4.3.9.5.1 1.1.3 1.3.7.2.3.2.7.2 1.1 0 1.6 0 3.1.1 4.7 0 1 0 2-.1 3 4 7.3 8 14.6 11.8 22 5.7-4.9 12.7-8.4 20.2-9.7 5.8-1 11.8-.8 17.6-1.8 15.9-2.8 29.9-14.4 46-14.6h.3c3.8 0 7.9.8 11.1 2.8 1.4 0 2.8.3 4 1 2 1.2 3.2 3.3 4.6 5.1 4.1 5.6 10.5 9.6 17.4 10.7 2.3.4 4.8.5 7 1.4 2 .8 3.6 2.2 5.2 3.6 2.1 1.8 4.3 3.6 6.4 5.4 2.5 2.1 5 4.3 6.1 7.4 1.4 4.1-.7 9-4.6 10.8-1.4.7-2.9 1-4.4 1-2.9 0-5.9-1-8.6-2.3-4.1-2-8-4.5-12.4-5-.6-.1-1.1-.1-1.7-.1-6.7 0-12.9 4.5-18.8 7.9-1.3.7-2.7 1.5-4.1 1.7-.4.1-.8.1-1.2.1-3 0-5.9-1.8-8.6-3.4-4.1 4.2-8.7 7.9-14.1 10.4-7 3.2-14.8 4.1-22.6 4.1-1.2 0-2.4 0-3.6-.1-8.3-.2-16.5-1.2-24.6-2.7 11.8 25.2 22.4 51 31.8 77.4h267c-26-73.2-61.4-141.9-104.7-204.8-.1-.2-.3-.4-.4-.6-.1-.2-.3-.4-.4-.5l-.2.2c-.2.2-.5.4-.8.6-.4.2-.9.3-1.7.3-3.6 0-10.7-2.5-12.9-2.9-5-1.1-10-2.3-14.9-3.7-5.2-1.9-10.8-3.6-16.3-3.6m-2.4-55.9c5.8 8.6 11.8 16.8 19.3 23.9-.3-.4-.6-.7-.9-1.1-6-7.7-12.1-15.3-18.4-22.8m-116.7-116.1c2.7 2.7 5.6 5.3 8.8 7.7 1 .7 1.9 1.4 2.9 2.1-3.8-3.3-7.7-6.5-11.6-9.7l-.1-.1m-335.5-49.6c5.6 4 11.6 7.6 17.8 10.7 28.9 20.6 56.5 42.8 82.7 66.6-.1-8.5-.2-17-.4-25.5-.1-5.3-.3-11.1-4-15-3.2-3.5-8.1-4.5-12.8-5.4-29.3-5.6-59.3-14.2-83.3-31.4m-124-90.3c-1.5 0-2.9 0-4.4-.1-1.2-.1-2.4-.2-3.3-.8-1.1-.7-1.7-2-1.7-3.4-.1-1.3.4-2.6 1-3.7l2.5-1c2.4 0 4.8-.1 7.3-.1h.4c.6 0 1.2 0 1.8.2.7.2 1.3.5 1.9.9 1.1.6 2.1 1.3 2.9 2.2.8 1 1.2 2.3.8 3.4-.4 1-1.3 1.6-2.3 2-1 .3-2.1.3-3.1.4h-3.8m67.2-20.2c-1.9 0-3.9-.5-5.6-1.4-.4-.2-.8-.5-1.2-.8-1.2-1.2-1.4-3.1-1.5-4.8 0 0-.5-3.9.7-4.8.6-.4 1.3-.5 2-.5s1.3.1 2 .2c1.8.3 3.6.7 5.5 1.1 1.1.2 2.3.6 3 1.4.4.5.6 1.2.7 1.8.5 2 .9 4.4-.4 6-.8.9-1.9 1.4-3.1 1.6-.6.1-1.3.2-2.1.2m-57.6.3c-.5 0-.9 0-1.4-.1-1.9-.3-3.7-1.3-4.6-3-.8-1.7-.3-4.1 1.4-4.9 0 0 1.4-.3 1.8-.8 1.8-1.8 3.5-3.7 5.3-5.5 1.7-1.8 3.6-3.7 6-4.3.8-.2 1.5-.3 2.3-.3.6 0 1.2 0 1.8.1 4.1.2 8.3.5 12.4.7 1.2.1 2.4.1 3.6.5 2.3.7 4.2 2.6 4.9 4.8.8 2.3.4 4.9-.9 6.9-.5.7-1 1.3-1.7 1.7-1.1.7-2.4.9-3.8.9-1.2 0-2.4-.1-3.5-.2-.7 0-1.4-.1-2-.1-5.9 0-11.6 1.7-17.4 3-1.4.3-2.8.6-4.2.6m24.4-32c-.4 1.4-4.2 2-5.4 2.4-5.2 1.6-10.5 2.5-15.9 2.9-7 .4-14.2-.2-20.9 1.9-15.9 4.9-24.2 22.9-39.2 30-5.1 2.4-10.4 3.4-15.7 3.4-18.1 0-37.3-11.5-55.8-16.7-3.8-1.1-8.1-1.6-12.8-1.7 41.1 11.5 81 25.9 119.4 43 43.8 19.4 85.7 42.3 125.4 68.3-1.6-1.5-3.2-3-4.7-4.5-1.2-1.3-2.5-2.9-2.1-4.6.2-.8.8-1.4 1.3-2 16.5-17.5 45.1-14.6 67-24.6 6-2.8 11.6-6.6 17.9-8.7 4.5-1.5 9.2-2.1 13.9-2.1 13.3 0 27.1 4.5 40.7 4.5h.2c2 0 4.1-.2 5.8-1.2 2.3-1.4 3.4-4 4.1-6.6 1.6-6.5-.2-12.2-2.1-18.3h.1l-.2-.1c-.1 0-.2-.1-.3-.1-69.1-30.7-142.8-52.8-219.8-65-.2 0-.3-.1-.5-.1h-.2l-.2-.1m-270.1-1.2h-.4c-.7.1-1.3.2-1.9.3.6.1 1.2.2 1.9.3.1-.2.2-.4.4-.6"/><path id="XMLID_173_" class="st4" d="M969.1 487.2c-2.1 0-4.1.1-6.2.2-1.2.1-2.4.1-3.6.2-1.3.1-2.6.1-3.9.2-16.9.9-33.9 1.1-50.8 1.8h-.9c-3.9.2-7.8.4-11.7 1-1.3.2-2.6.5-3.9.9-2 .6-4.1 1.6-6.2 1.8-.4.1-.9.1-1.3.1-1.4 0-3-.2-4.3-.3-.6 0-1.2-.2-1.8-.2H873c-.1 0-.3 0-.4.1h-.1c-.2.1-.4.1-.6.2-.8.3-1.1.6-2.2.6h-.1c-1.3 0-2.4-.1-3.6-.1h-.6c-.4 0-.7 0-1.1.1-1 .1-2 .2-3 .4-3.8.5-7.7 1-11.5 1.6-.5.1-1 .2-1.5.2-4.5.8-9 1.5-13.5 2.3-.9.2-1.9.3-2.8.5-.3 0-.5.1-.8.1-1.1.2-1.8.3-2.3.8-.2.2-.3.4-.4.6 1.5.2 2.9.5 4.4.7 34.1 5.4 67.7 12.8 100.4 22 4.7.2 9.1.7 12.8 1.7 18.5 5.2 37.7 16.7 55.8 16.7 5.3 0 10.6-1 15.7-3.4 15-7.1 23.3-25.1 39.2-30 6.7-2.1 13.9-1.4 20.9-1.9 5.4-.3 10.7-1.3 15.9-2.9 1.2-.4 5-1 5.4-2.4v-.6c-.1-.2-.2-.4-.3-.5-1.2-1.3-4.8-1.7-6.2-2-1-.2-2-.4-3.1-.6-5.6-1.1-11.3-2-17.1-2h-2.3c-.9 0-1.9.1-2.8.1-1.2 0-2.4-.1-3.5-.2h-.2c-.1 0-.2 0-.3-.1-1.5-.3-2.9-.8-4.4-1.1-1.2-.3-2.4-.5-3.6-.8-1-.2-2-.3-3-.5-6-1-11.9-1.9-17.9-2.5-3.9-.4-7.8-.7-11.8-.7h-30.8c-4.1 0-8.1-.7-12.1-1.3-.5-.1-1.1-.2-1.6-.2-3.1-.4-6-.6-8.9-.6"/><path id="XMLID_174_" class="st4" d="M1323.7 565.6c-1.2 0-2.4.2-3.6.6h-.1c1.9 6.1 3.7 11.8 2.1 18.3-.6 2.6-1.8 5.2-4.1 6.6-1.7 1-3.8 1.2-5.8 1.2h-.2c-13.6 0-27.4-4.5-40.7-4.5-4.7 0-9.3.6-13.9 2.1-6.3 2.1-11.9 5.9-17.9 8.7-21.9 10.1-50.4 7.1-67 24.6-.6.6-1.1 1.2-1.3 2-.4 1.7.9 3.3 2.1 4.6 1.5 1.6 3.1 3.1 4.7 4.5h.1c3.5 3.2 7.1 6.1 10.9 8.8 24 17.2 54 25.8 83.4 31.4 4.6.9 9.6 1.9 12.8 5.4 3.6 3.9 3.9 9.7 4 15 .1 8.5.2 17 .4 25.5 50.6 46 95.9 97.8 134.8 154.3 5.6 8.1 11.1 16.4 16.5 24.8 1.9-.1 3.8-.3 5.7-.8 11.7-3.5 15.4-19.1 26.1-25 4.6-2.5 10-3 15.3-3.4 16-1.2 32.1-2.4 48.2-3.6 3.9-.3 7.9-.6 11.9-.6 5.4 0 10.8.5 15.9 2.3 10.2 3.6 18 11.7 26.7 18.3 6.8 5.2 15.1 9.6 23.4 9.6 2.2 0 4.4-.3 6.6-1 3-.9 5.9-2.8 7-5.7 1.5-3.9-.7-8.2-.5-12.4.4-6.6 7-11.5 13.6-12.3 1-.1 2.1-.2 3.1-.2 5.5 0 11.1 1.8 16.4 3.3 4.9 1.4 9.9 2.7 14.9 3.7 2.2.5 9.3 2.9 12.9 2.9.7 0 1.3-.1 1.7-.3.3-.2.5-.4.8-.6l.2-.2c4.2-4.8-4.2-18.2-7.2-21.7l-.1-.2c-.6-.7-1.3-1.4-1.9-2-2.2-2.2-4.6-4.1-7.1-6-3.3-2.6-6.8-5-10-7.8-1.2-1-2.4-2.1-3.5-3.2-7.4-7.1-13.5-15.3-19.3-23.9-4.1-6.1-8-12.3-12.1-18.5-2.6-3.8-5.2-7.6-8-11.2-2.1-2.7-4.3-5.4-6.6-8-7.3-8.2-15.3-15.8-23.5-23.1-4.3-3.8-8.6-7.5-12.9-11.1l-2.4-2.1c-13-11.1-25.9-22-39.5-32.3-.9-.7-1.9-1.4-2.9-2.1-3.2-2.4-6.1-5-8.8-7.7-2.8-2.7-5.4-5.6-8.1-8.3-6.4-6.7-13-13.1-22.2-17.2-1.3-.6-2.6-1.1-3.9-1.8-.7-.4-1.5-.8-2.1-1.3-.2-.1-.3-.2-.5-.4-.2-.1-.3-.3-.5-.4-2-1.7-3.4-4-5-6.2-5.4-7.7-12.1-14.6-19.7-20-1.8-1.3-3.7-2.5-5.6-3.7-.2-.1-.5-.3-.7-.4-1.1-.6-2.1-1.2-3.2-1.8-5.1-2.7-10.3-5.2-15.1-8.4-1-.7-2-1.4-3.1-2.2-1-.8-2-1.5-3-2.3-3.3-2.6-6.7-5.1-10.5-6.8-.7-.3-1.3-.6-2-.8-1.8-.7-3.6-1.2-5.4-1.8-.2-.1-.4-.1-.6-.2-5.5-1.8-10.9-3.9-16.2-6.3-7.8-3.5-15.4-7.7-22.5-12.5-11.5-3-22.4-8.1-32.1-14.9-1.5-1-3.1-2.3-4.9-3.5-4.8-2.9-9.6-5.8-14.4-5.8"/><path id="XMLID_175_" class="st4" d="M1085.3 514c-.8 0-1.6.1-2.3.3-2.4.6-4.3 2.5-6 4.3-1.8 1.8-3.5 3.7-5.3 5.5-.4.5-1.8.8-1.8.8-1.7.8-2.2 3.2-1.4 4.9.8 1.7 2.7 2.7 4.6 3 .5.1.9.1 1.4.1 1.4 0 2.8-.3 4.2-.6 5.8-1.2 11.5-3 17.4-3 .7 0 1.4 0 2 .1 1.2.1 2.4.2 3.5.2 1.3 0 2.6-.2 3.8-.9.7-.4 1.3-1.1 1.7-1.7 1.3-2 1.7-4.6.9-6.9-.8-2.3-2.7-4.1-4.9-4.8-1.2-.4-2.4-.4-3.6-.5-4.1-.2-8.3-.5-12.4-.7-.6 0-1.2-.1-1.8-.1"/><path id="XMLID_176_" class="st4" d="M1126.7 520.2c-.7 0-1.4.1-2 .5-1.3.8-.7 4.8-.7 4.8.1 1.7.2 3.6 1.5 4.8.3.3.8.6 1.2.8 1.7.9 3.6 1.4 5.6 1.4.7 0 1.5-.1 2.2-.2 1.2-.2 2.3-.7 3.1-1.6 1.3-1.6.9-3.9.4-6-.2-.6-.3-1.3-.7-1.8-.7-.9-1.9-1.2-3-1.4-1.8-.4-3.6-.8-5.5-1.1-.8-.1-1.5-.2-2.1-.2"/><path id="XMLID_177_" class="st4" d="M1066.7 543.7h-.4c-2.4 0-4.8.1-7.3.1l-2.5 1c-.6 1.1-1.1 2.4-1 3.7.1 1.3.7 2.6 1.7 3.4 1 .6 2.2.8 3.3.8 1.5.1 2.9.1 4.4.1h3.8c1 0 2.1 0 3.1-.4 1-.3 1.9-1 2.3-2 .4-1.1 0-2.5-.8-3.4-.8-1-1.9-1.6-2.9-2.2-.6-.3-1.2-.7-1.9-.9-.6-.2-1.2-.2-1.8-.2"/><path id="XMLID_178_" class="st4" d="M1462.8 936.2c2 3.4 3.9 6.9 5.9 10.4.1-1 .1-2 .1-3 0-1.6 0-3.1-.1-4.7 0-.4 0-.8-.2-1.1-.3-.4-.8-.6-1.3-.7-1.4-.4-2.9-.7-4.4-.9"/><path id="XMLID_179_" class="st4" d="M1564.7 942.4h-.3c-16.2.2-30.1 11.8-46 14.6-5.8 1-11.8.8-17.6 1.8-7.5 1.3-14.5 4.8-20.2 9.7 5.7 11.1 11.3 22.3 16.6 33.6 8.1 1.6 16.3 2.5 24.6 2.7 1.2 0 2.4.1 3.6.1 7.7 0 15.6-.9 22.6-4.1 5.4-2.5 9.9-6.1 14.1-10.4 2.7 1.6 5.6 3.4 8.6 3.4.4 0 .8 0 1.2-.1 1.5-.2 2.8-1 4.1-1.7 6-3.4 12.1-7.9 18.8-7.9.6 0 1.1 0 1.7.1 4.5.5 8.4 3.1 12.4 5 2.7 1.3 5.7 2.3 8.6 2.3 1.5 0 3-.3 4.4-1 3.9-1.9 5.9-6.8 4.6-10.8-1-3.1-3.6-5.3-6.1-7.4-2.1-1.8-4.3-3.6-6.4-5.4-1.6-1.4-3.3-2.8-5.2-3.6-2.2-.9-4.6-1-7-1.4-6.9-1.2-13.3-5.1-17.4-10.7-1.4-1.9-2.6-4-4.6-5.1-1.2-.7-2.6-1-4-1-3.2-1.9-7.3-2.7-11.1-2.7"/><path id="XMLID_180_" class="st4" d="M1599 1011.7c-2.5 0-5 1-7.4 2-2.1.9-4.5 2.3-4.5 4.6l1.6 1.8c-1.4 4 .9 8.4 3.9 11.3 3.1 2.9 6.9 4.9 9.9 7.9 3.7 3.6 6 8.4 7.9 13.2.8 2 1.6 4.2 3.3 5.6 1 .9 2.3 1.4 3.6 1.8 3 1 6.3 1.7 9.5 1.7 4.1 0 8-1.1 11.1-3.8.6-.5 1.1-1.1 1.3-1.8.6-2.2-1.8-3.9-3.7-5.1-1.9-1.2-3.9-3.8-2.3-5.4 2.2-.7 3.8-2.5 5.4-4.2 3.2-3.7 6.4-8.3 5-13-1.1-3.7-4.9-6-8.6-6.7-3.8-.7-19.3.3-22.7-1.6-4.2-2.3-6.9-7.2-11.5-8.2-.6 0-1.2-.1-1.8-.1"/><path id="XMLID_181_" class="st4" d="M1671.3 1021.3c-1.3 0-2.5 0-3.8.1-.9.1-1.8.1-2.6.4-3.3 1.1-4.8 5-5.8 8.3l1.1 1.6c1.7 3.4 4.6 6.1 8.2 7.1 1.9.5 3.9.6 5.9.6 2.4 0 4.9-.1 7-1.2 2.1-1.1 3.8-3.5 3.2-5.8-.3-1.1-1-2.1-1.7-3.1-1.5-1.9-2.9-3.8-4.4-5.7-.5-.7-1-1.3-1.7-1.8-.8-.5-1.9-.6-2.9-.6-.8.1-1.6.1-2.5.1"/><path id="XMLID_205_" class="st5" d="M1528.7 1079.5H124.3c-.1.2-.1.3-.2.5h1404.7c0-.2 0-.3-.1-.5M176 959.5l.1.1.3.3c.1.1.3.2.4.3v-.1c-.2-.2-.5-.4-.8-.6m-.4-.6c.1.1.1.2.2.3-.1-.1-.2-.2-.2-.3m6.2-13.6c-1 2.5-3.1 4.4-4.7 6.6 0 .1-.1.1-.1.2 0-.1.1-.1.1-.2 1.6-2.2 3.7-4.1 4.7-6.6m35.3-63.4c-6.7 9.2-13.3 18.3-20 27.5-2.7 3.7-5.4 7.4-7.9 11.2-3.4 5.1-6.7 10.7-6.9 16.8-.1 1.6.1 3.3 0 4.9.1-1.6-.1-3.3 0-4.9.2-6.1 3.4-11.7 6.8-16.8 2.5-3.8 5.2-7.5 7.9-11.2 6.8-9.2 13.5-18.3 20.1-27.5M233 860c-.4.6-.9 1.2-1.3 1.8-.5.7-1.1 1.5-1.6 2.2.5-.7 1.1-1.5 1.6-2.2.4-.6.9-1.2 1.3-1.8m6.7-9.1c-.8 1.1-1.5 2.1-2.3 3.2-.4.6-.8 1.2-1.3 1.7.4-.6.8-1.2 1.3-1.7.7-1.1 1.5-2.2 2.3-3.2m30.4-42.2c-.2.4-.4.7-.6 1.1-.5.8-1 1.7-1.5 2.5.5-.8 1-1.7 1.5-2.5.3-.4.5-.8.6-1.1m32-33.3c-3 2.8-6 5.7-9 8.6-.5.5-1 .9-1.5 1.4.5-.5 1-1 1.5-1.4 3-2.9 6-5.8 9-8.6m20-17.9c-2.5 2.5-5.2 4.8-7.9 7.2 2.8-2.3 5.4-4.7 7.9-7.2m40.3-42.1c-3.3 2.6-6.7 5.2-10 7.9 3.3-2.7 6.7-5.2 10-7.9m32-28.2c-.5.3-.9.7-1.4 1-8.5 6.3-15.5 14-23.3 21 7.8-7 14.8-14.7 23.3-21 .5-.3.9-.6 1.4-1m65.2-48.1c-2.9 2.1-5.7 4.2-8.6 6.3-2.3 1.7-4.6 3.4-6.8 5.1 2.3-1.7 4.6-3.4 6.8-5.1 2.9-2.1 5.8-4.2 8.6-6.3m53.5-34.3c-1.2.5-2.4 1-3.6 1.6-9.9 4.5-19.2 10.5-28.2 16.8-.5.4-1.1.8-1.6 1.2.5-.4 1.1-.8 1.6-1.2 8.9-6.3 18.2-12.2 28.2-16.8 1.2-.5 2.4-1 3.6-1.6m35.6-23.3c-3.5 1.2-6.8 2.9-9.6 5.4-.9.8-1.8 1.7-2.6 2.7.8-.9 1.7-1.8 2.6-2.7 2.8-2.5 6.1-4.2 9.6-5.4m28.2-7.2c-1.8.8-3.5 1.6-5 2.1l-.9.3c-.3.1-.6.2-.8.2-6.2 1.4-12.9 2.1-19.1 3.9 6.1-1.7 12.8-2.4 19.1-3.9 1.9-.5 4.2-1.5 6.7-2.6m11-2.7s0 .1 0 0c-.1.1 0 0 0 0M738.4 518c-51.6 13.3-101.3 31-148.8 52.9h-.1.1c47.5-21.9 97.2-39.7 148.8-52.9m.4-.1c-.1 0-.2 0-.3.1.1-.1.2-.1.3-.1m.4-.1s-.1 0 0 0c-.1 0 0 0 0 0m89.2-18.1"/><path id="XMLID_218_" class="st6" d="M498.6 1079.5c-10.3-4.9-20.2-11.8-24-18.4-3.5-6-3.6-13.4-5.3-20.2 5.7-1.6 11.5-2.4 17.4-2.4 9.9 0 19.9 2.2 28.8 6.6 3.5 1.7 6.9 3.8 10.6 5.1 4.5 1.6 9.2 2.1 13.9 2.1 5.1 0 10.3-.6 15.4-.8 2.8-.2 5.5-.2 8.3-.2 13.4 0 26.8 1.9 39.6 5.5 4 1.1 8 2.5 11.3 5 5.9 4.6 8.6 12.3 13.6 17.7H498.6m289.4-18.8c19.5 0 38.9-3.3 54-15.1 3.2-2.5 6.1-5.3 9.8-7 4.6-2.1 9.8-2.2 14.9-2.2 20.4-.1 40.7-.2 61-.2h.3c1.8 0 3.7.1 5.1 1.2 1.2 1 1.7 2.6 2.2 4.1 2.8 8.9 5.6 18.8 1.5 27.1-2.6 5.3-7.2 8.7-12.7 11H738.2c-3.2-6 .9-14.5 7.3-17.7 4-2 8.5-2.6 13-2.6 3.1 0 6.3.3 9.4.5 6.6.5 13.4.9 20.1.9m524.2-42.2c.6-1.2 3.1-1.8 3.1-1.8 3.2 0 6.3 0 9.5-.1h.2c.8 0 1.6 0 2.2.4 1.4.8 1.6 2.7 1.7 4.3 0 1.5.1 3 .1 4.5 0 1.3.1 2.7-.5 3.8-1 1.8-3.2 2.6-5.2 2.9-1.4.2-2.7.4-4.1.4-2.1 0-4.2-.3-6.1-1.2-3.2-1.4-5.8-4.4-6.1-7.9-.1-1.5.2-3 1.2-4.2.7-.9 1.9-1.4 3-1.4.4.1.7.2 1 .3m-743 19.5c-1.7 0-3.5-1.1-5-2-2.4-1.4-5.1-2.5-7.9-2.8-2.8-1-5.5-1.9-8.3-2.9-3.5-1.2-7.1-2.5-9.4-5.4-2.3-2.9-2.4-7.8.8-9.7 1.3-.8 2.8-.9 4.3-1 3.9-.3 7.7-.7 11.6-.7 2.3 0 4.6.1 6.9.4 6.1.8 12.2 3.1 16.6 7.4.9.9 1.8 2 1.8 3.2.1 3.1-4.1 4.1-5.9 6.5-1.6 2-1.6 5.2-3.9 6.4-.5.5-1.1.6-1.6.6m608.7-15.6c-2.2 0-4.4-1.1-5.7-2.9-1.2-1.8-1.4-4.1-2.8-5.7-1-1.2-2.7-1.9-3.3-3.4-.8-2 1-4.3 3.1-4.8.5-.1 1.1-.2 1.6-.2 1.6 0 3.2.5 4.7 1 1.2.4 2.3.8 3.5 1.1 0 0 4.2 4.5 5.7 6.7.4.6.7 1.2.8 1.9.2 1.2-.5 2.4-1.4 3.4-1.6 1.7-3.7 2.9-6 3-.1-.1-.2-.1-.2-.1m-565.5-2.4c12.1 0 23.5-5.3 34.7-9.8 8.3-3.3 17.2-6.2 26-6.2 3.2 0 6.4.4 9.6 1.3 5.7 1.6 10.8 4.9 15.8 8 3.1 2 6.5 4.5 6.7 8.1.4 5.7-6.6 8.6-12.2 9.7-7.2 1.5-14.5 2.9-21.7 4.4-6.8 1.4-15 4.1-16.1 10.9-.2 1.3-.2 2.9-1.2 3.8-.6.6-1.5.7-2.4.7h-.9c-5.8-.5-11.5-2.3-16.5-5.4-2-1.2-3.9-2.6-6.1-3.4-2.1-.7-4.4-.7-6.7-1-6.2-.8-15.5-3.3-20-5.9-5.1-2.9-3.4-12.1 2-14.4 1.7-.7 3.6-.9 5.5-.9 1.1 0 2.2.1 3.3.1h.2m-297.5 44.9c-2.4 0-4.8-.2-7-1-2.9-1-5.3-3-7.7-4.9-12.1-9.9-24.2-19.8-36.4-29.7-.7-.6-1.4-1.2-1.8-2-1.7-3.5 3.1-6.3 6-8.9 5.8-5.3 4.2-14.9.2-21.5-4-6.7-10.7-17.1-7-23.1 0 0 4.5-3.5 7.7-3.5.3 0 .6 0 .9.1 3.3.7 6 3.1 8.9 4.8 6.1 3.6 13.1 4.3 20.3 4.3 2.4 0 4.7-.1 7.1-.2 2.4-.1 4.7-.2 7.1-.2 1.2 0 2.5 0 3.7.1 2.3.1 4.7.3 6.9 1.3 2.7 1.2 4.8 3.4 6.9 5.4 11.7 11.4 26.3 19.8 42.1 24 15.9 4.3 33.3 4.8 47 13.9-1.2 12.1 10 21.5 14 32.9.8 2.4 1.3 4.9 2.2 7.2 2.2 6.2 6.7 11 11.4 15.5h-91.2c-.1-.3-.2-.6-.3-.8-1.4-3.9-1.7-8.8-5.2-11.2-1.6-1.1-3.7-1.4-5.7-1.7-6.6-.8-13.2-1.2-19.8-1.2-2 0-4.1 0-6.1.1-1.4.3-2.8.3-4.2.3m901.3-97.3l-.5-.7c.2.2.3.5.5.7m24.7 51c-1.3 0-2.6-.4-3.9-.8-9.3-3.1-18.7-6.2-28-9.3-3.5-1.1-7.2-2.5-9.1-5.6-.8-1.4-1.2-3-1.6-4.6-.9-4.1-1.9-8.1-2.8-12.2-.8-3.3-1.5-6.7-.9-10.1.6-3.3 2.9-6.6 6.3-7.2 1.4-.3 2.9 0 4.4-.3 2-.3 3.7-1.6 5.6-2.2.6-.2 1.3-.3 2-.3 1 0 2 .3 2.7.9-.1-.1-.1-.2-.2-.3l.3.4-.1-.1c2.7 4.6 7.9 7.2 13 9 5.2 1.8 10.8 3.2 15.2 6.5 3.4 2.5 5.9 5.9 8.3 9.3 2.7 3.8 5.5 8.2 4.9 12.8-.8 5.9-6.5 9.6-11.7 12.6-1.1.6-2.3 1.3-3.5 1.5h-.9m-484.7-82.4c-.8 0-1.7-.1-2.5-.2-5.1-.8-9.5-3.7-13.8-6.5-3.4-2.3-6.9-4.6-9.1-8-1.7-2.7-2.7-6-5.2-7.8-3-2.2-7.1-1.7-10.7-2.5-4-.9-7.4-3.5-10.6-6-1.1-.9-2.3-1.8-2.9-3.1-.5-1.1-.5-2.3-.5-3.5v-6.1c0-1.5 0-3.2.8-4.5 1-1.7 2.9-2.6 4.7-3.2 3.4-1.1 7-1.7 10.5-1.7 3.4 0 6.7.5 9.9 1.5l.4-.4c4.3 2.2 9.3 1.8 14.1 2 4.8.2 10.1 1.4 12.7 5.5 1.3 2.1 1.7 4.8 3.3 6.7 4.3 5.4 14.8 2.4 18.3 8.4.8 1.3 1 2.9 1.1 4.4.4 6.4-1.4 13.1-5.7 18-3.7 4.3-9.2 7-14.8 7m181.7-331.5c-5.6 0-11.1-.2-16.6-.4-3.5-.1-7.2-.3-10.3-1.9-2.6-1.4-4.7-3.7-7-5.5-3.8-3-8.3-4.7-12.5-7.1-7.4-4.2-13.5-10.6-17.4-18.1l5.9-3.1c8.8-5.9 19.2-9.5 29.7-10.3 1.5-.1 3.1-.2 4.6-.2 16.5 0 32.6 6.2 48.1 12.3 10.1 4 22 10.4 21.9 21.2 0 1-.1 1.9-.6 2.8-.6 1.1-1.8 1.8-3 2.3-13.2 6.6-28 8-42.8 8m-109.5-105c-.7.1-1.3.2-1.9.3-29.6 4.5-58.7 10.4-87.3 17.7h-.1c-.1 0-.2.1-.3.1-.1 0-.2 0-.3.1h-.1c-51.6 13.3-101.3 31-148.8 52.9h-.1c-.6.3-1.1.5-1.6.8h-.1c1.5.4 2.8 1.4 3.5 3.3 3.1 8.1.4 17.5 3.9 25.6 1.7 3.9 5.2 7.5 9.3 7.5h.4c2.7-.1 5.1-1.8 7.5-3.3 13.3-8.5 29.1-12.8 44.9-12.8 12.4 0 24.8 2.7 36 8.1-1.9 9.7 2.3 20.3 10.3 26 5 3.6 11.5 5.7 14.5 11 3.2 5.8.9 13.3-3.2 18.6-4.1 5.2-9.8 9.1-14.3 14-15.1 16.2-15 44.3.3 60.3 5.4 5.7 12.2 9.7 19 13.7 11.9 3.8 24.2 6.2 36.6 7 1.6.1 3.3.2 4.5 1.2.8.6 1.3 1.6 1.8 2.5 5.6 10.3 11.9 20.9 21.7 27.2 2.7 1.8 5.6 3.1 8.3 5 3.6 2.5 6.5 5.7 9.4 8.9 10.7 11.6 21.3 23.3 32 34.9 2.7 3 5.5 6 7.3 9.5 4.3 8.2 3.5 18.1 3.3 27.4-.2 11.2.7 22.5 2.7 33.5.3 1.6.6 3.2.5 4.9-.1 1.2-.5 2.3-.9 3.5-2.8 6.7-10.1 11-17.3 11-2.4 0-4.7-.5-6.9-1.4-3.1-1.4-5.8-3.7-8.4-5.9-4-3.4-7.9-6.8-11.5-10.5-5.2-5.5-9.6-11.8-15.8-16-6.1-4.2-13.5-6-20.4-8.8-10.4-4.2-19.8-10.5-27.6-18.5-.8-.8-1.6-1.7-2.1-2.7-.6-1.2-.7-2.6-.7-3.9-.2-6.2.6-12.4-.6-18.5-.9-4.5-2.8-8.6-5-12.7-7.7 3.6-16.1 4.6-24.8 4.6-7.9 0-15.9-.8-23.7-1.3-2-.1-4.1-.2-6.2-.2-15.6 0-32 3.5-40.4 16.2-5.6 8.4-6.6 19.7-14.1 26.4-5.7 5.1-13.5 6.2-21.4 6.2-2.9 0-5.9-.2-8.8-.3-6.2-.3-12.5-.5-18.8-.5-47.3 0-94.6 9.2-138.4 27-5.5 2.2-11.1 4.8-14.6 9.5-7.5 10.2-1.7 24.8-4.4 37.2-2.9 13.4-16.3 22.8-29.9 24.2-1.5.2-3 .2-4.5.2-12.1 0-24-4.9-34.2-11.5-4.8-3.1-9.5-6.7-14.8-8.7-5.2-2-10.7-2.4-16.2-2.9-21.5-1.7-42.9-3.5-64.4-5.2-4.6-.4-9.3-.7-13.9-.7-4.3 0-8.6.3-12.8 1.2-10.3 2.3-19.4 8.1-29.1 12.3-4.8 2.1-10.9 5.1-16.2 5.5h-.6c-.8 0-1.4-.1-2-.3v.1c-.2.3-.4.8-.6 1.1a874.95 874.95 0 0 0-52.1 118.3h1404.4c-4.7-13.8-9.6-26.2-14.8-38.9-5.3-12.9-10.9-25.8-16.8-38.4 0 0 0-.1-.1-.1-8.3-1.6-16.5-3.9-24.4-6.8-4-1.5-8.2-6.9-4.4-8.8l.4-1.3c2.5-6.5 6.6-12.2 11.9-16.7-3.8-7.4-7.8-14.7-11.8-22v-.3.3c-.1.8-.3 1.5-.5 2.2-1.3 3.3-5 5-7.1 7.9l.1.2c-.9 1-2.3 1.6-3.7 1.6-.4 0-.8-.1-1.2-.2-1.4-.4-2.6-1.4-4.1-1.5h-1.5c-.3 0-.6 0-.9-.1-1-.3-1.7-1.1-2.4-1.8-.9-1-1.8-2.1-2.2-3.4-.2-.8-.3-1.6-.3-2.5-.1-2.5-.2-5 .4-7.3.6-2.4 2.1-4.7 4.3-5.7 1.2-.5 2.5-.7 3.8-.7h1.4c2.6.1 5.3.4 7.8.9-7.1-12.4-14.6-24.7-22.3-36.7-4.8.2-9.7-.3-13.9 1.9-2.6 1.4-4.6 3.7-6.6 6-11.8 13.6-26 27-43.9 28.9-1.4.2-2.9.2-4.3.2-16.3 0-31.6-9.5-44.6-19.8-14.1-11.2-27.9-24-45.3-28.9-7.7-2.1-15.7-2.6-23.8-2.6-2.8 0-5.5.1-8.3.1-2.8.1-5.5.1-8.3.1-9.9 0-19.5-.7-28.6-4.3-7.1-2.8-13.3-7.3-19.3-12-24.9-19.4-47.9-46.8-46.2-78.3.4-7.7 2.8-16.1 9.3-20.5 3.9-2.6 8.7-3.4 13.3-4 9.8-1.2 19.7-1.8 29.6-1.8 6 0 12 .2 18 .7 1.8.1 3.7.3 5.6.3 3.6 0 7.1-.5 9.9-2.6 3.4-2.5 5-6.8 8-9.8 12.1-12.1 39.3.7 46.8-14.7 1.6-3.4 1.6-7.4 1.6-11.2 0-2.3-.1-4.7-.1-7-18.2-16.5-37.1-32.3-56.6-47.3-8.6-6.6-17.3-13-26.1-19.3-3.1-1.6-6.1-3.2-9.1-5-.1 0-.1-.1-.2-.1-.6-.4-1.2-.8-1.9-1.1-.4-.3-.9-.6-1.3-.8-.3-.2-.5-.3-.8-.5l-3.6-2.4-.9-.6-2.4-1.8c-2.9-2.2-5.8-4.6-8.5-7.1-39.7-26-81.6-48.9-125.4-68.3-38.4-17.1-78.3-31.5-119.3-43h-.1c-.1 0-.1 0-.2-.1h-2.9c-20 0-43.4 5.9-43.4 5.9-3.8.7-7.6 1-11.4 1-13.8 0-27.7-4.3-38.9-12.4-3.2-2.3-6.2-5-7.6-8.6-.9-2.3-1.1-4.8-.6-7.2.1-.5.2-.9.4-1.3-.6-.1-1.2-.2-1.9-.3 1 0 1.7-.1 2.3-.2"/><path id="XMLID_219_" class="st7" d="M828.4 500.3c-.2.3-.3.7-.4 1.3-.5 2.4-.3 4.9.6 7.2 1.4 3.6 4.5 6.3 7.6 8.6 11.2 8.1 25.1 12.4 38.9 12.4 3.8 0 7.7-.3 11.4-1 0 0 23.4-5.9 43.4-5.9h2.9c-32.7-9-66.1-16.5-100.2-21.9-1.3-.2-2.8-.4-4.2-.7 0 .1 0 0 0 0"/><path id="XMLID_220_" class="st7" d="M914.3 558.2c-1.5 0-3.1.1-4.6.2-10.6.8-20.9 4.4-29.7 10.3l-5.9 3.1c3.9 7.5 10 13.9 17.4 18.1 4.2 2.4 8.7 4.1 12.5 7.1 2.3 1.8 4.4 4.1 7 5.5 3.1 1.6 6.8 1.8 10.3 1.9 5.5.2 11.1.4 16.6.4 14.9 0 29.6-1.4 42.8-7.9 1.2-.6 2.4-1.2 3-2.3.5-.8.6-1.8.6-2.8.1-10.9-11.8-17.3-21.9-21.2-15.5-6.2-31.6-12.4-48.1-12.4"/><path id="XMLID_221_" class="st7" d="M928 1036.1h-.3c-20.3.1-40.7.2-61 .2-5 0-10.3.1-14.9 2.2-3.7 1.7-6.6 4.5-9.8 7-15.1 11.8-34.5 15.1-54 15.1-6.7 0-13.5-.4-20-.9-3.1-.3-6.3-.5-9.4-.5-4.6 0-9 .6-13 2.6-6.4 3.2-10.6 11.7-7.3 17.7h185.8c5.5-2.3 10.2-5.6 12.7-11 4-8.4 1.3-18.3-1.5-27.1-.5-1.5-1-3.1-2.2-4.1-1.4-1.1-3.3-1.2-5.1-1.2"/><path id="XMLID_222_" class="st7" d="M1215.3 966.5c.1.1.1.2.2.3l.1.1-.3-.4"/><path id="XMLID_223_" class="st7" d="M1215.7 967l.5.7c-.2-.3-.3-.6-.5-.7"/><path id="XMLID_224_" class="st7" d="M1212.8 965.9c-.7 0-1.4.1-2 .3-1.9.6-3.6 1.9-5.6 2.2-1.4.3-2.9 0-4.4.3-3.3.6-5.7 3.9-6.3 7.2-.6 3.3.2 6.8.9 10.1.9 4.1 1.9 8.1 2.8 12.2.4 1.6.7 3.2 1.6 4.6 1.9 3.1 5.6 4.5 9.1 5.6 9.3 3.1 18.7 6.2 28 9.3 1.3.4 2.6.8 3.9.8.3 0 .6 0 .8-.1 1.3-.2 2.4-.8 3.5-1.5 5.2-2.9 10.9-6.7 11.7-12.6.6-4.7-2.2-9-4.9-12.8-2.4-3.4-4.9-6.9-8.3-9.3-4.5-3.3-10-4.6-15.2-6.5-5.1-1.8-10.3-4.4-13-9-.6-.5-1.6-.8-2.6-.8"/><path id="XMLID_225_" class="st7" d="M1170.9 1005.4c-.5 0-1.1.1-1.6.2-2.1.5-3.9 2.8-3.1 4.8.6 1.5 2.2 2.2 3.3 3.4 1.4 1.6 1.6 4 2.8 5.7 1.2 1.8 3.4 2.9 5.7 2.9h.3c2.3-.1 4.5-1.3 6-3 .8-.9 1.6-2.1 1.4-3.4-.1-.7-.4-1.3-.8-1.9-1.4-2.2-5.7-6.7-5.7-6.7-1.2-.4-2.3-.8-3.5-1.1-1.7-.4-3.3-.9-4.8-.9"/><path id="XMLID_226_" class="st7" d="M1325.1 1016.6h-.2c-3.2 0-6.3 0-9.5.1 0 0-2.5.6-3.1 1.8-.3-.1-.7-.2-1-.2-1.1 0-2.2.6-3 1.4-1 1.1-1.3 2.7-1.2 4.2.3 3.5 2.9 6.5 6.1 7.9 1.9.9 4 1.2 6.1 1.2 1.4 0 2.8-.1 4.1-.4 2-.4 4.2-1.1 5.2-2.9.6-1.2.6-2.5.5-3.8 0-1.5-.1-3-.1-4.5-.1-1.6-.3-3.5-1.7-4.3-.7-.4-1.4-.5-2.2-.5"/><path id="XMLID_229_" class="st7" d="M1289.3 720.4c0 2.3.1 4.7.1 7 0 3.8.1 7.7-1.6 11.2-7.5 15.4-34.7 2.5-46.8 14.7-3 3-4.6 7.2-8 9.8-2.8 2.1-6.3 2.6-9.9 2.6-1.9 0-3.8-.1-5.6-.3-6-.5-12-.7-18-.7-9.9 0-19.8.6-29.6 1.8-4.7.6-9.4 1.4-13.3 4-6.4 4.3-8.8 12.7-9.3 20.5-1.7 31.5 21.4 58.9 46.2 78.3 6 4.7 12.3 9.2 19.3 12 9.1 3.6 18.8 4.3 28.6 4.3 2.8 0 5.5-.1 8.3-.1 2.8-.1 5.5-.1 8.3-.1 8.1 0 16.1.4 23.8 2.6 17.4 4.8 31.1 17.7 45.3 28.9 13 10.3 28.3 19.8 44.6 19.8 1.4 0 2.9-.1 4.3-.2 17.9-1.9 32.1-15.3 43.9-28.9 1.9-2.2 3.9-4.6 6.6-6 4.2-2.2 9.1-1.7 13.9-1.9-5.4-8.4-10.8-16.6-16.5-24.8-38.7-56.7-83.9-108.5-134.6-154.5M1178 634.3c2.7 2.5 5.6 4.9 8.5 7.1-.9-.7-1.7-1.3-2.6-2-1.7-1.3-3.3-2.7-4.9-4.2-.3-.3-.7-.6-1-.9"/><path id="XMLID_230_" class="st7" d="M268.9 970.2c-3.3 0-7.7 3.5-7.7 3.5-3.7 6 3 16.5 7 23.1 4 6.7 5.6 16.3-.2 21.5-2.9 2.6-7.7 5.4-6 8.9.4.8 1.1 1.4 1.8 2 12.1 9.9 24.3 19.8 36.4 29.7 2.4 1.9 4.8 3.9 7.7 4.9 2.2.8 4.6 1 7 1 1.4 0 2.8-.1 4.2-.1 2-.1 4.1-.1 6.1-.1 6.6 0 13.2.4 19.8 1.2 2 .2 4 .5 5.7 1.7 3.5 2.4 3.8 7.2 5.2 11.2.1.3.2.6.3.8h91.2c-4.8-4.6-9.2-9.4-11.4-15.5-.9-2.4-1.4-4.8-2.2-7.2-3.9-11.4-15.2-20.9-14-32.9-13.7-9.1-31.1-9.6-47-13.9-15.8-4.3-30.4-12.6-42.1-24-2.1-2.1-4.2-4.2-6.9-5.4-2.1-1-4.5-1.2-6.9-1.3-1.2-.1-2.4-.1-3.7-.1-2.4 0-4.7.1-7.1.2-2.4.1-4.7.2-7.1.2-7.2 0-14.2-.7-20.3-4.3-2.9-1.7-5.6-4.1-8.9-4.8-.3-.3-.6-.3-.9-.3"/><path id="XMLID_231_" class="st7" d="M486.6 1038.7c-5.9 0-11.7.8-17.4 2.4 1.8 6.7 1.8 14.2 5.3 20.2 3.8 6.5 13.7 13.5 24 18.4h129.7c-5-5.4-7.7-13.2-13.6-17.7-3.3-2.5-7.3-3.9-11.3-5-12.9-3.7-26.3-5.5-39.6-5.5-2.8 0-5.5.1-8.3.2-5.1.3-10.3.8-15.4.8-4.8 0-9.4-.5-13.9-2.1-3.7-1.3-7.1-3.4-10.6-5.1-9-4.4-18.9-6.6-28.9-6.6"/><path id="XMLID_232_" class="st7" d="M555.3 1013.6c-3.9 0-7.7.3-11.6.7-1.5.1-3 .3-4.3 1-3.1 1.9-3.1 6.8-.8 9.7 2.3 2.9 5.9 4.2 9.4 5.4 2.8 1 5.5 1.9 8.3 2.9 2.7.3 5.4 1.4 7.9 2.8 1.6.9 3.3 2 5 2 .6 0 1.1-.1 1.6-.4 2.2-1.2 2.3-4.4 3.9-6.4 1.9-2.4 6-3.5 5.9-6.5 0-1.3-.9-2.4-1.8-3.2-4.4-4.3-10.5-6.6-16.6-7.4-2.3-.5-4.6-.6-6.9-.6"/><path id="XMLID_233_" class="st7" d="M673.2 1004c-8.8 0-17.7 2.9-26 6.2-11.3 4.5-22.6 9.8-34.7 9.8h-.3c-1.1 0-2.2-.1-3.3-.1-1.9 0-3.8.1-5.5.9-5.3 2.3-7 11.6-2 14.4 4.5 2.6 13.9 5.1 20 5.9 2.2.3 4.5.3 6.7 1s4.1 2.2 6.1 3.4c5 3 10.7 4.9 16.5 5.4h.9c.9 0 1.8-.2 2.4-.7 1-.9 1-2.5 1.2-3.8 1.1-6.8 9.3-9.6 16.1-10.9 7.2-1.5 14.5-2.9 21.7-4.4 5.6-1.1 12.6-4 12.2-9.7-.3-3.6-3.7-6.1-6.7-8.1-5-3.2-10.1-6.4-15.8-8-3.1-1-6.3-1.3-9.5-1.3"/><path id="XMLID_234_" class="st7" d="M586.3 571.5c-2.8 0-6.1 1.4-9.3 2.8-2.5 1.1-4.9 2.2-6.7 2.6-6.2 1.4-12.9 2.1-19.1 3.9-.8.2-1.6.5-2.4.8-3.5 1.2-6.8 2.9-9.6 5.4-.9.8-1.8 1.7-2.6 2.7-1.2 1.3-2.4 2.7-3.7 4-5.4 5.3-12.7 8.2-19.7 11.3-1.2.5-2.4 1-3.6 1.6-10 4.5-19.2 10.5-28.2 16.8-.5.4-1.1.8-1.6 1.2-4.2 3-8.3 6-12.5 9.1-2.5 1.9-5.1 3.8-7.7 5.6-2.9 2.1-5.7 4.2-8.6 6.3-2.3 1.7-4.6 3.4-6.8 5.1-.7.5-1.3 1-2 1.5-15.8 11.6-31.6 23.3-47.4 35-.1.1-.3.2-.4.3-.5.3-.9.7-1.4 1-8.5 6.3-15.5 14-23.3 21-1.6 1.4-3.2 2.8-4.9 4.2-.8.7-1.6 1.3-2.4 2-3.3 2.6-6.7 5.2-10 7.9-2 1.6-3.9 3.2-5.8 4.9-6.1 5.5-11 12.1-15.6 18.9-2.7 3.9-5.7 7.3-8.8 10.4-2.5 2.5-5.2 4.8-7.9 7.2-3.3 2.9-6.7 5.7-10.1 8.8-.7.6-1.4 1.3-2.1 1.9-3 2.8-6 5.7-9 8.6-.5.5-1 1-1.5 1.4-4.8 4.7-9.7 9.4-14.5 14.1-1.7 1.6-3.4 3.3-4.7 5.2-.9 1.2-1.6 2.6-2.3 3.9-.2.4-.4.7-.6 1.1-.5.8-1 1.7-1.5 2.5-5.2 8.4-12 16-17.8 24-3.5 4.9-7.1 9.7-10.6 14.6-.8 1.1-1.5 2.1-2.3 3.2-.4.6-.8 1.2-1.3 1.7-1 1.4-2.1 2.8-3.1 4.2-.4.6-.9 1.2-1.3 1.8-.5.7-1.1 1.5-1.6 2.2-4.3 6-8.6 11.9-13 17.9-6.7 9.2-13.3 18.3-20 27.5-2.7 3.7-5.4 7.4-7.9 11.2-3.4 5.1-6.6 10.7-6.8 16.8-.1 1.6.1 3.3 0 4.9-.1.8-.2 1.5-.4 2.2-.1.2-.2.5-.3.7-1 2.5-3.1 4.4-4.7 6.6 0 .1-.1.1-.1.2-1.1 1.6-1.8 3.4-1.8 4.9v.5c0 .1 0 .2.1.3v.2c0 .2.1.3.1.4 0 .1.1.2.1.3 0 0 0 .1.1.1.1.1.1.2.2.3l.1.1.2.2c.2.2.5.4.9.6.5.2 1.2.3 2 .3h.6c5.3-.4 11.4-3.4 16.2-5.5 9.7-4.2 18.8-10 29.1-12.3 4.2-.9 8.5-1.2 12.8-1.2 4.6 0 9.3.4 13.9.7 21.5 1.7 42.9 3.5 64.4 5.2 5.5.4 11.1.9 16.2 2.9 5.4 2 10 5.6 14.8 8.7 10.2 6.6 22.1 11.5 34.2 11.5 1.5 0 3-.1 4.5-.2 13.6-1.4 27-10.8 29.9-24.2 2.7-12.4-3.1-27 4.4-37.2 3.5-4.7 9.2-7.3 14.6-9.5 43.8-17.8 91.1-27 138.4-27 6.3 0 12.5.2 18.8.5 2.9.1 5.8.3 8.8.3 7.9 0 15.7-1.1 21.4-6.2 7.5-6.7 8.5-18 14.1-26.4 8.4-12.7 24.8-16.2 40.4-16.2 2.1 0 4.2.1 6.2.2 7.8.4 15.9 1.3 23.7 1.3 8.6 0 17.1-1 24.8-4.6 2.2 4 4.1 8.2 5 12.7 1.2 6.1.4 12.3.6 18.5 0 1.3.1 2.7.7 3.9.5 1 1.3 1.9 2.1 2.7 7.8 8 17.2 14.4 27.6 18.5 6.9 2.8 14.3 4.6 20.4 8.8 6.2 4.3 10.6 10.6 15.8 16 3.6 3.8 7.6 7.2 11.5 10.5 2.6 2.2 5.3 4.5 8.4 5.9 2.2 1 4.5 1.4 6.9 1.4 7.2 0 14.5-4.3 17.3-11 .5-1.1.8-2.3.9-3.5.2-1.6-.2-3.3-.5-4.9-2.1-11-3-22.3-2.7-33.5.2-9.3 1.1-19.1-3.3-27.4-1.9-3.5-4.6-6.6-7.3-9.5-10.7-11.6-21.4-23.3-32-34.9-2.9-3.2-5.9-6.4-9.4-8.9-2.7-1.9-5.6-3.2-8.3-5-9.9-6.4-16.1-16.9-21.7-27.2-.5-.9-1-1.9-1.8-2.5-1.2-1-2.9-1.1-4.5-1.2-12.4-.8-24.8-3.1-36.6-7-6.9-3.9-13.6-8-19-13.7-15.3-16-15.5-44.2-.3-60.3 4.5-4.9 10.2-8.7 14.3-14 4.1-5.3 6.4-12.8 3.2-18.6-3-5.4-9.5-7.5-14.5-11-8-5.8-12.2-16.3-10.3-26-11.2-5.4-23.6-8.1-36-8.1-15.8 0-31.6 4.3-44.9 12.8-2.3 1.5-4.7 3.1-7.5 3.3h-.4c-4.2 0-7.7-3.6-9.3-7.5-3.5-8.2-.8-17.5-3.9-25.6-.7-2-2-2.9-3.5-3.3-.1 0-.2 0-.3-.1h-1.4"/><path id="XMLID_235_" class="st7" d="M716.9 883.2c-3.6 0-7.1.6-10.5 1.7-1.9.6-3.8 1.5-4.7 3.2-.7 1.3-.8 3-.8 4.5v6.1c0 1.2 0 2.4.5 3.5.6 1.3 1.7 2.2 2.9 3.1 3.2 2.5 6.6 5.1 10.6 6 3.6.8 7.7.3 10.7 2.5 2.6 1.9 3.5 5.2 5.2 7.8 2.2 3.4 5.7 5.8 9.1 8 4.3 2.8 8.7 5.8 13.8 6.5.8.1 1.7.2 2.5.2 5.6 0 11.1-2.7 14.8-7 4.2-4.9 6.1-11.6 5.7-18-.1-1.5-.3-3.1-1.1-4.4-3.5-6-13.9-3-18.3-8.4-1.6-1.9-1.9-4.6-3.3-6.7-2.5-4.1-7.9-5.3-12.7-5.5-4.8-.2-9.8.2-14.1-2l-.4.4c-3.1-1-6.5-1.5-9.9-1.5"/><path id="XMLID_236_" class="st7" d="M1453.6 935.3c-1.3 0-2.6.1-3.8.7-2.2 1-3.7 3.3-4.3 5.7-.6 2.4-.5 4.9-.4 7.3 0 .8.1 1.7.3 2.5.4 1.3 1.3 2.4 2.2 3.4.7.8 1.4 1.6 2.4 1.8.3.1.6.1.9.1h1.5c1.5.2 2.7 1.2 4.1 1.5.4.1.8.2 1.2.2 1.4 0 2.8-.6 3.7-1.6l-.1-.2c2.1-2.9 5.7-4.6 7.1-7.9.3-.7.5-1.5.5-2.2-1.9-3.5-3.9-6.9-5.9-10.4-2.6-.5-5.2-.7-7.8-.9h-1.6"/><path id="XMLID_237_" class="st7" d="M1480.5 968.5c-5.2 4.5-9.4 10.3-11.9 16.7l-.4 1.3c-3.8 1.9.5 7.4 4.4 8.8 7.9 2.9 16.1 5.2 24.4 6.8-5.2-11.3-10.7-22.5-16.5-33.6"/><path id="XMLID_246_" class="st8" d="M1468.7 946.2v.3c4 7.3 8 14.6 11.8 22-3.8-7.4-7.8-14.7-11.8-22v-.3m-28-46.7h-.1c7.7 12 15.1 24.3 22.3 36.7 1.5.3 2.9.6 4.3.9.5.1 1.1.3 1.3.7-.3-.4-.8-.6-1.3-.7-.5-.1-1-.3-1.5-.4l-1.5-.3c-.4-.1-.9-.2-1.3-.3-7.1-12.4-14.5-24.7-22.2-36.6M1197.6 648.8c2.9 1.8 6 3.4 9.1 5l1.2.6c-.1 0-.2-.1-.2-.1-.3-.2-.7-.3-1-.5-.1 0-.2-.1-.2-.1-.1 0-.1-.1-.2-.1-.1-.1-.3-.1-.4-.2-.1-.1-.3-.1-.4-.2-.1-.1-.2-.1-.4-.2-1-.5-2.1-1.1-3.1-1.7-.3-.2-.5-.3-.8-.5-.9-.5-1.7-1-2.6-1.5-.1-.1-.2-.1-.3-.2-.2 0-.4-.1-.7-.3.1.1.1.1 0 0 .1.1.1.1 0 0m-2.1-1.2c.6.4 1.2.8 1.9 1.1-.6-.4-1.2-.8-1.9-1.1m-1.3-.9c.4.3.9.6 1.3.8-.1-.1-.3-.2-.4-.3 0 0-.1 0-.1-.1-.1-.1-.2-.1-.3-.2-.1 0-.1-.1-.2-.1s-.2 0-.3-.1m-4.4-2.9l3.6 2.4c-.1 0-.1-.1-.2-.1-.1-.1-.3-.2-.4-.3-.3-.2-.5-.4-.8-.5-.3-.2-.7-.5-1-.7-.1-.1-.2-.2-.4-.3-.2-.1-.5-.3-.8-.5.1 0 0 0 0 0M828.4 499.7c-.7.1-1.3.2-2 .3.6.1 1.2.2 1.9.3.1-.2.2-.3.3-.5 0 0-.1 0-.1-.1 0 .1 0 0-.1 0"/><path id="XMLID_247_" class="st9" d="M828.6 499.9c-.1.1-.2.3-.3.5.1-.1.1-.2.2-.3l.2-.1-.1-.1c.1 0 .1 0 0 0 .1 0 .1 0 0 0"/><path id="XMLID_260_" class="st9" d="M1289.3 720.4c50.6 46 95.9 97.8 134.8 154.3 5.6 8.1 11.1 16.4 16.5 24.8h.1c0-.1-.1-.1-.1-.2l.1-.2h-.1c-5.3-8-10.8-16.4-16.5-24.5-38.9-56.6-84.1-108.2-134.8-154.2m-82.6-66.6c.3.2.7.3 1 .5-.4-.1-.7-.3-1-.5m-.9-.4c.1.1.3.1.4.2-.1 0-.2-.1-.4-.2m-3.8-2c1 .6 2.1 1.1 3.1 1.7-.7-.4-1.4-.7-2.1-1.1-.3-.3-.7-.5-1-.6m-3.4-2c.8.5 1.7 1 2.6 1.5-.2-.1-.4-.2-.6-.4-.6-.3-1.1-.6-1.7-1-.1 0-.2 0-.3-.1m-.9-.5l.6.3h-.1l-.1-.1c-.1 0-.2-.1-.4-.2m-2.7-1.7s.1.1 0 0c.1.1 0 0 0 0m-.6-.3c.1 0 .1.1.2.1 0 0 0-.1-.2-.1.1 0 .1 0 0 0m-1.6-1.1c.1.1.3.2.4.3l-.1-.1c-.1-.1-.2-.1-.3-.2m-1.8-1.2c.3.2.7.5 1 .7-.2-.1-.4-.3-.6-.4-.1-.1-.3-.2-.4-.3m-1.1-.8c.3.2.5.4.8.5-.1-.1-.3-.2-.4-.3-.2 0-.3-.1-.4-.2m-10.9-8.6c1.6 1.4 3.3 2.8 4.9 4.2-.8-.7-1.7-1.3-2.5-2l-2.1-1.8c-.1-.2-.2-.3-.3-.4"/><path id="XMLID_261_" class="st6" d="M933.2 523c.1 0 0 0 0 0"/><path id="XMLID_262_" class="st8" d="M933.2 523s.1 0 0 0"/><path id="XMLID_265_" class="st8" d="M1468.8 943.5c0 .1 0 .1 0 0 0 .1 0 .1 0 0m-.3-5.7c.1.2.2.4.2.6 0-.2-.1-.4-.2-.6"/><path id="XMLID_266_" class="st9" d="M1462.8 936.2c2 3.4 3.9 6.9 5.9 10.4v-3c0-1.6 0-3.1-.1-4.6v-.5c0-.2-.1-.4-.2-.6-.3-.4-.8-.6-1.3-.7-1.3-.5-2.8-.8-4.3-1"/><path id="XMLID_269_" class="st9" d="M1481 968.1c-.2.1-.3.2-.5.4.2-.1.3-.2.5-.4m0 0"/></g></svg>