<?xml version="1.0" encoding="utf-8"?>
<!-- Generator: Adobe Illustrator 19.0.0, SVG Export Plug-In . SVG Version: 6.00 Build 0)  -->
<svg version="1.1" id="Layer_1" xmlns="http://www.w3.org/2000/svg" xmlns:xlink="http://www.w3.org/1999/xlink" x="0px" y="0px"
	 viewBox="0 0 1920 1080" style="enable-background:new 0 0 1920 1080;" xml:space="preserve">
<style type="text/css">
	.st0{fill:#00B8AC;}
	.st1{fill:#0C977A;}
	.st2{fill:#FBEBC8;}
	.st3{fill:#49C8B3;}
	.st4{fill:#51AE86;}
	.st5{fill:#C0C0CB;}
	.st6{fill:#008B89;}
	.st7{fill:#097261;}
	.st8{fill:#37978F;}
	.st9{fill:#3D836B;}
</style>
<g id="XMLID_105_">
	<path id="XMLID_107_" class="st0" d="M1795.9,1079.5H124.1c14.6-41,32.1-80.5,52.3-118.5c91-171.1,236.5-308.9,413.2-390.2
		c74.6-34.3,154.8-58.6,238.8-71.1c42.9-6.4,86.9-9.7,131.6-9.7c47.6,0,94.2,3.7,139.7,10.9c77,12.2,150.8,34.3,219.8,65
		c150.6,66.8,279.1,174.4,371.6,308.7C1734.4,937.6,1769.8,1006.3,1795.9,1079.5"/>
	<path id="XMLID_108_" class="st1" d="M1098.9,500.8c-0.3,1.4-4.2,2.1-5.4,2.5c-5.2,1.6-10.5,2.5-15.9,2.9c-7,0.4-14.2-0.2-20.9,1.9
		c-15.9,4.9-24.2,22.9-39.2,30c-22.5,10.7-47.5-6.5-71.5-13.3c-20.3-5.7-59.3,4.2-59.3,4.2c-17.4,3.1-36-1.1-50.4-11.4
		c-3.2-2.3-6.2-5-7.6-8.6c-0.9-2.3-1.1-4.8-0.6-7.2c0.5-2.5,1.5-2.5,3.9-2.9c5.4-0.9,10.9-1.8,16.3-2.8c5.3-0.9,10.6-1.6,16-2.2
		c1.8-0.2,3.4,0,5.3,0.1c1.5,0,1.6-0.4,3-0.8c1.2-0.3,2.5,0,3.7,0.1c1.8,0.2,3.9,0.5,5.7,0.3c2.1-0.3,4.2-1.3,6.2-1.8
		c5.3-1.5,11-1.7,16.5-1.9c17-0.7,33.9-0.9,50.8-1.8c1.3-0.1,2.6-0.1,3.9-0.2c6.2-0.3,12.4-0.7,18.6,0.2c4.6,0.6,9.1,1.5,13.7,1.5
		c5.9,0,11.7,0,17.6,0c4.4,0,8.8,0,13.3,0c10,0,19.9,1.6,29.7,3.2c2.2,0.4,4.4,0.7,6.6,1.3c1.6,0.4,3.1,0.9,4.7,1.2
		c2.7,0.5,5.4,0.2,8.2,0.2c7-0.1,13.9,1.2,20.8,2.6c1.5,0.3,5.9,0.7,6.5,2.5C1098.9,500.4,1098.9,500.6,1098.9,500.8"/>
	<path id="XMLID_109_" class="st1" d="M962.4,570.4c-16.9-6.7-34.6-13.4-52.8-12.1c-10.6,0.8-20.9,4.4-29.7,10.3l-5.9,3.1
		c3.9,7.5,10,13.9,17.4,18.1c4.2,2.4,8.7,4.1,12.5,7.1c2.3,1.8,4.4,4.1,7,5.5c3.1,1.6,6.8,1.8,10.3,1.9c20.2,0.8,41.3,1.4,59.5-7.5
		c1.2-0.6,2.4-1.2,3-2.3c0.5-0.8,0.6-1.8,0.6-2.8C984.4,580.8,972.5,574.4,962.4,570.4"/>
	<path id="XMLID_110_" class="st1" d="M936.8,1068.5c-2.6,5.3-7.2,8.7-12.7,11H738.2c-3.2-6,0.9-14.5,7.3-17.7
		c6.8-3.4,14.9-2.7,22.4-2.1c25.7,2.2,53.8,1.7,74-14.2c3.2-2.5,6.1-5.3,9.8-7c4.6-2.1,9.8-2.2,14.9-2.2c20.4-0.1,40.7-0.2,61-0.2
		c1.9,0,3.9,0,5.4,1.2c1.2,1,1.7,2.6,2.2,4.1C938.1,1050.3,940.8,1060.2,936.8,1068.5"/>
	<path id="XMLID_111_" class="st1" d="M1215.3,966.5c0.1,0.1,0.1,0.2,0.2,0.3l0.1,0.1L1215.3,966.5"/>
	<path id="XMLID_112_" class="st1" d="M1215.7,967l0.5,0.7C1216,967.4,1215.9,967.1,1215.7,967"/>
	<path id="XMLID_113_" class="st1" d="M1243.8,982.3c-4.5-3.3-10-4.6-15.2-6.5c-5.1-1.8-10.3-4.4-13-9c-1.2-1-3.2-1.1-4.7-0.6
		c-1.9,0.6-3.6,1.9-5.6,2.2c-1.4,0.3-2.9,0-4.4,0.3c-3.3,0.6-5.7,3.9-6.3,7.2c-0.6,3.3,0.2,6.8,0.9,10.1c0.9,4.1,1.9,8.1,2.8,12.2
		c0.4,1.6,0.7,3.2,1.6,4.6c1.9,3.1,5.6,4.5,9.1,5.6c9.3,3.1,18.7,6.2,28,9.3c1.5,0.5,3.1,1,4.8,0.8c1.3-0.2,2.4-0.8,3.5-1.5
		c5.2-2.9,10.9-6.7,11.7-12.6c0.6-4.7-2.2-9-4.9-12.8C1249.7,988.3,1247.1,984.8,1243.8,982.3"/>
	<path id="XMLID_114_" class="st1" d="M1184.7,1014.2c-1.4-2.2-5.7-6.7-5.7-6.7c-1.2-0.4-2.3-0.8-3.5-1.1c-2-0.7-4.2-1.3-6.3-0.8
		c-2.1,0.5-3.9,2.8-3.1,4.8c0.6,1.5,2.2,2.2,3.3,3.4c1.4,1.6,1.6,4,2.8,5.7c1.3,1.9,3.6,3,5.9,2.9c2.3-0.1,4.5-1.3,6-3
		c0.8-0.9,1.6-2.1,1.4-3.4C1185.5,1015.4,1185.1,1014.8,1184.7,1014.2"/>
	<path id="XMLID_115_" class="st1" d="M1328.9,1021.3c-0.1-1.6-0.3-3.5-1.7-4.3c-0.7-0.4-1.6-0.4-2.5-0.4c-3.2,0-6.3,0-9.5,0.1
		c0,0-2.5,0.6-3.1,1.8c-1.4-0.5-3,0.1-4,1.3c-1,1.1-1.3,2.7-1.2,4.2c0.3,3.5,2.9,6.5,6.1,7.9c3.2,1.4,6.8,1.4,10.3,0.8
		c2-0.4,4.2-1.1,5.2-2.9c0.6-1.2,0.6-2.5,0.5-3.8C1329,1024.3,1329,1022.8,1328.9,1021.3"/>
	<path id="XMLID_116_" class="st1" d="M1690.2,873.7c-0.2,0.2-0.5,0.4-0.8,0.6c-2.2,1.4-12-2-14.6-2.6c-5-1.1-10-2.3-14.9-3.7
		c-6.4-1.8-13-4-19.5-3.1c-6.6,0.8-13.2,5.7-13.6,12.3c-0.2,4.2,1.9,8.5,0.5,12.4c-1.1,2.9-4,4.8-7,5.7c-10.3,3.3-21.4-2-30-8.6
		c-8.6-6.6-16.4-14.7-26.7-18.3c-8.8-3.1-18.5-2.5-27.8-1.7c-16,1.2-32.1,2.4-48.2,3.6c-5.2,0.4-10.7,0.8-15.3,3.4
		c-10.7,5.9-14.4,21.4-26.1,25c-6.4,1.9-13.7-0.4-19.6,2.8c-2.6,1.4-4.6,3.7-6.6,6c-11.8,13.6-26,27-43.9,28.9
		c-17.9,1.9-34.8-8.4-49-19.6c-14.1-11.2-27.9-24-45.3-28.9c-10.3-2.9-21.3-2.7-32.1-2.5c-12.7,0.2-25.3,0.5-36.9-4.2
		c-7.1-2.8-13.3-7.3-19.3-12c-24.9-19.4-47.9-46.8-46.2-78.3c0.4-7.7,2.8-16.1,9.3-20.5c3.9-2.6,8.7-3.4,13.3-4
		c15.8-2,31.8-2.3,47.6-1.1c5.3,0.4,11.2,0.8,15.5-2.3c3.4-2.5,5-6.8,8-9.8c12.1-12.1,39.3,0.7,46.8-14.7c1.6-3.4,1.6-7.4,1.6-11.2
		c-0.1-10.8-0.3-21.6-0.5-32.5c-0.1-5.3-0.3-11.1-4-15c-3.2-3.5-8.1-4.5-12.8-5.4c-36.1-7-73.4-18.4-99-44.8
		c-1.2-1.3-2.5-2.9-2.1-4.6c0.2-0.8,0.8-1.4,1.3-2c16.5-17.5,45.1-14.6,67-24.6c6-2.8,11.6-6.6,17.9-8.7c17.4-5.8,36.2,2.4,54.6,2.4
		c2.1,0,4.2-0.1,6-1.2c2.3-1.4,3.4-4,4.1-6.6c1.6-6.5-0.2-12.2-2.1-18.3c7.8-2.9,16.5,4.6,22.5,8.8c9.7,6.8,20.6,11.9,32.1,14.9
		c12.1,8.1,25.4,14.5,39.3,19c2.5,0.8,5,1.5,7.4,2.6c6.1,2.8,11,7.6,16.6,11.4c5.8,3.9,12.3,6.7,18.3,10.2c10.3,6,19.2,14.3,26,24.1
		c1.6,2.4,3.2,4.9,5.4,6.6c1.9,1.5,4.3,2.4,6.5,3.4c16.9,7.4,24.9,22.7,39.1,33.2c15.6,11.5,30.1,23.9,44.9,36.5
		c15.3,13.1,30.7,26.3,43,42.2c14.6,18.8,24.8,41.4,42.9,56.8c6.3,5.3,13.5,9.7,19,15.8C1685.9,854.9,1694.9,869.1,1690.2,873.7"/>
	<path id="XMLID_117_" class="st1" d="M447.4,1079.5h-91.2c-0.1-0.3-0.2-0.6-0.3-0.8c-1.4-3.9-1.7-8.8-5.2-11.2
		c-1.6-1.1-3.7-1.4-5.7-1.7c-8.6-1-17.3-1.4-26-1.1c-3.8,0.1-7.6,0.4-11.2-0.9c-2.9-1-5.3-3-7.7-4.9c-12.1-9.9-24.2-19.8-36.4-29.7
		c-0.7-0.6-1.4-1.2-1.8-2c-1.7-3.5,3.1-6.3,6-8.9c5.8-5.3,4.2-14.9,0.2-21.5c-4-6.7-10.7-17.1-7-23.1c0,0,5.3-4.2,8.6-3.4
		c3.3,0.7,6,3.1,8.9,4.8c8.1,4.8,17.8,4.5,27.4,4.1c3.6-0.1,7.2-0.2,10.8-0.1c2.3,0.1,4.7,0.3,6.9,1.3c2.7,1.2,4.8,3.4,6.9,5.4
		c11.7,11.4,26.3,19.8,42.1,24c15.9,4.3,33.3,4.8,47,13.9c-1.2,12.1,10,21.5,14,32.9c0.8,2.4,1.3,4.9,2.2,7.2
		C438.2,1070.2,442.6,1075,447.4,1079.5"/>
	<path id="XMLID_118_" class="st1" d="M628.3,1079.5H498.6c-10.3-4.9-20.2-11.8-24-18.4c-3.5-6-3.6-13.4-5.3-20.2
		c15.2-4.2,32-2.7,46.2,4.2c3.5,1.7,6.9,3.8,10.6,5.1c9.3,3.3,19.5,1.8,29.4,1.2c16.1-0.9,32.4,0.9,47.9,5.3c4,1.1,8,2.5,11.3,5
		C620.6,1066.4,623.2,1074.1,628.3,1079.5"/>
	<path id="XMLID_119_" class="st1" d="M570.8,1037.6c2.2-1.2,2.3-4.4,3.9-6.4c1.9-2.4,6-3.5,5.9-6.5c0-1.3-0.9-2.4-1.8-3.2
		c-4.4-4.3-10.5-6.6-16.6-7.4c-6.1-0.8-12.3-0.3-18.5,0.2c-1.5,0.1-3,0.3-4.3,1c-3.1,1.9-3.1,6.8-0.8,9.7c2.3,2.9,5.9,4.2,9.4,5.4
		c2.8,1,5.5,1.9,8.3,2.9c2.7,0.3,5.4,1.4,7.9,2.8C566.2,1037.2,568.7,1038.7,570.8,1037.6"/>
	<path id="XMLID_120_" class="st1" d="M698.5,1013.3c-5-3.2-10.1-6.4-15.8-8c-11.7-3.4-24.3,0.4-35.6,4.9
		c-11.4,4.5-22.8,9.9-35.1,9.8c-3,0-6.1-0.4-8.8,0.8c-5.3,2.3-7,11.6-2,14.4c4.5,2.6,13.9,5.1,20,5.9c2.2,0.3,4.5,0.3,6.7,1
		c2.2,0.7,4.1,2.2,6.1,3.4c5,3,10.7,4.9,16.5,5.4c1.2,0.1,2.5,0.1,3.3-0.7c1-0.9,1-2.5,1.2-3.8c1.1-6.8,9.3-9.6,16.1-10.9
		c7.2-1.5,14.5-2.9,21.7-4.4c5.6-1.1,12.6-4,12.2-9.7C705,1017.8,701.6,1015.3,698.5,1013.3"/>
	<path id="XMLID_121_" class="st1" d="M848.3,905.7c-0.1,1.2-0.5,2.3-0.9,3.5c-3.7,8.9-15.4,13.5-24.2,9.5c-3.1-1.4-5.8-3.7-8.4-5.9
		c-4-3.4-7.9-6.8-11.5-10.5c-5.2-5.5-9.6-11.8-15.8-16c-6.1-4.2-13.5-6-20.4-8.8c-10.4-4.2-19.8-10.5-27.6-18.5
		c-0.8-0.8-1.6-1.7-2.1-2.7c-0.6-1.2-0.7-2.6-0.7-3.9c-0.2-6.2,0.6-12.4-0.6-18.5c-0.9-4.5-2.8-8.6-5-12.7
		c-14.7,6.8-32.2,4.2-48.5,3.3c-17.2-0.9-37.1,1.6-46.6,16c-5.6,8.4-6.6,19.7-14.1,26.4c-7.8,7.1-19.7,6.5-30.2,5.9
		c-53.5-2.8-107.6,6.4-157.2,26.5c-5.5,2.2-11.1,4.8-14.6,9.5c-7.5,10.2-1.7,24.8-4.4,37.2c-2.9,13.4-16.3,22.8-29.9,24.2
		c-13.6,1.4-27.2-3.8-38.7-11.3c-4.8-3.1-9.5-6.7-14.8-8.7c-5.2-2-10.7-2.4-16.2-2.9c-21.5-1.7-42.9-3.5-64.4-5.2
		c-8.9-0.7-18-1.4-26.7,0.5c-10.3,2.3-19.4,8.1-29.1,12.3c-4.8,2.1-10.9,5.1-16.2,5.5c-5.6,0.4-5.1-4.8-2.4-8.5
		c1.7-2.4,4.1-4.5,5-7.3c0.7-2.3,0.3-4.7,0.4-7.1c0.2-6.1,3.4-11.7,6.8-16.8c2.5-3.8,5.2-7.5,7.9-11.2c11.5-15.9,23-31.7,34.5-47.6
		c1.9-2.6,3.8-5.2,5.7-7.8c4.3-5.9,8.6-11.9,12.9-17.8c6.4-8.8,13.9-17.1,19.3-26.5c1-1.7,1.8-3.4,2.9-5c1.3-1.9,3-3.6,4.7-5.2
		c5.3-5.2,10.6-10.4,16-15.5c3.6-3.5,7.3-7.1,11-10.5c9.6-8.8,19.4-15.6,26.8-26.4c4.6-6.7,9.6-13.3,15.6-18.9
		c5.8-5.3,12.2-9.8,18.3-14.8c9.8-8,18-17.6,28.2-25.2c0.6-0.4,1.2-0.9,1.8-1.3c15.8-11.7,31.6-23.3,47.4-35
		c2.9-2.2,5.9-4.4,8.8-6.5c5.4-4,10.8-8,16.2-12c4.7-3.5,9.4-6.9,14.1-10.3c8.9-6.3,18.2-12.2,28.2-16.8c8.1-3.7,16.9-6.6,23.3-12.8
		c2.2-2.1,4-4.6,6.3-6.7c8.2-7.4,20.3-7.6,31.1-10c6.1-1.4,18-10.1,21.1-1.9c3.1,8.1,0.4,17.5,3.9,25.6c1.7,4,5.4,7.7,9.8,7.4
		c2.7-0.1,5.1-1.8,7.5-3.3c23.8-15.1,55.5-17,80.9-4.7c-1.9,9.7,2.3,20.3,10.3,26c5,3.6,11.5,5.7,14.5,11c3.2,5.8,0.9,13.3-3.2,18.6
		c-4.1,5.2-9.8,9.1-14.3,14c-15.1,16.2-15,44.3,0.3,60.3c5.4,5.7,12.2,9.7,19,13.7c11.9,3.8,24.2,6.2,36.6,7
		c1.6,0.1,3.3,0.2,4.5,1.2c0.8,0.6,1.3,1.6,1.8,2.5c5.6,10.3,11.9,20.9,21.7,27.2c2.7,1.8,5.6,3.1,8.3,5c3.6,2.5,6.5,5.7,9.4,8.9
		c10.7,11.6,21.3,23.3,32,34.9c2.7,3,5.5,6,7.3,9.5c4.3,8.2,3.5,18.1,3.3,27.4c-0.2,11.2,0.7,22.5,2.7,33.5
		C848.1,902.4,848.5,904.1,848.3,905.7"/>
	<path id="XMLID_122_" class="st1" d="M753.7,936.1c6.4,0.9,13.1-1.9,17.3-6.8c4.2-4.9,6.1-11.6,5.7-18c-0.1-1.5-0.3-3.1-1.1-4.4
		c-3.5-6-13.9-3-18.3-8.4c-1.6-1.9-1.9-4.6-3.3-6.7c-2.5-4.1-7.9-5.3-12.7-5.5c-4.8-0.2-9.8,0.2-14.1-2l-0.4,0.4
		c-6.6-2.1-13.9-2-20.4,0.2c-1.9,0.6-3.8,1.5-4.7,3.2c-0.7,1.3-0.8,3-0.8,4.5c0,2,0,4,0,6.1c0,1.2,0,2.4,0.5,3.5
		c0.6,1.3,1.7,2.2,2.9,3.1c3.2,2.5,6.6,5.1,10.6,6c3.6,0.8,7.7,0.3,10.7,2.5c2.6,1.9,3.5,5.2,5.2,7.8c2.2,3.4,5.7,5.8,9.1,8
		C744.2,932.4,748.6,935.3,753.7,936.1"/>
	<path id="XMLID_123_" class="st1" d="M1103.1,515.3c-1.2-0.4-2.4-0.4-3.6-0.5c-4.1-0.2-8.3-0.5-12.4-0.7c-1.4-0.1-2.8-0.2-4.1,0.2
		c-2.4,0.6-4.3,2.5-6,4.3c-1.8,1.8-3.5,3.7-5.3,5.5c-0.4,0.5-1.8,0.8-1.8,0.8c-1.7,0.8-2.2,3.2-1.4,4.9c0.8,1.7,2.7,2.7,4.6,3
		c1.9,0.3,3.8-0.1,5.6-0.5c6.4-1.4,12.9-3.4,19.5-2.9c2.5,0.2,5.2,0.7,7.3-0.7c0.7-0.4,1.3-1.1,1.7-1.7c1.3-2,1.7-4.6,0.9-6.9
		C1107.3,517.9,1105.4,516,1103.1,515.3"/>
	<path id="XMLID_124_" class="st1" d="M1137.1,523c-0.7-0.9-1.9-1.2-3-1.4c-1.8-0.4-3.6-0.8-5.5-1.1c-1.4-0.2-2.9-0.4-4,0.3
		c-1.3,0.8-0.7,4.8-0.7,4.8c0.1,1.7,0.2,3.6,1.5,4.8c0.3,0.3,0.8,0.6,1.2,0.8c2.3,1.3,5.1,1.7,7.8,1.2c1.2-0.2,2.3-0.7,3.1-1.6
		c1.3-1.6,0.9-3.9,0.4-6C1137.7,524.2,1137.5,523.5,1137.1,523"/>
	<path id="XMLID_125_" class="st1" d="M1070.4,544.8c-0.6-0.3-1.2-0.7-1.9-0.9c-0.7-0.2-1.5-0.2-2.2-0.2c-2.4,0-4.8,0.1-7.3,0.1
		l-2.5,1c-0.6,1.1-1.1,2.4-1,3.7c0.1,1.3,0.7,2.6,1.7,3.4c1,0.6,2.2,0.8,3.3,0.8c2.7,0.2,5.4,0.1,8.2,0.1c1,0,2.1,0,3.1-0.4
		c1-0.3,1.9-1,2.3-2c0.4-1.1,0-2.5-0.8-3.4C1072.5,546,1071.4,545.4,1070.4,544.8"/>
	<path id="XMLID_126_" class="st1" d="M1468.8,943.6c0-1.6,0-3.1-0.1-4.7c0-0.4,0-0.8-0.2-1.1c-0.3-0.4-0.8-0.6-1.3-0.7
		c-4-1-8.1-1.6-12.2-1.8c-1.8-0.1-3.6-0.1-5.2,0.6c-2.2,1-3.7,3.3-4.3,5.7c-0.6,2.4-0.5,4.9-0.4,7.3c0,0.8,0.1,1.7,0.3,2.5
		c0.4,1.3,1.3,2.4,2.2,3.4c0.7,0.8,1.4,1.6,2.4,1.8c0.5,0.1,0.9,0.1,1.4,0.1c0.3,0,0.7,0,1,0c1.5,0.2,2.7,1.2,4.1,1.5
		c1.7,0.5,3.7-0.1,4.9-1.5l-0.1-0.2c2.1-2.9,5.7-4.6,7.1-7.9C1468.8,947.2,1468.8,945.3,1468.8,943.6"/>
	<path id="XMLID_127_" class="st1" d="M1596.4,984.2c4.5,0.5,8.4,3.1,12.4,5c4.1,2,8.9,3.3,13,1.4c3.9-1.9,5.9-6.8,4.6-10.8
		c-1-3.1-3.6-5.3-6.1-7.4c-2.1-1.8-4.3-3.6-6.4-5.4c-1.6-1.4-3.3-2.8-5.2-3.6c-2.2-0.9-4.6-1-7-1.4c-6.9-1.2-13.3-5.1-17.4-10.7
		c-1.4-1.9-2.6-4-4.6-5.1c-1.2-0.7-2.6-1-4-1c-3.3-2-7.5-2.8-11.4-2.8c-16.2,0.2-30.1,11.8-46,14.6c-5.8,1-11.8,0.8-17.6,1.8
		c-14.3,2.5-26.9,12.9-32.1,26.5l-0.4,1.3c-3.8,1.9,0.5,7.4,4.4,8.8c15.7,5.8,32.3,9,49,9.5c8.9,0.3,18.1-0.3,26.2-4
		c5.4-2.5,9.9-6.1,14.1-10.4c3.1,1.8,6.3,3.8,9.8,3.3c1.5-0.2,2.8-1,4.1-1.7C1582.3,988.3,1589,983.4,1596.4,984.2"/>
	<path id="XMLID_128_" class="st1" d="M1638.6,1041.3c3.2-3.7,6.4-8.3,5-13c-1.1-3.7-4.9-6-8.6-6.7c-3.8-0.7-19.3,0.3-22.7-1.6
		c-4.2-2.3-6.9-7.2-11.5-8.2c-3.1-0.7-6.2,0.6-9.1,1.9c-2.1,0.9-4.5,2.3-4.5,4.6l1.6,1.8c-1.4,4,0.9,8.4,3.9,11.3
		c3.1,2.9,6.9,4.9,9.9,7.9c3.7,3.6,6,8.4,7.9,13.2c0.8,2,1.6,4.2,3.3,5.6c1,0.9,2.3,1.4,3.6,1.8c6.8,2.4,15.2,2.8,20.6-2.1
		c0.6-0.5,1.1-1.1,1.3-1.8c0.6-2.2-1.8-3.9-3.7-5.1c-1.9-1.2-3.9-3.8-2.3-5.4C1635.4,1044.8,1637.1,1043,1638.6,1041.3"/>
	<path id="XMLID_129_" class="st1" d="M1682.8,1029.4c-1.5-1.9-2.9-3.8-4.4-5.7c-0.5-0.7-1-1.3-1.7-1.8c-0.8-0.5-1.9-0.6-2.9-0.6
		c-2.1-0.1-4.2-0.1-6.3,0.1c-0.9,0.1-1.8,0.1-2.6,0.4c-3.3,1.1-4.8,5-5.8,8.3l1.1,1.6c1.7,3.4,4.6,6.1,8.2,7.1
		c1.9,0.5,3.9,0.6,5.9,0.6c2.4,0,4.9-0.1,7-1.2c2.1-1.1,3.8-3.5,3.2-5.8C1684.3,1031.3,1683.6,1030.4,1682.8,1029.4"/>
	<path id="XMLID_160_" class="st2" d="M1690.7,874.1c0.1,0.2,0.3,0.4,0.4,0.6c43.3,62.9,78.7,131.6,104.7,204.8
		c-26-73.2-61.4-141.9-104.7-204.8C1691,874.5,1690.9,874.3,1690.7,874.1 M1681.1,849.7c0.7,0.6,1.3,1.3,1.9,2l0.1,0.2l-0.1-0.2
		C1682.4,851.1,1681.7,850.4,1681.1,849.7 M1681,849.7L1681,849.7L1681,849.7 M1660.4,832.7L1660.4,832.7c1.2,1.1,2.4,2.2,3.6,3.2
		c3.2,2.7,6.7,5.2,10,7.8c-3.3-2.6-6.8-5-10-7.8C1662.7,834.9,1661.5,833.8,1660.4,832.7 M1641.1,808.8c6.2,7.5,12.4,15.1,18.4,22.7
		C1653.5,823.9,1647.4,816.3,1641.1,808.8L1641.1,808.8 M1614.4,771.1c2.3,2.6,4.5,5.3,6.6,8c2.8,3.6,5.5,7.4,8,11.2
		c-2.6-3.8-5.2-7.6-8-11.2C1618.9,776.4,1616.7,773.7,1614.4,771.1 M1575.6,734.8c0.8,0.7,1.6,1.4,2.4,2.1
		c4.3,3.7,8.6,7.4,12.9,11.1c-4.3-3.8-8.6-7.5-12.9-11.1C1577.2,736.2,1576.4,735.5,1575.6,734.8 M1516.3,684.4
		c2.7,2.8,5.3,5.6,8.1,8.3l0,0C1521.6,690,1519,687.2,1516.3,684.4 M1488,664.2c0.7,0.5,1.4,0.9,2.1,1.3
		C1489.4,665.1,1488.7,664.6,1488,664.2 M1462.4,637.1c7.7,5.5,14.4,12.3,19.7,20c1.5,2.2,3,4.5,5,6.2c-2-1.7-3.4-4-5-6.2
		C1476.7,649.4,1470,642.6,1462.4,637.1 M1452.8,631.2c1.1,0.6,2.2,1.2,3.2,1.8c0.2,0.1,0.5,0.3,0.7,0.4c-0.2-0.1-0.5-0.3-0.7-0.4
		C1455,632.4,1453.9,631.8,1452.8,631.2 M1431.7,618.3c1,0.8,2,1.6,3,2.3C1433.7,619.9,1432.7,619.1,1431.7,618.3 M1413.2,608.7
		c0.2,0.1,0.4,0.1,0.6,0.2c1.8,0.6,3.6,1.1,5.4,1.8c-1.8-0.7-3.6-1.2-5.4-1.8C1413.6,608.8,1413.4,608.7,1413.2,608.7 M1337.5,571.4
		c1.8,1.2,3.4,2.5,4.9,3.5c9.7,6.8,20.6,11.9,32.1,14.9c7.1,4.8,14.7,9,22.5,12.5c-7.8-3.5-15.4-7.7-22.5-12.5
		c-11.5-3-22.4-8.1-32.1-14.9C1341,573.9,1339.3,572.7,1337.5,571.4 M1099.2,500.9c0.2,0,0.3,0.1,0.5,0.1
		c77,12.2,150.8,34.3,219.8,65c0.1,0,0.2,0.1,0.3,0.1c-0.1,0-0.2-0.1-0.3-0.1c-69.1-30.7-142.8-52.8-219.8-65
		C1099.6,501,1099.4,500.9,1099.2,500.9 M1098.9,500.9L1098.9,500.9l0.1,0L1098.9,500.9 M1098.9,500.3c0,0.1,0.1,0.3,0,0.4
		C1098.9,500.6,1098.9,500.5,1098.9,500.3 M828.7,499.7l-0.3,0L828.7,499.7 M834.7,498.2c-0.9,0.2-1.9,0.3-2.8,0.5
		c-0.3,0-0.5,0.1-0.8,0.1c0.2,0,0.5-0.1,0.8-0.1C832.8,498.6,833.7,498.4,834.7,498.2 M1089.3,497.2c1,0.2,2,0.4,3.1,0.6
		c1.4,0.3,4.9,0.6,6.2,2c-1.2-1.3-4.8-1.7-6.2-2C1091.3,497.6,1090.3,497.4,1089.3,497.2 M1063.6,495c1.2,0.2,2.3,0.2,3.5,0.2
		c0.9,0,1.9,0,2.8-0.1c-0.9,0-1.9,0.1-2.8,0.1C1066,495.3,1064.8,495.2,1063.6,495 M861.2,494.1c-3.9,0.5-7.7,1-11.5,1.6
		C853.5,495.1,857.3,494.6,861.2,494.1 M871.8,493.2c-0.8,0.3-1.1,0.6-2.2,0.6l-0.1,0c-1.2,0-2.4-0.1-3.6-0.1c-0.2,0-0.4,0-0.6,0
		c0.2,0,0.4,0,0.6,0c1.2,0,2.3,0.1,3.6,0.1l0.1,0C870.7,493.8,871,493.5,871.8,493.2 M1055.1,493.1c1.2,0.2,2.4,0.5,3.6,0.8
		c1.5,0.4,2.9,0.9,4.4,1.1c-1.5-0.3-2.9-0.8-4.4-1.1C1057.5,493.5,1056.3,493.3,1055.1,493.1 M872.9,492.9c-0.1,0-0.3,0-0.4,0.1
		l-0.1,0l0.1,0C872.6,493,872.7,492.9,872.9,492.9 M872.9,492.9L872.9,492.9L872.9,492.9 M892,490.7c-1.3,0.2-2.6,0.5-3.9,0.9
		c-2,0.6-4.1,1.6-6.2,1.8c-0.4,0.1-0.9,0.1-1.3,0.1c-1.4,0-3-0.2-4.4-0.3c-0.6,0-1.2-0.1-1.7-0.2c0.6,0.1,1.2,0.2,1.8,0.2
		c1.4,0.1,2.9,0.3,4.3,0.3c0.5,0,0.9,0,1.3-0.1c2.1-0.3,4.2-1.3,6.2-1.8C889.3,491.2,890.6,490.9,892,490.7 M1016.9,489.4
		c1.8,0,3.7,0,5.5,0c3.9,0,7.9,0.3,11.8,0.7c-3.9-0.4-7.8-0.7-11.8-0.7C1020.6,489.4,1018.7,489.4,1016.9,489.4 M979.5,488
		c4,0.6,8,1.3,12.1,1.3c0.9,0,1.8,0,2.8,0c-0.9,0-1.8,0-2.8,0C987.5,489.3,983.5,488.6,979.5,488 M962.8,487.4
		c-1.2,0.1-2.4,0.1-3.6,0.2c-1.3,0.1-2.6,0.1-3.9,0.2c-16.9,0.9-33.9,1.1-50.8,1.8c-0.3,0-0.6,0-0.9,0c0.3,0,0.6,0,0.9,0
		c17-0.7,33.9-0.9,50.8-1.8c1.3-0.1,2.6-0.1,3.9-0.2C960.4,487.5,961.6,487.5,962.8,487.4"/>
	<path id="XMLID_172_" class="st3" d="M1674.3,1039.5c-2,0-4,0-5.9-0.6c-3.6-1-6.6-3.8-8.2-7.1l-1.1-1.6c1-3.4,2.5-7.2,5.8-8.3
		c0.8-0.3,1.7-0.4,2.6-0.4c1.3-0.1,2.5-0.1,3.8-0.1c0.8,0,1.7,0,2.5,0.1c1,0,2,0.1,2.9,0.6c0.7,0.4,1.2,1.1,1.7,1.8
		c1.5,1.9,2.9,3.8,4.4,5.7c0.7,0.9,1.5,1.9,1.7,3.1c0.5,2.3-1.1,4.7-3.2,5.8C1679.2,1039.4,1676.7,1039.5,1674.3,1039.5
		L1674.3,1039.5 M1626.9,1061.6c-3.2,0-6.5-0.7-9.5-1.7c-1.3-0.4-2.6-1-3.6-1.8c-1.7-1.4-2.5-3.6-3.3-5.6c-1.9-4.8-4.2-9.6-7.9-13.2
		c-3-2.9-6.9-4.9-9.9-7.9c-3.1-2.9-5.3-7.3-3.9-11.3l-1.6-1.8c0-2.3,2.4-3.7,4.5-4.6c2.4-1,4.9-2,7.4-2c0.6,0,1.2,0.1,1.7,0.2
		c4.7,1,7.4,5.8,11.5,8.2c3.3,1.9,18.9,0.8,22.7,1.6c3.8,0.7,7.5,3,8.6,6.7c1.4,4.6-1.8,9.3-5,13c-1.5,1.7-3.2,3.5-5.4,4.2
		c-1.5,1.7,0.4,4.2,2.3,5.4c1.9,1.2,4.3,2.9,3.7,5.1c-0.2,0.7-0.7,1.3-1.3,1.8C1634.9,1060.6,1631,1061.6,1626.9,1061.6
		 M1643.5,864.7c-1,0-2.1,0.1-3.1,0.2c-6.6,0.8-13.2,5.7-13.6,12.3c-0.2,4.2,1.9,8.5,0.5,12.4c-1.1,2.9-4,4.8-7,5.7
		c-2.2,0.7-4.4,1-6.6,1c-8.3,0-16.6-4.4-23.4-9.6c-8.6-6.6-16.4-14.7-26.7-18.3c-5.1-1.8-10.5-2.3-15.9-2.3c-4,0-8,0.3-11.9,0.6
		c-16,1.2-32.1,2.4-48.2,3.6c-5.2,0.4-10.7,0.8-15.3,3.4c-10.7,5.9-14.4,21.4-26.1,25c-1.8,0.5-3.7,0.8-5.7,0.8
		c7.7,12,15.1,24.3,22.3,36.7c1.5,0.3,2.9,0.6,4.3,0.9c0.5,0.1,1.1,0.3,1.3,0.7c0.2,0.3,0.2,0.7,0.2,1.1c0,1.6,0,3.1,0.1,4.7
		c0,1,0,2-0.1,3l0,0c4,7.3,8,14.6,11.8,22c5.7-4.9,12.7-8.4,20.2-9.7c5.8-1,11.8-0.8,17.6-1.8c15.9-2.8,29.9-14.4,46-14.6
		c0.1,0,0.2,0,0.3,0c3.8,0,7.9,0.8,11.1,2.8c1.4,0,2.8,0.3,4,1c2,1.2,3.2,3.3,4.6,5.1c4.1,5.6,10.5,9.6,17.4,10.7
		c2.3,0.4,4.8,0.5,7,1.4c2,0.8,3.6,2.2,5.2,3.6c2.1,1.8,4.3,3.6,6.4,5.4c2.5,2.1,5,4.3,6.1,7.4c1.4,4.1-0.7,9-4.6,10.8
		c-1.4,0.7-2.9,1-4.4,1c-2.9,0-5.9-1-8.6-2.3c-4.1-2-8-4.5-12.4-5c-0.6-0.1-1.1-0.1-1.7-0.1c-6.7,0-12.9,4.5-18.8,7.9
		c-1.3,0.7-2.7,1.5-4.1,1.7c-0.4,0.1-0.8,0.1-1.2,0.1c-3,0-5.9-1.8-8.6-3.4c-4.1,4.2-8.7,7.9-14.1,10.4c-7,3.2-14.8,4.1-22.6,4.1
		c-1.2,0-2.4,0-3.6-0.1c-8.3-0.2-16.5-1.2-24.6-2.7l0,0c11.8,25.2,22.4,51,31.8,77.4h267c-26-73.2-61.4-141.9-104.7-204.8
		c-0.1-0.2-0.3-0.4-0.4-0.6c-0.1-0.2-0.3-0.4-0.4-0.5l-0.2,0.2c-0.2,0.2-0.5,0.4-0.8,0.6c-0.4,0.2-0.9,0.3-1.7,0.3
		c-3.6,0-10.7-2.5-12.9-2.9c-5-1.1-10-2.3-14.9-3.7C1654.6,866.4,1649,864.7,1643.5,864.7 M1641.1,808.8
		c5.8,8.6,11.8,16.8,19.3,23.9l0,0l0,0c-0.3-0.4-0.6-0.7-0.9-1.1C1653.5,823.9,1647.4,816.3,1641.1,808.8L1641.1,808.8
		 M1524.4,692.7c2.7,2.7,5.6,5.3,8.8,7.7c1,0.7,1.9,1.4,2.9,2.1c-3.8-3.3-7.7-6.5-11.6-9.7L1524.4,692.7L1524.4,692.7 M1188.9,643.1
		c5.6,4,11.6,7.6,17.8,10.7c28.9,20.6,56.5,42.8,82.7,66.6c-0.1-8.5-0.2-17-0.4-25.5c-0.1-5.3-0.3-11.1-4-15
		c-3.2-3.5-8.1-4.5-12.8-5.4C1242.9,668.9,1212.9,660.3,1188.9,643.1 M1064.9,552.8c-1.5,0-2.9,0-4.4-0.1c-1.2-0.1-2.4-0.2-3.3-0.8
		c-1.1-0.7-1.7-2-1.7-3.4c-0.1-1.3,0.4-2.6,1-3.7l2.5-1c2.4,0,4.8-0.1,7.3-0.1c0.1,0,0.3,0,0.4,0c0.6,0,1.2,0,1.8,0.2
		c0.7,0.2,1.3,0.5,1.9,0.9c1.1,0.6,2.1,1.3,2.9,2.2c0.8,1,1.2,2.3,0.8,3.4c-0.4,1-1.3,1.6-2.3,2c-1,0.3-2.1,0.3-3.1,0.4
		C1067.4,552.8,1066.1,552.8,1064.9,552.8 M1132.1,532.6c-1.9,0-3.9-0.5-5.6-1.4c-0.4-0.2-0.8-0.5-1.2-0.8c-1.2-1.2-1.4-3.1-1.5-4.8
		c0,0-0.5-3.9,0.7-4.8c0.6-0.4,1.3-0.5,2-0.5c0.7,0,1.3,0.1,2,0.2c1.8,0.3,3.6,0.7,5.5,1.1c1.1,0.2,2.3,0.6,3,1.4
		c0.4,0.5,0.6,1.2,0.7,1.8c0.5,2,0.9,4.4-0.4,6c-0.8,0.9-1.9,1.4-3.1,1.6C1133.6,532.5,1132.9,532.6,1132.1,532.6 M1074.5,532.9
		c-0.5,0-0.9,0-1.4-0.1c-1.9-0.3-3.7-1.3-4.6-3c-0.8-1.7-0.3-4.1,1.4-4.9c0,0,1.4-0.3,1.8-0.8c1.8-1.8,3.5-3.7,5.3-5.5
		c1.7-1.8,3.6-3.7,6-4.3c0.8-0.2,1.5-0.3,2.3-0.3c0.6,0,1.2,0,1.8,0.1c4.1,0.2,8.3,0.5,12.4,0.7c1.2,0.1,2.4,0.1,3.6,0.5
		c2.3,0.7,4.2,2.6,4.9,4.8c0.8,2.3,0.4,4.9-0.9,6.9c-0.5,0.7-1,1.3-1.7,1.7c-1.1,0.7-2.4,0.9-3.8,0.9c-1.2,0-2.4-0.1-3.5-0.2
		c-0.7,0-1.4-0.1-2-0.1c-5.9,0-11.6,1.7-17.4,3C1077.3,532.6,1075.9,532.9,1074.5,532.9 M1098.9,500.9c-0.4,1.4-4.2,2-5.4,2.4
		c-5.2,1.6-10.5,2.5-15.9,2.9c-7,0.4-14.2-0.2-20.9,1.9c-15.9,4.9-24.2,22.9-39.2,30c-5.1,2.4-10.4,3.4-15.7,3.4
		c-18.1,0-37.3-11.5-55.8-16.7c-3.8-1.1-8.1-1.6-12.8-1.7c41.1,11.5,81,25.9,119.4,43c43.8,19.4,85.7,42.3,125.4,68.3
		c-1.6-1.5-3.2-3-4.7-4.5c-1.2-1.3-2.5-2.9-2.1-4.6c0.2-0.8,0.8-1.4,1.3-2c16.5-17.5,45.1-14.6,67-24.6c6-2.8,11.6-6.6,17.9-8.7
		c4.5-1.5,9.2-2.1,13.9-2.1c13.3,0,27.1,4.5,40.7,4.5l0.2,0c2,0,4.1-0.2,5.8-1.2c2.3-1.4,3.4-4,4.1-6.6c1.6-6.5-0.2-12.2-2.1-18.3
		l0.1,0l-0.2-0.1c-0.1,0-0.2-0.1-0.3-0.1c-69.1-30.7-142.8-52.8-219.8-65c-0.2,0-0.3-0.1-0.5-0.1l-0.2,0L1098.9,500.9 M828.8,499.7
		L828.8,499.7l-0.4,0c-0.7,0.1-1.3,0.2-1.9,0.3c0.6,0.1,1.2,0.2,1.9,0.3C828.5,500.1,828.6,499.9,828.8,499.7"/>
	<path id="XMLID_173_" class="st4" d="M969.1,487.2c-2.1,0-4.1,0.1-6.2,0.2c-1.2,0.1-2.4,0.1-3.6,0.2c-1.3,0.1-2.6,0.1-3.9,0.2
		c-16.9,0.9-33.9,1.1-50.8,1.8c-0.3,0-0.6,0-0.9,0c-3.9,0.2-7.8,0.4-11.7,1c-1.3,0.2-2.6,0.5-3.9,0.9c-2,0.6-4.1,1.6-6.2,1.8
		c-0.4,0.1-0.9,0.1-1.3,0.1c-1.4,0-3-0.2-4.3-0.3c-0.6,0-1.2-0.2-1.8-0.2c-0.3,0-0.6,0-0.8,0c-0.2,0-0.5,0-0.7,0l0,0l0,0
		c-0.1,0-0.3,0-0.4,0.1l-0.1,0c-0.2,0.1-0.4,0.1-0.6,0.2c-0.8,0.3-1.1,0.6-2.2,0.6l-0.1,0c-1.3,0-2.4-0.1-3.6-0.1
		c-0.2,0-0.4,0-0.6,0c-0.4,0-0.7,0-1.1,0.1c-1,0.1-2,0.2-3,0.4c-3.8,0.5-7.7,1-11.5,1.6c-0.5,0.1-1,0.2-1.5,0.2
		c-4.5,0.8-9,1.5-13.5,2.3c-0.9,0.2-1.9,0.3-2.8,0.5c-0.3,0-0.5,0.1-0.8,0.1c-1.1,0.2-1.8,0.3-2.3,0.8l0,0c-0.2,0.2-0.3,0.4-0.4,0.6
		l0,0c1.5,0.2,2.9,0.5,4.4,0.7c34.1,5.4,67.7,12.8,100.4,22l0,0c4.7,0.2,9.1,0.7,12.8,1.7c18.5,5.2,37.7,16.7,55.8,16.7
		c5.3,0,10.6-1,15.7-3.4c15-7.1,23.3-25.1,39.2-30c6.7-2.1,13.9-1.4,20.9-1.9c5.4-0.3,10.7-1.3,15.9-2.9c1.2-0.4,5-1,5.4-2.4l0,0
		l0,0l0,0l0-0.1c0-0.1,0-0.2,0-0.4l0-0.1c-0.1-0.2-0.2-0.4-0.3-0.5c-1.2-1.3-4.8-1.7-6.2-2c-1-0.2-2-0.4-3.1-0.6
		c-5.6-1.1-11.3-2-17.1-2c-0.2,0-0.4,0-0.7,0c-0.5,0-1.1,0-1.6,0c-0.9,0-1.9,0.1-2.8,0.1c-1.2,0-2.4-0.1-3.5-0.2l-0.2,0
		c-0.1,0-0.2,0-0.3-0.1c-1.5-0.3-2.9-0.8-4.4-1.1c-1.2-0.3-2.4-0.5-3.6-0.8c-1-0.2-2-0.3-3-0.5c-6-1-11.9-1.9-17.9-2.5
		c-3.9-0.4-7.8-0.7-11.8-0.7c-1.8,0-3.7,0-5.5,0c-1.2,0-2.4,0-3.6,0c-1.1,0-2.2,0-3.3,0c-0.9,0-1.9,0-2.8,0c-4.3,0-8.6,0-12.8,0
		c-0.9,0-1.8,0-2.8,0c-4.1,0-8.1-0.7-12.1-1.3c-0.5-0.1-1.1-0.2-1.6-0.2C974.9,487.4,972,487.2,969.1,487.2"/>
	<path id="XMLID_174_" class="st4" d="M1323.7,565.6c-1.2,0-2.4,0.2-3.6,0.6l0,0l-0.1,0c1.9,6.1,3.7,11.8,2.1,18.3
		c-0.6,2.6-1.8,5.2-4.1,6.6c-1.7,1-3.8,1.2-5.8,1.2l-0.2,0c-13.6,0-27.4-4.5-40.7-4.5c-4.7,0-9.3,0.6-13.9,2.1
		c-6.3,2.1-11.9,5.9-17.9,8.7c-21.9,10.1-50.4,7.1-67,24.6c-0.6,0.6-1.1,1.2-1.3,2c-0.4,1.7,0.9,3.3,2.1,4.6
		c1.5,1.6,3.1,3.1,4.7,4.5l0.1,0c3.5,3.2,7.1,6.1,10.9,8.8c24,17.2,54,25.8,83.4,31.4c4.6,0.9,9.6,1.9,12.8,5.4
		c3.6,3.9,3.9,9.7,4,15c0.1,8.5,0.2,17,0.4,25.5c50.6,46,95.9,97.8,134.8,154.3c5.6,8.1,11.1,16.4,16.5,24.8l0,0
		c1.9-0.1,3.8-0.3,5.7-0.8c11.7-3.5,15.4-19.1,26.1-25c4.6-2.5,10-3,15.3-3.4c16-1.2,32.1-2.4,48.2-3.6c3.9-0.3,7.9-0.6,11.9-0.6
		c5.4,0,10.8,0.5,15.9,2.3c10.2,3.6,18,11.7,26.7,18.3c6.8,5.2,15.1,9.6,23.4,9.6c2.2,0,4.4-0.3,6.6-1c3-0.9,5.9-2.8,7-5.7
		c1.5-3.9-0.7-8.2-0.5-12.4c0.4-6.6,7-11.5,13.6-12.3c1-0.1,2.1-0.2,3.1-0.2c5.5,0,11.1,1.8,16.4,3.3c4.9,1.4,9.9,2.7,14.9,3.7
		c2.2,0.5,9.3,2.9,12.9,2.9c0.7,0,1.3-0.1,1.7-0.3c0.3-0.2,0.5-0.4,0.8-0.6l0.2-0.2l0,0c4.2-4.8-4.2-18.2-7.2-21.7l-0.1-0.2
		c-0.6-0.7-1.3-1.4-1.9-2l0,0l0,0c-2.2-2.2-4.6-4.1-7.1-6c-3.3-2.6-6.8-5-10-7.8c-1.2-1-2.4-2.1-3.5-3.2
		c-7.4-7.1-13.5-15.3-19.3-23.9l0,0c-4.1-6.1-8-12.3-12.1-18.5c-2.6-3.8-5.2-7.6-8-11.2c-2.1-2.7-4.3-5.4-6.6-8
		c-7.3-8.2-15.3-15.8-23.5-23.1c-4.3-3.8-8.6-7.5-12.9-11.1c-0.8-0.7-1.6-1.4-2.4-2.1c-13-11.1-25.9-22-39.5-32.3l0,0l0,0
		c-0.9-0.7-1.9-1.4-2.9-2.1c-3.2-2.4-6.1-5-8.8-7.7c-2.8-2.7-5.4-5.6-8.1-8.3c-6.4-6.7-13-13.1-22.2-17.2c-1.3-0.6-2.6-1.1-3.9-1.8
		c-0.7-0.4-1.5-0.8-2.1-1.3c-0.2-0.1-0.3-0.2-0.5-0.4c-0.2-0.1-0.3-0.3-0.5-0.4c-2-1.7-3.4-4-5-6.2c-5.4-7.7-12.1-14.6-19.7-20
		c-1.8-1.3-3.7-2.5-5.6-3.7c-0.2-0.1-0.5-0.3-0.7-0.4c-1.1-0.6-2.1-1.2-3.2-1.8c-5.1-2.7-10.3-5.2-15.1-8.4c-1-0.7-2-1.4-3.1-2.2
		c-1-0.8-2-1.5-3-2.3c-3.3-2.6-6.7-5.1-10.5-6.8c-0.7-0.3-1.3-0.6-2-0.8c-1.8-0.7-3.6-1.2-5.4-1.8c-0.2-0.1-0.4-0.1-0.6-0.2
		c-5.5-1.8-10.9-3.9-16.2-6.3c-7.8-3.5-15.4-7.7-22.5-12.5c-11.5-3-22.4-8.1-32.1-14.9c-1.5-1-3.1-2.3-4.9-3.5
		C1333.3,568.5,1328.5,565.6,1323.7,565.6"/>
	<path id="XMLID_175_" class="st4" d="M1085.3,514c-0.8,0-1.6,0.1-2.3,0.3c-2.4,0.6-4.3,2.5-6,4.3c-1.8,1.8-3.5,3.7-5.3,5.5
		c-0.4,0.5-1.8,0.8-1.8,0.8c-1.7,0.8-2.2,3.2-1.4,4.9c0.8,1.7,2.7,2.7,4.6,3c0.5,0.1,0.9,0.1,1.4,0.1c1.4,0,2.8-0.3,4.2-0.6
		c5.8-1.2,11.5-3,17.4-3c0.7,0,1.4,0,2,0.1c1.2,0.1,2.4,0.2,3.5,0.2c1.3,0,2.6-0.2,3.8-0.9c0.7-0.4,1.3-1.1,1.7-1.7
		c1.3-2,1.7-4.6,0.9-6.9c-0.8-2.3-2.7-4.1-4.9-4.8c-1.2-0.4-2.4-0.4-3.6-0.5c-4.1-0.2-8.3-0.5-12.4-0.7
		C1086.5,514.1,1085.9,514,1085.3,514"/>
	<path id="XMLID_176_" class="st4" d="M1126.7,520.2c-0.7,0-1.4,0.1-2,0.5c-1.3,0.8-0.7,4.8-0.7,4.8c0.1,1.7,0.2,3.6,1.5,4.8
		c0.3,0.3,0.8,0.6,1.2,0.8c1.7,0.9,3.6,1.4,5.6,1.4c0.7,0,1.5-0.1,2.2-0.2c1.2-0.2,2.3-0.7,3.1-1.6c1.3-1.6,0.9-3.9,0.4-6
		c-0.2-0.6-0.3-1.3-0.7-1.8c-0.7-0.9-1.9-1.2-3-1.4c-1.8-0.4-3.6-0.8-5.5-1.1C1128,520.3,1127.3,520.2,1126.7,520.2"/>
	<path id="XMLID_177_" class="st4" d="M1066.7,543.7c-0.1,0-0.3,0-0.4,0c-2.4,0-4.8,0.1-7.3,0.1l-2.5,1c-0.6,1.1-1.1,2.4-1,3.7
		c0.1,1.3,0.7,2.6,1.7,3.4c1,0.6,2.2,0.8,3.3,0.8c1.5,0.1,2.9,0.1,4.4,0.1c1.3,0,2.5,0,3.8,0c1,0,2.1,0,3.1-0.4c1-0.3,1.9-1,2.3-2
		c0.4-1.1,0-2.5-0.8-3.4c-0.8-1-1.9-1.6-2.9-2.2c-0.6-0.3-1.2-0.7-1.9-0.9C1067.9,543.7,1067.3,543.7,1066.7,543.7"/>
	<path id="XMLID_178_" class="st4" d="M1462.8,936.2L1462.8,936.2c2,3.4,3.9,6.9,5.9,10.4c0.1-1,0.1-2,0.1-3c0-1.6,0-3.1-0.1-4.7
		c0-0.4,0-0.8-0.2-1.1c-0.3-0.4-0.8-0.6-1.3-0.7C1465.8,936.7,1464.3,936.4,1462.8,936.2"/>
	<path id="XMLID_179_" class="st4" d="M1564.7,942.4c-0.1,0-0.2,0-0.3,0c-16.2,0.2-30.1,11.8-46,14.6c-5.8,1-11.8,0.8-17.6,1.8
		c-7.5,1.3-14.5,4.8-20.2,9.7l0,0c5.7,11.1,11.3,22.3,16.6,33.6c8.1,1.6,16.3,2.5,24.6,2.7c1.2,0,2.4,0.1,3.6,0.1
		c7.7,0,15.6-0.9,22.6-4.1c5.4-2.5,9.9-6.1,14.1-10.4c2.7,1.6,5.6,3.4,8.6,3.4c0.4,0,0.8,0,1.2-0.1c1.5-0.2,2.8-1,4.1-1.7
		c6-3.4,12.1-7.9,18.8-7.9c0.6,0,1.1,0,1.7,0.1c4.5,0.5,8.4,3.1,12.4,5c2.7,1.3,5.7,2.3,8.6,2.3c1.5,0,3-0.3,4.4-1
		c3.9-1.9,5.9-6.8,4.6-10.8c-1-3.1-3.6-5.3-6.1-7.4c-2.1-1.8-4.3-3.6-6.4-5.4c-1.6-1.4-3.3-2.8-5.2-3.6c-2.2-0.9-4.6-1-7-1.4
		c-6.9-1.2-13.3-5.1-17.4-10.7c-1.4-1.9-2.6-4-4.6-5.1c-1.2-0.7-2.6-1-4-1C1572.6,943.2,1568.5,942.4,1564.7,942.4"/>
	<path id="XMLID_180_" class="st4" d="M1599,1011.7c-2.5,0-5,1-7.4,2c-2.1,0.9-4.5,2.3-4.5,4.6l1.6,1.8c-1.4,4,0.9,8.4,3.9,11.3
		c3.1,2.9,6.9,4.9,9.9,7.9c3.7,3.6,6,8.4,7.9,13.2c0.8,2,1.6,4.2,3.3,5.6c1,0.9,2.3,1.4,3.6,1.8c3,1,6.3,1.7,9.5,1.7
		c4.1,0,8-1.1,11.1-3.8c0.6-0.5,1.1-1.1,1.3-1.8c0.6-2.2-1.8-3.9-3.7-5.1c-1.9-1.2-3.9-3.8-2.3-5.4c2.2-0.7,3.8-2.5,5.4-4.2
		c3.2-3.7,6.4-8.3,5-13c-1.1-3.7-4.9-6-8.6-6.7c-3.8-0.7-19.3,0.3-22.7-1.6c-4.2-2.3-6.9-7.2-11.5-8.2
		C1600.2,1011.8,1599.6,1011.7,1599,1011.7"/>
	<path id="XMLID_181_" class="st4" d="M1671.3,1021.3c-1.3,0-2.5,0-3.8,0.1c-0.9,0.1-1.8,0.1-2.6,0.4c-3.3,1.1-4.8,5-5.8,8.3
		l1.1,1.6c1.7,3.4,4.6,6.1,8.2,7.1c1.9,0.5,3.9,0.6,5.9,0.6h0c2.4,0,4.9-0.1,7-1.2c2.1-1.1,3.8-3.5,3.2-5.8c-0.3-1.1-1-2.1-1.7-3.1
		c-1.5-1.9-2.9-3.8-4.4-5.7c-0.5-0.7-1-1.3-1.7-1.8c-0.8-0.5-1.9-0.6-2.9-0.6C1673,1021.3,1672.2,1021.3,1671.3,1021.3"/>
	<path id="XMLID_205_" class="st5" d="M1528.7,1079.5H124.3c-0.1,0.2-0.1,0.3-0.2,0.5h1404.7
		C1528.8,1079.8,1528.8,1079.7,1528.7,1079.5 M176,959.5L176,959.5l0.1,0.1c0.1,0.1,0.2,0.2,0.3,0.3c0.1,0.1,0.3,0.2,0.4,0.3
		c0,0,0-0.1,0-0.1C176.6,959.9,176.3,959.7,176,959.5 M175.6,958.9c0.1,0.1,0.1,0.2,0.2,0.3C175.7,959.1,175.6,959,175.6,958.9
		 M181.8,945.3c-1,2.5-3.1,4.4-4.7,6.6c0,0.1-0.1,0.1-0.1,0.2c0-0.1,0.1-0.1,0.1-0.2C178.7,949.7,180.8,947.8,181.8,945.3
		 M217.1,881.9c-6.7,9.2-13.3,18.3-20,27.5c-2.7,3.7-5.4,7.4-7.9,11.2c-3.4,5.1-6.7,10.7-6.9,16.8c-0.1,1.6,0.1,3.3,0,4.9
		c0.1-1.6-0.1-3.3,0-4.9c0.2-6.1,3.4-11.7,6.8-16.8c2.5-3.8,5.2-7.5,7.9-11.2C203.8,900.2,210.5,891.1,217.1,881.9 M233,860
		c-0.4,0.6-0.9,1.2-1.3,1.8c-0.5,0.7-1.1,1.5-1.6,2.2c0.5-0.7,1.1-1.5,1.6-2.2C232.1,861.2,232.6,860.6,233,860 M239.7,850.9
		c-0.8,1.1-1.5,2.1-2.3,3.2c-0.4,0.6-0.8,1.2-1.3,1.7c0.4-0.6,0.8-1.2,1.3-1.7C238.1,853,238.9,851.9,239.7,850.9 M270.1,808.7
		c-0.2,0.4-0.4,0.7-0.6,1.1c-0.5,0.8-1,1.7-1.5,2.5c0.5-0.8,1-1.7,1.5-2.5C269.8,809.4,270,809,270.1,808.7 M302.1,775.4
		c-3,2.8-6,5.7-9,8.6c-0.5,0.5-1,0.9-1.5,1.4c0.5-0.5,1-1,1.5-1.4C296.1,781.1,299.1,778.2,302.1,775.4 M322.1,757.5
		c-2.5,2.5-5.2,4.8-7.9,7.2C317,762.4,319.6,760,322.1,757.5 M362.4,715.4c-3.3,2.6-6.7,5.2-10,7.9
		C355.7,720.6,359.1,718.1,362.4,715.4 M394.4,687.2c-0.5,0.3-0.9,0.7-1.4,1c-8.5,6.3-15.5,14-23.3,21c7.8-7,14.8-14.7,23.3-21
		C393.5,687.9,393.9,687.6,394.4,687.2 M459.6,639.1c-2.9,2.1-5.7,4.2-8.6,6.3c-2.3,1.7-4.6,3.4-6.8,5.1c2.3-1.7,4.6-3.4,6.8-5.1
		C453.9,643.3,456.8,641.2,459.6,639.1 M513.1,604.8c-1.2,0.5-2.4,1-3.6,1.6c-9.9,4.5-19.2,10.5-28.2,16.8c-0.5,0.4-1.1,0.8-1.6,1.2
		c0.5-0.4,1.1-0.8,1.6-1.2c8.9-6.3,18.2-12.2,28.2-16.8C510.7,605.9,511.9,605.4,513.1,604.8 M548.7,581.5c-3.5,1.2-6.8,2.9-9.6,5.4
		c-0.9,0.8-1.8,1.7-2.6,2.7c0.8-0.9,1.7-1.8,2.6-2.7C541.9,584.4,545.2,582.7,548.7,581.5 M551.1,580.7
		C551.1,580.7,551.1,580.7,551.1,580.7C551.1,580.7,551.1,580.7,551.1,580.7 M576.9,574.3c-1.8,0.8-3.5,1.6-5,2.1
		c-0.3,0.1-0.6,0.2-0.9,0.3c-0.3,0.1-0.6,0.2-0.8,0.2c-6.2,1.4-12.9,2.1-19.1,3.9c6.1-1.7,12.8-2.4,19.1-3.9
		C572.1,576.4,574.4,575.4,576.9,574.3 M587.9,571.6C587.9,571.6,587.9,571.7,587.9,571.6L587.9,571.6
		C587.8,571.7,587.9,571.6,587.9,571.6 M587.5,571.6L587.5,571.6C587.5,571.6,587.5,571.6,587.5,571.6
		C587.5,571.6,587.5,571.6,587.5,571.6 M738.4,518c-51.6,13.3-101.3,31-148.8,52.9c0,0,0,0-0.1,0c0,0,0,0,0.1,0
		C637.1,549,686.8,531.2,738.4,518 M738.8,517.9c-0.1,0-0.2,0-0.3,0.1C738.6,517.9,738.7,517.9,738.8,517.9 M739.2,517.8
		C739.2,517.8,739.1,517.8,739.2,517.8C739.1,517.8,739.2,517.8,739.2,517.8 M828.4,499.7C828.4,499.7,828.4,499.7,828.4,499.7
		L828.4,499.7L828.4,499.7L828.4,499.7L828.4,499.7"/>
	<path id="XMLID_218_" class="st6" d="M498.6,1079.5c-10.3-4.9-20.2-11.8-24-18.4c-3.5-6-3.6-13.4-5.3-20.2
		c5.7-1.6,11.5-2.4,17.4-2.4c9.9,0,19.9,2.2,28.8,6.6c3.5,1.7,6.9,3.8,10.6,5.1c4.5,1.6,9.2,2.1,13.9,2.1c5.1,0,10.3-0.6,15.4-0.8
		c2.8-0.2,5.5-0.2,8.3-0.2c13.4,0,26.8,1.9,39.6,5.5c4,1.1,8,2.5,11.3,5c5.9,4.6,8.6,12.3,13.6,17.7H498.6 M788,1060.7
		c19.5,0,38.9-3.3,54-15.1c3.2-2.5,6.1-5.3,9.8-7c4.6-2.1,9.8-2.2,14.9-2.2c20.4-0.1,40.7-0.2,61-0.2c0.1,0,0.2,0,0.3,0
		c1.8,0,3.7,0.1,5.1,1.2c1.2,1,1.7,2.6,2.2,4.1c2.8,8.9,5.6,18.8,1.5,27.1c-2.6,5.3-7.2,8.7-12.7,11H738.2c-3.2-6,0.9-14.5,7.3-17.7
		c4-2,8.5-2.6,13-2.6c3.1,0,6.3,0.3,9.4,0.5C774.5,1060.3,781.3,1060.7,788,1060.7 M1312.2,1018.5c0.6-1.2,3.1-1.8,3.1-1.8
		c3.2,0,6.3,0,9.5-0.1c0.1,0,0.2,0,0.2,0c0.8,0,1.6,0,2.2,0.4c1.4,0.8,1.6,2.7,1.7,4.3c0,1.5,0.1,3,0.1,4.5c0,1.3,0.1,2.7-0.5,3.8
		c-1,1.8-3.2,2.6-5.2,2.9c-1.4,0.2-2.7,0.4-4.1,0.4c-2.1,0-4.2-0.3-6.1-1.2c-3.2-1.4-5.8-4.4-6.1-7.9c-0.1-1.5,0.2-3,1.2-4.2
		c0.7-0.9,1.9-1.4,3-1.4C1311.6,1018.3,1311.9,1018.4,1312.2,1018.5 M569.2,1038c-1.7,0-3.5-1.1-5-2c-2.4-1.4-5.1-2.5-7.9-2.8
		c-2.8-1-5.5-1.9-8.3-2.9c-3.5-1.2-7.1-2.5-9.4-5.4c-2.3-2.9-2.4-7.8,0.8-9.7c1.3-0.8,2.8-0.9,4.3-1c3.9-0.3,7.7-0.7,11.6-0.7
		c2.3,0,4.6,0.1,6.9,0.4c6.1,0.8,12.2,3.1,16.6,7.4c0.9,0.9,1.8,2,1.8,3.2c0.1,3.1-4.1,4.1-5.9,6.5c-1.6,2-1.6,5.2-3.9,6.4
		C570.3,1037.9,569.7,1038,569.2,1038 M1177.9,1022.4c-2.2,0-4.4-1.1-5.7-2.9c-1.2-1.8-1.4-4.1-2.8-5.7c-1-1.2-2.7-1.9-3.3-3.4
		c-0.8-2,1-4.3,3.1-4.8c0.5-0.1,1.1-0.2,1.6-0.2c1.6,0,3.2,0.5,4.7,1c1.2,0.4,2.3,0.8,3.5,1.1c0,0,4.2,4.5,5.7,6.7
		c0.4,0.6,0.7,1.2,0.8,1.9c0.2,1.2-0.5,2.4-1.4,3.4c-1.6,1.7-3.7,2.9-6,3C1178,1022.4,1177.9,1022.4,1177.9,1022.4 M612.4,1020
		c12.1,0,23.5-5.3,34.7-9.8c8.3-3.3,17.2-6.2,26-6.2c3.2,0,6.4,0.4,9.6,1.3c5.7,1.6,10.8,4.9,15.8,8c3.1,2,6.5,4.5,6.7,8.1
		c0.4,5.7-6.6,8.6-12.2,9.7c-7.2,1.5-14.5,2.9-21.7,4.4c-6.8,1.4-15,4.1-16.1,10.9c-0.2,1.3-0.2,2.9-1.2,3.8
		c-0.6,0.6-1.5,0.7-2.4,0.7c-0.3,0-0.6,0-0.9,0c-5.8-0.5-11.5-2.3-16.5-5.4c-2-1.2-3.9-2.6-6.1-3.4c-2.1-0.7-4.4-0.7-6.7-1
		c-6.2-0.8-15.5-3.3-20-5.9c-5.1-2.9-3.4-12.1,2-14.4c1.7-0.7,3.6-0.9,5.5-0.9c1.1,0,2.2,0.1,3.3,0.1
		C612.2,1020,612.3,1020,612.4,1020 M314.9,1064.9c-2.4,0-4.8-0.2-7-1c-2.9-1-5.3-3-7.7-4.9c-12.1-9.9-24.2-19.8-36.4-29.7
		c-0.7-0.6-1.4-1.2-1.8-2c-1.7-3.5,3.1-6.3,6-8.9c5.8-5.3,4.2-14.9,0.2-21.5c-4-6.7-10.7-17.1-7-23.1c0,0,4.5-3.5,7.7-3.5
		c0.3,0,0.6,0,0.9,0.1c3.3,0.7,6,3.1,8.9,4.8c6.1,3.6,13.1,4.3,20.3,4.3c2.4,0,4.7-0.1,7.1-0.2c2.4-0.1,4.7-0.2,7.1-0.2
		c1.2,0,2.5,0,3.7,0.1c2.3,0.1,4.7,0.3,6.9,1.3c2.7,1.2,4.8,3.4,6.9,5.4c11.7,11.4,26.3,19.8,42.1,24c15.9,4.3,33.3,4.8,47,13.9
		c-1.2,12.1,10,21.5,14,32.9c0.8,2.4,1.3,4.9,2.2,7.2c2.2,6.2,6.7,11,11.4,15.5h-91.2c-0.1-0.3-0.2-0.6-0.3-0.8
		c-1.4-3.9-1.7-8.8-5.2-11.2c-1.6-1.1-3.7-1.4-5.7-1.7c-6.6-0.8-13.2-1.2-19.8-1.2c-2,0-4.1,0-6.1,0.1
		C317.7,1064.9,316.3,1064.9,314.9,1064.9 M1216.2,967.6l-0.5-0.7C1215.9,967.1,1216,967.4,1216.2,967.6 M1240.9,1018.6
		c-1.3,0-2.6-0.4-3.9-0.8c-9.3-3.1-18.7-6.2-28-9.3c-3.5-1.1-7.2-2.5-9.1-5.6c-0.8-1.4-1.2-3-1.6-4.6c-0.9-4.1-1.9-8.1-2.8-12.2
		c-0.8-3.3-1.5-6.7-0.9-10.1c0.6-3.3,2.9-6.6,6.3-7.2c1.4-0.3,2.9,0,4.4-0.3c2-0.3,3.7-1.6,5.6-2.2c0.6-0.2,1.3-0.3,2-0.3
		c1,0,2,0.3,2.7,0.9c-0.1-0.1-0.1-0.2-0.2-0.3l0.3,0.4l-0.1-0.1c2.7,4.6,7.9,7.2,13,9c5.2,1.8,10.8,3.2,15.2,6.5
		c3.4,2.5,5.9,5.9,8.3,9.3c2.7,3.8,5.5,8.2,4.9,12.8c-0.8,5.9-6.5,9.6-11.7,12.6c-1.1,0.6-2.3,1.3-3.5,1.5
		C1241.5,1018.6,1241.2,1018.6,1240.9,1018.6 M756.2,936.2c-0.8,0-1.7-0.1-2.5-0.2c-5.1-0.8-9.5-3.7-13.8-6.5
		c-3.4-2.3-6.9-4.6-9.1-8c-1.7-2.7-2.7-6-5.2-7.8c-3-2.2-7.1-1.7-10.7-2.5c-4-0.9-7.4-3.5-10.6-6c-1.1-0.9-2.3-1.8-2.9-3.1
		c-0.5-1.1-0.5-2.3-0.5-3.5c0-2,0-4,0-6.1c0-1.5,0-3.2,0.8-4.5c1-1.7,2.9-2.6,4.7-3.2c3.4-1.1,7-1.7,10.5-1.7c3.4,0,6.7,0.5,9.9,1.5
		l0.4-0.4c4.3,2.2,9.3,1.8,14.1,2c4.8,0.2,10.1,1.4,12.7,5.5c1.3,2.1,1.7,4.8,3.3,6.7c4.3,5.4,14.8,2.4,18.3,8.4
		c0.8,1.3,1,2.9,1.1,4.4c0.4,6.4-1.4,13.1-5.7,18C767.3,933.5,761.8,936.2,756.2,936.2 M937.9,604.7c-5.6,0-11.1-0.2-16.6-0.4
		c-3.5-0.1-7.2-0.3-10.3-1.9c-2.6-1.4-4.7-3.7-7-5.5c-3.8-3-8.3-4.7-12.5-7.1c-7.4-4.2-13.5-10.6-17.4-18.1l5.9-3.1
		c8.8-5.9,19.2-9.5,29.7-10.3c1.5-0.1,3.1-0.2,4.6-0.2c16.5,0,32.6,6.2,48.1,12.3c10.1,4,22,10.4,21.9,21.2c0,1-0.1,1.9-0.6,2.8
		c-0.6,1.1-1.8,1.8-3,2.3C967.5,603.3,952.7,604.7,937.9,604.7 M828.4,499.7L828.4,499.7c-0.7,0.1-1.3,0.2-1.9,0.3
		c-29.6,4.5-58.7,10.4-87.3,17.7c0,0-0.1,0-0.1,0c-0.1,0-0.2,0.1-0.3,0.1c-0.1,0-0.2,0-0.3,0.1c0,0-0.1,0-0.1,0
		c-51.6,13.3-101.3,31-148.8,52.9c0,0,0,0-0.1,0c-0.6,0.3-1.1,0.5-1.6,0.8c0,0-0.1,0-0.1,0l0,0c1.5,0.4,2.8,1.4,3.5,3.3
		c3.1,8.1,0.4,17.5,3.9,25.6c1.7,3.9,5.2,7.5,9.3,7.5c0.1,0,0.3,0,0.4,0c2.7-0.1,5.1-1.8,7.5-3.3c13.3-8.5,29.1-12.8,44.9-12.8
		c12.4,0,24.8,2.7,36,8.1c-1.9,9.7,2.3,20.3,10.3,26c5,3.6,11.5,5.7,14.5,11c3.2,5.8,0.9,13.3-3.2,18.6c-4.1,5.2-9.8,9.1-14.3,14
		c-15.1,16.2-15,44.3,0.3,60.3c5.4,5.7,12.2,9.7,19,13.7c11.9,3.8,24.2,6.2,36.6,7c1.6,0.1,3.3,0.2,4.5,1.2c0.8,0.6,1.3,1.6,1.8,2.5
		c5.6,10.3,11.9,20.9,21.7,27.2c2.7,1.8,5.6,3.1,8.3,5c3.6,2.5,6.5,5.7,9.4,8.9c10.7,11.6,21.3,23.3,32,34.9c2.7,3,5.5,6,7.3,9.5
		c4.3,8.2,3.5,18.1,3.3,27.4c-0.2,11.2,0.7,22.5,2.7,33.5c0.3,1.6,0.6,3.2,0.5,4.9c-0.1,1.2-0.5,2.3-0.9,3.5
		c-2.8,6.7-10.1,11-17.3,11c-2.4,0-4.7-0.5-6.9-1.4c-3.1-1.4-5.8-3.7-8.4-5.9c-4-3.4-7.9-6.8-11.5-10.5c-5.2-5.5-9.6-11.8-15.8-16
		c-6.1-4.2-13.5-6-20.4-8.8c-10.4-4.2-19.8-10.5-27.6-18.5c-0.8-0.8-1.6-1.7-2.1-2.7c-0.6-1.2-0.7-2.6-0.7-3.9
		c-0.2-6.2,0.6-12.4-0.6-18.5c-0.9-4.5-2.8-8.6-5-12.7c-7.7,3.6-16.1,4.6-24.8,4.6c-7.9,0-15.9-0.8-23.7-1.3c-2-0.1-4.1-0.2-6.2-0.2
		c-15.6,0-32,3.5-40.4,16.2c-5.6,8.4-6.6,19.7-14.1,26.4c-5.7,5.1-13.5,6.2-21.4,6.2c-2.9,0-5.9-0.2-8.8-0.3
		c-6.2-0.3-12.5-0.5-18.8-0.5c-47.3,0-94.6,9.2-138.4,27c-5.5,2.2-11.1,4.8-14.6,9.5c-7.5,10.2-1.7,24.8-4.4,37.2
		c-2.9,13.4-16.3,22.8-29.9,24.2c-1.5,0.2-3,0.2-4.5,0.2c-12.1,0-24-4.9-34.2-11.5c-4.8-3.1-9.5-6.7-14.8-8.7
		c-5.2-2-10.7-2.4-16.2-2.9c-21.5-1.7-42.9-3.5-64.4-5.2c-4.6-0.4-9.3-0.7-13.9-0.7c-4.3,0-8.6,0.3-12.8,1.2
		c-10.3,2.3-19.4,8.1-29.1,12.3c-4.8,2.1-10.9,5.1-16.2,5.5c-0.2,0-0.4,0-0.6,0c-0.8,0-1.4-0.1-2-0.3c0,0,0,0.1,0,0.1c0,0,0,0,0,0
		c-0.2,0.3-0.4,0.8-0.6,1.1c-20.1,37.8-37.6,77.4-52.1,118.3h1404.4c-4.7-13.8-9.6-26.2-14.8-38.9c-5.3-12.9-10.9-25.8-16.8-38.4
		c0,0,0-0.1-0.1-0.1c-8.3-1.6-16.5-3.9-24.4-6.8c-4-1.5-8.2-6.9-4.4-8.8l0.4-1.3c2.5-6.5,6.6-12.2,11.9-16.7
		c-3.8-7.4-7.8-14.7-11.8-22l0,0c0-0.1,0-0.2,0-0.3l0,0c0,0.1,0,0.2,0,0.3c0,0,0,0,0,0c-0.1,0.8-0.3,1.5-0.5,2.2
		c-1.3,3.3-5,5-7.1,7.9l0.1,0.2c-0.9,1-2.3,1.6-3.7,1.6c-0.4,0-0.8-0.1-1.2-0.2c-1.4-0.4-2.6-1.4-4.1-1.5c-0.2,0-0.3,0-0.5,0
		c-0.2,0-0.3,0-0.5,0c-0.2,0-0.3,0-0.5,0c-0.3,0-0.6,0-0.9-0.1c-1-0.3-1.7-1.1-2.4-1.8c-0.9-1-1.8-2.1-2.2-3.4
		c-0.2-0.8-0.3-1.6-0.3-2.5c-0.1-2.5-0.2-5,0.4-7.3c0.6-2.4,2.1-4.7,4.3-5.7c1.2-0.5,2.5-0.7,3.8-0.7c0.5,0,0.9,0,1.4,0
		c2.6,0.1,5.3,0.4,7.8,0.9c-7.1-12.4-14.6-24.7-22.3-36.7c-4.8,0.2-9.7-0.3-13.9,1.9c-2.6,1.4-4.6,3.7-6.6,6
		c-11.8,13.6-26,27-43.9,28.9c-1.4,0.2-2.9,0.2-4.3,0.2c-16.3,0-31.6-9.5-44.6-19.8c-14.1-11.2-27.9-24-45.3-28.9
		c-7.7-2.1-15.7-2.6-23.8-2.6c-2.8,0-5.5,0.1-8.3,0.1c-2.8,0.1-5.5,0.1-8.3,0.1c-9.9,0-19.5-0.7-28.6-4.3c-7.1-2.8-13.3-7.3-19.3-12
		c-24.9-19.4-47.9-46.8-46.2-78.3c0.4-7.7,2.8-16.1,9.3-20.5c3.9-2.6,8.7-3.4,13.3-4c9.8-1.2,19.7-1.8,29.6-1.8c6,0,12,0.2,18,0.7
		c1.8,0.1,3.7,0.3,5.6,0.3c3.6,0,7.1-0.5,9.9-2.6c3.4-2.5,5-6.8,8-9.8c12.1-12.1,39.3,0.7,46.8-14.7c1.6-3.4,1.6-7.4,1.6-11.2
		c0-2.3-0.1-4.7-0.1-7c0,0,0,0,0,0l0,0c0,0,0,0,0,0l0,0l0,0c-18.2-16.5-37.1-32.3-56.6-47.3c-8.6-6.6-17.3-13-26.1-19.3c0,0,0,0,0,0
		c0,0,0,0,0,0c-3.1-1.6-6.1-3.2-9.1-5c-0.1,0-0.1-0.1-0.2-0.1c-0.6-0.4-1.2-0.8-1.9-1.1c0,0,0,0,0,0c0,0,0,0,0,0
		c-0.4-0.3-0.9-0.6-1.3-0.8c-0.3-0.2-0.5-0.3-0.8-0.5c-1.2-0.8-2.4-1.6-3.6-2.4c-0.3-0.2-0.6-0.4-0.9-0.6c-0.8-0.6-1.6-1.2-2.4-1.8
		c-2.9-2.2-5.8-4.6-8.5-7.1l0,0c-39.7-26-81.6-48.9-125.4-68.3c-38.4-17.1-78.3-31.5-119.3-43l-0.1,0h0c-0.1,0-0.1,0-0.2-0.1
		c-1,0-1.9,0-2.9,0c-20,0-43.4,5.9-43.4,5.9c-3.8,0.7-7.6,1-11.4,1c-13.8,0-27.7-4.3-38.9-12.4c-3.2-2.3-6.2-5-7.6-8.6
		c-0.9-2.3-1.1-4.8-0.6-7.2c0.1-0.5,0.2-0.9,0.4-1.3c-0.6-0.1-1.2-0.2-1.9-0.3C827.1,499.9,827.8,499.8,828.4,499.7"/>
	<path id="XMLID_219_" class="st7" d="M828.4,500.3c-0.2,0.3-0.3,0.7-0.4,1.3c-0.5,2.4-0.3,4.9,0.6,7.2c1.4,3.6,4.5,6.3,7.6,8.6
		c11.2,8.1,25.1,12.4,38.9,12.4c3.8,0,7.7-0.3,11.4-1c0,0,23.4-5.9,43.4-5.9c1,0,1.9,0,2.9,0c-32.7-9-66.1-16.5-100.2-21.9
		C831.3,500.8,829.8,500.6,828.4,500.3C828.4,500.4,828.4,500.3,828.4,500.3C828.4,500.3,828.4,500.3,828.4,500.3L828.4,500.3
		L828.4,500.3C828.4,500.3,828.4,500.3,828.4,500.3"/>
	<path id="XMLID_220_" class="st7" d="M914.3,558.2c-1.5,0-3.1,0.1-4.6,0.2c-10.6,0.8-20.9,4.4-29.7,10.3l-5.9,3.1
		c3.9,7.5,10,13.9,17.4,18.1c4.2,2.4,8.7,4.1,12.5,7.1c2.3,1.8,4.4,4.1,7,5.5c3.1,1.6,6.8,1.8,10.3,1.9c5.5,0.2,11.1,0.4,16.6,0.4
		c14.9,0,29.6-1.4,42.8-7.9c1.2-0.6,2.4-1.2,3-2.3c0.5-0.8,0.6-1.8,0.6-2.8c0.1-10.9-11.8-17.3-21.9-21.2
		C946.9,564.4,930.8,558.2,914.3,558.2"/>
	<path id="XMLID_221_" class="st7" d="M928,1036.1c-0.1,0-0.2,0-0.3,0c-20.3,0.1-40.7,0.2-61,0.2c-5,0-10.3,0.1-14.9,2.2
		c-3.7,1.7-6.6,4.5-9.8,7c-15.1,11.8-34.5,15.1-54,15.1c-6.7,0-13.5-0.4-20-0.9c-3.1-0.3-6.3-0.5-9.4-0.5c-4.6,0-9,0.6-13,2.6
		c-6.4,3.2-10.6,11.7-7.3,17.7h185.8c5.5-2.3,10.2-5.6,12.7-11c4-8.4,1.3-18.3-1.5-27.1c-0.5-1.5-1-3.1-2.2-4.1
		C931.7,1036.2,929.8,1036.1,928,1036.1"/>
	<path id="XMLID_222_" class="st7" d="M1215.3,966.5c0.1,0.1,0.1,0.2,0.2,0.3l0,0l0,0l0.1,0.1L1215.3,966.5"/>
	<path id="XMLID_223_" class="st7" d="M1215.7,967l0.5,0.7C1216,967.4,1215.9,967.1,1215.7,967"/>
	<path id="XMLID_224_" class="st7" d="M1212.8,965.9c-0.7,0-1.4,0.1-2,0.3c-1.9,0.6-3.6,1.9-5.6,2.2c-1.4,0.3-2.9,0-4.4,0.3
		c-3.3,0.6-5.7,3.9-6.3,7.2c-0.6,3.3,0.2,6.8,0.9,10.1c0.9,4.1,1.9,8.1,2.8,12.2c0.4,1.6,0.7,3.2,1.6,4.6c1.9,3.1,5.6,4.5,9.1,5.6
		c9.3,3.1,18.7,6.2,28,9.3c1.3,0.4,2.6,0.8,3.9,0.8c0.3,0,0.6,0,0.8-0.1c1.3-0.2,2.4-0.8,3.5-1.5c5.2-2.9,10.9-6.7,11.7-12.6
		c0.6-4.7-2.2-9-4.9-12.8c-2.4-3.4-4.9-6.9-8.3-9.3c-4.5-3.3-10-4.6-15.2-6.5c-5.1-1.8-10.3-4.4-13-9l0,0l0,0
		C1214.8,966.2,1213.8,965.9,1212.8,965.9"/>
	<path id="XMLID_225_" class="st7" d="M1170.9,1005.4c-0.5,0-1.1,0.1-1.6,0.2c-2.1,0.5-3.9,2.8-3.1,4.8c0.6,1.5,2.2,2.2,3.3,3.4
		c1.4,1.6,1.6,4,2.8,5.7c1.2,1.8,3.4,2.9,5.7,2.9c0.1,0,0.2,0,0.3,0c2.3-0.1,4.5-1.3,6-3c0.8-0.9,1.6-2.1,1.4-3.4
		c-0.1-0.7-0.4-1.3-0.8-1.9c-1.4-2.2-5.7-6.7-5.7-6.7c-1.2-0.4-2.3-0.8-3.5-1.1C1174,1005.9,1172.4,1005.4,1170.9,1005.4"/>
	<path id="XMLID_226_" class="st7" d="M1325.1,1016.6c-0.1,0-0.2,0-0.2,0c-3.2,0-6.3,0-9.5,0.1c0,0-2.5,0.6-3.1,1.8
		c-0.3-0.1-0.7-0.2-1-0.2c-1.1,0-2.2,0.6-3,1.4c-1,1.1-1.3,2.7-1.2,4.2c0.3,3.5,2.9,6.5,6.1,7.9c1.9,0.9,4,1.2,6.1,1.2
		c1.4,0,2.8-0.1,4.1-0.4c2-0.4,4.2-1.1,5.2-2.9c0.6-1.2,0.6-2.5,0.5-3.8c0-1.5-0.1-3-0.1-4.5c-0.1-1.6-0.3-3.5-1.7-4.3
		C1326.6,1016.7,1325.9,1016.6,1325.1,1016.6"/>
	<path id="XMLID_229_" class="st7" d="M1289.3,720.4c0,2.3,0.1,4.7,0.1,7c0,3.8,0.1,7.7-1.6,11.2c-7.5,15.4-34.7,2.5-46.8,14.7
		c-3,3-4.6,7.2-8,9.8c-2.8,2.1-6.3,2.6-9.9,2.6c-1.9,0-3.8-0.1-5.6-0.3c-6-0.5-12-0.7-18-0.7c-9.9,0-19.8,0.6-29.6,1.8
		c-4.7,0.6-9.4,1.4-13.3,4c-6.4,4.3-8.8,12.7-9.3,20.5c-1.7,31.5,21.4,58.9,46.2,78.3c6,4.7,12.3,9.2,19.3,12
		c9.1,3.6,18.8,4.3,28.6,4.3c2.8,0,5.5-0.1,8.3-0.1c2.8-0.1,5.5-0.1,8.3-0.1c8.1,0,16.1,0.4,23.8,2.6c17.4,4.8,31.1,17.7,45.3,28.9
		c13,10.3,28.3,19.8,44.6,19.8c1.4,0,2.9-0.1,4.3-0.2c17.9-1.9,32.1-15.3,43.9-28.9c1.9-2.2,3.9-4.6,6.6-6c4.2-2.2,9.1-1.7,13.9-1.9
		c0,0,0,0,0,0c0,0,0.1,0,0.1,0l0,0c0,0-0.1,0-0.1,0l0,0c-5.4-8.4-10.8-16.6-16.5-24.8C1385.2,818.2,1340,766.4,1289.3,720.4
		 M1178,634.3c2.7,2.5,5.6,4.9,8.5,7.1c-0.9-0.7-1.7-1.3-2.6-2c-1.7-1.3-3.3-2.7-4.9-4.2C1178.7,634.9,1178.3,634.6,1178,634.3
		L1178,634.3"/>
	<path id="XMLID_230_" class="st7" d="M268.9,970.2c-3.3,0-7.7,3.5-7.7,3.5c-3.7,6,3,16.5,7,23.1c4,6.7,5.6,16.3-0.2,21.5
		c-2.9,2.6-7.7,5.4-6,8.9c0.4,0.8,1.1,1.4,1.8,2c12.1,9.9,24.3,19.8,36.4,29.7c2.4,1.9,4.8,3.9,7.7,4.9c2.2,0.8,4.6,1,7,1
		c1.4,0,2.8-0.1,4.2-0.1c2-0.1,4.1-0.1,6.1-0.1c6.6,0,13.2,0.4,19.8,1.2c2,0.2,4,0.5,5.7,1.7c3.5,2.4,3.8,7.2,5.2,11.2
		c0.1,0.3,0.2,0.6,0.3,0.8h91.2c-4.8-4.6-9.2-9.4-11.4-15.5c-0.9-2.4-1.4-4.8-2.2-7.2c-3.9-11.4-15.2-20.9-14-32.9
		c-13.7-9.1-31.1-9.6-47-13.9c-15.8-4.3-30.4-12.6-42.1-24c-2.1-2.1-4.2-4.2-6.9-5.4c-2.1-1-4.5-1.2-6.9-1.3
		c-1.2-0.1-2.4-0.1-3.7-0.1c-2.4,0-4.7,0.1-7.1,0.2c-2.4,0.1-4.7,0.2-7.1,0.2c-7.2,0-14.2-0.7-20.3-4.3c-2.9-1.7-5.6-4.1-8.9-4.8
		C269.5,970.2,269.2,970.2,268.9,970.2"/>
	<path id="XMLID_231_" class="st7" d="M486.6,1038.7c-5.9,0-11.7,0.8-17.4,2.4c1.8,6.7,1.8,14.2,5.3,20.2c3.8,6.5,13.7,13.5,24,18.4
		h129.7c-5-5.4-7.7-13.2-13.6-17.7c-3.3-2.5-7.3-3.9-11.3-5c-12.9-3.7-26.3-5.5-39.6-5.5c-2.8,0-5.5,0.1-8.3,0.2
		c-5.1,0.3-10.3,0.8-15.4,0.8c-4.8,0-9.4-0.5-13.9-2.1c-3.7-1.3-7.1-3.4-10.6-5.1C506.5,1040.9,496.6,1038.7,486.6,1038.7"/>
	<path id="XMLID_232_" class="st7" d="M555.3,1013.6c-3.9,0-7.7,0.3-11.6,0.7c-1.5,0.1-3,0.3-4.3,1c-3.1,1.9-3.1,6.8-0.8,9.7
		c2.3,2.9,5.9,4.2,9.4,5.4c2.8,1,5.5,1.9,8.3,2.9c2.7,0.3,5.4,1.4,7.9,2.8c1.6,0.9,3.3,2,5,2c0.6,0,1.1-0.1,1.6-0.4
		c2.2-1.2,2.3-4.4,3.9-6.4c1.9-2.4,6-3.5,5.9-6.5c0-1.3-0.9-2.4-1.8-3.2c-4.4-4.3-10.5-6.6-16.6-7.4
		C559.9,1013.7,557.6,1013.6,555.3,1013.6"/>
	<path id="XMLID_233_" class="st7" d="M673.2,1004c-8.8,0-17.7,2.9-26,6.2c-11.3,4.5-22.6,9.8-34.7,9.8c-0.1,0-0.2,0-0.3,0
		c-1.1,0-2.2-0.1-3.3-0.1c-1.9,0-3.8,0.1-5.5,0.9c-5.3,2.3-7,11.6-2,14.4c4.5,2.6,13.9,5.1,20,5.9c2.2,0.3,4.5,0.3,6.7,1
		c2.2,0.7,4.1,2.2,6.1,3.4c5,3,10.7,4.9,16.5,5.4c0.3,0,0.6,0,0.9,0c0.9,0,1.8-0.2,2.4-0.7c1-0.9,1-2.5,1.2-3.8
		c1.1-6.8,9.3-9.6,16.1-10.9c7.2-1.5,14.5-2.9,21.7-4.4c5.6-1.1,12.6-4,12.2-9.7c-0.3-3.6-3.7-6.1-6.7-8.1c-5-3.2-10.1-6.4-15.8-8
		C679.6,1004.3,676.4,1004,673.2,1004"/>
	<path id="XMLID_234_" class="st7" d="M586.3,571.5c-2.8,0-6.1,1.4-9.3,2.8c-2.5,1.1-4.9,2.2-6.7,2.6c-6.2,1.4-12.9,2.1-19.1,3.9
		c0,0,0,0,0,0c0,0,0,0,0,0c-0.8,0.2-1.6,0.5-2.4,0.8c-3.5,1.2-6.8,2.9-9.6,5.4c-0.9,0.8-1.8,1.7-2.6,2.7c-1.2,1.3-2.4,2.7-3.7,4
		c-5.4,5.3-12.7,8.2-19.7,11.3c-1.2,0.5-2.4,1-3.6,1.6c-10,4.5-19.2,10.5-28.2,16.8c-0.5,0.4-1.1,0.8-1.6,1.2c-4.2,3-8.3,6-12.5,9.1
		c-2.5,1.9-5.1,3.8-7.7,5.6c-2.9,2.1-5.7,4.2-8.6,6.3c-2.3,1.7-4.6,3.4-6.8,5.1c-0.7,0.5-1.3,1-2,1.5c-15.8,11.6-31.6,23.3-47.4,35
		c-0.1,0.1-0.3,0.2-0.4,0.3c-0.5,0.3-0.9,0.7-1.4,1c-8.5,6.3-15.5,14-23.3,21c-1.6,1.4-3.2,2.8-4.9,4.2c-0.8,0.7-1.6,1.3-2.4,2
		c-3.3,2.6-6.7,5.2-10,7.9c-2,1.6-3.9,3.2-5.8,4.9c-6.1,5.5-11,12.1-15.6,18.9c-2.7,3.9-5.7,7.3-8.8,10.4c-2.5,2.5-5.2,4.8-7.9,7.2
		c-3.3,2.9-6.7,5.7-10.1,8.8c-0.7,0.6-1.4,1.3-2.1,1.9c-3,2.8-6,5.7-9,8.6c-0.5,0.5-1,1-1.5,1.4c-4.8,4.7-9.7,9.4-14.5,14.1
		c-1.7,1.6-3.4,3.3-4.7,5.2c-0.9,1.2-1.6,2.6-2.3,3.9c-0.2,0.4-0.4,0.7-0.6,1.1c-0.5,0.8-1,1.7-1.5,2.5c-5.2,8.4-12,16-17.8,24
		c-3.5,4.9-7.1,9.7-10.6,14.6c-0.8,1.1-1.5,2.1-2.3,3.2c-0.4,0.6-0.8,1.2-1.3,1.7c-1,1.4-2.1,2.8-3.1,4.2c-0.4,0.6-0.9,1.2-1.3,1.8
		c-0.5,0.7-1.1,1.5-1.6,2.2c-4.3,6-8.6,11.9-13,17.9c-6.7,9.2-13.3,18.3-20,27.5c-2.7,3.7-5.4,7.4-7.9,11.2
		c-3.4,5.1-6.6,10.7-6.8,16.8c-0.1,1.6,0.1,3.3,0,4.9c-0.1,0.8-0.2,1.5-0.4,2.2c-0.1,0.2-0.2,0.5-0.3,0.7c-1,2.5-3.1,4.4-4.7,6.6
		c0,0.1-0.1,0.1-0.1,0.2c-1.1,1.6-1.8,3.4-1.8,4.9c0,0.2,0,0.3,0,0.5c0,0.1,0,0.2,0.1,0.3l0,0.2c0,0.2,0.1,0.3,0.1,0.4
		c0,0.1,0.1,0.2,0.1,0.3c0,0,0,0.1,0.1,0.1c0.1,0.1,0.1,0.2,0.2,0.3c0,0,0.1,0.1,0.1,0.1l0.2,0.2c0.2,0.2,0.5,0.4,0.9,0.6
		c0.5,0.2,1.2,0.3,2,0.3c0.2,0,0.4,0,0.6,0c5.3-0.4,11.4-3.4,16.2-5.5c9.7-4.2,18.8-10,29.1-12.3c4.2-0.9,8.5-1.2,12.8-1.2
		c4.6,0,9.3,0.4,13.9,0.7c21.5,1.7,42.9,3.5,64.4,5.2c5.5,0.4,11.1,0.9,16.2,2.9c5.4,2,10,5.6,14.8,8.7
		c10.2,6.6,22.1,11.5,34.2,11.5c1.5,0,3-0.1,4.5-0.2c13.6-1.4,27-10.8,29.9-24.2c2.7-12.4-3.1-27,4.4-37.2c3.5-4.7,9.2-7.3,14.6-9.5
		c43.8-17.8,91.1-27,138.4-27c6.3,0,12.5,0.2,18.8,0.5c2.9,0.1,5.8,0.3,8.8,0.3c7.9,0,15.7-1.1,21.4-6.2c7.5-6.7,8.5-18,14.1-26.4
		c8.4-12.7,24.8-16.2,40.4-16.2c2.1,0,4.2,0.1,6.2,0.2c7.8,0.4,15.9,1.3,23.7,1.3c8.6,0,17.1-1,24.8-4.6c2.2,4,4.1,8.2,5,12.7
		c1.2,6.1,0.4,12.3,0.6,18.5c0,1.3,0.1,2.7,0.7,3.9c0.5,1,1.3,1.9,2.1,2.7c7.8,8,17.2,14.4,27.6,18.5c6.9,2.8,14.3,4.6,20.4,8.8
		c6.2,4.3,10.6,10.6,15.8,16c3.6,3.8,7.6,7.2,11.5,10.5c2.6,2.2,5.3,4.5,8.4,5.9c2.2,1,4.5,1.4,6.9,1.4c7.2,0,14.5-4.3,17.3-11
		c0.5-1.1,0.8-2.3,0.9-3.5c0.2-1.6-0.2-3.3-0.5-4.9c-2.1-11-3-22.3-2.7-33.5c0.2-9.3,1.1-19.1-3.3-27.4c-1.9-3.5-4.6-6.6-7.3-9.5
		c-10.7-11.6-21.4-23.3-32-34.9c-2.9-3.2-5.9-6.4-9.4-8.9c-2.7-1.9-5.6-3.2-8.3-5c-9.9-6.4-16.1-16.9-21.7-27.2
		c-0.5-0.9-1-1.9-1.8-2.5c-1.2-1-2.9-1.1-4.5-1.2c-12.4-0.8-24.8-3.1-36.6-7c-6.9-3.9-13.6-8-19-13.7c-15.3-16-15.5-44.2-0.3-60.3
		c4.5-4.9,10.2-8.7,14.3-14c4.1-5.3,6.4-12.8,3.2-18.6c-3-5.4-9.5-7.5-14.5-11c-8-5.8-12.2-16.3-10.3-26c-11.2-5.4-23.6-8.1-36-8.1
		c-15.8,0-31.6,4.3-44.9,12.8c-2.3,1.5-4.7,3.1-7.5,3.3c-0.1,0-0.3,0-0.4,0c-4.2,0-7.7-3.6-9.3-7.5c-3.5-8.2-0.8-17.5-3.9-25.6
		c-0.7-2-2-2.9-3.5-3.3l0,0c-0.1,0-0.2,0-0.3-0.1c0,0,0,0-0.1,0h0C587.1,571.5,586.7,571.5,586.3,571.5"/>
	<path id="XMLID_235_" class="st7" d="M716.9,883.2c-3.6,0-7.1,0.6-10.5,1.7c-1.9,0.6-3.8,1.5-4.7,3.2c-0.7,1.3-0.8,3-0.8,4.5
		c0,2,0,4,0,6.1c0,1.2,0,2.4,0.5,3.5c0.6,1.3,1.7,2.2,2.9,3.1c3.2,2.5,6.6,5.1,10.6,6c3.6,0.8,7.7,0.3,10.7,2.5
		c2.6,1.9,3.5,5.2,5.2,7.8c2.2,3.4,5.7,5.8,9.1,8c4.3,2.8,8.7,5.8,13.8,6.5c0.8,0.1,1.7,0.2,2.5,0.2c5.6,0,11.1-2.7,14.8-7
		c4.2-4.9,6.1-11.6,5.7-18c-0.1-1.5-0.3-3.1-1.1-4.4c-3.5-6-13.9-3-18.3-8.4c-1.6-1.9-1.9-4.6-3.3-6.7c-2.5-4.1-7.9-5.3-12.7-5.5
		c-4.8-0.2-9.8,0.2-14.1-2l-0.4,0.4C723.7,883.7,720.3,883.2,716.9,883.2"/>
	<path id="XMLID_236_" class="st7" d="M1453.6,935.3c-1.3,0-2.6,0.1-3.8,0.7c-2.2,1-3.7,3.3-4.3,5.7c-0.6,2.4-0.5,4.9-0.4,7.3
		c0,0.8,0.1,1.7,0.3,2.5c0.4,1.3,1.3,2.4,2.2,3.4c0.7,0.8,1.4,1.6,2.4,1.8c0.3,0.1,0.6,0.1,0.9,0.1c0.2,0,0.3,0,0.5,0
		c0.2,0,0.3,0,0.5,0c0.2,0,0.3,0,0.5,0c1.5,0.2,2.7,1.2,4.1,1.5c0.4,0.1,0.8,0.2,1.2,0.2c1.4,0,2.8-0.6,3.7-1.6l-0.1-0.2
		c2.1-2.9,5.7-4.6,7.1-7.9c0.3-0.7,0.5-1.5,0.5-2.2c-1.9-3.5-3.9-6.9-5.9-10.4l0,0l0,0l0,0c-2.6-0.5-5.2-0.7-7.8-0.9
		C1454.5,935.3,1454.1,935.3,1453.6,935.3"/>
	<path id="XMLID_237_" class="st7" d="M1480.5,968.5c-5.2,4.5-9.4,10.3-11.9,16.7l-0.4,1.3c-3.8,1.9,0.5,7.4,4.4,8.8
		c7.9,2.9,16.1,5.2,24.4,6.8C1491.8,990.8,1486.3,979.6,1480.5,968.5C1480.5,968.5,1480.5,968.5,1480.5,968.5
		C1480.5,968.5,1480.5,968.5,1480.5,968.5L1480.5,968.5L1480.5,968.5L1480.5,968.5"/>
	<path id="XMLID_246_" class="st8" d="M1468.7,946.2c0,0.1,0,0.2,0,0.3l0,0c4,7.3,8,14.6,11.8,22l0,0l0,0c0,0,0,0,0,0
		c-3.8-7.4-7.8-14.7-11.8-22C1468.7,946.4,1468.7,946.3,1468.7,946.2 M1440.7,899.5c0,0-0.1,0-0.1,0l0,0c7.7,12,15.1,24.3,22.3,36.7
		l0,0l0,0c1.5,0.3,2.9,0.6,4.3,0.9c0.5,0.1,1.1,0.3,1.3,0.7c-0.3-0.4-0.8-0.6-1.3-0.7c-0.5-0.1-1-0.3-1.5-0.4
		c-0.5-0.1-1-0.2-1.5-0.3c-0.4-0.1-0.9-0.2-1.3-0.3C1455.8,923.7,1448.4,911.4,1440.7,899.5 M1232.8,673.1
		c19.5,15,38.4,30.8,56.6,47.3l0,0C1271.2,703.9,1252.3,688.1,1232.8,673.1 M1197.6,648.8c2.9,1.8,6,3.4,9.1,5l0,0
		c0.4,0.2,0.8,0.4,1.2,0.6c-0.1,0-0.2-0.1-0.2-0.1c-0.3-0.2-0.7-0.3-1-0.5c-0.1,0-0.2-0.1-0.2-0.1c-0.1,0-0.1-0.1-0.2-0.1
		c-0.1-0.1-0.3-0.1-0.4-0.2c-0.1-0.1-0.3-0.1-0.4-0.2c-0.1-0.1-0.2-0.1-0.4-0.2c-1-0.5-2.1-1.1-3.1-1.7c-0.3-0.2-0.5-0.3-0.8-0.5
		c-0.9-0.5-1.7-1-2.6-1.5c-0.1-0.1-0.2-0.1-0.3-0.2C1198.1,649.1,1197.9,649,1197.6,648.8C1197.7,648.9,1197.7,648.9,1197.6,648.8
		C1197.7,648.9,1197.7,648.9,1197.6,648.8 M1195.5,647.6c0.6,0.4,1.2,0.8,1.9,1.1c0,0,0,0,0,0
		C1196.8,648.3,1196.2,647.9,1195.5,647.6 M1194.2,646.7c0.4,0.3,0.9,0.6,1.3,0.8c-0.1-0.1-0.3-0.2-0.4-0.3c0,0-0.1,0-0.1-0.1
		c-0.1-0.1-0.2-0.1-0.3-0.2c-0.1,0-0.1-0.1-0.2-0.1C1194.4,646.8,1194.3,646.8,1194.2,646.7 M1189.8,643.8c1.2,0.8,2.4,1.6,3.6,2.4
		c-0.1,0-0.1-0.1-0.2-0.1c-0.1-0.1-0.3-0.2-0.4-0.3c-0.3-0.2-0.5-0.4-0.8-0.5c-0.3-0.2-0.7-0.5-1-0.7c-0.1-0.1-0.2-0.2-0.4-0.3
		C1190.4,644.2,1190.1,644,1189.8,643.8C1189.9,643.8,1189.8,643.8,1189.8,643.8 M828.4,499.7C828.4,499.7,828.4,499.7,828.4,499.7
		L828.4,499.7L828.4,499.7c-0.7,0.1-1.3,0.2-2,0.3c0.6,0.1,1.2,0.2,1.9,0.3c0,0,0,0,0,0l0,0c0.1-0.2,0.2-0.3,0.3-0.5
		c0,0-0.1,0-0.1-0.1C828.5,499.8,828.5,499.7,828.4,499.7"/>
	<path id="XMLID_247_" class="st9" d="M828.6,499.9c-0.1,0.1-0.2,0.3-0.3,0.5l0,0l0,0c0,0,0,0,0,0c0.1-0.1,0.1-0.2,0.2-0.3l0.2-0.1
		h0L828.6,499.9C828.7,499.9,828.7,499.9,828.6,499.9C828.7,499.9,828.7,499.9,828.6,499.9"/>
	<path id="XMLID_260_" class="st9" d="M1289.3,720.4L1289.3,720.4L1289.3,720.4c50.6,46,95.9,97.8,134.8,154.3
		c5.6,8.1,11.1,16.4,16.5,24.8l0,0c0,0,0.1,0,0.1,0c0-0.1-0.1-0.1-0.1-0.2l0.1-0.2h-0.1c-5.3-8-10.8-16.4-16.5-24.5
		C1385.2,818,1340,766.4,1289.3,720.4 M1206.7,653.8c0.3,0.2,0.7,0.3,1,0.5C1207.3,654.2,1207,654,1206.7,653.8 M1205.8,653.4
		c0.1,0.1,0.3,0.1,0.4,0.2C1206.1,653.6,1206,653.5,1205.8,653.4 M1202,651.4c1,0.6,2.1,1.1,3.1,1.7c-0.7-0.4-1.4-0.7-2.1-1.1
		C1202.7,651.7,1202.3,651.5,1202,651.4 M1198.6,649.4c0.8,0.5,1.7,1,2.6,1.5c-0.2-0.1-0.4-0.2-0.6-0.4c-0.6-0.3-1.1-0.6-1.7-1
		C1198.8,649.5,1198.7,649.5,1198.6,649.4 M1197.7,648.9c0.2,0.1,0.4,0.2,0.6,0.3c0,0,0,0-0.1,0l-0.1-0.1
		C1198,649.1,1197.9,649,1197.7,648.9 M1195,647.2C1195,647.2,1195.1,647.3,1195,647.2C1195.1,647.3,1195,647.2,1195,647.2
		 M1194.4,646.9c0.1,0,0.1,0.1,0.2,0.1C1194.6,647,1194.6,646.9,1194.4,646.9C1194.5,646.9,1194.5,646.9,1194.4,646.9 M1192.8,645.8
		c0.1,0.1,0.3,0.2,0.4,0.3c0,0-0.1-0.1-0.1-0.1C1193,645.9,1192.9,645.9,1192.8,645.8 M1191,644.6c0.3,0.2,0.7,0.5,1,0.7
		c-0.2-0.1-0.4-0.3-0.6-0.4C1191.3,644.8,1191.1,644.7,1191,644.6 M1189.9,643.8c0.3,0.2,0.5,0.4,0.8,0.5c-0.1-0.1-0.3-0.2-0.4-0.3
		C1190.1,644,1190,643.9,1189.9,643.8 M1179,635.2c1.6,1.4,3.3,2.8,4.9,4.2c-0.8-0.7-1.7-1.3-2.5-2c-0.7-0.6-1.4-1.2-2.1-1.8
		C1179.2,635.4,1179.1,635.3,1179,635.2"/>
	<path id="XMLID_261_" class="st6" d="M933.2,523C933.2,523,933.2,523,933.2,523L933.2,523C933.3,523,933.2,523,933.2,523L933.2,523
		"/>
	<path id="XMLID_262_" class="st8" d="M933.2,523C933.2,523,933.3,523,933.2,523L933.2,523L933.2,523"/>
	<path id="XMLID_265_" class="st8" d="M1468.8,943.5C1468.8,943.6,1468.8,943.6,1468.8,943.5c0,0.2,0,0.3,0,0.5
		C1468.8,943.9,1468.8,943.7,1468.8,943.5C1468.8,943.6,1468.8,943.6,1468.8,943.5 M1468.5,937.8c0.1,0.2,0.2,0.4,0.2,0.6
		C1468.7,938.2,1468.6,938,1468.5,937.8"/>
	<path id="XMLID_266_" class="st9" d="M1462.8,936.2L1462.8,936.2L1462.8,936.2c2,3.4,3.9,6.9,5.9,10.4c0,0,0,0,0,0
		c0-0.1,0-0.2,0-0.3c0,0,0-0.1,0-0.1c0-0.2,0-0.3,0-0.5c0-0.5,0-1.1,0-1.6c0-0.2,0-0.3,0-0.5c0,0,0,0,0,0c0-1.6,0-3.1-0.1-4.6
		c0-0.2,0-0.3,0-0.5c0-0.2-0.1-0.4-0.2-0.6c0,0,0,0,0,0c0,0,0,0,0,0c-0.3-0.4-0.8-0.6-1.3-0.7
		C1465.8,936.7,1464.3,936.4,1462.8,936.2"/>
	<path id="XMLID_269_" class="st9" d="M1481,968.1c-0.2,0.1-0.3,0.2-0.5,0.4c0,0,0,0,0,0c0,0,0,0,0,0l0,0l0,0l0,0
		C1480.7,968.4,1480.8,968.3,1481,968.1 M1481,968.1C1481,968.1,1481,968.1,1481,968.1C1481,968.1,1481,968.1,1481,968.1"/>
</g>
</svg>