<svg id="Layer_1" xmlns="http://www.w3.org/2000/svg" viewBox="0 0 1920 1080"><style>.st0{fill:#f16e24}.st1{fill:#e35525}.st2{fill:#e6e6e6}.st3{fill:#f1bc4a}</style><g id="XMLID_282_"><path id="XMLID_307_" class="st0" d="M84.87 1018.506l-28.622-283.05 322.547-32.614 28.62 283.05z"/><path id="XMLID_1167_" class="st1" d="M378.9 702.9L407.5 986 521 857.3l-28.6-283.2z"/><path id="XMLID_305_" class="st2" d="M378.9 702.9v-.1L56.5 735.4l113.3-128.7 322.6-32.6z"/><g id="XMLID_301_"><path id="XMLID_304_" class="st0" d="M54.904 787.5l-6.378-63.076 332.098-33.58 6.378 63.076z"/><path id="XMLID_1171_" class="st1" d="M380.6 690.9L387 754l116.9-132.5-6.4-63.2z"/><path id="XMLID_302_" class="st0" d="M380.6 690.9v-.1l-332 33.6 116.8-132.5 332.1-33.6z"/></g><path id="XMLID_300_" class="st1" d="M385.33 767.126L62.983 799.72l-1.298-12.833 322.347-32.595z"/><path id="XMLID_299_" class="st3" d="M181.204 774.782l79.493-8.038 23.41 231.513-79.493 8.038z"/><path id="XMLID_298_" class="st3" d="M170.912 711.953l79.492-8.038 6.388 63.177-79.492 8.038z"/><path id="XMLID_297_" class="st3" d="M250.4 704l-79.5 8 116.7-132.5 79.6-8z"/><path id="XMLID_296_" class="st3" d="M416.4 650.3v-.1l-332 33.6 45.2-51.3 332.1-33.6z"/><path id="XMLID_295_" class="st3" d="M461.7 598.9l-45.3 51.4 6.3 63-4.3 4.9 23.2 229.1 45.3-51.4L463.7 667l4.4-4.9z"/><path id="XMLID_294_" class="st3" d="M461.7 598.9l-45.3 51.4 6.3 63-4.3 4.9 23.2 229.1 45.3-51.4L463.7 667l4.4-4.9z"/><g id="XMLID_289_"><path id="XMLID_293_" class="st3" d="M320.1 605.9l-10.5 50.3-114.5 11.6-24.2-46.8z"/><path id="XMLID_1173_" class="st3" d="M320.1 605.9l-10.5 50.3 40.3-45.6 10.5-50.4z"/><path id="XMLID_1174_" class="st3" d="M320.1 605.9l-10.5 50.3 40.3-45.6 10.5-50.4z"/><path id="XMLID_290_" class="st3" d="M320.1 605.9L171 621l44.1-46.1 145.3-14.7z"/></g><g id="XMLID_284_"><path id="XMLID_288_" class="st3" d="M300.5 568.9l-7.3 35.2-80.2 8.1-17-32.8z"/><path id="XMLID_1184_" class="st3" d="M300.5 568.9l-7.3 35.3 28.2-32 7.4-35.3z"/><path id="XMLID_1183_" class="st3" d="M300.5 568.9l-7.3 35.3 28.2-32 7.4-35.3z"/><path id="XMLID_285_" class="st3" d="M300.5 568.9L196 579.4l30.9-32.2 101.9-10.3z"/></g><path id="XMLID_283_" class="st3" d="M181.27 774.836l79.79-8.068 1.298 12.834-79.79 8.068z"/></g></svg>