<?xml version="1.0" encoding="utf-8"?>
<!-- Generator: Adobe Illustrator 19.0.0, SVG Export Plug-In . SVG Version: 6.00 Build 0)  -->
<svg version="1.1" id="Layer_1" xmlns="http://www.w3.org/2000/svg" xmlns:xlink="http://www.w3.org/1999/xlink" x="0px" y="0px"
	 viewBox="0 0 1920 1080" style="enable-background:new 0 0 1920 1080;" xml:space="preserve">
<style type="text/css">
	.st0{fill:#F1BC4A;}
	.st1{fill:#F16E24;}
	.st2{fill:#E35525;}
</style>
<g id="XMLID_334_">
	<g id="XMLID_356_">
		<polygon id="XMLID_361_" class="st0" points="621,304.1 524.5,311.8 539.5,350.9 612.4,345 		"/>
		<polygon id="XMLID_360_" class="st0" points="648.8,326.1 640.2,367 612.4,345 621,304.1 		"/>
		<polygon id="XMLID_359_" class="st0" points="640.2,367 567.3,372.8 539.5,350.9 612.4,345 		"/>
		<polygon id="XMLID_358_" class="st0" points="648.8,326.1 640.2,367 612.4,345 621,304.1 		"/>
		<polygon id="XMLID_357_" class="st0" points="640.2,367 567.3,372.8 539.5,350.9 612.4,345 		"/>
	</g>
	<g id="XMLID_350_">
		<polygon id="XMLID_355_" class="st0" points="639.4,332.1 499.1,343.3 520.9,400.1 626.9,391.7 		"/>
		<polygon id="XMLID_354_" class="st0" points="679.8,364 667.3,423.6 626.9,391.7 639.4,332.1 		"/>
		<polygon id="XMLID_353_" class="st0" points="667.3,423.6 561.3,432.1 520.9,400.1 626.9,391.7 		"/>
		<polygon id="XMLID_352_" class="st0" points="679.8,364 667.3,423.6 626.9,391.7 639.4,332.1 		"/>
		<polygon id="XMLID_351_" class="st0" points="667.3,423.6 561.3,432.1 520.9,400.1 626.9,391.7 		"/>
	</g>
	<g id="XMLID_346_">
		
			<rect id="XMLID_349_" x="349.6" y="372.9" transform="matrix(0.9968 -7.963280e-02 7.963280e-02 0.9968 -31.9164 46.1499)" class="st1" width="426.2" height="100.6"/>
		<polygon id="XMLID_348_" class="st2" points="840.7,411.2 848.7,511.4 779.1,456.4 771.1,356.1 		"/>
		<polygon id="XMLID_347_" class="st2" points="848.7,511.4 423.9,545.4 354.2,490.3 779.1,456.4 		"/>
	</g>
	<path id="XMLID_345_" class="st1" d="M796.9,780.4c-50.6,1.7-100.6,4.1-149.7,7.3c-35.4,2.3-70.4,5-104.9,8.1
		c-51.5,4.6-102,10-151.3,16.2l-24.5-306.3l-0.5-6.1l-0.8-10.1l0-0.3l137.9-11l13.8-1.1l88.8-7.1l16.1-1.3L771,456.7l0,0l0,0.3
		l4.8,60.2L796.9,780.4z"/>
	<path id="XMLID_344_" class="st2" d="M859.1,778.8c-3.7,0.1-7.3,0.2-11,0.2c-9.8,0.2-19.5,0.5-29.3,0.7c-7.3,0.2-14.6,0.4-21.9,0.7
		l-21-263.2l-3.5-44l-1.3-16.2l0-0.4l0,0l0.4,0.3h0l23.1,18.2l31.3,24.8l11.8,9.3l0.2,3L859.1,778.8z"/>
	
		<rect id="XMLID_343_" x="365.1" y="472.9" transform="matrix(0.9968 -7.963280e-02 7.963280e-02 0.9968 -36.5131 46.8183)" class="st2" width="407.2" height="16.6"/>
	<path id="XMLID_342_" class="st0" d="M647.2,787.8c-35.4,2.3-70.4,5-104.9,8.1l-20.6-258.3l-3.5-44l-1.3-16.2l0-0.4l88.8-7.1
		l16.1-1.3l0,0.3l1.3,16.2l3.5,44L647.2,787.8z"/>
	
		<rect id="XMLID_341_" x="498.9" y="373.9" transform="matrix(0.9968 -7.963280e-02 7.963280e-02 0.9968 -32.0202 45.1689)" class="st0" width="102.8" height="100.2"/>
	
		<rect id="XMLID_340_" x="517.3" y="472.8" transform="matrix(0.9968 -7.963280e-02 7.963280e-02 0.9968 -36.5018 46.9107)" class="st0" width="105.2" height="16.7"/>
	<g id="XMLID_335_">
		<path id="XMLID_339_" class="st0" d="M848.1,779c-9.8,0.2-19.5,0.5-29.3,0.7l-21.1-264.3l-3.2-40.3l0-0.1l31.3,24.8l0,0.1l1,13.2
			L848.1,779z"/>
		<polygon id="XMLID_338_" class="st0" points="825.9,399.3 833.9,499.6 802.5,474.8 794.5,374.6 		"/>
		<path id="XMLID_337_" class="st0" d="M848.1,779c-9.8,0.2-19.5,0.5-29.3,0.7l-21.1-264.3l-3.2-40.3l0-0.1l31.3,24.8l0,0.1l1,13.2
			L848.1,779z"/>
		<polygon id="XMLID_336_" class="st0" points="825.9,399.3 833.9,499.6 802.5,474.8 794.5,374.6 		"/>
	</g>
</g>
</svg>