<svg id="Layer_1" xmlns="http://www.w3.org/2000/svg" viewBox="0 0 1920 1080"><style>.st0{fill:#f1bc4a}.st1{fill:#f16e24}.st2{fill:#e35525}</style><g id="XMLID_362_"><g id="XMLID_384_"><path id="XMLID_389_" class="st0" d="M1244.6 480.6l60.8 4.2-9.1 24.7-46-3.1z"/><path id="XMLID_388_" class="st0" d="M1227.2 494.6l5.7 25.8 17.4-14-5.7-25.8z"/><path id="XMLID_387_" class="st0" d="M1232.9 520.4l46 3.1 17.4-14-46-3.1z"/><path id="XMLID_386_" class="st0" d="M1227.2 494.6l5.7 25.8 17.4-14-5.7-25.8z"/><path id="XMLID_385_" class="st0" d="M1232.9 520.4l46 3.1 17.4-14-46-3.1z"/></g><g id="XMLID_378_"><path id="XMLID_383_" class="st0" d="M1233.2 498.4l88.5 6.1-13.4 35.9-66.8-4.6z"/><path id="XMLID_382_" class="st0" d="M1208 518.8l8.3 37.4 25.2-20.4-8.3-37.4z"/><path id="XMLID_381_" class="st0" d="M1216.3 556.2l66.8 4.6 25.2-20.4-66.8-4.6z"/><path id="XMLID_380_" class="st0" d="M1208 518.8l8.3 37.4 25.2-20.4-8.3-37.4z"/><path id="XMLID_379_" class="st0" d="M1216.3 556.2l66.8 4.6 25.2-20.4-66.8-4.6z"/></g><g id="XMLID_374_"><path id="XMLID_377_" class="st1" d="M1414.065 596.106l-267.855-18.423 4.35-63.247 267.855 18.422z"/><path id="XMLID_376_" class="st2" d="M1106.9 549.6l-4.3 63.2 43.5-35.1 4.3-63.3z"/><path id="XMLID_375_" class="st2" d="M1102.6 612.8l267.9 18.5 43.5-35.2-267.9-18.4z"/></g><path id="XMLID_373_" class="st1" d="M1407.1 595.4v.2l-.4 6.4-.3 3.9-13.2 191.9c-31.5-3-63.3-5.6-95.6-7.9-21.9-1.6-43.9-3-66.2-4.3-31.1-1.8-62.6-3.3-94.3-4.4l11.4-165.1 1.9-27.7.7-10.2v-.2l94.2 6.5 10.2.7 53.8 3.7 2.2.1 95.6 6.4z"/><path id="XMLID_372_" class="st2" d="M1151.1 577.8v.2l-.7 10.2-1.9 27.7-11.4 165.1c-4.6-.2-9.2-.3-13.8-.5-6.1-.2-12.3-.4-18.4-.6-2.3-.1-4.6-.1-6.9-.2l11.4-166.5.1-1.9 7.3-5.9 19.6-15.8 14.4-11.6.3-.2z"/><path id="XMLID_371_" class="st2" d="M1406.437 605.884l-255.984-17.606.72-10.475 255.985 17.606z"/><path id="XMLID_370_" class="st0" d="M1311.5 588.8v.2l-.7 10.2-1.9 27.7-11.2 162.8c-21.9-1.6-43.9-3-66.2-4.3l11.2-163.1 1.9-27.7.7-10.2v-.2l10.2.7 53.8 3.7 2.2.2z"/><path id="XMLID_369_" class="st0" d="M1320.19 589.463l-64.644-4.446 4.336-63.048 64.645 4.445z"/><path id="XMLID_368_" class="st0" d="M1310.794 599.353l-66.14-4.55.72-10.474 66.14 4.548z"/><g id="XMLID_363_"><path id="XMLID_367_" class="st0" d="M1136.5 589.6l-1.8 25.5-11.4 165.6c-6.1-.2-12.3-.4-18.4-.6l11.4-166.3.6-8.3v-.1l19.6-15.8z"/><path id="XMLID_366_" class="st0" d="M1116.2 542l-4.3 63.3 19.5-15.9 4.4-63.2z"/><path id="XMLID_365_" class="st0" d="M1136.5 589.6l-1.8 25.5-11.4 165.6c-6.1-.2-12.3-.4-18.4-.6l11.4-166.3.6-8.3v-.1l19.6-15.8z"/><path id="XMLID_364_" class="st0" d="M1116.2 542l-4.3 63.3 19.5-15.9 4.4-63.2z"/></g></g></svg>