<svg id="Layer_1" xmlns="http://www.w3.org/2000/svg" viewBox="0 0 1920 1080"><style>.st0{fill:#f16e24}.st1{fill:#e35525}.st2{fill:#e6e6e6}.st3{fill:#f1bc4a}</style><g id="XMLID_308_"><path id="XMLID_333_" class="st0" d="M1530.92 1016.97l25.91-269.653 307.28 29.525-25.91 269.654z"/><path id="XMLID_1180_" class="st1" d="M1556.8 747.3l-25.9 269.7-108.7-122 25.9-269.8z"/><path id="XMLID_331_" class="st2" d="M1556.8 747.3v-.1l307.2 29.5-108.6-122-307.3-29.5z"/><g id="XMLID_327_"><path id="XMLID_330_" class="st0" d="M1549.276 795.964l5.777-60.122 316.438 30.405-5.776 60.122z"/><path id="XMLID_1179_" class="st1" d="M1555.1 735.9l-5.8 60.1-111.9-125.6 5.8-60.2z"/><path id="XMLID_328_" class="st0" d="M1555.1 735.9v-.1l316.3 30.4-111.8-125.6-316.4-30.4z"/></g><path id="XMLID_326_" class="st1" d="M1552.072 796.258l307.18 29.516-1.167 12.144-307.18-29.516z"/><path id="XMLID_325_" class="st3" d="M1724.184 1035.517l-75.75-7.278 21.195-220.582 75.75 7.278z"/><path id="XMLID_324_" class="st3" d="M1749.138 815.264l-75.75-7.278 5.786-60.222 75.75 7.28z"/><path id="XMLID_323_" class="st3" d="M1679.2 747.7l75.7 7.3-111.8-125.6-75.8-7.3z"/><path id="XMLID_322_" class="st3" d="M1520.8 697.4v-.1l316.3 30.4-43.3-48.6-316.4-30.4z"/><path id="XMLID_321_" class="st3" d="M1477.4 648.7l43.4 48.7-5.7 60.1 4.1 4.6-21 218.3-43.4-48.7 21-218.2-4.1-4.7z"/><path id="XMLID_320_" class="st3" d="M1477.4 648.7l43.4 48.7-5.7 60.1 4.1 4.6-21 218.3-43.4-48.7 21-218.2-4.1-4.7z"/><g id="XMLID_315_"><path id="XMLID_319_" class="st3" d="M1612.3 654.6l10.2 47.9 109.1 10.5 22.8-44.7z"/><path id="XMLID_1178_" class="st3" d="M1612.3 654.7l10.2 47.8-38.6-43.3-10.2-47.9z"/><path id="XMLID_1177_" class="st3" d="M1612.3 654.7l10.2 47.8-38.6-43.3-10.2-47.9z"/><path id="XMLID_316_" class="st3" d="M1612.3 654.7v-.1l142.1 13.7-42.2-43.7-138.5-13.3z"/></g><g id="XMLID_310_"><path id="XMLID_314_" class="st3" d="M1630.8 619.3l7.1 33.6 76.5 7.3 16-31.3z"/><path id="XMLID_1176_" class="st3" d="M1630.8 619.3l7.1 33.6-27-30.4-7.2-33.5z"/><path id="XMLID_1175_" class="st3" d="M1630.8 619.3l7.1 33.6-27-30.4-7.2-33.5z"/><path id="XMLID_311_" class="st3" d="M1630.8 619.3l99.5 9.6-29.6-30.6-97-9.3z"/></g><path id="XMLID_309_" class="st3" d="M1744.19 827.06l-76.05-7.307 1.168-12.144 76.05 7.306z"/></g></svg>