<?xml version="1.0" encoding="utf-8"?>
<!-- Generator: Adobe Illustrator 19.0.0, SVG Export Plug-In . SVG Version: 6.00 Build 0)  -->
<svg version="1.1" id="Layer_1" xmlns="http://www.w3.org/2000/svg" xmlns:xlink="http://www.w3.org/1999/xlink" x="0px" y="0px"
	 viewBox="0 0 1920 1080" style="enable-background:new 0 0 1920 1080;" xml:space="preserve">
<style type="text/css">
	.st0{fill:#F16E24;}
	.st1{fill:#E35525;}
	.st2{fill:#E6E6E6;}
	.st3{fill:#F1BC4A;}
</style>
<g id="XMLID_308_">
	
		<rect id="XMLID_333_" x="1562" y="742.5" transform="matrix(9.564357e-02 -0.9954 0.9954 9.564357e-02 642.4406 2500.7705)" class="st0" width="270.9" height="308.7"/>
	<polygon id="XMLID_1180_" class="st1" points="1556.8,747.3 1530.9,1017 1422.2,895 1448.1,625.2 	"/>
	<polygon id="XMLID_331_" class="st2" points="1556.8,747.3 1556.8,747.2 1864,776.7 1755.4,654.7 1448.1,625.2 	"/>
	<g id="XMLID_327_">
		
			<rect id="XMLID_330_" x="1680.2" y="622.1" transform="matrix(9.564357e-02 -0.9954 0.9954 9.564357e-02 769.3376 2408.9355)" class="st0" width="60.4" height="317.9"/>
		<polygon id="XMLID_1179_" class="st1" points="1555.1,735.9 1549.3,796 1437.4,670.4 1443.2,610.2 		"/>
		<polygon id="XMLID_328_" class="st0" points="1555.1,735.9 1555.1,735.8 1871.4,766.2 1759.6,640.6 1443.2,610.2 		"/>
	</g>
	
		<rect id="XMLID_326_" x="1550.8" y="811" transform="matrix(0.9954 9.564357e-02 -9.564357e-02 0.9954 85.9722 -159.3352)" class="st1" width="308.6" height="12.2"/>
	
		<rect id="XMLID_325_" x="1658.9" y="810.7" transform="matrix(-0.9954 -9.564357e-02 9.564357e-02 -0.9954 3297.915 2001.1509)" class="st3" width="76.1" height="221.6"/>
	
		<rect id="XMLID_324_" x="1676.1" y="751.2" transform="matrix(-0.9954 -9.564357e-02 9.564357e-02 -0.9954 3345.6802 1723.3169)" class="st3" width="76.1" height="60.5"/>
	<polygon id="XMLID_323_" class="st3" points="1679.2,747.7 1754.9,755 1643.1,629.4 1567.3,622.1 	"/>
	<polygon id="XMLID_322_" class="st3" points="1520.8,697.4 1520.8,697.3 1837.1,727.7 1793.8,679.1 1477.4,648.7 	"/>
	<polygon id="XMLID_321_" class="st3" points="1477.4,648.7 1520.8,697.4 1515.1,757.5 1519.2,762.1 1498.2,980.4 1454.8,931.7 
		1475.8,713.5 1471.7,708.8 	"/>
	<polygon id="XMLID_320_" class="st3" points="1477.4,648.7 1520.8,697.4 1515.1,757.5 1519.2,762.1 1498.2,980.4 1454.8,931.7 
		1475.8,713.5 1471.7,708.8 	"/>
	<g id="XMLID_315_">
		<polygon id="XMLID_319_" class="st3" points="1612.3,654.6 1622.5,702.5 1731.6,713 1754.4,668.3 		"/>
		<polygon id="XMLID_1178_" class="st3" points="1612.3,654.7 1622.5,702.5 1583.9,659.2 1573.7,611.3 		"/>
		<polygon id="XMLID_1177_" class="st3" points="1612.3,654.7 1622.5,702.5 1583.9,659.2 1573.7,611.3 		"/>
		<polygon id="XMLID_316_" class="st3" points="1612.3,654.7 1612.3,654.6 1754.4,668.3 1712.2,624.6 1573.7,611.3 		"/>
	</g>
	<g id="XMLID_310_">
		<polygon id="XMLID_314_" class="st3" points="1630.8,619.3 1637.9,652.9 1714.4,660.2 1730.4,628.9 		"/>
		<polygon id="XMLID_1176_" class="st3" points="1630.8,619.3 1637.9,652.9 1610.9,622.5 1603.7,589 		"/>
		<polygon id="XMLID_1175_" class="st3" points="1630.8,619.3 1637.9,652.9 1610.9,622.5 1603.7,589 		"/>
		<polygon id="XMLID_311_" class="st3" points="1630.8,619.3 1630.8,619.3 1730.3,628.9 1700.7,598.3 1603.7,589 		"/>
	</g>
	
		<rect id="XMLID_309_" x="1668.6" y="811.2" transform="matrix(-0.9954 -9.564357e-02 9.564357e-02 -0.9954 3327.5283 1794.1196)" class="st3" width="76.4" height="12.2"/>
</g>
</svg>