<?xml version="1.0" encoding="utf-8"?>
<!-- Generator: Adobe Illustrator 19.0.0, SVG Export Plug-In . SVG Version: 6.00 Build 0)  -->
<svg version="1.1" id="Layer_1" xmlns="http://www.w3.org/2000/svg" xmlns:xlink="http://www.w3.org/1999/xlink" x="0px" y="0px"
	 viewBox="0 0 1920 1080" style="enable-background:new 0 0 1920 1080;" xml:space="preserve">
<style type="text/css">
	.st0{fill:#F16E24;}
	.st1{fill:#E35525;}
	.st2{fill:#E6E6E6;}
	.st3{fill:#F1BC4A;}
</style>
<g id="XMLID_282_">
	
		<rect id="XMLID_307_" x="89.6" y="698.5" transform="matrix(-0.1006 -0.9949 0.9949 -0.1006 -601.0549 1177.9177)" class="st0" width="284.5" height="324.2"/>
	<polygon id="XMLID_1167_" class="st1" points="378.9,702.9 407.5,986 521,857.3 492.4,574.1 	"/>
	<polygon id="XMLID_305_" class="st2" points="378.9,702.9 378.9,702.8 56.5,735.4 169.8,606.7 492.4,574.1 	"/>
	<g id="XMLID_301_">
		
			<rect id="XMLID_304_" x="186" y="572.3" transform="matrix(-0.1006 -0.9949 0.9949 -0.1006 -495.7654 1030.1252)" class="st0" width="63.4" height="333.8"/>
		<polygon id="XMLID_1171_" class="st1" points="380.6,690.9 387,754 503.9,621.5 497.5,558.3 		"/>
		<polygon id="XMLID_302_" class="st0" points="380.6,690.9 380.6,690.8 48.6,724.4 165.4,591.9 497.5,558.3 		"/>
	</g>
	
		<rect id="XMLID_300_" x="61.5" y="770.6" transform="matrix(-0.9949 0.1006 -0.1006 -0.9949 524.0389 1527.6094)" class="st1" width="324" height="12.9"/>
	
		<rect id="XMLID_299_" x="192.7" y="770.2" transform="matrix(0.9949 -0.1006 0.1006 0.9949 -87.9951 27.8955)" class="st3" width="79.9" height="232.7"/>
	
		<rect id="XMLID_298_" x="173.9" y="707.8" transform="matrix(0.9949 -0.1006 0.1006 0.9949 -73.306 25.2575)" class="st3" width="79.9" height="63.5"/>
	<polygon id="XMLID_297_" class="st3" points="250.4,704 170.9,712 287.6,579.5 367.2,571.5 	"/>
	<polygon id="XMLID_296_" class="st3" points="416.4,650.3 416.4,650.2 84.4,683.8 129.6,632.5 461.7,598.9 	"/>
	<polygon id="XMLID_295_" class="st3" points="461.7,598.9 416.4,650.3 422.7,713.3 418.4,718.2 441.6,947.3 486.9,895.9 463.7,667 
		468.1,662.1 	"/>
	<polygon id="XMLID_294_" class="st3" points="461.7,598.9 416.4,650.3 422.7,713.3 418.4,718.2 441.6,947.3 486.9,895.9 463.7,667 
		468.1,662.1 	"/>
	<g id="XMLID_289_">
		<polygon id="XMLID_293_" class="st3" points="320.1,605.9 309.6,656.2 195.1,667.8 170.9,621 		"/>
		<polygon id="XMLID_1173_" class="st3" points="320.1,605.9 309.6,656.2 349.9,610.6 360.4,560.2 		"/>
		<polygon id="XMLID_1174_" class="st3" points="320.1,605.9 309.6,656.2 349.9,610.6 360.4,560.2 		"/>
		<polygon id="XMLID_290_" class="st3" points="320.1,605.9 320.1,605.9 171,621 215.1,574.9 360.4,560.2 		"/>
	</g>
	<g id="XMLID_284_">
		<polygon id="XMLID_288_" class="st3" points="300.5,568.9 293.2,604.1 213,612.2 196,579.4 		"/>
		<polygon id="XMLID_1184_" class="st3" points="300.5,568.9 293.2,604.2 321.4,572.2 328.8,536.9 		"/>
		<polygon id="XMLID_1183_" class="st3" points="300.5,568.9 293.2,604.2 321.4,572.2 328.8,536.9 		"/>
		<polygon id="XMLID_285_" class="st3" points="300.5,568.9 300.5,568.9 196,579.4 226.9,547.2 328.8,536.9 		"/>
	</g>
	
		<rect id="XMLID_283_" x="181.7" y="770.8" transform="matrix(0.9949 -0.1006 0.1006 0.9949 -77.047 26.2463)" class="st3" width="80.2" height="12.9"/>
</g>
</svg>