<?xml version="1.0" encoding="utf-8"?>
<!-- Generator: Adobe Illustrator 19.0.0, SVG Export Plug-In . SVG Version: 6.00 Build 0)  -->
<svg version="1.1" id="Layer_1" xmlns="http://www.w3.org/2000/svg" xmlns:xlink="http://www.w3.org/1999/xlink" x="0px" y="0px"
	 viewBox="0 0 1920 1080" style="enable-background:new 0 0 1920 1080;" xml:space="preserve">
<style type="text/css">
	.st0{fill:#F1BC4A;}
	.st1{fill:#F16E24;}
	.st2{fill:#E35525;}
</style>
<g id="XMLID_362_">
	<g id="XMLID_384_">
		<polygon id="XMLID_389_" class="st0" points="1244.6,480.6 1305.4,484.8 1296.3,509.5 1250.3,506.4 		"/>
		<polygon id="XMLID_388_" class="st0" points="1227.2,494.6 1232.9,520.4 1250.3,506.4 1244.6,480.6 		"/>
		<polygon id="XMLID_387_" class="st0" points="1232.9,520.4 1278.9,523.5 1296.3,509.5 1250.3,506.4 		"/>
		<polygon id="XMLID_386_" class="st0" points="1227.2,494.6 1232.9,520.4 1250.3,506.4 1244.6,480.6 		"/>
		<polygon id="XMLID_385_" class="st0" points="1232.9,520.4 1278.9,523.5 1296.3,509.5 1250.3,506.4 		"/>
	</g>
	<g id="XMLID_378_">
		<polygon id="XMLID_383_" class="st0" points="1233.2,498.4 1321.7,504.5 1308.3,540.4 1241.5,535.8 		"/>
		<polygon id="XMLID_382_" class="st0" points="1208,518.8 1216.3,556.2 1241.5,535.8 1233.2,498.4 		"/>
		<polygon id="XMLID_381_" class="st0" points="1216.3,556.2 1283.1,560.8 1308.3,540.4 1241.5,535.8 		"/>
		<polygon id="XMLID_380_" class="st0" points="1208,518.8 1216.3,556.2 1241.5,535.8 1233.2,498.4 		"/>
		<polygon id="XMLID_379_" class="st0" points="1216.3,556.2 1283.1,560.8 1308.3,540.4 1241.5,535.8 		"/>
	</g>
	<g id="XMLID_374_">
		
			<rect id="XMLID_377_" x="1147.9" y="523.6" transform="matrix(-0.9976 -6.861264e-02 6.861264e-02 -0.9976 2523.2849 1197.2098)" class="st1" width="268.5" height="63.4"/>
		<polygon id="XMLID_376_" class="st2" points="1106.9,549.6 1102.6,612.8 1146.1,577.7 1150.4,514.4 		"/>
		<polygon id="XMLID_375_" class="st2" points="1102.6,612.8 1370.5,631.3 1414,596.1 1146.1,577.7 		"/>
	</g>
	<path id="XMLID_373_" class="st1" d="M1407.1,595.4l0,0.2l-0.4,6.4l-0.3,3.9l-13.2,191.9c-31.5-3-63.3-5.6-95.6-7.9
		c-21.9-1.6-43.9-3-66.2-4.3c-31.1-1.8-62.6-3.3-94.3-4.4l11.4-165.1l1.9-27.7l0.7-10.2l0-0.2l94.2,6.5l10.2,0.7l53.8,3.7l2.2,0.1
		L1407.1,595.4z"/>
	<path id="XMLID_372_" class="st2" d="M1151.1,577.8l0,0.2l-0.7,10.2l-1.9,27.7l-11.4,165.1c-4.6-0.2-9.2-0.3-13.8-0.5
		c-6.1-0.2-12.3-0.4-18.4-0.6c-2.3-0.1-4.6-0.1-6.9-0.2l11.4-166.5l0.1-1.9l7.3-5.9l19.6-15.8h0l14.4-11.6L1151.1,577.8z"/>
	
		<rect id="XMLID_371_" x="1150.5" y="586.6" transform="matrix(-0.9976 -6.861264e-02 6.861264e-02 -0.9976 2513.928 1270.0149)" class="st2" width="256.6" height="10.5"/>
	<path id="XMLID_370_" class="st0" d="M1311.5,588.8l0,0.2l-0.7,10.2v0l-1.9,27.7l-11.2,162.8c-21.9-1.6-43.9-3-66.2-4.3l11.2-163.1
		l1.9-27.7l0.7-10.2l0-0.2l10.2,0.7l53.8,3.7L1311.5,588.8z"/>
	
		<rect id="XMLID_369_" x="1257.6" y="524.1" transform="matrix(-0.9976 -6.861264e-02 6.861264e-02 -0.9976 2538.8125 1198.5924)" class="st0" width="64.8" height="63.2"/>
	
		<rect id="XMLID_368_" x="1244.9" y="586.5" transform="matrix(-0.9976 -6.861264e-02 6.861264e-02 -0.9976 2512.4651 1269.8615)" class="st0" width="66.3" height="10.5"/>
	<g id="XMLID_363_">
		<path id="XMLID_367_" class="st0" d="M1136.5,589.6L1136.5,589.6L1136.5,589.6l-1.8,25.5l-11.4,165.6c-6.1-0.2-12.3-0.4-18.4-0.6
			l11.4-166.3l0.6-8.3l0-0.1L1136.5,589.6z"/>
		<polygon id="XMLID_366_" class="st0" points="1116.2,542 1111.9,605.3 1131.4,589.4 1135.8,526.2 		"/>
		<path id="XMLID_365_" class="st0" d="M1136.5,589.6L1136.5,589.6L1136.5,589.6l-1.8,25.5l-11.4,165.6c-6.1-0.2-12.3-0.4-18.4-0.6
			l11.4-166.3l0.6-8.3l0-0.1L1136.5,589.6z"/>
		<polygon id="XMLID_364_" class="st0" points="1116.2,542 1111.9,605.3 1131.4,589.4 1135.8,526.2 		"/>
	</g>
</g>
</svg>