<?xml version="1.0" encoding="utf-8"?>
<!-- Generator: Adobe Illustrator 19.0.0, SVG Export Plug-In . SVG Version: 6.00 Build 0)  -->
<svg version="1.1" id="Layer_1" xmlns="http://www.w3.org/2000/svg" xmlns:xlink="http://www.w3.org/1999/xlink" x="0px" y="0px"
	 viewBox="0 0 1920 1080" style="enable-background:new 0 0 1920 1080;" xml:space="preserve">
<style type="text/css">
	.st0{fill:#373536;}
	.st1{fill:#F1F1F1;}
	.st2{fill:#D0D1D2;}
	.st3{fill:#BABCBE;}
	.st4{fill:#454547;}
	.st5{fill:#A5A7AA;}
	.st6{fill:#F1F1F2;}
	.st7{fill:#D0D2D3;}
	.st8{fill:#F26E21;}
	.st9{fill:#FFFFFF;}
	.st10{fill:#929497;}
	.st11{fill:#FFFFFF;stroke:#FFFFFF;stroke-miterlimit:10;}
	.st12{fill:none;stroke:#BBBDBF;stroke-width:0.5;stroke-miterlimit:10;}
</style>
<g>
	<g id="XMLID_1191_">
		<path id="XMLID_1202_" class="st0" d="M1153.3,938.1H764.8V693.5c0-6.8,5.5-12.3,12.3-12.3H1141c6.8,0,12.3,5.5,12.3,12.3V938.1z"
			/>
		<rect id="XMLID_1201_" x="780.1" y="702.3" class="st1" width="357.9" height="211.5"/>
		<polygon id="XMLID_1200_" class="st2" points="1203.3,984.5 714.8,984.5 764.8,938.1 1153.3,938.1 		"/>
		<path id="XMLID_1199_" class="st3" d="M1189.9,994.4H728.2c-4.1,0-13.4-2.7-13.4-6.1v-3.8h488.5v3.8
			C1203.3,991.7,1194,994.4,1189.9,994.4z"/>
		<g id="XMLID_1196_">
			<polygon id="XMLID_1198_" class="st4" points="1145.6,957.8 772.6,957.8 792,939.7 1126.1,939.7 			"/>
			<rect id="XMLID_1197_" x="772.6" y="957.8" class="st0" width="373" height="2.5"/>
		</g>
		<polygon id="XMLID_1195_" class="st3" points="788.4,939.7 762.6,963.6 741.3,963.6 767,939.7 		"/>
		<polygon id="XMLID_1194_" class="st3" points="1129.6,939.7 1155.3,963.6 1176.7,963.6 1151,939.7 		"/>
		<polygon id="XMLID_1193_" class="st3" points="1016.4,976 901.8,976 912.8,964.7 1005.3,964.7 		"/>
		<path id="XMLID_1192_" class="st5" d="M988.9,988.5h-59.7c-2.2,0-4-1.8-4-4l0,0c0-2.2,1.8-4,4-4h59.7c2.2,0,4,1.8,4,4l0,0
			C993,986.7,991.2,988.5,988.9,988.5z"/>
	</g>
	<g>
		<rect id="XMLID_1190_" x="780.1" y="702.3" class="st6" width="357.9" height="211.5"/>
		<rect x="780.1" y="702.3" class="st7" width="357.9" height="9.8"/>
		<circle class="st8" cx="786.3" cy="707.2" r="2.1"/>
		<circle class="st8" cx="793.3" cy="707.2" r="2.1"/>
		<circle class="st8" cx="800.1" cy="707.2" r="2.1"/>
		<g>
			<rect x="855.7" y="740.8" class="st8" width="206.8" height="19.1"/>
			<rect x="855.7" y="765.8" class="st8" width="145.5" height="19.1"/>
			<rect x="1004.2" y="784.8" class="st8" width="58.3" height="55.5"/>
			<rect x="855.7" y="884.7" class="st8" width="145.5" height="15.4"/>
			<rect x="855.7" y="784.8" class="st9" width="145.5" height="99.8"/>
			<rect x="1010.7" y="747.8" class="st9" width="43" height="5.1"/>
			<rect x="862.8" y="772.7" class="st9" width="38.4" height="5.1"/>
			<rect x="882" y="789.5" class="st10" width="38.4" height="5.1"/>
			<rect x="874.5" y="722.2" class="st10" width="26.6" height="8.8"/>
			<rect x="882" y="796.3" class="st10" width="21.4" height="1.2"/>
			<rect x="882" y="799.2" class="st10" width="21.4" height="1.2"/>
			<rect x="882" y="802.2" class="st10" width="21.4" height="1.2"/>
			<rect x="882" y="814.3" class="st10" width="44.1" height="5.1"/>
			<rect x="882" y="821.1" class="st10" width="21.4" height="1.2"/>
			<rect x="882" y="824.1" class="st10" width="21.4" height="1.2"/>
			<rect x="882" y="827" class="st10" width="21.4" height="1.2"/>
			<rect x="1010.7" y="792.3" class="st9" width="43" height="5.1"/>
			<rect x="1010.7" y="803" class="st9" width="43" height="5.1"/>
			<rect x="1010.7" y="813.1" class="st9" width="43" height="5.1"/>
			<rect x="971.4" y="889.8" class="st9" width="19.2" height="5.1"/>
			<rect x="947.6" y="889.8" class="st9" width="19.2" height="5.1"/>
			<rect x="923.9" y="889.8" class="st9" width="19.2" height="5.1"/>
			<circle class="st9" cx="946.6" cy="750.4" r="4.9"/>
			<circle class="st11" cx="928.9" cy="750.4" r="4.9"/>
			<circle class="st11" cx="964.3" cy="750.4" r="4.9"/>
			<rect x="862.8" y="789.5" class="st10" width="13.5" height="13.5"/>
			<rect x="862.8" y="814.5" class="st10" width="13.5" height="13.5"/>
			<rect x="882" y="840.1" class="st10" width="28.7" height="5.1"/>
			<rect x="882" y="846.9" class="st10" width="21.4" height="1.2"/>
			<rect x="882" y="849.9" class="st10" width="21.4" height="1.2"/>
			<rect x="882" y="852.8" class="st10" width="21.4" height="1.2"/>
			<rect x="862.8" y="840.3" class="st10" width="13.5" height="13.5"/>
			<line class="st12" x1="855.7" y1="810.1" x2="1001.1" y2="810.1"/>
			<line class="st12" x1="855.7" y1="836.1" x2="1001.1" y2="836.1"/>
			<rect x="882" y="865.9" class="st10" width="50.7" height="5.1"/>
			<rect x="882" y="872.6" class="st10" width="21.4" height="1.2"/>
			<rect x="882" y="875.6" class="st10" width="21.4" height="1.2"/>
			<rect x="882" y="878.6" class="st10" width="21.4" height="1.2"/>
			<rect x="862.8" y="866.1" class="st10" width="13.5" height="13.5"/>
			<line class="st12" x1="855.7" y1="861.8" x2="1001.1" y2="861.8"/>
			<path class="st8" d="M865.6,729.6c0-0.1,0-0.3-0.1-0.4v0c-0.1-0.7-0.5-1.3-1-1.7c-0.5-0.4-1.1-0.7-1.8-0.7c0,0-0.1,0-0.1,0h-0.1
				c0,0-0.1,0-0.1,0c-0.6,0-1.1,0.2-1.5,0.5c0,0,0,0,0,0c-0.6,0.4-0.9,1.1-0.9,1.8c0,1.2,1,2,2,2c0.3,0,0.5,0,0.7-0.1
				c0.5-0.2,0.9-0.7,0.9-1.3c0-0.6-0.4-1-0.8-1.1c-0.1,0-0.1,0-0.2,0c-0.5,0-1,0.3-1,0.8h-0.7l0,0c0-0.8,0.7-1.4,1.6-1.4
				c0.1,0,0.1,0,0.2,0c0.8,0.1,1.5,0.7,1.5,1.7c0,1-0.6,1.7-1.5,2c-0.2,0.1-0.5,0.1-0.7,0.1c-1.3,0-2.3-0.9-2.6-2.1
				c0-0.2-0.1-0.4-0.1-0.6c0-0.3,0.1-0.7,0.2-1c0.2-0.6,0.6-1,1.1-1.4c-1,0.6-1.6,1.7-1.6,2.9c0,1.9,1.5,3.4,3.3,3.5h0
				c0.1,0,0.3,0,0.4,0c0.2,0,0.4-0.1,0.5-0.1h0c0,0,0.1,0,0.1,0c0.1,0,0.2-0.1,0.3-0.1c0.1,0,0.2-0.1,0.3-0.1c0.1,0,0.1-0.1,0.2-0.1
				c0.1-0.1,0.2-0.1,0.3-0.2c0,0,0,0,0,0c0,0,0,0,0.1-0.1c0.6-0.6,1-1.4,1-2.3C865.6,729.8,865.6,729.7,865.6,729.6"/>
			<path class="st8" d="M866.4,723c0.4,0,0.7,0.3,0.7,0.7c0,0.4-0.3,0.7-0.7,0.7c-0.4,0-0.7-0.3-0.7-0.7
				C865.7,723.3,866,723,866.4,723 M860.6,726.6c0,0,0.1,0,0.1-0.1c0,0,0.1-0.1,0.1-0.1c0,0,0,0,0,0c0,0,0.1,0,0.1-0.1
				c0.5-0.2,1-0.3,1.6-0.3h6.6c0.3,0,0.5-0.3,0.5-0.6c-0.3-3.2-2.8-6-5.9-6.4c-0.3,0-0.6,0.2-0.6,0.5l0,0.6c0,0,0,0,0,0.1
				c0,0.1-0.1,0.2-0.2,0.3c-0.1,0.1-0.2,0.1-0.3,0.1c-0.1,0-0.2,0-0.3-0.1c-0.1-0.1-0.1-0.2-0.1-0.3v-0.6c0-0.3-0.3-0.6-0.6-0.5
				c-3.4,0.5-6,3.4-6,6.9h0v0.1c0,0.9,0.2,1.8,0.5,2.6c0.7,1.8,2.1,3.2,3.9,3.9h0c0.1,0,0.5,0.2,1.2,0.3c0.1,0,0.2,0,0.2,0
				c0,0,0,0,0,0c0.3,0,0.5,0,0.8,0c-1.8-0.1-3.3-1.6-3.3-3.5c0-0.4,0.1-0.8,0.2-1.2C859.5,727.7,860,727,860.6,726.6"/>
		</g>
	</g>
	<rect x="996.4" y="784.8" class="st7" width="4.8" height="99.8"/>
	<rect x="997.3" y="798.3" class="st10" width="3" height="32"/>
</g>
</svg>