<svg id="Layer_1" xmlns="http://www.w3.org/2000/svg" viewBox="0 0 1920 1080"><style>.st0{fill:#f1f1f1}.st1{fill:#d0d2d3}.st2{fill:#d6d4db}.st3{fill:#cecbd3}.st4{fill:#b3b2b9}</style><g id="XMLID_53_"><path id="XMLID_281_" class="st0" d="M396.5 300.8c0 52.1-42.3 94.4-94.4 94.4-52.1 0-94.4-42.3-94.4-94.4s42.3-94.4 94.4-94.4c52.2 0 94.4 42.3 94.4 94.4"/><path id="XMLID_280_" class="st1" d="M266.4 343.1c-8.1-5.4-17.7-5.2-21.4.4-3.7 5.6-.2 14.5 7.9 19.8 8.1 5.4 17.7 5.2 21.4-.4 3.8-5.6.2-14.4-7.9-19.8"/><path id="XMLID_279_" class="st1" d="M294.2 364.1c-4-1.1-7.8.3-8.5 3.1s1.9 5.8 5.9 6.9c.4.1.8.2 1.2.2-.3.2-.4.5-.5.8-.2 1.2 1.2 2.4 3.2 2.9 2 .4 3.8-.2 4.1-1.4.2-1-.8-2.1-2.4-2.6 1.5-.6 2.6-1.6 3-2.9.7-2.9-2-6-6-7z"/><path id="XMLID_278_" class="st1" d="M267.7 374c-2.6-1.7-5.6-1.9-6.6-.4s.3 4.2 2.9 5.9c2.6 1.7 5.6 1.9 6.6.4 1.1-1.5-.2-4.1-2.9-5.9"/><ellipse id="XMLID_277_" transform="rotate(36.06 342.65 246.816)" class="st1" cx="342.6" cy="246.8" rx="10.7" ry="8.3"/><path id="XMLID_276_" class="st1" d="M237.6 262.8c2.5-4.1 2-9-1.1-11-3.2-2-7.8-.2-10.4 3.9-2.5 4.1-2 9 1.1 11 3.2 1.9 7.8.2 10.4-3.9"/><path id="XMLID_275_" class="st1" d="M241.4 268.5c-1.2-.7-2.9-.1-3.8 1.4-.4.6-.5 1.2-.6 1.8-1.8-.9-4.3.1-5.6 2.3-1.4 2.3-1.2 5.1.6 6.2 1.8 1.1 4.4.1 5.9-2.2.8-1.2 1-2.6.8-3.8 1.1.2 2.4-.4 3.1-1.7 1-1.5.8-3.3-.4-4"/><ellipse id="XMLID_274_" transform="rotate(-58.258 237.162 284.34)" class="st1" cx="237.2" cy="284.3" rx="1.9" ry="1.5"/><ellipse id="XMLID_273_" transform="rotate(-87.196 360.12 307.54)" class="st1" cx="360.1" cy="307.5" rx="26.7" ry="23.6"/><path id="XMLID_272_" class="st1" d="M287.3 287.2c1.9-.7 3.2-2.5 3.2-4.6 0-2.7-2.2-4.9-4.9-4.9-2.1 0-3.9 1.4-4.6 3.3-.6-.1-1.1-.2-1.7-.2-4.6 0-8.3 3.7-8.3 8.3 0 4.6 3.7 8.3 8.3 8.3 4.6 0 8.3-3.7 8.3-8.3-.1-.7-.2-1.3-.3-1.9z"/><circle id="XMLID_106_" class="st1" cx="295.9" cy="299" r="4.9"/><circle id="XMLID_91_" class="st1" cx="297.5" cy="286.1" r="2.8"/><path id="XMLID_64_" class="st2" d="M302.4 395.2h-.3.3m.3 0h-.2.2m.3 0h-.2.2m.3 0h-.2.2m.3 0h-.2.2m.3 0h-.2.2m.3 0h-.2.2m.3 0h-.2.2m1.9-.1c-.6 0-1.2 0-1.8.1.6 0 1.2 0 1.8-.1m.6 0h-.6.6m57.2-23.1c-.1 0-.1 0 0 0-15.5 13.5-35.3 22-57.2 23.1 21.8-1.1 41.7-9.6 57.2-23.1m-62.1-165.6c-52.1 0-94.4 42.3-94.4 94.4 0 15.5 3.7 30.1 10.3 43-6.6-12.9-10.3-27.5-10.3-43 0-52.1 42.3-94.4 94.4-94.4 23.8 0 45.5 8.8 62.1 23.3-16.6-14.5-38.3-23.3-62.1-23.3"/><path id="XMLID_58_" class="st3" d="M268.2 381c-1.3 0-2.8-.5-4.2-1.4-2.6-1.7-3.9-4.4-2.9-5.9.5-.7 1.3-1 2.4-1 1.3 0 2.8.5 4.2 1.4 2.6 1.7 3.9 4.4 2.9 5.9-.4.7-1.3 1-2.4 1m-38.1-113.5c-1 0-2-.3-2.9-.8-3.2-2-3.7-6.9-1.1-11 1.8-3 4.8-4.7 7.4-4.7 1 0 2 .3 2.9.8 3.2 2 3.7 6.9 1.1 11-1.8 2.9-4.7 4.7-7.4 4.7m72-61.1c-52.1 0-94.4 42.3-94.4 94.4 0 15.5 3.7 30.1 10.3 43 15.6 30.5 47.4 51.4 84.1 51.4h2.4c.6 0 1.2 0 1.8-.1h.6c21.8-1.1 41.7-9.6 57.1-23.1-13.8 9.3-30.4 14.8-48.2 14.8-21 0-40.3-7.6-55.3-20.1-2.5-.6-5.2-1.7-7.6-3.4-6.3-4.2-9.9-10.6-9.3-15.8-8.7-13.4-13.7-29.5-13.7-46.6 0-7 .8-13.8 2.4-20.4-.1-.1-.2-.1-.4-.2-1.8-1.1-2.1-3.9-.6-6.2.9-1.5 2.4-2.5 3.7-2.6 12-33 43.7-56.6 80.8-56.6 17.9 0 34.5 5.5 48.3 14.8-16.5-14.5-38.2-23.3-62-23.3"/><path id="XMLID_57_" class="st4" d="M243.7 347.5c-.6 5.2 3 11.6 9.3 15.8 2.5 1.6 5.1 2.8 7.6 3.4-6.5-5.5-12.3-12-16.9-19.2"/><path id="XMLID_56_" class="st4" d="M263.6 372.6c-1.1 0-1.9.3-2.4 1-1 1.5.3 4.2 2.9 5.9 1.4.9 2.9 1.4 4.2 1.4 1.1 0 1.9-.3 2.4-1 1-1.5-.3-4.2-2.9-5.9-1.5-.9-3-1.4-4.2-1.4"/><path id="XMLID_55_" class="st4" d="M233.5 251c-2.7 0-5.6 1.7-7.4 4.7-2.5 4.1-2 9 1.1 11 .9.5 1.9.8 2.9.8 2.7 0 5.6-1.7 7.4-4.7 2.5-4.1 2-9-1.1-11-.9-.6-1.9-.8-2.9-.8"/><path id="XMLID_54_" class="st4" d="M235.1 271.4c-1.4.2-2.8 1.1-3.7 2.6-1.4 2.3-1.2 5.1.6 6.2.1.1.2.1.4.2.7-3 1.6-6.1 2.7-9"/></g></svg>