<?xml version="1.0" encoding="utf-8"?>
<!-- Generator: Adobe Illustrator 19.0.0, SVG Export Plug-In . SVG Version: 6.00 Build 0)  -->
<svg version="1.1" id="Layer_1" xmlns="http://www.w3.org/2000/svg" xmlns:xlink="http://www.w3.org/1999/xlink" x="0px" y="0px"
	 viewBox="0 0 1920 1080" style="enable-background:new 0 0 1920 1080;" xml:space="preserve">
<style type="text/css">
	.st0{fill:#F1F1F1;}
	.st1{fill:#D0D2D3;}
	.st2{fill:#D6D4DB;}
	.st3{fill:#CECBD3;}
	.st4{fill:#B3B2B9;}
</style>
<g id="XMLID_53_">
	<path id="XMLID_281_" class="st0" d="M396.5,300.8c0,52.1-42.3,94.4-94.4,94.4c-52.1,0-94.4-42.3-94.4-94.4s42.3-94.4,94.4-94.4
		C354.3,206.4,396.5,248.7,396.5,300.8"/>
	<path id="XMLID_280_" class="st1" d="M266.4,343.1c-8.1-5.4-17.7-5.2-21.4,0.4c-3.7,5.6-0.2,14.5,7.9,19.8
		c8.1,5.4,17.7,5.2,21.4-0.4C278.1,357.3,274.5,348.5,266.4,343.1"/>
	<path id="XMLID_279_" class="st1" d="M294.2,364.1c-4-1.1-7.8,0.3-8.5,3.1s1.9,5.8,5.9,6.9c0.4,0.1,0.8,0.2,1.2,0.2
		c-0.3,0.2-0.4,0.5-0.5,0.8c-0.2,1.2,1.2,2.4,3.2,2.9c2,0.4,3.8-0.2,4.1-1.4c0.2-1-0.8-2.1-2.4-2.6c1.5-0.6,2.6-1.6,3-2.9
		C300.9,368.2,298.2,365.1,294.2,364.1z"/>
	<path id="XMLID_278_" class="st1" d="M267.7,374c-2.6-1.7-5.6-1.9-6.6-0.4s0.3,4.2,2.9,5.9c2.6,1.7,5.6,1.9,6.6,0.4
		C271.7,378.4,270.4,375.8,267.7,374"/>
	
		<ellipse id="XMLID_277_" transform="matrix(0.8084 0.5886 -0.5886 0.8084 210.9276 -154.3937)" class="st1" cx="342.6" cy="246.8" rx="10.7" ry="8.3"/>
	<path id="XMLID_276_" class="st1" d="M237.6,262.8c2.5-4.1,2-9-1.1-11c-3.2-2-7.8-0.2-10.4,3.9c-2.5,4.1-2,9,1.1,11
		C230.4,268.6,235,266.9,237.6,262.8"/>
	<path id="XMLID_275_" class="st1" d="M241.4,268.5c-1.2-0.7-2.9-0.1-3.8,1.4c-0.4,0.6-0.5,1.2-0.6,1.8c-1.8-0.9-4.3,0.1-5.6,2.3
		c-1.4,2.3-1.2,5.1,0.6,6.2c1.8,1.1,4.4,0.1,5.9-2.2c0.8-1.2,1-2.6,0.8-3.8c1.1,0.2,2.4-0.4,3.1-1.7
		C242.8,271,242.6,269.2,241.4,268.5"/>
	
		<ellipse id="XMLID_274_" transform="matrix(0.5261 -0.8504 0.8504 0.5261 -129.4123 336.4315)" class="st1" cx="237.2" cy="284.3" rx="1.9" ry="1.5"/>
	
		<ellipse id="XMLID_273_" transform="matrix(4.892645e-02 -0.9988 0.9988 4.892645e-02 35.3272 652.181)" class="st1" cx="360.1" cy="307.5" rx="26.7" ry="23.6"/>
	<path id="XMLID_272_" class="st1" d="M287.3,287.2c1.9-0.7,3.2-2.5,3.2-4.6c0-2.7-2.2-4.9-4.9-4.9c-2.1,0-3.9,1.4-4.6,3.3
		c-0.6-0.1-1.1-0.2-1.7-0.2c-4.6,0-8.3,3.7-8.3,8.3c0,4.6,3.7,8.3,8.3,8.3c4.6,0,8.3-3.7,8.3-8.3
		C287.5,288.4,287.4,287.8,287.3,287.2z"/>
	<circle id="XMLID_106_" class="st1" cx="295.9" cy="299" r="4.9"/>
	<circle id="XMLID_91_" class="st1" cx="297.5" cy="286.1" r="2.8"/>
	<path id="XMLID_64_" class="st2" d="M302.4,395.2c-0.1,0-0.2,0-0.3,0c0,0,0,0,0,0C302.2,395.2,302.3,395.2,302.4,395.2
		 M302.7,395.2c-0.1,0-0.1,0-0.2,0C302.6,395.2,302.6,395.2,302.7,395.2 M303,395.2c-0.1,0-0.1,0-0.2,0
		C302.9,395.2,302.9,395.2,303,395.2 M303.3,395.2c-0.1,0-0.1,0-0.2,0C303.2,395.2,303.2,395.2,303.3,395.2 M303.6,395.2
		c-0.1,0-0.1,0-0.2,0C303.5,395.2,303.5,395.2,303.6,395.2 M303.9,395.2c-0.1,0-0.1,0-0.2,0C303.8,395.2,303.8,395.2,303.9,395.2
		 M304.2,395.2c-0.1,0-0.2,0-0.2,0C304.1,395.2,304.1,395.2,304.2,395.2 M304.5,395.2c-0.1,0-0.2,0-0.2,0
		C304.4,395.2,304.4,395.2,304.5,395.2 M306.4,395.1c-0.6,0-1.2,0-1.8,0.1C305.2,395.2,305.8,395.2,306.4,395.1 M307,395.1
		c-0.2,0-0.4,0-0.6,0C306.6,395.1,306.8,395.1,307,395.1 M364.2,372C364.1,372,364.1,372,364.2,372c-15.5,13.5-35.3,22-57.2,23.1
		C328.8,394,348.7,385.5,364.2,372 M302.1,206.4c-52.1,0-94.4,42.3-94.4,94.4c0,15.5,3.7,30.1,10.3,43c-6.6-12.9-10.3-27.5-10.3-43
		C207.7,248.7,250,206.4,302.1,206.4c23.8,0,45.5,8.8,62.1,23.3c0,0,0,0,0,0C347.6,215.2,325.9,206.4,302.1,206.4"/>
	<path id="XMLID_58_" class="st3" d="M268.2,381c-1.3,0-2.8-0.5-4.2-1.4c-2.6-1.7-3.9-4.4-2.9-5.9c0.5-0.7,1.3-1,2.4-1
		c1.3,0,2.8,0.5,4.2,1.4c2.6,1.7,3.9,4.4,2.9,5.9C270.2,380.7,269.3,381,268.2,381 M230.1,267.5c-1,0-2-0.3-2.9-0.8
		c-3.2-2-3.7-6.9-1.1-11c1.8-3,4.8-4.7,7.4-4.7c1,0,2,0.3,2.9,0.8c3.2,2,3.7,6.9,1.1,11C235.7,265.7,232.8,267.5,230.1,267.5
		 M302.1,206.4c-52.1,0-94.4,42.3-94.4,94.4c0,15.5,3.7,30.1,10.3,43c15.6,30.5,47.4,51.4,84.1,51.4c0.1,0,0.2,0,0.3,0
		c0,0,0.1,0,0.1,0c0.1,0,0.1,0,0.2,0c0,0,0.1,0,0.1,0c0.1,0,0.1,0,0.2,0c0,0,0.1,0,0.1,0c0.1,0,0.1,0,0.2,0c0,0,0.1,0,0.1,0
		c0.1,0,0.1,0,0.2,0c0,0,0.1,0,0.1,0c0.1,0,0.1,0,0.2,0c0,0,0.1,0,0.1,0c0.1,0,0.2,0,0.2,0c0,0,0,0,0.1,0c0.1,0,0.2,0,0.2,0
		c0,0,0,0,0,0c0.6,0,1.2,0,1.8-0.1c0,0,0,0,0,0c0.2,0,0.4,0,0.6,0c0,0,0,0,0,0c21.8-1.1,41.7-9.6,57.1-23.1
		c-13.8,9.3-30.4,14.8-48.2,14.8c-21,0-40.3-7.6-55.3-20.1c-2.5-0.6-5.2-1.7-7.6-3.4c-6.3-4.2-9.9-10.6-9.3-15.8
		c-8.7-13.4-13.7-29.5-13.7-46.6c0-7,0.8-13.8,2.4-20.4c-0.1-0.1-0.2-0.1-0.4-0.2c-1.8-1.1-2.1-3.9-0.6-6.2c0.9-1.5,2.4-2.5,3.7-2.6
		c12-33,43.7-56.6,80.8-56.6c17.9,0,34.5,5.5,48.3,14.8C347.6,215.2,325.9,206.4,302.1,206.4"/>
	<path id="XMLID_57_" class="st4" d="M243.7,347.5c-0.6,5.2,3,11.6,9.3,15.8c2.5,1.6,5.1,2.8,7.6,3.4
		C254.1,361.2,248.3,354.7,243.7,347.5"/>
	<path id="XMLID_56_" class="st4" d="M263.6,372.6c-1.1,0-1.9,0.3-2.4,1c-1,1.5,0.3,4.2,2.9,5.9c1.4,0.9,2.9,1.4,4.2,1.4
		c1.1,0,1.9-0.3,2.4-1c1-1.5-0.3-4.2-2.9-5.9C266.3,373.1,264.8,372.6,263.6,372.6"/>
	<path id="XMLID_55_" class="st4" d="M233.5,251c-2.7,0-5.6,1.7-7.4,4.7c-2.5,4.1-2,9,1.1,11c0.9,0.5,1.9,0.8,2.9,0.8
		c2.7,0,5.6-1.7,7.4-4.7c2.5-4.1,2-9-1.1-11C235.5,251.2,234.5,251,233.5,251"/>
	<path id="XMLID_54_" class="st4" d="M235.1,271.4c-1.4,0.2-2.8,1.1-3.7,2.6c-1.4,2.3-1.2,5.1,0.6,6.2c0.1,0.1,0.2,0.1,0.4,0.2
		C233.1,277.4,234,274.3,235.1,271.4"/>
</g>
</svg>