<svg id="Layer_1" xmlns="http://www.w3.org/2000/svg" viewBox="0 0 1920 1080"><style>.st0{fill:#454547}.st1{fill:#373536}.st2{fill:#e6e6e6}.st3{opacity:.25}.st4{fill:#f9e5c4}.st5{opacity:.15}.st6{fill:#FFF}.st7{opacity:.25;fill:#f9e5c4}</style><g id="XMLID_433_"><g id="XMLID_1127_"><path id="XMLID_1128_" class="st0" d="M669.1 835.6l-4.4-2.5 10.1-17.9c.1-.1.1-.2 0-.4l-4.1-12.9c0-.1-.1-.3-.4-.3-.3 0-.4.1-.5.2l-7.8 12.1-4.2-2.7 7.8-12.1c1.2-1.8 3.2-2.7 5.3-2.4 2.1.3 3.8 1.7 4.5 3.8l4.1 12.9c.5 1.4.3 3-.4 4.3l-10 17.9z"/></g><path id="XMLID_1126_" class="st0" d="M687 800.9c-.7-2.6-8.9-2.3-23.2 2.3-16.3 5.2-34.1 13.2-36.1 17.8-.2.5-.3.9-.1 1.3l20.6 64.7c.9 2.4 9.1 2.1 23.2-2.4 16.3-5.2 34.2-13.5 36.1-17.8.2-.4.2-.7.2-1L687 800.9z"/><path id="XMLID_1125_" class="st1" d="M681.6 805.7c-1.5 3.4-15.9 10.1-29.1 14.3-13.2 4.2-19.9 3.9-18.6.8 1.6-3.7 15.9-10.1 29.1-14.3 13.2-4.2 19.9-3.9 18.6-.8z"/></g><path id="XMLID_381_" class="st2" d="M682.4 755.1c-3.6 1.8-3.2 7.9-3.2 7.9l1.9 2.4c-.1 5.2-.1 10.4-1.4 15.4-1.3 5-4.1 9.1-6.5 13.7-2.9 5.7-4.7 12.1-1.1 17.9.3.5 1.2 0 .9-.5-5.6-9.2 2.3-17.7 5.9-25.8 2.9-6.5 3.2-13.6 3.3-20.6l1.9-1.9c-.2-4.7 3.8-7.3 3.8-7.3l-5.5-1.2z"/><g id="XMLID_424_" class="st3"><path id="XMLID_380_" class="st4" d="M711.4 779.3c-.3 1.1-.8 1.9-1.5 2.7-.6.7-1.4 1.2-2.2 1.8-.9.5-1.9 1-2.2 2.1-.3.8-.1 1.8.4 2.5 1.2 1.6 2.8 2.6 2.6 4.9-.4 4.8-5.5 5.5-8.9 7.3-1 .6-1.8 1.4-2.5 2.3l-1.2 1.5c-.2.3-.5.5-.8.8-1.6 1.4-3.5 2.3-5.6 2.6h-.4c-.6.1-1.1.1-1.7 0-1.4 0-2.8-.2-4.2-.2-1.4.1-3.2.1-4.4.9-.1.1-.2.1-.3.1h-.1l-.2.4-.1-.2c-1 .7-2.3 1.4-3.7 2.2.2-.8.5-1.7.9-2.5.5-1.1 1.1-2.2 1.8-3.2.2-.3.4-.7.7-1 .2-.3.4-.6.7-1l.6-.9c.7-1.1 1.2-2.1 1.5-3.1.4-1.3.5-2.7.2-4.3-.1-1-.3-2-.4-2.9-.1-1.6 0-3.1.5-4.7 1-3 3.1-5.2 5.6-7 .8-.5 1.6-1 2.5-1.5l5.4-2.7c1.9-1 3.7-2.3 5.6-3.3.3-.2.6-.3.9-.5 3.1-1.4 7.5-2.4 9.8.7 1.3 1.8 1.3 4.2.7 6.2z"/><path id="XMLID_379_" class="st4" d="M722.9 757.2c-.2.5-.5 1-.5 1.6 0 .7.3.9.7 1.4 1.6 2.1.9 4.3-.5 6-.8 1-2 1.9-3 2.4-.4.2-.7.4-1 .5-.2.1-.4.1-.6.1h-.4c-2 0-3.7-1.4-4.2-3.4-.5-1.7 0-3.2.5-4.8.3-.8.7-1.7 1-2.5.7-2 .3-4.3 1.3-6.3.1-.2.3-.5.4-.7 1.1-1.4 2.8-2 4.6-2 2.3 0 3.6 1.8 3.2 4-.3 1.5-.9 2.6-1.5 3.7z"/><path id="XMLID_378_" class="st4" d="M720.4 740.7c-.2.3-.5.6-.7.9-1.2 1.1-3.1 1.5-4.6.6-1.7-.9-2.3-2.9-1.7-4.6-.2-.5-.2-1 .2-1.5.2-.2.4-.4.6-.5 1.4-.9 3.4-.7 4.8 0 2 .8 2.5 3.2 1.4 5.1z"/><path id="XMLID_377_" class="st4" d="M696.6 768c-.4 1.4-1.4 2.6-2.8 3.1-.1 0-.2.1-.2.1-1.2.6-1.9 1.4-3.3 1.6h-.8c-.3 0-.6 0-.9-.2-2.4-1.7-4.2-4.5-3.5-7.5.2-.6.5-1.3.9-1.9 1-1.4 2.6-2.5 4.3-2.3.4.1.8.2 1.2.4.7.4 1.2 1 1.8 1.5.7.6 1.6.9 2.4 1.5 1.1.8 1.3 2.4.9 3.7z"/><path id="XMLID_376_" class="st4" d="M701.2 761.8c-.1.2-.3.5-.5.6-.6.5-1.4.7-2.2.6h-.3c-.8-.1-1.5-.4-2-.9-.9-.8-1.4-2.2-1-3.3l.3-.6c.2-.3.5-.6.9-.6l.3-.3c.4-.2.8-.4 1.3-.4.8-.1 1.7.1 2.4.5.4.2.7.5.9.9.5.9.5 2.4-.1 3.5z"/><path id="XMLID_375_" class="st4" d="M727.3 741.4l-.1.1c-.6.5-1.7.3-2.3-.1-.6-.5-.8-1.3-.3-2 .1-.2.3-.3.5-.3l.1-.1h.1c.7-.4 1.8-.1 2.2.5.3.5.2 1.4-.2 1.9z"/></g><g id="XMLID_422_" class="st5"><path id="XMLID_374_" class="st6" d="M697.2 801.5c-.1.5-.1 1-.1 1.4l-1.2 1.5c-.2.3-.5.5-.8.8-1.6 1.4-3.5 2.3-5.6 2.6h-.4c-.6.1-1.1.1-1.7 0-.4-1.7-.6-3.5-.4-5.3.2-2.2 1.7-5.3-.1-7.1-1.4-1.4-4.5-1.8-6.1-3.1l-.3-.3c-.1-1.6 0-3.1.5-4.7 1-3 3.1-5.2 5.6-7-2 4.1 1.8 4.5 4.8 6 2.4 1.3 4.4 3 5.5 5.6 1.4 3.3.7 6.3.3 9.6z"/></g><g id="XMLID_420_" class="st5"><path id="XMLID_373_" class="st6" d="M711.4 779.3c-.3 1.1-.8 1.9-1.5 2.7.3-1.6.5-3.3-.6-4.4-1.4-1.4-4.5-1.8-6.1-3.1-.8-.6-1.5-1.3-2.1-2 3.1-1.4 7.5-2.4 9.8.7 1.1 1.7 1.1 4.1.5 6.1z"/></g><g id="XMLID_418_" class="st5"><path id="XMLID_372_" class="st6" d="M693.6 771.2c-1.2.6-1.9 1.4-3.3 1.6-.9-1.2-2.1-2.2-2.9-3.5-.9-1.6-1.4-3.4-1.4-5.2v-.9c1-1.4 2.6-2.5 4.3-2.3-1.7 1.7 0 6.3 1.1 7.7.8.9 1.6 1.7 2.2 2.6z"/></g><g id="XMLID_416_" class="st5"><path id="XMLID_371_" class="st6" d="M701.2 761.8c-.1.2-.3.5-.5.6-.6.5-1.4.7-2.2.6h-.3c-1.1-.7-2.1-1.6-2.7-2.9-.2-.4-.3-.8-.3-1.2l.3-.6c.2-.3.5-.6.9-.6l.3-.3c.4-.2.8-.4 1.3-.4-.5 1-.5 2.2.4 3.1.7.7 1.8 1.2 2.8 1.7z"/></g><g id="XMLID_414_" class="st5"><path id="XMLID_370_" class="st6" d="M722.5 766.2c-.8 1-2 1.9-3 2.4-.4-.4-.8-.9-1.1-1.5-.4-.7-.5-1.5-.8-2.1-1-2.2-1.6-1.8-3-3.1-.3-.2-.5-.5-.7-.8.3-.8.7-1.7 1-2.5.7-2 .3-4.3 1.3-6.3.1-.2.3-.5.4-.7-.4 1.7-.9 3.9-.4 5.7.6 2.1 1.7 1.9 3 3 1.3 1.4 1.8 5.1 3.3 5.9z"/></g><g id="XMLID_412_" class="st5"><path id="XMLID_369_" class="st6" d="M719.6 741.6c-1.2 1.1-3.1 1.5-4.6.6-1.7-.9-2.3-2.9-1.7-4.6-.2-.5-.2-1 .2-1.5.2-.2.4-.4.6-.5-.1 1.4 1.6 2.6 2.5 3.5.8.6 1.8 2.4 3 2.5z"/></g><g id="XMLID_410_" class="st5"><path id="XMLID_368_" class="st6" d="M727.3 741.4l-.1.1c-.6.5-1.7.3-2.3-.1-.6-.5-.8-1.3-.3-2 .1-.2.3-.3.5-.3l.1-.1h.1c.3 1.1 1 1.8 2 2.4z"/></g><path id="XMLID_367_" class="st7" d="M715.9 733.1c0 .1-.1.1 0 0-.7 0-1.1-.7-1.2-1.2-.1-.5.3-1.1.8-1.2.1 0 .3 0 .4.1h.2c.5.2 1 .8.9 1.4-.1.5-.6.9-1.1.9z"/><path id="XMLID_366_" class="st7" d="M717.1 782.8s0-.1 0 0c-.3-.4-.1-1 .2-1.2.3-.3.8-.3 1.1 0 .1.1.1.2.1.3 0 0 0 .1.1.1v.1c.1.4-.1.9-.5 1.1-.3 0-.8-.2-1-.4z"/><path id="XMLID_365_" class="st7" d="M719.3 729.6c-.1-.4.2-.8.5-.9.3-.1.7 0 .8.3V729.3c0 .3-.3.7-.6.7-.2.1-.6-.1-.7-.4z"/><path id="XMLID_364_" class="st7" d="M718.7 787.1c0 .4-.1.8-.2 1.1-.4.9-1.1 1.7-2.1 1.9-.2 0-.5 0-.7-.1-.4-.1-1.4.5-2.6-.4-.9-.7-1.1-1.9-1.1-2.7 0-.8.5-1.6 1.1-2.1l.1-.1c.6-.5.9-1.1 1.6-1.3.1 0 .2-.1.3-.1h.2c.1-.1.3-.1.5 0 1.5.7 2.9 2 2.9 3.8z"/><g id="XMLID_404_" class="st5"><path id="XMLID_363_" class="st6" d="M718.7 787.1c0 .4-.1.8-.2 1.1-.4.9-1.1 1.7-2.1 1.9.7-1.2-.8-3.5-1.6-4.1-.5-.4-1.1-.8-1.6-1.2.6-.5.9-1.1 1.6-1.3.1 0 .2-.1.3-.1h.2c.1-.1.3-.1.5 0 1.5.6 2.9 1.9 2.9 3.7z"/></g></svg>