<?xml version="1.0" encoding="utf-8"?>
<!-- Generator: Adobe Illustrator 19.0.0, SVG Export Plug-In . SVG Version: 6.00 Build 0)  -->
<svg version="1.1" id="Layer_1" xmlns="http://www.w3.org/2000/svg" xmlns:xlink="http://www.w3.org/1999/xlink" x="0px" y="0px"
	 viewBox="0 0 1920 1080" style="enable-background:new 0 0 1920 1080;" xml:space="preserve">
<style type="text/css">
	.st0{fill:#454547;}
	.st1{fill:#373536;}
	.st2{fill:#E6E6E6;}
	.st3{opacity:0.25;}
	.st4{fill:#F9E5C4;}
	.st5{opacity:0.15;}
	.st6{fill:#FFFFFF;}
	.st7{opacity:0.25;fill:#F9E5C4;}
</style>
<g id="XMLID_433_">
	<g id="XMLID_1127_">
		<path id="XMLID_1128_" class="st0" d="M669.1,835.6l-4.4-2.5l10.1-17.9c0.1-0.1,0.1-0.2,0-0.4l-4.1-12.9c0-0.1-0.1-0.3-0.4-0.3
			c-0.3,0-0.4,0.1-0.5,0.2l-7.8,12.1l-4.2-2.7l7.8-12.1c1.2-1.8,3.2-2.7,5.3-2.4c2.1,0.3,3.8,1.7,4.5,3.8l4.1,12.9
			c0.5,1.4,0.3,3-0.4,4.3L669.1,835.6z"/>
	</g>
	<path id="XMLID_1126_" class="st0" d="M687,800.9c-0.7-2.6-8.9-2.3-23.2,2.3c-16.3,5.2-34.1,13.2-36.1,17.8
		c-0.2,0.5-0.3,0.9-0.1,1.3l20.6,64.7l0,0c0.9,2.4,9.1,2.1,23.2-2.4c16.3-5.2,34.2-13.5,36.1-17.8c0.2-0.4,0.2-0.7,0.2-1l0,0
		L687,800.9z"/>
	<path id="XMLID_1125_" class="st1" d="M681.6,805.7c-1.5,3.4-15.9,10.1-29.1,14.3c-13.2,4.2-19.9,3.9-18.6,0.8
		c1.6-3.7,15.9-10.1,29.1-14.3C676.2,802.3,682.9,802.6,681.6,805.7z"/>
</g>
<path id="XMLID_381_" class="st2" d="M682.4,755.1c-3.6,1.8-3.2,7.9-3.2,7.9l1.9,2.4c-0.1,5.2-0.1,10.4-1.4,15.4
	c-1.3,5-4.1,9.1-6.5,13.7c-2.9,5.7-4.7,12.1-1.1,17.9c0.3,0.5,1.2,0,0.9-0.5c-5.6-9.2,2.3-17.7,5.9-25.8c2.9-6.5,3.2-13.6,3.3-20.6
	l1.9-1.9c-0.2-4.7,3.8-7.3,3.8-7.3L682.4,755.1z"/>
<g id="XMLID_424_" class="st3">
	<path id="XMLID_380_" class="st4" d="M711.4,779.3c-0.3,1.1-0.8,1.9-1.5,2.7c-0.6,0.7-1.4,1.2-2.2,1.8c-0.9,0.5-1.9,1-2.2,2.1
		c-0.3,0.8-0.1,1.8,0.4,2.5c1.2,1.6,2.8,2.6,2.6,4.9c-0.4,4.8-5.5,5.5-8.9,7.3c-1,0.6-1.8,1.4-2.5,2.3c-0.4,0.5-0.8,1-1.2,1.5
		c-0.2,0.3-0.5,0.5-0.8,0.8c-1.6,1.4-3.5,2.3-5.6,2.6c-0.1,0-0.2,0-0.4,0c-0.6,0.1-1.1,0.1-1.7,0c-1.4,0-2.8-0.2-4.2-0.2
		c-1.4,0.1-3.2,0.1-4.4,0.9c-0.1,0.1-0.2,0.1-0.3,0.1c0,0-0.1,0-0.1,0c0,0,0,0,0,0l-0.2,0.4l-0.1-0.2c-1,0.7-2.3,1.4-3.7,2.2
		c0.2-0.8,0.5-1.7,0.9-2.5c0.5-1.1,1.1-2.2,1.8-3.2c0.2-0.3,0.4-0.7,0.7-1c0.2-0.3,0.4-0.6,0.7-1c0.2-0.3,0.4-0.6,0.6-0.9
		c0.7-1.1,1.2-2.1,1.5-3.1c0.4-1.3,0.5-2.7,0.2-4.3c-0.1-1-0.3-2-0.4-2.9c-0.1-1.6,0-3.1,0.5-4.7c1-3,3.1-5.2,5.6-7
		c0.8-0.5,1.6-1,2.5-1.5c1.8-0.9,3.6-1.8,5.4-2.7c1.9-1,3.7-2.3,5.6-3.3c0.3-0.2,0.6-0.3,0.9-0.5c3.1-1.4,7.5-2.4,9.8,0.7
		C712,774.9,712,777.3,711.4,779.3z"/>
	<path id="XMLID_379_" class="st4" d="M722.9,757.2c-0.2,0.5-0.5,1-0.5,1.6c0,0.7,0.3,0.9,0.7,1.4c1.6,2.1,0.9,4.3-0.5,6
		c-0.8,1-2,1.9-3,2.4c-0.4,0.2-0.7,0.4-1,0.5c-0.2,0.1-0.4,0.1-0.6,0.1c-0.1,0-0.2,0-0.4,0c-2,0-3.7-1.4-4.2-3.4
		c-0.5-1.7,0-3.2,0.5-4.8c0.3-0.8,0.7-1.7,1-2.5c0.7-2,0.3-4.3,1.3-6.3c0.1-0.2,0.3-0.5,0.4-0.7c1.1-1.4,2.8-2,4.6-2
		c2.3,0,3.6,1.8,3.2,4C724.1,755,723.5,756.1,722.9,757.2z"/>
	<path id="XMLID_378_" class="st4" d="M720.4,740.7c-0.2,0.3-0.5,0.6-0.7,0.9c-1.2,1.1-3.1,1.5-4.6,0.6c-1.7-0.9-2.3-2.9-1.7-4.6
		c-0.2-0.5-0.2-1,0.2-1.5c0.2-0.2,0.4-0.4,0.6-0.5c1.4-0.9,3.4-0.7,4.8,0C721,736.4,721.5,738.8,720.4,740.7z"/>
	<path id="XMLID_377_" class="st4" d="M696.6,768c-0.4,1.4-1.4,2.6-2.8,3.1c-0.1,0-0.2,0.1-0.2,0.1c-1.2,0.6-1.9,1.4-3.3,1.6
		c-0.2,0-0.3,0-0.5,0c-0.1,0-0.2,0-0.3,0c-0.3,0-0.6,0-0.9-0.2c-2.4-1.7-4.2-4.5-3.5-7.5c0.2-0.6,0.5-1.3,0.9-1.9c0,0,0,0,0,0
		c1-1.4,2.6-2.5,4.3-2.3c0.4,0.1,0.8,0.2,1.2,0.4c0.7,0.4,1.2,1,1.8,1.5c0.7,0.6,1.6,0.9,2.4,1.5C696.8,765.1,697,766.7,696.6,768z"
		/>
	<path id="XMLID_376_" class="st4" d="M701.2,761.8c-0.1,0.2-0.3,0.5-0.5,0.6c-0.6,0.5-1.4,0.7-2.2,0.6c-0.1,0-0.2,0-0.3,0
		c-0.8-0.1-1.5-0.4-2-0.9c-0.9-0.8-1.4-2.2-1-3.3c0.1-0.2,0.2-0.4,0.3-0.6c0.2-0.3,0.5-0.6,0.9-0.6c0.1-0.1,0.2-0.2,0.3-0.3
		c0.4-0.2,0.8-0.4,1.3-0.4c0.8-0.1,1.7,0.1,2.4,0.5c0.4,0.2,0.7,0.5,0.9,0.9C701.8,759.2,701.8,760.7,701.2,761.8z"/>
	<path id="XMLID_375_" class="st4" d="M727.3,741.4c0,0-0.1,0.1-0.1,0.1c-0.6,0.5-1.7,0.3-2.3-0.1c-0.6-0.5-0.8-1.3-0.3-2
		c0.1-0.2,0.3-0.3,0.5-0.3c0,0,0.1-0.1,0.1-0.1c0,0,0.1,0,0.1,0c0.7-0.4,1.8-0.1,2.2,0.5C727.8,740,727.7,740.9,727.3,741.4z"/>
</g>
<g id="XMLID_422_" class="st5">
	<path id="XMLID_374_" class="st6" d="M697.2,801.5c-0.1,0.5-0.1,1-0.1,1.4c-0.4,0.5-0.8,1-1.2,1.5c-0.2,0.3-0.5,0.5-0.8,0.8
		c-1.6,1.4-3.5,2.3-5.6,2.6c-0.1,0-0.2,0-0.4,0c-0.6,0.1-1.1,0.1-1.7,0c-0.4-1.7-0.6-3.5-0.4-5.3c0.2-2.2,1.7-5.3-0.1-7.1
		c-1.4-1.4-4.5-1.8-6.1-3.1c-0.1-0.1-0.2-0.2-0.3-0.3c-0.1-1.6,0-3.1,0.5-4.7c1-3,3.1-5.2,5.6-7c-2,4.1,1.8,4.5,4.8,6
		c2.4,1.3,4.4,3,5.5,5.6C698.3,795.2,697.6,798.2,697.2,801.5z"/>
</g>
<g id="XMLID_420_" class="st5">
	<path id="XMLID_373_" class="st6" d="M711.4,779.3c-0.3,1.1-0.8,1.9-1.5,2.7c0.3-1.6,0.5-3.3-0.6-4.4c-1.4-1.4-4.5-1.8-6.1-3.1
		c-0.8-0.6-1.5-1.3-2.1-2c3.1-1.4,7.5-2.4,9.8,0.7C712,774.9,712,777.3,711.4,779.3z"/>
</g>
<g id="XMLID_418_" class="st5">
	<path id="XMLID_372_" class="st6" d="M693.6,771.2c-1.2,0.6-1.9,1.4-3.3,1.6c-0.9-1.2-2.1-2.2-2.9-3.5c-0.9-1.6-1.4-3.4-1.4-5.2
		c0-0.3,0-0.6,0-0.9c0,0,0,0,0,0c1-1.4,2.6-2.5,4.3-2.3c-1.7,1.7,0,6.3,1.1,7.7C692.2,769.5,693,770.3,693.6,771.2z"/>
</g>
<g id="XMLID_416_" class="st5">
	<path id="XMLID_371_" class="st6" d="M701.2,761.8c-0.1,0.2-0.3,0.5-0.5,0.6c-0.6,0.5-1.4,0.7-2.2,0.6c-0.1,0-0.2,0-0.3,0
		c-1.1-0.7-2.1-1.6-2.7-2.9c-0.2-0.4-0.3-0.8-0.3-1.2c0.1-0.2,0.2-0.4,0.3-0.6c0.2-0.3,0.5-0.6,0.9-0.6c0.1-0.1,0.2-0.2,0.3-0.3
		c0.4-0.2,0.8-0.4,1.3-0.4c-0.5,1-0.5,2.2,0.4,3.1C699.1,760.8,700.2,761.3,701.2,761.8z"/>
</g>
<g id="XMLID_414_" class="st5">
	<path id="XMLID_370_" class="st6" d="M722.5,766.2c-0.8,1-2,1.9-3,2.4c-0.4-0.4-0.8-0.9-1.1-1.5c-0.4-0.7-0.5-1.5-0.8-2.1
		c-1-2.2-1.6-1.8-3-3.1c-0.3-0.2-0.5-0.5-0.7-0.8c0.3-0.8,0.7-1.7,1-2.5c0.7-2,0.3-4.3,1.3-6.3c0.1-0.2,0.3-0.5,0.4-0.7
		c-0.4,1.7-0.9,3.9-0.4,5.7c0.6,2.1,1.7,1.9,3,3C720.5,761.7,721,765.4,722.5,766.2z"/>
</g>
<g id="XMLID_412_" class="st5">
	<path id="XMLID_369_" class="st6" d="M719.6,741.6c-1.2,1.1-3.1,1.5-4.6,0.6c-1.7-0.9-2.3-2.9-1.7-4.6c-0.2-0.5-0.2-1,0.2-1.5
		c0.2-0.2,0.4-0.4,0.6-0.5c-0.1,1.4,1.6,2.6,2.5,3.5C717.4,739.7,718.4,741.5,719.6,741.6z"/>
</g>
<g id="XMLID_410_" class="st5">
	<path id="XMLID_368_" class="st6" d="M727.3,741.4c0,0-0.1,0.1-0.1,0.1c-0.6,0.5-1.7,0.3-2.3-0.1c-0.6-0.5-0.8-1.3-0.3-2
		c0.1-0.2,0.3-0.3,0.5-0.3c0,0,0.1-0.1,0.1-0.1c0,0,0.1,0,0.1,0C725.6,740.1,726.3,740.8,727.3,741.4z"/>
</g>
<path id="XMLID_367_" class="st7" d="M715.9,733.1C715.9,733.2,715.8,733.2,715.9,733.1c-0.7,0-1.1-0.7-1.2-1.2
	c-0.1-0.5,0.3-1.1,0.8-1.2c0.1,0,0.3,0,0.4,0.1c0,0,0.1,0,0.1,0c0,0,0,0,0.1,0c0.5,0.2,1,0.8,0.9,1.4
	C716.9,732.7,716.4,733.1,715.9,733.1z"/>
<path id="XMLID_366_" class="st7" d="M717.1,782.8C717.1,782.8,717.1,782.7,717.1,782.8c-0.3-0.4-0.1-1,0.2-1.2
	c0.3-0.3,0.8-0.3,1.1,0c0.1,0.1,0.1,0.2,0.1,0.3c0,0,0,0.1,0.1,0.1c0,0,0,0,0,0.1c0.1,0.4-0.1,0.9-0.5,1.1
	C717.8,783.2,717.3,783,717.1,782.8z"/>
<path id="XMLID_365_" class="st7" d="M719.3,729.6C719.3,729.6,719.3,729.6,719.3,729.6c-0.1-0.4,0.2-0.8,0.5-0.9
	c0.3-0.1,0.7,0,0.8,0.3c0,0.1,0,0.2,0,0.2c0,0,0,0.1,0,0.1c0,0,0,0,0,0c0,0.3-0.3,0.7-0.6,0.7C719.8,730.1,719.4,729.9,719.3,729.6z
	"/>
<path id="XMLID_364_" class="st7" d="M718.7,787.1c0,0.4-0.1,0.8-0.2,1.1c-0.4,0.9-1.1,1.7-2.1,1.9c-0.2,0-0.5,0-0.7-0.1
	c-0.4-0.1-1.4,0.5-2.6-0.4c-0.9-0.7-1.1-1.9-1.1-2.7c0-0.8,0.5-1.6,1.1-2.1c0,0,0.1-0.1,0.1-0.1c0.6-0.5,0.9-1.1,1.6-1.3
	c0.1,0,0.2-0.1,0.3-0.1c0.1,0,0.1,0,0.2,0c0.1-0.1,0.3-0.1,0.5,0C717.3,784,718.7,785.3,718.7,787.1z"/>
<g id="XMLID_404_" class="st5">
	<path id="XMLID_363_" class="st6" d="M718.7,787.1c0,0.4-0.1,0.8-0.2,1.1c-0.4,0.9-1.1,1.7-2.1,1.9c0.7-1.2-0.8-3.5-1.6-4.1
		c-0.5-0.4-1.1-0.8-1.6-1.2c0.6-0.5,0.9-1.1,1.6-1.3c0.1,0,0.2-0.1,0.3-0.1c0.1,0,0.1,0,0.2,0c0.1-0.1,0.3-0.1,0.5,0
		C717.3,784,718.7,785.3,718.7,787.1z"/>
</g>
</svg>