<?xml version="1.0" encoding="utf-8"?>
<!-- Generator: Adobe Illustrator 19.0.0, SVG Export Plug-In . SVG Version: 6.00 Build 0)  -->
<svg version="1.1" id="Layer_1" xmlns="http://www.w3.org/2000/svg" xmlns:xlink="http://www.w3.org/1999/xlink" x="0px" y="0px"
	 viewBox="0 0 1920 1080" style="enable-background:new 0 0 1920 1080;" xml:space="preserve">
<style type="text/css">
	.st0{fill:#F16E24;}
	.st1{fill:#E35525;}
	.st2{fill:#FFFFFF;}
	.st3{opacity:0.15;fill:#373536;}
	.st4{fill:#E6E6E6;}
</style>
<g id="XMLID_1124_">
	<polygon id="XMLID_1131_" class="st0" points="653.4,841.5 546.3,976.1 413,922.8 531.6,792.8 	"/>
	<polygon id="XMLID_1130_" class="st0" points="548.6,977.2 414.1,923.7 413,922.8 546.3,976.1 	"/>
	<polygon id="XMLID_1129_" class="st1" points="653.4,841.5 653.5,844.5 548.6,977.2 546.3,976.1 	"/>
	<path id="XMLID_384_" class="st2" d="M612,805.9c0,0,0.4,26.7-70.3,81.3L404.4,887c0,0,12-5.1,27.2-14.2c0.1,0,0.1-0.1,0.2-0.1
		c4.2-2.5,8.6-5.3,13.1-8.3c0.3-0.2,0.6-0.4,1-0.6c20.6-14.2,42.5-34.2,48.8-57.8H612z"/>
	<path id="XMLID_383_" class="st2" d="M410.5,861.1c0,0,58-3.1,92.4-79.2l97,11.3c0,0-1.5,26.7-75.9,76.2L410.5,861.1z"/>
	<path id="XMLID_382_" class="st3" d="M602.5,805.9c-4.5,9.8-20.5,33.3-77.4,67.7l-80.3-9.3c0.3-0.2,0.6-0.4,1-0.6l78.2,5.7
		c44.5-29.6,62.9-51,70.6-63.5H602.5z"/>
	<path id="XMLID_362_" class="st2" d="M612.3,675c0,0-44.3,106.3-156.3,106l-20.8-104.1c0,0,7.5,0.2,18.5-2c0,0,0,0,0,0
		c3.2-0.6,6.6-1.4,10.2-2.5c27-7.9,64.3-30,71-90.8l63.7,76.9v0l2.3,2.8L612.3,675z"/>
	<path id="XMLID_361_" class="st4" d="M522.3,817.2c0,0,1-96,102-123l78,5.4c0,0-110.5,31.6-123.5,82.6L522.3,817.2z"/>
	<path id="XMLID_360_" class="st3" d="M598.7,658.5L598.7,658.5l2.3,2.8c-17.8,52.7-59.9,78.3-59.9,78.3l-89.3-64
		c0.6-0.2,1.3-0.5,1.9-0.7c0,0,0,0,0,0c3.2-0.6,6.6-1.4,10.2-2.5l-1.6-1.2c39.4-19.1,49.9-58.9,51.2-91.4c2.1-19.2,0.5-37-1.2-48.5
		l93.1,48.2c2.7,14,3.7,27.1,3.2,39.3C607.1,633.6,603.4,646.8,598.7,658.5z"/>
	<path id="XMLID_295_" class="st2" d="M608.7,618.9c-1.6,14.7-5.2,27.9-10,39.6v0c-19.2,46.9-56.7,69.8-56.7,69.8l-78-55.9l-1.6-1.2
		l-9.7-7c43.1-15,57.4-51.6,60.9-84.4c2.1-19.2,0.5-37-1.2-48.5c-1.2-8.1-2.4-13-2.4-13l96.4,49.9
		C609.9,586.8,610.4,603.7,608.7,618.9z"/>
</g>
</svg>