<?xml version="1.0" encoding="utf-8"?>
<!-- Generator: Adobe Illustrator 19.0.0, SVG Export Plug-In . SVG Version: 6.00 Build 0)  -->
<svg version="1.1" id="Layer_1" xmlns="http://www.w3.org/2000/svg" xmlns:xlink="http://www.w3.org/1999/xlink" x="0px" y="0px"
	 viewBox="0 0 1920 1080" style="enable-background:new 0 0 1920 1080;" xml:space="preserve">
<style type="text/css">
	.st0{fill:#F1F1F1;}
	.st1{fill:#D0D2D3;}
	.st2{fill:#BBBDBF;}
</style>
<g id="XMLID_328_">
	<g id="XMLID_333_">
		<g id="XMLID_358_">
			
				<rect id="XMLID_359_" x="1355.8" y="622.3" transform="matrix(0.3614 0.9324 -0.9324 0.3614 1465.5358 -879.4259)" class="st0" width="38" height="15.9"/>
		</g>
		<g id="XMLID_356_">
			
				<rect id="XMLID_357_" x="1334.7" y="567.9" transform="matrix(0.3614 0.9324 -0.9324 0.3614 1401.3726 -894.4955)" class="st0" width="38" height="15.9"/>
		</g>
		<g id="XMLID_354_">
			<path id="XMLID_355_" class="st1" d="M1380.4,596.8c-1.1-2.9-4.2-4.5-6.8-3.4l-6.6,2.5c-2.6,1-3.9,4.2-2.7,7.1s4.2,4.5,6.8,3.4
				l6.6-2.5C1380.3,602.9,1381.6,599.7,1380.4,596.8z"/>
		</g>
		<g id="XMLID_352_">
			<path id="XMLID_353_" class="st0" d="M1377.4,597.9c-1.5-3.9-5.6-5.9-9.1-4.5l-4.5,1.7c-3.5,1.4-5.1,5.6-3.6,9.5
				c1.5,3.9,5.6,5.9,9.1,4.5l4.5-1.7C1377.3,606.1,1378.9,601.8,1377.4,597.9z"/>
		</g>
		<g id="XMLID_350_">
			<path id="XMLID_351_" class="st1" d="M1371,600.4c-1.3-3.5-5-5.3-8.1-4.1l-10.1,3.9c-3.1,1.2-4.6,5-3.2,8.5s5,5.3,8.1,4.1
				l10.1-3.9C1370.9,607.7,1372.3,603.9,1371,600.4z"/>
		</g>
		<g id="XMLID_348_">
			<path id="XMLID_349_" class="st0" d="M1366.1,602.4c-1.5-3.9-5.6-5.9-9.1-4.5l-6.4,2.5c-3.5,1.4-5.1,5.6-3.6,9.5
				c1.5,3.9,5.6,5.9,9.1,4.5l6.4-2.5C1365.9,610.5,1367.6,606.2,1366.1,602.4z"/>
		</g>
		<g id="XMLID_346_">
			
				<ellipse id="XMLID_347_" transform="matrix(0.3614 0.9324 -0.9324 0.3614 1430.4092 -873.9957)" class="st2" cx="1353.3" cy="607.3" rx="5.3" ry="4.8"/>
		</g>
		<g id="XMLID_344_">
			
				<rect id="XMLID_345_" x="1355.8" y="629.9" transform="matrix(0.3614 0.9324 -0.9324 0.3614 1465.5356 -879.4257)" class="st2" width="38" height="0.6"/>
		</g>
		<g id="XMLID_342_">
			
				<rect id="XMLID_343_" x="1334.7" y="575.6" transform="matrix(0.3614 0.9324 -0.9324 0.3614 1401.3724 -894.4952)" class="st2" width="38" height="0.6"/>
		</g>
		<g id="XMLID_340_">
			
				<rect id="XMLID_341_" x="1351.1" y="561.7" transform="matrix(0.3614 0.9324 -0.9324 0.3614 1394.0941 -896.2278)" class="st2" width="0.6" height="15.9"/>
		</g>
		<g id="XMLID_338_">
			
				<rect id="XMLID_339_" x="1355.8" y="574" transform="matrix(0.3614 0.9324 -0.9324 0.3614 1408.6176 -892.8168)" class="st2" width="0.6" height="15.9"/>
		</g>
		<g id="XMLID_336_">
			
				<rect id="XMLID_337_" x="1372.1" y="616.1" transform="matrix(0.3614 0.9324 -0.9324 0.3614 1458.2792 -881.1531)" class="st2" width="0.6" height="15.9"/>
		</g>
		<g id="XMLID_334_">
			
				<rect id="XMLID_335_" x="1376.9" y="628.4" transform="matrix(0.3614 0.9324 -0.9324 0.3614 1472.8029 -877.7421)" class="st2" width="0.6" height="15.9"/>
		</g>
	</g>
	<g id="XMLID_331_">
		<path id="XMLID_332_" class="st1" d="M1378,595c-0.1,0-0.2,0-0.2-0.1c-0.2-0.1-0.3-0.4-0.2-0.7l4.7-8.1c0.1-0.2,0.4-0.3,0.7-0.2
			c0.2,0.1,0.3,0.4,0.2,0.7l-4.7,8.1C1378.3,594.9,1378.2,595,1378,595z"/>
	</g>
	<g id="XMLID_329_">
		<path id="XMLID_330_" class="st1" d="M1388.4,603.6c-0.1,0-0.1,0-0.2,0l-8.6-3.6c-0.3-0.1-0.4-0.4-0.3-0.7
			c0.1-0.3,0.4-0.4,0.7-0.3l8.6,3.6c0.3,0.1,0.4,0.4,0.3,0.7C1388.7,603.4,1388.6,603.6,1388.4,603.6z"/>
	</g>
</g>
<g id="XMLID_296_">
	<g id="XMLID_301_">
		<g id="XMLID_326_">
			
				<rect id="XMLID_327_" x="655.6" y="493.3" transform="matrix(0.7071 -0.7071 0.7071 0.7071 -156.8835 629.4793)" class="st0" width="51.6" height="21.6"/>
		</g>
		<g id="XMLID_324_">
			
				<rect id="XMLID_325_" x="599.7" y="549.2" transform="matrix(0.7071 -0.7071 0.7071 0.7071 -212.8208 606.3093)" class="st0" width="51.6" height="21.6"/>
		</g>
		<g id="XMLID_322_">
			<path id="XMLID_323_" class="st1" d="M636.8,515.5c-3,3-3.2,7.6-0.5,10.4l6.8,6.8c2.7,2.7,7.4,2.5,10.4-0.5s3.2-7.6,0.5-10.4
				l-6.8-6.8C644.5,512.2,639.8,512.5,636.8,515.5z"/>
		</g>
		<g id="XMLID_320_">
			<path id="XMLID_321_" class="st0" d="M639.9,518.5c-4,4-4.3,10.1-0.7,13.8l4.6,4.6c3.6,3.6,9.8,3.3,13.8-0.7
				c4-4,4.3-10.1,0.7-13.8l-4.6-4.6C650,514.2,643.9,514.5,639.9,518.5z"/>
		</g>
		<g id="XMLID_318_">
			<path id="XMLID_319_" class="st1" d="M646.5,525.2c-3.6,3.6-3.8,9-0.6,12.3l10.4,10.4c3.2,3.2,8.7,3,12.3-0.6s3.8-9,0.6-12.3
				l-10.4-10.4C655.6,521.4,650.1,521.6,646.5,525.2z"/>
		</g>
		<g id="XMLID_316_">
			<path id="XMLID_317_" class="st0" d="M651.6,530.2c-4,4-4.3,10.1-0.7,13.8l6.6,6.6c3.6,3.6,9.8,3.3,13.8-0.7
				c4-4,4.3-10.1,0.7-13.8l-6.6-6.6C661.7,526,655.6,526.3,651.6,530.2z"/>
		</g>
		<g id="XMLID_314_">
			
				<ellipse id="XMLID_315_" transform="matrix(0.7071 -0.7071 0.7071 0.7071 -189.5339 629.1971)" class="st2" cx="664.7" cy="543.4" rx="7.2" ry="6.5"/>
		</g>
		<g id="XMLID_312_">
			
				<rect id="XMLID_313_" x="655.6" y="503.7" transform="matrix(0.7071 -0.7071 0.7071 0.7071 -156.8837 629.4795)" class="st2" width="51.6" height="0.8"/>
		</g>
		<g id="XMLID_310_">
			
				<rect id="XMLID_311_" x="599.7" y="559.6" transform="matrix(0.7071 -0.7071 0.7071 0.7071 -212.8209 606.3095)" class="st2" width="51.6" height="0.8"/>
		</g>
		<g id="XMLID_308_">
			
				<rect id="XMLID_309_" x="618.7" y="555.6" transform="matrix(0.7071 -0.7071 0.7071 0.7071 -219.1627 603.6602)" class="st2" width="0.8" height="21.6"/>
		</g>
		<g id="XMLID_306_">
			
				<rect id="XMLID_307_" x="631.4" y="542.9" transform="matrix(0.7071 -0.7071 0.7071 0.7071 -206.5012 608.9047)" class="st2" width="0.8" height="21.6"/>
		</g>
		<g id="XMLID_304_">
			
				<rect id="XMLID_305_" x="674.6" y="499.6" transform="matrix(0.7071 -0.7071 0.7071 0.7071 -163.2064 626.838)" class="st2" width="0.8" height="21.6"/>
		</g>
		<g id="XMLID_302_">
			
				<rect id="XMLID_303_" x="687.3" y="486.9" transform="matrix(0.7071 -0.7071 0.7071 0.7071 -150.5447 632.0827)" class="st2" width="0.8" height="21.6"/>
		</g>
	</g>
	<g id="XMLID_299_">
		<path id="XMLID_300_" class="st1" d="M642.7,515.1c-0.2,0.2-0.4,0.3-0.7,0.3c-0.6,0-1-0.4-1-1v-11.9c0-0.6,0.4-1,1-1s1,0.4,1,1
			v11.9C643,514.7,642.9,514.9,642.7,515.1z"/>
	</g>
	<g id="XMLID_297_">
		<path id="XMLID_298_" class="st1" d="M636.3,521.5c-0.2,0.2-0.4,0.3-0.7,0.3l-11.9,0c-0.6,0-1-0.4-1-1s0.4-1,1-1l11.9,0
			c0.6,0,1,0.4,1,1C636.6,521,636.5,521.3,636.3,521.5z"/>
	</g>
</g>
</svg>