<svg id="Layer_1" xmlns="http://www.w3.org/2000/svg" viewBox="0 0 1920 1080"><style>.st0{fill:#f1f1f1}.st1{fill:#d0d2d3}.st2{fill:#bbbdbf}</style><g id="XMLID_328_"><g id="XMLID_333_"><g id="XMLID_358_"><path id="XMLID_359_" class="st0" d="M1375.29 609.62l13.733 35.432-14.826 5.747-13.733-35.433z"/></g><g id="XMLID_356_"><path id="XMLID_357_" class="st0" d="M1354.223 555.218l13.733 35.43-14.825 5.747-13.732-35.43z"/></g><g id="XMLID_354_"><path id="XMLID_355_" class="st1" d="M1380.4 596.8c-1.1-2.9-4.2-4.5-6.8-3.4l-6.6 2.5c-2.6 1-3.9 4.2-2.7 7.1s4.2 4.5 6.8 3.4l6.6-2.5c2.6-1 3.9-4.2 2.7-7.1z"/></g><g id="XMLID_352_"><path id="XMLID_353_" class="st0" d="M1377.4 597.9c-1.5-3.9-5.6-5.9-9.1-4.5l-4.5 1.7c-3.5 1.4-5.1 5.6-3.6 9.5 1.5 3.9 5.6 5.9 9.1 4.5l4.5-1.7c3.5-1.3 5.1-5.6 3.6-9.5z"/></g><g id="XMLID_350_"><path id="XMLID_351_" class="st1" d="M1371 600.4c-1.3-3.5-5-5.3-8.1-4.1l-10.1 3.9c-3.1 1.2-4.6 5-3.2 8.5s5 5.3 8.1 4.1l10.1-3.9c3.1-1.2 4.5-5 3.2-8.5z"/></g><g id="XMLID_348_"><path id="XMLID_349_" class="st0" d="M1366.1 602.4c-1.5-3.9-5.6-5.9-9.1-4.5l-6.4 2.5c-3.5 1.4-5.1 5.6-3.6 9.5 1.5 3.9 5.6 5.9 9.1 4.5l6.4-2.5c3.4-1.4 5.1-5.7 3.6-9.5z"/></g><g id="XMLID_346_"><ellipse id="XMLID_347_" transform="rotate(68.814 1353.273 607.26)" class="st2" cx="1353.3" cy="607.3" rx="5.3" ry="4.8"/></g><g id="XMLID_344_"><path id="XMLID_345_" class="st2" d="M1368.203 612.368l13.733 35.43-.56.218-13.732-35.43z"/></g><g id="XMLID_342_"><path id="XMLID_343_" class="st2" d="M1347.044 558l13.733 35.432-.56.217-13.733-35.432z"/></g><g id="XMLID_340_"><path id="XMLID_341_" class="st2" d="M1358.653 566.536l.216.56-14.826 5.746-.217-.56z"/></g><g id="XMLID_338_"><path id="XMLID_339_" class="st2" d="M1363.406 578.775l.217.56-14.825 5.745-.217-.56z"/></g><g id="XMLID_336_"><path id="XMLID_337_" class="st2" d="M1379.704 620.85l.217.56-14.824 5.747-.217-.56z"/></g><g id="XMLID_334_"><path id="XMLID_335_" class="st2" d="M1384.494 633.183l.217.56-14.824 5.746-.217-.56z"/></g></g><g id="XMLID_331_"><path id="XMLID_332_" class="st1" d="M1378 595c-.1 0-.2 0-.2-.1-.2-.1-.3-.4-.2-.7l4.7-8.1c.1-.2.4-.3.7-.2.2.1.3.4.2.7l-4.7 8.1c-.2.2-.3.3-.5.3z"/></g><g id="XMLID_329_"><path id="XMLID_330_" class="st1" d="M1388.4 603.6h-.2l-8.6-3.6c-.3-.1-.4-.4-.3-.7.1-.3.4-.4.7-.3l8.6 3.6c.3.1.4.4.3.7-.2.1-.3.3-.5.3z"/></g></g><g id="XMLID_296_"><g id="XMLID_301_"><g id="XMLID_326_"><path id="XMLID_327_" class="st0" d="M655.504 514.717l36.486-36.486 15.273 15.274-36.486 36.486z"/></g><g id="XMLID_324_"><path id="XMLID_325_" class="st0" d="M599.566 570.6l36.487-36.486 15.273 15.274-36.486 36.486z"/></g><g id="XMLID_322_"><path id="XMLID_323_" class="st1" d="M636.8 515.5c-3 3-3.2 7.6-.5 10.4l6.8 6.8c2.7 2.7 7.4 2.5 10.4-.5s3.2-7.6.5-10.4l-6.8-6.8c-2.7-2.8-7.4-2.5-10.4.5z"/></g><g id="XMLID_320_"><path id="XMLID_321_" class="st0" d="M639.9 518.5c-4 4-4.3 10.1-.7 13.8l4.6 4.6c3.6 3.6 9.8 3.3 13.8-.7s4.3-10.1.7-13.8l-4.6-4.6c-3.7-3.6-9.8-3.3-13.8.7z"/></g><g id="XMLID_318_"><path id="XMLID_319_" class="st1" d="M646.5 525.2c-3.6 3.6-3.8 9-.6 12.3l10.4 10.4c3.2 3.2 8.7 3 12.3-.6s3.8-9 .6-12.3l-10.4-10.4c-3.2-3.2-8.7-3-12.3.6z"/></g><g id="XMLID_316_"><path id="XMLID_317_" class="st0" d="M651.6 530.2c-4 4-4.3 10.1-.7 13.8l6.6 6.6c3.6 3.6 9.8 3.3 13.8-.7s4.3-10.1.7-13.8l-6.6-6.6c-3.7-3.5-9.8-3.2-13.8.7z"/></g><g id="XMLID_314_"><ellipse id="XMLID_315_" transform="rotate(-45 664.738 543.397)" class="st2" cx="664.7" cy="543.4" rx="7.2" ry="6.5"/></g><g id="XMLID_312_"><path id="XMLID_313_" class="st2" d="M662.857 522.07l36.487-36.485.565.565-36.487 36.487z"/></g><g id="XMLID_310_"><path id="XMLID_311_" class="st2" d="M606.92 577.955l36.486-36.487.566.566-36.486 36.486z"/></g><g id="XMLID_308_"><path id="XMLID_309_" class="st2" d="M611.185 559.042l.566-.565 15.274 15.273-.566.566z"/></g><g id="XMLID_306_"><path id="XMLID_307_" class="st2" d="M623.846 546.326l.566-.565 15.273 15.274-.565.566z"/></g><g id="XMLID_304_"><path id="XMLID_305_" class="st2" d="M667.07 503.095l.566-.565 15.273 15.273-.566.566z"/></g><g id="XMLID_302_"><path id="XMLID_303_" class="st2" d="M679.732 490.38l.566-.566 15.273 15.274-.565.565z"/></g></g><g id="XMLID_299_"><path id="XMLID_300_" class="st1" d="M642.7 515.1c-.2.2-.4.3-.7.3-.6 0-1-.4-1-1v-11.9c0-.6.4-1 1-1s1 .4 1 1v11.9c0 .3-.1.5-.3.7z"/></g><g id="XMLID_297_"><path id="XMLID_298_" class="st1" d="M636.3 521.5c-.2.2-.4.3-.7.3h-11.9c-.6 0-1-.4-1-1s.4-1 1-1h11.9c.6 0 1 .4 1 1 0 .2-.1.5-.3.7z"/></g></g></svg>