<?xml version="1.0" encoding="utf-8"?>
<!-- Generator: Adobe Illustrator 19.0.0, SVG Export Plug-In . SVG Version: 6.00 Build 0)  -->
<svg version="1.1" id="Layer_1" xmlns="http://www.w3.org/2000/svg" xmlns:xlink="http://www.w3.org/1999/xlink" x="0px" y="0px"
	 viewBox="0 0 1920 1080" style="enable-background:new 0 0 1920 1080;" xml:space="preserve">
<style type="text/css">
	.st0{opacity:0.4;}
	.st1{opacity:0.44;fill:#FFFFFF;enable-background:new    ;}
	.st2{opacity:0.2;fill:#42210B;enable-background:new    ;}
	.st3{fill:#E6E7E8;}
	.st4{fill:#BABCBE;}
	.st5{fill:#A1715E;}
	.st6{fill:#D0D1D2;}
	.st7{fill:#F26E21;}
	.st8{fill:#E35425;}
	.st9{fill:#454547;}
	.st10{fill:#929497;}
	.st11{fill:#E6E6E6;}
	.st12{fill:#17B591;}
	.st13{fill:#D0D1D1;}
	.st14{clip-path:url(#SVGID_2_);fill:#77797C;}
	.st15{fill:#989A9C;}
	.st16{fill:#BCBDBD;}
	.st17{fill:#B9451E;}
	.st18{fill:#C55A1B;}
	.st19{fill:#373536;}
	.st20{fill:#F1F1F1;}
	.st21{fill:#FFFFFF;}
	.st22{fill:#808184;}
	.st23{fill:#6D6E70;}
</style>
<g id="XMLID_727_" class="st0">
	<polygon id="XMLID_729_" class="st1" points="-0.8,1079.5 806.7,1079.5 -0.8,272 	"/>
	<polygon id="XMLID_728_" class="st1" points="1919.1,588 1919.1,1079.6 1587.3,1079.6 507.6,-0.2 1330.9,-0.2 	"/>
</g>
<rect id="XMLID_726_" x="505.4" class="st2" width="12.8" height="784.9"/>
<rect id="XMLID_1_" x="430" class="st2" width="12.8" height="893"/>
<rect id="XMLID_3_" x="1475.8" class="st2" width="12.8" height="806.6"/>
<rect id="XMLID_2_" x="1400.4" class="st2" width="12.8" height="893"/>
<g id="XMLID_70_">
	<rect id="XMLID_82_" x="443.6" y="-0.2" class="st3" width="62.5" height="943"/>
	<polyline id="XMLID_88_" class="st3" points="1475.7,-0.2 1413.1,-0.2 1413.1,942.8 1475.7,942.8 1475.7,-0.2 	"/>
	<rect id="XMLID_89_" x="496.5" y="-0.2" class="st4" width="9.7" height="943"/>
	<polyline id="XMLID_94_" class="st4" points="1422.8,-0.2 1413.1,-0.2 1413.1,942.8 1422.8,942.8 1422.8,-0.2 	"/>
	<polygon id="XMLID_95_" class="st5" points="188.1,894.1 188.1,894.2 188.1,939.8 188,1015.8 188,1077.4 188,1079.9 0,1079.9 
		0,1069.1 138.9,939.8 	"/>
	<polygon id="XMLID_96_" class="st3" points="188.1,894.1 188.1,894.2 139,939.8 0,1069.1 0,894.1 	"/>
	<polygon id="XMLID_97_" class="st5" points="1731.9,894.1 1731.9,894.2 1731.9,1025.1 1790.9,1079.9 1920,1079.9 1920,1069.1 
		1781.1,939.8 	"/>
	<polygon id="XMLID_98_" class="st3" points="1731.9,894.1 1731.9,894.2 1781,939.8 1920,1069.1 1920,894.1 	"/>
	<polyline id="XMLID_99_" class="st3" points="1790.9,1079.9 129,1079.9 330.2,893 1589.7,893 1790.9,1079.9 	"/>
	<rect id="XMLID_100_" x="343.1" y="882.4" class="st6" width="90.8" height="45"/>
	<polygon id="XMLID_101_" class="st4" points="361,916.4 361,961.3 397.7,927.3 397.7,882.4 	"/>
	<polygon id="XMLID_102_" class="st4" points="306.3,916.4 306.3,961.3 343,927.3 343,882.4 	"/>
	<rect id="XMLID_103_" x="306.3" y="916.4" class="st7" width="90.8" height="64.9"/>
	<polygon id="XMLID_104_" class="st8" points="397.2,916.4 397.2,981.3 433.8,947.3 433.8,882.4 	"/>
	<rect id="XMLID_105_" x="612.6" y="801.4" class="st8" width="39.1" height="102.9"/>
	<polygon id="XMLID_106_" class="st7" points="489.6,927.9 410,1002.6 410,1005.6 572,1005.6 572,1002.6 572,1002.6 651.7,927.9 	
		"/>
	<path id="XMLID_108_" class="st9" d="M706.1,922.6l-3.4-3.7l15-14c0.1-0.1,0.1-0.2,0.1-0.3v-13.5c0-0.1,0-0.3-0.3-0.4
		c-0.3-0.1-0.4,0-0.5,0.1l-11.1,9.1l-3.2-3.9l11.1-9.1c1.6-1.4,3.9-1.6,5.8-0.7c1.9,0.9,3.1,2.8,3.1,4.9v13.5c0,1.5-0.6,3-1.7,4
		L706.1,922.6z"/>
	<path id="XMLID_109_" class="st9" d="M733.7,895c0.1-2.7-7.8-4.9-22.8-4.9c-17.1,0-36.5,2.2-39.8,6c-0.4,0.4-0.5,0.8-0.5,1.2v67.8
		l0,0c0.1,2.6,8,4.7,22.8,4.7c17.1,0,36.7-2.5,39.8-6c0.3-0.3,0.4-0.6,0.5-0.9l0,0V895z"/>
	<polyline id="XMLID_110_" class="st6" points="1526.7,806.7 1221.6,806.7 1258.3,840.7 1258.3,840.8 1258.3,984 1563.4,984 
		1563.4,840.8 1526.7,806.7 	"/>
	<polyline id="XMLID_111_" class="st10" points="1557.8,972.5 1264.4,972.5 1264.4,923 1557.8,923 1557.8,972.5 	"/>
	<polyline id="XMLID_112_" class="st10" points="1557.8,899.6 1264.4,899.6 1264.4,850.1 1557.8,850.1 1557.8,899.6 	"/>
	<polygon id="XMLID_113_" class="st4" points="1258.3,840.7 1258.3,984 1221.6,950 1221.6,806.7 	"/>
	<polyline id="XMLID_114_" class="st11" points="1554.2,923 1267.5,923 1267.5,968 1554.2,968 1554.2,923 	"/>
	<polyline id="XMLID_115_" class="st4" points="1534.9,957 1534.9,1002 1498.3,968 1498.3,923 1534.9,957 	"/>
	<polyline id="XMLID_119_" class="st7" points="1528.2,971.8 1487.3,971.8 1452.3,938.9 1493.3,938.9 1528.2,971.8 	"/>
	<polyline id="XMLID_120_" class="st4" points="1476,957 1476,1002 1439.3,968 1439.3,923 1476,957 	"/>
	<polyline id="XMLID_121_" class="st8" points="1396,929.9 1396,972.5 1431.1,996.2 1431.1,962.8 1396,929.9 	"/>
	<polyline id="XMLID_122_" class="st7" points="1472.1,962.8 1431.1,962.8 1396,929.9 1437.1,929.9 1472.1,962.8 	"/>
	<polyline id="XMLID_123_" class="st4" points="1420.4,957 1420.4,1002 1383.7,968 1383.7,923 1420.4,957 	"/>
	<polyline id="XMLID_124_" class="st7" points="1414.7,960.8 1373.8,960.8 1338.7,927.9 1379.8,927.9 1414.7,960.8 	"/>
	<polyline id="XMLID_125_" class="st8" points="1338.7,927.9 1338.7,970.5 1373.8,994.2 1373.8,960.8 1338.7,927.9 	"/>
	<polyline id="XMLID_126_" class="st4" points="1590.9,957 1590.9,1002 1554.2,968 1554.2,923 1590.9,957 	"/>
	<polyline id="XMLID_127_" class="st4" points="1361.5,957 1361.5,1002 1324.8,968 1324.8,923 1361.5,957 	"/>
	<rect id="XMLID_129_" x="1376.4" y="962.8" class="st12" width="41" height="33.4"/>
	<polyline id="XMLID_130_" class="st8" points="1277.8,927.9 1277.8,970.5 1312.8,994.2 1312.8,960.8 1277.8,927.9 	"/>
	<polyline id="XMLID_131_" class="st7" points="1353.8,960.8 1312.8,960.8 1277.8,927.9 1318.8,927.9 1353.8,960.8 	"/>
	<rect id="XMLID_132_" x="1312.8" y="960.8" class="st12" width="41" height="33.4"/>
	<polygon id="XMLID_133_" class="st13" points="1475.1,1002 1304.2,1002 1267.5,968 1438.4,968 	"/>
	<polyline id="XMLID_134_" class="st4" points="1304.2,957 1304.2,1002 1267.5,968 1267.5,923 1304.2,957 	"/>
	<rect id="XMLID_140_" x="1298.9" y="952.2" class="st9" width="297.5" height="52.7"/>
	<rect id="XMLID_141_" x="1443.1" y="974" class="st6" width="9" height="9"/>
	<polyline id="XMLID_142_" class="st4" points="1581.2,875.1 1581.2,920.1 1552.9,893.8 1544.5,886.1 1544.5,850.1 1554.2,850.1 
		1576,870.3 1576,870.3 1581.2,875.1 	"/>
	<polyline id="XMLID_143_" class="st11" points="1544.5,850.1 1544.5,886.1 1267.5,886.1 1267.5,850.1 1544.5,850.1 	"/>
	<polygon id="XMLID_144_" class="st7" points="1572.9,893.8 1531.8,893.8 1496.9,860.9 1537.8,860.9 	"/>
	<polyline id="XMLID_150_" class="st4" points="1525.2,875.1 1525.2,920.1 1488.6,886.1 1488.6,850.1 1498.3,850.1 1509.9,860.9 
		1520,870.3 1520,870.3 1525.2,875.1 	"/>
	<polyline id="XMLID_160_" class="st8" points="1475.6,880.8 1475.6,914.2 1466.3,907.9 1441,890.8 1440.6,890.6 1440.6,850.1 
		1442.9,850.1 1464.3,870.3 1475.6,880.8 	"/>
	<polyline id="XMLID_161_" class="st7" points="1516.5,880.8 1475.6,880.8 1464.3,870.3 1442.9,850.1 1483.9,850.1 1488.6,854.5 
		1505.3,870.3 1516.5,880.8 	"/>
	<polyline id="XMLID_162_" class="st4" points="1466.3,875.1 1466.3,920.1 1442.3,897.9 1436.1,892.1 1434.8,890.8 1429.6,886.1 
		1429.6,850.1 1439.3,850.1 1440.6,851.2 1461.1,870.3 1461.1,870.3 1466.3,875.1 	"/>
	<polygon id="XMLID_163_" class="st7" points="1460.4,890.8 1419.3,890.8 1384.3,857.9 1425.3,857.9 	"/>
	<polyline id="XMLID_164_" class="st4" points="1410.6,875.1 1410.6,920.1 1404.3,914.2 1404.3,914.2 1374,886.1 1374,850.1 
		1383.7,850.1 1392.1,857.9 1405.4,870.3 1405.4,870.3 1410.6,875.1 	"/>
	<polyline id="XMLID_165_" class="st7" points="1405,878.8 1364,878.8 1354.9,870.3 1333.4,850.1 1374.5,850.1 1395.8,870.3 
		1405,878.8 	"/>
	<polyline id="XMLID_166_" class="st8" points="1364,878.8 1364,912.2 1351.7,903.9 1344.1,898.8 1329,888.6 1329,850.1 
		1333.4,850.1 1354.9,870.3 1364,878.8 	"/>
	<polyline id="XMLID_167_" class="st4" points="1351.7,875.1 1351.7,920.1 1343.3,912.2 1343.3,912.2 1316.9,887.8 1315,886.1 
		1315,850.1 1324.8,850.1 1329,854 1329,854 1346.5,870.3 1346.5,870.3 1351.7,875.1 	"/>
	<rect id="XMLID_168_" x="1366.6" y="880.8" class="st12" width="41" height="33.4"/>
	<polygon id="XMLID_169_" class="st7" points="1346.1,887.8 1305.1,887.8 1270.1,854.9 1311.1,854.9 	"/>
	<rect id="XMLID_170_" x="1303.1" y="878.8" class="st12" width="41" height="33.4"/>
	<polygon id="XMLID_171_" class="st13" points="1465.3,920.1 1294.5,920.1 1289.1,915.1 1267.5,895.1 1267.5,886.1 1428.6,886.1 
		1433.8,890.8 1435.1,892.1 1442.3,898.8 	"/>
	<polyline id="XMLID_172_" class="st4" points="1294.5,875.1 1294.5,920.1 1289.1,915.1 1267.5,895.1 1267.5,850.1 1272.7,854.9 
		1289.3,870.3 1289.3,870.3 1294.5,875.1 	"/>
	<polyline id="XMLID_173_" class="st9" points="1586.6,922.8 1289.1,922.8 1289.1,870.3 1586.6,870.3 1586.6,922.8 	"/>
	<rect id="XMLID_174_" x="1433.4" y="892.1" class="st6" width="9" height="9"/>
	<polygon id="XMLID_175_" class="st4" points="1378.9,854.2 1379.3,854.6 1378.9,854.6 	"/>
	<g id="XMLID_185_">
		<g>
			<g>
				<defs>
					<path id="SVGID_1_" d="M1315,850.1h-47.5l0,0H1315L1315,850.1 M1329,850.1h-4.2l0,0H1329L1329,850.1 M1429.6,850.1h-96.1l0,0
						h41h9.3H1429.6L1429.6,850.1 M1440.6,850.1h-1.2l0,0H1440.6L1440.6,850.1 M1488.6,850.1h-4.7l0,0H1488.6L1488.6,850.1
						 M1544.5,850.1h-46.3l0,0H1544.5L1544.5,850.1 M1554.2,850.1L1554.2,850.1l3.3,3.1h0.2L1554.2,850.1"/>
				</defs>
				<clipPath id="SVGID_2_">
					<use xlink:href="#SVGID_1_"  style="overflow:visible;"/>
				</clipPath>
				<rect id="XMLID_186_" x="1267.5" y="850.1" class="st14" width="290.3" height="3.1"/>
			</g>
		</g>
	</g>
	<polyline id="XMLID_176_" class="st15" points="1554.2,850.1 1544.5,850.1 1544.5,850.1 1544.5,850.1 1544.5,853.2 1557.6,853.2 
		1554.2,850.1 	"/>
	<path id="XMLID_194_" class="st16" d="M1315,850.1h-47.5l3.3,3.1h44.2V850.1 M1329,850.1h-4.2l3.3,3.1h0.9L1329,850.1
		 M1429.6,850.1h-45.9l3.3,3.1h42.6V850.1 M1440.6,850.1h-1.2l1.2,1.1V850.1 M1488.6,850.1h-4.7l3.3,3.1h1.4L1488.6,850.1
		 M1544.5,850.1L1544.5,850.1h-46.3l3.3,3.1h42.9L1544.5,850.1"/>
	<polyline id="XMLID_195_" class="st15" points="1498.3,850.1 1488.6,850.1 1488.6,850.1 1488.6,853.2 1501.6,853.2 1498.3,850.1 
		1498.3,850.1 	"/>
	<polyline id="XMLID_196_" class="st17" points="1442.9,850.1 1440.6,850.1 1440.6,850.1 1440.6,851.2 1442.7,853.2 1446.2,853.2 
		1442.9,850.1 	"/>
	<polyline id="XMLID_197_" class="st18" points="1483.9,850.1 1442.9,850.1 1446.2,853.2 1487.2,853.2 1483.9,850.1 1483.9,850.1 	
		"/>
	<polyline id="XMLID_198_" class="st15" points="1439.3,850.1 1429.6,850.1 1429.6,850.1 1429.6,853.2 1442.7,853.2 1440.6,851.2 
		1439.3,850.1 1439.3,850.1 	"/>
	<polyline id="XMLID_199_" class="st15" points="1383.7,850.1 1374.5,850.1 1377.8,853.2 1387,853.2 1383.7,850.1 	"/>
	<polyline id="XMLID_200_" class="st18" points="1374.5,850.1 1333.5,850.1 1336.8,853.2 1377.8,853.2 1374.5,850.1 	"/>
	<polyline id="XMLID_201_" class="st17" points="1333.4,850.1 1329,850.1 1329,850.1 1329,853.2 1336.8,853.2 1333.5,850.1 
		1333.4,850.1 	"/>
	<polyline id="XMLID_202_" class="st15" points="1324.8,850.1 1315,850.1 1315,850.1 1315,853.2 1328.1,853.2 1324.8,850.1 
		1324.8,850.1 	"/>
	<polyline id="XMLID_203_" class="st16" points="1554.2,923 1267.5,923 1277.8,932.5 1277.8,927.9 1303.7,952.2 1277.8,927.9 
		1318.8,927.9 1324.8,933.4 1324.8,923 1338.7,936 1338.7,927.9 1379.8,927.9 1383.7,931.6 1383.7,923 1396,934.5 1396,929.9 
		1419.8,952.2 1396,929.9 1437.1,929.9 1439.3,932 1439.3,923 1456.4,938.9 1493.3,938.9 1498.3,943.6 1498.3,923 1529.7,952.2 
		1554.2,952.2 1554.2,923 	"/>
	<polyline id="XMLID_204_" class="st15" points="1498.3,923 1498.3,943.6 1507.4,952.2 1529.7,952.2 1498.3,923 	"/>
	<polyline id="XMLID_205_" class="st18" points="1493.3,938.9 1456.4,938.9 1470.8,952.2 1507.4,952.2 1498.3,943.6 1493.3,938.9 	
		"/>
	<polyline id="XMLID_206_" class="st15" points="1439.3,923 1439.3,932 1460.8,952.2 1470.8,952.2 1456.4,938.9 1439.3,923 	"/>
	<polyline id="XMLID_207_" class="st17" points="1396,929.9 1396,934.5 1415.1,952.2 1419.8,952.2 1396,929.9 	"/>
	<polyline id="XMLID_208_" class="st18" points="1437.1,929.9 1396,929.9 1419.8,952.2 1460.8,952.2 1439.3,932 1437.1,929.9 	"/>
	<polyline id="XMLID_209_" class="st15" points="1383.7,923 1383.7,931.6 1405.6,952.2 1415.1,952.2 1396,934.5 1383.7,923 	"/>
	<polyline id="XMLID_210_" class="st18" points="1379.8,927.9 1338.7,927.9 1364.6,952.2 1405.6,952.2 1383.7,931.6 1379.8,927.9 	
		"/>
	<polyline id="XMLID_211_" class="st17" points="1338.7,927.9 1338.7,927.9 1338.7,936 1356.2,952.2 1364.6,952.2 1338.7,927.9 	"/>
	<polyline id="XMLID_212_" class="st15" points="1554.2,923 1554.2,952.2 1585.7,952.2 1554.2,923 	"/>
	<polyline id="XMLID_213_" class="st15" points="1324.8,923 1324.8,933.4 1344.7,952.2 1356.2,952.2 1338.7,936 1324.8,923 	"/>
	<polyline id="XMLID_214_" class="st17" points="1277.8,927.9 1277.8,932.5 1299,952.2 1303.7,952.2 1277.8,927.9 	"/>
	<polyline id="XMLID_215_" class="st18" points="1318.8,927.9 1277.8,927.9 1303.7,952.2 1344.7,952.2 1324.8,933.4 1318.8,927.9 	
		"/>
	<rect id="XMLID_216_" x="704.9" y="1005" class="st9" width="157.1" height="7.3"/>
	<rect id="XMLID_217_" x="821.5" y="1001.5" class="st9" width="40.5" height="2"/>
	<path id="XMLID_218_" class="st19" d="M727.1,897.9c-2.5,2.8-18.2,4.8-32,4.8s-20.2-2.3-18-4.8c2.6-3,18.2-4.8,32-4.8
		S729.3,895.4,727.1,897.9z"/>
	<polygon id="XMLID_219_" class="st11" points="641.9,927.9 565.2,999.7 421.9,999.7 498.4,927.9 	"/>
	<polygon id="XMLID_220_" class="st20" points="637.9,925.9 561.2,997.7 417.9,997.7 494.4,925.9 	"/>
	<polygon id="XMLID_221_" class="st21" points="650.9,921.9 574.2,993.7 430.8,993.7 507.4,921.9 	"/>
	<polygon id="XMLID_222_" class="st11" points="655.9,907.5 579.2,979.2 435.8,979.2 512.4,907.5 	"/>
	<polygon id="XMLID_223_" class="st21" points="507.4,902 430.8,973.7 430.8,993.7 574.2,993.7 574.2,973.7 650.9,902 	"/>
	<polygon id="XMLID_224_" class="st11" points="574.2,993.7 574.2,973.7 650.9,902 650.9,921.9 	"/>
	<polygon id="XMLID_225_" class="st20" points="650.9,902 574.2,973.7 430.8,973.7 507.4,902 	"/>
	<polygon id="XMLID_226_" class="st22" points="1273,823.4 1273,832.5 1247.6,808.8 1247.6,785.7 	"/>
	<polygon id="XMLID_227_" class="st4" points="1303.1,785.7 1247.6,785.7 1273,823.4 1328.6,823.4 	"/>
	<polygon id="XMLID_228_" class="st22" points="1303.4,794.5 1261.2,794.5 1256.8,787.9 1299,787.9 	"/>
	<polygon id="XMLID_229_" class="st6" points="1320.1,819.4 1277.9,819.4 1263.7,798.8 1306,798.8 	"/>
	<rect id="XMLID_230_" x="1273" y="823.4" class="st4" width="55.6" height="9.1"/>
	<polygon id="XMLID_231_" class="st8" points="651.6,928 651.6,904.3 624.9,929.3 611.9,965.3 611.9,965.3 572,1002.6 572,1005.6 
		572.7,1005 651.7,930.9 651.7,927.9 	"/>
	<polygon id="XMLID_232_" class="st7" points="649,904.3 622.3,929.3 609.3,965.3 611.9,965.3 624.9,929.3 651.6,904.3 	"/>
	<polygon id="XMLID_233_" class="st7" points="489.5,867.9 409.9,942.5 409.9,945.5 571.9,945.5 571.9,942.5 571.9,942.5 
		651.6,867.9 	"/>
	<polygon id="XMLID_234_" class="st8" points="651.5,867.9 492,867.9 490.7,869.1 490.7,845.5 492,844.3 651.5,844.3 	"/>
	<polygon id="XMLID_235_" class="st11" points="637.8,868.9 561.1,940.6 417.8,940.6 494.3,868.9 	"/>
	<polygon id="XMLID_236_" class="st20" points="644.8,866.9 568.1,938.6 424.8,938.6 501.3,866.9 	"/>
	<polygon id="XMLID_237_" class="st20" points="650,866.1 573.3,937.8 429.8,937.8 506.5,866.1 	"/>
	<polygon id="XMLID_238_" class="st8" points="624.9,869.3 611.9,905.2 571.9,942.5 571.9,945.5 572.6,944.9 651.6,870.9 
		651.6,844.3 	"/>
	<polygon id="XMLID_239_" class="st7" points="649,844.3 651.6,844.3 624.9,869.3 622.3,869.3 	"/>
	<polygon id="XMLID_240_" class="st7" points="611.8,905.3 609.2,905.3 622.3,869.3 624.9,869.3 	"/>
	<polygon id="XMLID_241_" class="st8" points="490.7,845.5 490.7,869.1 452.2,905.3 465.3,869.3 	"/>
	<polygon id="XMLID_242_" class="st7" points="489.4,844.3 462.7,869.3 449.6,905.3 452.2,905.3 465.3,869.3 492,844.3 	"/>
	<rect id="XMLID_243_" x="649.1" y="868.6" class="st8" width="2.6" height="41.3"/>
	<polygon id="XMLID_244_" class="st7" points="649.1,906.7 646.5,906.7 646.5,875.9 649.1,873.4 	"/>
	<polygon id="XMLID_245_" class="st7" points="489.5,807.8 409.9,882.5 409.9,885.5 571.9,885.5 571.9,882.5 571.9,882.5 
		651.6,807.8 	"/>
	<polygon id="XMLID_246_" class="st7" points="651.5,807.8 492,807.8 490.7,809 490.7,785.4 492,784.2 651.5,784.2 	"/>
	<polygon id="XMLID_247_" class="st11" points="637.8,808.8 561.1,880.6 417.8,880.6 494.3,808.8 	"/>
	<polygon id="XMLID_248_" class="st20" points="644.8,806.8 568.1,878.6 424.8,878.6 501.3,806.8 	"/>
	<polygon id="XMLID_249_" class="st21" points="650,806 573.3,877.8 429.8,877.8 506.5,806 	"/>
	<polygon id="XMLID_250_" class="st8" points="490.7,785.4 490.7,809 452.2,845.1 465.3,809.1 	"/>
	<polygon id="XMLID_251_" class="st7" points="489.4,784.2 462.7,809.1 449.6,845.1 452.2,845.1 465.3,809.1 492,784.2 	"/>
	<polygon id="XMLID_252_" class="st21" points="495.4,799.8 418.9,871.5 418.9,876.5 562.2,876.5 562.2,871.5 638.9,799.8 	"/>
	<polygon id="XMLID_253_" class="st11" points="562.2,876.5 562.2,871.5 638.9,799.8 638.9,804.7 	"/>
	<polygon id="XMLID_254_" class="st8" points="624.9,809.1 611.9,845 571.9,882.5 571.9,885.5 572.6,884.9 651.6,810.8 651.6,784.2 
			"/>
	<polygon id="XMLID_255_" class="st7" points="649,784.2 622.3,809.1 609.2,845.1 611.8,845.1 624.9,809.1 651.6,784.2 	"/>
	<rect id="XMLID_256_" x="649.1" y="808.5" class="st8" width="2.6" height="41.3"/>
	<polygon id="XMLID_257_" class="st7" points="649.1,846.6 646.5,846.6 646.5,815.7 649.1,813.3 	"/>
	<path id="XMLID_258_" class="st3" d="M712.5,935.6v-31.5c0-1.3-0.8-2.5-2.1-2.9l-1.5-0.5c-0.5-0.2-1.1-0.1-1.6,0.2
		s-0.7,0.9-0.7,1.4h1c0-0.2,0.1-0.5,0.3-0.6s0.4-0.2,0.7-0.1l1.5,0.5c0.8,0.3,1.4,1.1,1.4,2v31.7l-3,2v9.4h7.1v-9.4L712.5,935.6z"/>
	<polygon id="XMLID_259_" class="st23" points="188,940 279.8,940 188,1025.1 	"/>
	<polygon id="XMLID_260_" class="st23" points="1731.9,1025.1 1640.1,940 1731.8,940 	"/>
</g>
</svg>