<svg id="Layer_1" xmlns="http://www.w3.org/2000/svg" xmlns:xlink="http://www.w3.org/1999/xlink" viewBox="0 0 1920 1080"><style>.st0{opacity:.4}.st1{opacity:.44;fill:#FFF}.st1,.st2{enable-background:new}.st2{opacity:.2;fill:#42210b}.st3{fill:#e6e7e8}.st4{fill:#babcbe}.st5{fill:#a1715e}.st6{fill:#d0d1d2}.st7{fill:#f26e21}.st8{fill:#e35425}.st9{fill:#454547}.st10{fill:#929497}.st11{fill:#e6e6e6}.st12{fill:#17b591}.st13{fill:#d0d1d1}.st14{clip-path:url(#SVGID_2_);fill:#77797c}.st15{fill:#989a9c}.st16{fill:#bcbdbd}.st17{fill:#b9451e}.st18{fill:#c55a1b}.st19{fill:#373536}.st20{fill:#f1f1f1}.st21{fill:#FFF}.st22{fill:#808184}.st23{fill:#6d6e70}</style><g id="XMLID_727_" class="st0"><path id="XMLID_729_" class="st1" d="M-.8 1079.5h807.5L-.8 272z"/><path id="XMLID_728_" class="st1" d="M1919.1 588v491.6h-331.8L507.6-.2h823.3z"/></g><path id="XMLID_726_" class="st2" d="M505.4 0h12.8v784.9h-12.8z"/><path id="XMLID_1_" class="st2" d="M430 0h12.8v893H430z"/><path id="XMLID_3_" class="st2" d="M1475.8 0h12.8v806.6h-12.8z"/><path id="XMLID_2_" class="st2" d="M1400.4 0h12.8v893h-12.8z"/><g id="XMLID_70_"><path id="XMLID_82_" class="st3" d="M443.6-.2h62.5v943h-62.5z"/><path id="XMLID_88_" class="st3" d="M1475.7-.2h-62.6v943h62.6V-.2"/><path id="XMLID_89_" class="st4" d="M496.5-.2h9.7v943h-9.7z"/><path id="XMLID_94_" class="st4" d="M1422.8-.2h-9.7v943h9.7V-.2"/><path id="XMLID_95_" class="st5" d="M188.1 894.1v45.7l-.1 76v64.1H0v-10.8l138.9-129.3z"/><path id="XMLID_96_" class="st3" d="M188.1 894.1v.1L139 939.8 0 1069.1v-175z"/><path id="XMLID_97_" class="st5" d="M1731.9 894.1v131l59 54.8H1920v-10.8l-138.9-129.3z"/><path id="XMLID_98_" class="st3" d="M1731.9 894.1v.1l49.1 45.6 139 129.3v-175z"/><path id="XMLID_99_" class="st3" d="M1790.9 1079.9H129L330.2 893h1259.5l201.2 186.9"/><path id="XMLID_100_" class="st6" d="M343.1 882.4h90.8v45h-90.8z"/><path id="XMLID_101_" class="st4" d="M361 916.4v44.9l36.7-34v-44.9z"/><path id="XMLID_102_" class="st4" d="M306.3 916.4v44.9l36.7-34v-44.9z"/><path id="XMLID_103_" class="st7" d="M306.3 916.4h90.8v64.9h-90.8z"/><path id="XMLID_104_" class="st8" d="M397.2 916.4v64.9l36.6-34v-64.9z"/><path id="XMLID_105_" class="st8" d="M612.6 801.4h39.1v102.9h-39.1z"/><path id="XMLID_106_" class="st7" d="M489.6 927.9l-79.6 74.7v3h162v-3l79.7-74.7z"/><path id="XMLID_108_" class="st9" d="M706.1 922.6l-3.4-3.7 15-14c.1-.1.1-.2.1-.3v-13.5c0-.1 0-.3-.3-.4-.3-.1-.4 0-.5.1l-11.1 9.1-3.2-3.9 11.1-9.1c1.6-1.4 3.9-1.6 5.8-.7 1.9.9 3.1 2.8 3.1 4.9v13.5c0 1.5-.6 3-1.7 4l-14.9 14z"/><path id="XMLID_109_" class="st9" d="M733.7 895c.1-2.7-7.8-4.9-22.8-4.9-17.1 0-36.5 2.2-39.8 6-.4.4-.5.8-.5 1.2v67.8c.1 2.6 8 4.7 22.8 4.7 17.1 0 36.7-2.5 39.8-6 .3-.3.4-.6.5-.9V895z"/><path id="XMLID_110_" class="st6" d="M1526.7 806.7h-305.1l36.7 34V984h305.1V840.8l-36.7-34.1"/><path id="XMLID_111_" class="st10" d="M1557.8 972.5h-293.4V923h293.4v49.5"/><path id="XMLID_112_" class="st10" d="M1557.8 899.6h-293.4v-49.5h293.4v49.5"/><path id="XMLID_113_" class="st4" d="M1258.3 840.7V984l-36.7-34V806.7z"/><path id="XMLID_114_" class="st11" d="M1554.2 923h-286.7v45h286.7v-45"/><path id="XMLID_115_" class="st4" d="M1534.9 957v45l-36.6-34v-45l36.6 34"/><path id="XMLID_119_" class="st7" d="M1528.2 971.8h-40.9l-35-32.9h41l34.9 32.9"/><path id="XMLID_120_" class="st4" d="M1476 957v45l-36.7-34v-45l36.7 34"/><path id="XMLID_121_" class="st8" d="M1396 929.9v42.6l35.1 23.7v-33.4l-35.1-32.9"/><path id="XMLID_122_" class="st7" d="M1472.1 962.8h-41l-35.1-32.9h41.1l35 32.9"/><path id="XMLID_123_" class="st4" d="M1420.4 957v45l-36.7-34v-45l36.7 34"/><path id="XMLID_124_" class="st7" d="M1414.7 960.8h-40.9l-35.1-32.9h41.1l34.9 32.9"/><path id="XMLID_125_" class="st8" d="M1338.7 927.9v42.6l35.1 23.7v-33.4l-35.1-32.9"/><path id="XMLID_126_" class="st4" d="M1590.9 957v45l-36.7-34v-45l36.7 34"/><path id="XMLID_127_" class="st4" d="M1361.5 957v45l-36.7-34v-45l36.7 34"/><path id="XMLID_129_" class="st12" d="M1376.4 962.8h41v33.4h-41z"/><path id="XMLID_130_" class="st8" d="M1277.8 927.9v42.6l35 23.7v-33.4l-35-32.9"/><path id="XMLID_131_" class="st7" d="M1353.8 960.8h-41l-35-32.9h41l35 32.9"/><path id="XMLID_132_" class="st12" d="M1312.8 960.8h41v33.4h-41z"/><path id="XMLID_133_" class="st13" d="M1475.1 1002h-170.9l-36.7-34h170.9z"/><path id="XMLID_134_" class="st4" d="M1304.2 957v45l-36.7-34v-45l36.7 34"/><path id="XMLID_140_" class="st9" d="M1298.9 952.2h297.5v52.7h-297.5z"/><path id="XMLID_141_" class="st6" d="M1443.1 974h9v9h-9z"/><path id="XMLID_142_" class="st4" d="M1581.2 875.1v45l-28.3-26.3-8.4-7.7v-36h9.7l21.8 20.2 5.2 4.8"/><path id="XMLID_143_" class="st11" d="M1544.5 850.1v36h-277v-36h277"/><path id="XMLID_144_" class="st7" d="M1572.9 893.8h-41.1l-34.9-32.9h40.9z"/><path id="XMLID_150_" class="st4" d="M1525.2 875.1v45l-36.6-34v-36h9.7l11.6 10.8 10.1 9.4 5.2 4.8"/><path id="XMLID_160_" class="st8" d="M1475.6 880.8v33.4l-9.3-6.3-25.3-17.1-.4-.2v-40.5h2.3l21.4 20.2 11.3 10.5"/><path id="XMLID_161_" class="st7" d="M1516.5 880.8h-40.9l-11.3-10.5-21.4-20.2h41l4.7 4.4 16.7 15.8 11.2 10.5"/><path id="XMLID_162_" class="st4" d="M1466.3 875.1v45l-24-22.2-6.2-5.8-1.3-1.3-5.2-4.7v-36h9.7l1.3 1.1 20.5 19.1 5.2 4.8"/><path id="XMLID_163_" class="st7" d="M1460.4 890.8h-41.1l-35-32.9h41z"/><path id="XMLID_164_" class="st4" d="M1410.6 875.1v45l-6.3-5.9-30.3-28.1v-36h9.7l8.4 7.8 13.3 12.4 5.2 4.8"/><path id="XMLID_165_" class="st7" d="M1405 878.8h-41l-9.1-8.5-21.5-20.2h41.1l21.3 20.2 9.2 8.5"/><path id="XMLID_166_" class="st8" d="M1364 878.8v33.4l-12.3-8.3-7.6-5.1-15.1-10.2v-38.5h4.4l21.5 20.2 9.1 8.5"/><path id="XMLID_167_" class="st4" d="M1351.7 875.1v45l-8.4-7.9-26.4-24.4-1.9-1.7v-36h9.8l4.2 3.9 17.5 16.3 5.2 4.8"/><path id="XMLID_168_" class="st12" d="M1366.6 880.8h41v33.4h-41z"/><path id="XMLID_169_" class="st7" d="M1346.1 887.8h-41l-35-32.9h41z"/><path id="XMLID_170_" class="st12" d="M1303.1 878.8h41v33.4h-41z"/><path id="XMLID_171_" class="st13" d="M1465.3 920.1h-170.8l-5.4-5-21.6-20v-9h161.1l5.2 4.7 1.3 1.3 7.2 6.7z"/><path id="XMLID_172_" class="st4" d="M1294.5 875.1v45l-5.4-5-21.6-20v-45l5.2 4.8 16.6 15.4 5.2 4.8"/><path id="XMLID_173_" class="st9" d="M1586.6 922.8h-297.5v-52.5h297.5v52.5"/><path id="XMLID_174_" class="st6" d="M1433.4 892.1h9v9h-9z"/><path id="XMLID_175_" class="st4" d="M1378.9 854.2l.4.4h-.4z"/><g id="XMLID_185_"><defs><path id="SVGID_1_" d="M1315 850.1h-47.5 47.5m14 0h-4.2 4.2m100.6 0h-96.1 96.1m11 0h-1.2 1.2m48 0h-4.7 4.7m55.9 0h-46.3 46.3m9.7 0l3.3 3.1h.2l-3.5-3.1"/></defs><clipPath id="SVGID_2_"><use xlink:href="#SVGID_1_" overflow="visible"/></clipPath><path id="XMLID_186_" class="st14" d="M1267.5 850.1h290.3v3.1h-290.3z"/></g><path id="XMLID_176_" class="st15" d="M1554.2 850.1h-9.7v3.1h13.1l-3.4-3.1"/><path id="XMLID_194_" class="st16" d="M1315 850.1h-47.5l3.3 3.1h44.2v-3.1m14 0h-4.2l3.3 3.1h.9v-3.1m100.6 0h-45.9l3.3 3.1h42.6v-3.1m11 0h-1.2l1.2 1.1v-1.1m48 0h-4.7l3.3 3.1h1.4v-3.1m55.9 0h-46.3l3.3 3.1h42.9l.1-3.1"/><path id="XMLID_195_" class="st15" d="M1498.3 850.1h-9.7v3.1h13l-3.3-3.1"/><path id="XMLID_196_" class="st17" d="M1442.9 850.1h-2.3v1.1l2.1 2h3.5l-3.3-3.1"/><path id="XMLID_197_" class="st18" d="M1483.9 850.1h-41l3.3 3.1h41l-3.3-3.1"/><path id="XMLID_198_" class="st15" d="M1439.3 850.1h-9.7v3.1h13.1l-2.1-2-1.3-1.1"/><path id="XMLID_199_" class="st15" d="M1383.7 850.1h-9.2l3.3 3.1h9.2l-3.3-3.1"/><path id="XMLID_200_" class="st18" d="M1374.5 850.1h-41l3.3 3.1h41l-3.3-3.1"/><path id="XMLID_201_" class="st17" d="M1333.4 850.1h-4.4v3.1h7.8l-3.3-3.1h-.1"/><path id="XMLID_202_" class="st15" d="M1324.8 850.1h-9.8v3.1h13.1l-3.3-3.1"/><path id="XMLID_203_" class="st16" d="M1554.2 923h-286.7l10.3 9.5v-4.6l25.9 24.3-25.9-24.3h41l6 5.5V923l13.9 13v-8.1h41.1l3.9 3.7V923l12.3 11.5v-4.6l23.8 22.3-23.8-22.3h41.1l2.2 2.1v-9l17.1 15.9h36.9l5 4.7V923l31.4 29.2h24.5V923"/><path id="XMLID_204_" class="st15" d="M1498.3 923v20.6l9.1 8.6h22.3l-31.4-29.2"/><path id="XMLID_205_" class="st18" d="M1493.3 938.9h-36.9l14.4 13.3h36.6l-9.1-8.6-5-4.7"/><path id="XMLID_206_" class="st15" d="M1439.3 923v9l21.5 20.2h10l-14.4-13.3-17.1-15.9"/><path id="XMLID_207_" class="st17" d="M1396 929.9v4.6l19.1 17.7h4.7l-23.8-22.3"/><path id="XMLID_208_" class="st18" d="M1437.1 929.9H1396l23.8 22.3h41l-21.5-20.2-2.2-2.1"/><path id="XMLID_209_" class="st15" d="M1383.7 923v8.6l21.9 20.6h9.5l-19.1-17.7-12.3-11.5"/><path id="XMLID_210_" class="st18" d="M1379.8 927.9h-41.1l25.9 24.3h41l-21.9-20.6-3.9-3.7"/><path id="XMLID_211_" class="st17" d="M1338.7 927.9v8.1l17.5 16.2h8.4l-25.9-24.3"/><path id="XMLID_212_" class="st15" d="M1554.2 923v29.2h31.5l-31.5-29.2"/><path id="XMLID_213_" class="st15" d="M1324.8 923v10.4l19.9 18.8h11.5l-17.5-16.2-13.9-13"/><path id="XMLID_214_" class="st17" d="M1277.8 927.9v4.6l21.2 19.7h4.7l-25.9-24.3"/><path id="XMLID_215_" class="st18" d="M1318.8 927.9h-41l25.9 24.3h41l-19.9-18.8-6-5.5"/><path id="XMLID_216_" class="st9" d="M704.9 1005H862v7.3H704.9z"/><path id="XMLID_217_" class="st9" d="M821.5 1001.5H862v2h-40.5z"/><path id="XMLID_218_" class="st19" d="M727.1 897.9c-2.5 2.8-18.2 4.8-32 4.8s-20.2-2.3-18-4.8c2.6-3 18.2-4.8 32-4.8s20.2 2.3 18 4.8z"/><path id="XMLID_219_" class="st11" d="M641.9 927.9l-76.7 71.8H421.9l76.5-71.8z"/><path id="XMLID_220_" class="st20" d="M637.9 925.9l-76.7 71.8H417.9l76.5-71.8z"/><path id="XMLID_221_" class="st21" d="M650.9 921.9l-76.7 71.8H430.8l76.6-71.8z"/><path id="XMLID_222_" class="st11" d="M655.9 907.5l-76.7 71.7H435.8l76.6-71.7z"/><path id="XMLID_223_" class="st21" d="M507.4 902l-76.6 71.7v20h143.4v-20l76.7-71.7z"/><path id="XMLID_224_" class="st11" d="M574.2 993.7v-20l76.7-71.7v19.9z"/><path id="XMLID_225_" class="st20" d="M650.9 902l-76.7 71.7H430.8l76.6-71.7z"/><path id="XMLID_226_" class="st22" d="M1273 823.4v9.1l-25.4-23.7v-23.1z"/><path id="XMLID_227_" class="st4" d="M1303.1 785.7h-55.5l25.4 37.7h55.6z"/><path id="XMLID_228_" class="st22" d="M1303.4 794.5h-42.2l-4.4-6.6h42.2z"/><path id="XMLID_229_" class="st6" d="M1320.1 819.4h-42.2l-14.2-20.6h42.3z"/><path id="XMLID_230_" class="st4" d="M1273 823.4h55.6v9.1H1273z"/><path id="XMLID_231_" class="st8" d="M651.6 928v-23.7l-26.7 25-13 36-39.9 37.3v3l.7-.6 79-74.1v-3z"/><path id="XMLID_232_" class="st7" d="M649 904.3l-26.7 25-13 36h2.6l13-36 26.7-25z"/><path id="XMLID_233_" class="st7" d="M489.5 867.9l-79.6 74.6v3h162v-3l79.7-74.6z"/><path id="XMLID_234_" class="st8" d="M651.5 867.9H492l-1.3 1.2v-23.6l1.3-1.2h159.5z"/><path id="XMLID_235_" class="st11" d="M637.8 868.9l-76.7 71.7H417.8l76.5-71.7z"/><path id="XMLID_236_" class="st20" d="M644.8 866.9l-76.7 71.7H424.8l76.5-71.7z"/><path id="XMLID_237_" class="st20" d="M650 866.1l-76.7 71.7H429.8l76.7-71.7z"/><path id="XMLID_238_" class="st8" d="M624.9 869.3l-13 35.9-40 37.3v3l.7-.6 79-74v-26.6z"/><path id="XMLID_239_" class="st7" d="M649 844.3h2.6l-26.7 25h-2.6z"/><path id="XMLID_240_" class="st7" d="M611.8 905.3h-2.6l13.1-36h2.6z"/><path id="XMLID_241_" class="st8" d="M490.7 845.5v23.6l-38.5 36.2 13.1-36z"/><path id="XMLID_242_" class="st7" d="M489.4 844.3l-26.7 25-13.1 36h2.6l13.1-36 26.7-25z"/><path id="XMLID_243_" class="st8" d="M649.1 868.6h2.6v41.3h-2.6z"/><path id="XMLID_244_" class="st7" d="M649.1 906.7h-2.6v-30.8l2.6-2.5z"/><path id="XMLID_245_" class="st7" d="M489.5 807.8l-79.6 74.7v3h162v-3l79.7-74.7z"/><path id="XMLID_246_" class="st7" d="M651.5 807.8H492l-1.3 1.2v-23.6l1.3-1.2h159.5z"/><path id="XMLID_247_" class="st11" d="M637.8 808.8l-76.7 71.8H417.8l76.5-71.8z"/><path id="XMLID_248_" class="st20" d="M644.8 806.8l-76.7 71.8H424.8l76.5-71.8z"/><path id="XMLID_249_" class="st21" d="M650 806l-76.7 71.8H429.8l76.7-71.8z"/><path id="XMLID_250_" class="st8" d="M490.7 785.4V809l-38.5 36.1 13.1-36z"/><path id="XMLID_251_" class="st7" d="M489.4 784.2l-26.7 24.9-13.1 36h2.6l13.1-36 26.7-24.9z"/><path id="XMLID_252_" class="st21" d="M495.4 799.8l-76.5 71.7v5h143.3v-5l76.7-71.7z"/><path id="XMLID_253_" class="st11" d="M562.2 876.5v-5l76.7-71.7v4.9z"/><path id="XMLID_254_" class="st8" d="M624.9 809.1l-13 35.9-40 37.5v3l.7-.6 79-74.1v-26.6z"/><path id="XMLID_255_" class="st7" d="M649 784.2l-26.7 24.9-13.1 36h2.6l13.1-36 26.7-24.9z"/><path id="XMLID_256_" class="st8" d="M649.1 808.5h2.6v41.3h-2.6z"/><path id="XMLID_257_" class="st7" d="M649.1 846.6h-2.6v-30.9l2.6-2.4z"/><path id="XMLID_258_" class="st3" d="M712.5 935.6v-31.5c0-1.3-.8-2.5-2.1-2.9l-1.5-.5c-.5-.2-1.1-.1-1.6.2s-.7.9-.7 1.4h1c0-.2.1-.5.3-.6s.4-.2.7-.1l1.5.5c.8.3 1.4 1.1 1.4 2v31.7l-3 2v9.4h7.1v-9.4l-3.1-2.2z"/><path id="XMLID_259_" class="st23" d="M188 940h91.8l-91.8 85.1z"/><path id="XMLID_260_" class="st23" d="M1731.9 1025.1l-91.8-85.1h91.7z"/></g></svg>