<?xml version="1.0" encoding="utf-8"?>
<!-- Generator: Adobe Illustrator 19.0.0, SVG Export Plug-In . SVG Version: 6.00 Build 0)  -->
<svg version="1.1" id="Layer_1" xmlns="http://www.w3.org/2000/svg" xmlns:xlink="http://www.w3.org/1999/xlink" x="0px" y="0px"
	 viewBox="0 0 1920 1080" style="enable-background:new 0 0 1920 1080;" xml:space="preserve">
<style type="text/css">
	.st0{fill:#E6E7E8;}
	.st1{fill:#E6E6E6;}
	.st2{fill:#BABCBE;}
	.st3{fill:#F16E24;}
	.st4{fill:#E35525;}
	.st5{fill:#D0D1D2;}
	.st6{fill:#D0D1D1;}
	.st7{fill:#17B591;}
	.st8{fill:#454547;}
	.st9{fill:#A5A7AA;}
	.st10{fill:#F1F1F1;}
	.st11{fill:#FFFFFF;}
	.st12{fill:#373536;}
</style>
<g id="XMLID_4_">
	<polygon id="XMLID_2_" class="st0" points="1676.1,1080 243.9,1080 445.2,893 1474.8,893 	"/>
	<rect id="XMLID_1320_" x="1220.4" y="914" class="st1" width="170.9" height="45"/>
	<polygon id="XMLID_1319_" class="st2" points="1373.4,948 1373.4,993 1336.7,959 1336.7,914 	"/>
	<g id="XMLID_1316_">
		<polygon id="XMLID_1318_" class="st3" points="1368.7,951.8 1327.7,951.8 1292.6,918.9 1333.7,918.9 		"/>
		<polygon id="XMLID_1317_" class="st4" points="1292.6,918.9 1292.6,961.5 1327.7,985.2 1327.7,951.8 		"/>
	</g>
	<polygon id="XMLID_1315_" class="st2" points="1428,948 1428,993 1391.3,959 1391.3,914 	"/>
	<polygon id="XMLID_1314_" class="st2" points="1314.4,948 1314.4,993 1277.7,959 1277.7,914 	"/>
	<rect id="XMLID_1313_" x="1220.4" y="809.9" class="st1" width="170.9" height="101.1"/>
	<polygon id="XMLID_1312_" class="st2" points="1391.3,809.9 1391.3,911 1376.9,897.4 1376.9,796.4 	"/>
	<polygon id="XMLID_1311_" class="st5" points="1391.3,809.9 1220.4,809.9 1206,796.4 1376.9,796.4 	"/>
	<polygon id="XMLID_1310_" class="st6" points="1391.3,911 1220.4,911 1206,897.4 1376.9,897.4 	"/>
	<polygon id="XMLID_1309_" class="st2" points="1305.7,805.5 1296.7,805.5 1291.6,800.8 1300.7,800.8 	"/>
	<rect id="XMLID_1308_" x="1329.3" y="953.8" class="st7" width="41" height="33.4"/>
	<polygon id="XMLID_1307_" class="st2" points="1220.4,809.9 1220.4,911 1206,897.4 1206,796.4 	"/>
	<rect id="XMLID_1306_" x="1220.4" y="911" class="st8" width="36.7" height="3"/>
	<rect id="XMLID_1305_" x="1355" y="911" class="st8" width="36.7" height="3"/>
	<rect id="XMLID_1304_" x="1274" y="809.9" class="st9" width="49.3" height="7.8"/>
	<polygon id="XMLID_1303_" class="st4" points="1233.7,890.9 1233.7,933.5 1268.7,957.2 1268.7,923.8 	"/>
	<polygon id="XMLID_1302_" class="st3" points="1309.8,923.8 1268.7,923.8 1233.7,890.9 1274.7,890.9 	"/>
	<rect id="XMLID_1301_" x="1268.7" y="923.8" class="st3" width="41" height="33.4"/>
	<polygon id="XMLID_1288_" class="st6" points="1427.9,993 1256.9,993 1220.2,959 1391.2,959 	"/>
	<rect id="XMLID_1285_" x="1257.1" y="948" class="st5" width="170.9" height="45"/>
	<polygon id="XMLID_1284_" class="st2" points="1257.1,948 1257.1,993 1220.4,959 1220.4,914 	"/>
	<polygon id="XMLID_1282_" class="st3" points="651,927.9 571.3,1002.6 409.1,1002.6 488.8,927.9 	"/>
	<polygon id="XMLID_1281_" class="st1" points="641.2,927.9 564.5,999.7 421,999.7 497.6,927.9 	"/>
	<polygon id="XMLID_1279_" class="st10" points="637.2,925.9 560.5,997.7 417,997.7 493.6,925.9 	"/>
	<polygon id="XMLID_1267_" class="st11" points="650.2,921.9 573.5,993.7 430,993.7 506.6,921.9 	"/>
	<rect id="XMLID_1266_" x="409.1" y="1002.6" class="st3" width="162.2" height="3"/>
	<polygon id="XMLID_1265_" class="st4" points="651,927.9 651,930.9 572,1005 571.3,1005.6 571.3,1002.6 	"/>
	<path id="XMLID_108_" class="st8" d="M696,922.6l-3.4-3.7l15-14c0.1-0.1,0.1-0.2,0.1-0.3v-13.5c0-0.1,0-0.3-0.3-0.4
		c-0.3-0.1-0.4,0-0.5,0.1l-11.1,9.1l-3.2-3.9l11.1-9.1c1.6-1.4,3.9-1.6,5.8-0.7c1.9,0.9,3.1,2.8,3.1,4.9v13.5c0,1.5-0.6,3-1.7,4
		L696,922.6z"/>
	<path id="XMLID_109_" class="st8" d="M723.5,894.9c0.1-2.7-7.8-4.9-22.8-4.9c-17.1,0-36.5,2.2-39.8,6c-0.4,0.4-0.5,0.8-0.5,1.2
		l0,67.9l0,0c0.1,2.6,8,4.7,22.8,4.7c17.1,0,36.7-2.5,39.8-6c0.3-0.3,0.4-0.6,0.5-0.9l0,0L723.5,894.9z"/>
	<path id="XMLID_218_" class="st12" d="M717,897.8c-2.5,2.8-18.2,4.8-32,4.8s-20.2-2.3-18-4.8c2.6-3,18.2-4.8,32-4.8
		S719.2,895.3,717,897.8z"/>
	<path id="XMLID_258_" class="st0" d="M702.3,935.6v-31.5c0-1.3-0.8-2.5-2.1-2.9l-1.5-0.5c-0.5-0.2-1.1-0.1-1.6,0.2
		c-0.5,0.3-0.7,0.9-0.7,1.4h1c0-0.2,0.1-0.5,0.3-0.6c0.2-0.1,0.4-0.2,0.7-0.1l1.5,0.5c0.8,0.3,1.4,1.1,1.4,2v31.7l-3,2v9.4h7.1v-9.4
		L702.3,935.6z"/>
</g>
</svg>