<svg id="Layer_1" xmlns="http://www.w3.org/2000/svg" viewBox="0 0 1920 1080"><style>.st0{fill:#e6e7e8}.st1{fill:#e6e6e6}.st2{fill:#babcbe}.st3{fill:#f16e24}.st4{fill:#e35525}.st5{fill:#d0d1d2}.st6{fill:#d0d1d1}.st7{fill:#17b591}.st8{fill:#454547}.st9{fill:#a5a7aa}.st10{fill:#f1f1f1}.st11{fill:#FFF}.st12{fill:#373536}</style><g id="XMLID_4_"><path id="XMLID_2_" class="st0" d="M1676.1 1080H243.9l201.3-187h1029.6z"/><path id="XMLID_1320_" class="st1" d="M1220.4 914h170.9v45h-170.9z"/><path id="XMLID_1319_" class="st2" d="M1373.4 948v45l-36.7-34v-45z"/><g id="XMLID_1316_"><path id="XMLID_1318_" class="st3" d="M1368.7 951.8h-41l-35.1-32.9h41.1z"/><path id="XMLID_1317_" class="st4" d="M1292.6 918.9v42.6l35.1 23.7v-33.4z"/></g><path id="XMLID_1315_" class="st2" d="M1428 948v45l-36.7-34v-45z"/><path id="XMLID_1314_" class="st2" d="M1314.4 948v45l-36.7-34v-45z"/><path id="XMLID_1313_" class="st1" d="M1220.4 809.9h170.9V911h-170.9z"/><path id="XMLID_1312_" class="st2" d="M1391.3 809.9V911l-14.4-13.6v-101z"/><path id="XMLID_1311_" class="st5" d="M1391.3 809.9h-170.9l-14.4-13.5h170.9z"/><path id="XMLID_1310_" class="st6" d="M1391.3 911h-170.9l-14.4-13.6h170.9z"/><path id="XMLID_1309_" class="st2" d="M1305.7 805.5h-9l-5.1-4.7h9.1z"/><path id="XMLID_1308_" class="st7" d="M1329.3 953.8h41v33.4h-41z"/><path id="XMLID_1307_" class="st2" d="M1220.4 809.9V911l-14.4-13.6v-101z"/><path id="XMLID_1306_" class="st8" d="M1220.4 911h36.7v3h-36.7z"/><path id="XMLID_1305_" class="st8" d="M1355 911h36.7v3H1355z"/><path id="XMLID_1304_" class="st9" d="M1274 809.9h49.3v7.8H1274z"/><path id="XMLID_1303_" class="st4" d="M1233.7 890.9v42.6l35 23.7v-33.4z"/><path id="XMLID_1302_" class="st3" d="M1309.8 923.8h-41.1l-35-32.9h41z"/><path id="XMLID_1301_" class="st3" d="M1268.7 923.8h41v33.4h-41z"/><path id="XMLID_1288_" class="st6" d="M1427.9 993h-171l-36.7-34h171z"/><path id="XMLID_1285_" class="st5" d="M1257.1 948H1428v45h-170.9z"/><path id="XMLID_1284_" class="st2" d="M1257.1 948v45l-36.7-34v-45z"/><path id="XMLID_1282_" class="st3" d="M651 927.9l-79.7 74.7H409.1l79.7-74.7z"/><path id="XMLID_1281_" class="st1" d="M641.2 927.9l-76.7 71.8H421l76.6-71.8z"/><path id="XMLID_1279_" class="st10" d="M637.2 925.9l-76.7 71.8H417l76.6-71.8z"/><path id="XMLID_1267_" class="st11" d="M650.2 921.9l-76.7 71.8H430l76.6-71.8z"/><path id="XMLID_1266_" class="st3" d="M409.1 1002.6h162.2v3H409.1z"/><path id="XMLID_1265_" class="st4" d="M651 927.9v3l-79 74.1-.7.6v-3z"/><path id="XMLID_108_" class="st8" d="M696 922.6l-3.4-3.7 15-14c.1-.1.1-.2.1-.3v-13.5c0-.1 0-.3-.3-.4-.3-.1-.4 0-.5.1l-11.1 9.1-3.2-3.9 11.1-9.1c1.6-1.4 3.9-1.6 5.8-.7 1.9.9 3.1 2.8 3.1 4.9v13.5c0 1.5-.6 3-1.7 4l-14.9 14z"/><path id="XMLID_109_" class="st8" d="M723.5 894.9c.1-2.7-7.8-4.9-22.8-4.9-17.1 0-36.5 2.2-39.8 6-.4.4-.5.8-.5 1.2v67.9c.1 2.6 8 4.7 22.8 4.7 17.1 0 36.7-2.5 39.8-6 .3-.3.4-.6.5-.9v-68z"/><path id="XMLID_218_" class="st12" d="M717 897.8c-2.5 2.8-18.2 4.8-32 4.8s-20.2-2.3-18-4.8c2.6-3 18.2-4.8 32-4.8s20.2 2.3 18 4.8z"/><path id="XMLID_258_" class="st0" d="M702.3 935.6v-31.5c0-1.3-.8-2.5-2.1-2.9l-1.5-.5c-.5-.2-1.1-.1-1.6.2-.5.3-.7.9-.7 1.4h1c0-.2.1-.5.3-.6.2-.1.4-.2.7-.1l1.5.5c.8.3 1.4 1.1 1.4 2v31.7l-3 2v9.4h7.1v-9.4l-3.1-2.2z"/></g></svg>