<?xml version="1.0" encoding="utf-8"?>
<!-- Generator: Adobe Illustrator 19.0.0, SVG Export Plug-In . SVG Version: 6.00 Build 0)  -->
<svg version="1.1" id="Layer_1" xmlns="http://www.w3.org/2000/svg" xmlns:xlink="http://www.w3.org/1999/xlink" x="0px" y="0px"
	 viewBox="0 0 1920 1080" style="enable-background:new 0 0 1920 1080;" xml:space="preserve">
<style type="text/css">
	.st0{fill:#e75425;}
	.st1{fill:#FFFFFF;}
	.st2{fill:#B8AC95;}
</style>
<g>
	<g>
		<path class="st0" d="M680.1,496.2l-27.4-27.7c-2-2-4.5-3.3-7-3.8c-1.8-0.3-3.6-0.3-5.4,0c-2.6,0.5-5,1.8-7,3.8l-27.4,27.7
			c-1.1,1.1-1.7,2.6-1.7,4.1v122.8h77.7V500.3C681.8,498.8,681.1,497.3,680.1,496.2z M640.2,471.9c0.8-0.4,1.7-0.6,2.7-0.6
			c1,0,1.9,0.2,2.7,0.6c2.3,1,4,3.4,4,6.1c0,3.7-3,6.7-6.7,6.7c-3.7,0-6.7-3-6.7-6.7C636.3,475.3,637.9,472.9,640.2,471.9z"/>
		<rect x="614.9" y="506.4" class="st1" width="56.1" height="105.5"/>
	</g>
	<g>
		<rect x="640.2" class="st2" width="5.4" height="473.5"/>
	</g>
</g>
</svg>