<svg id="Layer_1" xmlns="http://www.w3.org/2000/svg" viewBox="0 0 1920 1080"><style>.st0{fill:#e75425}.st1{fill:#fff}.st2{fill:#b8ac95}</style><path class="st0" d="M1806.8 212.3l-27.1-27.4c-2-2-4.4-3.2-6.9-3.7-1.8-.4-3.6-.4-5.3 0-2.5.5-5 1.8-6.9 3.7l-27.1 27.4c-1.1 1.1-1.7 2.5-1.7 4.1v121.4h76.8V216.4c-.2-1.6-.8-3-1.8-4.1zm-39.4-24c.8-.4 1.7-.6 2.7-.6 1 0 1.9.2 2.7.6 2.3 1 3.9 3.3 3.9 6 0 3.6-3 6.6-6.6 6.6-3.6 0-6.6-3-6.6-6.6-.1-2.7 1.5-5 3.9-6z"/><path class="st1" d="M1742.3 222.4h55.5v104.4h-55.5z"/><path class="st2" d="M1767.4 0h5.3v189.8h-5.3z"/></svg>