<?xml version="1.0" encoding="utf-8"?>
<!-- Generator: Adobe Illustrator 19.0.0, SVG Export Plug-In . SVG Version: 6.00 Build 0)  -->
<svg version="1.1" id="Layer_1" xmlns="http://www.w3.org/2000/svg" xmlns:xlink="http://www.w3.org/1999/xlink" x="0px" y="0px"
	 viewBox="0 0 1920 1080" style="enable-background:new 0 0 1920 1080;" xml:space="preserve">
<style type="text/css">
	.st0{fill:#e75425;}
	.st1{fill:#FFFFFF;}
	.st2{fill:#B8AC95;}
</style>
<g>
	<g>
		<path class="st0" d="M1806.8,212.3l-27.1-27.4c-2-2-4.4-3.2-6.9-3.7c-1.8-0.4-3.6-0.4-5.3,0c-2.5,0.5-5,1.8-6.9,3.7l-27.1,27.4
			c-1.1,1.1-1.7,2.5-1.7,4.1v121.4h76.8V216.4C1808.4,214.8,1807.8,213.4,1806.8,212.3z M1767.4,188.3c0.8-0.4,1.7-0.6,2.7-0.6
			c1,0,1.9,0.2,2.7,0.6c2.3,1,3.9,3.3,3.9,6c0,3.6-3,6.6-6.6,6.6c-3.6,0-6.6-3-6.6-6.6C1763.4,191.6,1765,189.3,1767.4,188.3z"/>
		<rect x="1742.3" y="222.4" class="st1" width="55.5" height="104.4"/>
	</g>
	<g>
		<rect x="1767.4" class="st2" width="5.3" height="189.8"/>
	</g>
</g>
</svg>