<?xml version="1.0" encoding="utf-8"?>
<!-- Generator: Adobe Illustrator 19.0.0, SVG Export Plug-In . SVG Version: 6.00 Build 0)  -->
<svg version="1.1" id="Layer_1" xmlns="http://www.w3.org/2000/svg" xmlns:xlink="http://www.w3.org/1999/xlink" x="0px" y="0px"
	 viewBox="0 0 1920 1080" style="enable-background:new 0 0 1920 1080;" xml:space="preserve">
<style type="text/css">
	.st0{fill:#e75425;}
	.st1{fill:#FFFFFF;}
	.st2{fill:#B8AC95;}
</style>
<g>
	<g>
		<path class="st0" d="M1660.2,458.2l-34.4-34.8c-2.5-2.5-5.6-4.1-8.8-4.8c-2.2-0.5-4.6-0.5-6.8,0c-3.2,0.6-6.3,2.2-8.8,4.8
			l-34.4,34.8c-1.4,1.4-2.1,3.2-2.1,5.2v154.1h97.5V463.3C1662.4,461.4,1661.6,459.6,1660.2,458.2z M1610.2,427.7
			c1-0.5,2.2-0.7,3.4-0.7s2.3,0.3,3.4,0.7c2.9,1.3,5,4.2,5,7.6c0,4.6-3.7,8.4-8.4,8.4c-4.6,0-8.4-3.8-8.4-8.4
			C1605.3,431.9,1607.3,429,1610.2,427.7z"/>
		<rect x="1578.5" y="471" class="st1" width="70.4" height="132.5"/>
	</g>
	<g>
		<rect x="1610.2" class="st2" width="6.8" height="429.7"/>
	</g>
</g>
</svg>