<svg id="Layer_1" xmlns="http://www.w3.org/2000/svg" viewBox="0 0 1920 1080"><style>.st0{fill:#e75425}.st1{fill:#FFF}.st2{fill:#b8ac95}</style><path class="st0" d="M1660.2 458.2l-34.4-34.8c-2.5-2.5-5.6-4.1-8.8-4.8-2.2-.5-4.6-.5-6.8 0-3.2.6-6.3 2.2-8.8 4.8l-34.4 34.8c-1.4 1.4-2.1 3.2-2.1 5.2v154.1h97.5V463.3c0-1.9-.8-3.7-2.2-5.1zm-50-30.5c1-.5 2.2-.7 3.4-.7s2.3.3 3.4.7c2.9 1.3 5 4.2 5 7.6 0 4.6-3.7 8.4-8.4 8.4-4.6 0-8.4-3.8-8.4-8.4.1-3.4 2.1-6.3 5-7.6z"/><path class="st1" d="M1578.5 471h70.4v132.5h-70.4z"/><g><path class="st2" d="M1610.2 0h6.8v429.7h-6.8z"/></g></svg>