<?xml version="1.0" encoding="utf-8"?>
<!-- Generator: Adobe Illustrator 19.0.0, SVG Export Plug-In . SVG Version: 6.00 Build 0)  -->
<svg version="1.1" id="Layer_1" xmlns="http://www.w3.org/2000/svg" xmlns:xlink="http://www.w3.org/1999/xlink" x="0px" y="0px"
	 viewBox="0 0 1920 1080" style="enable-background:new 0 0 1920 1080;" xml:space="preserve">
<style type="text/css">
	.st0{fill:#e75425;}
	.st1{fill:#FFFFFF;}
	.st2{fill:#B8AC95;}
</style>
<g>
	<g>
		<path class="st0" d="M229,344.1l-30-30.4c-2.2-2.2-4.9-3.6-7.7-4.2c-2-0.4-4-0.4-5.9,0c-2.8,0.6-5.5,1.9-7.7,4.2l-30,30.4
			c-1.2,1.2-1.8,2.8-1.8,4.5v134.6h85.1V348.6C230.9,346.9,230.2,345.3,229,344.1z M185.4,317.5c0.9-0.4,1.9-0.6,3-0.6
			c1,0,2.1,0.2,3,0.6c2.6,1.1,4.4,3.7,4.4,6.7c0,4-3.3,7.3-7.3,7.3c-4,0-7.3-3.3-7.3-7.3C181,321.2,182.8,318.6,185.4,317.5z"/>
		<rect x="157.6" y="355.3" class="st1" width="61.5" height="115.7"/>
	</g>
	<g>
		<rect x="185.4" class="st2" width="5.9" height="319.2"/>
	</g>
</g>
</svg>