<svg id="Layer_1" xmlns="http://www.w3.org/2000/svg" viewBox="0 0 1920 1080"><style>.st0{fill:#e75425}.st1{fill:#FFF}.st2{fill:#b8ac95}</style><path class="st0" d="M680.1 496.2l-27.4-27.7c-2-2-4.5-3.3-7-3.8-1.8-.3-3.6-.3-5.4 0-2.6.5-5 1.8-7 3.8l-27.4 27.7c-1.1 1.1-1.7 2.6-1.7 4.1v122.8h77.7V500.3c-.1-1.5-.8-3-1.8-4.1zm-39.9-24.3c.8-.4 1.7-.6 2.7-.6 1 0 1.9.2 2.7.6 2.3 1 4 3.4 4 6.1a6.7 6.7 0 0 1-13.4 0c.1-2.7 1.7-5.1 4-6.1z"/><path class="st1" d="M614.9 506.4H671v105.5h-56.1z"/><g><path class="st2" d="M640.2 0h5.4v473.5h-5.4z"/></g></svg>