<svg id="Layer_1" xmlns="http://www.w3.org/2000/svg" viewBox="0 0 1920 1080"><style>.st0{fill:#a1715e}.st1{fill:#b3826c}</style><g id="XMLID_701_"><path id="XMLID_712_" class="st0" d="M1671.5 147.3h182.3v42.1h-182.3z"/><path id="XMLID_711_" class="st0" d="M1671.5 205.7h182.3v42.1h-182.3z"/><path id="XMLID_710_" class="st0" d="M1671.5 264.1h182.3v42.1h-182.3z"/><path id="XMLID_709_" class="st0" d="M1671.5 322.4h182.3v42.1h-182.3z"/><path id="XMLID_708_" class="st0" d="M1671.5 380.8h182.3v42.1h-182.3z"/><path id="XMLID_707_" class="st0" d="M1671.5 477.9h182.3V520h-182.3z"/><path id="XMLID_706_" class="st0" d="M1671.5 536.3h182.3v42.1h-182.3z"/><path id="XMLID_705_" class="st0" d="M1671.5 594.6h182.3v42.1h-182.3z"/><path id="XMLID_704_" class="st0" d="M1671.5 653h182.3v42.1h-182.3z"/><path id="XMLID_703_" class="st0" d="M1671.5 711.4h182.3v42.1h-182.3z"/><path id="XMLID_702_" class="st1" d="M1695.5 43.6v38.6h-30.6v65.1h188.9v42.1h-188.9v16.3h188.9v42.1h-188.9v16.3h188.9v42h-188.9v16.3h188.9v42.1h-188.9v16.3h188.9v42.1h-188.9v55h188.9V520h-188.9v16.3h188.9v42h-188.9v16.3h188.9v42.1h-188.9V653h188.9v42.1h-188.9v16.3h188.9v42h-188.9V1080h253.5V43.6z"/></g></svg>