<svg id="Layer_1" xmlns="http://www.w3.org/2000/svg" viewBox="0 0 1920 1080"><style>.st0{fill:#b3826c}.st1{fill:#a1715e}</style><g id="XMLID_539_"><path id="XMLID_624_" class="st0" d="M296.8 61.8h353.9V1080H296.8z"/><g id="XMLID_603_"><path id="XMLID_623_" class="st1" d="M317 130.1h28.6v28.6H317z"/><path id="XMLID_622_" class="st1" d="M364.2 130.1h28.6v28.6h-28.6z"/><path id="XMLID_621_" class="st1" d="M414.5 130.1h118.3v28.6H414.5z"/><path id="XMLID_620_" class="st1" d="M601.8 130.1h28.6v28.6h-28.6z"/><path id="XMLID_619_" class="st1" d="M554.6 130.1h28.6v28.6h-28.6z"/><path id="XMLID_618_" class="st1" d="M317 177.3h28.6v28.6H317z"/><path id="XMLID_617_" class="st1" d="M364.2 177.3h28.6v28.6h-28.6z"/><path id="XMLID_616_" class="st1" d="M414.5 177.3h118.3v28.6H414.5z"/><path id="XMLID_615_" class="st1" d="M601.8 177.3h28.6v28.6h-28.6z"/><path id="XMLID_614_" class="st1" d="M554.6 177.3h28.6v28.6h-28.6z"/><path id="XMLID_613_" class="st1" d="M317 224.6h28.6v28.6H317z"/><path id="XMLID_612_" class="st1" d="M364.2 224.6h28.6v28.6h-28.6z"/><path id="XMLID_611_" class="st1" d="M414.5 224.6h118.3v28.6H414.5z"/><path id="XMLID_610_" class="st1" d="M601.8 224.6h28.6v28.6h-28.6z"/><path id="XMLID_609_" class="st1" d="M554.6 224.6h28.6v28.6h-28.6z"/><path id="XMLID_608_" class="st1" d="M317 271.8h28.6v28.6H317z"/><path id="XMLID_607_" class="st1" d="M364.2 271.8h28.6v28.6h-28.6z"/><path id="XMLID_606_" class="st1" d="M414.5 271.8h118.3v28.6H414.5z"/><path id="XMLID_605_" class="st1" d="M601.8 271.8h28.6v28.6h-28.6z"/><path id="XMLID_604_" class="st1" d="M554.6 271.8h28.6v28.6h-28.6z"/></g><g id="XMLID_582_"><path id="XMLID_602_" class="st1" d="M317 347.6h28.6v28.6H317z"/><path id="XMLID_601_" class="st1" d="M364.2 347.6h28.6v28.6h-28.6z"/><path id="XMLID_600_" class="st1" d="M414.5 347.6h118.3v28.6H414.5z"/><path id="XMLID_599_" class="st1" d="M601.8 347.6h28.6v28.6h-28.6z"/><path id="XMLID_598_" class="st1" d="M554.6 347.6h28.6v28.6h-28.6z"/><path id="XMLID_597_" class="st1" d="M317 394.9h28.6v28.6H317z"/><path id="XMLID_596_" class="st1" d="M364.2 394.9h28.6v28.6h-28.6z"/><path id="XMLID_595_" class="st1" d="M414.5 394.9h118.3v28.6H414.5z"/><path id="XMLID_594_" class="st1" d="M601.8 394.9h28.6v28.6h-28.6z"/><path id="XMLID_593_" class="st1" d="M554.6 394.9h28.6v28.6h-28.6z"/><path id="XMLID_592_" class="st1" d="M317 442.1h28.6v28.6H317z"/><path id="XMLID_591_" class="st1" d="M364.2 442.1h28.6v28.6h-28.6z"/><path id="XMLID_590_" class="st1" d="M414.5 442.1h118.3v28.6H414.5z"/><path id="XMLID_589_" class="st1" d="M601.8 442.1h28.6v28.6h-28.6z"/><path id="XMLID_588_" class="st1" d="M554.6 442.1h28.6v28.6h-28.6z"/><path id="XMLID_587_" class="st1" d="M317 489.4h28.6V518H317z"/><path id="XMLID_586_" class="st1" d="M364.2 489.4h28.6V518h-28.6z"/><path id="XMLID_585_" class="st1" d="M414.5 489.4h118.3V518H414.5z"/><path id="XMLID_584_" class="st1" d="M601.8 489.4h28.6V518h-28.6z"/><path id="XMLID_583_" class="st1" d="M554.6 489.4h28.6V518h-28.6z"/></g><g id="XMLID_561_"><path id="XMLID_581_" class="st1" d="M317 567.5h28.6v28.6H317z"/><path id="XMLID_580_" class="st1" d="M364.2 567.5h28.6v28.6h-28.6z"/><path id="XMLID_579_" class="st1" d="M414.5 567.5h118.3v28.6H414.5z"/><path id="XMLID_578_" class="st1" d="M601.8 567.5h28.6v28.6h-28.6z"/><path id="XMLID_577_" class="st1" d="M554.6 567.5h28.6v28.6h-28.6z"/><path id="XMLID_576_" class="st1" d="M317 614.7h28.6v28.6H317z"/><path id="XMLID_575_" class="st1" d="M364.2 614.7h28.6v28.6h-28.6z"/><path id="XMLID_574_" class="st1" d="M414.5 614.7h118.3v28.6H414.5z"/><path id="XMLID_573_" class="st1" d="M601.8 614.7h28.6v28.6h-28.6z"/><path id="XMLID_572_" class="st1" d="M554.6 614.7h28.6v28.6h-28.6z"/><path id="XMLID_571_" class="st1" d="M317 662h28.6v28.6H317z"/><path id="XMLID_570_" class="st1" d="M364.2 662h28.6v28.6h-28.6z"/><path id="XMLID_569_" class="st1" d="M414.5 662h118.3v28.6H414.5z"/><path id="XMLID_568_" class="st1" d="M601.8 662h28.6v28.6h-28.6z"/><path id="XMLID_567_" class="st1" d="M554.6 662h28.6v28.6h-28.6z"/><path id="XMLID_566_" class="st1" d="M317 709.2h28.6v28.6H317z"/><path id="XMLID_565_" class="st1" d="M364.2 709.2h28.6v28.6h-28.6z"/><path id="XMLID_564_" class="st1" d="M414.5 709.2h118.3v28.6H414.5z"/><path id="XMLID_563_" class="st1" d="M601.8 709.2h28.6v28.6h-28.6z"/><path id="XMLID_562_" class="st1" d="M554.6 709.2h28.6v28.6h-28.6z"/></g><g id="XMLID_540_"><path id="XMLID_560_" class="st1" d="M317 785h28.6v28.6H317z"/><path id="XMLID_559_" class="st1" d="M364.2 785h28.6v28.6h-28.6z"/><path id="XMLID_558_" class="st1" d="M414.5 785h118.3v28.6H414.5z"/><path id="XMLID_557_" class="st1" d="M601.8 785h28.6v28.6h-28.6z"/><path id="XMLID_556_" class="st1" d="M554.6 785h28.6v28.6h-28.6z"/><path id="XMLID_555_" class="st1" d="M317 832.3h28.6v28.6H317z"/><path id="XMLID_554_" class="st1" d="M364.2 832.3h28.6v28.6h-28.6z"/><path id="XMLID_553_" class="st1" d="M414.5 832.3h118.3v28.6H414.5z"/><path id="XMLID_552_" class="st1" d="M601.8 832.3h28.6v28.6h-28.6z"/><path id="XMLID_551_" class="st1" d="M554.6 832.3h28.6v28.6h-28.6z"/><path id="XMLID_550_" class="st1" d="M317 879.5h28.6v28.6H317z"/><path id="XMLID_549_" class="st1" d="M364.2 879.5h28.6v28.6h-28.6z"/><path id="XMLID_548_" class="st1" d="M414.5 879.5h118.3v28.6H414.5z"/><path id="XMLID_547_" class="st1" d="M601.8 879.5h28.6v28.6h-28.6z"/><path id="XMLID_546_" class="st1" d="M554.6 879.5h28.6v28.6h-28.6z"/><path id="XMLID_545_" class="st1" d="M317 926.7h28.6v28.6H317z"/><path id="XMLID_544_" class="st1" d="M364.2 926.7h28.6v28.6h-28.6z"/><path id="XMLID_543_" class="st1" d="M414.5 926.7h118.3v28.6H414.5z"/><path id="XMLID_542_" class="st1" d="M601.8 926.7h28.6v28.6h-28.6z"/><path id="XMLID_541_" class="st1" d="M554.6 926.7h28.6v28.6h-28.6z"/></g></g></svg>