<svg id="Layer_1" xmlns="http://www.w3.org/2000/svg" viewBox="0 0 1920 1080"><style>.st0{fill:#debaa3}.st1{fill:#c59d87}.st2{opacity:8e-2;fill:#4a4b6b}</style><g id="XMLID_131_"><g id="XMLID_332_"><path id="XMLID_389_" class="st0" d="M1265.3 1042.7v-39.2h193.4v39.2h-193.4zm239.1 0v-39.2h54.9v39.2h-54.9zm172.7 0v-39.2h56.7v39.2h-56.7zm102.4 0v-39.2h141v39.2h-141zm-514.2-56.9v-39.2h193.4v39.2h-193.4zm239.1 0v-39.2h54.9v39.2h-54.9zm172.7-.4v-39.2h56.7v39.2h-56.7zm102.4 0v-39.2h141v39.2h-141zm-514.2-56.9v-39.2h193.4v39.2h-193.4zm239.1 0v-39.2h54.9v39.2h-54.9zm172.7-.5v-39.2h56.7V928h-56.7zm102.4 0v-39.2h141V928h-141zm-102.4-56.4v-39.2h56.7v39.2h-56.7zm102.4 0v-39.2h141v39.2h-141zm-514.2-.5v-39.2h193.4v39.2h-193.4zm239.1 0v-39.2h54.9v39.2h-54.9zm172.7-56.9V775h56.7v39.2h-56.7zm102.4 0V775h141v39.2h-141zm-514.2-.5v-39.2h193.4v39.2h-193.4zm239.1 0v-39.2h54.9v39.2h-54.9zm172.7-56.9v-39.2h56.7v39.2h-56.7zm102.4 0v-39.2h141v39.2h-141zm-514.2-.5v-39.2h193.4v39.2h-193.4zm239.1 0v-39.2h54.9v39.2h-54.9zm172.7-56.9v-39.2h56.7v39.2h-56.7zm102.4 0v-39.2h141v39.2h-141zm-514.2-.5v-39.2h193.4v39.2h-193.4zm239.1 0v-39.2h54.9v39.2h-54.9zm172.7-56.8v-39.2h56.7v39.2h-56.7zm102.4 0v-39.2h141v39.2h-141zm-514.2-.5v-39.2h193.4v39.2h-193.4zm239.1 0v-39.2h54.9v39.2h-54.9zm172.7-56.9v-39.2h56.7v39.2h-56.7zm102.4 0v-39.2h141v39.2h-141zm-514.2-.5V545h193.4v39.2h-193.4zm239.1 0V545h54.9v39.2h-54.9zm172.7-56.9v-39.2h56.7v39.2h-56.7zm102.4 0v-39.2h141v39.2h-141zm-514.2-.5v-39.2h193.4v39.2h-193.4zm239.1 0v-39.2h54.9v39.2h-54.9zm172.7-56.9v-39.2h56.7v39.2h-56.7zm102.4 0v-39.2h141v39.2h-141zm-514.2-.5v-39.2h193.4v39.2h-193.4zm239.1 0v-39.2h54.9v39.2h-54.9zM1265.3 412v-39.2h193.4V412h-193.4zm239.1 0v-39.2h54.9V412h-54.9zm-239.1-57.3v-39.2h193.4v39.2h-193.4zm239.1 0v-39.2h54.9v39.2h-54.9zm-239.1-57v-39.2h193.4v39.2h-193.4zm239.1 0v-39.2h54.9v39.2h-54.9zm-239.1-57.4v-39.2h193.4v39.2h-193.4zm239.1 0v-39.2h54.9v39.2h-54.9zm-239.1-57.4v-39.2h193.4v39.2h-193.4zm239.1 0v-39.2h54.9v39.2h-54.9zm-239.1-57.5V86.2h193.4v39.2h-193.4zm239.1 0V86.2h54.9v39.2h-54.9zM1608.8 0h-343.5v1080h655.3V382h-311.8V0z"/><path id="XMLID_388_" class="st1" d="M1458.7 315.5h-193.4v39.2h193.4v-39.2z"/><path id="XMLID_387_" class="st1" d="M1559.4 315.5h-55v39.2h55v-39.2z"/><path id="XMLID_386_" class="st1" d="M1458.7 372.9h-193.4V412h193.4v-39.1z"/><path id="XMLID_385_" class="st1" d="M1559.4 372.9h-55V412h55v-39.1z"/><path id="XMLID_384_" class="st1" d="M1458.7 430.2h-193.4v39.2h193.4v-39.2z"/><path id="XMLID_383_" class="st1" d="M1559.4 430.2h-55v39.2h55v-39.2z"/><path id="XMLID_382_" class="st1" d="M1458.7 143.7h-193.4v39.2h193.4v-39.2z"/><path id="XMLID_381_" class="st1" d="M1559.4 143.7h-55v39.2h55v-39.2z"/><path id="XMLID_380_" class="st1" d="M1458.7 86.2h-193.4v39.2h193.4V86.2z"/><path id="XMLID_379_" class="st1" d="M1559.4 86.2h-55v39.2h55V86.2z"/><path id="XMLID_378_" class="st1" d="M1458.7 201.1h-193.4v39.2h193.4v-39.2z"/><path id="XMLID_377_" class="st1" d="M1559.4 201.1h-55v39.2h55v-39.2z"/><path id="XMLID_376_" class="st1" d="M1458.7 258.5h-193.4v39.2h193.4v-39.2z"/><path id="XMLID_375_" class="st1" d="M1559.4 258.5h-55v39.2h55v-39.2z"/><path id="XMLID_374_" class="st1" d="M1458.7 487.6h-193.4v39.2h193.4v-39.2z"/><path id="XMLID_373_" class="st1" d="M1559.4 487.6h-55v39.2h55v-39.2z"/><path id="XMLID_372_" class="st1" d="M1458.7 545h-193.4v39.2h193.4V545z"/><path id="XMLID_371_" class="st1" d="M1559.4 545h-55v39.2h55V545z"/><path id="XMLID_370_" class="st1" d="M1458.7 602.4h-193.4v39.2h193.4v-39.2z"/><path id="XMLID_369_" class="st1" d="M1559.4 602.4h-55v39.2h55v-39.2z"/><path id="XMLID_368_" class="st1" d="M1458.7 659.8h-193.4v39.1h193.4v-39.1z"/><path id="XMLID_367_" class="st1" d="M1559.4 659.8h-55v39.1h55v-39.1z"/><path id="XMLID_366_" class="st1" d="M1458.7 717.1h-193.4v39.2h193.4v-39.2z"/><path id="XMLID_365_" class="st1" d="M1559.4 717.1h-55v39.2h55v-39.2z"/><path id="XMLID_364_" class="st1" d="M1458.7 774.5h-193.4v39.2h193.4v-39.2z"/><path id="XMLID_363_" class="st1" d="M1559.4 774.5h-55v39.2h55v-39.2z"/><path id="XMLID_362_" class="st1" d="M1458.7 831.9h-193.4v39.2h193.4v-39.2z"/><path id="XMLID_361_" class="st1" d="M1559.4 831.9h-55v39.2h55v-39.2z"/><path id="XMLID_360_" class="st1" d="M1458.7 889.3h-193.4v39.2h193.4v-39.2z"/><path id="XMLID_359_" class="st1" d="M1559.4 889.3h-55v39.2h55v-39.2z"/><path id="XMLID_358_" class="st1" d="M1458.7 946.7h-193.4v39.1h193.4v-39.1z"/><path id="XMLID_357_" class="st1" d="M1559.4 946.7h-55v39.1h55v-39.1z"/><path id="XMLID_356_" class="st1" d="M1458.7 1003.6h-193.4v39.1h193.4v-39.1z"/><path id="XMLID_355_" class="st1" d="M1559.4 1003.6h-55v39.1h55v-39.1z"/><path id="XMLID_354_" class="st1" d="M1733.8 430.7h-56.7v39.2h56.7v-39.2z"/><path id="XMLID_353_" class="st1" d="M1920.6 430.7h-141.1v39.2h141.1v-39.2z"/><path id="XMLID_352_" class="st1" d="M1733.8 488.1h-56.7v39.2h56.7v-39.2z"/><path id="XMLID_351_" class="st1" d="M1920.6 488.1h-141.1v39.2h141.1v-39.2z"/><path id="XMLID_350_" class="st1" d="M1733.8 545.5h-56.7v39.2h56.7v-39.2z"/><path id="XMLID_349_" class="st1" d="M1920.6 545.5h-141.1v39.2h141.1v-39.2z"/><path id="XMLID_348_" class="st1" d="M1733.8 602.9h-56.7v39.2h56.7v-39.2z"/><path id="XMLID_347_" class="st1" d="M1920.6 602.9h-141.1v39.2h141.1v-39.2z"/><path id="XMLID_346_" class="st1" d="M1733.8 660.3h-56.7v39.1h56.7v-39.1z"/><path id="XMLID_345_" class="st1" d="M1920.6 660.3h-141.1v39.1h141.1v-39.1z"/><path id="XMLID_344_" class="st1" d="M1733.8 717.6h-56.7v39.2h56.7v-39.2z"/><path id="XMLID_343_" class="st1" d="M1920.6 717.6h-141.1v39.2h141.1v-39.2z"/><path id="XMLID_342_" class="st1" d="M1733.8 775h-56.7v39.2h56.7V775z"/><path id="XMLID_341_" class="st1" d="M1920.6 775h-141.1v39.2h141.1V775z"/><path id="XMLID_340_" class="st1" d="M1733.8 832.4h-56.7v39.2h56.7v-39.2z"/><path id="XMLID_339_" class="st1" d="M1920.6 832.4h-141.1v39.2h141.1v-39.2z"/><path id="XMLID_338_" class="st1" d="M1733.8 888.8h-56.7V928h56.7v-39.2z"/><path id="XMLID_337_" class="st1" d="M1920.6 888.8h-141.1V928h141.1v-39.2z"/><path id="XMLID_336_" class="st1" d="M1733.8 946.2h-56.7v39.2h56.7v-39.2z"/><path id="XMLID_335_" class="st1" d="M1920.6 946.2h-141.1v39.2h141.1v-39.2z"/><path id="XMLID_334_" class="st1" d="M1733.8 1003.6h-56.7v39.1h56.7v-39.1z"/><path id="XMLID_333_" class="st1" d="M1920.6 1003.6h-141.1v39.1h141.1v-39.1z"/></g><g id="XMLID_319_"><g id="XMLID_329_"><path id="XMLID_331_" class="st2" d="M1265.3 86.2h193.4v7h-193.4z"/><path id="XMLID_330_" class="st2" d="M1504.4 86.2h54.9v7h-54.9z"/></g><g id="XMLID_326_"><path id="XMLID_328_" class="st2" d="M1265.3 143.7h193.4v7h-193.4z"/><path id="XMLID_327_" class="st2" d="M1504.4 143.7h54.9v7h-54.9z"/></g><g id="XMLID_323_"><path id="XMLID_325_" class="st2" d="M1265.3 201.1h193.4v7h-193.4z"/><path id="XMLID_324_" class="st2" d="M1504.4 201.1h54.9v7h-54.9z"/></g><g id="XMLID_320_"><path id="XMLID_322_" class="st2" d="M1265.3 258.6h193.4v7h-193.4z"/><path id="XMLID_321_" class="st2" d="M1504.4 258.6h54.9v7h-54.9z"/></g></g><g id="XMLID_306_"><g id="XMLID_316_"><path id="XMLID_318_" class="st2" d="M1265.3 315.3h193.4v7h-193.4z"/><path id="XMLID_317_" class="st2" d="M1504.4 315.3h54.9v7h-54.9z"/></g><g id="XMLID_313_"><path id="XMLID_315_" class="st2" d="M1265.3 372.8h193.4v7h-193.4z"/><path id="XMLID_314_" class="st2" d="M1504.4 372.8h54.9v7h-54.9z"/></g><g id="XMLID_310_"><path id="XMLID_312_" class="st2" d="M1265.3 430.2h193.4v7h-193.4z"/><path id="XMLID_311_" class="st2" d="M1504.4 430.2h54.9v7h-54.9z"/></g><g id="XMLID_307_"><path id="XMLID_309_" class="st2" d="M1265.3 487.7h193.4v7h-193.4z"/><path id="XMLID_308_" class="st2" d="M1504.4 487.7h54.9v7h-54.9z"/></g></g><g id="XMLID_293_"><g id="XMLID_303_"><path id="XMLID_305_" class="st2" d="M1265.3 545h193.4v7h-193.4z"/><path id="XMLID_304_" class="st2" d="M1504.4 545h54.9v7h-54.9z"/></g><g id="XMLID_300_"><path id="XMLID_302_" class="st2" d="M1265.3 602.5h193.4v7h-193.4z"/><path id="XMLID_301_" class="st2" d="M1504.4 602.5h54.9v7h-54.9z"/></g><g id="XMLID_297_"><path id="XMLID_299_" class="st2" d="M1265.3 659.9h193.4v7h-193.4z"/><path id="XMLID_298_" class="st2" d="M1504.4 659.9h54.9v7h-54.9z"/></g><g id="XMLID_294_"><path id="XMLID_296_" class="st2" d="M1265.3 717.4h193.4v7h-193.4z"/><path id="XMLID_295_" class="st2" d="M1504.4 717.4h54.9v7h-54.9z"/></g></g><g id="XMLID_277_"><g id="XMLID_290_"><path id="XMLID_292_" class="st2" d="M1265.3 774.5h193.4v7h-193.4z"/><path id="XMLID_291_" class="st2" d="M1504.4 774.5h54.9v7h-54.9z"/></g><g id="XMLID_287_"><path id="XMLID_289_" class="st2" d="M1265.3 832h193.4v7h-193.4z"/><path id="XMLID_288_" class="st2" d="M1504.4 832h54.9v7h-54.9z"/></g><g id="XMLID_284_"><path id="XMLID_286_" class="st2" d="M1265.3 889.4h193.4v7h-193.4z"/><path id="XMLID_285_" class="st2" d="M1504.4 889.4h54.9v7h-54.9z"/></g><g id="XMLID_281_"><path id="XMLID_283_" class="st2" d="M1265.3 946.9h193.4v7h-193.4z"/><path id="XMLID_282_" class="st2" d="M1504.4 946.9h54.9v7h-54.9z"/></g><g id="XMLID_278_"><path id="XMLID_280_" class="st2" d="M1265.3 1003.6h193.4v7h-193.4z"/><path id="XMLID_279_" class="st2" d="M1504.4 1003.6h54.9v7h-54.9z"/></g></g><g id="XMLID_199_"><g id="XMLID_266_"><g id="XMLID_272_"><g id="XMLID_275_"><path id="XMLID_276_" class="st2" d="M1779.5 430.7h141v7h-141z"/></g><g id="XMLID_273_"><path id="XMLID_274_" class="st2" d="M1677.1 430.7h56.7v7h-56.7z"/></g></g><g id="XMLID_267_"><g id="XMLID_270_"><path id="XMLID_271_" class="st2" d="M1779.5 488.1h141v7h-141z"/></g><g id="XMLID_268_"><path id="XMLID_269_" class="st2" d="M1677.1 488.1h56.7v7h-56.7z"/></g></g></g><g id="XMLID_200_"><g id="XMLID_261_"><g id="XMLID_264_"><path id="XMLID_265_" class="st2" d="M1779.5 545.5h141v7h-141z"/></g><g id="XMLID_262_"><path id="XMLID_263_" class="st2" d="M1677.1 545.5h56.7v7h-56.7z"/></g></g><g id="XMLID_201_"><g id="XMLID_204_"><path id="XMLID_205_" class="st2" d="M1779.5 602.9h141v7h-141z"/></g><g id="XMLID_202_"><path id="XMLID_203_" class="st2" d="M1677.1 602.9h56.7v7h-56.7z"/></g></g></g></g><g id="XMLID_157_"><g id="XMLID_175_"><g id="XMLID_194_"><g id="XMLID_197_"><path id="XMLID_198_" class="st2" d="M1779.5 660.3h141v7h-141z"/></g><g id="XMLID_195_"><path id="XMLID_196_" class="st2" d="M1677.1 660.3h56.7v7h-56.7z"/></g></g><g id="XMLID_176_"><g id="XMLID_192_"><path id="XMLID_193_" class="st2" d="M1779.5 717.6h141v7h-141z"/></g><g id="XMLID_177_"><path id="XMLID_178_" class="st2" d="M1677.1 717.6h56.7v7h-56.7z"/></g></g></g><g id="XMLID_158_"><g id="XMLID_170_"><g id="XMLID_173_"><path id="XMLID_174_" class="st2" d="M1779.5 775h141v7h-141z"/></g><g id="XMLID_171_"><path id="XMLID_172_" class="st2" d="M1677.1 775h56.7v7h-56.7z"/></g></g><g id="XMLID_159_"><g id="XMLID_168_"><path id="XMLID_169_" class="st2" d="M1779.5 832.4h141v7h-141z"/></g><g id="XMLID_166_"><path id="XMLID_167_" class="st2" d="M1677.1 832.4h56.7v7h-56.7z"/></g></g></g></g><g id="XMLID_132_"><g id="XMLID_145_"><g id="XMLID_152_"><g id="XMLID_155_"><path id="XMLID_156_" class="st2" d="M1779.5 888.8h141v7h-141z"/></g><g id="XMLID_153_"><path id="XMLID_154_" class="st2" d="M1677.1 888.8h56.7v7h-56.7z"/></g></g><g id="XMLID_146_"><g id="XMLID_149_"><path id="XMLID_151_" class="st2" d="M1779.5 946.2h141v7h-141z"/></g><g id="XMLID_147_"><path id="XMLID_148_" class="st2" d="M1677.1 946.2h56.7v7h-56.7z"/></g></g></g><g id="XMLID_133_"><g id="XMLID_135_"><g id="XMLID_138_"><path id="XMLID_139_" class="st2" d="M1779.5 1003.6h141v7h-141z"/></g><g id="XMLID_136_"><path id="XMLID_137_" class="st2" d="M1677.1 1003.6h56.7v7h-56.7z"/></g></g></g></g></g></svg>