<svg id="Layer_1" xmlns="http://www.w3.org/2000/svg" viewBox="0 0 1920 1080"><style>.st0{fill:#e75425}.st1{fill:#fff}.st2{fill:#b8ac95}</style><path class="st0" d="M229 344.1l-30-30.4c-2.2-2.2-4.9-3.6-7.7-4.2-2-.4-4-.4-5.9 0-2.8.6-5.5 1.9-7.7 4.2l-30 30.4c-1.2 1.2-1.8 2.8-1.8 4.5v134.6H231V348.6c-.1-1.7-.8-3.3-2-4.5zm-43.6-26.6c.9-.4 1.9-.6 3-.6 1 0 2.1.2 3 .6 2.6 1.1 4.4 3.7 4.4 6.7 0 4-3.3 7.3-7.3 7.3s-7.3-3.3-7.3-7.3c-.2-3 1.6-5.6 4.2-6.7z"/><path class="st1" d="M157.6 355.3h61.5V471h-61.5z"/><path class="st2" d="M185.4 0h5.9v319.2h-5.9z"/></svg>