<?xml version="1.0" encoding="utf-8"?>
<!-- Generator: Adobe Illustrator 19.0.0, SVG Export Plug-In . SVG Version: 6.00 Build 0)  -->
<svg version="1.1" id="Layer_1" xmlns="http://www.w3.org/2000/svg" xmlns:xlink="http://www.w3.org/1999/xlink" x="0px" y="0px"
	 viewBox="157 7 1273.6 548" style="enable-background:new 157 7 1273.6 548;" xml:space="preserve">
<style type="text/css">
	.st0{fill:#F16E24;}
	.st1{fill:#FFFFFF;}
	.st2{fill:#EC6E24;}
</style>
<g id="XMLID_1_">
	<g id="XMLID_270_">
		<path id="XMLID_39_" class="st0" d="M1357.2,276.3l-12.7-23.8c-3-5.6-2-12.5,2.5-17c5.6-5.6,14.8-5.6,20.4,0
			c4.5,4.5,5.5,11.4,2.5,17L1357.2,276.3L1357.2,276.3z"/>
		<circle id="XMLID_38_" class="st1" cx="1357.2" cy="245.8" r="10.5"/>
		<path id="XMLID_271_" class="st2" d="M1357.2,250h-4.2v-2.8h4.2V250z M1363.6,247.2v-1.4l-0.7-3.5h-11.3l-0.7,3.5v1.4h0.7v4.2h7.1
			v-4.2h2.8v4.2h1.4v-4.2H1363.6z M1362.9,240.1h-11.3v1.4h11.3V240.1z"/>
	</g>
	<g id="XMLID_75_">
		<path id="XMLID_33_" class="st0" d="M207.2,391.6l-12.7-23.8c-3-5.6-2-12.5,2.5-17c5.6-5.6,14.8-5.6,20.4,0
			c4.5,4.5,5.5,11.4,2.5,17L207.2,391.6L207.2,391.6z"/>
		<circle id="XMLID_32_" class="st1" cx="207.2" cy="361.1" r="10.5"/>
		<path id="XMLID_76_" class="st2" d="M207.2,365.4H203v-2.8h4.2V365.4z M213.5,362.5v-1.4l-0.7-3.5h-11.3l-0.7,3.5v1.4h0.7v4.2h7.1
			v-4.2h2.8v4.2h1.4v-4.2H213.5z M212.8,355.5h-11.3v1.4h11.3V355.5L212.8,355.5z"/>
	</g>
	<g id="XMLID_67_">
		<path id="XMLID_27_" class="st0" d="M720.9,52l-12.7-23.8c-3-5.6-2-12.5,2.5-17c5.6-5.6,14.8-5.6,20.4,0c4.5,4.5,5.5,11.4,2.5,17
			L720.9,52z"/>
		<circle id="XMLID_26_" class="st1" cx="720.9" cy="21.5" r="10.5"/>
		<path id="XMLID_68_" class="st2" d="M720.9,25.8h-4.2V23h4.2V25.8z M727.3,23v-1.4l-0.7-3.5h-11.3l-0.7,3.5V23h0.7v4.2h7.1V23h2.8
			v4.2h1.4V23H727.3z M726.6,15.9h-11.3v1.4h11.3V15.9z"/>
	</g>
	<g id="XMLID_59_">
		<path id="XMLID_21_" class="st0" d="M1122.5,168.8l-12.7-23.8c-3-5.6-2-12.5,2.5-17c5.6-5.6,14.8-5.6,20.4,0
			c4.5,4.5,5.5,11.4,2.5,17L1122.5,168.8L1122.5,168.8z"/>
		<circle id="XMLID_20_" class="st1" cx="1122.5" cy="138.3" r="10.5"/>
		<path id="XMLID_60_" class="st2" d="M1122.5,142.5h-4.2v-2.8h4.2V142.5z M1128.8,139.7v-1.4l-0.7-3.5h-11.3l-0.7,3.5v1.4h0.7v4.2
			h7.1v-4.2h2.8v4.2h1.4v-4.2H1128.8z M1128.1,132.6h-11.3v1.4h11.3V132.6z"/>
	</g>
	<g id="XMLID_51_">
		<path id="XMLID_15_" class="st0" d="M1416.2,507.9l-12.7-23.8c-3-5.6-2-12.5,2.5-17c5.6-5.6,14.8-5.6,20.4,0
			c4.5,4.5,5.5,11.4,2.5,17L1416.2,507.9L1416.2,507.9z"/>
		<circle id="XMLID_14_" class="st1" cx="1416.2" cy="477.4" r="10.5"/>
		<path id="XMLID_52_" class="st2" d="M1416.2,481.6h-4.2v-2.8h4.2V481.6z M1422.6,478.8v-1.4l-0.7-3.5h-11.3l-0.7,3.5v1.4h0.7v4.2
			h7.1v-4.2h2.8v4.2h1.4v-4.2H1422.6z M1421.9,471.7h-11.3v1.4h11.3V471.7L1421.9,471.7z"/>
	</g>
	<g id="XMLID_43_">
		<path id="XMLID_9_" class="st0" d="M171.4,555l-12.7-23.8c-3-5.6-2-12.5,2.5-17c5.6-5.6,14.8-5.6,20.4,0c4.5,4.5,5.5,11.4,2.5,17
			L171.4,555L171.4,555z"/>
		<circle id="XMLID_8_" class="st1" cx="171.4" cy="524.5" r="10.5"/>
		<path id="XMLID_44_" class="st2" d="M171.4,528.8h-4.2V526h4.2V528.8z M177.7,525.9v-1.4L177,521h-11.3l-0.7,3.5v1.4h0.7v4.2h7.1
			v-4.2h2.8v4.2h1.4v-4.2H177.7z M177,518.9h-11.3v1.4H177V518.9z"/>
	</g>
</g>
</svg>
