<?xml version="1.0" encoding="utf-8"?>
<!-- Generator: Adobe Illustrator 16.0.0, SVG Export Plug-In . SVG Version: 6.00 Build 0)  -->
<svg version="1.2" baseProfile="tiny" id="Layer_1" xmlns="http://www.w3.org/2000/svg" xmlns:xlink="http://www.w3.org/1999/xlink"
	 x="0px" y="0px" width="612px" height="221px" viewBox="0 256.5 612 221" xml:space="preserve">
<g id="XMLID_105_">
	<path id="XMLID_107_" fill="#00B8AC" d="M612,477.508H0.073c5.344-15.007,11.749-29.465,19.143-43.374
		c33.309-62.628,86.566-113.066,151.243-142.824c27.745-12.774,57.174-21.522,87.408-26.025c15.702-2.343,31.808-3.55,48.169-3.55
		c17.423,0,34.479,1.354,51.134,3.989c28.185,4.466,55.197,12.555,80.453,23.792c55.124,24.45,102.159,63.835,136.017,112.993
		C589.488,425.568,602.446,450.715,612,477.508"/>
	<path id="XMLID_108_" fill="#0C977A" d="M356.878,265.688c-0.11,0.512-1.538,0.769-1.977,0.915
		c-1.903,0.585-3.844,0.915-5.82,1.062c-2.562,0.146-5.197-0.073-7.649,0.695c-5.82,1.793-8.858,8.382-14.349,10.98
		c-8.235,3.917-17.387-2.379-26.171-4.868c-7.431-2.086-21.706,1.537-21.706,1.537c-6.368,1.135-13.177-0.402-18.447-4.173
		c-1.172-0.842-2.27-1.83-2.782-3.147c-0.329-0.842-0.402-1.757-0.22-2.636c0.184-0.915,0.549-0.915,1.428-1.062
		c1.977-0.329,3.989-0.658,5.966-1.024c1.94-0.329,3.881-0.586,5.857-0.806c0.658-0.073,1.244,0,1.939,0.037
		c0.549,0,0.586-0.146,1.098-0.293c0.439-0.109,0.916,0,1.354,0.036c0.659,0.073,1.428,0.184,2.087,0.11
		c0.769-0.11,1.537-0.476,2.27-0.659c1.939-0.549,4.025-0.622,6.039-0.695c6.223-0.256,12.408-0.329,18.594-0.659
		c0.477-0.036,0.952-0.036,1.428-0.073c2.27-0.109,4.539-0.256,6.809,0.073c1.684,0.22,3.33,0.55,5.015,0.55h11.31
		c3.66,0,7.284,0.585,10.871,1.171c0.806,0.146,1.611,0.256,2.416,0.476c0.586,0.146,1.135,0.33,1.721,0.439
		c0.988,0.184,1.977,0.073,3.001,0.073c2.562-0.036,5.088,0.439,7.613,0.952c0.55,0.109,2.16,0.256,2.38,0.915
		C356.878,265.541,356.878,265.614,356.878,265.688"/>
	<path id="XMLID_109_" fill="#0C977A" d="M306.915,291.163c-6.187-2.453-12.665-4.905-19.327-4.43
		c-3.879,0.293-7.649,1.611-10.871,3.771l-2.159,1.135c1.428,2.745,3.66,5.088,6.369,6.625c1.537,0.879,3.185,1.501,4.575,2.599
		c0.842,0.659,1.61,1.501,2.562,2.014c1.135,0.585,2.488,0.658,3.77,0.695c7.395,0.293,15.117,0.513,21.779-2.745
		c0.439-0.22,0.878-0.439,1.098-0.842c0.184-0.293,0.22-0.659,0.22-1.025C314.968,294.97,310.611,292.627,306.915,291.163"/>
	<path id="XMLID_110_" fill="#0C977A" d="M297.544,473.481c-0.951,1.94-2.635,3.185-4.648,4.026h-68.044
		c-1.172-2.196,0.329-5.308,2.672-6.479c2.488-1.244,5.453-0.988,8.199-0.769c9.406,0.805,19.691,0.622,27.086-5.198
		c1.171-0.915,2.232-1.939,3.587-2.562c1.684-0.769,3.587-0.806,5.454-0.806c7.467-0.036,14.896-0.073,22.327-0.073
		c0.695,0,1.428,0,1.977,0.439c0.439,0.366,0.622,0.951,0.806,1.501C298.021,466.82,299.009,470.443,297.544,473.481"/>
	<path id="XMLID_111_" fill="#0C977A" d="M399.483,436.146c0.036,0.037,0.036,0.073,0.073,0.11l0.036,0.036L399.483,436.146"/>
	<path id="XMLID_112_" fill="#0C977A" d="M399.63,436.33l0.183,0.256C399.739,436.477,399.703,436.366,399.63,436.33"/>
	<path id="XMLID_113_" fill="#0C977A" d="M409.915,441.93c-1.647-1.208-3.66-1.684-5.563-2.379c-1.867-0.659-3.771-1.61-4.759-3.294
		c-0.438-0.366-1.171-0.403-1.72-0.22c-0.695,0.22-1.318,0.695-2.05,0.805c-0.513,0.11-1.062,0-1.61,0.11
		c-1.208,0.22-2.087,1.428-2.307,2.635c-0.22,1.208,0.073,2.489,0.33,3.697c0.329,1.501,0.695,2.965,1.024,4.466
		c0.146,0.585,0.257,1.171,0.586,1.684c0.695,1.135,2.05,1.647,3.331,2.05c3.403,1.135,6.845,2.27,10.248,3.404
		c0.55,0.183,1.135,0.365,1.758,0.292c0.476-0.072,0.878-0.292,1.28-0.549c1.903-1.062,3.99-2.452,4.283-4.611
		c0.22-1.721-0.806-3.295-1.794-4.686C412.074,444.126,411.123,442.845,409.915,441.93"/>
	<path id="XMLID_114_" fill="#0C977A" d="M388.283,453.606c-0.513-0.806-2.087-2.452-2.087-2.452
		c-0.439-0.146-0.842-0.293-1.281-0.403c-0.731-0.256-1.537-0.476-2.306-0.293c-0.769,0.184-1.428,1.025-1.135,1.757
		c0.22,0.55,0.806,0.806,1.208,1.245c0.513,0.586,0.586,1.464,1.024,2.086c0.477,0.695,1.318,1.099,2.16,1.062
		c0.842-0.036,1.647-0.476,2.196-1.098c0.293-0.33,0.585-0.769,0.513-1.245C388.576,454.046,388.43,453.826,388.283,453.606"/>
	<path id="XMLID_115_" fill="#0C977A" d="M441.064,456.205c-0.037-0.586-0.11-1.281-0.623-1.574
		c-0.256-0.146-0.585-0.146-0.914-0.146c-1.172,0-2.307,0-3.478,0.037c0,0-0.915,0.22-1.135,0.658
		c-0.513-0.183-1.099,0.037-1.464,0.477c-0.366,0.402-0.477,0.988-0.439,1.537c0.109,1.281,1.062,2.379,2.232,2.892
		c1.172,0.513,2.489,0.513,3.771,0.293c0.731-0.146,1.537-0.402,1.903-1.062c0.22-0.439,0.22-0.915,0.183-1.391
		C441.101,457.303,441.101,456.754,441.064,456.205"/>
	<path id="XMLID_116_" fill="#0C977A" d="M573.311,402.18c-0.073,0.072-0.184,0.146-0.293,0.219
		c-0.806,0.513-4.393-0.731-5.344-0.951c-1.83-0.402-3.66-0.842-5.454-1.354c-2.343-0.659-4.759-1.464-7.138-1.135
		c-2.416,0.293-4.832,2.087-4.979,4.502c-0.072,1.538,0.696,3.111,0.184,4.539c-0.402,1.062-1.464,1.757-2.562,2.087
		c-3.77,1.207-7.833-0.732-10.98-3.148c-3.148-2.416-6.003-5.381-9.773-6.698c-3.221-1.135-6.771-0.915-10.176-0.622
		c-5.855,0.439-11.749,0.878-17.643,1.317c-1.902,0.146-3.916,0.293-5.6,1.245c-3.916,2.159-5.271,7.833-9.554,9.15
		c-2.343,0.695-5.015-0.146-7.174,1.024c-0.952,0.513-1.684,1.354-2.416,2.196c-4.319,4.979-9.517,9.883-16.068,10.578
		s-12.738-3.074-17.936-7.174c-5.161-4.1-10.212-8.785-16.581-10.578c-3.771-1.062-7.797-0.988-11.75-0.915
		c-4.648,0.073-9.26,0.183-13.506-1.537c-2.599-1.025-4.868-2.673-7.064-4.393c-9.114-7.102-17.533-17.13-16.91-28.66
		c0.146-2.818,1.024-5.894,3.403-7.504c1.428-0.951,3.185-1.244,4.868-1.464c5.783-0.732,11.64-0.842,17.424-0.402
		c1.939,0.146,4.099,0.293,5.673-0.842c1.245-0.915,1.83-2.489,2.929-3.587c4.429-4.43,14.385,0.256,17.13-5.381
		c0.585-1.245,0.585-2.709,0.585-4.1c-0.036-3.953-0.109-7.906-0.183-11.896c-0.036-1.939-0.109-4.062-1.464-5.49
		c-1.172-1.281-2.965-1.646-4.686-1.977c-13.213-2.562-26.866-6.734-36.236-16.397c-0.439-0.477-0.915-1.062-0.769-1.685
		c0.073-0.292,0.293-0.512,0.476-0.731c6.039-6.405,16.508-5.344,24.523-9.005c2.196-1.024,4.246-2.415,6.553-3.184
		c6.368-2.123,13.25,0.878,19.984,0.878c0.77,0,1.538-0.036,2.196-0.439c0.842-0.512,1.245-1.464,1.501-2.415
		c0.586-2.38-0.073-4.466-0.769-6.699c2.854-1.062,6.039,1.685,8.235,3.222c3.551,2.489,7.54,4.355,11.75,5.454
		c4.429,2.964,9.297,5.307,14.385,6.954c0.915,0.293,1.83,0.549,2.709,0.951c2.232,1.025,4.025,2.782,6.076,4.173
		c2.122,1.428,4.502,2.453,6.697,3.733c3.771,2.196,7.028,5.234,9.518,8.821c0.585,0.879,1.171,1.794,1.977,2.416
		c0.695,0.549,1.573,0.879,2.379,1.245c6.186,2.708,9.114,8.309,14.312,12.151c5.71,4.21,11.018,8.748,16.435,13.36
		c5.601,4.795,11.237,9.627,15.739,15.446c5.345,6.882,9.078,15.154,15.703,20.791c2.306,1.939,4.941,3.55,6.954,5.783
		C571.736,395.298,575.031,400.495,573.311,402.18"/>
	<path id="XMLID_117_" fill="#0C977A" d="M118.41,477.508H85.028c-0.037-0.109-0.073-0.22-0.11-0.293
		c-0.512-1.428-0.622-3.221-1.903-4.1c-0.585-0.402-1.354-0.512-2.086-0.622c-3.147-0.366-6.332-0.513-9.517-0.402
		c-1.392,0.036-2.782,0.146-4.1-0.329c-1.062-0.366-1.94-1.099-2.818-1.794c-4.43-3.624-8.858-7.247-13.324-10.871
		c-0.256-0.22-0.512-0.439-0.658-0.732c-0.622-1.28,1.135-2.306,2.196-3.257c2.123-1.94,1.537-5.454,0.073-7.87
		c-1.465-2.452-3.917-6.259-2.562-8.455c0,0,1.939-1.537,3.147-1.245c1.208,0.257,2.196,1.135,3.258,1.758
		c2.965,1.757,6.516,1.646,10.029,1.5c1.317-0.036,2.636-0.073,3.953-0.036c0.842,0.036,1.721,0.109,2.525,0.476
		c0.988,0.439,1.757,1.244,2.526,1.977c4.282,4.173,9.626,7.247,15.409,8.785c5.82,1.573,12.188,1.757,17.203,5.088
		c-0.438,4.429,3.661,7.869,5.125,12.042c0.293,0.878,0.476,1.793,0.805,2.636C115.043,474.104,116.653,475.86,118.41,477.508"/>
	<path id="XMLID_118_" fill="#0C977A" d="M184.625,477.508H137.15c-3.77-1.793-7.394-4.319-8.784-6.734
		c-1.281-2.196-1.318-4.905-1.94-7.395c5.563-1.537,11.713-0.988,16.91,1.537c1.281,0.623,2.526,1.392,3.881,1.867
		c3.403,1.208,7.137,0.659,10.761,0.439c5.894-0.33,11.859,0.329,17.533,1.939c1.464,0.403,2.928,0.915,4.136,1.83
		C181.806,472.713,182.758,475.531,184.625,477.508"/>
	<path id="XMLID_119_" fill="#0C977A" d="M163.578,462.171c0.805-0.438,0.842-1.61,1.428-2.342c0.695-0.879,2.195-1.281,2.159-2.38
		c0-0.476-0.329-0.878-0.659-1.171c-1.61-1.574-3.843-2.416-6.076-2.709c-2.232-0.293-4.502-0.109-6.771,0.073
		c-0.549,0.037-1.098,0.11-1.573,0.366c-1.135,0.695-1.135,2.489-0.293,3.551s2.159,1.537,3.44,1.977
		c1.025,0.366,2.014,0.695,3.038,1.062c0.988,0.109,1.977,0.512,2.892,1.024C161.895,462.025,162.81,462.574,163.578,462.171"/>
	<path id="XMLID_120_" fill="#0C977A" d="M210.319,453.276c-1.83-1.171-3.696-2.342-5.783-2.928
		c-4.282-1.244-8.895,0.146-13.03,1.794c-4.173,1.646-8.346,3.623-12.848,3.587c-1.098,0-2.232-0.146-3.221,0.293
		c-1.94,0.842-2.562,4.245-0.732,5.271c1.647,0.951,5.088,1.866,7.32,2.159c0.806,0.11,1.647,0.11,2.453,0.366
		c0.805,0.256,1.5,0.806,2.232,1.244c1.83,1.099,3.916,1.794,6.039,1.977c0.439,0.037,0.915,0.037,1.208-0.256
		c0.366-0.329,0.366-0.915,0.439-1.391c0.402-2.489,3.404-3.514,5.893-3.99c2.636-0.549,5.308-1.062,7.943-1.61
		c2.05-0.402,4.612-1.464,4.466-3.551C212.699,454.924,211.454,454.009,210.319,453.276"/>
	<path id="XMLID_121_" fill="#0C977A" d="M265.15,413.893c-0.036,0.438-0.183,0.842-0.329,1.28
		c-1.354,3.258-5.637,4.941-8.857,3.478c-1.135-0.513-2.123-1.354-3.075-2.159c-1.464-1.245-2.892-2.489-4.209-3.844
		c-1.903-2.013-3.514-4.319-5.783-5.856c-2.233-1.537-4.941-2.196-7.467-3.221c-3.807-1.537-7.248-3.844-10.103-6.771
		c-0.293-0.293-0.586-0.622-0.769-0.988c-0.22-0.439-0.257-0.952-0.257-1.428c-0.073-2.27,0.22-4.539-0.22-6.771
		c-0.329-1.647-1.024-3.147-1.83-4.648c-5.38,2.489-11.786,1.537-17.752,1.208c-6.296-0.33-13.58,0.585-17.057,5.856
		c-2.05,3.074-2.416,7.211-5.161,9.663c-2.855,2.599-7.211,2.379-11.055,2.159c-19.582-1.024-39.384,2.343-57.539,9.7
		c-2.014,0.805-4.063,1.757-5.345,3.477c-2.745,3.734-0.622,9.078-1.61,13.617c-1.062,4.904-5.966,8.345-10.944,8.857
		c-4.978,0.513-9.956-1.391-14.165-4.136c-1.757-1.135-3.478-2.453-5.417-3.185c-1.903-0.732-3.917-0.879-5.93-1.062
		c-7.87-0.622-15.703-1.281-23.572-1.903c-3.258-0.257-6.589-0.513-9.773,0.183c-3.77,0.842-7.101,2.965-10.651,4.502
		c-1.757,0.769-3.989,1.867-5.93,2.014c-2.05,0.146-1.866-1.757-0.878-3.111c0.622-0.879,1.5-1.647,1.83-2.672
		c0.256-0.842,0.109-1.721,0.146-2.599c0.073-2.233,1.244-4.283,2.488-6.149c0.916-1.392,1.904-2.745,2.893-4.1
		c4.209-5.82,8.418-11.604,12.628-17.423l2.086-2.855c1.574-2.159,3.147-4.355,4.722-6.515c2.343-3.222,5.088-6.26,7.064-9.7
		c0.366-0.622,0.659-1.244,1.062-1.83c0.476-0.695,1.098-1.317,1.721-1.903c1.939-1.903,3.88-3.807,5.856-5.674
		c1.317-1.281,2.672-2.599,4.025-3.843c3.515-3.222,7.102-5.71,9.811-9.663c1.684-2.453,3.514-4.868,5.71-6.918
		c2.122-1.94,4.465-3.588,6.698-5.418c3.587-2.928,6.588-6.441,10.321-9.224c0.22-0.146,0.439-0.329,0.659-0.476
		c5.783-4.282,11.566-8.528,17.35-12.812c1.062-0.805,2.16-1.61,3.222-2.379l5.93-4.393c1.72-1.28,3.44-2.525,5.161-3.77
		c3.257-2.307,6.661-4.466,10.321-6.149c2.965-1.354,6.187-2.416,8.528-4.686c0.806-0.769,1.465-1.684,2.307-2.452
		c3.001-2.709,7.43-2.782,11.383-3.66c2.233-0.513,6.589-3.697,7.724-0.695c1.135,2.965,0.146,6.405,1.428,9.37
		c0.622,1.464,1.977,2.818,3.587,2.709c0.988-0.037,1.866-0.659,2.745-1.208c8.712-5.527,20.314-6.223,29.611-1.721
		c-0.695,3.551,0.843,7.431,3.771,9.517c1.83,1.318,4.209,2.087,5.308,4.026c1.171,2.123,0.329,4.868-1.172,6.809
		c-1.5,1.903-3.587,3.331-5.233,5.124c-5.527,5.93-5.491,16.215,0.109,22.071c1.977,2.087,4.466,3.551,6.955,5.015
		c4.355,1.392,8.857,2.27,13.396,2.562c0.585,0.037,1.208,0.073,1.646,0.439c0.293,0.22,0.477,0.586,0.659,0.915
		c2.05,3.77,4.355,7.649,7.942,9.956c0.988,0.658,2.05,1.135,3.038,1.83c1.318,0.915,2.38,2.086,3.441,3.258
		c3.916,4.246,7.796,8.528,11.713,12.774c0.988,1.098,2.013,2.196,2.672,3.477c1.573,3.002,1.281,6.626,1.208,10.029
		c-0.073,4.1,0.256,8.236,0.988,12.263C265.078,412.685,265.224,413.307,265.15,413.893"/>
	<path id="XMLID_122_" fill="#0C977A" d="M230.524,425.02c2.343,0.329,4.795-0.695,6.332-2.489c1.538-1.793,2.233-4.246,2.087-6.589
		c-0.037-0.549-0.11-1.134-0.402-1.61c-1.281-2.196-5.088-1.098-6.699-3.074c-0.585-0.695-0.695-1.684-1.207-2.452
		c-0.916-1.501-2.893-1.94-4.649-2.014s-3.587,0.073-5.161-0.732l-0.146,0.146c-2.416-0.769-5.088-0.731-7.468,0.073
		c-0.695,0.22-1.391,0.55-1.72,1.172c-0.257,0.476-0.293,1.098-0.293,1.646v2.233c0,0.439,0,0.878,0.183,1.281
		c0.22,0.476,0.623,0.805,1.062,1.135c1.172,0.915,2.416,1.866,3.88,2.195c1.318,0.293,2.818,0.11,3.917,0.916
		c0.951,0.695,1.281,1.903,1.903,2.854c0.805,1.244,2.086,2.123,3.331,2.929C227.047,423.665,228.658,424.727,230.524,425.02"/>
	<path id="XMLID_123_" fill="#0C977A" d="M358.415,270.994c-0.439-0.146-0.879-0.146-1.317-0.183
		c-1.501-0.073-3.038-0.183-4.539-0.256c-0.513-0.037-1.025-0.073-1.501,0.073c-0.878,0.219-1.574,0.915-2.196,1.573
		c-0.658,0.659-1.281,1.354-1.939,2.014c-0.146,0.183-0.659,0.293-0.659,0.293c-0.622,0.292-0.806,1.171-0.513,1.793
		s0.988,0.988,1.684,1.099c0.696,0.109,1.392-0.037,2.05-0.184c2.343-0.513,4.722-1.244,7.138-1.062
		c0.915,0.073,1.903,0.257,2.672-0.256c0.257-0.146,0.477-0.402,0.623-0.622c0.476-0.732,0.622-1.684,0.329-2.525
		C359.952,271.946,359.257,271.251,358.415,270.994"/>
	<path id="XMLID_124_" fill="#0C977A" d="M370.859,273.812c-0.256-0.329-0.695-0.438-1.098-0.512
		c-0.659-0.146-1.317-0.293-2.013-0.403c-0.513-0.073-1.062-0.146-1.465,0.11c-0.476,0.293-0.256,1.757-0.256,1.757
		c0.036,0.622,0.073,1.317,0.549,1.757c0.11,0.109,0.293,0.22,0.439,0.293c0.842,0.476,1.866,0.622,2.855,0.439
		c0.438-0.073,0.842-0.257,1.134-0.586c0.477-0.586,0.33-1.428,0.146-2.196C371.079,274.252,371.006,273.996,370.859,273.812"/>
	<path id="XMLID_125_" fill="#0C977A" d="M346.445,281.792c-0.219-0.109-0.438-0.256-0.695-0.329
		c-0.256-0.073-0.549-0.073-0.805-0.073c-0.879,0-1.757,0.037-2.672,0.037l-0.915,0.365c-0.22,0.403-0.403,0.879-0.366,1.354
		c0.036,0.476,0.256,0.952,0.622,1.245c0.366,0.219,0.806,0.292,1.208,0.292c0.988,0.073,1.977,0.037,3.001,0.037
		c0.366,0,0.769,0,1.135-0.146c0.366-0.109,0.695-0.366,0.842-0.732c0.146-0.402,0-0.915-0.293-1.244
		C347.215,282.231,346.812,282.012,346.445,281.792"/>
	<path id="XMLID_126_" fill="#0C977A" d="M492.271,427.765c0-0.586,0-1.135-0.036-1.721c0-0.146,0-0.293-0.073-0.402
		c-0.11-0.146-0.293-0.22-0.477-0.256c-1.464-0.366-2.965-0.586-4.465-0.659c-0.659-0.036-1.318-0.036-1.903,0.22
		c-0.806,0.366-1.354,1.208-1.574,2.086c-0.22,0.879-0.183,1.794-0.146,2.672c0,0.293,0.036,0.623,0.11,0.915
		c0.146,0.477,0.476,0.879,0.805,1.245c0.256,0.293,0.513,0.586,0.879,0.659c0.183,0.036,0.329,0.036,0.512,0.036h0.366
		c0.55,0.073,0.988,0.439,1.501,0.549c0.622,0.184,1.354-0.036,1.793-0.549l-0.036-0.073c0.769-1.062,2.087-1.684,2.599-2.892
		C492.271,429.082,492.271,428.387,492.271,427.765"/>
	<path id="XMLID_127_" fill="#0C977A" d="M538.977,442.625c1.647,0.184,3.075,1.135,4.539,1.83c1.501,0.732,3.258,1.208,4.758,0.513
		c1.428-0.695,2.16-2.489,1.685-3.953c-0.366-1.135-1.318-1.939-2.233-2.708c-0.769-0.659-1.574-1.318-2.342-1.977
		c-0.586-0.513-1.208-1.025-1.904-1.318c-0.805-0.329-1.684-0.366-2.562-0.512c-2.525-0.439-4.868-1.867-6.369-3.917
		c-0.513-0.695-0.952-1.464-1.684-1.867c-0.439-0.256-0.952-0.365-1.464-0.365c-1.208-0.732-2.746-1.025-4.173-1.025
		c-5.93,0.073-11.018,4.319-16.838,5.344c-2.122,0.366-4.319,0.293-6.441,0.659c-5.234,0.915-9.847,4.722-11.75,9.7l-0.146,0.476
		c-1.391,0.695,0.184,2.709,1.61,3.221c5.747,2.123,11.823,3.295,17.936,3.478c3.258,0.109,6.625-0.109,9.59-1.464
		c1.977-0.915,3.624-2.233,5.161-3.807c1.135,0.658,2.306,1.391,3.587,1.208c0.55-0.073,1.025-0.366,1.501-0.623
		C533.816,444.126,536.269,442.333,538.977,442.625"/>
	<path id="XMLID_128_" fill="#0C977A" d="M554.424,463.525c1.171-1.354,2.342-3.038,1.83-4.758
		c-0.403-1.354-1.794-2.196-3.148-2.453c-1.391-0.256-7.064,0.11-8.309-0.585c-1.537-0.842-2.525-2.636-4.209-3.002
		c-1.135-0.256-2.27,0.22-3.331,0.695c-0.769,0.33-1.647,0.842-1.647,1.685l0.586,0.658c-0.513,1.464,0.329,3.075,1.428,4.137
		c1.135,1.062,2.525,1.793,3.623,2.892c1.354,1.317,2.196,3.074,2.892,4.831c0.293,0.732,0.586,1.537,1.208,2.05
		c0.366,0.329,0.842,0.513,1.317,0.659c2.489,0.878,5.563,1.024,7.54-0.769c0.221-0.184,0.403-0.403,0.477-0.659
		c0.22-0.806-0.659-1.428-1.354-1.867c-0.695-0.438-1.428-1.391-0.842-1.977C553.252,464.807,553.874,464.147,554.424,463.525"/>
	<path id="XMLID_129_" fill="#0C977A" d="M570.602,459.17c-0.549-0.695-1.062-1.391-1.61-2.086
		c-0.183-0.257-0.366-0.477-0.622-0.659c-0.293-0.184-0.695-0.22-1.062-0.22c-0.769-0.037-1.537-0.037-2.306,0.036
		c-0.33,0.037-0.659,0.037-0.952,0.146c-1.208,0.403-1.757,1.83-2.123,3.038l0.403,0.586c0.622,1.244,1.684,2.232,3.001,2.599
		c0.695,0.184,1.428,0.22,2.159,0.22c0.879,0,1.794-0.036,2.562-0.439c0.769-0.402,1.391-1.281,1.171-2.123
		C571.15,459.865,570.895,459.536,570.602,459.17"/>
	<path id="XMLID_160_" fill="#FBEBC8" d="M573.493,402.325c0.037,0.073,0.11,0.146,0.146,0.22
		c15.849,23.023,28.807,48.17,38.323,74.963c-9.517-26.793-22.475-51.939-38.323-74.963
		C573.604,402.472,573.566,402.398,573.493,402.325 M569.979,393.395c0.257,0.22,0.476,0.476,0.695,0.732l0.037,0.073l-0.037-0.073
		C570.455,393.907,570.199,393.65,569.979,393.395 M562.402,387.172c0.439,0.402,0.879,0.806,1.318,1.172
		c1.171,0.988,2.452,1.903,3.66,2.854c-1.208-0.951-2.489-1.83-3.66-2.854C563.244,387.978,562.806,387.574,562.402,387.172
		 M555.338,378.424c2.27,2.745,4.539,5.527,6.735,8.309C559.877,383.951,557.645,381.169,555.338,378.424 M545.565,364.625
		c0.842,0.951,1.647,1.939,2.416,2.928c1.024,1.317,2.013,2.709,2.928,4.1c-0.951-1.391-1.903-2.782-2.928-4.1
		C547.213,366.564,546.407,365.576,545.565,364.625 M531.363,351.338l0.879,0.769l4.722,4.062c-1.574-1.391-3.148-2.745-4.722-4.062
		L531.363,351.338 M509.658,332.89c0.988,1.025,1.939,2.05,2.965,3.038C511.598,334.939,510.646,333.915,509.658,332.89
		 M499.299,325.496c0.257,0.184,0.513,0.329,0.77,0.476C499.812,325.825,499.556,325.643,499.299,325.496 M489.929,315.577
		c2.818,2.013,5.271,4.502,7.211,7.32c0.549,0.806,1.099,1.647,1.83,2.27c-0.731-0.622-1.244-1.464-1.83-2.27
		C495.163,320.079,492.711,317.59,489.929,315.577 M486.415,313.417c0.403,0.22,0.806,0.439,1.171,0.659
		c0.074,0.036,0.184,0.109,0.257,0.146c-0.073-0.037-0.183-0.11-0.257-0.146C487.221,313.856,486.818,313.637,486.415,313.417
		 M478.691,308.695c0.366,0.293,0.732,0.586,1.099,0.842C479.424,309.281,479.058,308.988,478.691,308.695 M471.92,305.182
		c0.074,0.036,0.146,0.036,0.22,0.073c0.659,0.22,1.318,0.402,1.977,0.659c-0.658-0.257-1.317-0.439-1.977-0.659
		C472.066,305.218,471.994,305.182,471.92,305.182 M444.212,291.528c0.659,0.439,1.245,0.915,1.794,1.281
		c3.55,2.489,7.54,4.356,11.749,5.454c2.599,1.757,5.381,3.294,8.235,4.575c-2.854-1.281-5.637-2.818-8.235-4.575
		c-4.209-1.098-8.199-2.965-11.749-5.454C445.493,292.443,444.871,292.005,444.212,291.528 M356.987,265.724
		c0.073,0,0.11,0.037,0.183,0.037c28.185,4.465,55.197,12.555,80.453,23.791c0.037,0,0.074,0.037,0.11,0.037
		c-0.036,0-0.073-0.037-0.11-0.037c-25.292-11.236-52.269-19.326-80.453-23.791C357.134,265.761,357.061,265.724,356.987,265.724
		 M356.878,265.724L356.878,265.724L356.878,265.724 M356.878,265.504c0,0.037,0.036,0.11,0,0.146V265.504 M257.977,265.284h-0.109
		H257.977 M260.173,264.735c-0.329,0.073-0.695,0.11-1.024,0.183c-0.11,0-0.184,0.037-0.293,0.037c0.072,0,0.183-0.037,0.293-0.037
		C259.478,264.882,259.807,264.809,260.173,264.735 M353.363,264.369c0.366,0.073,0.732,0.146,1.135,0.22
		c0.513,0.11,1.794,0.22,2.27,0.732c-0.439-0.476-1.757-0.622-2.27-0.732C354.096,264.516,353.729,264.442,353.363,264.369
		 M343.957,263.564c0.439,0.073,0.842,0.073,1.281,0.073c0.329,0,0.695,0,1.024-0.037c-0.329,0-0.695,0.037-1.024,0.037
		C344.835,263.674,344.396,263.638,343.957,263.564 M269.873,263.234c-1.428,0.184-2.818,0.366-4.21,0.586
		C267.055,263.601,268.445,263.418,269.873,263.234 M273.753,262.905c-0.293,0.109-0.403,0.22-0.806,0.22h-0.037
		c-0.438,0-0.878-0.037-1.317-0.037h-0.22h0.22c0.439,0,0.842,0.037,1.317,0.037h0.037
		C273.35,263.125,273.46,263.015,273.753,262.905 M340.846,262.869c0.439,0.072,0.878,0.183,1.317,0.292
		c0.549,0.146,1.062,0.33,1.61,0.403c-0.549-0.11-1.062-0.293-1.61-0.403C341.724,263.015,341.285,262.941,340.846,262.869
		 M274.155,262.796c-0.037,0-0.11,0-0.146,0.036h-0.037h0.037C274.045,262.832,274.082,262.796,274.155,262.796 M281.146,261.99
		c-0.477,0.073-0.952,0.183-1.428,0.329c-0.732,0.22-1.501,0.586-2.27,0.659c-0.146,0.036-0.329,0.036-0.476,0.036
		c-0.513,0-1.099-0.073-1.61-0.109c-0.22,0-0.439-0.036-0.623-0.073c0.22,0.037,0.439,0.073,0.659,0.073
		c0.513,0.036,1.062,0.109,1.574,0.109c0.183,0,0.329,0,0.476-0.036c0.769-0.109,1.537-0.476,2.27-0.659
		C280.158,262.173,280.634,262.063,281.146,261.99 M326.863,261.515h2.013c1.428,0,2.892,0.109,4.319,0.256
		c-1.428-0.146-2.854-0.256-4.319-0.256H326.863 M313.174,261.002c1.464,0.22,2.928,0.476,4.429,0.476h1.025h-1.025
		C316.102,261.478,314.638,261.222,313.174,261.002 M307.062,260.782c-0.439,0.037-0.879,0.037-1.318,0.073
		c-0.476,0.037-0.951,0.037-1.427,0.073c-6.187,0.329-12.409,0.402-18.595,0.659h-0.329h0.329c6.223-0.257,12.408-0.33,18.595-0.659
		c0.476-0.036,0.951-0.036,1.427-0.073C306.183,260.819,306.622,260.819,307.062,260.782"/>
	<path id="XMLID_172_" fill="#49C8B3" d="M567.49,462.867c-0.731,0-1.464,0-2.159-0.22c-1.317-0.366-2.416-1.392-3.001-2.599
		l-0.403-0.586c0.366-1.245,0.915-2.636,2.123-3.038c0.293-0.11,0.622-0.146,0.952-0.146c0.476-0.037,0.915-0.037,1.391-0.037
		c0.293,0,0.622,0,0.915,0.037c0.366,0,0.732,0.036,1.062,0.22c0.256,0.146,0.439,0.402,0.622,0.658
		c0.549,0.696,1.062,1.392,1.61,2.087c0.256,0.329,0.549,0.695,0.622,1.135c0.184,0.842-0.402,1.72-1.171,2.123
		C569.284,462.83,568.369,462.867,567.49,462.867 M550.141,470.956c-1.171,0-2.379-0.256-3.478-0.622
		c-0.476-0.146-0.951-0.366-1.317-0.659c-0.622-0.513-0.915-1.317-1.208-2.05c-0.695-1.757-1.537-3.514-2.892-4.831
		c-1.098-1.062-2.525-1.794-3.623-2.892c-1.135-1.062-1.94-2.673-1.428-4.137l-0.586-0.658c0-0.843,0.879-1.354,1.647-1.685
		c0.878-0.365,1.793-0.731,2.708-0.731c0.22,0,0.439,0.036,0.623,0.073c1.72,0.366,2.708,2.123,4.209,3.001
		c1.208,0.695,6.918,0.293,8.309,0.586c1.391,0.256,2.745,1.098,3.148,2.452c0.512,1.684-0.659,3.404-1.831,4.759
		c-0.549,0.622-1.171,1.281-1.976,1.537c-0.55,0.622,0.146,1.537,0.842,1.977c0.695,0.439,1.573,1.062,1.354,1.866
		c-0.073,0.257-0.256,0.477-0.476,0.659C553.069,470.59,551.642,470.956,550.141,470.956 M556.217,398.885
		c-0.366,0-0.769,0.037-1.135,0.073c-2.416,0.293-4.832,2.087-4.979,4.502c-0.072,1.538,0.696,3.111,0.184,4.539
		c-0.402,1.062-1.464,1.757-2.562,2.087c-0.805,0.256-1.61,0.365-2.416,0.365c-3.037,0-6.076-1.61-8.564-3.514
		c-3.148-2.416-6.003-5.381-9.773-6.698c-1.866-0.659-3.843-0.842-5.819-0.842c-1.464,0-2.929,0.109-4.356,0.22
		c-5.855,0.439-11.749,0.878-17.643,1.317c-1.902,0.146-3.916,0.293-5.6,1.245c-3.916,2.159-5.271,7.833-9.554,9.15
		c-0.658,0.183-1.354,0.293-2.086,0.293c2.818,4.392,5.526,8.895,8.162,13.433c0.55,0.11,1.062,0.22,1.574,0.33
		c0.183,0.036,0.402,0.109,0.476,0.256c0.073,0.11,0.073,0.256,0.073,0.402c0,0.586,0,1.135,0.037,1.721
		c0,0.366,0,0.732-0.037,1.098c1.464,2.673,2.929,5.345,4.319,8.053c2.086-1.793,4.648-3.074,7.394-3.55
		c2.123-0.366,4.319-0.293,6.442-0.659c5.82-1.024,10.944-5.271,16.837-5.344h0.11c1.391,0,2.892,0.293,4.062,1.024
		c0.513,0,1.025,0.11,1.465,0.366c0.731,0.439,1.171,1.208,1.684,1.867c1.5,2.049,3.843,3.514,6.368,3.916
		c0.843,0.146,1.757,0.183,2.562,0.513c0.732,0.293,1.317,0.805,1.903,1.317c0.769,0.659,1.574,1.317,2.343,1.977
		c0.915,0.769,1.83,1.574,2.232,2.709c0.513,1.5-0.256,3.294-1.684,3.953c-0.513,0.256-1.062,0.366-1.61,0.366
		c-1.062,0-2.16-0.366-3.148-0.843c-1.5-0.731-2.928-1.646-4.538-1.83c-0.22-0.036-0.403-0.036-0.622-0.036
		c-2.453,0-4.722,1.647-6.882,2.892c-0.476,0.256-0.988,0.549-1.501,0.622c-0.146,0.037-0.293,0.037-0.438,0.037
		c-1.099,0-2.16-0.659-3.148-1.245c-1.501,1.537-3.185,2.892-5.161,3.807c-2.562,1.172-5.417,1.501-8.271,1.501
		c-0.439,0-0.879,0-1.318-0.036c-3.038-0.073-6.039-0.439-9.004-0.988c4.319,9.224,8.199,18.667,11.64,28.33h97.729
		c-9.517-26.793-22.474-51.939-38.323-74.963c-0.036-0.073-0.109-0.146-0.146-0.22c-0.036-0.072-0.109-0.146-0.146-0.183
		l-0.074,0.073c-0.072,0.073-0.183,0.146-0.292,0.22c-0.146,0.073-0.33,0.109-0.622,0.109c-1.318,0-3.917-0.915-4.723-1.062
		c-1.83-0.402-3.66-0.842-5.453-1.354C560.279,399.507,558.23,398.885,556.217,398.885 M555.338,378.424
		c2.123,3.148,4.319,6.149,7.064,8.748c-0.109-0.146-0.219-0.256-0.329-0.402C559.877,383.951,557.645,381.169,555.338,378.424
		 M512.623,335.928c0.988,0.988,2.05,1.94,3.221,2.818c0.366,0.257,0.695,0.513,1.062,0.769c-1.391-1.207-2.818-2.379-4.246-3.55
		L512.623,335.928 M389.82,317.773c2.05,1.464,4.246,2.781,6.516,3.916c10.578,7.54,20.681,15.666,30.271,24.378
		c-0.037-3.111-0.073-6.223-0.146-9.334c-0.037-1.94-0.11-4.063-1.464-5.49c-1.172-1.281-2.965-1.647-4.686-1.977
		C409.586,327.217,398.604,324.068,389.82,317.773 M344.433,284.721c-0.549,0-1.062,0-1.61-0.037
		c-0.439-0.036-0.879-0.073-1.208-0.292c-0.402-0.257-0.622-0.732-0.622-1.245c-0.037-0.476,0.146-0.951,0.366-1.354l0.915-0.365
		c0.878,0,1.757-0.037,2.672-0.037h0.146c0.22,0,0.438,0,0.658,0.073c0.257,0.073,0.477,0.183,0.696,0.329
		c0.402,0.22,0.769,0.477,1.062,0.806c0.292,0.366,0.438,0.842,0.292,1.244c-0.146,0.366-0.476,0.586-0.842,0.732
		c-0.366,0.109-0.769,0.109-1.135,0.146H344.433 M369.029,277.327c-0.695,0-1.427-0.184-2.049-0.513
		c-0.146-0.073-0.293-0.184-0.439-0.293c-0.439-0.439-0.513-1.135-0.549-1.757c0,0-0.184-1.428,0.256-1.757
		c0.22-0.146,0.476-0.184,0.732-0.184c0.256,0,0.476,0.037,0.731,0.073c0.659,0.11,1.317,0.257,2.014,0.403
		c0.402,0.073,0.842,0.22,1.098,0.512c0.146,0.184,0.22,0.439,0.256,0.659c0.184,0.732,0.33,1.61-0.146,2.196
		c-0.293,0.329-0.696,0.513-1.135,0.586C369.579,277.29,369.322,277.327,369.029,277.327 M347.946,277.437
		c-0.183,0-0.329,0-0.513-0.036c-0.695-0.11-1.354-0.477-1.684-1.099c-0.293-0.622-0.109-1.501,0.513-1.793
		c0,0,0.513-0.11,0.659-0.293c0.658-0.659,1.281-1.354,1.939-2.014c0.622-0.658,1.318-1.354,2.196-1.573
		c0.293-0.073,0.549-0.11,0.842-0.11c0.22,0,0.439,0,0.659,0.037c1.501,0.073,3.038,0.183,4.539,0.256
		c0.438,0.036,0.878,0.036,1.317,0.183c0.842,0.257,1.537,0.952,1.794,1.758c0.292,0.842,0.146,1.793-0.33,2.525
		c-0.183,0.256-0.366,0.476-0.622,0.622c-0.402,0.256-0.878,0.329-1.391,0.329c-0.439,0-0.879-0.036-1.281-0.073
		c-0.256,0-0.513-0.036-0.732-0.036c-2.159,0-4.246,0.622-6.368,1.098C348.972,277.327,348.459,277.437,347.946,277.437
		 M356.878,265.724c-0.146,0.513-1.538,0.732-1.977,0.879c-1.903,0.585-3.844,0.915-5.82,1.062
		c-2.562,0.146-5.197-0.073-7.649,0.695c-5.82,1.793-8.858,8.382-14.349,10.98c-1.867,0.879-3.807,1.244-5.747,1.244
		c-6.625,0-13.652-4.209-20.424-6.112c-1.392-0.402-2.965-0.586-4.686-0.622c15.044,4.209,29.648,9.48,43.704,15.739
		c16.032,7.101,31.368,15.483,45.899,25c-0.585-0.55-1.171-1.099-1.72-1.647c-0.439-0.476-0.915-1.062-0.769-1.684
		c0.073-0.293,0.293-0.513,0.476-0.732c6.039-6.405,16.508-5.344,24.524-9.004c2.195-1.025,4.245-2.416,6.552-3.185
		c1.646-0.549,3.367-0.769,5.088-0.769c4.868,0,9.919,1.646,14.897,1.646h0.072c0.732,0,1.501-0.072,2.123-0.438
		c0.842-0.513,1.245-1.465,1.501-2.416c0.586-2.379-0.073-4.466-0.769-6.698h0.037l-0.074-0.037c-0.036,0-0.072-0.036-0.109-0.036
		c-25.293-11.237-52.269-19.326-80.453-23.792c-0.073,0-0.109-0.036-0.183-0.036h-0.073L356.878,265.724 M258.014,265.284h-0.146
		c-0.257,0.037-0.477,0.073-0.695,0.11c0.219,0.036,0.438,0.073,0.695,0.109C257.903,265.431,257.94,265.357,258.014,265.284"/>
	<path id="XMLID_173_" fill="#51AE86" d="M309.367,260.709c-0.769,0-1.501,0.037-2.27,0.073c-0.439,0.037-0.879,0.037-1.317,0.073
		c-0.477,0.037-0.952,0.037-1.428,0.073c-6.186,0.329-12.408,0.402-18.595,0.659h-0.329c-1.428,0.073-2.854,0.146-4.282,0.365
		c-0.477,0.073-0.952,0.184-1.428,0.33c-0.732,0.22-1.501,0.586-2.27,0.658c-0.146,0.037-0.329,0.037-0.476,0.037
		c-0.513,0-1.099-0.073-1.574-0.109c-0.22,0-0.439-0.073-0.659-0.073h-0.549c-0.036,0-0.109,0-0.146,0.036h-0.036
		c-0.073,0.037-0.146,0.037-0.22,0.073c-0.293,0.109-0.402,0.22-0.806,0.22h-0.036c-0.476,0-0.879-0.037-1.317-0.037h-0.22
		c-0.146,0-0.257,0-0.402,0.037c-0.366,0.036-0.732,0.073-1.099,0.146c-1.391,0.183-2.818,0.366-4.209,0.586
		c-0.184,0.036-0.366,0.072-0.55,0.072c-1.646,0.293-3.294,0.55-4.941,0.843c-0.329,0.073-0.695,0.109-1.024,0.183
		c-0.11,0-0.183,0.036-0.293,0.036c-0.402,0.073-0.659,0.11-0.842,0.293c-0.073,0.073-0.109,0.146-0.146,0.22
		c0.549,0.073,1.062,0.184,1.61,0.257c12.481,1.977,24.78,4.685,36.75,8.052c1.72,0.073,3.33,0.257,4.685,0.623
		c6.771,1.903,13.8,6.112,20.425,6.112c1.939,0,3.88-0.366,5.746-1.244c5.49-2.599,8.529-9.188,14.349-10.981
		c2.452-0.769,5.088-0.512,7.65-0.695c1.977-0.109,3.916-0.476,5.819-1.062c0.439-0.146,1.83-0.366,1.977-0.878v-0.22
		c-0.036-0.073-0.073-0.146-0.109-0.184c-0.439-0.476-1.757-0.622-2.27-0.731c-0.366-0.073-0.732-0.146-1.135-0.22
		c-2.05-0.403-4.136-0.732-6.259-0.732H346.3c-0.33,0-0.696,0.037-1.025,0.037c-0.439,0-0.878-0.037-1.281-0.073h-0.073
		c-0.036,0-0.073,0-0.109-0.037c-0.549-0.109-1.062-0.293-1.61-0.402c-0.439-0.11-0.879-0.184-1.318-0.293
		c-0.366-0.073-0.731-0.109-1.098-0.183c-2.196-0.366-4.355-0.696-6.552-0.915c-1.428-0.146-2.855-0.257-4.319-0.257H317.64
		c-1.501,0-2.965-0.256-4.43-0.476c-0.183-0.037-0.402-0.073-0.585-0.073C311.49,260.782,310.429,260.709,309.367,260.709"/>
	<path id="XMLID_174_" fill="#51AE86" d="M439.161,289.406c-0.439,0-0.879,0.072-1.318,0.219h-0.036
		c0.695,2.233,1.354,4.319,0.769,6.698c-0.22,0.952-0.659,1.903-1.501,2.416c-0.622,0.366-1.391,0.439-2.123,0.439h-0.073
		c-4.978,0-10.028-1.647-14.897-1.647c-1.72,0-3.403,0.22-5.087,0.769c-2.307,0.77-4.356,2.16-6.553,3.185
		c-8.016,3.697-18.447,2.6-24.523,9.005c-0.22,0.22-0.402,0.439-0.476,0.731c-0.146,0.623,0.329,1.208,0.769,1.685
		c0.549,0.585,1.135,1.134,1.72,1.646h0.037c1.281,1.172,2.599,2.233,3.989,3.222c8.785,6.295,19.766,9.443,30.527,11.493
		c1.684,0.329,3.514,0.695,4.685,1.977c1.318,1.427,1.428,3.55,1.465,5.49c0.036,3.111,0.072,6.223,0.146,9.334
		c18.521,16.837,35.102,35.797,49.34,56.478c2.05,2.965,4.063,6.003,6.04,9.078c0.695-0.037,1.391-0.11,2.086-0.293
		c4.282-1.281,5.637-6.991,9.554-9.15c1.684-0.916,3.66-1.099,5.6-1.245c5.857-0.439,11.75-0.878,17.643-1.317
		c1.428-0.11,2.893-0.22,4.356-0.22c1.977,0,3.953,0.183,5.819,0.842c3.734,1.317,6.589,4.282,9.773,6.698
		c2.489,1.903,5.527,3.514,8.564,3.514c0.806,0,1.611-0.109,2.416-0.366c1.099-0.329,2.16-1.024,2.562-2.086
		c0.549-1.428-0.256-3.001-0.184-4.539c0.146-2.415,2.562-4.209,4.979-4.502c0.366-0.036,0.769-0.073,1.135-0.073
		c2.014,0,4.062,0.659,6.003,1.208c1.794,0.513,3.624,0.988,5.454,1.354c0.805,0.183,3.403,1.062,4.722,1.062
		c0.256,0,0.476-0.037,0.622-0.11c0.109-0.073,0.183-0.146,0.293-0.219l0.073-0.073c1.537-1.758-1.538-6.662-2.636-7.943
		l-0.037-0.073c-0.219-0.256-0.476-0.513-0.695-0.732c-0.805-0.805-1.684-1.5-2.599-2.195c-1.208-0.952-2.489-1.83-3.66-2.855
		c-0.439-0.366-0.878-0.769-1.281-1.171c-2.708-2.599-4.941-5.601-7.064-8.748c-1.501-2.233-2.928-4.503-4.429-6.771
		c-0.951-1.392-1.903-2.782-2.928-4.1c-0.77-0.988-1.574-1.977-2.416-2.929c-2.672-3.001-5.601-5.783-8.602-8.455
		c-1.574-1.391-3.148-2.745-4.723-4.062l-0.878-0.77c-4.759-4.062-9.48-8.052-14.458-11.822c-0.33-0.256-0.695-0.513-1.062-0.769
		c-1.171-0.879-2.233-1.83-3.222-2.818c-1.024-0.988-1.977-2.05-2.965-3.038c-2.342-2.452-4.758-4.795-8.125-6.296
		c-0.477-0.22-0.952-0.402-1.428-0.659c-0.256-0.146-0.549-0.292-0.769-0.476c-0.073-0.036-0.11-0.073-0.183-0.146
		c-0.074-0.036-0.11-0.109-0.184-0.146c-0.732-0.622-1.244-1.464-1.83-2.27c-1.977-2.818-4.429-5.344-7.211-7.32
		c-0.658-0.476-1.354-0.915-2.05-1.354c-0.073-0.036-0.183-0.109-0.256-0.146c-0.403-0.219-0.769-0.438-1.171-0.658
		c-1.867-0.988-3.771-1.903-5.527-3.075c-0.366-0.256-0.732-0.512-1.135-0.805c-0.366-0.293-0.732-0.549-1.098-0.842
		c-1.209-0.952-2.453-1.867-3.844-2.489c-0.256-0.109-0.476-0.22-0.732-0.293c-0.658-0.256-1.317-0.439-1.977-0.659
		c-0.073-0.036-0.146-0.036-0.22-0.073c-2.013-0.658-3.989-1.427-5.929-2.306c-2.855-1.281-5.638-2.818-8.236-4.575
		c-4.209-1.098-8.199-2.965-11.749-5.454c-0.55-0.366-1.135-0.842-1.794-1.281C442.675,290.467,440.918,289.406,439.161,289.406"/>
	<path id="XMLID_175_" fill="#51AE86" d="M351.899,270.519c-0.293,0-0.585,0.037-0.842,0.11c-0.878,0.219-1.574,0.915-2.196,1.573
		c-0.658,0.659-1.281,1.354-1.939,2.014c-0.146,0.183-0.659,0.293-0.659,0.293c-0.622,0.292-0.806,1.171-0.513,1.793
		s0.988,0.988,1.684,1.099c0.184,0.036,0.33,0.036,0.513,0.036c0.513,0,1.025-0.109,1.537-0.22c2.123-0.439,4.21-1.098,6.369-1.098
		c0.257,0,0.513,0,0.732,0.036c0.438,0.037,0.878,0.073,1.281,0.073c0.476,0,0.951-0.073,1.391-0.329
		c0.256-0.146,0.476-0.402,0.622-0.622c0.476-0.732,0.622-1.684,0.329-2.525c-0.292-0.843-0.988-1.501-1.793-1.758
		c-0.439-0.146-0.879-0.146-1.317-0.183c-1.501-0.073-3.038-0.183-4.539-0.256C352.339,270.556,352.119,270.519,351.899,270.519"/>
	<path id="XMLID_176_" fill="#51AE86" d="M367.053,272.788c-0.256,0-0.512,0.036-0.731,0.183c-0.476,0.293-0.257,1.758-0.257,1.758
		c0.037,0.622,0.073,1.317,0.55,1.757c0.109,0.109,0.293,0.219,0.438,0.292c0.623,0.33,1.318,0.513,2.05,0.513
		c0.257,0,0.55-0.036,0.806-0.073c0.439-0.073,0.842-0.256,1.135-0.586c0.476-0.585,0.329-1.427,0.146-2.195
		c-0.073-0.22-0.11-0.477-0.256-0.659c-0.257-0.329-0.696-0.439-1.099-0.513c-0.659-0.146-1.317-0.293-2.013-0.402
		C367.529,272.824,367.272,272.788,367.053,272.788"/>
	<path id="XMLID_177_" fill="#51AE86" d="M345.092,281.39h-0.146c-0.879,0-1.757,0.037-2.672,0.037l-0.915,0.365
		c-0.22,0.403-0.403,0.879-0.366,1.354c0.036,0.476,0.256,0.952,0.622,1.245c0.366,0.219,0.805,0.292,1.208,0.292
		c0.549,0.037,1.062,0.037,1.61,0.037h1.391c0.366,0,0.769,0,1.135-0.146c0.366-0.109,0.695-0.366,0.842-0.732
		c0.146-0.402,0-0.915-0.293-1.244c-0.292-0.366-0.695-0.586-1.062-0.806c-0.219-0.109-0.438-0.256-0.695-0.329
		C345.53,281.39,345.312,281.39,345.092,281.39"/>
	<path id="XMLID_178_" fill="#51AE86" d="M490.075,425.056c0.732,1.245,1.428,2.526,2.16,3.807c0.036-0.365,0.036-0.731,0.036-1.098
		c0-0.586,0-1.135-0.036-1.721c0-0.146,0-0.292-0.073-0.402c-0.11-0.146-0.293-0.22-0.477-0.256
		C491.174,425.239,490.625,425.129,490.075,425.056"/>
	<path id="XMLID_179_" fill="#51AE86" d="M527.374,427.325h-0.11c-5.93,0.073-11.018,4.319-16.837,5.344
		c-2.123,0.366-4.319,0.293-6.442,0.659c-2.745,0.476-5.308,1.757-7.394,3.551c2.086,4.062,4.136,8.162,6.076,12.299
		c2.965,0.585,5.966,0.915,9.004,0.988c0.439,0,0.879,0.036,1.317,0.036c2.818,0,5.711-0.329,8.272-1.501
		c1.977-0.915,3.624-2.232,5.161-3.807c0.988,0.586,2.05,1.245,3.148,1.245c0.146,0,0.293,0,0.438-0.037
		c0.55-0.073,1.025-0.366,1.501-0.622c2.196-1.244,4.43-2.892,6.882-2.892c0.22,0,0.402,0,0.622,0.036
		c1.646,0.184,3.074,1.135,4.539,1.83c0.988,0.477,2.086,0.842,3.147,0.842c0.549,0,1.098-0.109,1.61-0.365
		c1.428-0.695,2.159-2.489,1.684-3.953c-0.366-1.135-1.317-1.94-2.232-2.709c-0.769-0.659-1.574-1.317-2.343-1.977
		c-0.586-0.513-1.208-1.024-1.903-1.317c-0.805-0.33-1.684-0.366-2.562-0.513c-2.525-0.439-4.868-1.867-6.368-3.916
		c-0.513-0.696-0.952-1.465-1.685-1.867c-0.438-0.256-0.951-0.366-1.464-0.366C530.266,427.618,528.765,427.325,527.374,427.325"/>
	<path id="XMLID_180_" fill="#51AE86" d="M539.929,452.691c-0.915,0-1.83,0.366-2.709,0.731c-0.769,0.33-1.646,0.842-1.646,1.685
		l0.585,0.658c-0.512,1.464,0.33,3.075,1.428,4.137c1.135,1.062,2.525,1.793,3.624,2.892c1.354,1.317,2.196,3.074,2.892,4.831
		c0.293,0.732,0.586,1.537,1.207,2.05c0.366,0.329,0.843,0.513,1.318,0.659c1.098,0.366,2.306,0.622,3.478,0.622
		c1.501,0,2.928-0.402,4.062-1.391c0.22-0.184,0.403-0.403,0.476-0.659c0.22-0.806-0.658-1.428-1.354-1.867
		c-0.695-0.438-1.428-1.391-0.842-1.977c0.805-0.256,1.391-0.915,1.977-1.537c1.171-1.354,2.342-3.038,1.83-4.758
		c-0.403-1.354-1.794-2.196-3.148-2.453c-1.391-0.256-7.064,0.11-8.309-0.585c-1.537-0.842-2.525-2.636-4.209-3.002
		C540.368,452.728,540.148,452.691,539.929,452.691"/>
	<path id="XMLID_181_" fill="#51AE86" d="M566.393,456.205c-0.477,0-0.915,0-1.391,0.036c-0.33,0.037-0.659,0.037-0.952,0.146
		c-1.208,0.403-1.757,1.83-2.123,3.038l0.402,0.586c0.622,1.244,1.685,2.232,3.002,2.599c0.695,0.184,1.427,0.22,2.159,0.22
		c0.879,0,1.794-0.036,2.562-0.439c0.769-0.402,1.391-1.281,1.171-2.123c-0.109-0.402-0.366-0.769-0.622-1.135
		c-0.549-0.695-1.062-1.391-1.61-2.086c-0.183-0.256-0.366-0.476-0.622-0.659c-0.293-0.183-0.695-0.22-1.062-0.22
		C567.015,456.205,566.722,456.205,566.393,456.205"/>
	<path id="XMLID_205_" fill="#C0C0CB" d="M514.197,477.508H0.146c-0.037,0.073-0.037,0.11-0.073,0.184h514.16
		C514.233,477.618,514.233,477.581,514.197,477.508 M19.069,433.584L19.069,433.584l0.146,0.146c0.037,0.037,0.11,0.073,0.146,0.11
		v-0.037C19.289,433.73,19.18,433.657,19.069,433.584 M18.923,433.365c0.037,0.036,0.037,0.073,0.073,0.109
		C18.96,433.438,18.923,433.401,18.923,433.365 M21.192,428.387c-0.366,0.915-1.135,1.61-1.72,2.416
		c0,0.036-0.037,0.036-0.037,0.073c0-0.037,0.037-0.037,0.037-0.073C20.058,429.997,20.826,429.302,21.192,428.387 M34.113,405.181
		c-2.452,3.367-4.868,6.698-7.32,10.065c-0.988,1.354-1.977,2.709-2.892,4.1c-1.245,1.867-2.452,3.917-2.525,6.149
		c-0.037,0.586,0.036,1.208,0,1.794c0.036-0.586-0.037-1.208,0-1.794c0.073-2.232,1.244-4.282,2.488-6.149
		c0.915-1.391,1.903-2.745,2.892-4.1C29.245,411.879,31.697,408.548,34.113,405.181 M39.934,397.165
		c-0.146,0.219-0.33,0.438-0.477,0.658c-0.183,0.257-0.402,0.549-0.585,0.806c0.183-0.257,0.402-0.549,0.585-0.806
		C39.604,397.604,39.787,397.384,39.934,397.165 M42.386,393.834c-0.293,0.402-0.549,0.769-0.842,1.171
		c-0.146,0.22-0.293,0.439-0.476,0.622c0.146-0.22,0.293-0.438,0.476-0.622C41.8,394.603,42.093,394.2,42.386,393.834
		 M53.513,378.388c-0.073,0.146-0.146,0.256-0.22,0.402c-0.183,0.293-0.365,0.622-0.549,0.915c0.184-0.293,0.366-0.622,0.549-0.915
		C53.403,378.644,53.477,378.497,53.513,378.388 M65.226,366.198c-1.098,1.025-2.196,2.087-3.294,3.148
		c-0.183,0.183-0.366,0.329-0.549,0.513c0.183-0.184,0.366-0.366,0.549-0.513C63.029,368.285,64.128,367.224,65.226,366.198
		 M72.547,359.646c-0.915,0.915-1.903,1.757-2.892,2.636C70.68,361.44,71.632,360.562,72.547,359.646 M87.298,344.237
		c-1.208,0.951-2.453,1.903-3.661,2.892C84.845,346.141,86.09,345.226,87.298,344.237 M99.011,333.915
		c-0.184,0.109-0.33,0.256-0.513,0.366c-3.111,2.306-5.674,5.124-8.528,7.687c2.854-2.562,5.417-5.381,8.528-7.687
		C98.681,334.171,98.827,334.062,99.011,333.915 M122.875,316.309c-1.061,0.769-2.086,1.538-3.147,2.307
		c-0.842,0.622-1.684,1.244-2.489,1.866c0.842-0.622,1.684-1.244,2.489-1.866C120.789,317.846,121.851,317.077,122.875,316.309
		 M142.458,303.754c-0.439,0.184-0.879,0.366-1.317,0.586c-3.624,1.647-7.028,3.843-10.322,6.149
		c-0.184,0.146-0.402,0.293-0.586,0.439c0.184-0.146,0.402-0.293,0.586-0.439c3.258-2.307,6.662-4.466,10.322-6.149
		C141.579,304.156,142.019,303.974,142.458,303.754 M155.488,295.226c-1.281,0.439-2.488,1.062-3.514,1.977
		c-0.329,0.293-0.658,0.622-0.951,0.988c0.293-0.329,0.622-0.659,0.951-0.988C153,296.287,154.207,295.665,155.488,295.226
		 M165.811,292.59c-0.659,0.293-1.281,0.586-1.83,0.769l-0.329,0.11c-0.11,0.036-0.22,0.073-0.293,0.073
		c-2.27,0.513-4.722,0.769-6.991,1.428c2.232-0.623,4.686-0.879,6.991-1.428C164.054,293.358,164.896,292.993,165.811,292.59
		 M169.837,291.602C169.837,291.602,169.837,291.639,169.837,291.602C169.801,291.639,169.837,291.602,169.837,291.602
		 M224.924,271.982c-18.887,4.868-37.078,11.348-54.465,19.363h-0.036h0.036C187.846,283.33,206.037,276.814,224.924,271.982
		 M225.07,271.946c-0.036,0-0.073,0-0.109,0.036C224.997,271.946,225.034,271.946,225.07,271.946 M225.217,271.909
		C225.217,271.909,225.181,271.909,225.217,271.909C225.181,271.909,225.217,271.909,225.217,271.909"/>
	<path id="XMLID_218_" fill="#008B89" d="M137.15,477.508c-3.77-1.793-7.394-4.319-8.784-6.734c-1.281-2.196-1.318-4.905-1.94-7.395
		c2.087-0.585,4.209-0.878,6.369-0.878c3.624,0,7.284,0.805,10.541,2.415c1.281,0.623,2.526,1.392,3.881,1.867
		c1.646,0.586,3.367,0.769,5.088,0.769c1.866,0,3.77-0.22,5.637-0.293c1.024-0.073,2.013-0.073,3.038-0.073
		c4.904,0,9.81,0.695,14.494,2.014c1.464,0.402,2.929,0.915,4.137,1.83c2.159,1.684,3.147,4.502,4.978,6.479H137.15
		 M243.079,470.627c7.138,0,14.238-1.208,19.766-5.527c1.171-0.915,2.233-1.94,3.587-2.562c1.684-0.769,3.588-0.805,5.454-0.805
		c7.467-0.037,14.897-0.073,22.328-0.073h0.109c0.659,0,1.354,0.036,1.867,0.438c0.438,0.366,0.622,0.952,0.805,1.501
		c1.025,3.258,2.05,6.882,0.549,9.92c-0.951,1.939-2.635,3.185-4.648,4.026h-68.044c-1.172-2.196,0.329-5.308,2.672-6.479
		c1.464-0.731,3.111-0.951,4.758-0.951c1.135,0,2.307,0.109,3.441,0.183C238.138,470.48,240.627,470.627,243.079,470.627
		 M434.951,455.18c0.22-0.438,1.135-0.658,1.135-0.658c1.172,0,2.307,0,3.478-0.037h0.073c0.293,0,0.586,0,0.805,0.146
		c0.513,0.293,0.586,0.988,0.623,1.574c0,0.549,0.036,1.098,0.036,1.647c0,0.476,0.037,0.988-0.183,1.391
		c-0.366,0.659-1.172,0.951-1.903,1.062c-0.513,0.073-0.988,0.146-1.501,0.146c-0.769,0-1.537-0.11-2.232-0.439
		c-1.172-0.513-2.123-1.61-2.233-2.892c-0.036-0.549,0.073-1.098,0.439-1.537c0.256-0.33,0.695-0.513,1.099-0.513
		C434.732,455.107,434.842,455.144,434.951,455.18 M162.992,462.317c-0.622,0-1.281-0.402-1.83-0.731
		c-0.879-0.513-1.867-0.915-2.892-1.025c-1.025-0.366-2.014-0.695-3.038-1.062c-1.281-0.438-2.599-0.915-3.44-1.977
		s-0.879-2.854,0.292-3.55c0.477-0.293,1.025-0.33,1.574-0.366c1.428-0.11,2.818-0.257,4.246-0.257c0.842,0,1.684,0.037,2.525,0.146
		c2.233,0.293,4.466,1.135,6.076,2.709c0.33,0.329,0.659,0.732,0.659,1.171c0.036,1.135-1.501,1.501-2.16,2.38
		c-0.585,0.731-0.585,1.903-1.427,2.342C163.395,462.281,163.175,462.317,162.992,462.317 M385.794,456.607
		c-0.806,0-1.61-0.402-2.087-1.062c-0.438-0.658-0.512-1.5-1.024-2.086c-0.366-0.439-0.988-0.695-1.208-1.245
		c-0.293-0.731,0.366-1.573,1.135-1.757c0.183-0.036,0.402-0.073,0.586-0.073c0.585,0,1.171,0.184,1.72,0.366
		c0.439,0.146,0.842,0.293,1.281,0.403c0,0,1.537,1.646,2.087,2.452c0.146,0.22,0.256,0.439,0.292,0.695
		c0.073,0.439-0.183,0.878-0.512,1.244c-0.586,0.622-1.354,1.062-2.196,1.099C385.83,456.607,385.794,456.607,385.794,456.607
		 M178.805,455.729c4.429,0,8.602-1.94,12.701-3.587c3.038-1.208,6.296-2.27,9.517-2.27c1.171,0,2.343,0.146,3.514,0.476
		c2.087,0.586,3.953,1.794,5.783,2.928c1.135,0.732,2.38,1.647,2.453,2.965c0.146,2.087-2.416,3.148-4.466,3.551
		c-2.636,0.549-5.308,1.062-7.943,1.61c-2.488,0.513-5.49,1.501-5.893,3.99c-0.073,0.476-0.073,1.062-0.439,1.391
		c-0.22,0.22-0.549,0.256-0.878,0.256h-0.33c-2.123-0.183-4.209-0.842-6.039-1.977c-0.732-0.438-1.428-0.951-2.232-1.244
		c-0.769-0.256-1.611-0.256-2.453-0.366c-2.269-0.293-5.673-1.208-7.32-2.159c-1.866-1.062-1.244-4.429,0.732-5.271
		c0.622-0.257,1.317-0.33,2.013-0.33c0.402,0,0.806,0.037,1.208,0.037H178.805 M69.911,472.164c-0.879,0-1.757-0.073-2.562-0.366
		c-1.062-0.366-1.939-1.098-2.818-1.794c-4.429-3.623-8.857-7.247-13.323-10.871c-0.256-0.219-0.513-0.438-0.659-0.731
		c-0.622-1.281,1.135-2.306,2.196-3.258c2.123-1.94,1.537-5.454,0.073-7.87c-1.464-2.452-3.916-6.259-2.562-8.455
		c0,0,1.646-1.281,2.818-1.281c0.109,0,0.219,0,0.329,0.037c1.208,0.256,2.196,1.135,3.258,1.757
		c2.232,1.317,4.795,1.574,7.431,1.574c0.878,0,1.72-0.037,2.599-0.073c0.878-0.037,1.72-0.073,2.599-0.073
		c0.439,0,0.915,0,1.354,0.036c0.842,0.037,1.72,0.11,2.525,0.477c0.988,0.438,1.757,1.244,2.525,1.977
		c4.282,4.172,9.627,7.247,15.41,8.784c5.819,1.574,12.188,1.757,17.203,5.088c-0.439,4.429,3.66,7.869,5.124,12.042
		c0.293,0.879,0.477,1.794,0.806,2.636c0.806,2.27,2.452,4.026,4.173,5.674H85.028c-0.037-0.11-0.073-0.22-0.11-0.293
		c-0.512-1.428-0.622-3.222-1.903-4.1c-0.585-0.402-1.354-0.513-2.086-0.622c-2.416-0.293-4.832-0.439-7.247-0.439
		c-0.732,0-1.501,0-2.233,0.036C70.936,472.164,70.424,472.164,69.911,472.164 M399.812,436.549l-0.183-0.256
		C399.703,436.366,399.739,436.477,399.812,436.549 M408.854,455.217c-0.476,0-0.951-0.146-1.428-0.293
		c-3.403-1.135-6.845-2.27-10.248-3.404c-1.281-0.402-2.636-0.915-3.331-2.05c-0.293-0.512-0.439-1.098-0.586-1.684
		c-0.329-1.5-0.695-2.965-1.024-4.465c-0.293-1.208-0.55-2.453-0.33-3.697c0.22-1.208,1.062-2.416,2.307-2.636
		c0.512-0.109,1.062,0,1.61-0.109c0.731-0.11,1.354-0.586,2.05-0.806c0.22-0.073,0.476-0.109,0.731-0.109
		c0.366,0,0.732,0.109,0.988,0.329c-0.036-0.036-0.036-0.073-0.073-0.109l0.11,0.146l-0.037-0.037
		c0.988,1.684,2.892,2.636,4.759,3.295c1.903,0.658,3.953,1.171,5.563,2.379c1.245,0.915,2.16,2.159,3.038,3.404
		c0.988,1.391,2.014,3.001,1.794,4.685c-0.293,2.16-2.38,3.514-4.283,4.612c-0.402,0.22-0.842,0.476-1.28,0.549H408.854
		 M231.439,425.056c-0.293,0-0.622-0.036-0.915-0.073c-1.866-0.292-3.478-1.354-5.051-2.379c-1.245-0.842-2.526-1.684-3.331-2.928
		c-0.622-0.988-0.988-2.196-1.903-2.855c-1.099-0.806-2.599-0.622-3.917-0.915c-1.464-0.329-2.708-1.281-3.88-2.196
		c-0.402-0.329-0.842-0.659-1.062-1.135c-0.183-0.402-0.183-0.842-0.183-1.281v-2.232c0-0.549,0-1.171,0.293-1.647
		c0.366-0.622,1.062-0.951,1.72-1.171c1.245-0.402,2.562-0.622,3.844-0.622c1.244,0,2.452,0.183,3.624,0.549l0.146-0.146
		c1.573,0.806,3.403,0.659,5.16,0.732s3.697,0.512,4.649,2.013c0.476,0.769,0.622,1.757,1.207,2.452
		c1.574,1.977,5.418,0.879,6.699,3.075c0.292,0.476,0.365,1.062,0.402,1.61c0.146,2.343-0.513,4.795-2.087,6.589
		C235.503,424.067,233.489,425.056,231.439,425.056 M297.947,303.718c-2.05,0-4.063-0.073-6.076-0.146
		c-1.281-0.037-2.636-0.11-3.771-0.695c-0.951-0.513-1.72-1.354-2.562-2.014c-1.392-1.098-3.038-1.72-4.576-2.599
		c-2.708-1.537-4.941-3.88-6.368-6.625l2.159-1.135c3.221-2.159,7.027-3.478,10.871-3.771c0.549-0.036,1.135-0.073,1.684-0.073
		c6.039,0,11.933,2.27,17.606,4.503c3.696,1.464,8.052,3.807,8.016,7.76c0,0.365-0.036,0.695-0.22,1.024
		c-0.22,0.402-0.659,0.659-1.098,0.842C308.781,303.205,303.364,303.718,297.947,303.718 M257.867,265.284
		c-0.257,0.037-0.477,0.073-0.695,0.11c-10.835,1.646-21.486,3.807-31.955,6.479h-0.036c-0.037,0-0.073,0.036-0.11,0.036
		c-0.036,0-0.073,0-0.109,0.037h-0.037c-18.887,4.868-37.078,11.347-54.465,19.363h-0.036c-0.22,0.109-0.403,0.183-0.586,0.292
		h-0.036c0.549,0.146,1.024,0.513,1.28,1.208c1.135,2.965,0.146,6.405,1.428,9.37c0.622,1.428,1.903,2.746,3.404,2.746h0.146
		c0.988-0.037,1.866-0.659,2.745-1.208c4.868-3.111,10.651-4.686,16.435-4.686c4.539,0,9.077,0.988,13.177,2.965
		c-0.695,3.551,0.842,7.431,3.771,9.517c1.83,1.318,4.209,2.087,5.308,4.026c1.171,2.123,0.329,4.868-1.172,6.809
		c-1.5,1.903-3.587,3.331-5.234,5.124c-5.526,5.93-5.49,16.215,0.11,22.071c1.977,2.087,4.466,3.551,6.954,5.015
		c4.356,1.392,8.858,2.27,13.397,2.562c0.585,0.036,1.208,0.073,1.646,0.439c0.293,0.22,0.476,0.585,0.659,0.915
		c2.05,3.77,4.355,7.649,7.942,9.956c0.988,0.658,2.05,1.135,3.038,1.83c1.318,0.915,2.38,2.086,3.441,3.258
		c3.916,4.245,7.796,8.528,11.713,12.774c0.988,1.098,2.013,2.196,2.672,3.477c1.574,3.002,1.281,6.625,1.208,10.029
		c-0.073,4.1,0.256,8.236,0.988,12.263c0.109,0.585,0.22,1.171,0.183,1.793c-0.036,0.439-0.183,0.842-0.329,1.281
		c-1.025,2.452-3.697,4.026-6.333,4.026c-0.878,0-1.72-0.183-2.525-0.513c-1.135-0.513-2.123-1.354-3.074-2.159
		c-1.465-1.245-2.892-2.489-4.21-3.844c-1.903-2.013-3.514-4.319-5.783-5.856c-2.232-1.537-4.941-2.196-7.467-3.221
		c-3.807-1.537-7.247-3.844-10.103-6.771c-0.293-0.293-0.585-0.622-0.769-0.988c-0.22-0.439-0.256-0.952-0.256-1.428
		c-0.073-2.27,0.22-4.539-0.22-6.771c-0.329-1.647-1.025-3.147-1.83-4.648c-2.818,1.317-5.894,1.684-9.078,1.684
		c-2.891,0-5.819-0.293-8.674-0.476c-0.732-0.037-1.501-0.073-2.27-0.073c-5.71,0-11.713,1.281-14.788,5.93
		c-2.05,3.074-2.416,7.211-5.161,9.663c-2.086,1.866-4.941,2.27-7.833,2.27c-1.062,0-2.159-0.073-3.221-0.11
		c-2.27-0.109-4.575-0.183-6.882-0.183c-17.312,0-34.626,3.367-50.658,9.883c-2.013,0.805-4.062,1.757-5.344,3.478
		c-2.745,3.733-0.622,9.077-1.61,13.616c-1.062,4.904-5.967,8.345-10.944,8.857c-0.549,0.073-1.099,0.073-1.647,0.073
		c-4.429,0-8.784-1.794-12.518-4.209c-1.757-1.135-3.478-2.453-5.418-3.185c-1.903-0.732-3.916-0.879-5.93-1.062
		c-7.869-0.622-15.702-1.281-23.572-1.903c-1.684-0.146-3.403-0.257-5.088-0.257c-1.573,0-3.147,0.11-4.685,0.439
		c-3.771,0.842-7.102,2.965-10.651,4.502c-1.757,0.769-3.99,1.867-5.93,2.014h-0.22c-0.293,0-0.513-0.037-0.732-0.11v0.037
		c-0.073,0.109-0.146,0.293-0.22,0.402C11.64,448.189,5.271,462.647,0,477.545h514.051c-1.721-5.052-3.515-9.591-5.418-14.239
		c-1.939-4.722-3.989-9.443-6.148-14.056c0,0,0-0.036-0.037-0.036c-3.038-0.586-6.039-1.428-8.932-2.489
		c-1.464-0.549-3.001-2.525-1.61-3.221l0.146-0.476c0.915-2.38,2.416-4.466,4.356-6.113c-1.392-2.708-2.855-5.38-4.319-8.053v-0.109
		v0.109c-0.037,0.293-0.11,0.55-0.184,0.806c-0.476,1.208-1.83,1.83-2.599,2.892l0.037,0.073c-0.33,0.366-0.842,0.586-1.354,0.586
		c-0.146,0-0.293-0.037-0.439-0.073c-0.513-0.146-0.952-0.513-1.501-0.549H485.5c-0.109,0-0.22,0-0.329-0.037
		c-0.366-0.109-0.622-0.402-0.879-0.659c-0.329-0.365-0.659-0.769-0.805-1.244c-0.073-0.293-0.11-0.586-0.11-0.915
		c-0.036-0.915-0.073-1.83,0.146-2.672c0.22-0.879,0.769-1.721,1.574-2.087c0.439-0.183,0.915-0.256,1.391-0.256h0.513
		c0.951,0.037,1.94,0.146,2.854,0.329c-2.599-4.538-5.344-9.041-8.162-13.433c-1.757,0.073-3.551-0.11-5.088,0.695
		c-0.951,0.513-1.684,1.354-2.416,2.196c-4.318,4.978-9.517,9.883-16.068,10.578c-0.513,0.073-1.062,0.073-1.574,0.073
		c-5.966,0-11.566-3.478-16.324-7.247c-5.161-4.1-10.213-8.785-16.581-10.579c-2.818-0.769-5.747-0.951-8.712-0.951
		c-1.024,0-2.013,0.036-3.038,0.036c-1.024,0.037-2.013,0.037-3.038,0.037c-3.624,0-7.138-0.257-10.469-1.574
		c-2.599-1.024-4.868-2.672-7.063-4.393c-9.114-7.101-17.533-17.13-16.911-28.659c0.146-2.819,1.025-5.894,3.404-7.504
		c1.428-0.952,3.185-1.245,4.868-1.464c3.587-0.439,7.211-0.659,10.835-0.659c2.195,0,4.392,0.073,6.588,0.256
		c0.659,0.037,1.354,0.11,2.05,0.11c1.317,0,2.599-0.184,3.624-0.952c1.244-0.915,1.83-2.488,2.928-3.587
		c4.43-4.429,14.385,0.256,17.131-5.381c0.585-1.244,0.585-2.708,0.585-4.1c0-0.842-0.036-1.72-0.036-2.562
		c-6.662-6.04-13.58-11.823-20.718-17.313c-3.147-2.416-6.332-4.759-9.553-7.064c-1.135-0.586-2.233-1.171-3.331-1.83
		c-0.037,0-0.037-0.036-0.073-0.036c-0.22-0.146-0.439-0.293-0.695-0.403c-0.146-0.109-0.33-0.22-0.476-0.293
		c-0.11-0.073-0.184-0.109-0.293-0.183l-1.318-0.879l-0.329-0.219l-0.879-0.659c-1.062-0.806-2.122-1.684-3.11-2.599
		c-14.532-9.517-29.868-17.899-45.9-25c-14.056-6.259-28.66-11.53-43.667-15.739h-0.037c-0.036,0-0.036,0-0.073-0.036h-1.062
		c-7.32,0-15.886,2.159-15.886,2.159c-1.391,0.256-2.781,0.366-4.172,0.366c-5.052,0-10.14-1.574-14.239-4.539
		c-1.171-0.842-2.27-1.83-2.781-3.147c-0.33-0.842-0.403-1.757-0.22-2.636c0.036-0.183,0.073-0.329,0.146-0.476
		c-0.22-0.037-0.439-0.073-0.695-0.11C257.391,265.357,257.647,265.321,257.867,265.284"/>
	<path id="XMLID_219_" fill="#097261" d="M257.867,265.504c-0.073,0.11-0.11,0.257-0.146,0.476c-0.184,0.879-0.11,1.794,0.22,2.636
		c0.512,1.317,1.646,2.306,2.781,3.148c4.1,2.965,9.188,4.538,14.238,4.538c1.392,0,2.819-0.109,4.173-0.366
		c0,0,8.565-2.159,15.886-2.159h1.062c-11.969-3.294-24.194-6.039-36.676-8.016C258.929,265.688,258.379,265.614,257.867,265.504
		C257.867,265.541,257.867,265.504,257.867,265.504"/>
	<path id="XMLID_220_" fill="#097261" d="M289.309,286.697c-0.549,0-1.135,0.036-1.684,0.073c-3.88,0.293-7.65,1.61-10.871,3.77
		l-2.159,1.135c1.427,2.745,3.66,5.088,6.368,6.625c1.538,0.879,3.185,1.501,4.576,2.6c0.842,0.658,1.61,1.5,2.562,2.013
		c1.135,0.586,2.489,0.659,3.771,0.695c2.013,0.073,4.062,0.146,6.076,0.146c5.453,0,10.834-0.513,15.666-2.892
		c0.439-0.22,0.878-0.439,1.098-0.842c0.184-0.293,0.22-0.659,0.22-1.024c0.037-3.99-4.319-6.333-8.016-7.76
		C301.241,288.967,295.349,286.697,289.309,286.697"/>
	<path id="XMLID_221_" fill="#097261" d="M294.323,461.622h-0.109c-7.431,0.037-14.897,0.073-22.328,0.073
		c-1.83,0-3.771,0.037-5.454,0.806c-1.354,0.622-2.416,1.646-3.587,2.562c-5.527,4.319-12.628,5.527-19.766,5.527
		c-2.452,0-4.941-0.146-7.32-0.329c-1.135-0.11-2.306-0.184-3.44-0.184c-1.684,0-3.295,0.22-4.759,0.952
		c-2.343,1.171-3.88,4.282-2.672,6.479h68.008c2.014-0.842,3.733-2.05,4.648-4.026c1.465-3.074,0.477-6.698-0.549-9.919
		c-0.183-0.55-0.366-1.135-0.805-1.501C295.678,461.659,294.982,461.622,294.323,461.622"/>
	<path id="XMLID_222_" fill="#097261" d="M399.483,436.146c0.036,0.037,0.036,0.073,0.073,0.11l0.036,0.036L399.483,436.146"/>
	<path id="XMLID_223_" fill="#097261" d="M399.63,436.33l0.183,0.256C399.739,436.477,399.703,436.366,399.63,436.33"/>
	<path id="XMLID_224_" fill="#097261" d="M398.568,435.927c-0.256,0-0.513,0.037-0.732,0.11c-0.695,0.22-1.317,0.695-2.05,0.805
		c-0.512,0.11-1.062,0-1.61,0.11c-1.208,0.22-2.086,1.428-2.306,2.635c-0.22,1.208,0.073,2.489,0.329,3.697
		c0.33,1.501,0.695,2.965,1.025,4.466c0.146,0.585,0.256,1.171,0.585,1.684c0.696,1.135,2.05,1.647,3.331,2.05
		c3.404,1.135,6.845,2.27,10.249,3.404c0.476,0.146,0.951,0.292,1.428,0.292c0.109,0,0.22,0,0.293-0.036
		c0.476-0.073,0.878-0.293,1.28-0.549c1.903-1.062,3.99-2.452,4.283-4.612c0.22-1.721-0.806-3.294-1.794-4.685
		c-0.878-1.245-1.794-2.526-3.038-3.404c-1.646-1.208-3.66-1.684-5.563-2.38c-1.866-0.658-3.771-1.61-4.759-3.294
		C399.301,436.037,398.935,435.927,398.568,435.927"/>
	<path id="XMLID_225_" fill="#097261" d="M383.231,450.385c-0.183,0-0.402,0.037-0.585,0.073c-0.77,0.184-1.428,1.025-1.135,1.757
		c0.219,0.55,0.805,0.806,1.208,1.245c0.512,0.586,0.585,1.464,1.024,2.086c0.439,0.659,1.244,1.062,2.086,1.062h0.11
		c0.842-0.036,1.647-0.476,2.196-1.098c0.293-0.33,0.586-0.769,0.513-1.245c-0.037-0.256-0.146-0.476-0.293-0.695
		c-0.513-0.805-2.087-2.452-2.087-2.452c-0.439-0.146-0.842-0.293-1.281-0.402C384.366,450.568,383.78,450.385,383.231,450.385"/>
	<path id="XMLID_226_" fill="#097261" d="M439.674,454.484H439.6c-1.171,0-2.306,0-3.477,0.037c0,0-0.915,0.22-1.135,0.658
		c-0.11-0.036-0.256-0.072-0.366-0.072c-0.402,0-0.806,0.219-1.098,0.512c-0.366,0.403-0.477,0.988-0.439,1.537
		c0.109,1.281,1.062,2.38,2.232,2.893c0.695,0.329,1.464,0.438,2.233,0.438c0.512,0,1.024-0.036,1.5-0.146
		c0.732-0.146,1.537-0.402,1.903-1.062c0.22-0.438,0.22-0.915,0.184-1.391c0-0.549-0.037-1.098-0.037-1.647
		c-0.036-0.585-0.109-1.28-0.622-1.573C440.223,454.521,439.966,454.484,439.674,454.484"/>
	<path id="XMLID_229_" fill="#097261" d="M426.569,346.067c0,0.842,0.037,1.72,0.037,2.562c0,1.392,0.036,2.818-0.586,4.1
		c-2.745,5.637-12.701,0.915-17.13,5.381c-1.099,1.098-1.684,2.636-2.929,3.587c-1.024,0.769-2.306,0.952-3.624,0.952
		c-0.695,0-1.391-0.037-2.049-0.11c-2.196-0.183-4.393-0.256-6.589-0.256c-3.624,0-7.247,0.22-10.835,0.659
		c-1.72,0.219-3.44,0.512-4.868,1.464c-2.342,1.573-3.221,4.648-3.403,7.503c-0.623,11.53,7.833,21.56,16.91,28.66
		c2.196,1.721,4.502,3.368,7.064,4.393c3.331,1.317,6.881,1.574,10.469,1.574c1.024,0,2.013-0.037,3.037-0.037
		c1.025-0.036,2.014-0.036,3.039-0.036c2.964,0,5.893,0.146,8.711,0.951c6.369,1.757,11.384,6.479,16.581,10.578
		c4.759,3.771,10.358,7.248,16.325,7.248c0.512,0,1.062-0.037,1.574-0.073c6.552-0.695,11.749-5.601,16.068-10.578
		c0.695-0.806,1.428-1.684,2.416-2.196c1.537-0.806,3.33-0.622,5.088-0.695c-1.977-3.075-3.953-6.076-6.04-9.078
		C461.672,381.864,445.127,362.904,426.569,346.067 M385.83,314.552c0.988,0.915,2.05,1.794,3.111,2.599
		c-0.329-0.256-0.622-0.476-0.951-0.731c-0.622-0.477-1.208-0.988-1.794-1.538C386.087,314.771,385.94,314.662,385.83,314.552"/>
	<path id="XMLID_230_" fill="#097261" d="M53.074,437.501c-1.208,0-2.818,1.281-2.818,1.281c-1.354,2.196,1.098,6.039,2.562,8.455
		c1.464,2.452,2.05,5.966-0.073,7.87c-1.062,0.951-2.818,1.977-2.196,3.257c0.146,0.293,0.403,0.513,0.659,0.732
		c4.429,3.624,8.895,7.247,13.323,10.871c0.879,0.695,1.757,1.428,2.818,1.794c0.806,0.292,1.684,0.365,2.562,0.365
		c0.513,0,1.024-0.036,1.537-0.036c0.732-0.037,1.501-0.037,2.233-0.037c2.415,0,4.831,0.146,7.247,0.439
		c0.731,0.073,1.464,0.184,2.086,0.622c1.281,0.879,1.392,2.636,1.903,4.1c0.037,0.11,0.073,0.22,0.11,0.293h33.382
		c-1.757-1.684-3.367-3.44-4.173-5.673c-0.329-0.879-0.513-1.758-0.806-2.636c-1.428-4.173-5.563-7.65-5.124-12.043
		c-5.015-3.33-11.384-3.514-17.203-5.087c-5.783-1.574-11.128-4.612-15.41-8.785c-0.769-0.769-1.537-1.537-2.525-1.977
		c-0.769-0.366-1.647-0.439-2.525-0.476c-0.439-0.037-0.879-0.037-1.354-0.037c-0.879,0-1.721,0.037-2.599,0.073
		c-0.879,0.037-1.721,0.073-2.6,0.073c-2.635,0-5.197-0.256-7.43-1.573c-1.062-0.623-2.05-1.501-3.258-1.757
		C53.293,437.501,53.184,437.501,53.074,437.501"/>
	<path id="XMLID_231_" fill="#097261" d="M132.758,462.574c-2.159,0-4.282,0.293-6.368,0.878c0.658,2.453,0.658,5.198,1.939,7.394
		c1.391,2.38,5.015,4.941,8.785,6.735h47.474c-1.83-1.977-2.818-4.831-4.979-6.479c-1.207-0.915-2.672-1.428-4.136-1.83
		c-4.722-1.354-9.626-2.014-14.495-2.014c-1.024,0-2.013,0.037-3.037,0.073c-1.867,0.11-3.771,0.293-5.638,0.293
		c-1.757,0-3.44-0.183-5.087-0.769c-1.354-0.476-2.6-1.244-3.881-1.866C140.042,463.379,136.419,462.574,132.758,462.574"/>
	<path id="XMLID_232_" fill="#097261" d="M157.904,453.387c-1.428,0-2.818,0.109-4.246,0.256c-0.549,0.037-1.098,0.11-1.573,0.366
		c-1.135,0.695-1.135,2.489-0.293,3.551s2.159,1.537,3.44,1.977c1.025,0.366,2.014,0.695,3.038,1.062
		c0.988,0.109,1.977,0.512,2.892,1.024c0.586,0.33,1.208,0.732,1.83,0.732c0.22,0,0.402-0.037,0.586-0.146
		c0.805-0.439,0.842-1.61,1.428-2.343c0.695-0.878,2.195-1.281,2.159-2.379c0-0.476-0.329-0.879-0.659-1.172
		c-1.61-1.573-3.843-2.415-6.076-2.708C159.588,453.423,158.746,453.387,157.904,453.387"/>
	<path id="XMLID_233_" fill="#097261" d="M201.06,449.873c-3.222,0-6.479,1.062-9.518,2.27c-4.136,1.646-8.271,3.587-12.701,3.587
		h-0.109c-0.402,0-0.806-0.037-1.208-0.037c-0.695,0-1.391,0.037-2.013,0.33c-1.94,0.842-2.562,4.245-0.732,5.271
		c1.647,0.951,5.088,1.866,7.32,2.159c0.806,0.11,1.647,0.11,2.452,0.366c0.806,0.256,1.501,0.806,2.233,1.244
		c1.83,1.099,3.916,1.794,6.039,1.977h0.33c0.329,0,0.658-0.072,0.878-0.256c0.366-0.329,0.366-0.915,0.439-1.391
		c0.402-2.489,3.404-3.514,5.893-3.99c2.636-0.549,5.308-1.062,7.943-1.61c2.05-0.402,4.611-1.464,4.465-3.551
		c-0.109-1.317-1.354-2.232-2.452-2.964c-1.83-1.172-3.696-2.343-5.783-2.929C203.401,449.982,202.23,449.873,201.06,449.873"/>
	<path id="XMLID_234_" fill="#097261" d="M169.251,291.565c-1.024,0-2.232,0.513-3.403,1.024c-0.916,0.403-1.794,0.806-2.453,0.952
		c-2.27,0.513-4.722,0.769-6.991,1.428c-0.292,0.073-0.585,0.183-0.878,0.292c-1.281,0.439-2.489,1.062-3.514,1.977
		c-0.33,0.293-0.659,0.623-0.952,0.988c-0.439,0.477-0.878,0.988-1.354,1.465c-1.977,1.939-4.648,3.001-7.211,4.136
		c-0.438,0.184-0.878,0.366-1.317,0.586c-3.66,1.647-7.027,3.843-10.322,6.149c-0.183,0.146-0.402,0.293-0.585,0.438
		c-1.537,1.099-3.038,2.196-4.575,3.331c-0.915,0.695-1.867,1.392-2.819,2.05c-1.061,0.769-2.086,1.537-3.147,2.307
		c-0.842,0.622-1.684,1.244-2.489,1.866c-0.256,0.184-0.476,0.366-0.731,0.549c-5.783,4.246-11.566,8.528-17.35,12.812
		c-0.037,0.036-0.11,0.073-0.146,0.109c-0.184,0.11-0.33,0.257-0.513,0.366c-3.111,2.306-5.674,5.124-8.528,7.687
		c-0.586,0.513-1.172,1.025-1.794,1.537c-0.293,0.257-0.586,0.477-0.878,0.732c-1.208,0.952-2.453,1.903-3.661,2.892
		c-0.731,0.586-1.427,1.171-2.122,1.794c-2.233,2.013-4.026,4.429-5.71,6.918c-0.988,1.427-2.087,2.672-3.222,3.807
		c-0.915,0.915-1.903,1.757-2.892,2.635c-1.208,1.062-2.452,2.087-3.697,3.222c-0.256,0.22-0.512,0.476-0.769,0.695
		c-1.098,1.024-2.196,2.086-3.294,3.147c-0.183,0.184-0.366,0.366-0.549,0.513c-1.757,1.721-3.551,3.44-5.308,5.161
		c-0.622,0.585-1.244,1.208-1.721,1.903c-0.329,0.439-0.585,0.951-0.842,1.428c-0.073,0.146-0.146,0.256-0.22,0.402
		c-0.183,0.293-0.365,0.622-0.549,0.915c-1.903,3.074-4.393,5.856-6.515,8.784c-1.281,1.794-2.6,3.551-3.88,5.345
		c-0.293,0.402-0.55,0.769-0.842,1.171c-0.146,0.22-0.293,0.439-0.477,0.622c-0.366,0.513-0.769,1.025-1.135,1.538
		c-0.146,0.219-0.329,0.438-0.476,0.658c-0.183,0.257-0.402,0.549-0.586,0.806c-1.573,2.196-3.147,4.355-4.758,6.552
		c-2.452,3.367-4.868,6.698-7.32,10.065c-0.988,1.354-1.977,2.709-2.892,4.1c-1.245,1.867-2.416,3.917-2.489,6.149
		c-0.037,0.586,0.036,1.208,0,1.794c-0.037,0.293-0.073,0.549-0.146,0.805c-0.037,0.073-0.073,0.184-0.11,0.257
		c-0.365,0.915-1.135,1.61-1.72,2.415c0,0.037-0.037,0.037-0.037,0.073c-0.402,0.586-0.658,1.245-0.658,1.794v0.183
		c0,0.037,0,0.073,0.036,0.11v0.073c0,0.073,0.037,0.109,0.037,0.146c0,0.036,0.036,0.073,0.036,0.109c0,0,0,0.037,0.037,0.037
		c0.036,0.036,0.036,0.073,0.073,0.109l0.036,0.037l0.073,0.073c0.073,0.072,0.183,0.146,0.329,0.219
		c0.184,0.073,0.439,0.11,0.732,0.11h0.22c1.939-0.146,4.173-1.245,5.93-2.014c3.551-1.537,6.881-3.66,10.651-4.502
		c1.537-0.329,3.111-0.439,4.685-0.439c1.685,0,3.404,0.146,5.088,0.257c7.87,0.622,15.703,1.281,23.572,1.903
		c2.014,0.146,4.063,0.329,5.93,1.062c1.977,0.731,3.66,2.05,5.418,3.185c3.733,2.415,8.089,4.209,12.518,4.209
		c0.549,0,1.099-0.036,1.647-0.073c4.978-0.513,9.883-3.953,10.944-8.857c0.988-4.539-1.135-9.883,1.61-13.617
		c1.281-1.72,3.367-2.672,5.344-3.477c16.032-6.516,33.346-9.883,50.658-9.883c2.307,0,4.576,0.073,6.882,0.183
		c1.062,0.037,2.123,0.11,3.221,0.11c2.892,0,5.747-0.403,7.833-2.27c2.745-2.452,3.111-6.589,5.161-9.663
		c3.075-4.648,9.078-5.93,14.788-5.93c0.769,0,1.537,0.036,2.269,0.073c2.855,0.146,5.82,0.476,8.676,0.476
		c3.147,0,6.259-0.366,9.077-1.684c0.806,1.464,1.501,3.001,1.83,4.648c0.439,2.232,0.146,4.502,0.22,6.771
		c0,0.476,0.036,0.988,0.256,1.428c0.184,0.366,0.477,0.695,0.769,0.988c2.855,2.928,6.296,5.271,10.103,6.771
		c2.525,1.024,5.234,1.684,7.467,3.221c2.27,1.574,3.88,3.88,5.783,5.856c1.318,1.391,2.782,2.636,4.21,3.844
		c0.951,0.805,1.939,1.646,3.074,2.159c0.806,0.366,1.647,0.513,2.525,0.513c2.636,0,5.308-1.574,6.333-4.026
		c0.183-0.402,0.293-0.842,0.329-1.281c0.073-0.586-0.073-1.208-0.183-1.793c-0.769-4.026-1.099-8.163-0.988-12.263
		c0.073-3.404,0.402-6.991-1.208-10.029c-0.695-1.28-1.684-2.415-2.672-3.477c-3.917-4.246-7.833-8.529-11.713-12.774
		c-1.062-1.172-2.16-2.343-3.441-3.258c-0.988-0.695-2.05-1.172-3.038-1.83c-3.623-2.343-5.893-6.187-7.942-9.956
		c-0.183-0.33-0.366-0.695-0.659-0.915c-0.439-0.366-1.062-0.403-1.646-0.439c-4.539-0.293-9.078-1.135-13.397-2.562
		c-2.525-1.428-4.978-2.928-6.954-5.015c-5.601-5.856-5.674-16.178-0.109-22.071c1.646-1.793,3.733-3.185,5.233-5.124
		c1.501-1.94,2.343-4.686,1.172-6.809c-1.099-1.977-3.478-2.745-5.308-4.026c-2.928-2.123-4.466-5.966-3.771-9.517
		c-4.099-1.977-8.638-2.965-13.177-2.965c-5.783,0-11.566,1.574-16.435,4.686c-0.842,0.549-1.721,1.135-2.745,1.208h-0.146
		c-1.537,0-2.818-1.318-3.404-2.746c-1.281-3.001-0.293-6.405-1.428-9.37c-0.256-0.731-0.731-1.062-1.281-1.208
		c-0.036,0-0.072,0-0.109-0.036H169.251"/>
	<path id="XMLID_235_" fill="#097261" d="M217.055,405.656c-1.317,0-2.599,0.22-3.844,0.622c-0.695,0.22-1.391,0.55-1.72,1.172
		c-0.257,0.476-0.293,1.098-0.293,1.647v2.232c0,0.439,0,0.878,0.183,1.281c0.22,0.476,0.623,0.805,1.062,1.135
		c1.172,0.915,2.416,1.866,3.88,2.195c1.318,0.293,2.818,0.11,3.917,0.916c0.951,0.695,1.281,1.903,1.903,2.854
		c0.805,1.244,2.086,2.123,3.331,2.929c1.573,1.024,3.185,2.122,5.051,2.379c0.293,0.036,0.622,0.073,0.915,0.073
		c2.05,0,4.062-0.988,5.417-2.562c1.538-1.793,2.233-4.246,2.087-6.589c-0.037-0.549-0.11-1.134-0.402-1.61
		c-1.281-2.196-5.088-1.098-6.699-3.074c-0.585-0.695-0.695-1.684-1.207-2.452c-0.916-1.501-2.893-1.94-4.649-2.014
		s-3.587,0.073-5.161-0.732l-0.146,0.146C219.544,405.84,218.299,405.656,217.055,405.656"/>
	<path id="XMLID_236_" fill="#097261" d="M486.708,424.727c-0.476,0-0.952,0.036-1.391,0.256c-0.806,0.366-1.354,1.208-1.574,2.087
		c-0.22,0.878-0.183,1.793-0.146,2.672c0,0.293,0.036,0.622,0.11,0.915c0.146,0.476,0.476,0.879,0.805,1.244
		c0.256,0.293,0.513,0.586,0.879,0.659c0.109,0.036,0.219,0.036,0.329,0.036h0.549c0.549,0.073,0.988,0.439,1.501,0.55
		c0.146,0.036,0.293,0.073,0.439,0.073c0.512,0,1.024-0.22,1.354-0.586l-0.036-0.073c0.769-1.062,2.086-1.684,2.599-2.892
		c0.109-0.256,0.184-0.549,0.184-0.806c-0.696-1.28-1.428-2.525-2.16-3.807c-0.951-0.183-1.903-0.256-2.855-0.329H486.708"/>
	<path id="XMLID_237_" fill="#097261" d="M496.555,436.879c-1.904,1.646-3.441,3.77-4.356,6.112l-0.146,0.476
		c-1.391,0.696,0.184,2.709,1.61,3.222c2.893,1.062,5.894,1.903,8.932,2.489C500.69,445.041,498.677,440.941,496.555,436.879"/>
	<path id="XMLID_246_" fill="#37978F" d="M492.235,428.716v0.11c1.464,2.672,2.928,5.344,4.319,8.053
		c-1.392-2.709-2.855-5.381-4.319-8.053V428.716 M481.986,411.623L481.986,411.623c2.781,4.392,5.49,8.895,8.126,13.433
		c0.549,0.11,1.062,0.22,1.573,0.33c0.184,0.036,0.403,0.109,0.477,0.256c-0.11-0.146-0.293-0.22-0.477-0.256
		c-0.183-0.037-0.365-0.11-0.549-0.146l-0.549-0.11c-0.146-0.036-0.329-0.073-0.476-0.109
		C487.514,420.48,484.805,415.979,481.986,411.623 M393.005,319.859c1.062,0.659,2.196,1.244,3.331,1.83l0.438,0.22
		c-0.036,0-0.073-0.037-0.073-0.037c-0.109-0.073-0.256-0.109-0.365-0.183c-0.037,0-0.073-0.036-0.073-0.036
		c-0.037,0-0.037-0.037-0.073-0.037c-0.037-0.036-0.11-0.036-0.146-0.073c-0.037-0.036-0.11-0.036-0.146-0.073
		c-0.037-0.036-0.073-0.036-0.146-0.073c-0.366-0.183-0.769-0.402-1.135-0.622c-0.11-0.073-0.184-0.109-0.293-0.183
		c-0.329-0.184-0.622-0.366-0.951-0.55c-0.037-0.036-0.073-0.036-0.11-0.073C393.188,319.969,393.114,319.933,393.005,319.859
		C393.041,319.896,393.041,319.896,393.005,319.859C393.041,319.896,393.041,319.896,393.005,319.859 M392.236,319.42
		c0.219,0.146,0.438,0.293,0.695,0.402C392.712,319.677,392.492,319.53,392.236,319.42 M391.76,319.091
		c0.146,0.109,0.33,0.22,0.477,0.293c-0.037-0.037-0.11-0.073-0.146-0.11c0,0-0.037,0-0.037-0.036
		c-0.036-0.037-0.073-0.037-0.109-0.073c-0.037,0-0.037-0.037-0.073-0.037C391.833,319.127,391.797,319.127,391.76,319.091
		 M390.149,318.029l1.318,0.878c-0.037,0-0.037-0.036-0.073-0.036c-0.037-0.037-0.11-0.073-0.146-0.109
		c-0.11-0.073-0.184-0.146-0.293-0.184c-0.11-0.073-0.257-0.183-0.366-0.256c-0.036-0.037-0.073-0.073-0.146-0.11
		C390.369,318.176,390.26,318.103,390.149,318.029C390.187,318.029,390.149,318.029,390.149,318.029 M257.867,265.284
		c-0.257,0.037-0.477,0.073-0.732,0.11c0.22,0.036,0.439,0.073,0.695,0.109c0.037-0.073,0.073-0.109,0.11-0.183
		C257.94,265.321,257.903,265.321,257.867,265.284C257.903,265.321,257.903,265.284,257.867,265.284"/>
	<path id="XMLID_247_" fill="#3D836B" d="M257.94,265.357c-0.037,0.037-0.073,0.11-0.11,0.184c0.037-0.037,0.037-0.073,0.073-0.11
		l0.073-0.036L257.94,265.357C257.977,265.357,257.977,265.357,257.94,265.357C257.977,265.357,257.977,265.357,257.94,265.357"/>
	<path id="XMLID_260_" fill="#3D836B" d="M426.569,346.067c18.521,16.837,35.103,35.797,49.341,56.478
		c2.05,2.965,4.062,6.003,6.039,9.078h0.037c0-0.037-0.037-0.037-0.037-0.073l0.037-0.073h-0.037
		c-1.939-2.929-3.953-6.003-6.039-8.968C461.672,381.791,445.127,362.904,426.569,346.067 M396.336,321.689
		c0.109,0.073,0.256,0.109,0.365,0.183C396.555,321.836,396.445,321.763,396.336,321.689 M396.006,321.543
		c0.037,0.037,0.11,0.037,0.146,0.073C396.116,321.616,396.079,321.58,396.006,321.543 M394.615,320.811
		c0.366,0.22,0.769,0.403,1.135,0.623c-0.256-0.146-0.513-0.257-0.769-0.403C394.871,320.921,394.725,320.848,394.615,320.811
		 M393.371,320.079c0.292,0.183,0.622,0.366,0.951,0.549c-0.073-0.036-0.146-0.073-0.22-0.146c-0.22-0.109-0.402-0.22-0.622-0.366
		C393.444,320.115,393.407,320.115,393.371,320.079 M393.041,319.896l0.22,0.11h-0.036l-0.037-0.037
		C393.151,319.969,393.114,319.933,393.041,319.896 M392.053,319.273C392.053,319.273,392.09,319.311,392.053,319.273
		C392.09,319.311,392.053,319.273,392.053,319.273 M391.833,319.164c0.037,0,0.037,0.036,0.073,0.036
		C391.906,319.2,391.906,319.164,391.833,319.164C391.87,319.164,391.87,319.164,391.833,319.164 M391.248,318.762
		c0.036,0.036,0.109,0.072,0.146,0.109l-0.037-0.037C391.321,318.798,391.284,318.798,391.248,318.762 M390.589,318.322
		c0.109,0.073,0.256,0.183,0.366,0.256c-0.073-0.036-0.146-0.109-0.22-0.146C390.698,318.396,390.625,318.358,390.589,318.322
		 M390.187,318.029c0.109,0.073,0.183,0.146,0.293,0.183c-0.037-0.036-0.11-0.073-0.146-0.109
		C390.26,318.103,390.223,318.065,390.187,318.029 M386.196,314.882c0.586,0.512,1.208,1.024,1.794,1.537
		c-0.293-0.257-0.622-0.477-0.915-0.732l-0.769-0.659C386.27,314.954,386.233,314.918,386.196,314.882"/>
	<path id="XMLID_261_" fill="#008B89" d="M296.227,273.812C296.264,273.812,296.227,273.812,296.227,273.812"/>
	<path id="XMLID_262_" fill="#37978F" d="M296.227,273.812C296.227,273.812,296.264,273.812,296.227,273.812"/>
	<path id="XMLID_265_" fill="#37978F" d="M492.271,427.728C492.271,427.765,492.271,427.765,492.271,427.728
		C492.271,427.765,492.271,427.765,492.271,427.728 M492.162,425.642c0.036,0.073,0.073,0.146,0.073,0.22
		C492.235,425.788,492.198,425.715,492.162,425.642"/>
	<path id="XMLID_266_" fill="#3D836B" d="M490.075,425.056c0.732,1.245,1.428,2.526,2.16,3.807v-1.098c0-0.586,0-1.135-0.037-1.684
		v-0.184c0-0.073-0.036-0.146-0.073-0.219c-0.109-0.146-0.293-0.22-0.476-0.257C491.174,425.239,490.625,425.129,490.075,425.056"/>
	<path id="XMLID_269_" fill="#3D836B" d="M496.737,436.732c-0.073,0.036-0.11,0.073-0.183,0.146
		C496.627,436.842,496.664,436.806,496.737,436.732"/>
</g>
</svg>
