<?xml version="1.0" encoding="utf-8"?>
<!-- Generator: Adobe Illustrator 19.0.0, SVG Export Plug-In . SVG Version: 6.00 Build 0)  -->
<svg version="1.1" id="Layer_1" xmlns="http://www.w3.org/2000/svg" xmlns:xlink="http://www.w3.org/1999/xlink" x="0px" y="0px"
	 viewBox="356 -16.8 1672 592.8" style="enable-background:new 356 -16.8 1672 592.8;" xml:space="preserve">
<style type="text/css">
	.st0{fill:#00B8AC;}
	.st1{fill:#0C977A;}
	.st2{fill:#FBEBC8;}
	.st3{fill:#49C8B3;}
	.st4{fill:#51AE86;}
	.st5{fill:#C0C0CB;}
	.st6{fill:#008B89;}
	.st7{fill:#097261;}
	.st8{fill:#37978F;}
	.st9{fill:#3D836B;}
</style>
<g id="XMLID_105_">
	<path id="XMLID_107_" class="st0" d="M2028,575.5H356.2c14.6-41,32.1-80.5,52.3-118.5c91-171.1,236.5-308.9,413.2-390.2
		C897.5,31.9,977.9,8,1060.5-4.3c42.9-6.4,86.9-9.7,131.6-9.7c47.6,0,94.2,3.7,139.7,10.9c77,12.2,150.8,34.3,219.8,65
		c150.6,66.8,279.1,174.4,371.6,308.7C1966.5,433.6,2001.9,502.3,2028,575.5"/>
	<path id="XMLID_108_" class="st1" d="M1331-3.2c-0.3,1.4-4.2,2.1-5.4,2.5c-5.2,1.6-10.5,2.5-15.9,2.9c-7,0.4-14.2-0.2-20.9,1.9
		c-15.9,4.9-24.2,22.9-39.2,30c-22.5,10.7-47.5-6.5-71.5-13.3c-20.3-5.7-59.3,4.2-59.3,4.2c-17.4,3.1-36-1.1-50.4-11.4
		c-3.2-2.3-6.2-5-7.6-8.6c-0.9-2.3-1.1-4.8-0.6-7.2c0.5-2.5,1.5-2.5,3.9-2.9c5.4-0.9,10.9-1.8,16.3-2.8c5.3-0.9,10.6-1.6,16-2.2
		c1.8-0.2,3.4,0,5.3,0.1c1.5,0,1.6-0.4,3-0.8c1.2-0.3,2.5,0,3.7,0.1c1.8,0.2,3.9,0.5,5.7,0.3c2.1-0.3,4.2-1.3,6.2-1.8
		c5.3-1.5,11-1.7,16.5-1.9c17-0.7,33.9-0.9,50.8-1.8c1.3-0.1,2.6-0.1,3.9-0.2c6.2-0.3,12.4-0.7,18.6,0.2c4.6,0.6,9.1,1.5,13.7,1.5
		h30.9c10,0,19.9,1.6,29.7,3.2c2.2,0.4,4.4,0.7,6.6,1.3c1.6,0.4,3.1,0.9,4.7,1.2c2.7,0.5,5.4,0.2,8.2,0.2c7-0.1,13.9,1.2,20.8,2.6
		c1.5,0.3,5.9,0.7,6.5,2.5C1331-3.6,1331-3.4,1331-3.2"/>
	<path id="XMLID_109_" class="st1" d="M1194.5,66.4c-16.9-6.7-34.6-13.4-52.8-12.1c-10.6,0.8-20.9,4.4-29.7,10.3l-5.9,3.1
		c3.9,7.5,10,13.9,17.4,18.1c4.2,2.4,8.7,4.1,12.5,7.1c2.3,1.8,4.4,4.1,7,5.5c3.1,1.6,6.8,1.8,10.3,1.9c20.2,0.8,41.3,1.4,59.5-7.5
		c1.2-0.6,2.4-1.2,3-2.3c0.5-0.8,0.6-1.8,0.6-2.8C1216.5,76.8,1204.6,70.4,1194.5,66.4"/>
	<path id="XMLID_110_" class="st1" d="M1168.9,564.5c-2.6,5.3-7.2,8.7-12.7,11H970.3c-3.2-6,0.9-14.5,7.3-17.7
		c6.8-3.4,14.9-2.7,22.4-2.1c25.7,2.2,53.8,1.7,74-14.2c3.2-2.5,6.1-5.3,9.8-7c4.6-2.1,9.8-2.2,14.9-2.2c20.4-0.1,40.7-0.2,61-0.2
		c1.9,0,3.9,0,5.4,1.2c1.2,1,1.7,2.6,2.2,4.1C1170.2,546.3,1172.9,556.2,1168.9,564.5"/>
	<path id="XMLID_111_" class="st1" d="M1447.4,462.5c0.1,0.1,0.1,0.2,0.2,0.3l0.1,0.1L1447.4,462.5"/>
	<path id="XMLID_112_" class="st1" d="M1447.8,463l0.5,0.7C1448.1,463.4,1448,463.1,1447.8,463"/>
	<path id="XMLID_113_" class="st1" d="M1475.9,478.3c-4.5-3.3-10-4.6-15.2-6.5c-5.1-1.8-10.3-4.4-13-9c-1.2-1-3.2-1.1-4.7-0.6
		c-1.9,0.6-3.6,1.9-5.6,2.2c-1.4,0.3-2.9,0-4.4,0.3c-3.3,0.6-5.7,3.9-6.3,7.2c-0.6,3.3,0.2,6.8,0.9,10.1c0.9,4.1,1.9,8.1,2.8,12.2
		c0.4,1.6,0.7,3.2,1.6,4.6c1.9,3.1,5.6,4.5,9.1,5.6c9.3,3.1,18.7,6.2,28,9.3c1.5,0.5,3.1,1,4.8,0.8c1.3-0.2,2.4-0.8,3.5-1.5
		c5.2-2.9,10.9-6.7,11.7-12.6c0.6-4.7-2.2-9-4.9-12.8C1481.8,484.3,1479.2,480.8,1475.9,478.3"/>
	<path id="XMLID_114_" class="st1" d="M1416.8,510.2c-1.4-2.2-5.7-6.7-5.7-6.7c-1.2-0.4-2.3-0.8-3.5-1.1c-2-0.7-4.2-1.3-6.3-0.8
		c-2.1,0.5-3.9,2.8-3.1,4.8c0.6,1.5,2.2,2.2,3.3,3.4c1.4,1.6,1.6,4,2.8,5.7c1.3,1.9,3.6,3,5.9,2.9s4.5-1.3,6-3
		c0.8-0.9,1.6-2.1,1.4-3.4C1417.6,511.4,1417.2,510.8,1416.8,510.2"/>
	<path id="XMLID_115_" class="st1" d="M1561,517.3c-0.1-1.6-0.3-3.5-1.7-4.3c-0.7-0.4-1.6-0.4-2.5-0.4c-3.2,0-6.3,0-9.5,0.1
		c0,0-2.5,0.6-3.1,1.8c-1.4-0.5-3,0.1-4,1.3c-1,1.1-1.3,2.7-1.2,4.2c0.3,3.5,2.9,6.5,6.1,7.9s6.8,1.4,10.3,0.8
		c2-0.4,4.2-1.1,5.2-2.9c0.6-1.2,0.6-2.5,0.5-3.8C1561.1,520.3,1561.1,518.8,1561,517.3"/>
	<path id="XMLID_116_" class="st1" d="M1922.3,369.7c-0.2,0.2-0.5,0.4-0.8,0.6c-2.2,1.4-12-2-14.6-2.6c-5-1.1-10-2.3-14.9-3.7
		c-6.4-1.8-13-4-19.5-3.1c-6.6,0.8-13.2,5.7-13.6,12.3c-0.2,4.2,1.9,8.5,0.5,12.4c-1.1,2.9-4,4.8-7,5.7c-10.3,3.3-21.4-2-30-8.6
		s-16.4-14.7-26.7-18.3c-8.8-3.1-18.5-2.5-27.8-1.7c-16,1.2-32.1,2.4-48.2,3.6c-5.2,0.4-10.7,0.8-15.3,3.4
		c-10.7,5.9-14.4,21.4-26.1,25c-6.4,1.9-13.7-0.4-19.6,2.8c-2.6,1.4-4.6,3.7-6.6,6c-11.8,13.6-26,27-43.9,28.9s-34.8-8.4-49-19.6
		c-14.1-11.2-27.9-24-45.3-28.9c-10.3-2.9-21.3-2.7-32.1-2.5c-12.7,0.2-25.3,0.5-36.9-4.2c-7.1-2.8-13.3-7.3-19.3-12
		c-24.9-19.4-47.9-46.8-46.2-78.3c0.4-7.7,2.8-16.1,9.3-20.5c3.9-2.6,8.7-3.4,13.3-4c15.8-2,31.8-2.3,47.6-1.1
		c5.3,0.4,11.2,0.8,15.5-2.3c3.4-2.5,5-6.8,8-9.8c12.1-12.1,39.3,0.7,46.8-14.7c1.6-3.4,1.6-7.4,1.6-11.2
		c-0.1-10.8-0.3-21.6-0.5-32.5c-0.1-5.3-0.3-11.1-4-15c-3.2-3.5-8.1-4.5-12.8-5.4c-36.1-7-73.4-18.4-99-44.8
		c-1.2-1.3-2.5-2.9-2.1-4.6c0.2-0.8,0.8-1.4,1.3-2c16.5-17.5,45.1-14.6,67-24.6c6-2.8,11.6-6.6,17.9-8.7c17.4-5.8,36.2,2.4,54.6,2.4
		c2.1,0,4.2-0.1,6-1.2c2.3-1.4,3.4-4,4.1-6.6c1.6-6.5-0.2-12.2-2.1-18.3c7.8-2.9,16.5,4.6,22.5,8.8c9.7,6.8,20.6,11.9,32.1,14.9
		c12.1,8.1,25.4,14.5,39.3,19c2.5,0.8,5,1.5,7.4,2.6c6.1,2.8,11,7.6,16.6,11.4c5.8,3.9,12.3,6.7,18.3,10.2c10.3,6,19.2,14.3,26,24.1
		c1.6,2.4,3.2,4.9,5.4,6.6c1.9,1.5,4.3,2.4,6.5,3.4c16.9,7.4,24.9,22.7,39.1,33.2c15.6,11.5,30.1,23.9,44.9,36.5
		c15.3,13.1,30.7,26.3,43,42.2c14.6,18.8,24.8,41.4,42.9,56.8c6.3,5.3,13.5,9.7,19,15.8C1918,350.9,1927,365.1,1922.3,369.7"/>
	<path id="XMLID_117_" class="st1" d="M679.5,575.5h-91.2c-0.1-0.3-0.2-0.6-0.3-0.8c-1.4-3.9-1.7-8.8-5.2-11.2
		c-1.6-1.1-3.7-1.4-5.7-1.7c-8.6-1-17.3-1.4-26-1.1c-3.8,0.1-7.6,0.4-11.2-0.9c-2.9-1-5.3-3-7.7-4.9c-12.1-9.9-24.2-19.8-36.4-29.7
		c-0.7-0.6-1.4-1.2-1.8-2c-1.7-3.5,3.1-6.3,6-8.9c5.8-5.3,4.2-14.9,0.2-21.5c-4-6.7-10.7-17.1-7-23.1c0,0,5.3-4.2,8.6-3.4
		c3.3,0.7,6,3.1,8.9,4.8c8.1,4.8,17.8,4.5,27.4,4.1c3.6-0.1,7.2-0.2,10.8-0.1c2.3,0.1,4.7,0.3,6.9,1.3c2.7,1.2,4.8,3.4,6.9,5.4
		c11.7,11.4,26.3,19.8,42.1,24c15.9,4.3,33.3,4.8,47,13.9c-1.2,12.1,10,21.5,14,32.9c0.8,2.4,1.3,4.9,2.2,7.2
		C670.3,566.2,674.7,571,679.5,575.5"/>
	<path id="XMLID_118_" class="st1" d="M860.4,575.5H730.7c-10.3-4.9-20.2-11.8-24-18.4c-3.5-6-3.6-13.4-5.3-20.2
		c15.2-4.2,32-2.7,46.2,4.2c3.5,1.7,6.9,3.8,10.6,5.1c9.3,3.3,19.5,1.8,29.4,1.2c16.1-0.9,32.4,0.9,47.9,5.3c4,1.1,8,2.5,11.3,5
		C852.7,562.4,855.3,570.1,860.4,575.5"/>
	<path id="XMLID_119_" class="st1" d="M802.9,533.6c2.2-1.2,2.3-4.4,3.9-6.4c1.9-2.4,6-3.5,5.9-6.5c0-1.3-0.9-2.4-1.8-3.2
		c-4.4-4.3-10.5-6.6-16.6-7.4c-6.1-0.8-12.3-0.3-18.5,0.2c-1.5,0.1-3,0.3-4.3,1c-3.1,1.9-3.1,6.8-0.8,9.7c2.3,2.9,5.9,4.2,9.4,5.4
		c2.8,1,5.5,1.9,8.3,2.9c2.7,0.3,5.4,1.4,7.9,2.8C798.3,533.2,800.8,534.7,802.9,533.6"/>
	<path id="XMLID_120_" class="st1" d="M930.6,509.3c-5-3.2-10.1-6.4-15.8-8c-11.7-3.4-24.3,0.4-35.6,4.9
		c-11.4,4.5-22.8,9.9-35.1,9.8c-3,0-6.1-0.4-8.8,0.8c-5.3,2.3-7,11.6-2,14.4c4.5,2.6,13.9,5.1,20,5.9c2.2,0.3,4.5,0.3,6.7,1
		s4.1,2.2,6.1,3.4c5,3,10.7,4.9,16.5,5.4c1.2,0.1,2.5,0.1,3.3-0.7c1-0.9,1-2.5,1.2-3.8c1.1-6.8,9.3-9.6,16.1-10.9
		c7.2-1.5,14.5-2.9,21.7-4.4c5.6-1.1,12.6-4,12.2-9.7C937.1,513.8,933.7,511.3,930.6,509.3"/>
	<path id="XMLID_121_" class="st1" d="M1080.4,401.7c-0.1,1.2-0.5,2.3-0.9,3.5c-3.7,8.9-15.4,13.5-24.2,9.5
		c-3.1-1.4-5.8-3.7-8.4-5.9c-4-3.4-7.9-6.8-11.5-10.5c-5.2-5.5-9.6-11.8-15.8-16c-6.1-4.2-13.5-6-20.4-8.8
		c-10.4-4.2-19.8-10.5-27.6-18.5c-0.8-0.8-1.6-1.7-2.1-2.7c-0.6-1.2-0.7-2.6-0.7-3.9c-0.2-6.2,0.6-12.4-0.6-18.5
		c-0.9-4.5-2.8-8.6-5-12.7c-14.7,6.8-32.2,4.2-48.5,3.3c-17.2-0.9-37.1,1.6-46.6,16c-5.6,8.4-6.6,19.7-14.1,26.4
		c-7.8,7.1-19.7,6.5-30.2,5.9c-53.5-2.8-107.6,6.4-157.2,26.5c-5.5,2.2-11.1,4.8-14.6,9.5c-7.5,10.2-1.7,24.8-4.4,37.2
		c-2.9,13.4-16.3,22.8-29.9,24.2s-27.2-3.8-38.7-11.3c-4.8-3.1-9.5-6.7-14.8-8.7c-5.2-2-10.7-2.4-16.2-2.9
		c-21.5-1.7-42.9-3.5-64.4-5.2c-8.9-0.7-18-1.4-26.7,0.5c-10.3,2.3-19.4,8.1-29.1,12.3c-4.8,2.1-10.9,5.1-16.2,5.5
		c-5.6,0.4-5.1-4.8-2.4-8.5c1.7-2.4,4.1-4.5,5-7.3c0.7-2.3,0.3-4.7,0.4-7.1c0.2-6.1,3.4-11.7,6.8-16.8c2.5-3.8,5.2-7.5,7.9-11.2
		c11.5-15.9,23-31.7,34.5-47.6l5.7-7.8c4.3-5.9,8.6-11.9,12.9-17.8c6.4-8.8,13.9-17.1,19.3-26.5c1-1.7,1.8-3.4,2.9-5
		c1.3-1.9,3-3.6,4.7-5.2c5.3-5.2,10.6-10.4,16-15.5c3.6-3.5,7.3-7.1,11-10.5c9.6-8.8,19.4-15.6,26.8-26.4
		c4.6-6.7,9.6-13.3,15.6-18.9c5.8-5.3,12.2-9.8,18.3-14.8c9.8-8,18-17.6,28.2-25.2c0.6-0.4,1.2-0.9,1.8-1.3
		c15.8-11.7,31.6-23.3,47.4-35c2.9-2.2,5.9-4.4,8.8-6.5l16.2-12c4.7-3.5,9.4-6.9,14.1-10.3c8.9-6.3,18.2-12.2,28.2-16.8
		c8.1-3.7,16.9-6.6,23.3-12.8c2.2-2.1,4-4.6,6.3-6.7c8.2-7.4,20.3-7.6,31.1-10c6.1-1.4,18-10.1,21.1-1.9c3.1,8.1,0.4,17.5,3.9,25.6
		c1.7,4,5.4,7.7,9.8,7.4c2.7-0.1,5.1-1.8,7.5-3.3c23.8-15.1,55.5-17,80.9-4.7c-1.9,9.7,2.3,20.3,10.3,26c5,3.6,11.5,5.7,14.5,11
		c3.2,5.8,0.9,13.3-3.2,18.6c-4.1,5.2-9.8,9.1-14.3,14c-15.1,16.2-15,44.3,0.3,60.3c5.4,5.7,12.2,9.7,19,13.7
		c11.9,3.8,24.2,6.2,36.6,7c1.6,0.1,3.3,0.2,4.5,1.2c0.8,0.6,1.3,1.6,1.8,2.5c5.6,10.3,11.9,20.9,21.7,27.2c2.7,1.8,5.6,3.1,8.3,5
		c3.6,2.5,6.5,5.7,9.4,8.9c10.7,11.6,21.3,23.3,32,34.9c2.7,3,5.5,6,7.3,9.5c4.3,8.2,3.5,18.1,3.3,27.4c-0.2,11.2,0.7,22.5,2.7,33.5
		C1080.2,398.4,1080.6,400.1,1080.4,401.7"/>
	<path id="XMLID_122_" class="st1" d="M985.8,432.1c6.4,0.9,13.1-1.9,17.3-6.8c4.2-4.9,6.1-11.6,5.7-18c-0.1-1.5-0.3-3.1-1.1-4.4
		c-3.5-6-13.9-3-18.3-8.4c-1.6-1.9-1.9-4.6-3.3-6.7c-2.5-4.1-7.9-5.3-12.7-5.5c-4.8-0.2-9.8,0.2-14.1-2l-0.4,0.4
		c-6.6-2.1-13.9-2-20.4,0.2c-1.9,0.6-3.8,1.5-4.7,3.2c-0.7,1.3-0.8,3-0.8,4.5v6.1c0,1.2,0,2.4,0.5,3.5c0.6,1.3,1.7,2.2,2.9,3.1
		c3.2,2.5,6.6,5.1,10.6,6c3.6,0.8,7.7,0.3,10.7,2.5c2.6,1.9,3.5,5.2,5.2,7.8c2.2,3.4,5.7,5.8,9.1,8
		C976.3,428.4,980.7,431.3,985.8,432.1"/>
	<path id="XMLID_123_" class="st1" d="M1335.2,11.3c-1.2-0.4-2.4-0.4-3.6-0.5c-4.1-0.2-8.3-0.5-12.4-0.7c-1.4-0.1-2.8-0.2-4.1,0.2
		c-2.4,0.6-4.3,2.5-6,4.3c-1.8,1.8-3.5,3.7-5.3,5.5c-0.4,0.5-1.8,0.8-1.8,0.8c-1.7,0.8-2.2,3.2-1.4,4.9c0.8,1.7,2.7,2.7,4.6,3
		s3.8-0.1,5.6-0.5c6.4-1.4,12.9-3.4,19.5-2.9c2.5,0.2,5.2,0.7,7.3-0.7c0.7-0.4,1.3-1.1,1.7-1.7c1.3-2,1.7-4.6,0.9-6.9
		C1339.4,13.9,1337.5,12,1335.2,11.3"/>
	<path id="XMLID_124_" class="st1" d="M1369.2,19c-0.7-0.9-1.9-1.2-3-1.4c-1.8-0.4-3.6-0.8-5.5-1.1c-1.4-0.2-2.9-0.4-4,0.3
		c-1.3,0.8-0.7,4.8-0.7,4.8c0.1,1.7,0.2,3.6,1.5,4.8c0.3,0.3,0.8,0.6,1.2,0.8c2.3,1.3,5.1,1.7,7.8,1.2c1.2-0.2,2.3-0.7,3.1-1.6
		c1.3-1.6,0.9-3.9,0.4-6C1369.8,20.2,1369.6,19.5,1369.2,19"/>
	<path id="XMLID_125_" class="st1" d="M1302.5,40.8c-0.6-0.3-1.2-0.7-1.9-0.9c-0.7-0.2-1.5-0.2-2.2-0.2c-2.4,0-4.8,0.1-7.3,0.1
		l-2.5,1c-0.6,1.1-1.1,2.4-1,3.7s0.7,2.6,1.7,3.4c1,0.6,2.2,0.8,3.3,0.8c2.7,0.2,5.4,0.1,8.2,0.1c1,0,2.1,0,3.1-0.4
		c1-0.3,1.9-1,2.3-2c0.4-1.1,0-2.5-0.8-3.4C1304.6,42,1303.5,41.4,1302.5,40.8"/>
	<path id="XMLID_126_" class="st1" d="M1700.9,439.6c0-1.6,0-3.1-0.1-4.7c0-0.4,0-0.8-0.2-1.1c-0.3-0.4-0.8-0.6-1.3-0.7
		c-4-1-8.1-1.6-12.2-1.8c-1.8-0.1-3.6-0.1-5.2,0.6c-2.2,1-3.7,3.3-4.3,5.7c-0.6,2.4-0.5,4.9-0.4,7.3c0,0.8,0.1,1.7,0.3,2.5
		c0.4,1.3,1.3,2.4,2.2,3.4c0.7,0.8,1.4,1.6,2.4,1.8c0.5,0.1,0.9,0.1,1.4,0.1h1c1.5,0.2,2.7,1.2,4.1,1.5c1.7,0.5,3.7-0.1,4.9-1.5
		l-0.1-0.2c2.1-2.9,5.7-4.6,7.1-7.9C1700.9,443.2,1700.9,441.3,1700.9,439.6"/>
	<path id="XMLID_127_" class="st1" d="M1828.5,480.2c4.5,0.5,8.4,3.1,12.4,5c4.1,2,8.9,3.3,13,1.4c3.9-1.9,5.9-6.8,4.6-10.8
		c-1-3.1-3.6-5.3-6.1-7.4c-2.1-1.8-4.3-3.6-6.4-5.4c-1.6-1.4-3.3-2.8-5.2-3.6c-2.2-0.9-4.6-1-7-1.4c-6.9-1.2-13.3-5.1-17.4-10.7
		c-1.4-1.9-2.6-4-4.6-5.1c-1.2-0.7-2.6-1-4-1c-3.3-2-7.5-2.8-11.4-2.8c-16.2,0.2-30.1,11.8-46,14.6c-5.8,1-11.8,0.8-17.6,1.8
		c-14.3,2.5-26.9,12.9-32.1,26.5l-0.4,1.3c-3.8,1.9,0.5,7.4,4.4,8.8c15.7,5.8,32.3,9,49,9.5c8.9,0.3,18.1-0.3,26.2-4
		c5.4-2.5,9.9-6.1,14.1-10.4c3.1,1.8,6.3,3.8,9.8,3.3c1.5-0.2,2.8-1,4.1-1.7C1814.4,484.3,1821.1,479.4,1828.5,480.2"/>
	<path id="XMLID_128_" class="st1" d="M1870.7,537.3c3.2-3.7,6.4-8.3,5-13c-1.1-3.7-4.9-6-8.6-6.7c-3.8-0.7-19.3,0.3-22.7-1.6
		c-4.2-2.3-6.9-7.2-11.5-8.2c-3.1-0.7-6.2,0.6-9.1,1.9c-2.1,0.9-4.5,2.3-4.5,4.6l1.6,1.8c-1.4,4,0.9,8.4,3.9,11.3
		c3.1,2.9,6.9,4.9,9.9,7.9c3.7,3.6,6,8.4,7.9,13.2c0.8,2,1.6,4.2,3.3,5.6c1,0.9,2.3,1.4,3.6,1.8c6.8,2.4,15.2,2.8,20.6-2.1
		c0.6-0.5,1.1-1.1,1.3-1.8c0.6-2.2-1.8-3.9-3.7-5.1s-3.9-3.8-2.3-5.4C1867.5,540.8,1869.2,539,1870.7,537.3"/>
	<path id="XMLID_129_" class="st1" d="M1914.9,525.4c-1.5-1.9-2.9-3.8-4.4-5.7c-0.5-0.7-1-1.3-1.7-1.8c-0.8-0.5-1.9-0.6-2.9-0.6
		c-2.1-0.1-4.2-0.1-6.3,0.1c-0.9,0.1-1.8,0.1-2.6,0.4c-3.3,1.1-4.8,5-5.8,8.3l1.1,1.6c1.7,3.4,4.6,6.1,8.2,7.1
		c1.9,0.5,3.9,0.6,5.9,0.6c2.4,0,4.9-0.1,7-1.2c2.1-1.1,3.8-3.5,3.2-5.8C1916.4,527.3,1915.7,526.4,1914.9,525.4"/>
	<path id="XMLID_160_" class="st2" d="M1922.8,370.1c0.1,0.2,0.3,0.4,0.4,0.6c43.3,62.9,78.7,131.6,104.7,204.8
		c-26-73.2-61.4-141.9-104.7-204.8C1923.1,370.5,1923,370.3,1922.8,370.1 M1913.2,345.7c0.7,0.6,1.3,1.3,1.9,2l0.1,0.2l-0.1-0.2
		C1914.5,347.1,1913.8,346.4,1913.2,345.7 M1892.5,328.7c1.2,1.1,2.4,2.2,3.6,3.2c3.2,2.7,6.7,5.2,10,7.8c-3.3-2.6-6.8-5-10-7.8
		C1894.8,330.9,1893.6,329.8,1892.5,328.7 M1873.2,304.8c6.2,7.5,12.4,15.1,18.4,22.7C1885.6,319.9,1879.5,312.3,1873.2,304.8
		 M1846.5,267.1c2.3,2.6,4.5,5.3,6.6,8c2.8,3.6,5.5,7.4,8,11.2c-2.6-3.8-5.2-7.6-8-11.2C1851,272.4,1848.8,269.7,1846.5,267.1
		 M1807.7,230.8l2.4,2.1L1823,244c-4.3-3.8-8.6-7.5-12.9-11.1L1807.7,230.8 M1748.4,180.4c2.7,2.8,5.3,5.6,8.1,8.3
		C1753.7,186,1751.1,183.2,1748.4,180.4 M1720.1,160.2c0.7,0.5,1.4,0.9,2.1,1.3C1721.5,161.1,1720.8,160.6,1720.1,160.2
		 M1694.5,133.1c7.7,5.5,14.4,12.3,19.7,20c1.5,2.2,3,4.5,5,6.2c-2-1.7-3.4-4-5-6.2C1708.8,145.4,1702.1,138.6,1694.5,133.1
		 M1684.9,127.2c1.1,0.6,2.2,1.2,3.2,1.8c0.2,0.1,0.5,0.3,0.7,0.4c-0.2-0.1-0.5-0.3-0.7-0.4C1687.1,128.4,1686,127.8,1684.9,127.2
		 M1663.8,114.3c1,0.8,2,1.6,3,2.3C1665.8,115.9,1664.8,115.1,1663.8,114.3 M1645.3,104.7c0.2,0.1,0.4,0.1,0.6,0.2
		c1.8,0.6,3.6,1.1,5.4,1.8c-1.8-0.7-3.6-1.2-5.4-1.8C1645.7,104.8,1645.5,104.7,1645.3,104.7 M1569.6,67.4c1.8,1.2,3.4,2.5,4.9,3.5
		c9.7,6.8,20.6,11.9,32.1,14.9c7.1,4.8,14.7,9,22.5,12.5c-7.8-3.5-15.4-7.7-22.5-12.5c-11.5-3-22.4-8.1-32.1-14.9
		C1573.1,69.9,1571.4,68.7,1569.6,67.4 M1331.3-3.1c0.2,0,0.3,0.1,0.5,0.1c77,12.2,150.8,34.3,219.8,65c0.1,0,0.2,0.1,0.3,0.1
		c-0.1,0-0.2-0.1-0.3-0.1c-69.1-30.7-142.8-52.8-219.8-65C1331.7-3,1331.5-3.1,1331.3-3.1 M1331-3.1L1331-3.1L1331-3.1 M1331-3.7
		c0,0.1,0.1,0.3,0,0.4V-3.7 M1060.8-4.3h-0.3H1060.8 M1066.8-5.8c-0.9,0.2-1.9,0.3-2.8,0.5c-0.3,0-0.5,0.1-0.8,0.1
		c0.2,0,0.5-0.1,0.8-0.1C1064.9-5.4,1065.8-5.6,1066.8-5.8 M1321.4-6.8c1,0.2,2,0.4,3.1,0.6c1.4,0.3,4.9,0.6,6.2,2
		c-1.2-1.3-4.8-1.7-6.2-2C1323.4-6.4,1322.4-6.6,1321.4-6.8 M1295.7-9c1.2,0.2,2.3,0.2,3.5,0.2c0.9,0,1.9,0,2.8-0.1
		c-0.9,0-1.9,0.1-2.8,0.1C1298.1-8.7,1296.9-8.8,1295.7-9 M1093.3-9.9c-3.9,0.5-7.7,1-11.5,1.6C1085.6-8.9,1089.4-9.4,1093.3-9.9
		 M1103.9-10.8c-0.8,0.3-1.1,0.6-2.2,0.6h-0.1c-1.2,0-2.4-0.1-3.6-0.1h-0.6h0.6c1.2,0,2.3,0.1,3.6,0.1h0.1
		C1102.8-10.2,1103.1-10.5,1103.9-10.8 M1287.2-10.9c1.2,0.2,2.4,0.5,3.6,0.8c1.5,0.4,2.9,0.9,4.4,1.1c-1.5-0.3-2.9-0.8-4.4-1.1
		C1289.6-10.5,1288.4-10.7,1287.2-10.9 M1105-11.1c-0.1,0-0.3,0-0.4,0.1h-0.1h0.1C1104.7-11,1104.8-11.1,1105-11.1 M1124.1-13.3
		c-1.3,0.2-2.6,0.5-3.9,0.9c-2,0.6-4.1,1.6-6.2,1.8c-0.4,0.1-0.9,0.1-1.3,0.1c-1.4,0-3-0.2-4.4-0.3c-0.6,0-1.2-0.1-1.7-0.2
		c0.6,0.1,1.2,0.2,1.8,0.2c1.4,0.1,2.9,0.3,4.3,0.3c0.5,0,0.9,0,1.3-0.1c2.1-0.3,4.2-1.3,6.2-1.8
		C1121.4-12.8,1122.7-13.1,1124.1-13.3 M1249-14.6h5.5c3.9,0,7.9,0.3,11.8,0.7c-3.9-0.4-7.8-0.7-11.8-0.7H1249 M1211.6-16
		c4,0.6,8,1.3,12.1,1.3h2.8h-2.8C1219.6-14.7,1215.6-15.4,1211.6-16 M1194.9-16.6c-1.2,0.1-2.4,0.1-3.6,0.2
		c-1.3,0.1-2.6,0.1-3.9,0.2c-16.9,0.9-33.9,1.1-50.8,1.8h-0.9h0.9c17-0.7,33.9-0.9,50.8-1.8c1.3-0.1,2.6-0.1,3.9-0.2
		C1192.5-16.5,1193.7-16.5,1194.9-16.6"/>
	<path id="XMLID_172_" class="st3" d="M1906.4,535.5c-2,0-4,0-5.9-0.6c-3.6-1-6.6-3.8-8.2-7.1l-1.1-1.6c1-3.4,2.5-7.2,5.8-8.3
		c0.8-0.3,1.7-0.4,2.6-0.4c1.3-0.1,2.5-0.1,3.8-0.1c0.8,0,1.7,0,2.5,0.1c1,0,2,0.1,2.9,0.6c0.7,0.4,1.2,1.1,1.7,1.8
		c1.5,1.9,2.9,3.8,4.4,5.7c0.7,0.9,1.5,1.9,1.7,3.1c0.5,2.3-1.1,4.7-3.2,5.8C1911.3,535.4,1908.8,535.5,1906.4,535.5 M1859,557.6
		c-3.2,0-6.5-0.7-9.5-1.7c-1.3-0.4-2.6-1-3.6-1.8c-1.7-1.4-2.5-3.6-3.3-5.6c-1.9-4.8-4.2-9.6-7.9-13.2c-3-2.9-6.9-4.9-9.9-7.9
		c-3.1-2.9-5.3-7.3-3.9-11.3l-1.6-1.8c0-2.3,2.4-3.7,4.5-4.6c2.4-1,4.9-2,7.4-2c0.6,0,1.2,0.1,1.7,0.2c4.7,1,7.4,5.8,11.5,8.2
		c3.3,1.9,18.9,0.8,22.7,1.6c3.8,0.7,7.5,3,8.6,6.7c1.4,4.6-1.8,9.3-5,13c-1.5,1.7-3.2,3.5-5.4,4.2c-1.5,1.7,0.4,4.2,2.3,5.4
		c1.9,1.2,4.3,2.9,3.7,5.1c-0.2,0.7-0.7,1.3-1.3,1.8C1867,556.6,1863.1,557.6,1859,557.6 M1875.6,360.7c-1,0-2.1,0.1-3.1,0.2
		c-6.6,0.8-13.2,5.7-13.6,12.3c-0.2,4.2,1.9,8.5,0.5,12.4c-1.1,2.9-4,4.8-7,5.7c-2.2,0.7-4.4,1-6.6,1c-8.3,0-16.6-4.4-23.4-9.6
		c-8.6-6.6-16.4-14.7-26.7-18.3c-5.1-1.8-10.5-2.3-15.9-2.3c-4,0-8,0.3-11.9,0.6c-16,1.2-32.1,2.4-48.2,3.6
		c-5.2,0.4-10.7,0.8-15.3,3.4c-10.7,5.9-14.4,21.4-26.1,25c-1.8,0.5-3.7,0.8-5.7,0.8c7.7,12,15.1,24.3,22.3,36.7
		c1.5,0.3,2.9,0.6,4.3,0.9c0.5,0.1,1.1,0.3,1.3,0.7c0.2,0.3,0.2,0.7,0.2,1.1c0,1.6,0,3.1,0.1,4.7c0,1,0,2-0.1,3
		c4,7.3,8,14.6,11.8,22c5.7-4.9,12.7-8.4,20.2-9.7c5.8-1,11.8-0.8,17.6-1.8c15.9-2.8,29.9-14.4,46-14.6h0.3c3.8,0,7.9,0.8,11.1,2.8
		c1.4,0,2.8,0.3,4,1c2,1.2,3.2,3.3,4.6,5.1c4.1,5.6,10.5,9.6,17.4,10.7c2.3,0.4,4.8,0.5,7,1.4c2,0.8,3.6,2.2,5.2,3.6
		c2.1,1.8,4.3,3.6,6.4,5.4c2.5,2.1,5,4.3,6.1,7.4c1.4,4.1-0.7,9-4.6,10.8c-1.4,0.7-2.9,1-4.4,1c-2.9,0-5.9-1-8.6-2.3
		c-4.1-2-8-4.5-12.4-5c-0.6-0.1-1.1-0.1-1.7-0.1c-6.7,0-12.9,4.5-18.8,7.9c-1.3,0.7-2.7,1.5-4.1,1.7c-0.4,0.1-0.8,0.1-1.2,0.1
		c-3,0-5.9-1.8-8.6-3.4c-4.1,4.2-8.7,7.9-14.1,10.4c-7,3.2-14.8,4.1-22.6,4.1c-1.2,0-2.4,0-3.6-0.1c-8.3-0.2-16.5-1.2-24.6-2.7
		c11.8,25.2,22.4,51,31.8,77.4h267c-26-73.2-61.4-141.9-104.7-204.8c-0.1-0.2-0.3-0.4-0.4-0.6c-0.1-0.2-0.3-0.4-0.4-0.5l-0.2,0.2
		c-0.2,0.2-0.5,0.4-0.8,0.6c-0.4,0.2-0.9,0.3-1.7,0.3c-3.6,0-10.7-2.5-12.9-2.9c-5-1.1-10-2.3-14.9-3.7
		C1886.7,362.4,1881.1,360.7,1875.6,360.7 M1873.2,304.8c5.8,8.6,11.8,16.8,19.3,23.9c-0.3-0.4-0.6-0.7-0.9-1.1
		C1885.6,319.9,1879.5,312.3,1873.2,304.8 M1756.5,188.7c2.7,2.7,5.6,5.3,8.8,7.7c1,0.7,1.9,1.4,2.9,2.1c-3.8-3.3-7.7-6.5-11.6-9.7
		L1756.5,188.7 M1421,139.1c5.6,4,11.6,7.6,17.8,10.7c28.9,20.6,56.5,42.8,82.7,66.6c-0.1-8.5-0.2-17-0.4-25.5
		c-0.1-5.3-0.3-11.1-4-15c-3.2-3.5-8.1-4.5-12.8-5.4C1475,164.9,1445,156.3,1421,139.1 M1297,48.8c-1.5,0-2.9,0-4.4-0.1
		c-1.2-0.1-2.4-0.2-3.3-0.8c-1.1-0.7-1.7-2-1.7-3.4c-0.1-1.3,0.4-2.6,1-3.7l2.5-1c2.4,0,4.8-0.1,7.3-0.1h0.4c0.6,0,1.2,0,1.8,0.2
		c0.7,0.2,1.3,0.5,1.9,0.9c1.1,0.6,2.1,1.3,2.9,2.2c0.8,1,1.2,2.3,0.8,3.4c-0.4,1-1.3,1.6-2.3,2c-1,0.3-2.1,0.3-3.1,0.4H1297
		 M1364.2,28.6c-1.9,0-3.9-0.5-5.6-1.4c-0.4-0.2-0.8-0.5-1.2-0.8c-1.2-1.2-1.4-3.1-1.5-4.8c0,0-0.5-3.9,0.7-4.8
		c0.6-0.4,1.3-0.5,2-0.5s1.3,0.1,2,0.2c1.8,0.3,3.6,0.7,5.5,1.1c1.1,0.2,2.3,0.6,3,1.4c0.4,0.5,0.6,1.2,0.7,1.8c0.5,2,0.9,4.4-0.4,6
		c-0.8,0.9-1.9,1.4-3.1,1.6C1365.7,28.5,1365,28.6,1364.2,28.6 M1306.6,28.9c-0.5,0-0.9,0-1.4-0.1c-1.9-0.3-3.7-1.3-4.6-3
		c-0.8-1.7-0.3-4.1,1.4-4.9c0,0,1.4-0.3,1.8-0.8c1.8-1.8,3.5-3.7,5.3-5.5c1.7-1.8,3.6-3.7,6-4.3c0.8-0.2,1.5-0.3,2.3-0.3
		c0.6,0,1.2,0,1.8,0.1c4.1,0.2,8.3,0.5,12.4,0.7c1.2,0.1,2.4,0.1,3.6,0.5c2.3,0.7,4.2,2.6,4.9,4.8c0.8,2.3,0.4,4.9-0.9,6.9
		c-0.5,0.7-1,1.3-1.7,1.7c-1.1,0.7-2.4,0.9-3.8,0.9c-1.2,0-2.4-0.1-3.5-0.2c-0.7,0-1.4-0.1-2-0.1c-5.9,0-11.6,1.7-17.4,3
		C1309.4,28.6,1308,28.9,1306.6,28.9 M1331-3.1c-0.4,1.4-4.2,2-5.4,2.4c-5.2,1.6-10.5,2.5-15.9,2.9c-7,0.4-14.2-0.2-20.9,1.9
		c-15.9,4.9-24.2,22.9-39.2,30c-5.1,2.4-10.4,3.4-15.7,3.4c-18.1,0-37.3-11.5-55.8-16.7c-3.8-1.1-8.1-1.6-12.8-1.7
		c41.1,11.5,81,25.9,119.4,43c43.8,19.4,85.7,42.3,125.4,68.3c-1.6-1.5-3.2-3-4.7-4.5c-1.2-1.3-2.5-2.9-2.1-4.6
		c0.2-0.8,0.8-1.4,1.3-2c16.5-17.5,45.1-14.6,67-24.6c6-2.8,11.6-6.6,17.9-8.7c4.5-1.5,9.2-2.1,13.9-2.1c13.3,0,27.1,4.5,40.7,4.5
		h0.2c2,0,4.1-0.2,5.8-1.2c2.3-1.4,3.4-4,4.1-6.6c1.6-6.5-0.2-12.2-2.1-18.3h0.1l-0.2-0.1c-0.1,0-0.2-0.1-0.3-0.1
		c-69.1-30.7-142.8-52.8-219.8-65c-0.2,0-0.3-0.1-0.5-0.1h-0.2L1331-3.1 M1060.9-4.3h-0.4c-0.7,0.1-1.3,0.2-1.9,0.3
		c0.6,0.1,1.2,0.2,1.9,0.3C1060.6-3.9,1060.7-4.1,1060.9-4.3"/>
	<path id="XMLID_173_" class="st4" d="M1201.2-16.8c-2.1,0-4.1,0.1-6.2,0.2c-1.2,0.1-2.4,0.1-3.6,0.2c-1.3,0.1-2.6,0.1-3.9,0.2
		c-16.9,0.9-33.9,1.1-50.8,1.8h-0.9c-3.9,0.2-7.8,0.4-11.7,1c-1.3,0.2-2.6,0.5-3.9,0.9c-2,0.6-4.1,1.6-6.2,1.8
		c-0.4,0.1-0.9,0.1-1.3,0.1c-1.4,0-3-0.2-4.3-0.3c-0.6,0-1.2-0.2-1.8-0.2h-1.5c-0.1,0-0.3,0-0.4,0.1h-0.1c-0.2,0.1-0.4,0.1-0.6,0.2
		c-0.8,0.3-1.1,0.6-2.2,0.6h-0.1c-1.3,0-2.4-0.1-3.6-0.1h-0.6c-0.4,0-0.7,0-1.1,0.1c-1,0.1-2,0.2-3,0.4c-3.8,0.5-7.7,1-11.5,1.6
		c-0.5,0.1-1,0.2-1.5,0.2c-4.5,0.8-9,1.5-13.5,2.3c-0.9,0.2-1.9,0.3-2.8,0.5c-0.3,0-0.5,0.1-0.8,0.1c-1.1,0.2-1.8,0.3-2.3,0.8
		c-0.2,0.2-0.3,0.4-0.4,0.6c1.5,0.2,2.9,0.5,4.4,0.7c34.1,5.4,67.7,12.8,100.4,22c4.7,0.2,9.1,0.7,12.8,1.7
		c18.5,5.2,37.7,16.7,55.8,16.7c5.3,0,10.6-1,15.7-3.4c15-7.1,23.3-25.1,39.2-30c6.7-2.1,13.9-1.4,20.9-1.9
		c5.4-0.3,10.7-1.3,15.9-2.9c1.2-0.4,5-1,5.4-2.4v-0.6c-0.1-0.2-0.2-0.4-0.3-0.5c-1.2-1.3-4.8-1.7-6.2-2c-1-0.2-2-0.4-3.1-0.6
		c-5.6-1.1-11.3-2-17.1-2h-2.3c-0.9,0-1.9,0.1-2.8,0.1c-1.2,0-2.4-0.1-3.5-0.2h-0.2c-0.1,0-0.2,0-0.3-0.1c-1.5-0.3-2.9-0.8-4.4-1.1
		c-1.2-0.3-2.4-0.5-3.6-0.8c-1-0.2-2-0.3-3-0.5c-6-1-11.9-1.9-17.9-2.5c-3.9-0.4-7.8-0.7-11.8-0.7h-30.8c-4.1,0-8.1-0.7-12.1-1.3
		c-0.5-0.1-1.1-0.2-1.6-0.2C1207-16.6,1204.1-16.8,1201.2-16.8"/>
	<path id="XMLID_174_" class="st4" d="M1555.8,61.6c-1.2,0-2.4,0.2-3.6,0.6h-0.1c1.9,6.1,3.7,11.8,2.1,18.3
		c-0.6,2.6-1.8,5.2-4.1,6.6c-1.7,1-3.8,1.2-5.8,1.2h-0.2c-13.6,0-27.4-4.5-40.7-4.5c-4.7,0-9.3,0.6-13.9,2.1
		c-6.3,2.1-11.9,5.9-17.9,8.7c-21.9,10.1-50.4,7.1-67,24.6c-0.6,0.6-1.1,1.2-1.3,2c-0.4,1.7,0.9,3.3,2.1,4.6
		c1.5,1.6,3.1,3.1,4.7,4.5h0.1c3.5,3.2,7.1,6.1,10.9,8.8c24,17.2,54,25.8,83.4,31.4c4.6,0.9,9.6,1.9,12.8,5.4c3.6,3.9,3.9,9.7,4,15
		c0.1,8.5,0.2,17,0.4,25.5c50.6,46,95.9,97.8,134.8,154.3c5.6,8.1,11.1,16.4,16.5,24.8c1.9-0.1,3.8-0.3,5.7-0.8
		c11.7-3.5,15.4-19.1,26.1-25c4.6-2.5,10-3,15.3-3.4c16-1.2,32.1-2.4,48.2-3.6c3.9-0.3,7.9-0.6,11.9-0.6c5.4,0,10.8,0.5,15.9,2.3
		c10.2,3.6,18,11.7,26.7,18.3c6.8,5.2,15.1,9.6,23.4,9.6c2.2,0,4.4-0.3,6.6-1c3-0.9,5.9-2.8,7-5.7c1.5-3.9-0.7-8.2-0.5-12.4
		c0.4-6.6,7-11.5,13.6-12.3c1-0.1,2.1-0.2,3.1-0.2c5.5,0,11.1,1.8,16.4,3.3c4.9,1.4,9.9,2.7,14.9,3.7c2.2,0.5,9.3,2.9,12.9,2.9
		c0.7,0,1.3-0.1,1.7-0.3c0.3-0.2,0.5-0.4,0.8-0.6l0.2-0.2c4.2-4.8-4.2-18.2-7.2-21.7l-0.1-0.2c-0.6-0.7-1.3-1.4-1.9-2
		c-2.2-2.2-4.6-4.1-7.1-6c-3.3-2.6-6.8-5-10-7.8c-1.2-1-2.4-2.1-3.5-3.2c-7.4-7.1-13.5-15.3-19.3-23.9c-4.1-6.1-8-12.3-12.1-18.5
		c-2.6-3.8-5.2-7.6-8-11.2c-2.1-2.7-4.3-5.4-6.6-8c-7.3-8.2-15.3-15.8-23.5-23.1c-4.3-3.8-8.6-7.5-12.9-11.1l-2.4-2.1
		c-13-11.1-25.9-22-39.5-32.3c-0.9-0.7-1.9-1.4-2.9-2.1c-3.2-2.4-6.1-5-8.8-7.7c-2.8-2.7-5.4-5.6-8.1-8.3
		c-6.4-6.7-13-13.1-22.2-17.2c-1.3-0.6-2.6-1.1-3.9-1.8c-0.7-0.4-1.5-0.8-2.1-1.3c-0.2-0.1-0.3-0.2-0.5-0.4
		c-0.2-0.1-0.3-0.3-0.5-0.4c-2-1.7-3.4-4-5-6.2c-5.4-7.7-12.1-14.6-19.7-20c-1.8-1.3-3.7-2.5-5.6-3.7c-0.2-0.1-0.5-0.3-0.7-0.4
		c-1.1-0.6-2.1-1.2-3.2-1.8c-5.1-2.7-10.3-5.2-15.1-8.4c-1-0.7-2-1.4-3.1-2.2c-1-0.8-2-1.5-3-2.3c-3.3-2.6-6.7-5.1-10.5-6.8
		c-0.7-0.3-1.3-0.6-2-0.8c-1.8-0.7-3.6-1.2-5.4-1.8c-0.2-0.1-0.4-0.1-0.6-0.2c-5.5-1.8-10.9-3.9-16.2-6.3
		c-7.8-3.5-15.4-7.7-22.5-12.5c-11.5-3-22.4-8.1-32.1-14.9c-1.5-1-3.1-2.3-4.9-3.5C1565.4,64.5,1560.6,61.6,1555.8,61.6"/>
	<path id="XMLID_175_" class="st4" d="M1317.4,10c-0.8,0-1.6,0.1-2.3,0.3c-2.4,0.6-4.3,2.5-6,4.3c-1.8,1.8-3.5,3.7-5.3,5.5
		c-0.4,0.5-1.8,0.8-1.8,0.8c-1.7,0.8-2.2,3.2-1.4,4.9c0.8,1.7,2.7,2.7,4.6,3c0.5,0.1,0.9,0.1,1.4,0.1c1.4,0,2.8-0.3,4.2-0.6
		c5.8-1.2,11.5-3,17.4-3c0.7,0,1.4,0,2,0.1c1.2,0.1,2.4,0.2,3.5,0.2c1.3,0,2.6-0.2,3.8-0.9c0.7-0.4,1.3-1.1,1.7-1.7
		c1.3-2,1.7-4.6,0.9-6.9c-0.8-2.3-2.7-4.1-4.9-4.8c-1.2-0.4-2.4-0.4-3.6-0.5c-4.1-0.2-8.3-0.5-12.4-0.7
		C1318.6,10.1,1318,10,1317.4,10"/>
	<path id="XMLID_176_" class="st4" d="M1358.8,16.2c-0.7,0-1.4,0.1-2,0.5c-1.3,0.8-0.7,4.8-0.7,4.8c0.1,1.7,0.2,3.6,1.5,4.8
		c0.3,0.3,0.8,0.6,1.2,0.8c1.7,0.9,3.6,1.4,5.6,1.4c0.7,0,1.5-0.1,2.2-0.2c1.2-0.2,2.3-0.7,3.1-1.6c1.3-1.6,0.9-3.9,0.4-6
		c-0.2-0.6-0.3-1.3-0.7-1.8c-0.7-0.9-1.9-1.2-3-1.4c-1.8-0.4-3.6-0.8-5.5-1.1C1360.1,16.3,1359.4,16.2,1358.8,16.2"/>
	<path id="XMLID_177_" class="st4" d="M1298.8,39.7h-0.4c-2.4,0-4.8,0.1-7.3,0.1l-2.5,1c-0.6,1.1-1.1,2.4-1,3.7s0.7,2.6,1.7,3.4
		c1,0.6,2.2,0.8,3.3,0.8c1.5,0.1,2.9,0.1,4.4,0.1h3.8c1,0,2.1,0,3.1-0.4c1-0.3,1.9-1,2.3-2c0.4-1.1,0-2.5-0.8-3.4
		c-0.8-1-1.9-1.6-2.9-2.2c-0.6-0.3-1.2-0.7-1.9-0.9C1300,39.7,1299.4,39.7,1298.8,39.7"/>
	<path id="XMLID_178_" class="st4" d="M1694.9,432.2c2,3.4,3.9,6.9,5.9,10.4c0.1-1,0.1-2,0.1-3c0-1.6,0-3.1-0.1-4.7
		c0-0.4,0-0.8-0.2-1.1c-0.3-0.4-0.8-0.6-1.3-0.7C1697.9,432.7,1696.4,432.4,1694.9,432.2"/>
	<path id="XMLID_179_" class="st4" d="M1796.8,438.4h-0.3c-16.2,0.2-30.1,11.8-46,14.6c-5.8,1-11.8,0.8-17.6,1.8
		c-7.5,1.3-14.5,4.8-20.2,9.7c5.7,11.1,11.3,22.3,16.6,33.6c8.1,1.6,16.3,2.5,24.6,2.7c1.2,0,2.4,0.1,3.6,0.1
		c7.7,0,15.6-0.9,22.6-4.1c5.4-2.5,9.9-6.1,14.1-10.4c2.7,1.6,5.6,3.4,8.6,3.4c0.4,0,0.8,0,1.2-0.1c1.5-0.2,2.8-1,4.1-1.7
		c6-3.4,12.1-7.9,18.8-7.9c0.6,0,1.1,0,1.7,0.1c4.5,0.5,8.4,3.1,12.4,5c2.7,1.3,5.7,2.3,8.6,2.3c1.5,0,3-0.3,4.4-1
		c3.9-1.9,5.9-6.8,4.6-10.8c-1-3.1-3.6-5.3-6.1-7.4c-2.1-1.8-4.3-3.6-6.4-5.4c-1.6-1.4-3.3-2.8-5.2-3.6c-2.2-0.9-4.6-1-7-1.4
		c-6.9-1.2-13.3-5.1-17.4-10.7c-1.4-1.9-2.6-4-4.6-5.1c-1.2-0.7-2.6-1-4-1C1804.7,439.2,1800.6,438.4,1796.8,438.4"/>
	<path id="XMLID_180_" class="st4" d="M1831.1,507.7c-2.5,0-5,1-7.4,2c-2.1,0.9-4.5,2.3-4.5,4.6l1.6,1.8c-1.4,4,0.9,8.4,3.9,11.3
		c3.1,2.9,6.9,4.9,9.9,7.9c3.7,3.6,6,8.4,7.9,13.2c0.8,2,1.6,4.2,3.3,5.6c1,0.9,2.3,1.4,3.6,1.8c3,1,6.3,1.7,9.5,1.7
		c4.1,0,8-1.1,11.1-3.8c0.6-0.5,1.1-1.1,1.3-1.8c0.6-2.2-1.8-3.9-3.7-5.1s-3.9-3.8-2.3-5.4c2.2-0.7,3.8-2.5,5.4-4.2
		c3.2-3.7,6.4-8.3,5-13c-1.1-3.7-4.9-6-8.6-6.7c-3.8-0.7-19.3,0.3-22.7-1.6c-4.2-2.3-6.9-7.2-11.5-8.2
		C1832.3,507.8,1831.7,507.7,1831.1,507.7"/>
	<path id="XMLID_181_" class="st4" d="M1903.4,517.3c-1.3,0-2.5,0-3.8,0.1c-0.9,0.1-1.8,0.1-2.6,0.4c-3.3,1.1-4.8,5-5.8,8.3l1.1,1.6
		c1.7,3.4,4.6,6.1,8.2,7.1c1.9,0.5,3.9,0.6,5.9,0.6c2.4,0,4.9-0.1,7-1.2c2.1-1.1,3.8-3.5,3.2-5.8c-0.3-1.1-1-2.1-1.7-3.1
		c-1.5-1.9-2.9-3.8-4.4-5.7c-0.5-0.7-1-1.3-1.7-1.8c-0.8-0.5-1.9-0.6-2.9-0.6C1905.1,517.3,1904.3,517.3,1903.4,517.3"/>
	<path id="XMLID_205_" class="st5" d="M1760.8,575.5H356.4c-0.1,0.2-0.1,0.3-0.2,0.5h1404.7C1760.9,575.8,1760.9,575.7,1760.8,575.5
		 M408.1,455.5L408.1,455.5l0.4,0.4c0.1,0.1,0.3,0.2,0.4,0.3v-0.1C408.7,455.9,408.4,455.7,408.1,455.5 M407.7,454.9
		c0.1,0.1,0.1,0.2,0.2,0.3C407.8,455.1,407.7,455,407.7,454.9 M413.9,441.3c-1,2.5-3.1,4.4-4.7,6.6c0,0.1-0.1,0.1-0.1,0.2
		c0-0.1,0.1-0.1,0.1-0.2C410.8,445.7,412.9,443.8,413.9,441.3 M449.2,377.9c-6.7,9.2-13.3,18.3-20,27.5c-2.7,3.7-5.4,7.4-7.9,11.2
		c-3.4,5.1-6.7,10.7-6.9,16.8c-0.1,1.6,0.1,3.3,0,4.9c0.1-1.6-0.1-3.3,0-4.9c0.2-6.1,3.4-11.7,6.8-16.8c2.5-3.8,5.2-7.5,7.9-11.2
		C435.9,396.2,442.6,387.1,449.2,377.9 M465.1,356c-0.4,0.6-0.9,1.2-1.3,1.8c-0.5,0.7-1.1,1.5-1.6,2.2c0.5-0.7,1.1-1.5,1.6-2.2
		C464.2,357.2,464.7,356.6,465.1,356 M471.8,346.9c-0.8,1.1-1.5,2.1-2.3,3.2c-0.4,0.6-0.8,1.2-1.3,1.7c0.4-0.6,0.8-1.2,1.3-1.7
		C470.2,349,471,347.9,471.8,346.9 M502.2,304.7c-0.2,0.4-0.4,0.7-0.6,1.1c-0.5,0.8-1,1.7-1.5,2.5c0.5-0.8,1-1.7,1.5-2.5
		C501.9,305.4,502.1,305,502.2,304.7 M534.2,271.4c-3,2.8-6,5.7-9,8.6c-0.5,0.5-1,0.9-1.5,1.4c0.5-0.5,1-1,1.5-1.4
		C528.2,277.1,531.2,274.2,534.2,271.4 M554.2,253.5c-2.5,2.5-5.2,4.8-7.9,7.2C549.1,258.4,551.7,256,554.2,253.5 M594.5,211.4
		c-3.3,2.6-6.7,5.2-10,7.9C587.8,216.6,591.2,214.1,594.5,211.4 M626.5,183.2c-0.5,0.3-0.9,0.7-1.4,1c-8.5,6.3-15.5,14-23.3,21
		c7.8-7,14.8-14.7,23.3-21C625.6,183.9,626,183.6,626.5,183.2 M691.7,135.1c-2.9,2.1-5.7,4.2-8.6,6.3c-2.3,1.7-4.6,3.4-6.8,5.1
		c2.3-1.7,4.6-3.4,6.8-5.1C686,139.3,688.9,137.2,691.7,135.1 M745.2,100.8c-1.2,0.5-2.4,1-3.6,1.6c-9.9,4.5-19.2,10.5-28.2,16.8
		c-0.5,0.4-1.1,0.8-1.6,1.2c0.5-0.4,1.1-0.8,1.6-1.2c8.9-6.3,18.2-12.2,28.2-16.8C742.8,101.9,744,101.4,745.2,100.8 M780.8,77.5
		c-3.5,1.2-6.8,2.9-9.6,5.4c-0.9,0.8-1.8,1.7-2.6,2.7c0.8-0.9,1.7-1.8,2.6-2.7C774,80.4,777.3,78.7,780.8,77.5 M809,70.3
		c-1.8,0.8-3.5,1.6-5,2.1l-0.9,0.3c-0.3,0.1-0.6,0.2-0.8,0.2c-6.2,1.4-12.9,2.1-19.1,3.9c6.1-1.7,12.8-2.4,19.1-3.9
		C804.2,72.4,806.5,71.4,809,70.3 M820,67.6C820,67.6,820,67.7,820,67.6C819.9,67.7,820,67.6,820,67.6 M970.5,14
		c-51.6,13.3-101.3,31-148.8,52.9h-0.1h0.1C869.2,45,918.9,27.2,970.5,14 M970.9,13.9c-0.1,0-0.2,0-0.3,0.1
		C970.7,13.9,970.8,13.9,970.9,13.9 M971.3,13.8C971.3,13.8,971.2,13.8,971.3,13.8C971.2,13.8,971.3,13.8,971.3,13.8"/>
	<path id="XMLID_218_" class="st6" d="M730.7,575.5c-10.3-4.9-20.2-11.8-24-18.4c-3.5-6-3.6-13.4-5.3-20.2
		c5.7-1.6,11.5-2.4,17.4-2.4c9.9,0,19.9,2.2,28.8,6.6c3.5,1.7,6.9,3.8,10.6,5.1c4.5,1.6,9.2,2.1,13.9,2.1c5.1,0,10.3-0.6,15.4-0.8
		c2.8-0.2,5.5-0.2,8.3-0.2c13.4,0,26.8,1.9,39.6,5.5c4,1.1,8,2.5,11.3,5c5.9,4.6,8.6,12.3,13.6,17.7L730.7,575.5 M1020.1,556.7
		c19.5,0,38.9-3.3,54-15.1c3.2-2.5,6.1-5.3,9.8-7c4.6-2.1,9.8-2.2,14.9-2.2c20.4-0.1,40.7-0.2,61-0.2h0.3c1.8,0,3.7,0.1,5.1,1.2
		c1.2,1,1.7,2.6,2.2,4.1c2.8,8.9,5.6,18.8,1.5,27.1c-2.6,5.3-7.2,8.7-12.7,11H970.3c-3.2-6,0.9-14.5,7.3-17.7c4-2,8.5-2.6,13-2.6
		c3.1,0,6.3,0.3,9.4,0.5C1006.6,556.3,1013.4,556.7,1020.1,556.7 M1544.3,514.5c0.6-1.2,3.1-1.8,3.1-1.8c3.2,0,6.3,0,9.5-0.1h0.2
		c0.8,0,1.6,0,2.2,0.4c1.4,0.8,1.6,2.7,1.7,4.3c0,1.5,0.1,3,0.1,4.5c0,1.3,0.1,2.7-0.5,3.8c-1,1.8-3.2,2.6-5.2,2.9
		c-1.4,0.2-2.7,0.4-4.1,0.4c-2.1,0-4.2-0.3-6.1-1.2c-3.2-1.4-5.8-4.4-6.1-7.9c-0.1-1.5,0.2-3,1.2-4.2c0.7-0.9,1.9-1.4,3-1.4
		C1543.7,514.3,1544,514.4,1544.3,514.5 M801.3,534c-1.7,0-3.5-1.1-5-2c-2.4-1.4-5.1-2.5-7.9-2.8c-2.8-1-5.5-1.9-8.3-2.9
		c-3.5-1.2-7.1-2.5-9.4-5.4c-2.3-2.9-2.4-7.8,0.8-9.7c1.3-0.8,2.8-0.9,4.3-1c3.9-0.3,7.7-0.7,11.6-0.7c2.3,0,4.6,0.1,6.9,0.4
		c6.1,0.8,12.2,3.1,16.6,7.4c0.9,0.9,1.8,2,1.8,3.2c0.1,3.1-4.1,4.1-5.9,6.5c-1.6,2-1.6,5.2-3.9,6.4
		C802.4,533.9,801.8,534,801.3,534 M1410,518.4c-2.2,0-4.4-1.1-5.7-2.9c-1.2-1.8-1.4-4.1-2.8-5.7c-1-1.2-2.7-1.9-3.3-3.4
		c-0.8-2,1-4.3,3.1-4.8c0.5-0.1,1.1-0.2,1.6-0.2c1.6,0,3.2,0.5,4.7,1c1.2,0.4,2.3,0.8,3.5,1.1c0,0,4.2,4.5,5.7,6.7
		c0.4,0.6,0.7,1.2,0.8,1.9c0.2,1.2-0.5,2.4-1.4,3.4c-1.6,1.7-3.7,2.9-6,3C1410.1,518.4,1410,518.4,1410,518.4 M844.5,516
		c12.1,0,23.5-5.3,34.7-9.8c8.3-3.3,17.2-6.2,26-6.2c3.2,0,6.4,0.4,9.6,1.3c5.7,1.6,10.8,4.9,15.8,8c3.1,2,6.5,4.5,6.7,8.1
		c0.4,5.7-6.6,8.6-12.2,9.7c-7.2,1.5-14.5,2.9-21.7,4.4c-6.8,1.4-15,4.1-16.1,10.9c-0.2,1.3-0.2,2.9-1.2,3.8
		c-0.6,0.6-1.5,0.7-2.4,0.7h-0.9c-5.8-0.5-11.5-2.3-16.5-5.4c-2-1.2-3.9-2.6-6.1-3.4c-2.1-0.7-4.4-0.7-6.7-1
		c-6.2-0.8-15.5-3.3-20-5.9c-5.1-2.9-3.4-12.1,2-14.4c1.7-0.7,3.6-0.9,5.5-0.9c1.1,0,2.2,0.1,3.3,0.1L844.5,516 M547,560.9
		c-2.4,0-4.8-0.2-7-1c-2.9-1-5.3-3-7.7-4.9c-12.1-9.9-24.2-19.8-36.4-29.7c-0.7-0.6-1.4-1.2-1.8-2c-1.7-3.5,3.1-6.3,6-8.9
		c5.8-5.3,4.2-14.9,0.2-21.5c-4-6.7-10.7-17.1-7-23.1c0,0,4.5-3.5,7.7-3.5c0.3,0,0.6,0,0.9,0.1c3.3,0.7,6,3.1,8.9,4.8
		c6.1,3.6,13.1,4.3,20.3,4.3c2.4,0,4.7-0.1,7.1-0.2c2.4-0.1,4.7-0.2,7.1-0.2c1.2,0,2.5,0,3.7,0.1c2.3,0.1,4.7,0.3,6.9,1.3
		c2.7,1.2,4.8,3.4,6.9,5.4c11.7,11.4,26.3,19.8,42.1,24c15.9,4.3,33.3,4.8,47,13.9c-1.2,12.1,10,21.5,14,32.9
		c0.8,2.4,1.3,4.9,2.2,7.2c2.2,6.2,6.7,11,11.4,15.5h-91.2c-0.1-0.3-0.2-0.6-0.3-0.8c-1.4-3.9-1.7-8.8-5.2-11.2
		c-1.6-1.1-3.7-1.4-5.7-1.7c-6.6-0.8-13.2-1.2-19.8-1.2c-2,0-4.1,0-6.1,0.1C549.8,560.9,548.4,560.9,547,560.9 M1448.3,463.6
		l-0.5-0.7C1448,463.1,1448.1,463.4,1448.3,463.6 M1473,514.6c-1.3,0-2.6-0.4-3.9-0.8c-9.3-3.1-18.7-6.2-28-9.3
		c-3.5-1.1-7.2-2.5-9.1-5.6c-0.8-1.4-1.2-3-1.6-4.6c-0.9-4.1-1.9-8.1-2.8-12.2c-0.8-3.3-1.5-6.7-0.9-10.1c0.6-3.3,2.9-6.6,6.3-7.2
		c1.4-0.3,2.9,0,4.4-0.3c2-0.3,3.7-1.6,5.6-2.2c0.6-0.2,1.3-0.3,2-0.3c1,0,2,0.3,2.7,0.9c-0.1-0.1-0.1-0.2-0.2-0.3l0.3,0.4l-0.1-0.1
		c2.7,4.6,7.9,7.2,13,9c5.2,1.8,10.8,3.2,15.2,6.5c3.4,2.5,5.9,5.9,8.3,9.3c2.7,3.8,5.5,8.2,4.9,12.8c-0.8,5.9-6.5,9.6-11.7,12.6
		c-1.1,0.6-2.3,1.3-3.5,1.5L1473,514.6 M988.3,432.2c-0.8,0-1.7-0.1-2.5-0.2c-5.1-0.8-9.5-3.7-13.8-6.5c-3.4-2.3-6.9-4.6-9.1-8
		c-1.7-2.7-2.7-6-5.2-7.8c-3-2.2-7.1-1.7-10.7-2.5c-4-0.9-7.4-3.5-10.6-6c-1.1-0.9-2.3-1.8-2.9-3.1c-0.5-1.1-0.5-2.3-0.5-3.5v-6.1
		c0-1.5,0-3.2,0.8-4.5c1-1.7,2.9-2.6,4.7-3.2c3.4-1.1,7-1.7,10.5-1.7c3.4,0,6.7,0.5,9.9,1.5l0.4-0.4c4.3,2.2,9.3,1.8,14.1,2
		c4.8,0.2,10.1,1.4,12.7,5.5c1.3,2.1,1.7,4.8,3.3,6.7c4.3,5.4,14.8,2.4,18.3,8.4c0.8,1.3,1,2.9,1.1,4.4c0.4,6.4-1.4,13.1-5.7,18
		C999.4,429.5,993.9,432.2,988.3,432.2 M1170,100.7c-5.6,0-11.1-0.2-16.6-0.4c-3.5-0.1-7.2-0.3-10.3-1.9c-2.6-1.4-4.7-3.7-7-5.5
		c-3.8-3-8.3-4.7-12.5-7.1c-7.4-4.2-13.5-10.6-17.4-18.1l5.9-3.1c8.8-5.9,19.2-9.5,29.7-10.3c1.5-0.1,3.1-0.2,4.6-0.2
		c16.5,0,32.6,6.2,48.1,12.3c10.1,4,22,10.4,21.9,21.2c0,1-0.1,1.9-0.6,2.8c-0.6,1.1-1.8,1.8-3,2.3
		C1199.6,99.3,1184.8,100.7,1170,100.7 M1060.5-4.3c-0.7,0.1-1.3,0.2-1.9,0.3c-29.6,4.5-58.7,10.4-87.3,17.7h-0.1
		c-0.1,0-0.2,0.1-0.3,0.1s-0.2,0-0.3,0.1h-0.1c-51.6,13.3-101.3,31-148.8,52.9h-0.1c-0.6,0.3-1.1,0.5-1.6,0.8h-0.1
		c1.5,0.4,2.8,1.4,3.5,3.3c3.1,8.1,0.4,17.5,3.9,25.6c1.7,3.9,5.2,7.5,9.3,7.5h0.4c2.7-0.1,5.1-1.8,7.5-3.3
		c13.3-8.5,29.1-12.8,44.9-12.8c12.4,0,24.8,2.7,36,8.1c-1.9,9.7,2.3,20.3,10.3,26c5,3.6,11.5,5.7,14.5,11
		c3.2,5.8,0.9,13.3-3.2,18.6c-4.1,5.2-9.8,9.1-14.3,14c-15.1,16.2-15,44.3,0.3,60.3c5.4,5.7,12.2,9.7,19,13.7
		c11.9,3.8,24.2,6.2,36.6,7c1.6,0.1,3.3,0.2,4.5,1.2c0.8,0.6,1.3,1.6,1.8,2.5c5.6,10.3,11.9,20.9,21.7,27.2c2.7,1.8,5.6,3.1,8.3,5
		c3.6,2.5,6.5,5.7,9.4,8.9c10.7,11.6,21.3,23.3,32,34.9c2.7,3,5.5,6,7.3,9.5c4.3,8.2,3.5,18.1,3.3,27.4c-0.2,11.2,0.7,22.5,2.7,33.5
		c0.3,1.6,0.6,3.2,0.5,4.9c-0.1,1.2-0.5,2.3-0.9,3.5c-2.8,6.7-10.1,11-17.3,11c-2.4,0-4.7-0.5-6.9-1.4c-3.1-1.4-5.8-3.7-8.4-5.9
		c-4-3.4-7.9-6.8-11.5-10.5c-5.2-5.5-9.6-11.8-15.8-16c-6.1-4.2-13.5-6-20.4-8.8c-10.4-4.2-19.8-10.5-27.6-18.5
		c-0.8-0.8-1.6-1.7-2.1-2.7c-0.6-1.2-0.7-2.6-0.7-3.9c-0.2-6.2,0.6-12.4-0.6-18.5c-0.9-4.5-2.8-8.6-5-12.7
		c-7.7,3.6-16.1,4.6-24.8,4.6c-7.9,0-15.9-0.8-23.7-1.3c-2-0.1-4.1-0.2-6.2-0.2c-15.6,0-32,3.5-40.4,16.2
		c-5.6,8.4-6.6,19.7-14.1,26.4c-5.7,5.1-13.5,6.2-21.4,6.2c-2.9,0-5.9-0.2-8.8-0.3c-6.2-0.3-12.5-0.5-18.8-0.5
		c-47.3,0-94.6,9.2-138.4,27c-5.5,2.2-11.1,4.8-14.6,9.5c-7.5,10.2-1.7,24.8-4.4,37.2c-2.9,13.4-16.3,22.8-29.9,24.2
		c-1.5,0.2-3,0.2-4.5,0.2c-12.1,0-24-4.9-34.2-11.5c-4.8-3.1-9.5-6.7-14.8-8.7c-5.2-2-10.7-2.4-16.2-2.9
		c-21.5-1.7-42.9-3.5-64.4-5.2c-4.6-0.4-9.3-0.7-13.9-0.7c-4.3,0-8.6,0.3-12.8,1.2c-10.3,2.3-19.4,8.1-29.1,12.3
		c-4.8,2.1-10.9,5.1-16.2,5.5h-0.6c-0.8,0-1.4-0.1-2-0.3v0.1c-0.2,0.3-0.4,0.8-0.6,1.1c-20.3,38.1-37.7,77.6-52.1,118.3h1404.4
		c-4.7-13.8-9.6-26.2-14.8-38.9c-5.3-12.9-10.9-25.8-16.8-38.4c0,0,0-0.1-0.1-0.1c-8.3-1.6-16.5-3.9-24.4-6.8
		c-4-1.5-8.2-6.9-4.4-8.8l0.4-1.3c2.5-6.5,6.6-12.2,11.9-16.7c-3.8-7.4-7.8-14.7-11.8-22v-0.3v0.3c-0.1,0.8-0.3,1.5-0.5,2.2
		c-1.3,3.3-5,5-7.1,7.9l0.1,0.2c-0.9,1-2.3,1.6-3.7,1.6c-0.4,0-0.8-0.1-1.2-0.2c-1.4-0.4-2.6-1.4-4.1-1.5h-1.5c-0.3,0-0.6,0-0.9-0.1
		c-1-0.3-1.7-1.1-2.4-1.8c-0.9-1-1.8-2.1-2.2-3.4c-0.2-0.8-0.3-1.6-0.3-2.5c-0.1-2.5-0.2-5,0.4-7.3c0.6-2.4,2.1-4.7,4.3-5.7
		c1.2-0.5,2.5-0.7,3.8-0.7h1.4c2.6,0.1,5.3,0.4,7.8,0.9c-7.1-12.4-14.6-24.7-22.3-36.7c-4.8,0.2-9.7-0.3-13.9,1.9
		c-2.6,1.4-4.6,3.7-6.6,6c-11.8,13.6-26,27-43.9,28.9c-1.4,0.2-2.9,0.2-4.3,0.2c-16.3,0-31.6-9.5-44.6-19.8
		c-14.1-11.2-27.9-24-45.3-28.9c-7.7-2.1-15.7-2.6-23.8-2.6c-2.8,0-5.5,0.1-8.3,0.1c-2.8,0.1-5.5,0.1-8.3,0.1
		c-9.9,0-19.5-0.7-28.6-4.3c-7.1-2.8-13.3-7.3-19.3-12c-24.9-19.4-47.9-46.8-46.2-78.3c0.4-7.7,2.8-16.1,9.3-20.5
		c3.9-2.6,8.7-3.4,13.3-4c9.8-1.2,19.7-1.8,29.6-1.8c6,0,12,0.2,18,0.7c1.8,0.1,3.7,0.3,5.6,0.3c3.6,0,7.1-0.5,9.9-2.6
		c3.4-2.5,5-6.8,8-9.8c12.1-12.1,39.3,0.7,46.8-14.7c1.6-3.4,1.6-7.4,1.6-11.2c0-2.3-0.1-4.7-0.1-7c-18.2-16.5-37.1-32.3-56.6-47.3
		c-8.6-6.6-17.3-13-26.1-19.3c-3.1-1.6-6.1-3.2-9.1-5c-0.1,0-0.1-0.1-0.2-0.1c-0.6-0.4-1.2-0.8-1.9-1.1c-0.4-0.3-0.9-0.6-1.3-0.8
		c-0.3-0.2-0.5-0.3-0.8-0.5l-3.6-2.4l-0.9-0.6l-2.4-1.8c-2.9-2.2-5.8-4.6-8.5-7.1c-39.7-26-81.6-48.9-125.4-68.3
		c-38.4-17.1-78.3-31.5-119.3-43h-0.1c-0.1,0-0.1,0-0.2-0.1h-2.9c-20,0-43.4,5.9-43.4,5.9c-3.8,0.7-7.6,1-11.4,1
		c-13.8,0-27.7-4.3-38.9-12.4c-3.2-2.3-6.2-5-7.6-8.6c-0.9-2.3-1.1-4.8-0.6-7.2c0.1-0.5,0.2-0.9,0.4-1.3c-0.6-0.1-1.2-0.2-1.9-0.3
		C1059.2-4.1,1059.9-4.2,1060.5-4.3"/>
	<path id="XMLID_219_" class="st7" d="M1060.5-3.7c-0.2,0.3-0.3,0.7-0.4,1.3c-0.5,2.4-0.3,4.9,0.6,7.2c1.4,3.6,4.5,6.3,7.6,8.6
		c11.2,8.1,25.1,12.4,38.9,12.4c3.8,0,7.7-0.3,11.4-1c0,0,23.4-5.9,43.4-5.9h2.9c-32.7-9-66.1-16.5-100.2-21.9
		C1063.4-3.2,1061.9-3.4,1060.5-3.7C1060.5-3.6,1060.5-3.7,1060.5-3.7"/>
	<path id="XMLID_220_" class="st7" d="M1146.4,54.2c-1.5,0-3.1,0.1-4.6,0.2c-10.6,0.8-20.9,4.4-29.7,10.3l-5.9,3.1
		c3.9,7.5,10,13.9,17.4,18.1c4.2,2.4,8.7,4.1,12.5,7.1c2.3,1.8,4.4,4.1,7,5.5c3.1,1.6,6.8,1.8,10.3,1.9c5.5,0.2,11.1,0.4,16.6,0.4
		c14.9,0,29.6-1.4,42.8-7.9c1.2-0.6,2.4-1.2,3-2.3c0.5-0.8,0.6-1.8,0.6-2.8c0.1-10.9-11.8-17.3-21.9-21.2
		C1179,60.4,1162.9,54.2,1146.4,54.2"/>
	<path id="XMLID_221_" class="st7" d="M1160.1,532.1h-0.3c-20.3,0.1-40.7,0.2-61,0.2c-5,0-10.3,0.1-14.9,2.2c-3.7,1.7-6.6,4.5-9.8,7
		c-15.1,11.8-34.5,15.1-54,15.1c-6.7,0-13.5-0.4-20-0.9c-3.1-0.3-6.3-0.5-9.4-0.5c-4.6,0-9,0.6-13,2.6c-6.4,3.2-10.6,11.7-7.3,17.7
		h185.8c5.5-2.3,10.2-5.6,12.7-11c4-8.4,1.3-18.3-1.5-27.1c-0.5-1.5-1-3.1-2.2-4.1C1163.8,532.2,1161.9,532.1,1160.1,532.1"/>
	<path id="XMLID_222_" class="st7" d="M1447.4,462.5c0.1,0.1,0.1,0.2,0.2,0.3l0.1,0.1L1447.4,462.5"/>
	<path id="XMLID_223_" class="st7" d="M1447.8,463l0.5,0.7C1448.1,463.4,1448,463.1,1447.8,463"/>
	<path id="XMLID_224_" class="st7" d="M1444.9,461.9c-0.7,0-1.4,0.1-2,0.3c-1.9,0.6-3.6,1.9-5.6,2.2c-1.4,0.3-2.9,0-4.4,0.3
		c-3.3,0.6-5.7,3.9-6.3,7.2c-0.6,3.3,0.2,6.8,0.9,10.1c0.9,4.1,1.9,8.1,2.8,12.2c0.4,1.6,0.7,3.2,1.6,4.6c1.9,3.1,5.6,4.5,9.1,5.6
		c9.3,3.1,18.7,6.2,28,9.3c1.3,0.4,2.6,0.8,3.9,0.8c0.3,0,0.6,0,0.8-0.1c1.3-0.2,2.4-0.8,3.5-1.5c5.2-2.9,10.9-6.7,11.7-12.6
		c0.6-4.7-2.2-9-4.9-12.8c-2.4-3.4-4.9-6.9-8.3-9.3c-4.5-3.3-10-4.6-15.2-6.5c-5.1-1.8-10.3-4.4-13-9
		C1446.9,462.2,1445.9,461.9,1444.9,461.9"/>
	<path id="XMLID_225_" class="st7" d="M1403,501.4c-0.5,0-1.1,0.1-1.6,0.2c-2.1,0.5-3.9,2.8-3.1,4.8c0.6,1.5,2.2,2.2,3.3,3.4
		c1.4,1.6,1.6,4,2.8,5.7c1.2,1.8,3.4,2.9,5.7,2.9h0.3c2.3-0.1,4.5-1.3,6-3c0.8-0.9,1.6-2.1,1.4-3.4c-0.1-0.7-0.4-1.3-0.8-1.9
		c-1.4-2.2-5.7-6.7-5.7-6.7c-1.2-0.4-2.3-0.8-3.5-1.1C1406.1,501.9,1404.5,501.4,1403,501.4"/>
	<path id="XMLID_226_" class="st7" d="M1557.2,512.6h-0.2c-3.2,0-6.3,0-9.5,0.1c0,0-2.5,0.6-3.1,1.8c-0.3-0.1-0.7-0.2-1-0.2
		c-1.1,0-2.2,0.6-3,1.4c-1,1.1-1.3,2.7-1.2,4.2c0.3,3.5,2.9,6.5,6.1,7.9c1.9,0.9,4,1.2,6.1,1.2c1.4,0,2.8-0.1,4.1-0.4
		c2-0.4,4.2-1.1,5.2-2.9c0.6-1.2,0.6-2.5,0.5-3.8c0-1.5-0.1-3-0.1-4.5c-0.1-1.6-0.3-3.5-1.7-4.3
		C1558.7,512.7,1558,512.6,1557.2,512.6"/>
	<path id="XMLID_229_" class="st7" d="M1521.4,216.4c0,2.3,0.1,4.7,0.1,7c0,3.8,0.1,7.7-1.6,11.2c-7.5,15.4-34.7,2.5-46.8,14.7
		c-3,3-4.6,7.2-8,9.8c-2.8,2.1-6.3,2.6-9.9,2.6c-1.9,0-3.8-0.1-5.6-0.3c-6-0.5-12-0.7-18-0.7c-9.9,0-19.8,0.6-29.6,1.8
		c-4.7,0.6-9.4,1.4-13.3,4c-6.4,4.3-8.8,12.7-9.3,20.5c-1.7,31.5,21.4,58.9,46.2,78.3c6,4.7,12.3,9.2,19.3,12
		c9.1,3.6,18.8,4.3,28.6,4.3c2.8,0,5.5-0.1,8.3-0.1c2.8-0.1,5.5-0.1,8.3-0.1c8.1,0,16.1,0.4,23.8,2.6c17.4,4.8,31.1,17.7,45.3,28.9
		c13,10.3,28.3,19.8,44.6,19.8c1.4,0,2.9-0.1,4.3-0.2c17.9-1.9,32.1-15.3,43.9-28.9c1.9-2.2,3.9-4.6,6.6-6c4.2-2.2,9.1-1.7,13.9-1.9
		c-5.4-8.4-10.8-16.6-16.5-24.8C1617.3,314.2,1572.1,262.4,1521.4,216.4 M1410.1,130.3c2.7,2.5,5.6,4.9,8.5,7.1
		c-0.9-0.7-1.7-1.3-2.6-2c-1.7-1.3-3.3-2.7-4.9-4.2C1410.8,130.9,1410.4,130.6,1410.1,130.3"/>
	<path id="XMLID_230_" class="st7" d="M501,466.2c-3.3,0-7.7,3.5-7.7,3.5c-3.7,6,3,16.5,7,23.1c4,6.7,5.6,16.3-0.2,21.5
		c-2.9,2.6-7.7,5.4-6,8.9c0.4,0.8,1.1,1.4,1.8,2c12.1,9.9,24.3,19.8,36.4,29.7c2.4,1.9,4.8,3.9,7.7,4.9c2.2,0.8,4.6,1,7,1
		c1.4,0,2.8-0.1,4.2-0.1c2-0.1,4.1-0.1,6.1-0.1c6.6,0,13.2,0.4,19.8,1.2c2,0.2,4,0.5,5.7,1.7c3.5,2.4,3.8,7.2,5.2,11.2
		c0.1,0.3,0.2,0.6,0.3,0.8h91.2c-4.8-4.6-9.2-9.4-11.4-15.5c-0.9-2.4-1.4-4.8-2.2-7.2c-3.9-11.4-15.2-20.9-14-32.9
		c-13.7-9.1-31.1-9.6-47-13.9c-15.8-4.3-30.4-12.6-42.1-24c-2.1-2.1-4.2-4.2-6.9-5.4c-2.1-1-4.5-1.2-6.9-1.3
		c-1.2-0.1-2.4-0.1-3.7-0.1c-2.4,0-4.7,0.1-7.1,0.2c-2.4,0.1-4.7,0.2-7.1,0.2c-7.2,0-14.2-0.7-20.3-4.3c-2.9-1.7-5.6-4.1-8.9-4.8
		C501.6,466.2,501.3,466.2,501,466.2"/>
	<path id="XMLID_231_" class="st7" d="M718.7,534.7c-5.9,0-11.7,0.8-17.4,2.4c1.8,6.7,1.8,14.2,5.3,20.2c3.8,6.5,13.7,13.5,24,18.4
		h129.7c-5-5.4-7.7-13.2-13.6-17.7c-3.3-2.5-7.3-3.9-11.3-5c-12.9-3.7-26.3-5.5-39.6-5.5c-2.8,0-5.5,0.1-8.3,0.2
		c-5.1,0.3-10.3,0.8-15.4,0.8c-4.8,0-9.4-0.5-13.9-2.1c-3.7-1.3-7.1-3.4-10.6-5.1C738.6,536.9,728.7,534.7,718.7,534.7"/>
	<path id="XMLID_232_" class="st7" d="M787.4,509.6c-3.9,0-7.7,0.3-11.6,0.7c-1.5,0.1-3,0.3-4.3,1c-3.1,1.9-3.1,6.8-0.8,9.7
		c2.3,2.9,5.9,4.2,9.4,5.4c2.8,1,5.5,1.9,8.3,2.9c2.7,0.3,5.4,1.4,7.9,2.8c1.6,0.9,3.3,2,5,2c0.6,0,1.1-0.1,1.6-0.4
		c2.2-1.2,2.3-4.4,3.9-6.4c1.9-2.4,6-3.5,5.9-6.5c0-1.3-0.9-2.4-1.8-3.2c-4.4-4.3-10.5-6.6-16.6-7.4
		C792,509.7,789.7,509.6,787.4,509.6"/>
	<path id="XMLID_233_" class="st7" d="M905.3,500c-8.8,0-17.7,2.9-26,6.2c-11.3,4.5-22.6,9.8-34.7,9.8h-0.3c-1.1,0-2.2-0.1-3.3-0.1
		c-1.9,0-3.8,0.1-5.5,0.9c-5.3,2.3-7,11.6-2,14.4c4.5,2.6,13.9,5.1,20,5.9c2.2,0.3,4.5,0.3,6.7,1s4.1,2.2,6.1,3.4
		c5,3,10.7,4.9,16.5,5.4h0.9c0.9,0,1.8-0.2,2.4-0.7c1-0.9,1-2.5,1.2-3.8c1.1-6.8,9.3-9.6,16.1-10.9c7.2-1.5,14.5-2.9,21.7-4.4
		c5.6-1.1,12.6-4,12.2-9.7c-0.3-3.6-3.7-6.1-6.7-8.1c-5-3.2-10.1-6.4-15.8-8C911.7,500.3,908.5,500,905.3,500"/>
	<path id="XMLID_234_" class="st7" d="M818.4,67.5c-2.8,0-6.1,1.4-9.3,2.8c-2.5,1.1-4.9,2.2-6.7,2.6c-6.2,1.4-12.9,2.1-19.1,3.9
		c-0.8,0.2-1.6,0.5-2.4,0.8c-3.5,1.2-6.8,2.9-9.6,5.4c-0.9,0.8-1.8,1.7-2.6,2.7c-1.2,1.3-2.4,2.7-3.7,4c-5.4,5.3-12.7,8.2-19.7,11.3
		c-1.2,0.5-2.4,1-3.6,1.6c-10,4.5-19.2,10.5-28.2,16.8c-0.5,0.4-1.1,0.8-1.6,1.2c-4.2,3-8.3,6-12.5,9.1c-2.5,1.9-5.1,3.8-7.7,5.6
		c-2.9,2.1-5.7,4.2-8.6,6.3c-2.3,1.7-4.6,3.4-6.8,5.1c-0.7,0.5-1.3,1-2,1.5c-15.8,11.6-31.6,23.3-47.4,35c-0.1,0.1-0.3,0.2-0.4,0.3
		c-0.5,0.3-0.9,0.7-1.4,1c-8.5,6.3-15.5,14-23.3,21c-1.6,1.4-3.2,2.8-4.9,4.2c-0.8,0.7-1.6,1.3-2.4,2c-3.3,2.6-6.7,5.2-10,7.9
		c-2,1.6-3.9,3.2-5.8,4.9c-6.1,5.5-11,12.1-15.6,18.9c-2.7,3.9-5.7,7.3-8.8,10.4c-2.5,2.5-5.2,4.8-7.9,7.2
		c-3.3,2.9-6.7,5.7-10.1,8.8c-0.7,0.6-1.4,1.3-2.1,1.9c-3,2.8-6,5.7-9,8.6c-0.5,0.5-1,1-1.5,1.4c-4.8,4.7-9.7,9.4-14.5,14.1
		c-1.7,1.6-3.4,3.3-4.7,5.2c-0.9,1.2-1.6,2.6-2.3,3.9c-0.2,0.4-0.4,0.7-0.6,1.1c-0.5,0.8-1,1.7-1.5,2.5c-5.2,8.4-12,16-17.8,24
		c-3.5,4.9-7.1,9.7-10.6,14.6c-0.8,1.1-1.5,2.1-2.3,3.2c-0.4,0.6-0.8,1.2-1.3,1.7c-1,1.4-2.1,2.8-3.1,4.2c-0.4,0.6-0.9,1.2-1.3,1.8
		c-0.5,0.7-1.1,1.5-1.6,2.2c-4.3,6-8.6,11.9-13,17.9c-6.7,9.2-13.3,18.3-20,27.5c-2.7,3.7-5.4,7.4-7.9,11.2
		c-3.4,5.1-6.6,10.7-6.8,16.8c-0.1,1.6,0.1,3.3,0,4.9c-0.1,0.8-0.2,1.5-0.4,2.2c-0.1,0.2-0.2,0.5-0.3,0.7c-1,2.5-3.1,4.4-4.7,6.6
		c0,0.1-0.1,0.1-0.1,0.2c-1.1,1.6-1.8,3.4-1.8,4.9v0.5c0,0.1,0,0.2,0.1,0.3v0.2c0,0.2,0.1,0.3,0.1,0.4c0,0.1,0.1,0.2,0.1,0.3
		c0,0,0,0.1,0.1,0.1c0.1,0.1,0.1,0.2,0.2,0.3l0.1,0.1l0.2,0.2c0.2,0.2,0.5,0.4,0.9,0.6c0.5,0.2,1.2,0.3,2,0.3h0.6
		c5.3-0.4,11.4-3.4,16.2-5.5c9.7-4.2,18.8-10,29.1-12.3c4.2-0.9,8.5-1.2,12.8-1.2c4.6,0,9.3,0.4,13.9,0.7
		c21.5,1.7,42.9,3.5,64.4,5.2c5.5,0.4,11.1,0.9,16.2,2.9c5.4,2,10,5.6,14.8,8.7c10.2,6.6,22.1,11.5,34.2,11.5c1.5,0,3-0.1,4.5-0.2
		c13.6-1.4,27-10.8,29.9-24.2c2.7-12.4-3.1-27,4.4-37.2c3.5-4.7,9.2-7.3,14.6-9.5c43.8-17.8,91.1-27,138.4-27
		c6.3,0,12.5,0.2,18.8,0.5c2.9,0.1,5.8,0.3,8.8,0.3c7.9,0,15.7-1.1,21.4-6.2c7.5-6.7,8.5-18,14.1-26.4c8.4-12.7,24.8-16.2,40.4-16.2
		c2.1,0,4.2,0.1,6.2,0.2c7.8,0.4,15.9,1.3,23.7,1.3c8.6,0,17.1-1,24.8-4.6c2.2,4,4.1,8.2,5,12.7c1.2,6.1,0.4,12.3,0.6,18.5
		c0,1.3,0.1,2.7,0.7,3.9c0.5,1,1.3,1.9,2.1,2.7c7.8,8,17.2,14.4,27.6,18.5c6.9,2.8,14.3,4.6,20.4,8.8c6.2,4.3,10.6,10.6,15.8,16
		c3.6,3.8,7.6,7.2,11.5,10.5c2.6,2.2,5.3,4.5,8.4,5.9c2.2,1,4.5,1.4,6.9,1.4c7.2,0,14.5-4.3,17.3-11c0.5-1.1,0.8-2.3,0.9-3.5
		c0.2-1.6-0.2-3.3-0.5-4.9c-2.1-11-3-22.3-2.7-33.5c0.2-9.3,1.1-19.1-3.3-27.4c-1.9-3.5-4.6-6.6-7.3-9.5
		c-10.7-11.6-21.4-23.3-32-34.9c-2.9-3.2-5.9-6.4-9.4-8.9c-2.7-1.9-5.6-3.2-8.3-5c-9.9-6.4-16.1-16.9-21.7-27.2
		c-0.5-0.9-1-1.9-1.8-2.5c-1.2-1-2.9-1.1-4.5-1.2c-12.4-0.8-24.8-3.1-36.6-7c-6.9-3.9-13.6-8-19-13.7c-15.3-16-15.5-44.2-0.3-60.3
		c4.5-4.9,10.2-8.7,14.3-14s6.4-12.8,3.2-18.6c-3-5.4-9.5-7.5-14.5-11c-8-5.8-12.2-16.3-10.3-26c-11.2-5.4-23.6-8.1-36-8.1
		c-15.8,0-31.6,4.3-44.9,12.8c-2.3,1.5-4.7,3.1-7.5,3.3h-0.4c-4.2,0-7.7-3.6-9.3-7.5c-3.5-8.2-0.8-17.5-3.9-25.6
		c-0.7-2-2-2.9-3.5-3.3c-0.1,0-0.2,0-0.3-0.1L818.4,67.5"/>
	<path id="XMLID_235_" class="st7" d="M949,379.2c-3.6,0-7.1,0.6-10.5,1.7c-1.9,0.6-3.8,1.5-4.7,3.2c-0.7,1.3-0.8,3-0.8,4.5v6.1
		c0,1.2,0,2.4,0.5,3.5c0.6,1.3,1.7,2.2,2.9,3.1c3.2,2.5,6.6,5.1,10.6,6c3.6,0.8,7.7,0.3,10.7,2.5c2.6,1.9,3.5,5.2,5.2,7.8
		c2.2,3.4,5.7,5.8,9.1,8c4.3,2.8,8.7,5.8,13.8,6.5c0.8,0.1,1.7,0.2,2.5,0.2c5.6,0,11.1-2.7,14.8-7c4.2-4.9,6.1-11.6,5.7-18
		c-0.1-1.5-0.3-3.1-1.1-4.4c-3.5-6-13.9-3-18.3-8.4c-1.6-1.9-1.9-4.6-3.3-6.7c-2.5-4.1-7.9-5.3-12.7-5.5c-4.8-0.2-9.8,0.2-14.1-2
		l-0.4,0.4C955.8,379.7,952.4,379.2,949,379.2"/>
	<path id="XMLID_236_" class="st7" d="M1685.7,431.3c-1.3,0-2.6,0.1-3.8,0.7c-2.2,1-3.7,3.3-4.3,5.7c-0.6,2.4-0.5,4.9-0.4,7.3
		c0,0.8,0.1,1.7,0.3,2.5c0.4,1.3,1.3,2.4,2.2,3.4c0.7,0.8,1.4,1.6,2.4,1.8c0.3,0.1,0.6,0.1,0.9,0.1h1.5c1.5,0.2,2.7,1.2,4.1,1.5
		c0.4,0.1,0.8,0.2,1.2,0.2c1.4,0,2.8-0.6,3.7-1.6l-0.1-0.2c2.1-2.9,5.7-4.6,7.1-7.9c0.3-0.7,0.5-1.5,0.5-2.2
		c-1.9-3.5-3.9-6.9-5.9-10.4c-2.6-0.5-5.2-0.7-7.8-0.9L1685.7,431.3"/>
	<path id="XMLID_237_" class="st7" d="M1712.6,464.5c-5.2,4.5-9.4,10.3-11.9,16.7l-0.4,1.3c-3.8,1.9,0.5,7.4,4.4,8.8
		c7.9,2.9,16.1,5.2,24.4,6.8C1723.9,486.8,1718.4,475.6,1712.6,464.5"/>
	<path id="XMLID_246_" class="st8" d="M1700.8,442.2v0.3c4,7.3,8,14.6,11.8,22c-3.8-7.4-7.8-14.7-11.8-22V442.2 M1672.8,395.5
		L1672.8,395.5c7.6,12,15,24.3,22.2,36.7c1.5,0.3,2.9,0.6,4.3,0.9c0.5,0.1,1.1,0.3,1.3,0.7c-0.3-0.4-0.8-0.6-1.3-0.7
		c-0.5-0.1-1-0.3-1.5-0.4l-1.5-0.3c-0.4-0.1-0.9-0.2-1.3-0.3C1687.9,419.7,1680.5,407.4,1672.8,395.5 M1429.7,144.8
		c2.9,1.8,6,3.4,9.1,5l1.2,0.6c-0.1,0-0.2-0.1-0.2-0.1c-0.3-0.2-0.7-0.3-1-0.5c-0.1,0-0.2-0.1-0.2-0.1c-0.1,0-0.1-0.1-0.2-0.1
		c-0.1-0.1-0.3-0.1-0.4-0.2s-0.3-0.1-0.4-0.2s-0.2-0.1-0.4-0.2c-1-0.5-2.1-1.1-3.1-1.7c-0.3-0.2-0.5-0.3-0.8-0.5
		c-0.9-0.5-1.7-1-2.6-1.5c-0.1-0.1-0.2-0.1-0.3-0.2C1430.2,145.1,1430,145,1429.7,144.8C1429.8,144.9,1429.8,144.9,1429.7,144.8
		C1429.8,144.9,1429.8,144.9,1429.7,144.8 M1427.6,143.6c0.6,0.4,1.2,0.8,1.9,1.1C1428.9,144.3,1428.3,143.9,1427.6,143.6
		 M1426.3,142.7c0.4,0.3,0.9,0.6,1.3,0.8c-0.1-0.1-0.3-0.2-0.4-0.3c0,0-0.1,0-0.1-0.1c-0.1-0.1-0.2-0.1-0.3-0.2
		c-0.1,0-0.1-0.1-0.2-0.1S1426.4,142.8,1426.3,142.7 M1421.9,139.8l3.6,2.4c-0.1,0-0.1-0.1-0.2-0.1c-0.1-0.1-0.3-0.2-0.4-0.3
		c-0.3-0.2-0.5-0.4-0.8-0.5c-0.3-0.2-0.7-0.5-1-0.7c-0.1-0.1-0.2-0.2-0.4-0.3C1422.5,140.2,1422.2,140,1421.9,139.8
		C1422,139.8,1421.9,139.8,1421.9,139.8 M1060.5-4.3c-0.7,0.1-1.3,0.2-2,0.3c0.6,0.1,1.2,0.2,1.9,0.3c0.1-0.2,0.2-0.3,0.3-0.5
		C1060.7-4.2,1060.6-4.2,1060.5-4.3C1060.6-4.2,1060.6-4.3,1060.5-4.3"/>
	<path id="XMLID_247_" class="st9" d="M1060.7-4.1c-0.1,0.1-0.2,0.3-0.3,0.5c0.1-0.1,0.1-0.2,0.2-0.3L1060.7-4.1L1060.7-4.1
		C1060.8-4.1,1060.8-4.1,1060.7-4.1C1060.8-4.1,1060.8-4.1,1060.7-4.1"/>
	<path id="XMLID_260_" class="st9" d="M1521.4,216.4c50.6,46,95.9,97.8,134.8,154.3c5.6,8.1,11.1,16.4,16.5,24.8h0.1
		c0-0.1-0.1-0.1-0.1-0.2l0.1-0.2h-0.1c-5.3-8-10.8-16.4-16.5-24.5C1617.3,314,1572.1,262.4,1521.4,216.4 M1438.8,149.8
		c0.3,0.2,0.7,0.3,1,0.5C1439.4,150.2,1439.1,150,1438.8,149.8 M1437.9,149.4c0.1,0.1,0.3,0.1,0.4,0.2
		C1438.2,149.6,1438.1,149.5,1437.9,149.4 M1434.1,147.4c1,0.6,2.1,1.1,3.1,1.7c-0.7-0.4-1.4-0.7-2.1-1.1
		C1434.8,147.7,1434.4,147.5,1434.1,147.4 M1430.7,145.4c0.8,0.5,1.7,1,2.6,1.5c-0.2-0.1-0.4-0.2-0.6-0.4c-0.6-0.3-1.1-0.6-1.7-1
		C1430.9,145.5,1430.8,145.5,1430.7,145.4 M1429.8,144.9l0.6,0.3h-0.1l-0.1-0.1C1430.1,145.1,1430,145,1429.8,144.9 M1427.1,143.2
		C1427.1,143.2,1427.2,143.3,1427.1,143.2C1427.2,143.3,1427.1,143.2,1427.1,143.2 M1426.5,142.9c0.1,0,0.1,0.1,0.2,0.1
		C1426.7,143,1426.7,142.9,1426.5,142.9C1426.6,142.9,1426.6,142.9,1426.5,142.9 M1424.9,141.8c0.1,0.1,0.3,0.2,0.4,0.3l-0.1-0.1
		C1425.1,141.9,1425,141.9,1424.9,141.8 M1423.1,140.6c0.3,0.2,0.7,0.5,1,0.7c-0.2-0.1-0.4-0.3-0.6-0.4
		C1423.4,140.8,1423.2,140.7,1423.1,140.6 M1422,139.8c0.3,0.2,0.5,0.4,0.8,0.5c-0.1-0.1-0.3-0.2-0.4-0.3
		C1422.2,140,1422.1,139.9,1422,139.8 M1411.1,131.2c1.6,1.4,3.3,2.8,4.9,4.2c-0.8-0.7-1.7-1.3-2.5-2l-2.1-1.8
		C1411.3,131.4,1411.2,131.3,1411.1,131.2"/>
	<path id="XMLID_261_" class="st6" d="M1165.3,19C1165.4,19,1165.3,19,1165.3,19"/>
	<path id="XMLID_262_" class="st8" d="M1165.3,19C1165.3,19,1165.4,19,1165.3,19"/>
	<path id="XMLID_265_" class="st8" d="M1700.9,439.5C1700.9,439.6,1700.9,439.6,1700.9,439.5
		C1700.9,439.6,1700.9,439.6,1700.9,439.5 M1700.6,433.8c0.1,0.2,0.2,0.4,0.2,0.6C1700.8,434.2,1700.7,434,1700.6,433.8"/>
	<path id="XMLID_266_" class="st9" d="M1694.9,432.2c2,3.4,3.9,6.9,5.9,10.4v-3c0-1.6,0-3.1-0.1-4.6v-0.5c0-0.2-0.1-0.4-0.2-0.6
		c-0.3-0.4-0.8-0.6-1.3-0.7C1697.9,432.7,1696.4,432.4,1694.9,432.2"/>
	<path id="XMLID_269_" class="st9" d="M1713.1,464.1c-0.2,0.1-0.3,0.2-0.5,0.4C1712.8,464.4,1712.9,464.3,1713.1,464.1"/>
</g>
</svg>
