<?xml version="1.0" encoding="utf-8"?>
<!-- Generator: Adobe Illustrator 19.0.0, SVG Export Plug-In . SVG Version: 6.00 Build 0)  -->
<svg version="1.1" id="Layer_1" xmlns="http://www.w3.org/2000/svg" xmlns:xlink="http://www.w3.org/1999/xlink" x="0px" y="0px"
	 viewBox="-254 52.5 449.3 457.5" style="enable-background:new -254 52.5 449.3 457.5;" xml:space="preserve">
<style type="text/css">
	.st0{fill:#F16E24;}
	.st1{fill:#E35525;}
	.st2{fill:#E6E6E6;}
	.st3{fill:#F1BC4A;}
</style>
<g id="XMLID_308_">
	<path id="XMLID_333_" class="st0" d="M-145.3,480.5l25.9-269.7l307.3,29.5L162,510L-145.3,480.5z"/>
	<path id="XMLID_1180_" class="st1" d="M-119.4,210.8l-25.9,269.7l-108.7-122l25.9-269.8L-119.4,210.8z"/>
	<path id="XMLID_331_" class="st2" d="M-119.4,210.8L-119.4,210.8l307.2,29.4l-108.6-122l-307.3-29.5L-119.4,210.8z"/>
	<g id="XMLID_327_">
		<path id="XMLID_330_" class="st0" d="M-126.9,259.5l5.8-60.1l316.4,30.4l-5.8,60.1L-126.9,259.5z"/>
		<path id="XMLID_1179_" class="st1" d="M-121.1,199.4l-5.8,60.1l-111.9-125.6l5.8-60.2L-121.1,199.4z"/>
		<path id="XMLID_328_" class="st0" d="M-121.1,199.4L-121.1,199.4l316.3,30.3L83.4,104.1L-233,73.7L-121.1,199.4z"/>
	</g>
	<path id="XMLID_326_" class="st1" d="M-124.1,259.8l307.2,29.5l-1.2,12.1l-307.2-29.5L-124.1,259.8z"/>
	<path id="XMLID_325_" class="st3" d="M48,499l-75.8-7.3l21.2-220.6l75.8,7.3L48,499z"/>
	<path id="XMLID_324_" class="st3" d="M72.9,278.8l-75.8-7.3l5.8-60.2l75.8,7.3L72.9,278.8z"/>
	<path id="XMLID_323_" class="st3" d="M3,211.2l75.7,7.3L-33.1,92.9l-75.8-7.3L3,211.2z"/>
	<path id="XMLID_322_" class="st3" d="M-155.4,160.9L-155.4,160.9l316.3,30.3l-43.3-48.6l-316.4-30.4L-155.4,160.9z"/>
	<path id="XMLID_321_" class="st3" d="M-198.8,112.2l43.4,48.7l-5.7,60.1l4.1,4.6l-21,218.3l-43.4-48.7l21-218.2l-4.1-4.7
		L-198.8,112.2z"/>
	<path id="XMLID_320_" class="st3" d="M-198.8,112.2l43.4,48.7l-5.7,60.1l4.1,4.6l-21,218.3l-43.4-48.7l21-218.2l-4.1-4.7
		L-198.8,112.2z"/>
	<g id="XMLID_315_">
		<path id="XMLID_319_" class="st3" d="M-63.9,118.1l10.2,47.9l109.1,10.5l22.8-44.7L-63.9,118.1z"/>
		<path id="XMLID_1178_" class="st3" d="M-63.9,118.2l10.2,47.8l-38.6-43.3l-10.2-47.9L-63.9,118.2z"/>
		<path id="XMLID_1177_" class="st3" d="M-63.9,118.2l10.2,47.8l-38.6-43.3l-10.2-47.9L-63.9,118.2z"/>
		<path id="XMLID_316_" class="st3" d="M-63.9,118.2L-63.9,118.2l142.1,13.6L36,88.1l-138.5-13.3L-63.9,118.2z"/>
	</g>
	<g id="XMLID_310_">
		<path id="XMLID_314_" class="st3" d="M-45.4,82.8l7.1,33.6l76.5,7.3l16-31.3L-45.4,82.8z"/>
		<path id="XMLID_1176_" class="st3" d="M-45.4,82.8l7.1,33.6l-27-30.4l-7.2-33.5L-45.4,82.8z"/>
		<path id="XMLID_1175_" class="st3" d="M-45.4,82.8l7.1,33.6l-27-30.4l-7.2-33.5L-45.4,82.8z"/>
		<path id="XMLID_311_" class="st3" d="M-45.4,82.8l99.5,9.6L24.5,61.8l-97-9.3L-45.4,82.8z"/>
	</g>
	<path id="XMLID_309_" class="st3" d="M68,290.6l-76.1-7.3l1.2-12.1l76.1,7.3L68,290.6z"/>
</g>
</svg>
