<?xml version="1.0" encoding="utf-8"?>
<!-- Generator: Adobe Illustrator 19.0.0, SVG Export Plug-In . SVG Version: 6.00 Build 0)  -->
<svg version="1.1" id="Layer_1" xmlns="http://www.w3.org/2000/svg" xmlns:xlink="http://www.w3.org/1999/xlink" x="0px" y="0px"
	 viewBox="-385 186.2 188.8 188.8" style="enable-background:new -385 186.2 188.8 188.8;" xml:space="preserve">
<style type="text/css">
	.st0{fill:#F1F1F1;}
	.st1{fill:#D0D2D3;}
	.st2{fill:#D6D4DB;}
	.st3{fill:#CECBD3;}
	.st4{fill:#B3B2B9;}
</style>
<g id="XMLID_53_">
	<path id="XMLID_281_" class="st0" d="M-196.2,280.6c0,52.1-42.3,94.4-94.4,94.4s-94.4-42.3-94.4-94.4s42.3-94.4,94.4-94.4
		C-238.4,186.2-196.2,228.5-196.2,280.6"/>
	<path id="XMLID_280_" class="st1" d="M-326.3,322.9c-8.1-5.4-17.7-5.2-21.4,0.4c-3.7,5.6-0.2,14.5,7.9,19.8
		c8.1,5.4,17.7,5.2,21.4-0.4C-314.6,337.1-318.2,328.3-326.3,322.9"/>
	<path id="XMLID_279_" class="st1" d="M-298.5,343.9c-4-1.1-7.8,0.3-8.5,3.1s1.9,5.8,5.9,6.9c0.4,0.1,0.8,0.2,1.2,0.2
		c-0.3,0.2-0.4,0.5-0.5,0.8c-0.2,1.2,1.2,2.4,3.2,2.9c2,0.4,3.8-0.2,4.1-1.4c0.2-1-0.8-2.1-2.4-2.6c1.5-0.6,2.6-1.6,3-2.9
		C-291.8,348-294.5,344.9-298.5,343.9L-298.5,343.9z"/>
	<path id="XMLID_278_" class="st1" d="M-325,353.8c-2.6-1.7-5.6-1.9-6.6-0.4s0.3,4.2,2.9,5.9c2.6,1.7,5.6,1.9,6.6,0.4
		C-321,358.2-322.3,355.6-325,353.8"/>
	
		<ellipse id="XMLID_277_" transform="matrix(-0.8084 -0.5886 0.5886 -0.8084 -585.6628 262.5873)" class="st1" cx="-250.1" cy="226.6" rx="10.7" ry="8.3"/>
	<path id="XMLID_276_" class="st1" d="M-355.1,242.6c2.5-4.1,2-9-1.1-11c-3.2-2-7.8-0.2-10.4,3.9c-2.5,4.1-2,9,1.1,11
		C-362.3,248.4-357.7,246.7-355.1,242.6"/>
	<path id="XMLID_275_" class="st1" d="M-351.3,248.3c-1.2-0.7-2.9-0.1-3.8,1.4c-0.4,0.6-0.5,1.2-0.6,1.8c-1.8-0.9-4.3,0.1-5.6,2.3
		c-1.4,2.3-1.2,5.1,0.6,6.2s4.4,0.1,5.9-2.2c0.8-1.2,1-2.6,0.8-3.8c1.1,0.2,2.4-0.4,3.1-1.7C-349.9,250.8-350.1,249-351.3,248.3"/>
	
		<ellipse id="XMLID_274_" transform="matrix(-0.5261 0.8504 -0.8504 -0.5261 -317.9171 705.3531)" class="st1" cx="-355.5" cy="264.1" rx="1.9" ry="1.5"/>
	
		<ellipse id="XMLID_273_" transform="matrix(-4.891964e-02 0.9988 -0.9988 -4.891964e-02 42.9534 533.7294)" class="st1" cx="-232.6" cy="287.3" rx="26.7" ry="23.6"/>
	<path id="XMLID_272_" class="st1" d="M-305.4,267c1.9-0.7,3.2-2.5,3.2-4.6c0-2.7-2.2-4.9-4.9-4.9c-2.1,0-3.9,1.4-4.6,3.3
		c-0.6-0.1-1.1-0.2-1.7-0.2c-4.6,0-8.3,3.7-8.3,8.3s3.7,8.3,8.3,8.3s8.3-3.7,8.3-8.3C-305.2,268.2-305.3,267.6-305.4,267L-305.4,267
		z"/>
	<circle id="XMLID_106_" class="st1" cx="-296.8" cy="278.8" r="4.9"/>
	<circle id="XMLID_91_" class="st1" cx="-295.2" cy="265.9" r="2.8"/>
	<path id="XMLID_64_" class="st2" d="M-290.3,375h-0.3H-290.3 M-290,375h-0.2H-290 M-289.7,375h-0.2H-289.7 M-289.4,375h-0.2H-289.4
		 M-289.1,375h-0.2H-289.1 M-288.8,375h-0.2H-288.8 M-288.5,375h-0.2H-288.5 M-288.2,375h-0.2H-288.2 M-286.3,374.9
		c-0.6,0-1.2,0-1.8,0.1C-287.5,375-286.9,375-286.3,374.9 M-285.7,374.9h-0.6H-285.7 M-228.5,351.8
		C-228.6,351.8-228.6,351.8-228.5,351.8c-15.5,13.5-35.3,22-57.2,23.1C-263.9,373.8-244,365.3-228.5,351.8 M-290.6,186.2
		c-52.1,0-94.4,42.3-94.4,94.4c0,15.5,3.7,30.1,10.3,43c-6.6-12.9-10.3-27.5-10.3-43C-385,228.5-342.7,186.2-290.6,186.2
		c23.8,0,45.5,8.8,62.1,23.3C-245.1,195-266.8,186.2-290.6,186.2"/>
	<path id="XMLID_58_" class="st3" d="M-324.5,360.8c-1.3,0-2.8-0.5-4.2-1.4c-2.6-1.7-3.9-4.4-2.9-5.9c0.5-0.7,1.3-1,2.4-1
		c1.3,0,2.8,0.5,4.2,1.4c2.6,1.7,3.9,4.4,2.9,5.9C-322.5,360.5-323.4,360.8-324.5,360.8 M-362.6,247.3c-1,0-2-0.3-2.9-0.8
		c-3.2-2-3.7-6.9-1.1-11c1.8-3,4.8-4.7,7.4-4.7c1,0,2,0.3,2.9,0.8c3.2,2,3.7,6.9,1.1,11C-357,245.5-359.9,247.3-362.6,247.3
		 M-290.6,186.2c-52.1,0-94.4,42.3-94.4,94.4c0,15.5,3.7,30.1,10.3,43c15.6,30.5,47.4,51.4,84.1,51.4h2.4c0.6,0,1.2,0,1.8-0.1h0.6
		c21.8-1.1,41.7-9.6,57.1-23.1c-13.8,9.3-30.4,14.8-48.2,14.8c-21,0-40.3-7.6-55.3-20.1c-2.5-0.6-5.2-1.7-7.6-3.4
		c-6.3-4.2-9.9-10.6-9.3-15.8c-8.7-13.4-13.7-29.5-13.7-46.6c0-7,0.8-13.8,2.4-20.4c-0.1-0.1-0.2-0.1-0.4-0.2
		c-1.8-1.1-2.1-3.9-0.6-6.2c0.9-1.5,2.4-2.5,3.7-2.6c12-33,43.7-56.6,80.8-56.6c17.9,0,34.5,5.5,48.3,14.8
		C-245.1,195-266.8,186.2-290.6,186.2"/>
	<path id="XMLID_57_" class="st4" d="M-349,327.3c-0.6,5.2,3,11.6,9.3,15.8c2.5,1.6,5.1,2.8,7.6,3.4
		C-338.6,341-344.4,334.5-349,327.3"/>
	<path id="XMLID_56_" class="st4" d="M-329.1,352.4c-1.1,0-1.9,0.3-2.4,1c-1,1.5,0.3,4.2,2.9,5.9c1.4,0.9,2.9,1.4,4.2,1.4
		c1.1,0,1.9-0.3,2.4-1c1-1.5-0.3-4.2-2.9-5.9C-326.4,352.9-327.9,352.4-329.1,352.4"/>
	<path id="XMLID_55_" class="st4" d="M-359.2,230.8c-2.7,0-5.6,1.7-7.4,4.7c-2.5,4.1-2,9,1.1,11c0.9,0.5,1.9,0.8,2.9,0.8
		c2.7,0,5.6-1.7,7.4-4.7c2.5-4.1,2-9-1.1-11C-357.2,231-358.2,230.8-359.2,230.8"/>
	<path id="XMLID_54_" class="st4" d="M-357.6,251.2c-1.4,0.2-2.8,1.1-3.7,2.6c-1.4,2.3-1.2,5.1,0.6,6.2c0.1,0.1,0.2,0.1,0.4,0.2
		C-359.6,257.2-358.7,254.1-357.6,251.2"/>
</g>
</svg>
