<?xml version="1.0" encoding="utf-8"?>
<!-- Generator: Adobe Illustrator 16.0.0, SVG Export Plug-In . SVG Version: 6.00 Build 0)  -->
<svg version="1.2" baseProfile="tiny" id="Layer_1" xmlns="http://www.w3.org/2000/svg" xmlns:xlink="http://www.w3.org/1999/xlink"
	 x="0px" y="0px" width="380.5px" height="573.5px" viewBox="0 0 380.5 573.5" xml:space="preserve">
<g id="XMLID_1124_">
	<path id="XMLID_1131_" fill="#F16E24" d="M307.643,399.318L175.32,565.617L10.626,499.766L157.157,339.15L307.643,399.318z"/>
	<path id="XMLID_1130_" fill="#F16E24" d="M178.161,566.977l-166.176-66.1l-1.359-1.111l164.694,65.852L178.161,566.977z"/>
	<path id="XMLID_1129_" fill="#E35525" d="M307.643,399.318l0.125,3.707L178.161,566.977l-2.841-1.359L307.643,399.318z"/>
	<path id="XMLID_384_" fill="#FFFFFF" d="M256.493,355.333c0,0,0.494,32.989-86.857,100.448L0,455.535
		c0,0,14.827-6.303,33.605-17.545c0.124,0,0.124-0.123,0.248-0.123c5.189-3.09,10.625-6.549,16.185-10.256
		c0.371-0.246,0.741-0.494,1.236-0.742c25.452-17.543,52.509-42.252,60.292-71.411h144.926V355.333z"/>
	<path id="XMLID_383_" fill="#FFFFFF" d="M7.537,423.533c0,0,71.659-3.828,114.161-97.851l119.845,13.961
		c0,0-1.854,32.987-93.775,94.146L7.537,423.533z"/>
	<image width="196" height="85" id="XMLID_382_" xlink:href="CBCB04125DA0FBAC.png"  transform="matrix(1 0 0 1 49.5 354.5)">
	</image>
	<path id="XMLID_362_" fill="#FFFFFF" d="M256.863,193.605c0,0-54.733,131.336-193.111,130.966L38.054,195.953
		c0,0,9.267,0.247,22.857-2.471c3.953-0.741,8.154-1.729,12.602-3.088c33.359-9.761,79.443-37.065,87.721-112.185l78.703,95.011
		l2.842,3.459L256.863,193.605L256.863,193.605z"/>
	<path id="XMLID_361_" fill="#E6E6E6" d="M145.667,369.294c0,0,1.236-118.608,126.024-151.968l96.37,6.672
		c0,0-136.524,39.043-152.587,102.055L145.667,369.294z"/>
	<image width="194" height="258" id="XMLID_360_" xlink:href="CBCB04125DA0FBAB.png"  transform="matrix(1 0 0 1 58.5 15.5)">
	</image>
	<path id="XMLID_295_" fill="#FFFFFF" d="M252.416,124.292c-1.978,18.162-6.425,34.471-12.355,48.927
		c-23.722,57.945-70.053,86.239-70.053,86.239l-96.371-69.065l-1.976-1.483l-11.985-8.648
		c53.25-18.532,70.918-63.752,75.243-104.277c2.594-23.722,0.618-45.714-1.483-59.922C131.953,6.054,130.471,0,130.471,0
		l119.103,61.652C253.898,84.633,254.516,105.514,252.416,124.292L252.416,124.292z"/>
</g>
</svg>
