<svg id="Layer_1" xmlns="http://www.w3.org/2000/svg" viewBox="0 0 1920 1080"><style>.st0{fill:#e6e6e6}.st1{fill:#babcbe}.st2{fill:#d0d1d2}.st3{fill:#d0d1d1}.st4{fill:#17b591}.st5{fill:#f16e24}.st6{fill:#454547}.st7{fill:#e35525}.st8{fill:#a5a7aa}</style><g id="XMLID_443_"><path id="XMLID_1154_" class="st0" d="M1303.927 784.145l165.876 41.118-10.827 43.677-165.876-41.118z"/><path id="XMLID_1153_" class="st1" d="M1444.2 854l-10.8 43.7-27.5-41.9 10.8-43.6z"/><path id="XMLID_1152_" class="st1" d="M1497.2 867.2l-10.8 43.6L1459 869l10.8-43.7z"/><path id="XMLID_1151_" class="st1" d="M1386.9 839.8l-10.8 43.7-27.5-41.9 10.9-43.6z"/><path id="XMLID_1150_" class="st0" d="M1328.963 683.17l165.875 41.118-24.324 98.128-165.876-41.118z"/><path id="XMLID_1149_" class="st1" d="M1494.8 724.3l-24.3 98.1-10.7-16.6 24.3-98.1z"/><path id="XMLID_1148_" class="st2" d="M1494.8 724.3L1329 683.2l-10.8-16.6 165.9 41.1z"/><path id="XMLID_1147_" class="st3" d="M1470.5 822.4l-165.9-41.1-10.7-16.7 165.9 41.2z"/><path id="XMLID_1146_" class="st1" d="M1412.8 699.4l-8.8-2.2-3.7-5.8 8.7 2.2z"/><path id="XMLID_1145_" class="st4" d="M1431.716 891.336l-39.795-9.865 8.037-32.417 39.795 9.865z"/><path id="XMLID_1144_" class="st1" d="M1329 683.2l-24.4 98.1-10.7-16.7 24.3-98z"/><path id="XMLID_397_" class="st5" d="M1407.2 826.9s15.1 8.9 22.7 28.8l20.7-15s-6-13.6-11.5-21.3l-10.2 3.7-21.7 3.8z"/><path id="XMLID_396_" class="st5" d="M1418.4 826s20 23.4 39.1 22v-21.4s-19.9-5.1-22.1-18l-17 17.4z"/><path id="XMLID_1143_" class="st6" d="M1304.617 781.164l35.62 8.83-.72 2.912-35.622-8.83z"/><path id="XMLID_1142_" class="st6" d="M1435.31 813.575l35.62 8.83-.72 2.912-35.62-8.83z"/><path id="XMLID_395_" class="st7" d="M1405 812.7l-6.3 6.4c-4.8 1-9.9 2.5-15.4 4.6l2 9c29.5-11.5 49.3-4 49.3-4l16-20.7c-29.9-6.1-45.6 4.7-45.6 4.7z"/><path id="XMLID_394_" class="st5" d="M1383.3 823.7l19.7-20s15.7-10.8 45.7-4.7l-16 20.7c-.1 0-19.9-7.5-49.4 4z"/><path id="XMLID_1141_" class="st8" d="M1380.965 696.025l47.85 11.862-1.877 7.57-47.85-11.86z"/><g id="XMLID_460_"><path id="XMLID_1140_" class="st7" d="M1316.5 770.9l-.8 13.1 32.9 33.8.8-11.8z"/><path id="XMLID_1139_" class="st5" d="M1390.3 808.6l-40.9-2.6-32.9-35.1 41 2.6z"/><path id="XMLID_1138_" class="st5" d="M1348.6 817.8l41 2.7.7-11.9-40.9-2.6z"/></g><g id="XMLID_456_"><path id="XMLID_1137_" class="st7" d="M1323.8 762.6l.2 7.1 36.6 29.8-.2-5.8z"/><path id="XMLID_1136_" class="st5" d="M1401.4 791.6l-41 2.1-36.6-31.1 40.9-2.1z"/><path id="XMLID_1135_" class="st5" d="M1360.6 799.5l41-2.1-.2-5.8-41 2.1z"/></g><path id="XMLID_1134_" class="st3" d="M1486.4 910.8l-165.9-41.1-27.4-41.8L1459 869z"/><path id="XMLID_1133_" class="st2" d="M1331.335 825.93l165.876 41.118-10.826 43.677-165.876-41.12z"/><path id="XMLID_1132_" class="st1" d="M1331.4 826.1l-10.9 43.6-27.4-41.8 10.8-43.7z"/><path id="XMLID_393_" class="st5" d="M1332.5 762.1s27.3 24.4 60.6 17.9l24.7-21.8s-35 5.9-57.4-7.4l-27.9 11.3z"/><path id="XMLID_392_" class="st5" d="M1380.2 841.4l-36.3-8.4c-.1-3-.6-6-1.4-8.9-4.1-15.2-16.1-28.9-17.9-30.8l24 24.6 30.2 2c.7 2.5 1.1 4.9 1.4 7.1 1.1 8.3 0 14.4 0 14.4z"/><path id="XMLID_391_" class="st7" d="M1397.4 788.2c-45.4.9-64.8-26.1-64.8-26.1.7.6 25.2 22.1 56 18.6l8.8 7.5z"/><path id="XMLID_390_" class="st7" d="M1380.2 826.9l-37.7-2.8c-4.1-15.2-16.1-28.9-17.9-30.8l24 24.6 30.2 2c.7 2.4 1.2 4.8 1.4 7z"/><path id="XMLID_389_" class="st5" d="M1403.8 792.6s18 17 57 20.2l19.9-16s-31.6-1.6-47.2-10.8l-29.7 6.6z"/><path id="XMLID_388_" class="st7" d="M1440.4 809.6l-1.4 1.9c-18.3-3.5-27.4-11.6-27.4-11.6.6-.2 1.2-.4 1.9-.5 6.1 3.3 15 7.4 26.9 10.2z"/><path id="XMLID_387_" class="st7" d="M1444.1 845.5l-2.5 1.8s-21.9-13.1-24-21h1.1c1.6 1.8 12.5 13.8 25.4 19.2z"/><path id="XMLID_386_" class="st5" d="M1457.5 784.6s18.4 12.9 35.5 40.3l22.6-.4s-11.8-26.4-29-37.4l-29.1-2.5z"/><path id="XMLID_385_" class="st7" d="M1470.3 795.9c1.6 1.6 3.2 3.4 5 5.3l-1.8 1.4c-2.4-2.7-4.6-5.1-6.7-7.2 1.2.3 2.4.4 3.5.5z"/></g></svg>