<svg id="Layer_1" xmlns="http://www.w3.org/2000/svg" viewBox="0 0 1920 1080"><style>.st0{fill:#f16e24}.st1{fill:#FFF}.st2{fill:#ec6e24}</style><g id="XMLID_1_"><g id="XMLID_270_"><path id="XMLID_39_" class="st0" d="M1523.4 730.6l-12.7-23.8c-3-5.6-2-12.5 2.5-17 5.6-5.6 14.8-5.6 20.4 0 4.5 4.5 5.5 11.4 2.5 17l-12.7 23.8z"/><circle id="XMLID_38_" class="st1" cx="1523.4" cy="700.1" r="10.5"/><path id="XMLID_271_" class="st2" d="M1523.4 704.3h-4.2v-2.8h4.2v2.8zm6.4-2.8v-1.4l-.7-3.5h-11.3l-.7 3.5v1.4h.7v4.2h7.1v-4.2h2.8v4.2h1.4v-4.2h.7zm-.7-7.1h-11.3v1.4h11.3v-1.4z"/></g><g id="XMLID_75_"><path id="XMLID_33_" class="st0" d="M373.4 845.9l-12.7-23.8c-3-5.6-2-12.5 2.5-17 5.6-5.6 14.8-5.6 20.4 0 4.5 4.5 5.5 11.4 2.5 17l-12.7 23.8z"/><circle id="XMLID_32_" class="st1" cx="373.4" cy="815.4" r="10.5"/><path id="XMLID_76_" class="st2" d="M373.4 819.7h-4.2v-2.8h4.2v2.8zm6.3-2.9v-1.4l-.7-3.5h-11.3l-.7 3.5v1.4h.7v4.2h7.1v-4.2h2.8v4.2h1.4v-4.2h.7zm-.7-7h-11.3v1.4H379v-1.4z"/></g><g id="XMLID_67_"><path id="XMLID_27_" class="st0" d="M887.1 506.3l-12.7-23.8c-3-5.6-2-12.5 2.5-17 5.6-5.6 14.8-5.6 20.4 0 4.5 4.5 5.5 11.4 2.5 17l-12.7 23.8z"/><circle id="XMLID_26_" class="st1" cx="887.1" cy="475.8" r="10.5"/><path id="XMLID_68_" class="st2" d="M887.1 480.1h-4.2v-2.8h4.2v2.8zm6.4-2.8v-1.4l-.7-3.5h-11.3l-.7 3.5v1.4h.7v4.2h7.1v-4.2h2.8v4.2h1.4v-4.2h.7zm-.7-7.1h-11.3v1.4h11.3v-1.4z"/></g><g id="XMLID_59_"><path id="XMLID_21_" class="st0" d="M1288.7 623.1l-12.7-23.8c-3-5.6-2-12.5 2.5-17 5.6-5.6 14.8-5.6 20.4 0 4.5 4.5 5.5 11.4 2.5 17l-12.7 23.8z"/><circle id="XMLID_20_" class="st1" cx="1288.7" cy="592.6" r="10.5"/><path id="XMLID_60_" class="st2" d="M1288.7 596.8h-4.2V594h4.2v2.8zm6.3-2.8v-1.4l-.7-3.5H1283l-.7 3.5v1.4h.7v4.2h7.1V594h2.8v4.2h1.4V594h.7zm-.7-7.1H1283v1.4h11.3v-1.4z"/></g><g id="XMLID_51_"><path id="XMLID_15_" class="st0" d="M1582.4 962.2l-12.7-23.8c-3-5.6-2-12.5 2.5-17 5.6-5.6 14.8-5.6 20.4 0 4.5 4.5 5.5 11.4 2.5 17l-12.7 23.8z"/><circle id="XMLID_14_" class="st1" cx="1582.4" cy="931.7" r="10.5"/><path id="XMLID_52_" class="st2" d="M1582.4 935.9h-4.2v-2.8h4.2v2.8zm6.4-2.8v-1.4l-.7-3.5h-11.3l-.7 3.5v1.4h.7v4.2h7.1v-4.2h2.8v4.2h1.4v-4.2h.7zm-.7-7.1h-11.3v1.4h11.3V926z"/></g><g id="XMLID_43_"><path id="XMLID_9_" class="st0" d="M337.6 1009.3l-12.7-23.8c-3-5.6-2-12.5 2.5-17 5.6-5.6 14.8-5.6 20.4 0 4.5 4.5 5.5 11.4 2.5 17l-12.7 23.8z"/><circle id="XMLID_8_" class="st1" cx="337.6" cy="978.8" r="10.5"/><path id="XMLID_44_" class="st2" d="M337.6 983.1h-4.2v-2.8h4.2v2.8zm6.3-2.9v-1.4l-.7-3.5h-11.3l-.7 3.5v1.4h.7v4.2h7.1v-4.2h2.8v4.2h1.4v-4.2h.7zm-.7-7h-11.3v1.4h11.3v-1.4z"/></g></g></svg>