<svg id="Layer_1" xmlns="http://www.w3.org/2000/svg" viewBox="0 0 1920 1080"><style>.st0{fill:#f1bc4a}.st1{fill:#f16e24}.st2{fill:#e35525}</style><g id="XMLID_334_"><g id="XMLID_356_"><path id="XMLID_361_" class="st0" d="M621 304.1l-96.5 7.7 15 39.1 72.9-5.9z"/><path id="XMLID_360_" class="st0" d="M648.8 326.1l-8.6 40.9-27.8-22 8.6-40.9z"/><path id="XMLID_359_" class="st0" d="M640.2 367l-72.9 5.8-27.8-21.9 72.9-5.9z"/><path id="XMLID_358_" class="st0" d="M648.8 326.1l-8.6 40.9-27.8-22 8.6-40.9z"/><path id="XMLID_357_" class="st0" d="M640.2 367l-72.9 5.8-27.8-21.9 72.9-5.9z"/></g><g id="XMLID_350_"><path id="XMLID_355_" class="st0" d="M639.4 332.1l-140.3 11.2 21.8 56.8 106-8.4z"/><path id="XMLID_354_" class="st0" d="M679.8 364l-12.5 59.6-40.4-31.9 12.5-59.6z"/><path id="XMLID_353_" class="st0" d="M667.3 423.6l-106 8.5-40.4-32 106-8.4z"/><path id="XMLID_352_" class="st0" d="M679.8 364l-12.5 59.6-40.4-31.9 12.5-59.6z"/><path id="XMLID_351_" class="st0" d="M667.3 423.6l-106 8.5-40.4-32 106-8.4z"/></g><g id="XMLID_346_"><path id="XMLID_349_" class="st1" d="M346.26 390.017l424.836-33.94 8.01 100.28-424.835 33.938z"/><path id="XMLID_348_" class="st2" d="M840.7 411.2l8 100.2-69.6-55-8-100.3z"/><path id="XMLID_347_" class="st2" d="M848.7 511.4l-424.8 34-69.7-55.1 424.9-33.9z"/></g><path id="XMLID_345_" class="st1" d="M796.9 780.4c-50.6 1.7-100.6 4.1-149.7 7.3-35.4 2.3-70.4 5-104.9 8.1-51.5 4.6-102 10-151.3 16.2l-24.5-306.3-.5-6.1-.8-10.1v-.3l137.9-11 13.8-1.1 88.8-7.1 16.1-1.3 149.2-12v.3l4.8 60.2 21.1 263.2z"/><path id="XMLID_344_" class="st2" d="M859.1 778.8c-3.7.1-7.3.2-11 .2-9.8.2-19.5.5-29.3.7-7.3.2-14.6.4-21.9.7l-21-263.2-3.5-44-1.3-16.2v-.4l.4.3 23.1 18.2 31.3 24.8 11.8 9.3.2 3 21.2 266.6z"/><path id="XMLID_343_" class="st2" d="M365.077 489.13l405.897-32.425 1.322 16.546L366.4 505.68z"/><path id="XMLID_342_" class="st0" d="M647.2 787.8c-35.4 2.3-70.4 5-104.9 8.1l-20.6-258.3-3.5-44-1.3-16.2v-.4l88.8-7.1 16.1-1.3v.3l1.3 16.2 3.5 44 20.6 258.7z"/><path id="XMLID_341_" class="st0" d="M495.058 378.144l102.47-8.187 7.98 99.88-102.47 8.186z"/><path id="XMLID_340_" class="st0" d="M516.793 477.004l104.864-8.378 1.33 16.647-104.864 8.377z"/><g id="XMLID_335_"><path id="XMLID_339_" class="st0" d="M848.1 779c-9.8.2-19.5.5-29.3.7l-21.1-264.3-3.2-40.3v-.1l31.3 24.8v.1l1 13.2L848.1 779z"/><path id="XMLID_338_" class="st0" d="M825.9 399.3l8 100.3-31.4-24.8-8-100.2z"/><path id="XMLID_337_" class="st0" d="M848.1 779c-9.8.2-19.5.5-29.3.7l-21.1-264.3-3.2-40.3v-.1l31.3 24.8v.1l1 13.2L848.1 779z"/><path id="XMLID_336_" class="st0" d="M825.9 399.3l8 100.3-31.4-24.8-8-100.2z"/></g></g></svg>