<svg id="Layer_1" xmlns="http://www.w3.org/2000/svg" viewBox="0 0 1920 1080"><style>.st0{fill:#373536}.st1{fill:#f1f1f1}.st2{fill:#d0d1d2}.st3{fill:#babcbe}.st4{fill:#454547}.st5{fill:#a5a7aa}.st6{fill:#f1f1f2}.st7{fill:#d0d2d3}.st8{fill:#f26e21}.st9{fill:#fff}.st10{fill:#929497}.st11{fill:#fff;stroke:#fff}.st11,.st12{stroke-miterlimit:10}.st12{fill:none;stroke:#bbbdbf;stroke-width:.5}</style><g id="XMLID_1191_"><path id="XMLID_1202_" class="st0" d="M1153.3 938.1H764.8V693.5c0-6.8 5.5-12.3 12.3-12.3H1141c6.8 0 12.3 5.5 12.3 12.3v244.6z"/><path id="XMLID_1201_" class="st1" d="M780.1 702.3H1138v211.5H780.1z"/><path id="XMLID_1200_" class="st2" d="M1203.3 984.5H714.8l50-46.4h388.5z"/><path id="XMLID_1199_" class="st3" d="M1189.9 994.4H728.2c-4.1 0-13.4-2.7-13.4-6.1v-3.8h488.5v3.8c0 3.4-9.3 6.1-13.4 6.1z"/><g id="XMLID_1196_"><path id="XMLID_1198_" class="st4" d="M1145.6 957.8h-373l19.4-18.1h334.1z"/><path id="XMLID_1197_" class="st0" d="M772.6 957.8h373v2.5h-373z"/></g><path id="XMLID_1195_" class="st3" d="M788.4 939.7l-25.8 23.9h-21.3l25.7-23.9z"/><path id="XMLID_1194_" class="st3" d="M1129.6 939.7l25.7 23.9h21.4l-25.7-23.9z"/><path id="XMLID_1193_" class="st3" d="M1016.4 976H901.8l11-11.3h92.5z"/><path id="XMLID_1192_" class="st5" d="M988.9 988.5h-59.7c-2.2 0-4-1.8-4-4s1.8-4 4-4h59.7c2.2 0 4 1.8 4 4 .1 2.2-1.7 4-4 4z"/></g><path id="XMLID_1190_" class="st6" d="M780.1 702.3H1138v211.5H780.1z"/><path class="st7" d="M780.1 702.3H1138v9.8H780.1z"/><circle class="st8" cx="786.3" cy="707.2" r="2.1"/><circle class="st8" cx="793.3" cy="707.2" r="2.1"/><circle class="st8" cx="800.1" cy="707.2" r="2.1"/><path class="st8" d="M855.7 740.8h206.8v19.1H855.7zm0 25h145.5v19.1H855.7zm148.5 19h58.3v55.5h-58.3zm-148.5 99.9h145.5v15.4H855.7z"/><path class="st9" d="M855.7 784.8h145.5v99.8H855.7zm155-37h43v5.1h-43zm-147.9 24.9h38.4v5.1h-38.4z"/><path class="st10" d="M882 789.5h38.4v5.1H882zm-7.5-67.3h26.6v8.8h-26.6zm7.5 74.1h21.4v1.2H882zm0 2.9h21.4v1.2H882zm0 3h21.4v1.2H882zm0 12.1h44.1v5.1H882zm0 6.8h21.4v1.2H882zm0 3h21.4v1.2H882zm0 2.9h21.4v1.2H882z"/><path class="st9" d="M1010.7 792.3h43v5.1h-43zm0 10.7h43v5.1h-43zm0 10.1h43v5.1h-43zm-39.3 76.7h19.2v5.1h-19.2zm-23.8 0h19.2v5.1h-19.2zm-23.7 0h19.2v5.1h-19.2z"/><circle class="st9" cx="946.6" cy="750.4" r="4.9"/><circle class="st11" cx="928.9" cy="750.4" r="4.9"/><circle class="st11" cx="964.3" cy="750.4" r="4.9"/><path class="st10" d="M862.8 789.5h13.5V803h-13.5zm0 25h13.5V828h-13.5zm19.2 25.6h28.7v5.1H882zm0 6.8h21.4v1.2H882zm0 3h21.4v1.2H882zm0 2.9h21.4v1.2H882zm-19.2-12.5h13.5v13.5h-13.5z"/><path class="st12" d="M855.7 810.1h145.4m-145.4 26h145.4"/><path class="st10" d="M882 865.9h50.7v5.1H882zm0 6.7h21.4v1.2H882zm0 3h21.4v1.2H882zm0 3h21.4v1.2H882zm-19.2-12.5h13.5v13.5h-13.5z"/><path class="st12" d="M855.7 861.8h145.4"/><path class="st8" d="M865.6 729.6c0-.1 0-.3-.1-.4-.1-.7-.5-1.3-1-1.7-.5-.4-1.1-.7-1.8-.7H862.4c-.6 0-1.1.2-1.5.5-.6.4-.9 1.1-.9 1.8 0 1.2 1 2 2 2 .3 0 .5 0 .7-.1.5-.2.9-.7.9-1.3 0-.6-.4-1-.8-1.1h-.2c-.5 0-1 .3-1 .8h-.7c0-.8.7-1.4 1.6-1.4h.2c.8.1 1.5.7 1.5 1.7s-.6 1.7-1.5 2c-.2.1-.5.1-.7.1-1.3 0-2.3-.9-2.6-2.1 0-.2-.1-.4-.1-.6 0-.3.1-.7.2-1 .2-.6.6-1 1.1-1.4-1 .6-1.6 1.7-1.6 2.9 0 1.9 1.5 3.4 3.3 3.5h.4c.2 0 .4-.1.5-.1h.1c.1 0 .2-.1.3-.1.1 0 .2-.1.3-.1.1 0 .1-.1.2-.1.1-.1.2-.1.3-.2l.1-.1c.6-.6 1-1.4 1-2.3.1-.3.1-.4.1-.5"/><path class="st8" d="M866.4 723c.4 0 .7.3.7.7 0 .4-.3.7-.7.7-.4 0-.7-.3-.7-.7 0-.4.3-.7.7-.7m-5.8 3.6s.1 0 .1-.1l.1-.1s.1 0 .1-.1c.5-.2 1-.3 1.6-.3h6.6c.3 0 .5-.3.5-.6-.3-3.2-2.8-6-5.9-6.4-.3 0-.6.2-.6.5v.7c0 .1-.1.2-.2.3-.1.1-.2.1-.3.1-.1 0-.2 0-.3-.1-.1-.1-.1-.2-.1-.3v-.6c0-.3-.3-.6-.6-.5-3.4.5-6 3.4-6 6.9v.1c0 .9.2 1.8.5 2.6.7 1.8 2.1 3.2 3.9 3.9.1 0 .5.2 1.2.3h1c-1.8-.1-3.3-1.6-3.3-3.5 0-.4.1-.8.2-1.2.4-.5.9-1.2 1.5-1.6"/><path class="st7" d="M996.4 784.8h4.8v99.8h-4.8z"/><path class="st10" d="M997.3 798.3h3v32h-3z"/></svg>