<svg id="Layer_1" xmlns="http://www.w3.org/2000/svg" viewBox="0 0 1920 1080"><style>.st0{fill:#f16e24}.st1{fill:#e35525}.st2{fill:#FFF}.st3{opacity:.15;fill:#373536}.st4{fill:#e6e6e6}</style><g id="XMLID_1124_"><path id="XMLID_1131_" class="st0" d="M653.4 841.5L546.3 976.1 413 922.8l118.6-130z"/><path id="XMLID_1130_" class="st0" d="M548.6 977.2l-134.5-53.5-1.1-.9 133.3 53.3z"/><path id="XMLID_1129_" class="st1" d="M653.4 841.5l.1 3-104.9 132.7-2.3-1.1z"/><path id="XMLID_384_" class="st2" d="M612 805.9s.4 26.7-70.3 81.3l-137.3-.2s12-5.1 27.2-14.2c.1 0 .1-.1.2-.1 4.2-2.5 8.6-5.3 13.1-8.3.3-.2.6-.4 1-.6 20.6-14.2 42.5-34.2 48.8-57.8H612z"/><path id="XMLID_383_" class="st2" d="M410.5 861.1s58-3.1 92.4-79.2l97 11.3s-1.5 26.7-75.9 76.2l-113.5-8.3z"/><path id="XMLID_382_" class="st3" d="M602.5 805.9c-4.5 9.8-20.5 33.3-77.4 67.7l-80.3-9.3c.3-.2.6-.4 1-.6l78.2 5.7c44.5-29.6 62.9-51 70.6-63.5h7.9z"/><path id="XMLID_362_" class="st2" d="M612.3 675S568 781.3 456 781l-20.8-104.1s7.5.2 18.5-2c3.2-.6 6.6-1.4 10.2-2.5 27-7.9 64.3-30 71-90.8l63.7 76.9 2.3 2.8 11.4 13.7z"/><path id="XMLID_361_" class="st4" d="M522.3 817.2s1-96 102-123l78 5.4s-110.5 31.6-123.5 82.6l-56.5 35z"/><path id="XMLID_360_" class="st3" d="M598.7 658.5l2.3 2.8c-17.8 52.7-59.9 78.3-59.9 78.3l-89.3-64c.6-.2 1.3-.5 1.9-.7 3.2-.6 6.6-1.4 10.2-2.5l-1.6-1.2c39.4-19.1 49.9-58.9 51.2-91.4 2.1-19.2.5-37-1.2-48.5l93.1 48.2c2.7 14 3.7 27.1 3.2 39.3-1.5 14.8-5.2 28-9.9 39.7z"/><path id="XMLID_295_" class="st2" d="M608.7 618.9c-1.6 14.7-5.2 27.9-10 39.6-19.2 46.9-56.7 69.8-56.7 69.8l-78-55.9-1.6-1.2-9.7-7c43.1-15 57.4-51.6 60.9-84.4 2.1-19.2.5-37-1.2-48.5-1.2-8.1-2.4-13-2.4-13l96.4 49.9c3.5 18.6 4 35.5 2.3 50.7z"/></g></svg>