<?xml version="1.0" encoding="utf-8"?>
<!-- Generator: Adobe Illustrator 19.0.0, SVG Export Plug-In . SVG Version: 6.00 Build 0)  -->
<svg version="1.1" id="Layer_1" xmlns="http://www.w3.org/2000/svg" xmlns:xlink="http://www.w3.org/1999/xlink" x="0px" y="0px"
	 viewBox="-316 -250.4 325.1 1060.4" style="enable-background:new -316 -250.4 325.1 1060.4;" xml:space="preserve">
<style type="text/css">
	.st0{fill:#C59D87;}
	.st1{fill:#DEBAA3;}
	.st2{opacity:8.000000e-02;fill:#4A4B6B;enable-background:new    ;}
</style>
<g id="XMLID_516_">
	<g id="XMLID_517_">
		<g id="XMLID_527_">
			<path id="XMLID_538_" class="st0" d="M-255.5-71.2H-0.2v58.9h-255.3V-71.2z"/>
			<path id="XMLID_537_" class="st0" d="M-255.5,10.5H-0.2v58.9h-255.3V10.5z"/>
			<path id="XMLID_536_" class="st0" d="M-255.5,92.3H-0.2v58.9h-255.3V92.3z"/>
			<path id="XMLID_535_" class="st0" d="M-255.5,174H-0.2v58.9h-255.3V174z"/>
			<path id="XMLID_534_" class="st0" d="M-255.5,255.7H-0.2v58.9h-255.3V255.7z"/>
			<path id="XMLID_533_" class="st0" d="M-255.5,391.7H-0.2v58.9h-255.3V391.7z"/>
			<path id="XMLID_532_" class="st0" d="M-255.5,473.5H-0.2v58.9h-255.3V473.5z"/>
			<path id="XMLID_531_" class="st0" d="M-255.5,555.2H-0.2v58.9h-255.3V555.2z"/>
			<path id="XMLID_530_" class="st0" d="M-255.5,636.9H-0.2v58.9h-255.3V636.9z"/>
			<path id="XMLID_529_" class="st0" d="M-255.5,718.7H-0.2v58.9h-255.3V718.7z"/>
			<path id="XMLID_528_" class="st1" d="M9.1-71.2v-44.7h-70.3v-53.5l-254.8-81V810H9.1v-32.4h-264.6v-58.9H9.1v-22.9h-264.6v-58.9
				H9.1v-22.8h-264.6v-58.9H9.1v-22.8h-264.6v-58.9H9.1v-22.9h-264.6v-58.9H9.1v-77h-264.6v-59H9.1v-22.8h-264.6V174H9.1v-22.8
				h-264.6V92.3H9.1V69.4h-264.6V10.5H9.1v-22.8h-264.6v-58.9H9.1z"/>
		</g>
		<g id="XMLID_518_">
			<path id="XMLID_526_" class="st2" d="M-255.5-71.2H-0.2v8.6h-255.3V-71.2z"/>
			<path id="XMLID_525_" class="st2" d="M-255.5,10.5H-0.2v8.6h-255.3V10.5z"/>
			<path id="XMLID_524_" class="st2" d="M-255.5,92.3H-0.2v8.6h-255.3V92.3z"/>
			<path id="XMLID_523_" class="st2" d="M-255.5,174H-0.2v8.6h-255.3V174z"/>
			<path id="XMLID_522_" class="st2" d="M-255.5,255.7H-0.2v8.6h-255.3V255.7z"/>
			<path id="XMLID_521_" class="st2" d="M-255.5,391.9H-0.2v8.6h-255.3V391.9z"/>
			<path id="XMLID_520_" class="st2" d="M-255.5,473.5H-0.2v8.6h-255.3V473.5z"/>
			<path id="XMLID_519_" class="st2" d="M-255.5,555.2H-0.2v8.6h-255.3V555.2z"/>
		</g>
	</g>
</g>
</svg>
