<?xml version="1.0" encoding="utf-8"?>
<!-- Generator: Adobe Illustrator 19.0.0, SVG Export Plug-In . SVG Version: 6.00 Build 0)  -->
<svg version="1.1" id="Layer_1" xmlns="http://www.w3.org/2000/svg" xmlns:xlink="http://www.w3.org/1999/xlink" x="0px" y="0px"
	 viewBox="-303 -79.6 351.4 718.6" style="enable-background:new -303 -79.6 351.4 718.6;" xml:space="preserve">
<style type="text/css">
	.st0{fill:#DEBAA3;}
	.st1{fill:#C59D87;}
	.st2{opacity:8.000000e-02;fill:#4A4B6B;enable-background:new    ;}
</style>
<g id="XMLID_447_">
	<g id="XMLID_448_">
		<path id="XMLID_504_" class="st0" d="M48.4,488.4V437H21.3v-36.9h27.1V378H21.3v-36.4h27.1v-22.1H21.3V283h27.1v-51.4H21.3v-36.4
			h27.1V173H21.3v-36.4h27.1v-22.1H21.3V78h27.1V9h-26V-9.8h26v-21.7h-69.1v-48.1h-216.1v48.1H-303v21.7h26V9h-26v69h27.5v36.4H-303
			v22.1h27.5V173H-303v22.1h27.5v36.4H-303V283h27.5v36.4H-303v22.1h27.5v36.4H-303V400h27.5v37H-303v51.4h27.5v36.4H-303V547h27.5
			v36.4H-303v22.1h27.5V639h38.7v-33.5h219V639h39v-33.5h27.2v-22.1H21.3V547h27.1v-22.1H21.3v-36.4L48.4,488.4L48.4,488.4z
			 M-105.8-9.8h88V9.1h-88V-9.8z M-236.8-9.8h88V9.1h-88V-9.8z M-236.8,78h219v36.4h-219V78z M-236.8,136.6h219V173h-219V136.6z
			 M-236.8,195.1h219v36.4h-219V195.1z M-236.8,283h219v36.4h-219V283z M-236.8,341.5h219v36.4h-219V341.5z M-17.8,583.4h-219V547
			h219V583.4z M-17.8,524.8h-219v-36.4h219V524.8z M-17.8,437h-219v-36.9h219V437L-17.8,437z"/>
		<g id="XMLID_476_">
			<g id="XMLID_477_">
				<path id="XMLID_503_" class="st1" d="M-303,78h27.5v36.4H-303V78z"/>
				<path id="XMLID_502_" class="st1" d="M-303,136.6h27.5V173H-303V136.6z"/>
				<path id="XMLID_501_" class="st1" d="M-303,195.1h27.5v36.4H-303V195.1z"/>
				<path id="XMLID_500_" class="st1" d="M-303,283h27.5v36.4H-303V283z"/>
				<path id="XMLID_499_" class="st1" d="M-303,341.5h27.5v36.4H-303V341.5z"/>
				<path id="XMLID_498_" class="st1" d="M-303,400.1h27.5V437h-27.4v51.4h27.4v36.4h-27.4V547h27.4v36.4h-27.4v22.1h27.4V639H-303
					V400.1z"/>
				<path id="XMLID_497_" class="st1" d="M-236.8,78h219v36.4h-219V78z"/>
				<path id="XMLID_496_" class="st1" d="M-236.8,136.6h219V173h-219V136.6z"/>
				<path id="XMLID_495_" class="st1" d="M-236.8,195.1h219v36.4h-219V195.1z"/>
				<path id="XMLID_494_" class="st1" d="M-236.8,283h219v36.4h-219V283z"/>
				<path id="XMLID_493_" class="st1" d="M-236.8,341.5h219v36.4h-219V341.5z"/>
				<path id="XMLID_492_" class="st1" d="M-236.8,400.1h219V437h-219V400.1z"/>
				<path id="XMLID_491_" class="st1" d="M-236.8,488.4h219v36.4h-219V488.4z"/>
				<path id="XMLID_490_" class="st1" d="M-236.8,547h219v36.4h-219V547z"/>
				<path id="XMLID_489_" class="st1" d="M-236.8,605.5h219V639h-219V605.5z"/>
				<path id="XMLID_488_" class="st1" d="M21.2,78h27.1v36.4H21.2V78z"/>
				<path id="XMLID_487_" class="st1" d="M21.2,136.6h27.1V173H21.2V136.6z"/>
				<path id="XMLID_486_" class="st1" d="M21.2,195.1h27.1v36.4H21.2V195.1z"/>
				<path id="XMLID_485_" class="st1" d="M21.2,283h27.1v36.4H21.2V283z"/>
				<path id="XMLID_484_" class="st1" d="M21.2,341.5h27.1v36.4H21.2V341.5z"/>
				<path id="XMLID_483_" class="st1" d="M21.2,400.1h27.1V437H21.2V400.1z"/>
				<path id="XMLID_482_" class="st1" d="M21.2,488.4h27.1v36.4H21.2V488.4z"/>
				<path id="XMLID_481_" class="st1" d="M21.2,547h27.1v36.4H21.2V547z"/>
				<path id="XMLID_480_" class="st1" d="M21.2,605.5h27.1V639H21.2V605.5z"/>
				<path id="XMLID_479_" class="st1" d="M-236.8-9.8h88V9.1h-88V-9.8z"/>
				<path id="XMLID_478_" class="st1" d="M-105.8-9.8h88V9.1h-88V-9.8z"/>
			</g>
		</g>
		<path id="XMLID_475_" class="st2" d="M-236.8,78h219v4.8h-219V78z"/>
		<path id="XMLID_474_" class="st2" d="M21.2,78h27.1v4.8H21.2V78z"/>
		<path id="XMLID_473_" class="st2" d="M-302.8,78h27.1v4.8h-27.1L-302.8,78L-302.8,78z"/>
		<path id="XMLID_472_" class="st2" d="M-236.8,136.6h219v4.8h-219V136.6z"/>
		<path id="XMLID_471_" class="st2" d="M21.2,136.6h27.1v4.8H21.2V136.6z"/>
		<path id="XMLID_470_" class="st2" d="M-302.8,136.6h27.1v4.8h-27.1L-302.8,136.6L-302.8,136.6z"/>
		<path id="XMLID_469_" class="st2" d="M-236.8,195.1h219v4.8h-219V195.1z"/>
		<path id="XMLID_468_" class="st2" d="M21.2,195.1h27.1v4.8H21.2V195.1z"/>
		<path id="XMLID_467_" class="st2" d="M-302.8,195.1h27.1v4.8h-27.1L-302.8,195.1L-302.8,195.1z"/>
		<path id="XMLID_466_" class="st2" d="M-236.8,283h219v4.8h-219V283z"/>
		<path id="XMLID_465_" class="st2" d="M21.2,283h27.1v4.8H21.2V283z"/>
		<path id="XMLID_464_" class="st2" d="M-302.8,283h27.1v4.8h-27.1L-302.8,283L-302.8,283z"/>
		<path id="XMLID_463_" class="st2" d="M-236.8,341.5h219v4.8h-219V341.5z"/>
		<path id="XMLID_462_" class="st2" d="M21.2,341.5h27.1v4.8H21.2V341.5z"/>
		<path id="XMLID_461_" class="st2" d="M-302.8,341.5h27.1v4.8h-27.1L-302.8,341.5L-302.8,341.5z"/>
		<path id="XMLID_460_" class="st2" d="M-236.8,400.1h219v4.8h-219V400.1z"/>
		<path id="XMLID_459_" class="st2" d="M21.2,400.1h27.1v4.8H21.2V400.1z"/>
		<path id="XMLID_458_" class="st2" d="M-302.8,400.1h27.1v4.8h-27.1L-302.8,400.1L-302.8,400.1z"/>
		<path id="XMLID_457_" class="st2" d="M-236.8,488.4h219v4.8h-219V488.4z"/>
		<path id="XMLID_456_" class="st2" d="M21.2,488.4h27.1v4.8H21.2V488.4z"/>
		<path id="XMLID_455_" class="st2" d="M-302.8,488.4h27.1v4.8h-27.1L-302.8,488.4L-302.8,488.4z"/>
		<path id="XMLID_454_" class="st2" d="M-236.8,547h219v4.8h-219V547z"/>
		<path id="XMLID_453_" class="st2" d="M21.2,547h27.1v4.8H21.2V547z"/>
		<path id="XMLID_452_" class="st2" d="M-302.8,547h27.1v4.8h-27.1L-302.8,547L-302.8,547z"/>
		<path id="XMLID_451_" class="st2" d="M-236.8,605.5h219v4.8h-219V605.5z"/>
		<path id="XMLID_450_" class="st2" d="M21.2,605.5h27.1v4.8H21.2V605.5z"/>
		<path id="XMLID_449_" class="st2" d="M-302.8,605.5h27.1v4.8h-27.1L-302.8,605.5L-302.8,605.5z"/>
	</g>
</g>
</svg>
