<?xml version="1.0" encoding="utf-8"?>
<!-- Generator: Adobe Illustrator 19.0.0, SVG Export Plug-In . SVG Version: 6.00 Build 0)  -->
<svg version="1.1" id="Layer_1" xmlns="http://www.w3.org/2000/svg" xmlns:xlink="http://www.w3.org/1999/xlink" x="0px" y="0px"
	 viewBox="-302 -229.2 353.9 1018.2" style="enable-background:new -302 -229.2 353.9 1018.2;" xml:space="preserve">
<style type="text/css">
	.st0{fill:#B3826C;}
	.st1{fill:#A1715E;}
</style>
<g id="XMLID_539_">
	<path id="XMLID_624_" class="st0" d="M-302-229.2H51.9V789H-302V-229.2z"/>
	<g id="XMLID_603_">
		<path id="XMLID_623_" class="st1" d="M-281.8-160.9h28.6v28.6h-28.6V-160.9z"/>
		<path id="XMLID_622_" class="st1" d="M-234.6-160.9h28.6v28.6h-28.6V-160.9z"/>
		<path id="XMLID_621_" class="st1" d="M-184.3-160.9H-66v28.6h-118.3V-160.9z"/>
		<path id="XMLID_620_" class="st1" d="M3-160.9h28.6v28.6H3V-160.9z"/>
		<path id="XMLID_619_" class="st1" d="M-44.2-160.9h28.6v28.6h-28.6V-160.9z"/>
		<path id="XMLID_618_" class="st1" d="M-281.8-113.7h28.6v28.6h-28.6V-113.7z"/>
		<path id="XMLID_617_" class="st1" d="M-234.6-113.7h28.6v28.6h-28.6V-113.7z"/>
		<path id="XMLID_616_" class="st1" d="M-184.3-113.7H-66v28.6h-118.3V-113.7z"/>
		<path id="XMLID_615_" class="st1" d="M3-113.7h28.6v28.6H3V-113.7z"/>
		<path id="XMLID_614_" class="st1" d="M-44.2-113.7h28.6v28.6h-28.6V-113.7z"/>
		<path id="XMLID_613_" class="st1" d="M-281.8-66.4h28.6v28.6h-28.6V-66.4z"/>
		<path id="XMLID_612_" class="st1" d="M-234.6-66.4h28.6v28.6h-28.6V-66.4z"/>
		<path id="XMLID_611_" class="st1" d="M-184.3-66.4H-66v28.6h-118.3V-66.4z"/>
		<path id="XMLID_610_" class="st1" d="M3-66.4h28.6v28.6H3V-66.4z"/>
		<path id="XMLID_609_" class="st1" d="M-44.2-66.4h28.6v28.6h-28.6V-66.4z"/>
		<path id="XMLID_608_" class="st1" d="M-281.8-19.2h28.6V9.4h-28.6V-19.2z"/>
		<path id="XMLID_607_" class="st1" d="M-234.6-19.2h28.6V9.4h-28.6V-19.2z"/>
		<path id="XMLID_606_" class="st1" d="M-184.3-19.2H-66V9.4h-118.3V-19.2z"/>
		<path id="XMLID_605_" class="st1" d="M3-19.2h28.6V9.4H3V-19.2z"/>
		<path id="XMLID_604_" class="st1" d="M-44.2-19.2h28.6V9.4h-28.6V-19.2z"/>
	</g>
	<g id="XMLID_582_">
		<path id="XMLID_602_" class="st1" d="M-281.8,56.6h28.6v28.6h-28.6V56.6z"/>
		<path id="XMLID_601_" class="st1" d="M-234.6,56.6h28.6v28.6h-28.6V56.6z"/>
		<path id="XMLID_600_" class="st1" d="M-184.3,56.6H-66v28.6h-118.3V56.6z"/>
		<path id="XMLID_599_" class="st1" d="M3,56.6h28.6v28.6H3V56.6z"/>
		<path id="XMLID_598_" class="st1" d="M-44.2,56.6h28.6v28.6h-28.6V56.6z"/>
		<path id="XMLID_597_" class="st1" d="M-281.8,103.9h28.6v28.6h-28.6V103.9z"/>
		<path id="XMLID_596_" class="st1" d="M-234.6,103.9h28.6v28.6h-28.6V103.9z"/>
		<path id="XMLID_595_" class="st1" d="M-184.3,103.9H-66v28.6h-118.3V103.9z"/>
		<path id="XMLID_594_" class="st1" d="M3,103.9h28.6v28.6H3V103.9z"/>
		<path id="XMLID_593_" class="st1" d="M-44.2,103.9h28.6v28.6h-28.6V103.9z"/>
		<path id="XMLID_592_" class="st1" d="M-281.8,151.1h28.6v28.6h-28.6V151.1z"/>
		<path id="XMLID_591_" class="st1" d="M-234.6,151.1h28.6v28.6h-28.6V151.1z"/>
		<path id="XMLID_590_" class="st1" d="M-184.3,151.1H-66v28.6h-118.3V151.1z"/>
		<path id="XMLID_589_" class="st1" d="M3,151.1h28.6v28.6H3V151.1z"/>
		<path id="XMLID_588_" class="st1" d="M-44.2,151.1h28.6v28.6h-28.6V151.1z"/>
		<path id="XMLID_587_" class="st1" d="M-281.8,198.4h28.6V227h-28.6V198.4z"/>
		<path id="XMLID_586_" class="st1" d="M-234.6,198.4h28.6V227h-28.6V198.4z"/>
		<path id="XMLID_585_" class="st1" d="M-184.3,198.4H-66V227h-118.3V198.4z"/>
		<path id="XMLID_584_" class="st1" d="M3,198.4h28.6V227H3V198.4z"/>
		<path id="XMLID_583_" class="st1" d="M-44.2,198.4h28.6V227h-28.6V198.4z"/>
	</g>
	<g id="XMLID_561_">
		<path id="XMLID_581_" class="st1" d="M-281.8,276.5h28.6v28.6h-28.6V276.5z"/>
		<path id="XMLID_580_" class="st1" d="M-234.6,276.5h28.6v28.6h-28.6V276.5z"/>
		<path id="XMLID_579_" class="st1" d="M-184.3,276.5H-66v28.6h-118.3V276.5z"/>
		<path id="XMLID_578_" class="st1" d="M3,276.5h28.6v28.6H3V276.5z"/>
		<path id="XMLID_577_" class="st1" d="M-44.2,276.5h28.6v28.6h-28.6V276.5z"/>
		<path id="XMLID_576_" class="st1" d="M-281.8,323.7h28.6v28.6h-28.6V323.7z"/>
		<path id="XMLID_575_" class="st1" d="M-234.6,323.7h28.6v28.6h-28.6V323.7z"/>
		<path id="XMLID_574_" class="st1" d="M-184.3,323.7H-66v28.6h-118.3V323.7z"/>
		<path id="XMLID_573_" class="st1" d="M3,323.7h28.6v28.6H3V323.7z"/>
		<path id="XMLID_572_" class="st1" d="M-44.2,323.7h28.6v28.6h-28.6V323.7z"/>
		<path id="XMLID_571_" class="st1" d="M-281.8,371h28.6v28.6h-28.6V371z"/>
		<path id="XMLID_570_" class="st1" d="M-234.6,371h28.6v28.6h-28.6V371z"/>
		<path id="XMLID_569_" class="st1" d="M-184.3,371H-66v28.6h-118.3V371z"/>
		<path id="XMLID_568_" class="st1" d="M3,371h28.6v28.6H3V371z"/>
		<path id="XMLID_567_" class="st1" d="M-44.2,371h28.6v28.6h-28.6V371z"/>
		<path id="XMLID_566_" class="st1" d="M-281.8,418.2h28.6v28.6h-28.6V418.2z"/>
		<path id="XMLID_565_" class="st1" d="M-234.6,418.2h28.6v28.6h-28.6V418.2z"/>
		<path id="XMLID_564_" class="st1" d="M-184.3,418.2H-66v28.6h-118.3V418.2z"/>
		<path id="XMLID_563_" class="st1" d="M3,418.2h28.6v28.6H3V418.2z"/>
		<path id="XMLID_562_" class="st1" d="M-44.2,418.2h28.6v28.6h-28.6V418.2z"/>
	</g>
	<g id="XMLID_540_">
		<path id="XMLID_560_" class="st1" d="M-281.8,494h28.6v28.6h-28.6V494z"/>
		<path id="XMLID_559_" class="st1" d="M-234.6,494h28.6v28.6h-28.6V494z"/>
		<path id="XMLID_558_" class="st1" d="M-184.3,494H-66v28.6h-118.3V494z"/>
		<path id="XMLID_557_" class="st1" d="M3,494h28.6v28.6H3V494z"/>
		<path id="XMLID_556_" class="st1" d="M-44.2,494h28.6v28.6h-28.6V494z"/>
		<path id="XMLID_555_" class="st1" d="M-281.8,541.3h28.6v28.6h-28.6V541.3z"/>
		<path id="XMLID_554_" class="st1" d="M-234.6,541.3h28.6v28.6h-28.6V541.3z"/>
		<path id="XMLID_553_" class="st1" d="M-184.3,541.3H-66v28.6h-118.3V541.3z"/>
		<path id="XMLID_552_" class="st1" d="M3,541.3h28.6v28.6H3V541.3z"/>
		<path id="XMLID_551_" class="st1" d="M-44.2,541.3h28.6v28.6h-28.6V541.3z"/>
		<path id="XMLID_550_" class="st1" d="M-281.8,588.5h28.6v28.6h-28.6V588.5z"/>
		<path id="XMLID_549_" class="st1" d="M-234.6,588.5h28.6v28.6h-28.6V588.5z"/>
		<path id="XMLID_548_" class="st1" d="M-184.3,588.5H-66v28.6h-118.3V588.5z"/>
		<path id="XMLID_547_" class="st1" d="M3,588.5h28.6v28.6H3V588.5z"/>
		<path id="XMLID_546_" class="st1" d="M-44.2,588.5h28.6v28.6h-28.6V588.5z"/>
		<path id="XMLID_545_" class="st1" d="M-281.8,635.7h28.6v28.6h-28.6V635.7z"/>
		<path id="XMLID_544_" class="st1" d="M-234.6,635.7h28.6v28.6h-28.6V635.7z"/>
		<path id="XMLID_543_" class="st1" d="M-184.3,635.7H-66v28.6h-118.3V635.7z"/>
		<path id="XMLID_542_" class="st1" d="M3,635.7h28.6v28.6H3V635.7z"/>
		<path id="XMLID_541_" class="st1" d="M-44.2,635.7h28.6v28.6h-28.6V635.7z"/>
	</g>
</g>
</svg>
