<?xml version="1.0" encoding="utf-8"?>
<!-- Generator: Adobe Illustrator 19.0.0, SVG Export Plug-In . SVG Version: 6.00 Build 0)  -->
<svg version="1.1" id="Layer_1" xmlns="http://www.w3.org/2000/svg" xmlns:xlink="http://www.w3.org/1999/xlink" x="0px" y="0px"
	 viewBox="-277 -169.1 404.8 899.1" style="enable-background:new -277 -169.1 404.8 899.1;" xml:space="preserve">
<style type="text/css">
	.st0{fill:#B3826C;}
	.st1{fill:#A1715E;}
</style>
<g id="XMLID_625_">
	<path id="XMLID_700_" class="st0" d="M63.9-62v-20.5H80v-26.6H63.9v-16.8l-138.5-43.2l-138.5,43.2v16.8h-16.2v26.6h16.2V-62H-277
		v792h404.8V-62H63.9z"/>
	<path id="XMLID_699_" class="st1" d="M-216.4-14.5H-277v33.4h60.6V-14.5z"/>
	<path id="XMLID_698_" class="st1" d="M-216.4,44.9H-277v33.4h60.6V44.9z"/>
	<path id="XMLID_697_" class="st1" d="M-216.4,104.3H-277v33.4h60.6V104.3z"/>
	<path id="XMLID_696_" class="st1" d="M-216.4,163.7H-277v33.4h60.6V163.7z"/>
	<path id="XMLID_695_" class="st1" d="M-216.4,223H-277v33.5h60.6V223z"/>
	<path id="XMLID_694_" class="st1" d="M-216.4,282.4H-277v33.5h60.6V282.4z"/>
	<path id="XMLID_693_" class="st1" d="M127.8-14.5H67.1v33.4h60.7V-14.5z"/>
	<path id="XMLID_692_" class="st1" d="M127.8,44.9H67.1v33.4h60.7V44.9z"/>
	<path id="XMLID_691_" class="st1" d="M127.8,104.3H67.1v33.4h60.7V104.3z"/>
	<path id="XMLID_690_" class="st1" d="M127.8,163.7H67.1v33.4h60.7V163.7z"/>
	<path id="XMLID_689_" class="st1" d="M127.8,223H67.1v33.5h60.7V223z"/>
	<path id="XMLID_688_" class="st1" d="M127.8,282.4H67.1v33.5h60.7V282.4z"/>
	<path id="XMLID_687_" class="st1" d="M-170.7-14.5h41.8V19h-41.8V-14.5z"/>
	<path id="XMLID_686_" class="st1" d="M-120.9-14.5h42.2V19h-42.2V-14.5z"/>
	<path id="XMLID_685_" class="st1" d="M-70.6-14.5h42.2V19h-42.2V-14.5z"/>
	<path id="XMLID_684_" class="st1" d="M-20.3-14.5h41.8V19h-41.8V-14.5z"/>
	<path id="XMLID_683_" class="st1" d="M-87.7-82.7h-83V-62h83V-82.7z"/>
	<path id="XMLID_682_" class="st1" d="M21.5-82.7h-83.1V-62h83.1V-82.7z"/>
	<path id="XMLID_681_" class="st1" d="M-170.7,44.9h41.8v33.5h-41.8V44.9z"/>
	<path id="XMLID_680_" class="st1" d="M-120.9,44.9h42.2v33.5h-42.2V44.9z"/>
	<path id="XMLID_679_" class="st1" d="M-70.6,44.9h42.2v33.5h-42.2V44.9z"/>
	<path id="XMLID_678_" class="st1" d="M-20.3,44.9h41.8v33.5h-41.8V44.9z"/>
	<path id="XMLID_677_" class="st1" d="M-170.7,104.3h41.8v33.5h-41.8V104.3z"/>
	<path id="XMLID_676_" class="st1" d="M-120.9,104.3h42.2v33.5h-42.2V104.3z"/>
	<path id="XMLID_675_" class="st1" d="M-70.6,104.3h42.2v33.5h-42.2V104.3z"/>
	<path id="XMLID_674_" class="st1" d="M-20.3,104.3h41.8v33.5h-41.8V104.3z"/>
	<path id="XMLID_673_" class="st1" d="M-170.7,163.7h41.8v33.4h-41.8V163.7z"/>
	<path id="XMLID_672_" class="st1" d="M-120.9,163.7h42.2v33.4h-42.2V163.7z"/>
	<path id="XMLID_671_" class="st1" d="M-70.6,163.7h42.2v33.4h-42.2V163.7z"/>
	<path id="XMLID_670_" class="st1" d="M-20.3,163.7h41.8v33.4h-41.8V163.7z"/>
	<path id="XMLID_669_" class="st1" d="M-170.7,223h41.8v33.5h-41.8V223z"/>
	<path id="XMLID_668_" class="st1" d="M-120.9,223h42.2v33.5h-42.2V223z"/>
	<path id="XMLID_667_" class="st1" d="M-70.6,223h42.2v33.5h-42.2V223z"/>
	<path id="XMLID_666_" class="st1" d="M-20.3,223h41.8v33.5h-41.8V223z"/>
	<path id="XMLID_665_" class="st1" d="M-170.7,282.4h41.8v33.4h-41.8V282.4z"/>
	<path id="XMLID_664_" class="st1" d="M-120.9,282.4h42.2v33.4h-42.2V282.4z"/>
	<path id="XMLID_663_" class="st1" d="M-70.6,282.4h42.2v33.4h-42.2V282.4z"/>
	<path id="XMLID_662_" class="st1" d="M-20.3,282.4h41.8v33.4h-41.8V282.4z"/>
	<path id="XMLID_661_" class="st1" d="M-216.4,370.2H-277v33.4h60.6V370.2z"/>
	<path id="XMLID_660_" class="st1" d="M-216.4,429.6H-277V463h60.6V429.6z"/>
	<path id="XMLID_659_" class="st1" d="M-216.4,489H-277v33.4h60.6V489z"/>
	<path id="XMLID_658_" class="st1" d="M-216.4,548.4H-277v33.4h60.6V548.4z"/>
	<path id="XMLID_657_" class="st1" d="M-216.4,607.8H-277v33.4h60.6V607.8z"/>
	<path id="XMLID_656_" class="st1" d="M-216.4,667.2H-277v33.4h60.6V667.2L-216.4,667.2z"/>
	<path id="XMLID_655_" class="st1" d="M127.8,370.2H67.1v33.4h60.7V370.2z"/>
	<path id="XMLID_654_" class="st1" d="M127.8,429.6H67.1V463h60.7V429.6z"/>
	<path id="XMLID_653_" class="st1" d="M127.8,489H67.1v33.4h60.7V489z"/>
	<path id="XMLID_652_" class="st1" d="M127.8,548.4H67.1v33.4h60.7V548.4z"/>
	<path id="XMLID_651_" class="st1" d="M127.8,607.8H67.1v33.4h60.7V607.8z"/>
	<path id="XMLID_650_" class="st1" d="M127.8,667.2H67.1v33.4h60.7V667.2L127.8,667.2z"/>
	<path id="XMLID_649_" class="st1" d="M-170.7,370.2h41.8v33.5h-41.8V370.2z"/>
	<path id="XMLID_648_" class="st1" d="M-120.9,370.2h42.2v33.5h-42.2V370.2z"/>
	<path id="XMLID_647_" class="st1" d="M-70.6,370.2h42.2v33.5h-42.2V370.2z"/>
	<path id="XMLID_646_" class="st1" d="M-20.3,370.2h41.8v33.5h-41.8V370.2z"/>
	<path id="XMLID_645_" class="st1" d="M-170.7,429.6h41.8V463h-41.8V429.6z"/>
	<path id="XMLID_644_" class="st1" d="M-120.9,429.6h42.2V463h-42.2V429.6z"/>
	<path id="XMLID_643_" class="st1" d="M-70.6,429.6h42.2V463h-42.2V429.6z"/>
	<path id="XMLID_642_" class="st1" d="M-20.3,429.6h41.8V463h-41.8V429.6z"/>
	<path id="XMLID_641_" class="st1" d="M-170.7,489h41.8v33.4h-41.8V489z"/>
	<path id="XMLID_640_" class="st1" d="M-120.9,489h42.2v33.4h-42.2V489z"/>
	<path id="XMLID_639_" class="st1" d="M-70.6,489h42.2v33.4h-42.2V489z"/>
	<path id="XMLID_638_" class="st1" d="M-20.3,489h41.8v33.4h-41.8V489z"/>
	<path id="XMLID_637_" class="st1" d="M-170.7,548.4h41.8v33.4h-41.8V548.4z"/>
	<path id="XMLID_636_" class="st1" d="M-120.9,548.4h42.2v33.4h-42.2V548.4z"/>
	<path id="XMLID_635_" class="st1" d="M-70.6,548.4h42.2v33.4h-42.2V548.4z"/>
	<path id="XMLID_634_" class="st1" d="M-20.3,548.4h41.8v33.4h-41.8V548.4z"/>
	<path id="XMLID_633_" class="st1" d="M-170.7,607.8h41.8v33.4h-41.8V607.8z"/>
	<path id="XMLID_632_" class="st1" d="M-120.9,607.8h42.2v33.4h-42.2V607.8z"/>
	<path id="XMLID_631_" class="st1" d="M-70.6,607.8h42.2v33.4h-42.2V607.8z"/>
	<path id="XMLID_630_" class="st1" d="M-20.3,607.8h41.8v33.4h-41.8V607.8z"/>
	<path id="XMLID_629_" class="st1" d="M-170.7,667.2h41.8v33.5h-41.8V667.2z"/>
	<path id="XMLID_628_" class="st1" d="M-120.9,667.2h42.2v33.5h-42.2V667.2z"/>
	<path id="XMLID_627_" class="st1" d="M-70.6,667.2h42.2v33.5h-42.2V667.2z"/>
	<path id="XMLID_626_" class="st1" d="M-20.3,667.2h41.8v33.5h-41.8V667.2z"/>
</g>
</svg>
