<?xml version="1.0" encoding="utf-8"?>
<!-- Generator: Adobe Illustrator 19.0.0, SVG Export Plug-In . SVG Version: 6.00 Build 0)  -->
<svg version="1.1" id="Layer_1" xmlns="http://www.w3.org/2000/svg" xmlns:xlink="http://www.w3.org/1999/xlink" x="0px" y="0px"
	 viewBox="-319 122.8 320.4 317.2" style="enable-background:new -319 122.8 320.4 317.2;" xml:space="preserve">
<style type="text/css">
	.st0{fill:#F1BC4A;}
	.st1{fill:#F16E24;}
	.st2{fill:#E35525;}
</style>
<g id="XMLID_362_">
	<g id="XMLID_384_">
		<path id="XMLID_389_" class="st0" d="M-172.4,122.8l60.8,4.2l-9.1,24.7l-46-3.1L-172.4,122.8z"/>
		<path id="XMLID_388_" class="st0" d="M-189.8,136.8l5.7,25.8l17.4-14l-5.7-25.8L-189.8,136.8z"/>
		<path id="XMLID_387_" class="st0" d="M-184.1,162.6l46,3.1l17.4-14l-46-3.1L-184.1,162.6z"/>
		<path id="XMLID_386_" class="st0" d="M-189.8,136.8l5.7,25.8l17.4-14l-5.7-25.8L-189.8,136.8z"/>
		<path id="XMLID_385_" class="st0" d="M-184.1,162.6l46,3.1l17.4-14l-46-3.1L-184.1,162.6z"/>
	</g>
	<g id="XMLID_378_">
		<path id="XMLID_383_" class="st0" d="M-183.8,140.6l88.5,6.1l-13.4,35.9l-66.8-4.6L-183.8,140.6z"/>
		<path id="XMLID_382_" class="st0" d="M-209,161l8.3,37.4l25.2-20.4l-8.3-37.4L-209,161z"/>
		<path id="XMLID_381_" class="st0" d="M-200.7,198.4l66.8,4.6l25.2-20.4l-66.8-4.6L-200.7,198.4z"/>
		<path id="XMLID_380_" class="st0" d="M-209,161l8.3,37.4l25.2-20.4l-8.3-37.4L-209,161z"/>
		<path id="XMLID_379_" class="st0" d="M-200.7,198.4l66.8,4.6l25.2-20.4l-66.8-4.6L-200.7,198.4z"/>
	</g>
	<g id="XMLID_374_">
		<path id="XMLID_377_" class="st1" d="M-2.9,238.3l-267.9-18.4l4.3-63.2L1.4,175.1L-2.9,238.3z"/>
		<path id="XMLID_376_" class="st2" d="M-310.1,191.8l-4.3,63.2l43.5-35.1l4.3-63.3L-310.1,191.8z"/>
		<path id="XMLID_375_" class="st2" d="M-314.4,255l267.9,18.5L-3,238.3l-267.9-18.4L-314.4,255z"/>
	</g>
	<path id="XMLID_373_" class="st1" d="M-9.9,237.6v0.2l-0.4,6.4l-0.3,3.9L-23.8,440c-31.5-3-63.3-5.6-95.6-7.9
		c-21.9-1.6-43.9-3-66.2-4.3c-31.1-1.8-62.6-3.3-94.3-4.4l11.4-165.1l1.9-27.7l0.7-10.2v-0.2l94.2,6.5l10.2,0.7l53.8,3.7l2.2,0.1
		L-9.9,237.6L-9.9,237.6z"/>
	<path id="XMLID_372_" class="st2" d="M-265.9,220v0.2l-0.7,10.2l-1.9,27.7l-11.4,165.1c-4.6-0.2-9.2-0.3-13.8-0.5
		c-6.1-0.2-12.3-0.4-18.4-0.6c-2.3-0.1-4.6-0.1-6.9-0.2l11.4-166.5l0.1-1.9l7.3-5.9l19.6-15.8l14.4-11.6L-265.9,220z"/>
	<path id="XMLID_371_" class="st2" d="M-10.6,248.1l-256-17.6l0.7-10.5l256,17.6L-10.6,248.1z"/>
	<path id="XMLID_370_" class="st0" d="M-105.5,231v0.2l-0.7,10.2l-1.9,27.7l-11.2,162.8c-21.9-1.6-43.9-3-66.2-4.3l11.2-163.1
		l1.9-27.7l0.7-10.2v-0.2l10.2,0.7l53.8,3.7L-105.5,231L-105.5,231z"/>
	<path id="XMLID_369_" class="st0" d="M-96.8,231.7l-64.6-4.4l4.3-63l64.6,4.4L-96.8,231.7z"/>
	<path id="XMLID_368_" class="st0" d="M-106.2,241.6l-66.1-4.5l0.7-10.5l66.1,4.5L-106.2,241.6z"/>
	<g id="XMLID_363_">
		<path id="XMLID_367_" class="st0" d="M-280.5,231.8l-1.8,25.5l-11.4,165.6c-6.1-0.2-12.3-0.4-18.4-0.6l11.4-166.3l0.6-8.3v-0.1
			L-280.5,231.8L-280.5,231.8z"/>
		<path id="XMLID_366_" class="st0" d="M-300.8,184.2l-4.3,63.3l19.5-15.9l4.4-63.2L-300.8,184.2z"/>
		<path id="XMLID_365_" class="st0" d="M-280.5,231.8l-1.8,25.5l-11.4,165.6c-6.1-0.2-12.3-0.4-18.4-0.6l11.4-166.3l0.6-8.3v-0.1
			L-280.5,231.8L-280.5,231.8z"/>
		<path id="XMLID_364_" class="st0" d="M-300.8,184.2l-4.3,63.3l19.5-15.9l4.4-63.2L-300.8,184.2z"/>
	</g>
</g>
</svg>
