<?xml version="1.0" encoding="utf-8"?>
<!-- Generator: Adobe Illustrator 19.0.0, SVG Export Plug-In . SVG Version: 6.00 Build 0)  -->
<svg version="1.1" id="Layer_1" xmlns="http://www.w3.org/2000/svg" xmlns:xlink="http://www.w3.org/1999/xlink" x="0px" y="0px"
	 viewBox="-223 27.1 512.8 507.9" style="enable-background:new -223 27.1 512.8 507.9;" xml:space="preserve">
<style type="text/css">
	.st0{fill:#F1BC4A;}
	.st1{fill:#F16E24;}
	.st2{fill:#E35525;}
</style>
<g id="XMLID_334_">
	<g id="XMLID_356_">
		<path id="XMLID_361_" class="st0" d="M51.7,27.1l-96.5,7.7l15,39.1L43.1,68L51.7,27.1z"/>
		<path id="XMLID_360_" class="st0" d="M79.5,49.1L70.9,90L43.1,68l8.6-40.9L79.5,49.1z"/>
		<path id="XMLID_359_" class="st0" d="M70.9,90L-2,95.8l-27.8-21.9L43.1,68L70.9,90z"/>
		<path id="XMLID_358_" class="st0" d="M79.5,49.1L70.9,90L43.1,68l8.6-40.9L79.5,49.1z"/>
		<path id="XMLID_357_" class="st0" d="M70.9,90L-2,95.8l-27.8-21.9L43.1,68L70.9,90z"/>
	</g>
	<g id="XMLID_350_">
		<path id="XMLID_355_" class="st0" d="M70.1,55.1L-70.2,66.3l21.8,56.8l106-8.4L70.1,55.1z"/>
		<path id="XMLID_354_" class="st0" d="M110.5,87L98,146.6l-40.4-31.9l12.5-59.6L110.5,87z"/>
		<path id="XMLID_353_" class="st0" d="M98,146.6l-106,8.5l-40.4-32l106-8.4L98,146.6z"/>
		<path id="XMLID_352_" class="st0" d="M110.5,87L98,146.6l-40.4-31.9l12.5-59.6L110.5,87z"/>
		<path id="XMLID_351_" class="st0" d="M98,146.6l-106,8.5l-40.4-32l106-8.4L98,146.6z"/>
	</g>
	<g id="XMLID_346_">
		<path id="XMLID_349_" class="st1" d="M-223,113l424.8-33.9l8,100.3L-215,213.3L-223,113z"/>
		<path id="XMLID_348_" class="st2" d="M271.4,134.2l8,100.2l-69.6-55l-8-100.3L271.4,134.2z"/>
		<path id="XMLID_347_" class="st2" d="M279.4,234.4l-424.8,34l-69.7-55.1l424.9-33.9L279.4,234.4z"/>
	</g>
	<path id="XMLID_345_" class="st1" d="M227.6,503.4c-50.6,1.7-100.6,4.1-149.7,7.3c-35.4,2.3-70.4,5-104.9,8.1
		c-51.5,4.6-102,10-151.3,16.2l-24.5-306.3l-0.5-6.1l-0.8-10.1v-0.3l137.9-11l13.8-1.1l88.8-7.1l16.1-1.3l149.2-12v0.3l4.8,60.2
		L227.6,503.4L227.6,503.4z"/>
	<path id="XMLID_344_" class="st2" d="M289.8,501.8c-3.7,0.1-7.3,0.2-11,0.2c-9.8,0.2-19.5,0.5-29.3,0.7c-7.3,0.2-14.6,0.4-21.9,0.7
		l-21-263.2l-3.5-44l-1.3-16.2v-0.4l0.4,0.3l23.1,18.2l31.3,24.8l11.8,9.3l0.2,3L289.8,501.8L289.8,501.8z"/>
	<path id="XMLID_343_" class="st2" d="M-204.2,212.1l405.9-32.4l1.3,16.5l-405.9,32.4L-204.2,212.1z"/>
	<path id="XMLID_342_" class="st0" d="M77.9,510.8c-35.4,2.3-70.4,5-104.9,8.1l-20.6-258.3l-3.5-44l-1.3-16.2V200l88.8-7.1l16.1-1.3
		v0.3l1.3,16.2l3.5,44L77.9,510.8L77.9,510.8z"/>
	<path id="XMLID_341_" class="st0" d="M-74.2,101.1l102.5-8.2l8,99.9L-66.3,201L-74.2,101.1z"/>
	<path id="XMLID_340_" class="st0" d="M-52.5,200l104.9-8.4l1.3,16.6l-104.9,8.4L-52.5,200z"/>
	<g id="XMLID_335_">
		<path id="XMLID_339_" class="st0" d="M278.8,502c-9.8,0.2-19.5,0.5-29.3,0.7l-21.1-264.3l-3.2-40.3V198l31.3,24.8v0.1l1,13.2
			L278.8,502z"/>
		<path id="XMLID_338_" class="st0" d="M256.6,122.3l8,100.3l-31.4-24.8l-8-100.2L256.6,122.3z"/>
		<path id="XMLID_337_" class="st0" d="M278.8,502c-9.8,0.2-19.5,0.5-29.3,0.7l-21.1-264.3l-3.2-40.3V198l31.3,24.8v0.1l1,13.2
			L278.8,502z"/>
		<path id="XMLID_336_" class="st0" d="M256.6,122.3l8,100.3l-31.4-24.8l-8-100.2L256.6,122.3z"/>
	</g>
</g>
</svg>
