<?xml version="1.0" encoding="utf-8"?>
<!-- Generator: Adobe Illustrator 19.0.0, SVG Export Plug-In . SVG Version: 6.00 Build 0)  -->
<svg version="1.1" id="Layer_1" xmlns="http://www.w3.org/2000/svg" xmlns:xlink="http://www.w3.org/1999/xlink" x="0px" y="0px"
	 viewBox="-243 40.4 472.5 481.6" style="enable-background:new -243 40.4 472.5 481.6;" xml:space="preserve">
<style type="text/css">
	.st0{fill:#F16E24;}
	.st1{fill:#E35525;}
	.st2{fill:#E6E6E6;}
	.st3{fill:#F1BC4A;}
</style>
<g id="XMLID_282_">
	<path id="XMLID_307_" class="st0" d="M-206.6,522l-28.6-283l322.5-32.6l28.6,283L-206.6,522z"/>
	<path id="XMLID_1167_" class="st1" d="M87.4,206.4L116,489.5l113.5-128.7L200.9,77.6L87.4,206.4z"/>
	<path id="XMLID_305_" class="st2" d="M87.4,206.4L87.4,206.4L-235,238.9l113.3-128.7l322.6-32.6L87.4,206.4z"/>
	<g id="XMLID_301_">
		<path id="XMLID_304_" class="st0" d="M-236.6,291l-6.4-63.1l332.1-33.6l6.4,63.1L-236.6,291z"/>
		<path id="XMLID_1171_" class="st1" d="M89.1,194.4l6.4,63.1L212.4,125L206,61.8L89.1,194.4z"/>
		<path id="XMLID_302_" class="st0" d="M89.1,194.4L89.1,194.4l-332,33.5l116.8-132.5L206,61.8L89.1,194.4z"/>
	</g>
	<path id="XMLID_300_" class="st1" d="M93.8,270.6l-322.3,32.6l-1.3-12.8l322.3-32.6L93.8,270.6z"/>
	<path id="XMLID_299_" class="st3" d="M-110.3,278.3l79.5-8l23.4,231.5l-79.5,8L-110.3,278.3z"/>
	<path id="XMLID_298_" class="st3" d="M-120.6,215.5l79.5-8l6.4,63.2l-79.5,8L-120.6,215.5z"/>
	<path id="XMLID_297_" class="st3" d="M-41.1,207.5l-79.5,8L-3.9,83l79.6-8L-41.1,207.5z"/>
	<path id="XMLID_296_" class="st3" d="M124.9,153.8L124.9,153.8l-332,33.5l45.2-51.3l332.1-33.6L124.9,153.8z"/>
	<path id="XMLID_295_" class="st3" d="M170.2,102.4l-45.3,51.4l6.3,63l-4.3,4.9l23.2,229.1l45.3-51.4l-23.2-228.9l4.4-4.9
		L170.2,102.4z"/>
	<path id="XMLID_294_" class="st3" d="M170.2,102.4l-45.3,51.4l6.3,63l-4.3,4.9l23.2,229.1l45.3-51.4l-23.2-228.9l4.4-4.9
		L170.2,102.4z"/>
	<g id="XMLID_289_">
		<path id="XMLID_293_" class="st3" d="M28.6,109.4l-10.5,50.3l-114.5,11.6l-24.2-46.8L28.6,109.4z"/>
		<path id="XMLID_1173_" class="st3" d="M28.6,109.4l-10.5,50.3l40.3-45.6l10.5-50.4L28.6,109.4z"/>
		<path id="XMLID_1174_" class="st3" d="M28.6,109.4l-10.5,50.3l40.3-45.6l10.5-50.4L28.6,109.4z"/>
		<path id="XMLID_290_" class="st3" d="M28.6,109.4l-149.1,15.1l44.1-46.1L68.9,63.7L28.6,109.4z"/>
	</g>
	<g id="XMLID_284_">
		<path id="XMLID_288_" class="st3" d="M9,72.4l-7.3,35.2l-80.2,8.1l-17-32.8L9,72.4z"/>
		<path id="XMLID_1184_" class="st3" d="M9,72.4l-7.3,35.3l28.2-32l7.4-35.3L9,72.4z"/>
		<path id="XMLID_1183_" class="st3" d="M9,72.4l-7.3,35.3l28.2-32l7.4-35.3L9,72.4z"/>
		<path id="XMLID_285_" class="st3" d="M9,72.4L-95.5,82.9l30.9-32.2L37.3,40.4L9,72.4z"/>
	</g>
	<path id="XMLID_283_" class="st3" d="M-110.2,278.3l79.8-8.1l1.3,12.8l-79.8,8.1L-110.2,278.3z"/>
</g>
</svg>
