<?xml version="1.0" encoding="utf-8"?>
<!-- Generator: Adobe Illustrator 19.0.0, SVG Export Plug-In . SVG Version: 6.00 Build 0)  -->
<svg version="1.1" id="Layer_1" xmlns="http://www.w3.org/2000/svg" xmlns:xlink="http://www.w3.org/1999/xlink" x="0px" y="0px"
	 viewBox="-84 194.4 789.5 172.6" style="enable-background:new -84 194.4 789.5 172.6;" xml:space="preserve">
<style type="text/css">
	.st0{fill:#F1F1F1;}
	.st1{fill:#D0D2D3;}
	.st2{fill:#BBBDBF;}
</style>
<g>
	<g id="XMLID_328_">
		<g id="XMLID_333_">
			<g id="XMLID_358_">
				<path id="XMLID_359_" class="st0" d="M691.8,325.9l13.7,35.4l-14.8,5.7L677,331.6L691.8,325.9z"/>
			</g>
			<g id="XMLID_356_">
				<path id="XMLID_357_" class="st0" d="M670.6,271.5l13.7,35.4l-14.8,5.7l-13.7-35.4L670.6,271.5z"/>
			</g>
			<g id="XMLID_354_">
				<path id="XMLID_355_" class="st1" d="M696.9,313c-1.1-2.9-4.2-4.5-6.8-3.4l-6.6,2.5c-2.6,1-3.9,4.2-2.7,7.1
					c1.2,2.9,4.2,4.5,6.8,3.4l6.6-2.5C696.8,319.1,698,316,696.9,313z"/>
			</g>
			<g id="XMLID_352_">
				<path id="XMLID_353_" class="st0" d="M693.9,314.1c-1.5-3.9-5.6-5.9-9.1-4.5l-4.5,1.7c-3.5,1.4-5.1,5.6-3.6,9.5s5.6,5.9,9.1,4.5
					l4.5-1.7C693.8,322.4,695.4,318,693.9,314.1z"/>
			</g>
			<g id="XMLID_350_">
				<path id="XMLID_351_" class="st1" d="M687.5,316.6c-1.3-3.5-5-5.3-8.1-4.1l-10.1,3.9c-3.1,1.2-4.6,5-3.2,8.5s5,5.3,8.1,4.1
					l10.1-3.9C687.4,324,688.8,320.1,687.5,316.6z"/>
			</g>
			<g id="XMLID_348_">
				<path id="XMLID_349_" class="st0" d="M682.5,318.6c-1.5-3.9-5.6-5.9-9.1-4.5l-6.4,2.5c-3.5,1.4-5.1,5.6-3.6,9.5s5.6,5.9,9.1,4.5
					l6.4-2.5C682.4,326.8,684,322.5,682.5,318.6z"/>
			</g>
			<g id="XMLID_346_">
				
					<ellipse id="XMLID_347_" transform="matrix(-0.3614 -0.9324 0.9324 -0.3614 609.9526 1064.8616)" class="st2" cx="669.6" cy="323.6" rx="5.3" ry="4.8"/>
			</g>
			<g id="XMLID_344_">
				<path id="XMLID_345_" class="st2" d="M684.6,328.6l13.7,35.4l-0.6,0.2L684,328.9L684.6,328.6z"/>
			</g>
			<g id="XMLID_342_">
				<path id="XMLID_343_" class="st2" d="M663.5,274.2l13.7,35.4l-0.6,0.2l-13.7-35.4L663.5,274.2z"/>
			</g>
			<g id="XMLID_340_">
				<path id="XMLID_341_" class="st2" d="M675.1,282.8l0.2,0.6l-14.8,5.7l-0.2-0.6L675.1,282.8z"/>
			</g>
			<g id="XMLID_338_">
				<path id="XMLID_339_" class="st2" d="M679.9,295l0.2,0.6l-14.8,5.7l-0.2-0.6L679.9,295z"/>
			</g>
			<g id="XMLID_336_">
				<path id="XMLID_337_" class="st2" d="M696.1,337l0.2,0.6l-14.8,5.7l-0.2-0.6L696.1,337z"/>
			</g>
			<g id="XMLID_334_">
				<path id="XMLID_335_" class="st2" d="M701,349.5l0.2,0.6l-14.8,5.7l-0.2-0.6L701,349.5z"/>
			</g>
		</g>
		<g id="XMLID_331_">
			<path id="XMLID_332_" class="st1" d="M694.5,311.2c-0.1,0-0.2,0-0.2-0.1c-0.2-0.1-0.3-0.4-0.2-0.7l4.7-8.1
				c0.1-0.2,0.4-0.3,0.7-0.2c0.2,0.1,0.3,0.4,0.2,0.7l-4.7,8.1C694.8,311.1,694.6,311.2,694.5,311.2z"/>
		</g>
		<g id="XMLID_329_">
			<path id="XMLID_330_" class="st1" d="M704.9,319.9h-0.2l-8.6-3.6c-0.3-0.1-0.4-0.4-0.3-0.7c0.1-0.3,0.4-0.4,0.7-0.3l8.6,3.6
				c0.3,0.1,0.4,0.4,0.3,0.7C705.1,319.6,705,319.9,704.9,319.9z"/>
		</g>
	</g>
	<g id="XMLID_296_">
		<g id="XMLID_301_">
			<g id="XMLID_326_">
				<path id="XMLID_327_" class="st0" d="M-28,230.9l36.5-36.5l15.3,15.3l-36.5,36.5L-28,230.9z"/>
			</g>
			<g id="XMLID_324_">
				<path id="XMLID_325_" class="st0" d="M-84,286.9l36.5-36.5l15.3,15.3l-36.5,36.5L-84,286.9z"/>
			</g>
			<g id="XMLID_322_">
				<path id="XMLID_323_" class="st1" d="M-46.7,231.8c-3,3-3.2,7.6-0.5,10.4l6.8,6.8c2.7,2.7,7.4,2.5,10.4-0.5s3.2-7.6,0.5-10.4
					l-6.8-6.8C-39,228.4-43.7,228.8-46.7,231.8z"/>
			</g>
			<g id="XMLID_320_">
				<path id="XMLID_321_" class="st0" d="M-43.6,234.8c-4,4-4.3,10.1-0.7,13.8l4.6,4.6c3.6,3.6,9.8,3.3,13.8-0.7s4.3-10.1,0.7-13.8
					l-4.6-4.6C-33.5,230.4-39.6,230.8-43.6,234.8z"/>
			</g>
			<g id="XMLID_318_">
				<path id="XMLID_319_" class="st1" d="M-37,241.5c-3.6,3.6-3.8,9-0.6,12.3l10.4,10.4c3.2,3.2,8.7,3,12.3-0.6s3.8-9,0.6-12.3
					l-10.4-10.4C-28,237.6-33.5,237.9-37,241.5z"/>
			</g>
			<g id="XMLID_316_">
				<path id="XMLID_317_" class="st0" d="M-32,246.5c-4,4-4.3,10.1-0.7,13.8l6.6,6.6c3.6,3.6,9.8,3.3,13.8-0.7s4.3-10.1,0.7-13.8
					l-6.6-6.6C-21.9,242.2-28,242.5-32,246.5z"/>
			</g>
			<g id="XMLID_314_">
				
					<ellipse id="XMLID_315_" transform="matrix(-0.7071 0.7071 -0.7071 -0.7071 151.4835 456.6802)" class="st2" cx="-18.8" cy="259.7" rx="7.2" ry="6.5"/>
			</g>
			<g id="XMLID_312_">
				<path id="XMLID_313_" class="st2" d="M-20.6,238.4l36.5-36.5l0.6,0.6L-20,239L-20.6,238.4z"/>
			</g>
			<g id="XMLID_310_">
				<path id="XMLID_311_" class="st2" d="M-76.6,294.2l36.5-36.5l0.6,0.6L-76,294.9L-76.6,294.2z"/>
			</g>
			<g id="XMLID_308_">
				<path id="XMLID_309_" class="st2" d="M-72.4,275.2l0.6-0.6l15.3,15.3l-0.6,0.6L-72.4,275.2z"/>
			</g>
			<g id="XMLID_306_">
				<path id="XMLID_307_" class="st2" d="M-59.7,262.5l0.6-0.6l15.3,15.3l-0.6,0.6L-59.7,262.5z"/>
			</g>
			<g id="XMLID_304_">
				<path id="XMLID_305_" class="st2" d="M-16.5,219.4l0.6-0.6L-0.5,234l-0.6,0.6L-16.5,219.4z"/>
			</g>
			<g id="XMLID_302_">
				<path id="XMLID_303_" class="st2" d="M-3.9,206.6l0.6-0.6L12,221.3l-0.6,0.6L-3.9,206.6z"/>
			</g>
		</g>
		<g id="XMLID_299_">
			<path id="XMLID_300_" class="st1" d="M-40.9,231.4c-0.2,0.2-0.4,0.3-0.7,0.3c-0.6,0-1-0.4-1-1v-11.9c0-0.6,0.4-1,1-1s1,0.4,1,1
				v11.9C-40.5,230.9-40.6,231.1-40.9,231.4z"/>
		</g>
		<g id="XMLID_297_">
			<path id="XMLID_298_" class="st1" d="M-47.2,237.8c-0.2,0.2-0.4,0.3-0.7,0.3h-11.9c-0.6,0-1-0.4-1-1s0.4-1,1-1h11.9
				c0.6,0,1,0.4,1,1C-47,237.2-47,237.5-47.2,237.8z"/>
		</g>
	</g>
</g>
</svg>
