<?xml version="1.0" encoding="utf-8"?>
<!-- Generator: Adobe Illustrator 19.0.0, SVG Export Plug-In . SVG Version: 6.00 Build 0)  -->
<svg version="1.1" id="Layer_1" xmlns="http://www.w3.org/2000/svg" xmlns:xlink="http://www.w3.org/1999/xlink" x="0px" y="0px"
	 viewBox="236 139.4 1432.2 283.6" style="enable-background:new 236 139.4 1432.2 283.6;" xml:space="preserve">
<style type="text/css">
	.st0{fill:#E6E7E8;}
	.st1{fill:#E6E6E6;}
	.st2{fill:#BABCBE;}
	.st3{fill:#F16E24;}
	.st4{fill:#E35525;}
	.st5{fill:#D0D1D2;}
	.st6{fill:#D0D1D1;}
	.st7{fill:#17B591;}
	.st8{fill:#454547;}
	.st9{fill:#A5A7AA;}
	.st10{fill:#F1F1F1;}
	.st11{fill:#FFFFFF;}
	.st12{fill:#373536;}
</style>
<g id="XMLID_4_">
	<path id="XMLID_2_" class="st0" d="M1668.2,423H236l201.3-187h1029.6L1668.2,423z"/>
	<path id="XMLID_1320_" class="st1" d="M1212.5,257h170.9v45h-170.9V257z"/>
	<path id="XMLID_1319_" class="st2" d="M1365.5,291v45l-36.7-34v-45L1365.5,291z"/>
	<g id="XMLID_1316_">
		<path id="XMLID_1318_" class="st3" d="M1360.8,294.8h-41l-35.1-32.9h41.1L1360.8,294.8z"/>
		<path id="XMLID_1317_" class="st4" d="M1284.7,261.9v42.6l35.1,23.7v-33.4L1284.7,261.9z"/>
	</g>
	<path id="XMLID_1315_" class="st2" d="M1420.1,291v45l-36.7-34v-45L1420.1,291z"/>
	<path id="XMLID_1314_" class="st2" d="M1306.5,291v45l-36.7-34v-45L1306.5,291z"/>
	<path id="XMLID_1313_" class="st1" d="M1212.5,152.9h170.9V254h-170.9V152.9z"/>
	<path id="XMLID_1312_" class="st2" d="M1383.4,152.9V254l-14.4-13.6v-101L1383.4,152.9z"/>
	<path id="XMLID_1311_" class="st5" d="M1383.4,152.9h-170.9l-14.4-13.5H1369L1383.4,152.9z"/>
	<path id="XMLID_1310_" class="st6" d="M1383.4,254h-170.9l-14.4-13.6H1369L1383.4,254z"/>
	<path id="XMLID_1309_" class="st2" d="M1297.8,148.5h-9l-5.1-4.7h9.1L1297.8,148.5z"/>
	<path id="XMLID_1308_" class="st7" d="M1321.4,296.8h41v33.4h-41V296.8z"/>
	<path id="XMLID_1307_" class="st2" d="M1212.5,152.9V254l-14.4-13.6v-101L1212.5,152.9z"/>
	<path id="XMLID_1306_" class="st8" d="M1212.5,254h36.7v3h-36.7V254z"/>
	<path id="XMLID_1305_" class="st8" d="M1347.1,254h36.7v3h-36.7V254z"/>
	<path id="XMLID_1304_" class="st9" d="M1266.1,152.9h49.3v7.8h-49.3V152.9z"/>
	<path id="XMLID_1303_" class="st4" d="M1225.8,233.9v42.6l35,23.7v-33.4L1225.8,233.9z"/>
	<path id="XMLID_1302_" class="st3" d="M1301.9,266.8h-41.1l-35-32.9h41L1301.9,266.8z"/>
	<path id="XMLID_1301_" class="st3" d="M1260.8,266.8h41v33.4h-41V266.8z"/>
	<path id="XMLID_1288_" class="st6" d="M1420,336h-171l-36.7-34h171L1420,336z"/>
	<path id="XMLID_1285_" class="st5" d="M1249.2,291h170.9v45h-170.9V291z"/>
	<path id="XMLID_1284_" class="st2" d="M1249.2,291v45l-36.7-34v-45L1249.2,291z"/>
	<path id="XMLID_1282_" class="st3" d="M643.1,270.9l-79.7,74.7H401.2l79.7-74.7H643.1z"/>
	<path id="XMLID_1281_" class="st1" d="M633.3,270.9l-76.7,71.8H413.1l76.6-71.8H633.3z"/>
	<path id="XMLID_1279_" class="st10" d="M629.3,268.9l-76.7,71.8H409.1l76.6-71.8H629.3z"/>
	<path id="XMLID_1267_" class="st11" d="M642.3,264.9l-76.7,71.8H422.1l76.6-71.8H642.3z"/>
	<path id="XMLID_1266_" class="st3" d="M401.2,345.6h162.2v3H401.2V345.6z"/>
	<path id="XMLID_1265_" class="st4" d="M643.1,270.9v3l-79,74.1l-0.7,0.6v-3L643.1,270.9z"/>
	<path id="XMLID_108_" class="st8" d="M688.1,265.6l-3.4-3.7l15-14c0.1-0.1,0.1-0.2,0.1-0.3v-13.5c0-0.1,0-0.3-0.3-0.4
		c-0.3-0.1-0.4,0-0.5,0.1l-11.1,9.1l-3.2-3.9l11.1-9.1c1.6-1.4,3.9-1.6,5.8-0.7c1.9,0.9,3.1,2.8,3.1,4.9v13.5c0,1.5-0.6,3-1.7,4
		L688.1,265.6L688.1,265.6z"/>
	<path id="XMLID_109_" class="st8" d="M715.6,237.9c0.1-2.7-7.8-4.9-22.8-4.9c-17.1,0-36.5,2.2-39.8,6c-0.4,0.4-0.5,0.8-0.5,1.2
		v67.9c0.1,2.6,8,4.7,22.8,4.7c17.1,0,36.7-2.5,39.8-6c0.3-0.3,0.4-0.6,0.5-0.9V237.9z"/>
	<path id="XMLID_218_" class="st12" d="M709.1,240.8c-2.5,2.8-18.2,4.8-32,4.8s-20.2-2.3-18-4.8c2.6-3,18.2-4.8,32-4.8
		S711.3,238.3,709.1,240.8z"/>
	<path id="XMLID_258_" class="st0" d="M694.4,278.6v-31.5c0-1.3-0.8-2.5-2.1-2.9l-1.5-0.5c-0.5-0.2-1.1-0.1-1.6,0.2
		s-0.7,0.9-0.7,1.4h1c0-0.2,0.1-0.5,0.3-0.6c0.2-0.1,0.4-0.2,0.7-0.1l1.5,0.5c0.8,0.3,1.4,1.1,1.4,2v31.7l-3,2v9.4h7.1v-9.4
		L694.4,278.6L694.4,278.6z"/>
</g>
</svg>
