<?xml version="1.0" encoding="utf-8"?>
<!-- Generator: Adobe Illustrator 19.0.0, SVG Export Plug-In . SVG Version: 6.00 Build 0)  -->
<svg version="1.1" id="Layer_1" xmlns="http://www.w3.org/2000/svg" xmlns:xlink="http://www.w3.org/1999/xlink" x="0px" y="0px"
	 viewBox="-440 -31.1 77.7 623.1" style="enable-background:new -440 -31.1 77.7 623.1;" xml:space="preserve">
<style type="text/css">
	.st0{fill:#E75425;}
	.st1{fill:#FFFFFF;}
	.st2{fill:#B8AC95;}
</style>
<g>
	<path class="st0" d="M-364.1,465.1l-27.4-27.7c-2-2-4.5-3.3-7-3.8c-1.8-0.3-3.6-0.3-5.4,0c-2.6,0.5-5,1.8-7,3.8l-27.4,27.7
		c-1.1,1.1-1.7,2.6-1.7,4.1V592h77.7V469.2C-362.4,467.7-363.1,466.2-364.1,465.1L-364.1,465.1z M-404,440.8
		c0.8-0.4,1.7-0.6,2.7-0.6s1.9,0.2,2.7,0.6c2.3,1,4,3.4,4,6.1c0,3.7-3,6.7-6.7,6.7s-6.7-3-6.7-6.7
		C-407.9,444.2-406.3,441.8-404,440.8z"/>
	<path class="st1" d="M-429.3,475.3h56.1v105.5h-56.1V475.3z"/>
	<path class="st2" d="M-404-31.1h5.4v473.5h-5.4V-31.1z"/>
</g>
</svg>
