<?xml version="1.0" encoding="utf-8"?>
<!-- Generator: Adobe Illustrator 19.0.0, SVG Export Plug-In . SVG Version: 6.00 Build 0)  -->
<svg version="1.1" id="Layer_1" xmlns="http://www.w3.org/2000/svg" xmlns:xlink="http://www.w3.org/1999/xlink" x="0px" y="0px"
	 viewBox="-436 39.8 85.1 483.2" style="enable-background:new -436 39.8 85.1 483.2;" xml:space="preserve">
<style type="text/css">
	.st0{fill:#E75425;}
	.st1{fill:#FFFFFF;}
	.st2{fill:#B8AC95;}
</style>
<g>
	<path class="st0" d="M-352.9,383.9l-30-30.4c-2.2-2.2-4.9-3.6-7.7-4.2c-2-0.4-4-0.4-5.9,0c-2.8,0.6-5.5,1.9-7.7,4.2l-30,30.4
		c-1.2,1.2-1.8,2.8-1.8,4.5V523h85.1V388.4C-351,386.7-351.7,385.1-352.9,383.9z M-396.5,357.3c0.9-0.4,1.9-0.6,3-0.6
		c1,0,2.1,0.2,3,0.6c2.6,1.1,4.4,3.7,4.4,6.7c0,4-3.3,7.3-7.3,7.3s-7.3-3.3-7.3-7.3C-400.9,361-399.1,358.4-396.5,357.3
		L-396.5,357.3z"/>
	<path class="st1" d="M-424.3,395.1h61.5v115.7h-61.5V395.1z"/>
	<path class="st2" d="M-396.5,39.8h5.9V359h-5.9V39.8z"/>
</g>
</svg>
