<?xml version="1.0" encoding="utf-8"?>
<!-- Generator: Adobe Illustrator 19.0.0, SVG Export Plug-In . SVG Version: 6.00 Build 0)  -->
<svg version="1.1" id="Layer_1" xmlns="http://www.w3.org/2000/svg" xmlns:xlink="http://www.w3.org/1999/xlink" x="0px" y="0px"
	 viewBox="-352 -238.4 253.5 1036.4" style="enable-background:new -352 -238.4 253.5 1036.4;" xml:space="preserve">
<style type="text/css">
	.st0{fill:#A1715E;}
	.st1{fill:#B3826C;}
</style>
<g id="XMLID_701_">
	<path id="XMLID_712_" class="st0" d="M-345.4-134.7h182.3v42.1h-182.3V-134.7z"/>
	<path id="XMLID_711_" class="st0" d="M-345.4-76.3h182.3v42.1h-182.3V-76.3z"/>
	<path id="XMLID_710_" class="st0" d="M-345.4-17.9h182.3v42.1h-182.3V-17.9z"/>
	<path id="XMLID_709_" class="st0" d="M-345.4,40.4h182.3v42.1h-182.3V40.4z"/>
	<path id="XMLID_708_" class="st0" d="M-345.4,98.8h182.3v42.1h-182.3V98.8z"/>
	<path id="XMLID_707_" class="st0" d="M-345.4,195.9h182.3V238h-182.3V195.9z"/>
	<path id="XMLID_706_" class="st0" d="M-345.4,254.3h182.3v42.1h-182.3V254.3z"/>
	<path id="XMLID_705_" class="st0" d="M-345.4,312.6h182.3v42.1h-182.3V312.6z"/>
	<path id="XMLID_704_" class="st0" d="M-345.4,371h182.3v42.1h-182.3V371z"/>
	<path id="XMLID_703_" class="st0" d="M-345.4,429.4h182.3v42.1h-182.3V429.4z"/>
	<path id="XMLID_702_" class="st1" d="M-321.4-238.4v38.6H-352v65.1h188.9v42.1H-352v16.3h188.9v42.1H-352v16.3h188.9v42H-352v16.3
		h188.9v42.1H-352v16.3h188.9v42.1H-352v55h188.9V238H-352v16.3h188.9v42H-352v16.3h188.9v42.1H-352V371h188.9v42.1H-352v16.3h188.9
		v42H-352V798h253.5V-238.4H-321.4z"/>
</g>
</svg>
