<?xml version="1.0" encoding="utf-8"?>
<!-- Generator: Adobe Illustrator 19.0.0, SVG Export Plug-In . SVG Version: 6.00 Build 0)  -->
<svg version="1.1" id="Layer_1" xmlns="http://www.w3.org/2000/svg" xmlns:xlink="http://www.w3.org/1999/xlink" x="0px" y="0px"
	 viewBox="-330 51.1 297.9 458.9" style="enable-background:new -330 51.1 297.9 458.9;" xml:space="preserve">
<style type="text/css">
	.st0{fill:#F16E24;}
	.st1{fill:#E35525;}
	.st2{fill:#FFFFFF;}
	.st3{opacity:0.15;fill:#373536;enable-background:new    ;}
	.st4{fill:#E6E6E6;}
</style>
<g id="XMLID_1124_">
	<path id="XMLID_1131_" class="st0" d="M-81,374.3l-107.1,134.6l-133.3-53.3l118.6-130L-81,374.3z"/>
	<path id="XMLID_1130_" class="st0" d="M-185.8,510l-134.5-53.5l-1.1-0.9l133.3,53.3L-185.8,510z"/>
	<path id="XMLID_1129_" class="st1" d="M-81,374.3l0.1,3L-185.8,510l-2.3-1.1L-81,374.3z"/>
	<path id="XMLID_384_" class="st2" d="M-122.4,338.7c0,0,0.4,26.7-70.3,81.3l-137.3-0.2c0,0,12-5.1,27.2-14.2c0.1,0,0.1-0.1,0.2-0.1
		c4.2-2.5,8.6-5.3,13.1-8.3c0.3-0.2,0.6-0.4,1-0.6c20.6-14.2,42.5-34.2,48.8-57.8h117.3V338.7z"/>
	<path id="XMLID_383_" class="st2" d="M-323.9,393.9c0,0,58-3.1,92.4-79.2l97,11.3c0,0-1.5,26.7-75.9,76.2L-323.9,393.9z"/>
	<path id="XMLID_382_" class="st3" d="M-131.9,338.7c-4.5,9.8-20.5,33.3-77.4,67.7l-80.3-9.3c0.3-0.2,0.6-0.4,1-0.6l78.2,5.7
		c44.5-29.6,62.9-51,70.6-63.5L-131.9,338.7L-131.9,338.7z"/>
	<path id="XMLID_362_" class="st2" d="M-122.1,207.8c0,0-44.3,106.3-156.3,106l-20.8-104.1c0,0,7.5,0.2,18.5-2
		c3.2-0.6,6.6-1.4,10.2-2.5c27-7.9,64.3-30,71-90.8l63.7,76.9l2.3,2.8L-122.1,207.8L-122.1,207.8z"/>
	<path id="XMLID_361_" class="st4" d="M-212.1,350c0,0,1-96,102-123l78,5.4c0,0-110.5,31.6-123.5,82.6L-212.1,350z"/>
	<path id="XMLID_360_" class="st3" d="M-135.7,191.3l2.3,2.8c-17.8,52.7-59.9,78.3-59.9,78.3l-89.3-64c0.6-0.2,1.3-0.5,1.9-0.7
		c3.2-0.6,6.6-1.4,10.2-2.5l-1.6-1.2c39.4-19.1,49.9-58.9,51.2-91.4c2.1-19.2,0.5-37-1.2-48.5l93.1,48.2c2.7,14,3.7,27.1,3.2,39.3
		C-127.3,166.4-131,179.6-135.7,191.3L-135.7,191.3z"/>
	<path id="XMLID_295_" class="st2" d="M-125.7,151.7c-1.6,14.7-5.2,27.9-10,39.6c-19.2,46.9-56.7,69.8-56.7,69.8l-78-55.9l-1.6-1.2
		l-9.7-7c43.1-15,57.4-51.6,60.9-84.4c2.1-19.2,0.5-37-1.2-48.5c-1.2-8.1-2.4-13-2.4-13L-128,101
		C-124.5,119.6-124,136.5-125.7,151.7L-125.7,151.7z"/>
</g>
</svg>
