<?xml version="1.0" encoding="utf-8"?>
<!-- Generator: Adobe Illustrator 19.0.0, SVG Export Plug-In . SVG Version: 6.00 Build 0)  -->
<svg version="1.1" id="Layer_1" xmlns="http://www.w3.org/2000/svg" xmlns:xlink="http://www.w3.org/1999/xlink" x="0px" y="0px"
	 viewBox="-430 -28.5 97.5 617.5" style="enable-background:new -430 -28.5 97.5 617.5;" xml:space="preserve">
<style type="text/css">
	.st0{fill:#E75425;}
	.st1{fill:#FFFFFF;}
	.st2{fill:#B8AC95;}
</style>
<g>
	<path class="st0" d="M-334.7,429.7l-34.4-34.8c-2.5-2.5-5.6-4.1-8.8-4.8c-2.2-0.5-4.6-0.5-6.8,0c-3.2,0.6-6.3,2.2-8.8,4.8
		l-34.4,34.8c-1.4,1.4-2.1,3.2-2.1,5.2V589h97.5V434.8C-332.5,432.9-333.3,431.1-334.7,429.7L-334.7,429.7z M-384.7,399.2
		c1-0.5,2.2-0.7,3.4-0.7s2.3,0.3,3.4,0.7c2.9,1.3,5,4.2,5,7.6c0,4.6-3.7,8.4-8.4,8.4c-4.6,0-8.4-3.8-8.4-8.4
		C-389.6,403.4-387.6,400.5-384.7,399.2z"/>
	<path class="st1" d="M-416.4,442.5h70.4V575h-70.4V442.5z"/>
	<path class="st2" d="M-384.7-28.5h6.8v429.7h-6.8V-28.5z"/>
</g>
</svg>
