<?xml version="1.0" encoding="utf-8"?>
<!-- Generator: Adobe Illustrator 19.0.0, SVG Export Plug-In . SVG Version: 6.00 Build 0)  -->
<svg version="1.1" id="Layer_1" xmlns="http://www.w3.org/2000/svg" xmlns:xlink="http://www.w3.org/1999/xlink" x="0px" y="0px"
	 viewBox="-441 112.2 76.8 337.8" style="enable-background:new -441 112.2 76.8 337.8;" xml:space="preserve">
<style type="text/css">
	.st0{fill:#E75425;}
	.st1{fill:#FFFFFF;}
	.st2{fill:#B8AC95;}
</style>
<g>
	<path class="st0" d="M-366,324.5l-27.1-27.4c-2-2-4.4-3.2-6.9-3.7c-1.8-0.4-3.6-0.4-5.3,0c-2.5,0.5-5,1.8-6.9,3.7l-27.1,27.4
		c-1.1,1.1-1.7,2.5-1.7,4.1V450h76.8V328.6C-364.4,327-365,325.6-366,324.5L-366,324.5z M-405.4,300.5c0.8-0.4,1.7-0.6,2.7-0.6
		s1.9,0.2,2.7,0.6c2.3,1,3.9,3.3,3.9,6c0,3.6-3,6.6-6.6,6.6s-6.6-3-6.6-6.6C-409.4,303.8-407.8,301.5-405.4,300.5z"/>
	<path class="st1" d="M-430.5,334.6h55.5V439h-55.5V334.6z"/>
	<path class="st2" d="M-405.4,112.2h5.3V302h-5.3V112.2z"/>
</g>
</svg>
