<svg id="Layer_1" xmlns="http://www.w3.org/2000/svg" viewBox="0 0 1920 1080"><style>.st0{fill:#b3826c}.st1{fill:#a1715e}</style><g id="XMLID_625_"><path id="XMLID_700_" class="st0" d="M1326.9 288v-20.5h16.1v-26.6h-16.1v-16.8l-138.5-43.2-138.5 43.2v16.8h-16.2v26.6h16.2V288H986v792h404.8V288z"/><path id="XMLID_699_" class="st1" d="M1046.6 335.5H986v33.4h60.6v-33.4z"/><path id="XMLID_698_" class="st1" d="M1046.6 394.9H986v33.4h60.6v-33.4z"/><path id="XMLID_697_" class="st1" d="M1046.6 454.3H986v33.4h60.6v-33.4z"/><path id="XMLID_696_" class="st1" d="M1046.6 513.7H986v33.4h60.6v-33.4z"/><path id="XMLID_695_" class="st1" d="M1046.6 573H986v33.5h60.6V573z"/><path id="XMLID_694_" class="st1" d="M1046.6 632.4H986v33.5h60.6v-33.5z"/><path id="XMLID_693_" class="st1" d="M1390.8 335.5h-60.7v33.4h60.7v-33.4z"/><path id="XMLID_692_" class="st1" d="M1390.8 394.9h-60.7v33.4h60.7v-33.4z"/><path id="XMLID_691_" class="st1" d="M1390.8 454.3h-60.7v33.4h60.7v-33.4z"/><path id="XMLID_690_" class="st1" d="M1390.8 513.7h-60.7v33.4h60.7v-33.4z"/><path id="XMLID_689_" class="st1" d="M1390.8 573h-60.7v33.5h60.7V573z"/><path id="XMLID_688_" class="st1" d="M1390.8 632.4h-60.7v33.5h60.7v-33.5z"/><path id="XMLID_687_" class="st1" d="M1092.3 335.5h41.8V369h-41.8z"/><path id="XMLID_686_" class="st1" d="M1142.1 335.5h42.2V369h-42.2z"/><path id="XMLID_685_" class="st1" d="M1192.4 335.5h42.2V369h-42.2z"/><path id="XMLID_684_" class="st1" d="M1242.7 335.5h41.8V369h-41.8z"/><path id="XMLID_683_" class="st1" d="M1175.3 267.3h-83V288h83v-20.7z"/><path id="XMLID_682_" class="st1" d="M1284.5 267.3h-83.1V288h83.1v-20.7z"/><path id="XMLID_681_" class="st1" d="M1092.3 394.9h41.8v33.5h-41.8z"/><path id="XMLID_680_" class="st1" d="M1142.1 394.9h42.2v33.5h-42.2z"/><path id="XMLID_679_" class="st1" d="M1192.4 394.9h42.2v33.5h-42.2z"/><path id="XMLID_678_" class="st1" d="M1242.7 394.9h41.8v33.5h-41.8z"/><path id="XMLID_677_" class="st1" d="M1092.3 454.3h41.8v33.5h-41.8z"/><path id="XMLID_676_" class="st1" d="M1142.1 454.3h42.2v33.5h-42.2z"/><path id="XMLID_675_" class="st1" d="M1192.4 454.3h42.2v33.5h-42.2z"/><path id="XMLID_674_" class="st1" d="M1242.7 454.3h41.8v33.5h-41.8z"/><path id="XMLID_673_" class="st1" d="M1092.3 513.7h41.8v33.4h-41.8z"/><path id="XMLID_672_" class="st1" d="M1142.1 513.7h42.2v33.4h-42.2z"/><path id="XMLID_671_" class="st1" d="M1192.4 513.7h42.2v33.4h-42.2z"/><path id="XMLID_670_" class="st1" d="M1242.7 513.7h41.8v33.4h-41.8z"/><path id="XMLID_669_" class="st1" d="M1092.3 573h41.8v33.5h-41.8z"/><path id="XMLID_668_" class="st1" d="M1142.1 573h42.2v33.5h-42.2z"/><path id="XMLID_667_" class="st1" d="M1192.4 573h42.2v33.5h-42.2z"/><path id="XMLID_666_" class="st1" d="M1242.7 573h41.8v33.5h-41.8z"/><path id="XMLID_665_" class="st1" d="M1092.3 632.4h41.8v33.4h-41.8z"/><path id="XMLID_664_" class="st1" d="M1142.1 632.4h42.2v33.4h-42.2z"/><path id="XMLID_663_" class="st1" d="M1192.4 632.4h42.2v33.4h-42.2z"/><path id="XMLID_662_" class="st1" d="M1242.7 632.4h41.8v33.4h-41.8z"/><path id="XMLID_661_" class="st1" d="M1046.6 720.2H986v33.4h60.6v-33.4z"/><path id="XMLID_660_" class="st1" d="M1046.6 779.6H986V813h60.6v-33.4z"/><path id="XMLID_659_" class="st1" d="M1046.6 839H986v33.4h60.6V839z"/><path id="XMLID_658_" class="st1" d="M1046.6 898.4H986v33.4h60.6v-33.4z"/><path id="XMLID_657_" class="st1" d="M1046.6 957.8H986v33.4h60.6v-33.4z"/><path id="XMLID_656_" class="st1" d="M1046.6 1017.2H986v33.4h60.6v-33.4z"/><path id="XMLID_655_" class="st1" d="M1390.8 720.2h-60.7v33.4h60.7v-33.4z"/><path id="XMLID_654_" class="st1" d="M1390.8 779.6h-60.7V813h60.7v-33.4z"/><path id="XMLID_653_" class="st1" d="M1390.8 839h-60.7v33.4h60.7V839z"/><path id="XMLID_652_" class="st1" d="M1390.8 898.4h-60.7v33.4h60.7v-33.4z"/><path id="XMLID_651_" class="st1" d="M1390.8 957.8h-60.7v33.4h60.7v-33.4z"/><path id="XMLID_650_" class="st1" d="M1390.8 1017.2h-60.7v33.4h60.7v-33.4z"/><path id="XMLID_649_" class="st1" d="M1092.3 720.2h41.8v33.5h-41.8z"/><path id="XMLID_648_" class="st1" d="M1142.1 720.2h42.2v33.5h-42.2z"/><path id="XMLID_647_" class="st1" d="M1192.4 720.2h42.2v33.5h-42.2z"/><path id="XMLID_646_" class="st1" d="M1242.7 720.2h41.8v33.5h-41.8z"/><path id="XMLID_645_" class="st1" d="M1092.3 779.6h41.8V813h-41.8z"/><path id="XMLID_644_" class="st1" d="M1142.1 779.6h42.2V813h-42.2z"/><path id="XMLID_643_" class="st1" d="M1192.4 779.6h42.2V813h-42.2z"/><path id="XMLID_642_" class="st1" d="M1242.7 779.6h41.8V813h-41.8z"/><path id="XMLID_641_" class="st1" d="M1092.3 839h41.8v33.4h-41.8z"/><path id="XMLID_640_" class="st1" d="M1142.1 839h42.2v33.4h-42.2z"/><path id="XMLID_639_" class="st1" d="M1192.4 839h42.2v33.4h-42.2z"/><path id="XMLID_638_" class="st1" d="M1242.7 839h41.8v33.4h-41.8z"/><path id="XMLID_637_" class="st1" d="M1092.3 898.4h41.8v33.4h-41.8z"/><path id="XMLID_636_" class="st1" d="M1142.1 898.4h42.2v33.4h-42.2z"/><path id="XMLID_635_" class="st1" d="M1192.4 898.4h42.2v33.4h-42.2z"/><path id="XMLID_634_" class="st1" d="M1242.7 898.4h41.8v33.4h-41.8z"/><path id="XMLID_633_" class="st1" d="M1092.3 957.8h41.8v33.4h-41.8z"/><path id="XMLID_632_" class="st1" d="M1142.1 957.8h42.2v33.4h-42.2z"/><path id="XMLID_631_" class="st1" d="M1192.4 957.8h42.2v33.4h-42.2z"/><path id="XMLID_630_" class="st1" d="M1242.7 957.8h41.8v33.4h-41.8z"/><path id="XMLID_629_" class="st1" d="M1092.3 1017.2h41.8v33.5h-41.8z"/><path id="XMLID_628_" class="st1" d="M1142.1 1017.2h42.2v33.5h-42.2z"/><path id="XMLID_627_" class="st1" d="M1192.4 1017.2h42.2v33.5h-42.2z"/><path id="XMLID_626_" class="st1" d="M1242.7 1017.2h41.8v33.5h-41.8z"/></g></svg>