<?xml version="1.0" encoding="utf-8"?>
<!-- Generator: Adobe Illustrator 19.0.0, SVG Export Plug-In . SVG Version: 6.00 Build 0)  -->
<svg version="1.1" id="Layer_1" xmlns="http://www.w3.org/2000/svg" xmlns:xlink="http://www.w3.org/1999/xlink" x="0px" y="0px"
	 viewBox="-368 158.8 222.5 244.2" style="enable-background:new -368 158.8 222.5 244.2;" xml:space="preserve">
<style type="text/css">
	.st0{fill:#E6E6E6;}
	.st1{fill:#BABCBE;}
	.st2{fill:#D0D1D2;}
	.st3{fill:#D0D1D1;}
	.st4{fill:#17B591;}
	.st5{fill:#F16E24;}
	.st6{fill:#454547;}
	.st7{fill:#E35525;}
	.st8{fill:#A5A7AA;}
</style>
<g id="XMLID_443_">
	<path id="XMLID_1154_" class="st0" d="M-357.2,276.3l165.9,41.1l-10.8,43.7L-368,320L-357.2,276.3z"/>
	<path id="XMLID_1153_" class="st1" d="M-216.9,346.2l-10.8,43.7l-27.5-41.9l10.8-43.6L-216.9,346.2z"/>
	<path id="XMLID_1152_" class="st1" d="M-163.9,359.4l-10.8,43.6l-27.4-41.8l10.8-43.7L-163.9,359.4z"/>
	<path id="XMLID_1151_" class="st1" d="M-274.2,332l-10.8,43.7l-27.5-41.9l10.9-43.6L-274.2,332z"/>
	<path id="XMLID_1150_" class="st0" d="M-332.1,175.4l165.9,41.1l-24.3,98.1l-165.9-41.1L-332.1,175.4z"/>
	<path id="XMLID_1149_" class="st1" d="M-166.3,216.5l-24.3,98.1l-10.7-16.6l24.3-98.1L-166.3,216.5z"/>
	<path id="XMLID_1148_" class="st2" d="M-166.3,216.5l-165.8-41.1l-10.8-16.6l165.9,41.1L-166.3,216.5z"/>
	<path id="XMLID_1147_" class="st3" d="M-190.6,314.6l-165.9-41.1l-10.7-16.7l165.9,41.2L-190.6,314.6z"/>
	<path id="XMLID_1146_" class="st1" d="M-248.3,191.6l-8.8-2.2l-3.7-5.8l8.7,2.2L-248.3,191.6z"/>
	<path id="XMLID_1145_" class="st4" d="M-229.4,383.5l-39.8-9.9l8-32.4l39.8,9.9L-229.4,383.5z"/>
	<path id="XMLID_1144_" class="st1" d="M-332.1,175.4l-24.4,98.1l-10.7-16.7l24.3-98L-332.1,175.4z"/>
	<path id="XMLID_397_" class="st5" d="M-253.9,319.1c0,0,15.1,8.9,22.7,28.8l20.7-15c0,0-6-13.6-11.5-21.3l-10.2,3.7L-253.9,319.1z"
		/>
	<path id="XMLID_396_" class="st5" d="M-242.7,318.2c0,0,20,23.4,39.1,22v-21.4c0,0-19.9-5.1-22.1-18L-242.7,318.2z"/>
	<path id="XMLID_1143_" class="st6" d="M-356.5,273.4l35.6,8.8l-0.7,2.9l-35.6-8.8L-356.5,273.4z"/>
	<path id="XMLID_1142_" class="st6" d="M-225.8,305.8l35.6,8.8l-0.7,2.9l-35.6-8.8L-225.8,305.8z"/>
	<path id="XMLID_395_" class="st7" d="M-256.1,304.9l-6.3,6.4c-4.8,1-9.9,2.5-15.4,4.6l2,9c29.5-11.5,49.3-4,49.3-4l16-20.7
		C-240.4,294.1-256.1,304.9-256.1,304.9z"/>
	<path id="XMLID_394_" class="st5" d="M-277.8,315.9l19.7-20c0,0,15.7-10.8,45.7-4.7l-16,20.7C-228.5,311.9-248.3,304.4-277.8,315.9
		L-277.8,315.9z"/>
	<path id="XMLID_1141_" class="st8" d="M-280.1,188.2l47.8,11.9l-1.9,7.6l-47.8-11.9L-280.1,188.2z"/>
	<g id="XMLID_460_">
		<path id="XMLID_1140_" class="st7" d="M-344.6,263.1l-0.8,13.1l32.9,33.8l0.8-11.8L-344.6,263.1z"/>
		<path id="XMLID_1139_" class="st5" d="M-270.8,300.8l-40.9-2.6l-32.9-35.1l41,2.6L-270.8,300.8z"/>
		<path id="XMLID_1138_" class="st5" d="M-312.5,310l41,2.7l0.7-11.9l-40.9-2.6L-312.5,310z"/>
	</g>
	<g id="XMLID_456_">
		<path id="XMLID_1137_" class="st7" d="M-337.3,254.8l0.2,7.1l36.6,29.8l-0.2-5.8L-337.3,254.8z"/>
		<path id="XMLID_1136_" class="st5" d="M-259.7,283.8l-41,2.1l-36.6-31.1l40.9-2.1L-259.7,283.8z"/>
		<path id="XMLID_1135_" class="st5" d="M-300.5,291.7l41-2.1l-0.2-5.8l-41,2.1L-300.5,291.7z"/>
	</g>
	<path id="XMLID_1134_" class="st3" d="M-174.7,403l-165.9-41.1l-27.4-41.8l165.9,41.1L-174.7,403z"/>
	<path id="XMLID_1133_" class="st2" d="M-329.8,318.1l165.9,41.1l-10.8,43.7l-165.9-41.1L-329.8,318.1z"/>
	<path id="XMLID_1132_" class="st1" d="M-329.7,318.3l-10.9,43.6l-27.4-41.8l10.8-43.7L-329.7,318.3z"/>
	<path id="XMLID_393_" class="st5" d="M-328.6,254.3c0,0,27.3,24.4,60.6,17.9l24.7-21.8c0,0-35,5.9-57.4-7.4L-328.6,254.3
		L-328.6,254.3z"/>
	<path id="XMLID_392_" class="st5" d="M-280.9,333.6l-36.3-8.4c-0.1-3-0.6-6-1.4-8.9c-4.1-15.2-16.1-28.9-17.9-30.8l24,24.6l30.2,2
		c0.7,2.5,1.1,4.9,1.4,7.1C-279.8,327.5-280.9,333.6-280.9,333.6L-280.9,333.6z"/>
	<path id="XMLID_391_" class="st7" d="M-263.7,280.4c-45.4,0.9-64.8-26.1-64.8-26.1c0.7,0.6,25.2,22.1,56,18.6L-263.7,280.4z"/>
	<path id="XMLID_390_" class="st7" d="M-280.9,319.1l-37.7-2.8c-4.1-15.2-16.1-28.9-17.9-30.8l24,24.6l30.2,2
		C-281.6,314.5-281.1,316.9-280.9,319.1z"/>
	<path id="XMLID_389_" class="st5" d="M-257.3,284.8c0,0,18,17,57,20.2l19.9-16c0,0-31.6-1.6-47.2-10.8L-257.3,284.8L-257.3,284.8z"
		/>
	<path id="XMLID_388_" class="st7" d="M-220.7,301.8l-1.4,1.9c-18.3-3.5-27.4-11.6-27.4-11.6c0.6-0.2,1.2-0.4,1.9-0.5
		C-241.5,294.9-232.6,299-220.7,301.8L-220.7,301.8z"/>
	<path id="XMLID_387_" class="st7" d="M-217,337.7l-2.5,1.8c0,0-21.9-13.1-24-21h1.1C-240.8,320.3-229.9,332.3-217,337.7z"/>
	<path id="XMLID_386_" class="st5" d="M-203.6,276.8c0,0,18.4,12.9,35.5,40.3l22.6-0.4c0,0-11.8-26.4-29-37.4L-203.6,276.8
		L-203.6,276.8z"/>
	<path id="XMLID_385_" class="st7" d="M-190.8,288.1c1.6,1.6,3.2,3.4,5,5.3l-1.8,1.4c-2.4-2.7-4.6-5.1-6.7-7.2
		C-193.1,287.9-191.9,288-190.8,288.1z"/>
</g>
</svg>
