<?xml version="1.0" encoding="utf-8"?>
<!-- Generator: Adobe Illustrator 19.0.0, SVG Export Plug-In . SVG Version: 6.00 Build 0)  -->
<svg version="1.1" id="Layer_1" xmlns="http://www.w3.org/2000/svg" xmlns:xlink="http://www.w3.org/1999/xlink" x="0px" y="0px"
	 viewBox="-151 -260 655.3 1080" style="enable-background:new -151 -260 655.3 1080;" xml:space="preserve">
<style type="text/css">
	.st0{fill:#DEBAA3;}
	.st1{fill:#C59D87;}
	.st2{opacity:8.000000e-02;fill:#4A4B6B;enable-background:new    ;}
</style>
<g id="XMLID_131_">
	<g id="XMLID_332_">
		<path id="XMLID_389_" class="st0" d="M-151,782.7v-39.2H42.4v39.2H-151z M88.1,782.7v-39.2H143v39.2H88.1z M260.8,782.7v-39.2
			h56.7v39.2H260.8z M363.2,782.7v-39.2h141v39.2H363.2z M-151,725.8v-39.2H42.4v39.2H-151z M88.1,725.8v-39.2H143v39.2H88.1z
			 M260.8,725.4v-39.2h56.7v39.2H260.8z M363.2,725.4v-39.2h141v39.2H363.2z M-151,668.5v-39.2H42.4v39.2H-151z M88.1,668.5v-39.2
			H143v39.2H88.1z M260.8,668v-39.2h56.7V668H260.8L260.8,668z M363.2,668v-39.2h141V668H363.2L363.2,668z M260.8,611.6v-39.2h56.7
			v39.2H260.8z M363.2,611.6v-39.2h141v39.2H363.2z M-151,611.1v-39.2H42.4v39.2H-151z M88.1,611.1v-39.2H143v39.2H88.1z
			 M260.8,554.2V515h56.7v39.2H260.8L260.8,554.2z M363.2,554.2V515h141v39.2H363.2L363.2,554.2z M-151,553.7v-39.2H42.4v39.2H-151z
			 M88.1,553.7v-39.2H143v39.2H88.1z M260.8,496.8v-39.2h56.7v39.2H260.8z M363.2,496.8v-39.2h141v39.2H363.2z M-151,496.3v-39.2
			H42.4v39.2H-151z M88.1,496.3v-39.2H143v39.2H88.1z M260.8,439.4v-39.2h56.7v39.2H260.8z M363.2,439.4v-39.2h141v39.2H363.2z
			 M-151,438.9v-39.2H42.4v39.2H-151z M88.1,438.9v-39.2H143v39.2H88.1z M260.8,382.1v-39.2h56.7v39.2H260.8z M363.2,382.1v-39.2
			h141v39.2H363.2z M-151,381.6v-39.2H42.4v39.2H-151z M88.1,381.6v-39.2H143v39.2H88.1z M260.8,324.7v-39.2h56.7v39.2H260.8z
			 M363.2,324.7v-39.2h141v39.2H363.2z M-151,324.2V285H42.4v39.2H-151L-151,324.2z M88.1,324.2V285H143v39.2H88.1L88.1,324.2z
			 M260.8,267.3v-39.2h56.7v39.2H260.8z M363.2,267.3v-39.2h141v39.2H363.2z M-151,266.8v-39.2H42.4v39.2H-151z M88.1,266.8v-39.2
			H143v39.2H88.1z M260.8,209.9v-39.2h56.7v39.2H260.8z M363.2,209.9v-39.2h141v39.2H363.2z M-151,209.4v-39.2H42.4v39.2H-151z
			 M88.1,209.4v-39.2H143v39.2H88.1z M-151,152v-39.2H42.4V152H-151z M88.1,152v-39.2H143V152H88.1z M-151,94.7V55.5H42.4v39.2H-151
			z M88.1,94.7V55.5H143v39.2H88.1z M-151,37.7V-1.5H42.4v39.2H-151z M88.1,37.7V-1.5H143v39.2H88.1z M-151-19.7v-39.2H42.4v39.2
			H-151z M88.1-19.7v-39.2H143v39.2H88.1z M-151-77.1v-39.2H42.4v39.2C42.4-77.1-151-77.1-151-77.1z M88.1-77.1v-39.2H143v39.2
			C143-77.1,88.1-77.1,88.1-77.1z M-151-134.6v-39.2H42.4v39.2H-151L-151-134.6z M88.1-134.6v-39.2H143v39.2H88.1L88.1-134.6z
			 M192.5-260H-151V820h655.3V122H192.5V-260z"/>
		<path id="XMLID_388_" class="st1" d="M42.4,55.5H-151v39.2H42.4V55.5z"/>
		<path id="XMLID_387_" class="st1" d="M143.1,55.5h-55v39.2h55V55.5z"/>
		<path id="XMLID_386_" class="st1" d="M42.4,112.9H-151V152H42.4V112.9z"/>
		<path id="XMLID_385_" class="st1" d="M143.1,112.9h-55V152h55V112.9z"/>
		<path id="XMLID_384_" class="st1" d="M42.4,170.2H-151v39.2H42.4V170.2z"/>
		<path id="XMLID_383_" class="st1" d="M143.1,170.2h-55v39.2h55V170.2z"/>
		<path id="XMLID_382_" class="st1" d="M42.4-116.3H-151v39.2H42.4V-116.3z"/>
		<path id="XMLID_381_" class="st1" d="M143.1-116.3h-55v39.2h55V-116.3z"/>
		<path id="XMLID_380_" class="st1" d="M42.4-173.8H-151v39.2H42.4V-173.8z"/>
		<path id="XMLID_379_" class="st1" d="M143.1-173.8h-55v39.2h55V-173.8z"/>
		<path id="XMLID_378_" class="st1" d="M42.4-58.9H-151v39.2H42.4V-58.9z"/>
		<path id="XMLID_377_" class="st1" d="M143.1-58.9h-55v39.2h55V-58.9z"/>
		<path id="XMLID_376_" class="st1" d="M42.4-1.5H-151v39.2H42.4V-1.5z"/>
		<path id="XMLID_375_" class="st1" d="M143.1-1.5h-55v39.2h55V-1.5z"/>
		<path id="XMLID_374_" class="st1" d="M42.4,227.6H-151v39.2H42.4V227.6L42.4,227.6z"/>
		<path id="XMLID_373_" class="st1" d="M143.1,227.6h-55v39.2h55V227.6L143.1,227.6z"/>
		<path id="XMLID_372_" class="st1" d="M42.4,285H-151v39.2H42.4V285z"/>
		<path id="XMLID_371_" class="st1" d="M143.1,285h-55v39.2h55V285z"/>
		<path id="XMLID_370_" class="st1" d="M42.4,342.4H-151v39.2H42.4V342.4z"/>
		<path id="XMLID_369_" class="st1" d="M143.1,342.4h-55v39.2h55V342.4z"/>
		<path id="XMLID_368_" class="st1" d="M42.4,399.8H-151v39.1H42.4V399.8z"/>
		<path id="XMLID_367_" class="st1" d="M143.1,399.8h-55v39.1h55V399.8z"/>
		<path id="XMLID_366_" class="st1" d="M42.4,457.1H-151v39.2H42.4V457.1z"/>
		<path id="XMLID_365_" class="st1" d="M143.1,457.1h-55v39.2h55V457.1z"/>
		<path id="XMLID_364_" class="st1" d="M42.4,514.5H-151v39.2H42.4V514.5z"/>
		<path id="XMLID_363_" class="st1" d="M143.1,514.5h-55v39.2h55V514.5z"/>
		<path id="XMLID_362_" class="st1" d="M42.4,571.9H-151v39.2H42.4V571.9z"/>
		<path id="XMLID_361_" class="st1" d="M143.1,571.9h-55v39.2h55V571.9z"/>
		<path id="XMLID_360_" class="st1" d="M42.4,629.3H-151v39.2H42.4V629.3z"/>
		<path id="XMLID_359_" class="st1" d="M143.1,629.3h-55v39.2h55V629.3z"/>
		<path id="XMLID_358_" class="st1" d="M42.4,686.7H-151v39.1H42.4V686.7z"/>
		<path id="XMLID_357_" class="st1" d="M143.1,686.7h-55v39.1h55V686.7z"/>
		<path id="XMLID_356_" class="st1" d="M42.4,743.6H-151v39.1H42.4V743.6z"/>
		<path id="XMLID_355_" class="st1" d="M143.1,743.6h-55v39.1h55V743.6z"/>
		<path id="XMLID_354_" class="st1" d="M317.5,170.7h-56.7v39.2h56.7V170.7z"/>
		<path id="XMLID_353_" class="st1" d="M504.3,170.7H363.2v39.2h141.1V170.7z"/>
		<path id="XMLID_352_" class="st1" d="M317.5,228.1h-56.7v39.2h56.7V228.1L317.5,228.1z"/>
		<path id="XMLID_351_" class="st1" d="M504.3,228.1H363.2v39.2h141.1V228.1L504.3,228.1z"/>
		<path id="XMLID_350_" class="st1" d="M317.5,285.5h-56.7v39.2h56.7V285.5z"/>
		<path id="XMLID_349_" class="st1" d="M504.3,285.5H363.2v39.2h141.1V285.5z"/>
		<path id="XMLID_348_" class="st1" d="M317.5,342.9h-56.7v39.2h56.7V342.9z"/>
		<path id="XMLID_347_" class="st1" d="M504.3,342.9H363.2v39.2h141.1V342.9z"/>
		<path id="XMLID_346_" class="st1" d="M317.5,400.3h-56.7v39.1h56.7V400.3z"/>
		<path id="XMLID_345_" class="st1" d="M504.3,400.3H363.2v39.1h141.1V400.3z"/>
		<path id="XMLID_344_" class="st1" d="M317.5,457.6h-56.7v39.2h56.7V457.6z"/>
		<path id="XMLID_343_" class="st1" d="M504.3,457.6H363.2v39.2h141.1V457.6z"/>
		<path id="XMLID_342_" class="st1" d="M317.5,515h-56.7v39.2h56.7V515z"/>
		<path id="XMLID_341_" class="st1" d="M504.3,515H363.2v39.2h141.1V515z"/>
		<path id="XMLID_340_" class="st1" d="M317.5,572.4h-56.7v39.2h56.7V572.4z"/>
		<path id="XMLID_339_" class="st1" d="M504.3,572.4H363.2v39.2h141.1V572.4z"/>
		<path id="XMLID_338_" class="st1" d="M317.5,628.8h-56.7V668h56.7V628.8z"/>
		<path id="XMLID_337_" class="st1" d="M504.3,628.8H363.2V668h141.1V628.8z"/>
		<path id="XMLID_336_" class="st1" d="M317.5,686.2h-56.7v39.2h56.7V686.2z"/>
		<path id="XMLID_335_" class="st1" d="M504.3,686.2H363.2v39.2h141.1V686.2z"/>
		<path id="XMLID_334_" class="st1" d="M317.5,743.6h-56.7v39.1h56.7V743.6z"/>
		<path id="XMLID_333_" class="st1" d="M504.3,743.6H363.2v39.1h141.1V743.6z"/>
	</g>
	<g id="XMLID_319_">
		<g id="XMLID_329_">
			<path id="XMLID_331_" class="st2" d="M-151-173.8H42.4v7H-151V-173.8z"/>
			<path id="XMLID_330_" class="st2" d="M88.1-173.8H143v7H88.1V-173.8z"/>
		</g>
		<g id="XMLID_326_">
			<path id="XMLID_328_" class="st2" d="M-151-116.3H42.4v7H-151V-116.3z"/>
			<path id="XMLID_327_" class="st2" d="M88.1-116.3H143v7H88.1V-116.3z"/>
		</g>
		<g id="XMLID_323_">
			<path id="XMLID_325_" class="st2" d="M-151-58.9H42.4v7H-151V-58.9z"/>
			<path id="XMLID_324_" class="st2" d="M88.1-58.9H143v7H88.1V-58.9z"/>
		</g>
		<g id="XMLID_320_">
			<path id="XMLID_322_" class="st2" d="M-151-1.4H42.4v7H-151V-1.4z"/>
			<path id="XMLID_321_" class="st2" d="M88.1-1.4H143v7H88.1V-1.4z"/>
		</g>
	</g>
	<g id="XMLID_306_">
		<g id="XMLID_316_">
			<path id="XMLID_318_" class="st2" d="M-151,55.3H42.4v7H-151V55.3z"/>
			<path id="XMLID_317_" class="st2" d="M88.1,55.3H143v7H88.1V55.3z"/>
		</g>
		<g id="XMLID_313_">
			<path id="XMLID_315_" class="st2" d="M-151,112.8H42.4v7H-151V112.8z"/>
			<path id="XMLID_314_" class="st2" d="M88.1,112.8H143v7H88.1V112.8z"/>
		</g>
		<g id="XMLID_310_">
			<path id="XMLID_312_" class="st2" d="M-151,170.2H42.4v7H-151V170.2z"/>
			<path id="XMLID_311_" class="st2" d="M88.1,170.2H143v7H88.1V170.2z"/>
		</g>
		<g id="XMLID_307_">
			<path id="XMLID_309_" class="st2" d="M-151,227.7H42.4v7H-151V227.7z"/>
			<path id="XMLID_308_" class="st2" d="M88.1,227.7H143v7H88.1V227.7z"/>
		</g>
	</g>
	<g id="XMLID_293_">
		<g id="XMLID_303_">
			<path id="XMLID_305_" class="st2" d="M-151,285H42.4v7H-151V285z"/>
			<path id="XMLID_304_" class="st2" d="M88.1,285H143v7H88.1V285z"/>
		</g>
		<g id="XMLID_300_">
			<path id="XMLID_302_" class="st2" d="M-151,342.5H42.4v7H-151V342.5z"/>
			<path id="XMLID_301_" class="st2" d="M88.1,342.5H143v7H88.1V342.5z"/>
		</g>
		<g id="XMLID_297_">
			<path id="XMLID_299_" class="st2" d="M-151,399.9H42.4v7H-151V399.9z"/>
			<path id="XMLID_298_" class="st2" d="M88.1,399.9H143v7H88.1V399.9z"/>
		</g>
		<g id="XMLID_294_">
			<path id="XMLID_296_" class="st2" d="M-151,457.4H42.4v7H-151V457.4z"/>
			<path id="XMLID_295_" class="st2" d="M88.1,457.4H143v7H88.1V457.4z"/>
		</g>
	</g>
	<g id="XMLID_277_">
		<g id="XMLID_290_">
			<path id="XMLID_292_" class="st2" d="M-151,514.5H42.4v7H-151V514.5z"/>
			<path id="XMLID_291_" class="st2" d="M88.1,514.5H143v7H88.1V514.5z"/>
		</g>
		<g id="XMLID_287_">
			<path id="XMLID_289_" class="st2" d="M-151,572H42.4v7H-151V572z"/>
			<path id="XMLID_288_" class="st2" d="M88.1,572H143v7H88.1V572z"/>
		</g>
		<g id="XMLID_284_">
			<path id="XMLID_286_" class="st2" d="M-151,629.4H42.4v7H-151V629.4z"/>
			<path id="XMLID_285_" class="st2" d="M88.1,629.4H143v7H88.1V629.4z"/>
		</g>
		<g id="XMLID_281_">
			<path id="XMLID_283_" class="st2" d="M-151,686.9H42.4v7H-151V686.9z"/>
			<path id="XMLID_282_" class="st2" d="M88.1,686.9H143v7H88.1V686.9z"/>
		</g>
		<g id="XMLID_278_">
			<path id="XMLID_280_" class="st2" d="M-151,743.6H42.4v7H-151V743.6z"/>
			<path id="XMLID_279_" class="st2" d="M88.1,743.6H143v7H88.1V743.6z"/>
		</g>
	</g>
	<g id="XMLID_199_">
		<g id="XMLID_266_">
			<g id="XMLID_272_">
				<g id="XMLID_275_">
					<path id="XMLID_276_" class="st2" d="M363.2,170.7h141v7h-141V170.7z"/>
				</g>
				<g id="XMLID_273_">
					<path id="XMLID_274_" class="st2" d="M260.8,170.7h56.7v7h-56.7V170.7z"/>
				</g>
			</g>
			<g id="XMLID_267_">
				<g id="XMLID_270_">
					<path id="XMLID_271_" class="st2" d="M363.2,228.1h141v7h-141V228.1z"/>
				</g>
				<g id="XMLID_268_">
					<path id="XMLID_269_" class="st2" d="M260.8,228.1h56.7v7h-56.7V228.1z"/>
				</g>
			</g>
		</g>
		<g id="XMLID_200_">
			<g id="XMLID_261_">
				<g id="XMLID_264_">
					<path id="XMLID_265_" class="st2" d="M363.2,285.5h141v7h-141V285.5z"/>
				</g>
				<g id="XMLID_262_">
					<path id="XMLID_263_" class="st2" d="M260.8,285.5h56.7v7h-56.7V285.5z"/>
				</g>
			</g>
			<g id="XMLID_201_">
				<g id="XMLID_204_">
					<path id="XMLID_205_" class="st2" d="M363.2,342.9h141v7h-141V342.9z"/>
				</g>
				<g id="XMLID_202_">
					<path id="XMLID_203_" class="st2" d="M260.8,342.9h56.7v7h-56.7V342.9z"/>
				</g>
			</g>
		</g>
	</g>
	<g id="XMLID_157_">
		<g id="XMLID_175_">
			<g id="XMLID_194_">
				<g id="XMLID_197_">
					<path id="XMLID_198_" class="st2" d="M363.2,400.3h141v7h-141V400.3z"/>
				</g>
				<g id="XMLID_195_">
					<path id="XMLID_196_" class="st2" d="M260.8,400.3h56.7v7h-56.7V400.3z"/>
				</g>
			</g>
			<g id="XMLID_176_">
				<g id="XMLID_192_">
					<path id="XMLID_193_" class="st2" d="M363.2,457.6h141v7h-141V457.6z"/>
				</g>
				<g id="XMLID_177_">
					<path id="XMLID_178_" class="st2" d="M260.8,457.6h56.7v7h-56.7V457.6z"/>
				</g>
			</g>
		</g>
		<g id="XMLID_158_">
			<g id="XMLID_170_">
				<g id="XMLID_173_">
					<path id="XMLID_174_" class="st2" d="M363.2,515h141v7h-141V515z"/>
				</g>
				<g id="XMLID_171_">
					<path id="XMLID_172_" class="st2" d="M260.8,515h56.7v7h-56.7V515z"/>
				</g>
			</g>
			<g id="XMLID_159_">
				<g id="XMLID_168_">
					<path id="XMLID_169_" class="st2" d="M363.2,572.4h141v7h-141V572.4z"/>
				</g>
				<g id="XMLID_166_">
					<path id="XMLID_167_" class="st2" d="M260.8,572.4h56.7v7h-56.7V572.4z"/>
				</g>
			</g>
		</g>
	</g>
	<g id="XMLID_132_">
		<g id="XMLID_145_">
			<g id="XMLID_152_">
				<g id="XMLID_155_">
					<path id="XMLID_156_" class="st2" d="M363.2,628.8h141v7h-141V628.8z"/>
				</g>
				<g id="XMLID_153_">
					<path id="XMLID_154_" class="st2" d="M260.8,628.8h56.7v7h-56.7V628.8z"/>
				</g>
			</g>
			<g id="XMLID_146_">
				<g id="XMLID_149_">
					<path id="XMLID_151_" class="st2" d="M363.2,686.2h141v7h-141V686.2z"/>
				</g>
				<g id="XMLID_147_">
					<path id="XMLID_148_" class="st2" d="M260.8,686.2h56.7v7h-56.7V686.2z"/>
				</g>
			</g>
		</g>
		<g id="XMLID_133_">
			<g id="XMLID_135_">
				<g id="XMLID_138_">
					<path id="XMLID_139_" class="st2" d="M363.2,743.6h141v7h-141V743.6z"/>
				</g>
				<g id="XMLID_136_">
					<path id="XMLID_137_" class="st2" d="M260.8,743.6h56.7v7h-56.7V743.6z"/>
				</g>
			</g>
		</g>
	</g>
</g>
</svg>
