<?xml version="1.0" encoding="utf-8"?>
<!-- Generator: Adobe Illustrator 19.0.0, SVG Export Plug-In . SVG Version: 6.00 Build 0)  -->
<svg version="1.1" id="Layer_1" xmlns="http://www.w3.org/2000/svg" xmlns:xlink="http://www.w3.org/1999/xlink" x="0px" y="0px"
	 viewBox="0 -90 1920 598.3" style="enable-background:new 0 -90 1920 598.3;" xml:space="preserve">
<style type="text/css">
	.st0{fill:#FFFFFF;}
	.st1{fill:#E6E6E6;}
	.st2{fill:#333333;}
	.st3{fill:#666666;}
	.st4{fill:#CCCCCC;}
	.st5{opacity:0.8;fill:#CCCCCC;enable-background:new    ;}
	.st6{opacity:0.5;fill:#CCCCCC;stroke:#B3B3B3;stroke-miterlimit:10;enable-background:new    ;}
	.st7{fill:#8C6239;}
	.st8{opacity:0.2;fill:#534741;enable-background:new    ;}
	.st9{fill:#C69C6D;}
	.st10{fill:#F2F2F2;}
	.st11{opacity:0.8;}
	.st12{fill:#808080;}
	.st13{fill:#89C7B7;}
	.st14{fill:#F15A24;}
	.st15{fill:#F7931E;}
</style>
<rect y="-90" class="st0" width="1920" height="598.3"/>
<g id="Layer_1_1_">
</g>
<g id="Layer_2">
	<g id="XMLID_100_">
		<path id="XMLID_2_" class="st1" d="M603.7,202.6L363.8,442.5c-4.3,4.3-11.3,4.3-15.7,0L192.4,286.9c-4.3-4.3-4.3-11.3,0-15.7
			l240-239.9c4.3-4.3,11.3-4.3,15.7,0L603.8,187C608,191.3,608,198.3,603.7,202.6z"/>
		<path id="XMLID_4_" class="st2" d="M437.9,25.7l-251,251c-2.7,2.7-6.8,3.5-10.3,1.9l-72.8-22.3c-3.1-1.4-3.8-5.4-1.4-7.8
			L409.7-58.8c2.4-2.4,6.5-1.6,7.8,1.4l22.3,72.8C441.4,19,440.6,23,437.9,25.7z"/>
		<polygon id="XMLID_12_" class="st3" points="415.7,-44.6 432.2,15.3 177.2,270.3 117.2,253.9 		"/>
		<path id="XMLID_3_" class="st2" d="M413,66.8l-185,185c-1.4,1.4-3.7,1.4-5.1,0l-5.5-5.5L407.5,56.2l5.5,5.5
			C414.4,63,414.4,65.4,413,66.8z"/>
		<path id="XMLID_5_" class="st4" d="M504.6,151.8L313,343.4c-1.4,1.4-3.6,1.4-4.9,0l-76.8-76.8c-1.4-1.4-1.4-3.6,0-4.9L422.8,70
			c1.4-1.4,3.6-1.4,4.9,0l76.8,76.8C506,148.2,506,150.4,504.6,151.8z"/>
		
			<rect id="XMLID_101_" x="238.5" y="270.4" transform="matrix(0.7071 -0.7071 0.7071 0.7071 -151.4346 273.8421)" class="st5" width="32.6" height="98.7"/>
		
			<rect id="XMLID_102_" x="464.5" y="44.5" transform="matrix(0.7071 -0.7071 0.7071 0.7071 74.4765 367.4443)" class="st5" width="32.6" height="98.7"/>
		<g id="XMLID_7_">
			<path id="XMLID_6_" class="st2" d="M300.1,266.7l-8.4,8.4c-0.8,0.8-2.2,0.8-3,0l-8.4-8.4c-0.8-0.8-0.8-2.2,0-3l8.4-8.4
				c0.8-0.8,2.2-0.8,3,0l8.4,8.4C300.9,264.6,300.9,265.9,300.1,266.7z"/>
			<path id="XMLID_10_" class="st2" d="M268.3,273.7l-8.4,8.4c-0.8,0.8-2.2,0.8-3,0l-8.4-8.4c-0.8-0.8-0.8-2.2,0-3l8.4-8.4
				c0.8-0.8,2.2-0.8,3,0l8.4,8.4C269.2,271.5,269.2,272.9,268.3,273.7z"/>
			<path id="XMLID_39_" class="st2" d="M281.3,260.8l-8.4,8.4c-0.8,0.8-2.2,0.8-3,0l-8.4-8.4c-0.8-0.8-0.8-2.2,0-3l8.4-8.4
				c0.8-0.8,2.2-0.8,3,0l8.4,8.4C282.1,258.6,282.1,259.9,281.3,260.8z"/>
			<path id="XMLID_40_" class="st2" d="M294.2,247.8l-8.4,8.4c-0.8,0.8-2.2,0.8-3,0l-8.4-8.4c-0.8-0.8-0.8-2.2,0-3l8.4-8.4
				c0.8-0.8,2.2-0.8,3,0l8.4,8.4C295,245.7,295,247,294.2,247.8z"/>
			<path id="XMLID_41_" class="st2" d="M307.1,234.9l-8.4,8.4c-0.8,0.8-2.2,0.8-3,0l-8.4-8.4c-0.8-0.8-0.8-2.2,0-3l8.4-8.4
				c0.8-0.8,2.2-0.8,3,0l8.4,8.4C308,232.7,308,234.1,307.1,234.9z"/>
			<path id="XMLID_42_" class="st2" d="M320.1,222l-8.4,8.4c-0.8,0.8-2.2,0.8-3,0l-8.4-8.4c-0.8-0.8-0.8-2.2,0-3l8.4-8.4
				c0.8-0.8,2.2-0.8,3,0l8.4,8.4C320.9,219.8,320.9,221.1,320.1,222z"/>
			<path id="XMLID_43_" class="st2" d="M333,209l-8.4,8.4c-0.8,0.8-2.2,0.8-3,0l-8.4-8.4c-0.8-0.8-0.8-2.2,0-3l8.4-8.4
				c0.8-0.8,2.2-0.8,3,0l8.4,8.4C333.8,206.8,333.8,208.2,333,209z"/>
			<path id="XMLID_44_" class="st2" d="M346,196.1l-8.4,8.4c-0.8,0.8-2.2,0.8-3,0l-8.4-8.4c-0.8-0.8-0.8-2.2,0-3l8.4-8.4
				c0.8-0.8,2.2-0.8,3,0l8.4,8.4C346.8,193.9,346.8,195.2,346,196.1z"/>
			<path id="XMLID_45_" class="st2" d="M358.9,183.1l-8.4,8.4c-0.8,0.8-2.2,0.8-3,0l-8.4-8.4c-0.8-0.8-0.8-2.2,0-3l8.4-8.4
				c0.8-0.8,2.2-0.8,3,0l8.4,8.4C359.7,181,359.7,182.3,358.9,183.1z"/>
			<path id="XMLID_46_" class="st2" d="M371.8,170.2l-8.4,8.4c-0.8,0.8-2.2,0.8-3,0l-8.4-8.4c-0.8-0.8-0.8-2.2,0-3l8.4-8.4
				c0.8-0.8,2.2-0.8,3,0l8.4,8.4C372.7,168,372.7,169.4,371.8,170.2z"/>
			<path id="XMLID_47_" class="st2" d="M384.8,157.3l-8.4,8.4c-0.8,0.8-2.2,0.8-3,0l-8.4-8.4c-0.8-0.8-0.8-2.2,0-3l8.4-8.4
				c0.8-0.8,2.2-0.8,3,0l8.4,8.4C385.6,155.1,385.6,156.4,384.8,157.3z"/>
			<path id="XMLID_61_" class="st2" d="M338.9,227.9l-8.4,8.4c-0.8,0.8-2.2,0.8-3,0l-8.4-8.4c-0.8-0.8-0.8-2.2,0-3l8.4-8.4
				c0.8-0.8,2.2-0.8,3,0l8.4,8.4C339.8,225.7,339.8,227,338.9,227.9z"/>
			<path id="XMLID_60_" class="st2" d="M351.9,214.9l-8.4,8.4c-0.8,0.8-2.2,0.8-3,0l-8.4-8.4c-0.8-0.8-0.8-2.2,0-3l8.4-8.4
				c0.8-0.8,2.2-0.8,3,0l8.4,8.4C352.7,212.8,352.7,214.1,351.9,214.9z"/>
			<path id="XMLID_59_" class="st2" d="M364.8,202l-8.4,8.4c-0.8,0.8-2.2,0.8-3,0L345,202c-0.8-0.8-0.8-2.2,0-3l8.4-8.4
				c0.8-0.8,2.2-0.8,3,0l8.4,8.4C365.6,199.8,365.6,201.2,364.8,202z"/>
			<path id="XMLID_58_" class="st2" d="M377.7,189.1l-8.4,8.4c-0.8,0.8-2.2,0.8-3,0l-8.4-8.4c-0.8-0.8-0.8-2.2,0-3l8.4-8.4
				c0.8-0.8,2.2-0.8,3,0l8.4,8.4C378.6,186.9,378.6,188.2,377.7,189.1z"/>
			<path id="XMLID_57_" class="st2" d="M390.7,176.1l-8.4,8.4c-0.8,0.8-2.2,0.8-3,0l-8.4-8.4c-0.8-0.8-0.8-2.2,0-3l8.4-8.4
				c0.8-0.8,2.2-0.8,3,0l8.4,8.4C391.5,173.9,391.5,175.3,390.7,176.1z"/>
			<path id="XMLID_56_" class="st2" d="M403.6,163.2l-8.4,8.4c-0.8,0.8-2.2,0.8-3,0l-8.4-8.4c-0.8-0.8-0.8-2.2,0-3l8.4-8.4
				c0.8-0.8,2.2-0.8,3,0l8.4,8.4C404.4,161,404.4,162.3,403.6,163.2z"/>
			<path id="XMLID_55_" class="st2" d="M416.6,150.2l-8.4,8.4c-0.8,0.8-2.2,0.8-3,0l-8.4-8.4c-0.8-0.8-0.8-2.2,0-3l8.4-8.4
				c0.8-0.8,2.2-0.8,3,0l8.4,8.4C417.4,148.1,417.4,149.4,416.6,150.2z"/>
			<path id="XMLID_54_" class="st2" d="M429.5,137.3l-8.4,8.4c-0.8,0.8-2.2,0.8-3,0l-8.4-8.4c-0.8-0.8-0.8-2.2,0-3l8.4-8.4
				c0.8-0.8,2.2-0.8,3,0l8.4,8.4C430.3,135.1,430.3,136.5,429.5,137.3z"/>
			<path id="XMLID_53_" class="st2" d="M442.4,124.4l-8.4,8.4c-0.8,0.8-2.2,0.8-3,0l-8.4-8.4c-0.8-0.8-0.8-2.2,0-3l8.4-8.4
				c0.8-0.8,2.2-0.8,3,0l8.4,8.4C443.3,122.2,443.3,123.5,442.4,124.4z"/>
			<path id="XMLID_52_" class="st2" d="M455.4,111.4l-8.4,8.4c-0.8,0.8-2.2,0.8-3,0l-8.4-8.4c-0.8-0.8-0.8-2.2,0-3l8.4-8.4
				c0.8-0.8,2.2-0.8,3,0l8.4,8.4C456.2,109.3,456.2,110.6,455.4,111.4z"/>
			<path id="XMLID_48_" class="st2" d="M397.7,144.3l-8.4,8.4c-0.8,0.8-2.2,0.8-3,0l-8.4-8.4c-0.8-0.8-0.8-2.2,0-3l8.4-8.4
				c0.8-0.8,2.2-0.8,3,0l8.4,8.4C398.5,142.2,398.5,143.5,397.7,144.3z"/>
			<path id="XMLID_49_" class="st2" d="M410.6,131.4l-8.4,8.4c-0.8,0.8-2.2,0.8-3,0l-8.4-8.4c-0.8-0.8-0.8-2.2,0-3l8.4-8.4
				c0.8-0.8,2.2-0.8,3,0l8.4,8.4C411.5,129.2,411.5,130.6,410.6,131.4z"/>
			<path id="XMLID_50_" class="st2" d="M423.6,118.5l-8.4,8.4c-0.8,0.8-2.2,0.8-3,0l-8.4-8.4c-0.8-0.8-0.8-2.2,0-3l8.4-8.4
				c0.8-0.8,2.2-0.8,3,0l8.4,8.4C424.4,116.3,424.4,117.6,423.6,118.5z"/>
			<path id="XMLID_51_" class="st2" d="M443.2,98.8L428,114.1c-0.8,0.8-2.2,0.8-3,0l-8.4-8.4c-0.8-0.8-0.8-2.2,0-3l15.3-15.3
				c0.8-0.8,2.2-0.8,3,0l8.4,8.4C444.1,96.6,444.1,98,443.2,98.8z"/>
			<path id="XMLID_28_" class="st2" d="M320.2,325.6l-8.4,8.4c-0.8,0.8-2.2,0.8-3,0l-9.5-9.5c-0.8-0.8-0.8-2.2,0-3l8.4-8.4
				c0.8-0.8,2.2-0.8,3,0l9.5,9.5C321,323.4,321,324.7,320.2,325.6z"/>
			<path id="XMLID_29_" class="st2" d="M333.1,312.7l-8.4,8.4c-0.8,0.8-2.2,0.8-3,0l-9.5-9.5c-0.8-0.8-0.8-2.2,0-3l8.4-8.4
				c0.8-0.8,2.2-0.8,3,0l9.5,9.5C333.9,310.5,333.9,311.8,333.1,312.7z"/>
			<path id="XMLID_30_" class="st2" d="M346,299.8l-8.4,8.4c-0.8,0.8-2.2,0.8-3,0l-9.5-9.5c-0.8-0.8-0.8-2.2,0-3l8.4-8.4
				c0.8-0.8,2.2-0.8,3,0l9.5,9.5C346.8,297.6,346.8,298.9,346,299.8z"/>
			<path id="XMLID_34_" class="st2" d="M456.3,189.5l-8.4,8.4c-0.8,0.8-2.2,0.8-3,0l-9.5-9.5c-0.8-0.8-0.8-2.2,0-3l8.4-8.4
				c0.8-0.8,2.2-0.8,3,0l9.5,9.5C457.1,187.3,457.1,188.7,456.3,189.5z"/>
			<path id="XMLID_37_" class="st2" d="M482.1,163.6l-8.4,8.4c-0.8,0.8-2.2,0.8-3,0l-9.5-9.5c-0.8-0.8-0.8-2.2,0-3l8.4-8.4
				c0.8-0.8,2.2-0.8,3,0l9.5,9.5C483,161.4,483,162.8,482.1,163.6z"/>
			<path id="XMLID_31_" class="st2" d="M362.6,283.1L350.8,295c-0.8,0.8-2.2,0.8-3,0l-9.5-9.5c-0.8-0.8-0.8-2.2,0-3l11.9-11.9
				c0.8-0.8,2.2-0.8,3,0l9.5,9.5C363.5,280.9,363.5,282.3,362.6,283.1z"/>
			<path id="XMLID_33_" class="st2" d="M443,202.7l-11.9,11.9c-0.8,0.8-2.2,0.8-3,0l-9.5-9.5c-0.8-0.8-0.8-2.2,0-3l11.9-11.9
				c0.8-0.8,2.2-0.8,3,0l9.5,9.5C443.8,200.5,443.8,201.9,443,202.7z"/>
			<path id="XMLID_32_" class="st2" d="M426.9,218.9L366.8,279c-0.8,0.8-2.2,0.8-3,0l-9.5-9.5c-0.8-0.8-0.8-2.2,0-3l60.1-60.1
				c0.8-0.8,2.2-0.8,3,0l9.5,9.5C427.7,216.7,427.7,218,426.9,218.9z"/>
			<path id="XMLID_11_" class="st2" d="M255.7,261.1l-8.4,8.4c-0.8,0.8-2.2,0.8-3,0l-3.6-3.6c-0.8-0.8-0.8-2.2,0-3l8.4-8.4
				c0.8-0.8,2.2-0.8,3,0l3.6,3.6C256.5,258.9,256.5,260.2,255.7,261.1z"/>
			<path id="XMLID_13_" class="st2" d="M269.1,247.6l-8.4,8.4c-0.8,0.8-2.2,0.8-3,0l-3.6-3.6c-0.8-0.8-0.8-2.2,0-3l8.4-8.4
				c0.8-0.8,2.2-0.8,3,0l3.6,3.6C270,245.4,270,246.8,269.1,247.6z"/>
			<path id="XMLID_14_" class="st2" d="M282.6,234.2l-8.4,8.4c-0.8,0.8-2.2,0.8-3,0l-3.6-3.6c-0.8-0.8-0.8-2.2,0-3l8.4-8.4
				c0.8-0.8,2.2-0.8,3,0l3.6,3.6C283.4,232,283.4,233.3,282.6,234.2z"/>
			<path id="XMLID_15_" class="st2" d="M296,220.7l-8.4,8.4c-0.8,0.8-2.2,0.8-3,0l-3.6-3.6c-0.8-0.8-0.8-2.2,0-3l8.4-8.4
				c0.8-0.8,2.2-0.8,3,0l3.6,3.6C296.9,218.5,296.9,219.9,296,220.7z"/>
			<path id="XMLID_16_" class="st2" d="M309.5,207.2l-8.4,8.4c-0.8,0.8-2.2,0.8-3,0l-3.6-3.6c-0.8-0.8-0.8-2.2,0-3l8.4-8.4
				c0.8-0.8,2.2-0.8,3,0l3.6,3.6C310.3,205.1,310.3,206.4,309.5,207.2z"/>
			<path id="XMLID_17_" class="st2" d="M323,193.8l-8.4,8.4c-0.8,0.8-2.2,0.8-3,0l-3.6-3.6c-0.8-0.8-0.8-2.2,0-3l8.4-8.4
				c0.8-0.8,2.2-0.8,3,0l3.6,3.6C323.8,191.6,323.8,193,323,193.8z"/>
			<path id="XMLID_18_" class="st2" d="M336.4,180.3l-8.4,8.4c-0.8,0.8-2.2,0.8-3,0l-3.6-3.6c-0.8-0.8-0.8-2.2,0-3l8.4-8.4
				c0.8-0.8,2.2-0.8,3,0l3.6,3.6C337.2,178.2,337.2,179.5,336.4,180.3z"/>
			<path id="XMLID_19_" class="st2" d="M349.9,166.9l-8.4,8.4c-0.8,0.8-2.2,0.8-3,0l-3.6-3.6c-0.8-0.8-0.8-2.2,0-3l8.4-8.4
				c0.8-0.8,2.2-0.8,3,0l3.6,3.6C350.7,164.7,350.7,166.1,349.9,166.9z"/>
			<path id="XMLID_20_" class="st2" d="M363.3,153.4l-8.4,8.4c-0.8,0.8-2.2,0.8-3,0l-3.6-3.6c-0.8-0.8-0.8-2.2,0-3l8.4-8.4
				c0.8-0.8,2.2-0.8,3,0l3.6,3.6C364.1,151.3,364.1,152.6,363.3,153.4z"/>
			<path id="XMLID_21_" class="st2" d="M376.8,140l-8.4,8.4c-0.8,0.8-2.2,0.8-3,0l-3.6-3.6c-0.8-0.8-0.8-2.2,0-3l8.4-8.4
				c0.8-0.8,2.2-0.8,3,0l3.6,3.6C377.6,137.8,377.6,139.2,376.8,140z"/>
			<path id="XMLID_22_" class="st2" d="M390.2,126.5l-8.4,8.4c-0.8,0.8-2.2,0.8-3,0l-3.6-3.6c-0.8-0.8-0.8-2.2,0-3l8.4-8.4
				c0.8-0.8,2.2-0.8,3,0l3.6,3.6C391.1,124.4,391.1,125.7,390.2,126.5z"/>
			<path id="XMLID_23_" class="st2" d="M403.7,113.1l-8.4,8.4c-0.8,0.8-2.2,0.8-3,0l-3.6-3.6c-0.8-0.8-0.8-2.2,0-3l8.4-8.4
				c0.8-0.8,2.2-0.8,3,0l3.6,3.6C404.5,110.9,404.5,112.2,403.7,113.1z"/>
			<path id="XMLID_35_" class="st2" d="M469.2,176.5l-8.4,8.4c-0.8,0.8-2.2,0.8-3,0l-2.9-2.9c-0.8-0.8-0.8-2.2,0-3l8.4-8.4
				c0.8-0.8,2.2-0.8,3,0l2.9,2.9C470,174.4,470,175.7,469.2,176.5z"/>
			<path id="XMLID_36_" class="st2" d="M495.1,150.7l-8.4,8.4c-0.8,0.8-2.2,0.8-3,0l-2.9-2.9c-0.8-0.8-0.8-2.2,0-3l8.4-8.4
				c0.8-0.8,2.2-0.8,3,0l2.9,2.9C495.9,148.5,495.9,149.8,495.1,150.7z"/>
			<path id="XMLID_24_" class="st2" d="M417.1,99.6l-8.4,8.4c-0.8,0.8-2.2,0.8-3,0l-3.6-3.6c-0.8-0.8-0.8-2.2,0-3l8.4-8.4
				c0.8-0.8,2.2-0.8,3,0l3.6,3.6C418,97.4,418,98.8,417.1,99.6z"/>
			<path id="XMLID_25_" class="st2" d="M430.6,86.2l-8.4,8.4c-0.8,0.8-2.2,0.8-3,0l-3.6-3.6c-0.8-0.8-0.8-2.2,0-3l8.4-8.4
				c0.8-0.8,2.2-0.8,3,0l3.6,3.6C431.4,84,431.4,85.3,430.6,86.2z"/>
			<path id="XMLID_8_" class="st2" d="M313,253.8l-8.4,8.4c-0.8,0.8-2.2,0.8-3,0l-8.4-8.4c-0.8-0.8-0.8-2.2,0-3l8.4-8.4
				c0.8-0.8,2.2-0.8,3,0l8.4,8.4C313.8,251.7,313.8,253,313,253.8z"/>
			<path id="XMLID_38_" class="st2" d="M326,240.8l-8.4,8.4c-0.8,0.8-2.2,0.8-3,0l-8.4-8.4c-0.8-0.8-0.8-2.2,0-3l8.4-8.4
				c0.8-0.8,2.2-0.8,3,0l8.4,8.4C326.9,238.6,326.9,239.9,326,240.8z"/>
			<path id="XMLID_72_" class="st2" d="M329,263.6l-8.4,8.4c-0.8,0.8-2.2,0.8-3,0l-8.4-8.4c-0.8-0.8-0.8-2.2,0-3l8.4-8.4
				c0.8-0.8,2.2-0.8,3,0l8.4,8.4C329.9,261.4,329.9,262.7,329,263.6z"/>
			<path id="XMLID_71_" class="st2" d="M342,250.6l-8.4,8.4c-0.8,0.8-2.2,0.8-3,0l-8.4-8.4c-0.8-0.8-0.8-2.2,0-3l8.4-8.4
				c0.8-0.8,2.2-0.8,3,0l8.4,8.4C342.8,248.5,342.8,249.8,342,250.6z"/>
			<path id="XMLID_70_" class="st2" d="M354.9,237.7l-8.4,8.4c-0.8,0.8-2.2,0.8-3,0l-8.4-8.4c-0.8-0.8-0.8-2.2,0-3l8.4-8.4
				c0.8-0.8,2.2-0.8,3,0l8.4,8.4C355.7,235.5,355.7,236.9,354.9,237.7z"/>
			<path id="XMLID_69_" class="st2" d="M367.8,224.7l-8.4,8.4c-0.8,0.8-2.2,0.8-3,0l-8.4-8.4c-0.8-0.8-0.8-2.2,0-3l8.4-8.4
				c0.8-0.8,2.2-0.8,3,0l8.4,8.4C368.7,222.6,368.7,223.9,367.8,224.7z"/>
			<path id="XMLID_68_" class="st2" d="M380.8,211.8l-8.4,8.4c-0.8,0.8-2.2,0.8-3,0l-8.4-8.4c-0.8-0.8-0.8-2.2,0-3l8.4-8.4
				c0.8-0.8,2.2-0.8,3,0l8.4,8.4C381.6,209.6,381.6,211,380.8,211.8z"/>
			<path id="XMLID_67_" class="st2" d="M393.7,198.9l-8.4,8.4c-0.8,0.8-2.2,0.8-3,0l-8.4-8.4c-0.8-0.8-0.8-2.2,0-3l8.4-8.4
				c0.8-0.8,2.2-0.8,3,0l8.4,8.4C394.5,196.7,394.5,198,393.7,198.9z"/>
			<path id="XMLID_66_" class="st2" d="M406.7,185.9l-8.4,8.4c-0.8,0.8-2.2,0.8-3,0l-8.4-8.4c-0.8-0.8-0.8-2.2,0-3l8.4-8.4
				c0.8-0.8,2.2-0.8,3,0l8.4,8.4C407.5,183.8,407.5,185.1,406.7,185.9z"/>
			<path id="XMLID_65_" class="st2" d="M419.6,173l-8.4,8.4c-0.8,0.8-2.2,0.8-3,0l-8.4-8.4c-0.8-0.8-0.8-2.2,0-3l8.4-8.4
				c0.8-0.8,2.2-0.8,3,0l8.4,8.4C420.4,170.8,420.4,172.2,419.6,173z"/>
			<path id="XMLID_64_" class="st2" d="M432.5,160.1l-8.4,8.4c-0.8,0.8-2.2,0.8-3,0l-8.4-8.4c-0.8-0.8-0.8-2.2,0-3l8.4-8.4
				c0.8-0.8,2.2-0.8,3,0l8.4,8.4C433.4,157.9,433.4,159.2,432.5,160.1z"/>
			<path id="XMLID_63_" class="st2" d="M445.5,147.1l-8.4,8.4c-0.8,0.8-2.2,0.8-3,0l-8.4-8.4c-0.8-0.8-0.8-2.2,0-3l8.4-8.4
				c0.8-0.8,2.2-0.8,3,0l8.4,8.4C446.3,144.9,446.3,146.3,445.5,147.1z"/>
			<path id="XMLID_97_" class="st2" d="M468.5,124.1L450,142.6c-0.8,0.8-2.2,0.8-3,0l-8.4-8.4c-0.8-0.8-0.8-2.2,0-3l18.5-18.5
				c0.8-0.8,2.2-0.8,3,0l8.4,8.4C469.3,121.9,469.3,123.3,468.5,124.1z"/>
			<path id="XMLID_62_" class="st2" d="M316.1,276.5l-8.4,8.4c-0.8,0.8-2.2,0.8-3,0l-8.4-8.4c-0.8-0.8-0.8-2.2,0-3l8.4-8.4
				c0.8-0.8,2.2-0.8,3,0l8.4,8.4C317,274.3,317,275.6,316.1,276.5z"/>
			<path id="XMLID_96_" class="st2" d="M348,269.6l-8.4,8.4c-0.8,0.8-2.2,0.8-3,0l-8.4-8.4c-0.8-0.8-0.8-2.2,0-3l8.4-8.4
				c0.8-0.8,2.2-0.8,3,0l8.4,8.4C348.8,267.4,348.8,268.8,348,269.6z"/>
			<path id="XMLID_95_" class="st2" d="M360.9,256.7l-8.4,8.4c-0.8,0.8-2.2,0.8-3,0l-8.4-8.4c-0.8-0.8-0.8-2.2,0-3l8.4-8.4
				c0.8-0.8,2.2-0.8,3,0l8.4,8.4C361.8,254.5,361.8,255.8,360.9,256.7z"/>
			<path id="XMLID_94_" class="st2" d="M373.9,243.7l-8.4,8.4c-0.8,0.8-2.2,0.8-3,0l-8.4-8.4c-0.8-0.8-0.8-2.2,0-3l8.4-8.4
				c0.8-0.8,2.2-0.8,3,0l8.4,8.4C374.7,241.6,374.7,242.9,373.9,243.7z"/>
			<path id="XMLID_93_" class="st2" d="M386.8,230.8l-8.4,8.4c-0.8,0.8-2.2,0.8-3,0l-8.4-8.4c-0.8-0.8-0.8-2.2,0-3l8.4-8.4
				c0.8-0.8,2.2-0.8,3,0l8.4,8.4C387.7,228.6,387.7,230,386.8,230.8z"/>
			<path id="XMLID_79_" class="st2" d="M399.8,217.9l-8.4,8.4c-0.8,0.8-2.2,0.8-3,0l-8.4-8.4c-0.8-0.8-0.8-2.2,0-3l8.4-8.4
				c0.8-0.8,2.2-0.8,3,0l8.4,8.4C400.6,215.7,400.6,217,399.8,217.9z"/>
			<path id="XMLID_78_" class="st2" d="M412.7,204.9l-8.4,8.4c-0.8,0.8-2.2,0.8-3,0l-8.4-8.4c-0.8-0.8-0.8-2.2,0-3l8.4-8.4
				c0.8-0.8,2.2-0.8,3,0l8.4,8.4C413.5,202.7,413.5,204.1,412.7,204.9z"/>
			<path id="XMLID_77_" class="st2" d="M425.6,192l-8.4,8.4c-0.8,0.8-2.2,0.8-3,0l-8.4-8.4c-0.8-0.8-0.8-2.2,0-3l8.4-8.4
				c0.8-0.8,2.2-0.8,3,0l8.4,8.4C426.5,189.8,426.5,191.1,425.6,192z"/>
			<path id="XMLID_76_" class="st2" d="M438.6,179l-8.4,8.4c-0.8,0.8-2.2,0.8-3,0l-8.4-8.4c-0.8-0.8-0.8-2.2,0-3l8.4-8.4
				c0.8-0.8,2.2-0.8,3,0l8.4,8.4C439.4,176.9,439.4,178.2,438.6,179z"/>
			<path id="XMLID_75_" class="st2" d="M451.5,166.1l-8.4,8.4c-0.8,0.8-2.2,0.8-3,0l-8.4-8.4c-0.8-0.8-0.8-2.2,0-3l8.4-8.4
				c0.8-0.8,2.2-0.8,3,0l8.4,8.4C452.3,163.9,452.3,165.3,451.5,166.1z"/>
			<path id="XMLID_74_" class="st2" d="M480.8,136.8l-24.7,24.7c-0.8,0.8-2.2,0.8-3,0l-8.4-8.4c-0.8-0.8-0.8-2.2,0-3l24.7-24.7
				c0.8-0.8,2.2-0.8,3,0l8.4,8.4C481.6,134.7,481.6,136,480.8,136.8z"/>
			<path id="XMLID_73_" class="st2" d="M335.1,282.5l-8.4,8.4c-0.8,0.8-2.2,0.8-3,0l-8.4-8.4c-0.8-0.8-0.8-2.2,0-3l8.4-8.4
				c0.8-0.8,2.2-0.8,3,0l8.4,8.4C335.9,280.3,335.9,281.7,335.1,282.5z"/>
			<path id="XMLID_9_" class="st2" d="M287.3,279.5l-14.9,14.9c-0.8,0.8-2.2,0.8-3,0L261,286c-0.8-0.8-0.8-2.2,0-3l14.9-14.9
				c0.8-0.8,2.2-0.8,3,0l8.4,8.4C288.1,277.3,288.1,278.7,287.3,279.5z"/>
			<path id="XMLID_26_" class="st2" d="M303.2,289.4l-17.9,17.9c-0.8,0.8-2.2,0.8-3,0l-8.4-8.4c-0.8-0.8-0.8-2.2,0-3l17.9-17.9
				c0.8-0.8,2.2-0.8,3,0l8.4,8.4C304,287.2,304,288.6,303.2,289.4z"/>
			<path id="XMLID_27_" class="st2" d="M322.5,295.1l-24.7,24.7c-0.8,0.8-2.2,0.8-3,0l-8.4-8.4c-0.8-0.8-0.8-2.2,0-3l24.7-24.7
				c0.8-0.8,2.2-0.8,3,0l8.4,8.4C323.3,293,323.3,294.3,322.5,295.1z"/>
		</g>
		<path id="XMLID_98_" class="st6" d="M501.2,274.4L435.5,340c-1.2,1.2-3.3,1.2-4.5,0l-46.5-46.5c-1.2-1.2-1.2-3.3,0-4.5l65.7-65.7
			c1.2-1.2,3.3-1.2,4.5,0l46.5,46.5C502.5,271.1,502.5,273.1,501.2,274.4z"/>
	</g>
	<path id="XMLID_103_" class="st1" d="M705.3,322.6l-7.2,4.2c-10.5,6-24.5,1.5-30.5-9L644.1,277c-6-10.5-2.9-24.9,7.6-30.9l7.2-4.2
		c10.5-6,24.5-1.5,30.5,9l23.4,40.7C718.9,302.1,715.8,316.5,705.3,322.6z"/>
	<g id="XMLID_133_">
		<circle id="XMLID_99_" class="st2" cx="152.1" cy="378.7" r="48.2"/>
		<g id="XMLID_132_">
			<path id="XMLID_113_" class="st7" d="M112,366.1c6.4-20.1,26.5-32.1,46.7-28.8c2,0.3,4,0.8,6,1.4c22.1,7,34.3,30.7,27.3,52.8
				c-7,22.1-30.7,34.3-52.8,27.3c-2-0.6-3.9-1.4-5.8-2.3C115.2,407.6,105.6,386.2,112,366.1z"/>
			<path id="XMLID_117_" class="st8" d="M158.7,337.4c2,0.3,4,0.8,6,1.4c22.1,7,34.3,30.7,27.3,52.8c-7,22.1-30.7,34.3-52.8,27.3
				c-2-0.6-3.9-1.4-5.8-2.3c20.2,3.3,40.3-8.6,46.7-28.8C186.7,367.7,177.2,346.4,158.7,337.4z"/>
		</g>
		<path id="XMLID_131_" class="st2" d="M90.3,352l19.7,6.2l-3.9,12.4l-19.7-6.2c-1.9-0.6-2.9-2.6-2.3-4.5l1.7-5.5
			C86.4,352.4,88.4,351.4,90.3,352z"/>
	</g>
	<g id="XMLID_283_">
		<g id="XMLID_134_">
			<path class="st9" d="M739.8,403.1l-42.5,105.2H575.2l-0.2,0.6l0,0l0,0v0.1l0,0l0,0l0.2-0.5l59.7-147.6l0,0l0,0L739.8,403.1z"/>
		</g>
		<g id="XMLID_138_">
			<polygon class="st10" points="738.3,402.7 695.7,508.3 575.2,508.3 634.8,360.9 			"/>
		</g>
		<g id="XMLID_139_" class="st11">
			<path class="st4" d="M574.9,508.8L574.9,508.8C574.9,508.9,574.9,508.9,574.9,508.8L574.9,508.8L574.9,508.8L574.9,508.8
				L574.9,508.8z"/>
		</g>
		<g id="XMLID_137_">
			<path class="st9" d="M634.8,360.7l-59.7,147.6l-0.2,0.6v0.1l0,0l0,0c0,0-0.1-0.1-0.2-0.1l-1.1-0.5l-1.4,3.4
				c-1-0.7-2.8-1.9-5.1-3.4c-14.7-9.5-53.3-32.2-98.7-38.2l61.4-151.9c25.3,3.3,48.5,11.7,66.5,20.3c0.3,0.1,0.5,0.2,0.8,0.4
				C619.8,349.6,634.3,360.3,634.8,360.7L634.8,360.7z"/>
		</g>
		<g id="XMLID_140_">
			<path class="st10" d="M634.9,360.5l-0.1,0.2l-59.7,147.6l0,0l-0.2,0.6v0.1l0,0l0,0c0,0-0.1-0.1-0.2-0.1c-0.1-0.1-0.3-0.3-0.6-0.5
				c-6.4-4.6-48.7-33.4-100-40.1l60-148.4c23.5,3,45.1,10.8,62.2,18.7c0.3,0.1,0.5,0.2,0.8,0.4C620.2,349.6,634.9,360.5,634.9,360.5
				z"/>
		</g>
		<g id="XMLID_135_">
			<path class="st9" d="M574.9,508.8L574.9,508.8C574.9,508.9,574.9,508.9,574.9,508.8L574.9,508.8c-0.1,0-0.1,0-0.2-0.1
				L574.9,508.8L574.9,508.8L574.9,508.8z"/>
		</g>
		<g id="XMLID_142_">
			
				<rect id="XMLID_282_" x="634.9" y="394.7" transform="matrix(0.9271 0.3748 -0.3748 0.9271 197.4497 -224.8927)" class="st12" width="84" height="1"/>
		</g>
		<g id="XMLID_143_">
			
				<rect id="XMLID_281_" x="633.3" y="399.3" transform="matrix(0.9271 0.3748 -0.3748 0.9271 199.2659 -224.8929)" class="st12" width="89" height="1"/>
		</g>
		<g id="XMLID_144_">
			
				<rect id="XMLID_280_" x="631.7" y="403.2" transform="matrix(0.9271 0.3748 -0.3748 0.9271 200.6313 -224.2054)" class="st12" width="90" height="1"/>
		</g>
		<g id="XMLID_145_">
			
				<rect id="XMLID_279_" x="630.9" y="403.6" transform="matrix(0.9271 0.3748 -0.3748 0.9271 200.0671 -220.4809)" class="st12" width="72" height="1"/>
		</g>
		<g id="XMLID_146_">
			
				<rect id="XMLID_278_" x="628.7" y="410.5" transform="matrix(0.9271 0.3748 -0.3748 0.9271 203.1234 -222.3723)" class="st12" width="89" height="1"/>
		</g>
		<g id="XMLID_147_">
			
				<rect id="XMLID_277_" x="628.9" y="405.7" transform="matrix(0.9271 0.3748 -0.3748 0.9271 199.6934 -214.3513)" class="st12" width="44" height="1"/>
		</g>
		<g id="XMLID_153_">
			
				<rect id="XMLID_276_" x="623.7" y="422.5" transform="matrix(0.9271 0.3748 -0.3748 0.9271 207.0651 -218.6648)" class="st12" width="84" height="1"/>
		</g>
		<g id="XMLID_152_">
			
				<rect id="XMLID_275_" x="622" y="427.1" transform="matrix(0.9271 0.3748 -0.3748 0.9271 208.8501 -218.6431)" class="st12" width="89" height="1"/>
		</g>
		<g id="XMLID_151_">
			
				<rect id="XMLID_274_" x="620.5" y="431" transform="matrix(0.9271 0.3748 -0.3748 0.9271 210.2468 -217.9774)" class="st12" width="90" height="1"/>
		</g>
		<g id="XMLID_150_">
			
				<rect id="XMLID_273_" x="619.3" y="433.2" transform="matrix(0.9271 0.3748 -0.3748 0.9271 210.6955 -215.8691)" class="st12" width="82" height="1"/>
		</g>
		<g id="XMLID_149_">
			
				<rect id="XMLID_272_" x="617.5" y="438.3" transform="matrix(0.9271 0.3748 -0.3748 0.9271 212.7075 -216.1225)" class="st12" width="89" height="1"/>
		</g>
		<g id="XMLID_148_">
			
				<rect id="XMLID_271_" x="617.7" y="433.5" transform="matrix(0.9271 0.3748 -0.3748 0.9271 209.3088 -208.1233)" class="st12" width="44" height="1"/>
		</g>
		<g id="XMLID_154_">
			
				<rect id="XMLID_270_" x="614.5" y="445.9" transform="matrix(0.9271 0.3748 -0.3748 0.9271 215.3827 -214.6271)" class="st12" width="90" height="1"/>
		</g>
		<g id="XMLID_136_">
			<polygon class="st2" points="690.9,441.8 690.7,442.2 689.3,444.9 688.9,445.8 687.5,448.6 687.1,449.5 685.3,453 683.1,455.4 
				682.3,456.2 634.2,508.3 624,508.3 674.9,453.2 675.7,452.4 679.8,447.9 681.2,447.1 682.4,446.5 685.8,444.6 687,444 
				690.4,442.1 			"/>
		</g>
	</g>
	<g id="XMLID_293_">
		<g id="XMLID_1_">
			<g id="XMLID_221_">
				<path id="XMLID_288_" class="st4" d="M1471.3,152.4l295.4-61.3c2-0.4,3.9,0.9,4.3,2.8l42.5,204.5c1.6,7.8-3.4,15.5-11.2,17.1
					l-274.3,57c-7.8,1.6-15.5-3.4-17.1-11.2l-42.5-204.5C1468.1,154.7,1469.3,152.8,1471.3,152.4z"/>
			</g>
			<g id="XMLID_176_">
				
					<rect id="XMLID_286_" x="1489.3" y="146.3" transform="matrix(0.9791 -0.2033 0.2033 0.9791 0.6777 327.2027)" class="st12" width="207.4" height="28"/>
			</g>
			<g id="XMLID_224_">
				
					<rect id="XMLID_285_" x="1494.7" y="180.5" transform="matrix(0.9791 -0.2033 0.2033 0.9791 -3.1032 335.6236)" class="st12" width="274.8" height="4.8"/>
			</g>
			<g id="XMLID_223_">
				
					<rect id="XMLID_284_" x="1704.3" y="117.3" transform="matrix(0.9791 -0.2033 0.2033 0.9791 9.4881 355.0003)" class="st12" width="56.8" height="28"/>
			</g>
			<g id="XMLID_222_">
				
					<rect id="XMLID_269_" x="1499.8" y="218.2" transform="matrix(0.9791 -0.2033 0.2033 0.9791 -12.438 318.3455)" class="st12" width="87" height="3"/>
			</g>
			<g id="XMLID_80_">
				
					<rect id="XMLID_268_" x="1501.9" y="227.9" transform="matrix(0.9791 -0.2033 0.2033 0.9791 -14.3631 318.9661)" class="st12" width="87" height="3"/>
			</g>
			<g id="XMLID_81_">
				
					<rect id="XMLID_267_" x="1503.9" y="237.7" transform="matrix(0.9791 -0.2033 0.2033 0.9791 -16.3161 319.5788)" class="st12" width="87" height="3"/>
			</g>
			<g id="XMLID_82_">
				
					<rect id="XMLID_266_" x="1505.9" y="247.5" transform="matrix(0.9791 -0.2033 0.2033 0.9791 -18.269 320.1917)" class="st12" width="87" height="3"/>
			</g>
			<g id="XMLID_83_">
				
					<rect id="XMLID_265_" x="1508.5" y="262.6" transform="matrix(0.9791 -0.2033 0.2033 0.9791 -21.8216 315.7501)" class="st12" width="35" height="3"/>
			</g>
			<g id="XMLID_85_">
				
					<rect id="XMLID_264_" x="1512" y="276.9" transform="matrix(0.9791 -0.2033 0.2033 0.9791 -24.118 322.0479)" class="st12" width="87" height="3"/>
			</g>
			<g id="XMLID_86_">
				
					<rect id="XMLID_263_" x="1518.1" y="306.3" transform="matrix(0.9791 -0.2033 0.2033 0.9791 -29.9669 323.9039)" class="st12" width="87" height="3"/>
			</g>
			<g id="XMLID_88_">
				
					<rect id="XMLID_262_" x="1520.3" y="317.2" transform="matrix(0.9791 -0.2033 0.2033 0.9791 -32.2487 323.4589)" class="st12" width="76" height="3"/>
			</g>
			<g id="XMLID_89_">
				
					<rect id="XMLID_261_" x="1522.2" y="325.9" transform="matrix(0.9791 -0.2033 0.2033 0.9791 -33.8628 325.1473)" class="st12" width="87" height="3"/>
			</g>
			<g id="XMLID_90_">
				
					<rect id="XMLID_260_" x="1524.2" y="335.7" transform="matrix(0.9791 -0.2033 0.2033 0.9791 -35.8157 325.7601)" class="st12" width="87" height="3"/>
			</g>
			<g id="XMLID_87_">
				
					<rect id="XMLID_259_" x="1516.1" y="296.5" transform="matrix(0.9791 -0.2033 0.2033 0.9791 -28.0139 323.2911)" class="st12" width="87" height="3"/>
			</g>
			<g id="XMLID_235_">
				
					<rect id="XMLID_258_" x="1514.1" y="286.7" transform="matrix(0.9791 -0.2033 0.2033 0.9791 -26.0609 322.6784)" class="st12" width="87" height="3"/>
			</g>
			<g id="XMLID_114_">
				
					<rect id="XMLID_257_" x="1591.9" y="199" transform="matrix(0.9791 -0.2033 0.2033 0.9791 -6.6085 336.6597)" class="st12" width="87" height="3"/>
			</g>
			<g id="XMLID_112_">
				
					<rect id="XMLID_256_" x="1593.9" y="208.8" transform="matrix(0.9791 -0.2033 0.2033 0.9791 -8.5615 337.2726)" class="st12" width="87" height="3"/>
			</g>
			<g id="XMLID_111_">
				
					<rect id="XMLID_255_" x="1596" y="219.3" transform="matrix(0.9791 -0.2033 0.2033 0.9791 -10.7239 337.2065)" class="st12" width="80" height="3"/>
			</g>
			<g id="XMLID_110_">
				
					<rect id="XMLID_254_" x="1598.1" y="229.5" transform="matrix(0.9791 -0.2033 0.2033 0.9791 -12.7964 337.4403)" class="st12" width="76" height="3"/>
			</g>
			<g id="XMLID_109_">
				
					<rect id="XMLID_253_" x="1600" y="238.4" transform="matrix(0.9791 -0.2033 0.2033 0.9791 -14.4686 338.9285)" class="st12" width="85" height="3"/>
			</g>
			<g id="XMLID_108_">
				
					<rect id="XMLID_252_" x="1602" y="248" transform="matrix(0.9791 -0.2033 0.2033 0.9791 -16.3633 339.7415)" class="st12" width="87" height="3"/>
			</g>
			<g id="XMLID_107_">
				
					<rect id="XMLID_251_" x="1604.5" y="261.8" transform="matrix(0.9791 -0.2033 0.2033 0.9791 -19.5257 336.5775)" class="st12" width="48" height="3"/>
			</g>
			<g id="XMLID_106_">
				
					<rect id="XMLID_250_" x="1610.2" y="287.2" transform="matrix(0.9791 -0.2033 0.2033 0.9791 -24.1552 342.2283)" class="st12" width="87" height="3"/>
			</g>
			<g id="XMLID_105_">
				
					<rect id="XMLID_249_" x="1612.4" y="298.8" transform="matrix(0.9791 -0.2033 0.2033 0.9791 -26.6634 341.0883)" class="st12" width="69" height="3"/>
			</g>
			<g id="XMLID_104_">
				
					<rect id="XMLID_248_" x="1614.2" y="306.7" transform="matrix(0.9791 -0.2033 0.2033 0.9791 -28.0434 343.4438)" class="st12" width="87" height="3"/>
			</g>
			<g id="XMLID_92_">
				
					<rect id="XMLID_247_" x="1616.4" y="317.5" transform="matrix(0.9791 -0.2033 0.2033 0.9791 -30.2774 343.2071)" class="st12" width="78" height="3"/>
			</g>
			<g id="XMLID_91_">
				
					<rect id="XMLID_246_" x="1608.1" y="277.4" transform="matrix(0.9791 -0.2033 0.2033 0.9791 -22.2122 341.5977)" class="st12" width="87" height="3"/>
			</g>
			<g id="XMLID_234_">
				
					<rect id="XMLID_245_" x="1684" y="181" transform="matrix(0.9791 -0.2033 0.2033 0.9791 -1.1299 353.9994)" class="st12" width="77" height="3"/>
			</g>
			<g id="XMLID_233_">
				
					<rect id="XMLID_244_" x="1685.9" y="189.7" transform="matrix(0.9791 -0.2033 0.2033 0.9791 -2.7599 355.5791)" class="st12" width="87" height="3"/>
			</g>
			<g id="XMLID_232_">
				
					<rect id="XMLID_243_" x="1688.3" y="202.9" transform="matrix(0.9791 -0.2033 0.2033 0.9791 -5.7336 352.9916)" class="st12" width="54" height="3"/>
			</g>
			<g id="XMLID_230_">
				
					<rect id="XMLID_242_" x="1692" y="219.1" transform="matrix(0.9791 -0.2033 0.2033 0.9791 -8.6088 357.4352)" class="st12" width="87" height="3"/>
			</g>
			<g id="XMLID_229_">
				
					<rect id="XMLID_241_" x="1694.1" y="228.9" transform="matrix(0.9791 -0.2033 0.2033 0.9791 -10.5517 358.0658)" class="st12" width="87" height="3"/>
			</g>
			<g id="XMLID_228_">
				
					<rect id="XMLID_240_" x="1696.4" y="241.1" transform="matrix(0.9791 -0.2033 0.2033 0.9791 -13.2373 356.3466)" class="st12" width="63" height="3"/>
			</g>
			<g id="XMLID_227_">
				
					<rect id="XMLID_239_" x="1702.2" y="268.1" transform="matrix(0.9791 -0.2033 0.2033 0.9791 -18.3536 360.5348)" class="st12" width="87" height="3"/>
			</g>
			<g id="XMLID_226_">
				
					<rect id="XMLID_238_" x="1704.3" y="278.6" transform="matrix(0.9791 -0.2033 0.2033 0.9791 -20.5158 360.4688)" class="st12" width="80" height="3"/>
			</g>
			<g id="XMLID_225_">
				
					<rect id="XMLID_237_" x="1706.3" y="287.6" transform="matrix(0.9791 -0.2033 0.2033 0.9791 -22.2318 361.7681)" class="st12" width="87" height="3"/>
			</g>
			<g id="XMLID_116_">
				
					<rect id="XMLID_236_" x="1708.3" y="297.4" transform="matrix(0.9791 -0.2033 0.2033 0.9791 -24.1847 362.381)" class="st12" width="87" height="3"/>
			</g>
			<g id="XMLID_115_">
				
					<rect id="XMLID_231_" x="1700.2" y="258.3" transform="matrix(0.9791 -0.2033 0.2033 0.9791 -16.4006 359.922)" class="st12" width="87" height="3"/>
			</g>
		</g>
		<g id="XMLID_295_">
			<g id="XMLID_377_">
				<path class="st4" d="M1920,213.7v59.8L1895,425c-1.3,7.9-8.7,13.2-16.6,11.9L1602,391.3c-7.9-1.3-13.2-8.7-11.9-16.6l2.6-15.6
					l4.4-26.4l0.5-3.2l1.2-7.4l0.5-3.2l3-18l0.5-3.2l4.7-28.5l0.5-3.2l1.2-7.5l0.5-3.2l1.2-7.4l0.5-3.2l1.2-7.4l0.5-3.2l1.2-7.4
					l0.5-3.2l1.2-7.4l0.5-3.2l1.2-7.4l0.5-3.2l2.4-14.8l0.8-5.1l2.3-14c0-0.2,0.1-0.3,0.1-0.5c0.5-1.7,2.2-2.8,4.1-2.5l4.4,0.7
					l37.5,6.2l13.1,2.2l38.6,6.4l8.2,1.4l19,3.1l8.2,1.4l34,5.6L1920,213.7z"/>
			</g>
			<g id="XMLID_375_">
				
					<rect id="XMLID_376_" x="1635.3" y="202.8" transform="matrix(0.9867 0.1627 -0.1627 0.9867 58.4424 -280.0482)" class="st12" width="207.4" height="28"/>
			</g>
			<g id="XMLID_373_">
				
					<rect id="XMLID_374_" x="1629.9" y="249.6" transform="matrix(0.9867 0.1627 -0.1627 0.9867 64.5425 -284.1837)" class="st12" width="274.8" height="4.8"/>
			</g>
			<g id="XMLID_371_">
				
					<rect id="XMLID_372_" x="1851.4" y="226" transform="matrix(0.9867 0.1627 -0.1627 0.9867 64.0882 -302.633)" class="st12" width="56.8" height="28"/>
			</g>
			<g id="XMLID_369_">
				<polygon id="XMLID_370_" class="st12" points="1707,306.8 1621.1,292.7 1628.6,245.7 1714.4,259.9 				"/>
			</g>
			<g id="XMLID_359_">
				
					<rect id="XMLID_360_" x="1618" y="312" transform="matrix(0.9867 0.1627 -0.1627 0.9867 73.1401 -266.1507)" class="st12" width="87" height="3"/>
			</g>
			<g id="XMLID_357_">
				
					<rect id="XMLID_358_" x="1613.1" y="341.6" transform="matrix(0.9867 0.1627 -0.1627 0.9867 77.8898 -264.9595)" class="st12" width="87" height="3"/>
			</g>
			<g id="XMLID_355_">
				
					<rect id="XMLID_356_" x="1611.6" y="350.6" transform="matrix(0.9867 0.1627 -0.1627 0.9867 79.2639 -263.6981)" class="st12" width="76" height="3"/>
			</g>
			<g id="XMLID_353_">
				
					<rect id="XMLID_354_" x="1610" y="361.3" transform="matrix(0.9867 0.1627 -0.1627 0.9867 81.0556 -264.1774)" class="st12" width="87" height="3"/>
			</g>
			<g id="XMLID_351_">
				
					<rect id="XMLID_352_" x="1608.3" y="371.2" transform="matrix(0.9867 0.1627 -0.1627 0.9867 82.646 -263.7831)" class="st12" width="87" height="3"/>
			</g>
			<g id="XMLID_349_">
				
					<rect id="XMLID_350_" x="1614.9" y="331.7" transform="matrix(0.9867 0.1627 -0.1627 0.9867 76.3059 -265.3687)" class="st12" width="87" height="3"/>
			</g>
			<g id="XMLID_347_">
				
					<rect id="XMLID_348_" x="1616.4" y="321.9" transform="matrix(0.9867 0.1627 -0.1627 0.9867 74.7304 -265.7565)" class="st12" width="87" height="3"/>
			</g>
			<g id="XMLID_345_">
				
					<rect id="XMLID_346_" x="1720.5" y="268.1" transform="matrix(0.9867 0.1627 -0.1627 0.9867 67.3625 -283.4123)" class="st12" width="87" height="3"/>
			</g>
			<g id="XMLID_343_">
				
					<rect id="XMLID_344_" x="1718.9" y="278" transform="matrix(0.9867 0.1627 -0.1627 0.9867 68.9528 -283.018)" class="st12" width="87" height="3"/>
			</g>
			<g id="XMLID_341_">
				
					<rect id="XMLID_342_" x="1717.3" y="287.2" transform="matrix(0.9867 0.1627 -0.1627 0.9867 70.3764 -282.056)" class="st12" width="80" height="3"/>
			</g>
			<g id="XMLID_339_">
				
					<rect id="XMLID_340_" x="1715.7" y="296.8" transform="matrix(0.9867 0.1627 -0.1627 0.9867 71.8959 -281.3539)" class="st12" width="76" height="3"/>
			</g>
			<g id="XMLID_337_">
				
					<rect id="XMLID_338_" x="1714.1" y="307.3" transform="matrix(0.9867 0.1627 -0.1627 0.9867 73.6525 -281.6709)" class="st12" width="85" height="3"/>
			</g>
			<g id="XMLID_335_">
				
					<rect id="XMLID_336_" x="1712.5" y="317.4" transform="matrix(0.9867 0.1627 -0.1627 0.9867 75.2779 -281.4389)" class="st12" width="87" height="3"/>
			</g>
			<g id="XMLID_333_">
				
					<rect id="XMLID_334_" x="1711" y="324.1" transform="matrix(0.9867 0.1627 -0.1627 0.9867 76.0937 -277.946)" class="st12" width="48" height="3"/>
			</g>
			<g id="XMLID_331_">
				
					<rect id="XMLID_332_" x="1705.9" y="356.9" transform="matrix(0.9867 0.1627 -0.1627 0.9867 81.618 -279.8533)" class="st12" width="87" height="3"/>
			</g>
			<g id="XMLID_329_">
				
					<rect id="XMLID_330_" x="1704.4" y="365.3" transform="matrix(0.9867 0.1627 -0.1627 0.9867 82.8495 -278.0305)" class="st12" width="69" height="3"/>
			</g>
			<g id="XMLID_327_">
				
					<rect id="XMLID_328_" x="1702.7" y="376.6" transform="matrix(0.9867 0.1627 -0.1627 0.9867 84.7773 -279.0562)" class="st12" width="87" height="3"/>
			</g>
			<g id="XMLID_324_">
				
					<rect id="XMLID_326_" x="1701.1" y="385.8" transform="matrix(0.9867 0.1627 -0.1627 0.9867 86.1957 -277.954)" class="st12" width="78" height="3"/>
			</g>
			<g id="XMLID_321_">
				
					<rect id="XMLID_322_" x="1707.6" y="347" transform="matrix(0.9867 0.1627 -0.1627 0.9867 80.0276 -280.2476)" class="st12" width="87" height="3"/>
			</g>
			<g id="XMLID_318_">
				
					<rect id="XMLID_320_" x="1813.3" y="282.6" transform="matrix(0.9867 0.1627 -0.1627 0.9867 70.8893 -297.5039)" class="st12" width="77" height="3"/>
			</g>
			<g id="XMLID_314_">
				
					<rect id="XMLID_316_" x="1811.7" y="293.2" transform="matrix(0.9867 0.1627 -0.1627 0.9867 72.6621 -297.9025)" class="st12" width="87" height="3"/>
			</g>
			<g id="XMLID_312_">
				
					<rect id="XMLID_313_" x="1810.2" y="300.3" transform="matrix(0.9867 0.1627 -0.1627 0.9867 73.5878 -294.8787)" class="st12" width="54" height="3"/>
			</g>
			<g id="XMLID_310_">
				
					<rect id="XMLID_311_" x="1806.8" y="322.8" transform="matrix(0.9867 0.1627 -0.1627 0.9867 77.4118 -296.7112)" class="st12" width="87" height="3"/>
			</g>
			<g id="XMLID_308_">
				
					<rect id="XMLID_309_" x="1805.1" y="332.7" transform="matrix(0.9867 0.1627 -0.1627 0.9867 78.9957 -296.3019)" class="st12" width="87" height="3"/>
			</g>
			<g id="XMLID_306_">
				
					<rect id="XMLID_307_" x="1803.8" y="340.6" transform="matrix(0.9867 0.1627 -0.1627 0.9867 80.1127 -294.0308)" class="st12" width="63" height="3"/>
			</g>
			<g id="XMLID_304_">
				
					<rect id="XMLID_305_" x="1798.7" y="372.2" transform="matrix(0.9867 0.1627 -0.1627 0.9867 85.3398 -294.7321)" class="st12" width="87" height="3"/>
			</g>
			<g id="XMLID_302_">
				
					<rect id="XMLID_303_" x="1797.2" y="381.5" transform="matrix(0.9867 0.1627 -0.1627 0.9867 86.7887 -293.7946)" class="st12" width="80" height="3"/>
			</g>
			<g id="XMLID_300_">
				
					<rect id="XMLID_301_" x="1795.4" y="391.9" transform="matrix(0.9867 0.1627 -0.1627 0.9867 88.5016 -293.9343)" class="st12" width="87" height="3"/>
			</g>
			<g id="XMLID_298_">
				
					<rect id="XMLID_299_" x="1793.8" y="401.8" transform="matrix(0.9867 0.1627 -0.1627 0.9867 90.096 -293.5558)" class="st12" width="87" height="3"/>
			</g>
			<g id="XMLID_296_">
				
					<rect id="XMLID_297_" x="1800.3" y="362.3" transform="matrix(0.9867 0.1627 -0.1627 0.9867 83.7519 -295.1256)" class="st12" width="87" height="3"/>
			</g>
		</g>
		<g id="XMLID_155_">
			<polygon class="st13" points="1576.5,461.8 1565,467.1 1474.4,508.3 1386.5,508.3 1310.4,341.2 1281.6,277.9 1456.5,198.3 
				1465.8,218.7 1482.9,256.3 1484.7,260.2 1488.1,267.6 1489.9,271.6 1494.3,281.2 1535.1,371 			"/>
			<g id="XMLID_156_">
				<path id="XMLID_157_" class="st0" d="M1328.2,296.4c-0.6-1.4-2.2-2-3.6-1.4c-1.3,0.6-1.9,2.3-1.4,3.7c0.6,1.3,2.2,1.9,3.6,1.3
					C1328.2,299.3,1328.8,297.7,1328.2,296.4z M1330,301.5l-4,1.8l6.8,14.9l4-1.8L1330,301.5z"/>
				<path id="XMLID_160_" class="st0" d="M1341.1,314.4l-6.8-14.9l3.8-1.7l0.8,1.8c0.2-1.8,1.7-3.5,3.3-4.2c2-0.9,4.1-0.8,5.5,0.5
					c0.4-2.4,1.6-3.7,3.6-4.6c2.8-1.3,6.1-0.8,8,3.2l4.4,9.6l-3.9,1.8l-4-8.8c-0.7-1.6-2.1-2.5-3.9-1.6c-1.7,0.8-2.1,2.6-1.4,4.2
					l4,8.7l-4,1.8l-4-8.8c-0.7-1.6-2.1-2.4-3.9-1.6s-2.2,2.6-1.4,4.2l4,8.7L1341.1,314.4z"/>
				<path id="XMLID_162_" class="st0" d="M1379,288.2c-2.1-4.6-7-6.4-11.4-4.3c-3.6,1.6-5.5,5.1-5,8.8c0.1,0.9,0.4,1.8,0.8,2.6
					c0.2,0.5,0.5,1,0.8,1.5c0.7,1,1.5,1.8,2.5,2.4c0.9,0.6,2,1,3,1.2c1.5,0.3,3.1,0.1,4.7-0.5c0.1,0,0.3-0.1,0.4-0.2
					c1.3-0.6,2.4-1.4,3.2-2.4l0,0c0.6-0.7,1.1-1.5,1.4-2.4l0,0C1380.1,292.7,1380,290.4,1379,288.2z M1367.7,294.2
					c-0.1-0.2-0.2-0.4-0.4-0.7c-0.2-0.5-0.3-0.9-0.4-1.3c-0.4-2.2,0.6-3.9,2.3-4.7c2-0.9,4.4-0.3,5.7,2.5c1.3,2.8,0.2,5.1-1.9,6
					C1371.2,296.8,1369,296.4,1367.7,294.2z"/>
				<path id="XMLID_165_" class="st0" d="M1389.6,292.3l-4,1.8l-6.8-14.9l3.9-1.8l0.8,1.8c0.2-2,1.7-3.5,3.3-4.2
					c3.7-1.7,6.6,0.2,8.1,3.4l4.3,9.4l-4,1.8l-4-8.7c-0.8-1.7-2.2-2.6-4.1-1.7c-1.8,0.8-2.2,2.6-1.4,4.4L1389.6,292.3z"/>
				<path id="XMLID_167_" class="st0" d="M1416.5,278.1l-1-2.2l-5-11.1l-3.9,1.8l0.8,1.8c-1-0.8-2.8-1.2-5.2-0.1
					c-4.1,1.8-5.4,6.5-3.6,10.4c1.1,2.4,3,4,5.1,4.6c1.6,0.4,3.4,0.3,5.1-0.5c2.2-1,3.1-2.6,3.3-3.8l0.5,1.1
					c0.6,1.3,0.7,2.4,0.5,3.3c-0.3,1.1-1.2,2-2.6,2.6c-1.9,0.9-3.8,0.3-4.8-1.2l-1.8,1.5l-1.4,1.1c0.1,0.2,0.2,0.3,0.4,0.5
					c0.9,1.1,2.2,1.9,3.7,2.3c1.7,0.4,3.6,0.2,5.6-0.7c0.5-0.2,1-0.5,1.4-0.8c1.5-0.9,2.4-2,3-3.2
					C1417.9,283.2,1417.6,280.5,1416.5,278.1z M1402.6,276.8c-1-2.3-0.1-4.5,1.9-5.4c1.9-0.8,4.2-0.1,5.2,2.2c1,2.3,0.2,4.5-1.8,5.4
					C1405.8,279.9,1403.7,279.1,1402.6,276.8z"/>
				<path id="XMLID_170_" class="st0" d="M1434.5,269.9l-2-4.5l-4-8.8l-3.9,1.8l0.8,1.8c-1-0.8-2.8-1.2-5.2-0.1
					c-4.1,1.8-5.4,6.5-3.6,10.4c0.6,1.3,1.5,2.4,2.5,3.2c2.1,1.7,5,2.1,7.7,0.9c2.2-1,3.1-2.6,3.3-3.8l0.5,1.1
					c0.8,1.7,0.8,3.1,0.1,4.1c-0.4,0.7-1.2,1.3-2.2,1.8c-1.2,0.6-2.3,0.5-3.3,0.1c-0.6-0.3-1.1-0.7-1.5-1.3l-3.2,2.6
					c0,0.1,0.1,0.1,0.1,0.2c1,1.6,2.9,2.6,5,2.8c1.4,0.1,3-0.1,4.6-0.9c0.1,0,0.1-0.1,0.2-0.1c1.7-0.8,2.9-1.8,3.7-2.9
					C1435.9,275.8,1435.8,272.7,1434.5,269.9z M1425.9,270.8c-0.9,0.4-1.7,0.5-2.5,0.3c-1.1-0.3-2.1-1.1-2.8-2.5
					c-1-2.3-0.1-4.5,1.9-5.4c1.9-0.8,4.2-0.1,5.2,2.2c0.5,0.9,0.6,1.9,0.4,2.7C1427.9,269.3,1427.1,270.3,1425.9,270.8z"/>
				<path id="XMLID_173_" class="st0" d="M1450.4,255.7c-2.1-4.6-7-6.4-11.4-4.3c-4.4,2-6.3,6.8-4.2,11.4c0.1,0.3,0.3,0.6,0.5,0.9
					c1.4,2.3,3.6,3.8,6,4.1c1.6,0.3,3.3,0,5-0.7C1450.6,265.1,1452.5,260.3,1450.4,255.7z M1444.5,263.5c-2,0.9-4.4,0.3-5.7-2.5
					c-1.2-2.9-0.1-5.1,1.9-6s4.4-0.3,5.7,2.5C1447.7,260.3,1446.5,262.5,1444.5,263.5z"/>
			</g>
		</g>
		<g id="XMLID_177_">
			<polygon class="st14" points="1602.3,477.2 1577,486.4 1517.1,508.3 1409,508.3 1359.3,372.3 1356.5,364.4 1341.1,322.2 
				1322.4,271.1 1465.8,218.7 1480.2,213.5 1502.9,205.2 1503.7,207.1 1505.3,211.7 1510.2,225 1511.2,227.9 1513.6,234.5 
				1514.7,237.3 1517.1,244 1518.1,246.8 1520.6,253.5 1521.6,256.3 1524.1,263 1525.1,265.8 1531,282 1532,284.8 1534.4,291.5 
				1535.5,294.3 1537.9,301 1539,303.8 1541.4,310.5 1542.4,313.3 1544.9,320 1545.9,322.8 1548.3,329.5 1549.4,332.3 1551.8,339 
				1552.8,341.8 1561.5,365.5 			"/>
			<g id="XMLID_178_">
				<path id="XMLID_195_" class="st0" d="M1367.5,293.2c-0.1-0.4-0.3-0.7-0.6-1c-0.7-0.8-1.9-1.1-2.9-0.7c-0.6,0.2-1.1,0.6-1.4,1.2
					c-0.4,0.7-0.5,1.6-0.2,2.4c0.3,0.9,1,1.4,1.8,1.7c0.5,0.1,1.1,0.1,1.7-0.1c1.1-0.5,1.7-1.5,1.8-2.5
					C1367.7,293.8,1367.6,293.5,1367.5,293.2z M1370.9,303.6l-1.2-3.3l-0.7-2l-2.3,0.8l-1.9,0.7l2.3,6.2l3.3,9.2l4.2-1.5
					L1370.9,303.6z"/>
				<path id="XMLID_193_" class="st0" d="M1378.9,312.1l-5.6-15.4l4-1.4l0.7,1.9c0.3-1.8,2-3.3,3.7-4c2.1-0.8,4.1-0.5,5.5,0.9
					c0.5-2.3,1.9-3.6,3.9-4.3c2.8-1,6.2-0.3,7.7,3.8l3.6,10l-4,1.5l-3.3-9.1c-0.6-1.7-1.9-2.6-3.8-1.9c-1.8,0.6-2.3,2.4-1.7,4.1
					l3.3,9l-4.1,1.5l-3.3-9.1c-0.6-1.7-1.9-2.6-3.8-1.9c-1.8,0.7-2.4,2.4-1.8,4.1l3.3,9L1378.9,312.1z"/>
				<path id="XMLID_190_" class="st0" d="M1418.7,288.8c-0.5-1.3-1.2-2.4-2-3.3c-1-1-2.3-1.8-3.6-2.1c-1.7-0.5-3.5-0.4-5.4,0.2
					c-1.6,0.6-2.9,1.5-3.8,2.7c-0.4,0.5-0.8,1-1,1.6c-1,2-1.1,4.4-0.3,6.8c1.7,4.7,6.4,6.9,11,5.2
					C1418.2,298.2,1420.4,293.5,1418.7,288.8z M1412.3,296.2c-2,0.8-4.5,0-5.5-2.9c-0.4-1.2-0.5-2.2-0.2-3.1
					c0.4-1.3,1.3-2.3,2.5-2.7c1.5-0.6,3.3-0.3,4.5,1.2c0.4,0.4,0.7,1,1,1.7C1415.7,293.3,1414.3,295.4,1412.3,296.2z"/>
				<path id="XMLID_188_" class="st0" d="M1429,293.8l-4.2,1.5l-5.6-15.4l4-1.5l0.7,1.9c0.4-1.9,1.9-3.3,3.6-3.9
					c3.8-1.4,6.5,0.7,7.8,4.1l3.5,9.7l-4.2,1.5l-3.3-9c-0.6-1.7-2-2.8-4-2c-1.8,0.7-2.4,2.5-1.7,4.2L1429,293.8z"/>
				<path id="XMLID_185_" class="st0" d="M1456.6,281.6l-5-13.7l-4,1.5l0.7,1.8c-0.9-0.8-2.7-1.4-5.1-0.5h-0.1
					c-4.1,1.5-5.8,6-4.3,10c1.6,4.4,5.8,6.4,9.9,4.9c1.2-0.4,2-1,2.6-1.7c0.5-0.6,0.8-1.2,1-1.8l0.4,1.1c0.5,1.4,0.6,2.5,0.2,3.4
					c-0.4,1.1-1.3,1.9-2.8,2.4c-1.9,0.7-3.7,0-4.6-1.6l-3.6,2.3c1.5,2.7,5.3,4.3,9.5,2.8c1.6-0.6,2.8-1.4,3.7-2.3
					C1457.6,287.9,1457.7,284.6,1456.6,281.6z M1448.3,282c-2.1,0.7-4.2-0.2-5.1-2.6c-0.8-2.3,0.1-4.2,2.1-5.1
					c0.1,0,0.1-0.1,0.2-0.1c2-0.8,4.1,0.1,5,2.5c0.6,1.8,0.2,3.5-0.9,4.5C1449.2,281.5,1448.8,281.8,1448.3,282z"/>
				<path id="XMLID_182_" class="st0" d="M1475.3,274.8l-5-13.7l-4,1.5l0.7,1.8c-0.9-0.8-2.7-1.4-5.1-0.5c-4.2,1.5-5.9,6-4.4,10.1
					c1.6,4.4,5.8,6.4,9.9,4.9c2.3-0.8,3.3-2.3,3.6-3.5l0.4,1.1c1.1,3,0.1,4.8-2.5,5.8c-1.9,0.7-3.7,0-4.6-1.6l-3.6,2.3
					c1.5,2.7,5.3,4.3,9.5,2.8C1476,283.7,1476.8,279,1475.3,274.8z M1466.9,275.2c-2.1,0.7-4.2-0.2-5.1-2.6
					c-0.8-2.4,0.2-4.4,2.3-5.2c2-0.8,4.1,0.1,5,2.5C1470,272.3,1469,274.4,1466.9,275.2z"/>
				<path id="XMLID_179_" class="st0" d="M1492.5,261.9c-0.7-1.8-1.8-3.2-3.1-4.2c-1.8-1.4-4.1-1.9-6.5-1.4
					c-0.5,0.1-0.9,0.2-1.4,0.4c-4.6,1.7-6.8,6.4-5.1,11.1c1.7,4.7,6.4,6.9,11,5.2c0.9-0.3,1.8-0.8,2.5-1.4c0.8-0.6,1.4-1.3,1.9-2.1
					C1493.2,267.3,1493.5,264.6,1492.5,261.9z M1486,269.2c-2,0.8-4.5,0-5.5-2.9c-1.1-2.9,0.3-5.1,2.3-5.8c0.6-0.2,1.3-0.3,1.9-0.3
					c1.4,0.2,2.8,1.2,3.6,3.2c0.6,1.7,0.4,3.1-0.2,4.2C1487.6,268.4,1486.8,268.9,1486,269.2z"/>
			</g>
		</g>
		<g id="XMLID_199_">
			<polygon class="st15" points="1590.5,508.1 1590.3,508.3 1364.4,508.3 1274.5,363.6 1310.4,341.2 1341.1,322.2 1367.1,306 
				1370.9,303.6 1374.9,301.2 1386.8,293.8 1387.4,293.4 1388.1,293 1389.5,292.1 1393.8,289.4 1394.8,288.8 1398.6,286.5 
				1403.7,283.3 1415.5,275.9 1419.1,273.7 1423.4,271.1 1428.1,268.1 1432.5,265.4 1435.3,263.7 1437.7,262.1 1441.2,267.8 
				1443.1,270.8 1445.3,274.3 1449.6,281.2 1451.3,284 1452.9,286.7 1455.2,290.3 1565,467.1 1577,486.4 			"/>
			<g id="XMLID_200_">
				<path id="XMLID_217_" class="st0" d="M1323.2,376c-0.8-1.3-2.5-1.7-3.8-0.9c-1.3,0.8-1.7,2.5-0.8,3.8c0.7,1.2,2.4,1.6,3.7,0.8
					C1323.6,378.9,1324,377.2,1323.2,376z M1325.6,380.8l-3.8,2.3l8.6,13.9l3.8-2.3L1325.6,380.8z"/>
				<path id="XMLID_215_" class="st0" d="M1338.2,392.2l-8.6-13.9l3.6-2.2l1.1,1.7c-0.1-1.8,1.2-3.7,2.8-4.6
					c1.9-1.2,3.9-1.3,5.6-0.2c0-2.4,1.1-3.9,3-5c2.6-1.6,6-1.6,8.3,2.2l5.6,9l-3.6,2.3l-5.1-8.2c-0.9-1.5-2.4-2.2-4.1-1.1
					c-1.6,1-1.8,2.8-0.9,4.3l5,8.1l-3.7,2.3l-5.1-8.2c-0.9-1.5-2.4-2.2-4.1-1.1c-1.6,1-1.8,2.8-0.9,4.4l5,8.1L1338.2,392.2z"/>
				<path id="XMLID_212_" class="st0" d="M1372.4,361.3c-2.7-4.3-7.7-5.4-11.9-2.8c-2.2,1.4-3.7,3.5-4,5.9c-0.3,1.9,0.1,4,1.3,6
					c0.4,0.7,1,1.3,1.5,1.9c2.8,2.6,6.9,3.1,10.3,0.9C1373.8,370.6,1375,365.6,1372.4,361.3z M1367.5,369.8c-1.9,1.1-4.4,0.8-6-1.8
					s-0.7-5,1.1-6.1c1.9-1.1,4.4-0.8,6,1.8C1370.3,366.3,1369.4,368.7,1367.5,369.8z"/>
				<path id="XMLID_210_" class="st0" d="M1383.4,364.1l-3.8,2.3l-8.6-13.9l3.6-2.3l1.1,1.7c0-2,1.2-3.6,2.7-4.6
					c3.4-2.1,6.5-0.7,8.4,2.4l5.4,8.7l-3.8,2.3l-5-8.1c-1-1.6-2.5-2.3-4.3-1.2c-1.6,1-1.8,2.9-0.8,4.5L1383.4,364.1z"/>
				<path id="XMLID_207_" class="st0" d="M1408.3,346.7l-7.7-12.4l-3.6,2.2l1,1.6c-1-0.6-2.9-0.8-5.1,0.6c-3.9,2.4-4.6,7.1-2.3,10.8
					c2.5,3.9,7,5,10.7,2.7c2-1.3,2.8-2.9,2.8-4.2l0.6,1c1.7,2.7,1.1,4.7-1.3,6.2c-1.8,1.1-3.7,0.8-4.9-0.6l-2.9,3.1
					c2.1,2.4,6.1,3.2,9.9,0.8C1410.8,355.3,1410.7,350.5,1408.3,346.7z M1399.9,348.6c-1.9,1.2-4.1,0.7-5.5-1.5
					c-1.3-2.2-0.7-4.4,1.2-5.6c1.8-1.1,4.1-0.6,5.4,1.5S1401.8,347.4,1399.9,348.6z"/>
				<path id="XMLID_204_" class="st0" d="M1425.1,336.2l-7.7-12.4l-3.6,2.2l1,1.6c-1-0.6-2.9-0.8-5.1,0.6c-3.9,2.4-4.6,7.1-2.3,10.8
					c2.5,3.9,7,5,10.7,2.7c2-1.3,2.8-2.9,2.8-4.2l0.6,1c1.7,2.7,1.1,4.7-1.3,6.2c-1.8,1.1-3.7,0.8-4.9-0.6l-2.9,3.1
					c2.1,2.4,6.1,3.2,9.9,0.8C1427.6,344.8,1427.5,340,1425.1,336.2z M1416.7,338.1c-1.9,1.2-4.1,0.7-5.5-1.5
					c-1.3-2.2-0.7-4.4,1.2-5.6c1.8-1.1,4.1-0.6,5.4,1.5C1419.2,334.7,1418.7,336.9,1416.7,338.1z"/>
				<path id="XMLID_201_" class="st0" d="M1439.1,319.9c-2.7-4.3-7.8-5.4-11.9-2.8s-5.4,7.6-2.7,11.9c2.7,4.2,7.8,5.4,11.9,2.8
					C1440.5,329.2,1441.7,324.2,1439.1,319.9z M1434.2,328.4c-1.9,1.1-4.4,0.8-6-1.8c-1.6-2.6-0.7-5,1.1-6.1c1.9-1.1,4.4-0.8,6,1.8
					C1436.9,324.9,1436.1,327.3,1434.2,328.4z"/>
			</g>
		</g>
	</g>
	<g id="XMLID_290_">
		<path id="XMLID_289_" class="st2" d="M681.1,46.7l-36.3,65.7c-1.2,2.2-3.9,3-6.1,1.8L507.6,41.8c-2.2-1.2-3-3.9-1.8-6.1L542.1-30
			c1.2-2.2,3.9-3,6.1-1.8l131.1,72.3C681.5,41.8,682.3,44.5,681.1,46.7z"/>
		
			<rect id="XMLID_291_" x="551.7" y="-25.6" transform="matrix(0.4831 -0.8756 0.8756 0.4831 270.6321 537.5187)" class="st3" width="77.8" height="130.4"/>
	</g>
</g>
</svg>
