<?xml version="1.0" encoding="utf-8"?>
<!-- Generator: Adobe Illustrator 19.0.0, SVG Export Plug-In . SVG Version: 6.00 Build 0)  -->
<svg version="1.1" id="Layer_1" xmlns="http://www.w3.org/2000/svg" xmlns:xlink="http://www.w3.org/1999/xlink" x="0px" y="0px"
	 viewBox="0 -90.2 1920 600.1" style="enable-background:new 0 -90.2 1920 600.1;" xml:space="preserve">
<style type="text/css">
	.st0{display:none;}
	.st1{display:inline;}
	.st2{fill:#18B692;}
	.st3{fill:#BFAA98;}
	.st4{fill:#95DECD;}
	.st5{fill:#ADC7B7;}
	.st6{display:inline;fill:#95DECD;}
	.st7{display:inline;opacity:0.5;fill:#ADC7B7;enable-background:new    ;}
	.st8{fill:#C5D7C1;}
	.st9{display:inline;fill:none;stroke:#4D4D4D;stroke-miterlimit:10;}
	.st10{display:inline;fill:#ADC7B7;}
	.st11{display:inline;fill:#C5D7C1;}
	.st12{opacity:0.5;fill:#ADC7B7;enable-background:new    ;}
	.st13{opacity:0.7;fill:#FFFFFF;enable-background:new    ;}
	.st14{fill:#89C7B7;}
</style>
<g id="Layer_1_1_" class="st0">
	<g id="XMLID_7_" class="st1">
		<path id="XMLID_9_" class="st2" d="M1775-479.3c0,46.6-12,90.4-33.1,128.4c-7.8,14.1-16.9,27.5-27,39.9c-0.4,0.5-0.8,0.9-1.1,1.4
			c-4.3,5.1-8.7,10.1-13.3,14.9c-1.3,1.4-2.7,2.7-4,4.1c-23.1,22.9-50.4,41.6-80.6,54.9c-29,12.7-60.6,20.4-93.9,21.9
			c-4.2,0.2-8.4,0.3-12.7,0.3c-12.5,0-24.8-0.9-36.9-2.5c-21.6-3-42.3-8.6-61.9-16.4c-15.7-6.3-30.7-14-44.8-23.1
			c-11.2-7.2-21.9-15.3-31.8-24l0,0c-4.1-3.6-8-7.2-11.8-11c-8.5-8.4-16.4-17.4-23.7-26.9c-2-2.7-4-5.3-5.9-8.1
			c-0.1-0.1-0.2-0.3-0.3-0.4c-30.6-43.3-48.6-96.2-48.6-153.3c0-21.1,2.5-41.6,7.1-61.2c5.8-24.5,15-47.7,27-69.1
			c3.2-5.7,6.6-11.3,10.2-16.7c7-10.6,14.8-20.6,23.3-30.1c48.6-54.4,119.4-88.6,198.1-88.6c57.7,0,111.1,18.4,154.7,49.6
			c12.6,9,24.4,19.2,35.2,30.2c2.8,2.9,5.5,5.7,8.2,8.7c6.4,7.2,12.5,14.7,18.1,22.5c21,29.3,36.2,63.1,43.9,99.6
			c2.1,9.8,3.6,19.9,4.5,30.1C1774.6-496.1,1775-487.8,1775-479.3"/>
		<path id="XMLID_10_" class="st3" d="M1244.2-459.4L1244.2-459.4c3.7,49.4,20.9,95.1,47.9,133.3c0.1,0.1,0.2,0.3,0.3,0.4
			c1.9,2.7,3.9,5.4,5.9,8c7.3,9.5,15.2,18.5,23.7,26.9l0,0c-8.5-8.4-16.4-17.4-23.7-26.9c-2-2.7-4-5.3-5.9-8.1
			c-0.1-0.1-0.2-0.3-0.3-0.4C1265.1-364.3,1247.9-410,1244.2-459.4"/>
		<path id="XMLID_13_" class="st4" d="M1595-290.7v-281.4h88.7v105h65.7v-39h24.2c0.1,0.6,0.1,1.2,0.2,1.8
			c0.8,8.2,1.2,16.5,1.2,24.9c0,46.6-12,90.4-33.1,128.4c-7.8,14.1-16.9,27.5-27,39.9c-0.4,0.5-0.8,0.9-1.1,1.4
			c-4.3,5.1-8.7,10.1-13.3,14.9c-1.3,1.4-2.7,2.7-4,4.1L1595-290.7 M1509.2-745.1c-78.7,0-149.4,34.2-198.1,88.6
			c-8.5,9.4-16.2,19.5-23.3,30.1c-3.6,5.4-7,11-10.2,16.7c-12.1,21.4-21.3,44.6-27,69.1c-4.6,19.7-7.1,40.2-7.1,61.2
			c0,6.7,0.2,13.4,0.7,19.9h41.4v-56.1h136.9v224.8H1322l0,0c3.8,3.8,7.8,7.5,11.8,11l0,0c10,8.8,20.6,16.8,31.8,24
			c14.1,9,29,16.8,44.8,23.1c19.6,7.9,40.3,13.4,61.9,16.4c12,1.7,24.4,2.5,36.9,2.5c4.2,0,8.5-0.1,12.7-0.3
			c33.3-1.6,65-9.2,93.9-21.9c30.2-13.2,57.5-32,80.6-54.9c1.4-1.3,2.7-2.7,4-4.1c4.6-4.8,9.1-9.7,13.3-14.9
			c0.4-0.5,0.8-0.9,1.1-1.4c10.2-12.4,19.2-25.7,27-39.9c21.1-38.1,33.1-81.8,33.1-128.4c0-8.4-0.4-16.7-1.2-24.9
			c-0.9-10.2-2.5-20.2-4.5-30.1c-7.7-36.5-22.9-70.3-43.9-99.6c-5.6-7.9-11.6-15.4-18.1-22.5c-2.7-3-5.4-5.9-8.2-8.7
			c-10.8-11.1-22.6-21.2-35.2-30.2C1620.4-726.7,1566.9-745.1,1509.2-745.1"/>
		<path id="XMLID_14_" class="st5" d="M1683.7-572.2H1595v281.4h101.4c1.3-1.3,2.7-2.7,4-4.1c4.6-4.8,9.1-9.7,13.3-14.9
			c0.4-0.5,0.8-0.9,1.1-1.4c10.2-12.4,19.2-25.7,27-39.9c21.1-38.1,33.1-81.8,33.1-128.4c0-8.4-0.4-16.7-1.2-24.9
			c-0.1-0.6-0.1-1.2-0.2-1.8h-24.2v39h-65.7L1683.7-572.2"/>
		<path id="XMLID_15_" class="st5" d="M1422.5-515.5h-136.9v56.1h-41.4c3.7,49.4,20.9,95.1,47.9,133.3c0.1,0.1,0.2,0.3,0.3,0.4
			c1.9,2.7,3.9,5.4,5.9,8.1c7.3,9.5,15.2,18.5,23.7,26.9h100.5V-515.5"/>
	</g>
	<rect id="XMLID_1_" y="-0.1" class="st6" width="1920" height="510"/>
	<polygon id="XMLID_2_" class="st7" points="-430.3,-330.1 -185.7,-574.6 -1.1,-390.1 89,-480.1 196,-373.1 321,-373.1 
		532.8,-584.9 686.2,-431.3 779,-524.1 853,-524.1 981.8,-652.9 1220.8,-413.9 1283.7,-476.8 1389.4,-370.8 1489,-470.6 
		1489,-330.1 	"/>
	<g id="XMLID_59_" class="st1">
		<polygon id="XMLID_62_" class="st5" points="-2402.5,-644.4 -2346,-628.4 -2346,-418.1 -2402.2,-418.1 		"/>
		<polygon id="XMLID_61_" class="st5" points="-2269,-628.1 -2345.5,-628.1 -2402.2,-644.1 -2325.7,-644.1 		"/>
		<rect id="XMLID_60_" x="-2345.6" y="-628.4" class="st8" width="76.6" height="209.8"/>
	</g>
	<path id="XMLID_5_" class="st9" d="M0,169.5c0,0,1024.6-16.5,1920,340.4"/>
	<g id="XMLID_54_" class="st1">
		<polygon id="XMLID_57_" class="st5" points="-2572,-646 -2572,-352.3 -2596.8,-359.5 -2632.9,-369.7 -2633,-663.3 		"/>
		<polygon id="XMLID_56_" class="st5" points="-2489.8,-645.1 -2572,-645.1 -2632.9,-663.1 -2550.7,-663.1 		"/>
		<polygon id="XMLID_55_" class="st8" points="-2490,-645.1 -2490,-352.1 -2572,-352.1 -2572,-352.3 -2572,-645.1 		"/>
	</g>
	<g id="XMLID_50_" class="st1">
		<polygon id="XMLID_53_" class="st5" points="-2860,-445.9 -2860,-247.2 -2876.6,-252.1 -2901,-259 -2901.1,-457.6 		"/>
		<polygon id="XMLID_52_" class="st5" points="-2804.1,-445.1 -2859.7,-445.1 -2900.9,-457.1 -2845.3,-457.1 		"/>
		<polygon id="XMLID_51_" class="st8" points="-2804,-445.1 -2804,-247.1 -2859.7,-247.1 -2860,-247.2 -2860,-445.1 		"/>
	</g>
	<g id="XMLID_63_" class="st1">
		<polygon id="XMLID_66_" class="st5" points="-2746,-574.1 -2746,-352.2 -2764.5,-357.7 -2791.7,-365.4 -2791.9,-587.1 		"/>
		<polygon id="XMLID_65_" class="st5" points="-2683.5,-573.1 -2745.6,-573.1 -2791.6,-587.1 -2729.5,-587.1 		"/>
		<polygon id="XMLID_64_" class="st8" points="-2683,-573.1 -2683,-352.1 -2745.6,-352.1 -2746,-352.2 -2746,-573.1 		"/>
	</g>
	<g id="XMLID_46_" class="st1">
		<polygon id="XMLID_49_" class="st5" points="-2750,-392.7 -2750,-229.3 -2779.2,-237.8 -2821.8,-249.8 -2821.9,-413.1 		"/>
		<polygon id="XMLID_48_" class="st5" points="-2652.9,-392.1 -2749.8,-392.1 -2821.7,-413.1 -2724.7,-413.1 		"/>
		<polygon id="XMLID_47_" class="st8" points="-2654,-392.1 -2654,-229.1 -2749.8,-229.1 -2750,-229.3 -2750,-392.1 		"/>
	</g>
	<g id="XMLID_31_" class="st1">
		<polygon id="XMLID_34_" class="st5" points="-2649,-494 -2649,-200.3 -2673.8,-207.5 -2709.9,-217.7 -2710,-511.3 		"/>
		<polygon id="XMLID_33_" class="st5" points="-2566.8,-493.1 -2649,-493.1 -2709.9,-511.1 -2627.7,-511.1 		"/>
		<polygon id="XMLID_32_" class="st8" points="-2567,-493.1 -2567,-200.1 -2649,-200.1 -2649,-200.3 -2649,-493.1 		"/>
	</g>
	<g id="XMLID_27_" class="st1">
		<polygon id="XMLID_30_" class="st5" points="-2494,-543.9 -2494,-167.1 -2525.9,-176.3 -2572.3,-189.5 -2572.3,-566.1 		"/>
		<polygon id="XMLID_29_" class="st5" points="-2388.7,-543.1 -2494.2,-543.1 -2572.3,-566.1 -2466.9,-566.1 		"/>
		<polygon id="XMLID_28_" class="st8" points="-2389,-543.1 -2389,-167.1 -2494.2,-167.1 -2494,-167.1 -2494,-543.1 		"/>
	</g>
	<g id="XMLID_17_" class="st1">
		<polygon id="XMLID_40_" class="st5" points="-2364,-468.6 -2364,-115.2 -2403.9,-126.8 -2462.5,-143.4 -2462.8,-496.6 		"/>
		<polygon id="XMLID_26_" class="st5" points="-2229.8,-468.1 -2363.3,-468.1 -2462.3,-497.1 -2328.7,-497.1 		"/>
		<polygon id="XMLID_42_" class="st8" points="-2230,-468.1 -2230,-115.1 -2363.3,-115.1 -2364,-115.1 -2364,-468.1 		"/>
	</g>
	<g id="XMLID_3_" class="st1">
		<polygon id="XMLID_21_" class="st5" points="-1510.2,-530.6 -1350,-485.2 -1350,-121.1 -1510,-121.1 		"/>
		<polygon id="XMLID_20_" class="st5" points="-1133.7,-485.1 -1349.7,-485.1 -1509.9,-530.1 -1293.8,-530.1 		"/>
		<rect id="XMLID_19_" x="-1350" y="-485.2" class="st8" width="216.3" height="362.9"/>
	</g>
	<polygon id="XMLID_23_" class="st10" points="-2301.4,-562.7 -2191,-531.5 -2191,-122.1 -2301.3,-122.1 	"/>
	<polygon id="XMLID_22_" class="st10" points="-2041.8,-531.1 -2190.8,-531.1 -2301.2,-563.1 -2152.2,-563.1 	"/>
	<g id="XMLID_25_" class="st1">
		<polygon id="XMLID_39_" class="st5" points="-2072.6,-642.8 -1980,-616.6 -1980,-273.1 -2072.4,-273.1 		"/>
		<polygon id="XMLID_38_" class="st5" points="-1854.7,-616.1 -1979.7,-616.1 -2072.3,-643.1 -1947.3,-643.1 		"/>
		<rect id="XMLID_35_" x="-1979.8" y="-616.6" class="st8" width="125.2" height="342.8"/>
	</g>
	<rect id="XMLID_18_" x="-2190.9" y="-531.5" class="st11" width="149.2" height="408.5"/>
	<polygon id="XMLID_36_" class="st10" points="-2564,-210.5 -2564,-210.2 -2608.8,-223.1 	"/>
	<polygon id="XMLID_37_" class="st11" points="-2415,-210.1 -2415,-210.1 -2563.8,-210.1 -2564,-210.1 -2564,-210.1 	"/>
	<rect id="XMLID_4_" x="-1707.4" y="-691.1" class="st11" width="276" height="570"/>
	<rect id="XMLID_8_" x="-1883.9" y="-691.1" class="st10" width="176.5" height="570"/>
	<polygon id="XMLID_6_" class="st10" points="-2098.2,-434.1 -1964,-396.1 -1964,-121.1 -2098,-121.1 	"/>
	<polygon id="XMLID_24_" class="st10" points="-1782.8,-396.1 -1963.8,-396.1 -2097.9,-434.1 -1916.9,-434.1 	"/>
	<rect id="XMLID_16_" x="-1964" y="-396.1" class="st11" width="181.2" height="274"/>
	<g id="XMLID_41_" class="st1">
		<polygon id="XMLID_45_" class="st5" points="-2623,-351.6 -2623,-156.4 -2649.8,-164.1 -2689,-175.2 -2689,-370.3 		"/>
		<polygon id="XMLID_44_" class="st5" points="-2533.9,-351.1 -2623,-351.1 -2689,-370.1 -2599.9,-370.1 		"/>
		<polygon id="XMLID_43_" class="st8" points="-2535,-351.1 -2535,-156.1 -2623,-156.1 -2623,-156.4 -2623,-351.1 		"/>
	</g>
</g>
<g id="Layer_2">
	<rect id="XMLID_79_" y="-90.2" class="st4" width="1920" height="600.1"/>
	<path id="XMLID_76_" class="st12" d="M1920,134.7v357.7c0,9.6-7.8,17.4-17.4,17.4H17.4C7.8,509.9,0,502.1,0,492.5v-86.4
		c0-15.5,18.8-23.3,29.8-12.3l0,0c6.8,6.8,17.8,6.8,24.6,0l122.2-122c11.8-11.8,30.9-11.8,42.7,0l158.9,159
		c3.3,3.3,7.7,5.1,12.3,5.1h129.6c50.9,0,99.8-20.2,135.8-56.3l240.2-240.3c38.7-38.8,101.6-38.8,140.3,0l183.2,183.1
		c6.8,6.8,17.9,6.8,24.7,0l125.2-125.3c14.8-14.8,34.8-23.1,55.7-23.1h61.3c21.9,0,42.9-8.7,58.4-24.2L1689.6,5
		c3.3-3.3,7.7-5.1,12.3-5.1h83.2c4.6,0,9.1,1.8,12.3,5.1l117.4,117.4C1918.2,125.7,1920,130.1,1920,134.7z"/>
	<g id="XMLID_68_">
		<path id="XMLID_104_" class="st13" d="M1038.4,115.9h22.5c7.5,0,13.6-6,13.6-13.5s-6.1-13.5-13.6-13.5h-22.5
			c-7.5,0-13.6,6-13.6,13.5S1030.8,115.9,1038.4,115.9z"/>
		<path id="XMLID_98_" class="st13" d="M149.4,111.9h62.5c7.5,0,13.6-6,13.6-13.5s-6.1-13.5-13.7-13.5h-62.5
			c-7.5,0-13.6,6-13.6,13.5S141.8,111.9,149.4,111.9z"/>
		<path id="XMLID_95_" class="st13" d="M678.4,115.9h23.1c7.5,0,13.6-6,13.6-13.5s-6.1-13.5-13.6-13.5h-23.1
			c-7.5,0-13.6,6-13.6,13.5S670.9,115.9,678.4,115.9z"/>
		<path id="XMLID_103_" class="st13" d="M329.4,185.9h-23.1c-7.5,0-13.6-6-13.6-13.5s6.1-13.5,13.6-13.5h23.1
			c7.5,0,13.6,6,13.6,13.5S337,185.9,329.4,185.9z"/>
		<path id="XMLID_101_" class="st13" d="M1521.9,152.9h23.1c7.5,0,13.6-6,13.6-13.5s-6.1-13.5-13.6-13.5h-23.1
			c-7.5,0-13.6,6-13.6,13.5S1514.3,152.9,1521.9,152.9z"/>
		<path id="XMLID_106_" class="st13" d="M402.6,111.9h30.6c7.5,0,13.6-6,13.6-13.5s-6.1-13.5-13.7-13.5h-30.6
			c-7.5,0-13.6,6-13.6,13.5S395,111.9,402.6,111.9z"/>
		<path id="XMLID_96_" class="st13" d="M1622.4,189.9h52.5c7.5,0,13.6-6,13.6-13.5s-6.1-13.5-13.6-13.5h-52.5
			c-7.5,0-13.6,6-13.6,13.5S1614.8,189.9,1622.4,189.9z"/>
		<path id="XMLID_97_" class="st13" d="M1736.7,125.6h-90c-2.3,0-4.2-1.9-4.2-4.2l0,0c0-2.3,1.9-4.2,4.2-4.2h8.1
			c7.5,0,13.6-6.1,13.6-13.6l0,0c0-7.5-6.1-13.6-13.6-13.6h-94.5c-7.5,0-13.6,6.1-13.6,13.6l0,0c0,7.5,6.1,13.6,13.6,13.6h45.9
			c2.3,0,4.2,1.9,4.2,4.2l0,0c0,2.3-1.9,4.2-4.2,4.2h-6c-7.5,0-13.6,6.1-13.6,13.6l0,0c0,7.5,6.1,13.6,13.6,13.6h136.5
			c7.5,0,13.6-6.1,13.6-13.6l0,0C1750.4,131.7,1744.3,125.6,1736.7,125.6z"/>
		<path id="XMLID_102_" class="st13" d="M635,88.4H519.9c-7.4,0-13.7,5.8-14,13.2c-0.3,7.8,5.9,14.1,13.6,14.1h1.3
			c2.3,0,4.2,1.9,4.2,4.2l0,0c0,2.3-1.9,4.2-4.2,4.2H489c-7.4,0-13.7,5.8-14,13.2c-0.3,7.8,5.9,14.1,13.6,14.1h80.1
			c7.4,0,13.7-5.8,14-13.2c0.3-7.8-5.9-14.1-13.6-14.1h-1.5c-2.3,0-4.2-1.9-4.2-4.2l0,0c0-2.3,1.9-4.2,4.2-4.2h66.9
			c7.4,0,13.7-5.8,14-13.2C648.9,94.8,642.7,88.4,635,88.4z"/>
		<path id="XMLID_67_" class="st13" d="M1102.2,87.9h95.1c7.4,0,13.7,5.8,14,13.2c0.3,7.8-5.9,14.1-13.6,14.1h-1.3
			c-2.3,0-4.2,1.9-4.2,4.2l0,0c0,2.3,1.9,4.2,4.2,4.2h81.8c7.4,0,13.7,5.8,14,13.2c0.3,7.8-5.9,14.1-13.6,14.1h-150.1
			c-7.4,0-13.7-5.8-14-13.2c-0.3-7.8,5.9-14.1,13.6-14.1h21.5c2.3,0,4.2-1.9,4.2-4.2l0,0c0-2.3-1.9-4.2-4.2-4.2h-46.9
			c-7.4,0-13.7-5.8-14-13.2C1088.3,94.3,1094.5,87.9,1102.2,87.9z"/>
		<path id="XMLID_109_" class="st13" d="M309.6,194.1h-45.9c-2.3,0-4.2-1.9-4.2-4.2l0,0c0-2.3,1.9-4.2,4.2-4.2h3.2
			c7.4,0,13.7-5.8,14-13.2c0.3-7.8-5.9-14.1-13.6-14.1h-73.1c-7.4,0-13.7,5.8-14,13.2c-0.3,7.8,5.9,14.1,13.6,14.1h36.3
			c2.3,0,4.2,1.9,4.2,4.2l0,0c0,2.3-1.9,4.2-4.2,4.2h-0.3c-7.4,0-13.7,5.8-14,13.2c-0.3,7.8,5.9,14.1,13.6,14.1h80.5
			c7.7,0,13.9-6.4,13.6-14.1C323.3,199.9,317,194.1,309.6,194.1z"/>
	</g>
	<path id="XMLID_58_" class="st14" d="M-0.2,169.9l214.5,214.2c6.8,6.8,17.8,6.8,24.6,0l22.2-22.2c34.9-34.9,91.5-34.8,126.3,0.1
		l60.1,60.2c29.9,30,70.6,46.8,112.9,46.8h228.2c15.5,0,30.3-6.1,41.2-17.1l103.5-103.5c13.8-13.8,36-13.8,49.8,0l61.3,61.3
		c6.8,6.8,17.8,6.8,24.7,0l119.4-119.4c26.7-26.7,69.9-26.7,96.6,0L1415,419.9c12.1,12.1,28.6,19,45.8,19h75.6
		c42.7,0,83.6-17,113.8-47.1l68.1-68.1c6.8-6.8,17.9-6.8,24.7,0l18.9,19c6.8,6.8,17.9,6.9,24.7,0.1l55.5-55.4
		c17.6-17.6,41.5-27.5,66.4-27.5h11.6v250H0L-0.2,169.9z"/>
</g>
</svg>
