<?xml version="1.0" encoding="utf-8"?>
<!-- Generator: Adobe Illustrator 19.0.0, SVG Export Plug-In . SVG Version: 6.00 Build 0)  -->
<svg version="1.1" xmlns="http://www.w3.org/2000/svg" xmlns:xlink="http://www.w3.org/1999/xlink" x="0px" y="0px"
	 viewBox="0 0 1920 600" style="enable-background:new 0 0 1920 600;" xml:space="preserve">
<style type="text/css">
	.st0{fill:#FFFFFF;}
	.st1{fill:#E9F7DD;}
	.st2{fill:#EDE9BD;}
	.st3{fill:#DBF2C7;}
	.st4{fill:#ADE2BB;}
	.st5{opacity:0.5;}
	.st6{fill:#C6AD96;}
	.st7{fill:#E16327;}
	.st8{fill:#F6921E;}
	.st9{fill:#F7931E;}
	.st10{fill:#736357;}
	.st11{fill:#534741;}
</style>
<g id="Layer_1">
</g>
<g id="Layer_2">
	<g id="XMLID_70_">
		<polyline id="XMLID_75_" class="st0" points="1920,0 0,0 0,600 1920,600 1920,0 		"/>
		<path id="XMLID_77_" class="st1" d="M1920,0H0v600h1920h-540.1l0,0H826.8l0,0H0V376.2c29.9-24.5,66.6-37,103.4-37
			c31.2,0,62.6,9,89.9,27.1l95.1,62.9c12.8,8.5,27.5,12.7,42.2,12.7c16,0,32-5,45.5-15l74.4-55c17.7-13.1,38.7-19.7,59.8-19.7
			c19.3,0,38.5,5.5,55.4,16.6L762,498.3c19.2,12.6,41.3,19.1,63.6,19.1c5.8,0,11.7-0.4,17.5-1.3c38.6-106.4,140.5-182.4,260.2-182.4
			c75.7,0,144.3,30.4,194.2,79.6l43.2-23.6c32-17.5,67.3-26.2,102.5-26.1c37.4,0,74.8,9.8,108.1,29.3l154.1,90.1
			c12.1,7.1,25.7,10.7,39.4,10.7c6.3,0,12.7-0.8,18.9-2.3l156.1-39.1V0"/>
		<path id="XMLID_78_" class="st2" d="M1103.3,333.6c-119.7,0-221.7,76-260.2,182.4c9-1.4,17.8-3.8,26.4-7.3l91.7-37.7
			c8.9-3.7,18.4-5.5,27.9-5.5c10.6,0,21.3,2.3,31.1,6.9l45.1,21.1c13.4,6.3,27.9,9.4,42.3,9.4c16.5,0,32.9-4.1,47.8-12.2l142.2-77.6
			C1247.6,364,1179,333.6,1103.3,333.6"/>
		<path id="XMLID_79_" class="st3" d="M1920,452.2l-156.1,39.1c-19.8,5-40.8,2-58.4-8.3l-154.1-90.1
			c-64.8-37.9-144.8-39.1-210.7-3.1l-185.4,101.1c-27.9,15.2-61.3,16.2-90.1,2.8l-45.1-21.1c-18.6-8.7-40-9.2-59-1.4l-91.7,37.7
			c-35.4,14.5-75.6,10.6-107.5-10.4L565.7,368.9c-35.2-23.2-81.2-22-115.2,3.1l-74.4,55c-25.9,19.1-60.9,20-87.7,2.3l-95.1-62.9
			c-59.6-39.5-138-35.4-193.3,9.9V600h1920V452.2"/>
		<path id="XMLID_80_" class="st4" d="M80.5,463.9C22.7,463.9,0,468,0,468v132h1920v-33c0,0-341.6-48.5-557.2-48.5
			c-24.3,0-46.9,0.6-67.4,2c-201.8,13.5-269.3,40.5-516.8,40.5s-442.8-84-583.5-93C147.1,464.9,109.5,463.9,80.5,463.9"/>
	</g>
	<g id="XMLID_2_" class="st5">
		<path id="XMLID_91_" class="st0" d="M1808.4,341.5c-19.6-23.3-46.6-40.2-76.1-47.5c-15.9-4-32.5-5.3-48.1-10.3
			c-18.1-5.9-34.2-16.6-50.8-25.9c-50-28.1-106.7-44.4-164-47.1c5.5,3.7,11,7.4,16.4,11c-28.5-0.8-57.1-1.5-85.6-2.3
			c-13.1-0.3-28.9,0.7-35.3,12.2c10.5,4.3,22.3,1.6,33.6,1.6c36.5,0.2,65.2,29.6,97.7,46.1c21.7,11.1,46.3,16.6,70.7,15.9
			c-6.2-11.1-15.5-20.4-26.6-26.5c8.4-7.9,22.3-5.3,32.2,0.6c9.9,6,18.1,14.7,28.7,19.1c14.5,6,31.1,2.9,46.6,5.7
			c20.8,3.8,38.1,17.9,58.1,24.6c13.9,4.6,28.7,5.6,43,8.7c22.2,4.8,43.2,14.8,60.9,29c2.5-7-2.7-15.8-10.1-16.8"/>
	</g>
	<g id="XMLID_65_" class="st5">
		<path id="XMLID_85_" class="st0" d="M607.9,401c28.8-28.3,80-15.9,112.5-39.7c-9-5.7-19.4-9.2-30-10.3
			c22.8-23.6,59.4-24.9,92.1-27.6c10.2-0.9,22.5-3.5,26-13.2c-37.3-15.4-79.4-10-119.3-4.3c-27.6,3.9-55.1,7.9-82.7,11.8
			c-9.4,1.3-20.7,4.1-23.7,13.1c16.6,1.3,33.2,1.5,49.8,0.5c-6.4,8.4-18.4,9.4-28.9,11.3c-35.9,6.5-65.2,31.5-92.5,55.5
			c15.8,7.8,33.7-6.3,51.3-6.4c2.1,0,4.4,0.2,6.2,1.4c2.3,1.4,3.6,4,5.1,6.3c8,11.5,27.5,12.1,36.2,1.1c4-5,8-12.8,14.2-11.2"/>
	</g>
	<g id="XMLID_66_" class="st5">
		<path id="XMLID_92_" class="st0" d="M778.8,249.8c10.8,6.4,24,7.6,36.5,6.2c12.5-1.3,24.6-5,36.9-7.7c19.6-4.3,39.7-6.1,59.8-5.5
			c8.8,0.3,19.4,0.3,24.3-7.1c0.7-1.1,1.3-2.4,0.9-3.7c-0.6-1.8-2.8-2.5-4.7-2.9c-25-5.1-51-5.3-76-0.6c-1-4,0.8-8.6,4.3-10.8
			c-3.7-2.6-8.6-2.5-13.1-2.2c-13.7,0.8-27.4,1.5-41.1,2.3c-16.1,0.9-32.3,1.8-48,5.6c-14.8,3.6-29,9.6-41.8,17.9
			c16,8.8,35.7,2.8,53.9,3.3c1.2,0,2.4,0.1,3.4,0.7c1.1,0.7,1.7,1.9,2.5,3c2.1,2.9,5.8,4.5,9.4,4.1"/>
	</g>
	<g id="XMLID_67_" class="st5">
		<path id="XMLID_89_" class="st0" d="M1334.2,456.1c-14.7-12.5-30-24.4-45.8-35.5c-6.2-4.3-12.6-8.7-19.8-10.6
			c-11.5-3.1-24-0.1-35.4-3.5c-9.5-2.9-17.1-10-25.6-15.2c-17.7-10.7-39.2-12.8-59.8-14.7c-2.3,3,2,6.6,5.5,8
			c5.3,2.1,10.5,4.1,15.8,6.2c2.9,1.2,5.9,2.4,8.4,4.3c2.6,2.1,4.4,4.9,6.3,7.6c13.2,18.7,32.2,33.3,53.6,41.3
			c3.2-3.3-0.1-9.7,3.2-12.9c1.2-1.2,3-1.5,4.7-1.4c7.2,0.3,12.7,6.2,19,9.7c5.2,2.9,11.2,4.2,16.5,6.9c8,4,14.2,10.9,20.9,16.8
			s15,11.1,24,10.6c3.7-2.4-3.1-9.5,0.5-12.2c2.1-1.6,6.8-1,5.9-3.4"/>
	</g>
	<g id="XMLID_68_" class="st5">
		<path id="XMLID_93_" class="st0" d="M237.2,423.4c19.8-12.2,41.4-21.5,63.8-27.4c11.8-3.1,25.3-6.3,31.5-16.9
			c-7.3-2.3-15-3.1-22.6-2.3c-2.3-1.5,0.4-4.9,2.9-6c14.7-6.5,30.8-9,46.6-11.4c16.7-2.5,33.5-5.1,50.2-7.6c13-2,26.7-4.2,37.1-12.2
			c11.3-8.6,19.2-23.7,33.3-25.1c5.7-0.5,13.4,0.3,15.1-5.2c1-3.2-1.4-6.7-4.5-8.1s-6.6-1.2-10-1c-23.3,1.6-46.4,4.9-69.2,9.9
			c-2.1,0.5-4.3,1-5.8,2.4c-1.4,1.3-2.1,3.2-3.2,4.9c-3.6,5.3-10.7,6.7-17,7.5c-18.7,2.4-37.6,4.1-56.5,5.1c-2.3-2-1.9-5.9,0-8.3
			c1.9-2.4,4.8-3.7,7.6-4.9c9.7-4.2,19.4-8.4,29.1-12.6c-15.6-3.2-31.9-3.3-47.5-0.3c-4.2,0.8-8.3,1.8-12,4c-3.3,1.9-6,4.7-9,7.1
			c-12.7,10.2-29.4,13.4-44.7,18.8c-15,5.3-29.1,13.1-41.6,23c14.4,3.9,29.8,4.4,44.4,1.6c3.4-0.6,6.8-1.5,10.2-0.7s6.5,3.7,6.1,7.2
			c-0.4,3.2-3.5,5.3-6.3,6.9c-13,7.5-26.1,15.1-40.4,19.5c-11.5,3.6-23.7,5-35.1,8.9c-11.4,3.9-22.6,10.9-27.6,21.9
			c18.3,8.2,38.2-8,58.2-9.7c1.3-0.1,2.7-0.1,3.7,0.7c1,0.8,1.3,2.2,1.8,3.4c2,5.1,9,7.6,13.8,4.9"/>
	</g>
	<g id="XMLID_69_" class="st5">
		<path id="XMLID_83_" class="st0" d="M1754,196c15.6,7,29,18.1,43.7,26.9c14.7,8.8,32,15.4,48.7,11.9c-8.3-4.1-16.6-8.2-24.9-12.3
			c-4.4-2.2-8.9-4.4-12.1-8.1c-2.9-3.3-4.5-7.5-7-11.1c-3.9-5.7-9.7-9.7-15.5-13.5c-24.8-16.3-52.9-30.5-82.5-29.4
			c-2.6,0.1-5.7,0.8-6.3,3.3c-0.5,2.2,1.5,4.1,3.4,5.3c8.9,5.4,20.5,6.1,28.1,13.2c4.6,4.2,7.3,10.3,12.5,13.8
			c6.5,4.4,15,3.7,22.8,2.8"/>
	</g>
	<g id="XMLID_41_">
		<g id="XMLID_8_">
			<g id="XMLID_39_">
				
					<rect id="XMLID_40_" x="184.6" y="370.1" transform="matrix(9.940146e-02 0.995 -0.995 9.940146e-02 547.004 136.6162)" class="st6" width="26.8" height="0.8"/>
			</g>
			<g id="XMLID_37_">
				
					<rect id="XMLID_38_" x="201.4" y="370.1" transform="matrix(9.940146e-02 0.995 -0.995 9.940146e-02 562.1213 119.9135)" class="st6" width="26.8" height="0.8"/>
			</g>
			<g id="XMLID_17_">
				
					<rect id="XMLID_18_" x="239.3" y="357.1" transform="matrix(0.9952 9.757143e-02 -9.757143e-02 0.9952 37.2933 -21.6203)" class="st6" width="0.8" height="26.8"/>
			</g>
			<g id="XMLID_15_">
				<path id="XMLID_16_" class="st7" d="M228,404.6h-17.5c-3.8,0-7.2-2.5-8.4-6.2l-4.2-13.4c-0.3-1,0.4-2,1.5-2h23.3L228,404.6z"/>
			</g>
			<g id="XMLID_13_">
				<path id="XMLID_14_" class="st8" d="M227.3,404.6L227.3,404.6c-4.1,0-7.6-2.8-8.6-6.7l-3.3-13.3c-0.2-0.8,0.4-1.5,1.2-1.5h21.9
					c1.1,0,1.8,1,1.5,2l-4.2,13.4C234.5,402.1,231.1,404.6,227.3,404.6z"/>
			</g>
			<g id="XMLID_11_">
				<path id="XMLID_12_" class="st7" d="M232.1,236.6l7.4-2.6h-27.9c-33.6,0-53.6,22.8-53.6,49.7c0,0.9,0,1.8,0.1,2.7
					c0.2,3.9,3.4,7,7.3,7.2l25.8,0.9l13.3-0.3l-13.5-0.4c-0.2-1.2-0.5-3.5-0.5-7.8c0-10.8,7.8-21.6,21.2-21.6
					c13.8,0,20.5,8.7,20.5,17.7c0,6-2.1,11.5-8.3,16.1l-11.7,8.7c-12.3,9.3-16.9,20.1-17.4,30.4v0c0,0.5,0,11.6,0,17.4
					c0,1.8,1.5,3.3,3.3,3.3h24.8v-8.5h0.1c0-10.4,5.5-16.3,13.6-22.3l8.7-6.4c13.8-10.4,22.3-23,22.3-41.4
					C267.6,261,255.7,243.2,232.1,236.6z"/>
			</g>
			<g id="XMLID_9_">
				<path id="XMLID_10_" class="st9" d="M231.8,234c-33.6,0-53.6,22.8-53.6,49.7c0,0.9,0,1.8,0.1,2.7c0.2,3.9,3.4,7,7.3,7.2
					l18.4,0.7c3.7,0.1,6.8-2.9,6.7-6.6c0-0.5,0-1.1,0-1.7c0-10.8,7.8-21.6,21.2-21.6c13.8,0,20.5,8.7,20.5,17.7
					c0,6-2.1,11.5-8.3,16.1l-11.7,8.7c-12.3,9.3-16.9,20.1-17.4,30.4l0,0v0c0,0.7,0,20.7,0,20.7h24.8c1.8,0,3.3-1.5,3.3-3.3v-5.2
					h0.1c0-10.4,5.5-16.3,13.6-22.3l8.7-6.4c13.8-10.4,22.3-23,22.3-41.4C287.8,256.3,269.1,234,231.8,234z"/>
			</g>
		</g>
		<path id="XMLID_7_" class="st10" d="M227.2,392.7L227.2,392.7c-1.5,0.3-3-0.6-3.4-2.1l-0.2-3.9c-0.3-1.5,0.1-2.2,1.6-2.6h0
			c1.5-0.3,2.2,0.1,2.6,1.6l1.5,3.6C229.6,390.8,228.7,392.4,227.2,392.7z"/>
		<path id="XMLID_6_" class="st10" d="M237.5,392.7L237.5,392.7c-1.5,0.3-3-0.6-3.4-2.1l-0.2-3.9c-0.3-1.5,0.1-2.2,1.6-2.6l0,0
			c1.5-0.3,2.2,0.1,2.6,1.6l1.5,3.6C240,390.8,239,392.4,237.5,392.7z"/>
		<path id="XMLID_5_" class="st11" d="M209.6,392.7L209.6,392.7c1.5,0.3,3-0.6,3.4-2.1l0.2-3.9c0.3-1.5-0.1-2.2-1.6-2.6h0
			c-1.5-0.3-2.2,0.1-2.6,1.6l-1.5,3.6C207.2,390.8,208.1,392.4,209.6,392.7z"/>
		<path id="XMLID_3_" class="st11" d="M199.2,392.7L199.2,392.7c1.5,0.3,3-0.6,3.4-2.1l0.2-3.9c0.3-1.5-0.1-2.2-1.6-2.6l0,0
			c-1.5-0.3-2.2,0.1-2.6,1.6l-1.5,3.6C196.8,390.8,197.8,392.4,199.2,392.7z"/>
	</g>
	<g id="XMLID_43_">
		<g id="XMLID_48_">
			<g id="XMLID_61_">
				
					<rect id="XMLID_62_" x="1536.2" y="448.4" transform="matrix(9.940146e-02 0.995 -0.995 9.940146e-02 1837.7363 -1133.0959)" class="st6" width="17.3" height="0.5"/>
			</g>
			<g id="XMLID_59_">
				
					<rect id="XMLID_60_" x="1547" y="448.4" transform="matrix(9.940146e-02 0.995 -0.995 9.940146e-02 1847.4982 -1143.8815)" class="st6" width="17.3" height="0.5"/>
			</g>
			<g id="XMLID_57_">
				
					<rect id="XMLID_58_" x="1571.5" y="440" transform="matrix(0.9952 9.757143e-02 -9.757143e-02 0.9952 51.2784 -151.2161)" class="st6" width="0.5" height="17.3"/>
			</g>
			<g id="XMLID_55_">
				<path id="XMLID_56_" class="st7" d="M1564.2,470.7h-11.3c-2.5,0-4.7-1.6-5.4-4l-2.7-8.6c-0.2-0.6,0.3-1.3,1-1.3h15.1
					L1564.2,470.7z"/>
			</g>
			<g id="XMLID_53_">
				<path id="XMLID_54_" class="st8" d="M1563.7,470.7L1563.7,470.7c-2.6,0-4.9-1.8-5.5-4.3l-2.1-8.6c-0.1-0.5,0.3-1,0.8-1h14.1
					c0.7,0,1.2,0.7,1,1.3l-2.7,8.6C1568.4,469.1,1566.2,470.7,1563.7,470.7z"/>
			</g>
			<g id="XMLID_51_">
				<path id="XMLID_52_" class="st7" d="M1566.8,362.2l4.8-1.7h-18c-21.7,0-34.6,14.7-34.6,32.1c0,0.6,0,1.2,0,1.8
					c0.1,2.5,2.2,4.5,4.7,4.6l16.7,0.6l8.6-0.2l-8.7-0.3c-0.2-0.8-0.3-2.3-0.3-5c0-7,5.1-14,13.7-14c8.9,0,13.2,5.6,13.2,11.4
					c0,3.9-1.3,7.4-5.3,10.4l-7.6,5.6c-7.9,6-10.9,13-11.3,19.6v0c0,0.3,0,7.5,0,11.2c0,1.2,1,2.2,2.2,2.2h16v-5.5h0
					c0-6.7,3.6-10.6,8.8-14.4l5.6-4.2c8.9-6.7,14.4-14.9,14.4-26.7C1589.7,378,1582.1,366.5,1566.8,362.2z"/>
			</g>
			<g id="XMLID_49_">
				<path id="XMLID_50_" class="st9" d="M1566.7,360.6c-21.7,0-34.6,14.7-34.6,32.1c0,0.6,0,1.2,0,1.8c0.1,2.5,2.2,4.5,4.7,4.6
					l11.9,0.4c2.4,0.1,4.4-1.9,4.3-4.3c0-0.3,0-0.7,0-1.1c0-7,5.1-14,13.7-14c8.9,0,13.2,5.6,13.2,11.4c0,3.9-1.3,7.4-5.3,10.4
					l-7.6,5.6c-7.9,6-10.9,13-11.3,19.6l0,0v0c0,0.4,0,13.4,0,13.4h16c1.2,0,2.2-1,2.2-2.2v-3.3h0c0-6.7,3.6-10.6,8.8-14.4l5.6-4.2
					c8.9-6.7,14.4-14.9,14.4-26.7C1602.8,375,1590.7,360.6,1566.7,360.6z"/>
			</g>
		</g>
		<path id="XMLID_47_" class="st10" d="M1563.6,463L1563.6,463c-1,0.2-1.9-0.4-2.2-1.4l-0.2-2.5c-0.2-1,0.1-1.4,1-1.7l0,0
			c1-0.2,1.4,0.1,1.7,1l1,2.3C1565.2,461.8,1564.6,462.8,1563.6,463z"/>
		<path id="XMLID_46_" class="st10" d="M1570.3,463L1570.3,463c-1,0.2-1.9-0.4-2.2-1.4l-0.2-2.5c-0.2-1,0.1-1.4,1-1.7l0,0
			c1-0.2,1.4,0.1,1.7,1l1,2.3C1571.9,461.8,1571.3,462.8,1570.3,463z"/>
		<path id="XMLID_45_" class="st11" d="M1552.3,463L1552.3,463c1,0.2,1.9-0.4,2.2-1.4l0.2-2.5c0.2-1-0.1-1.4-1-1.7l0,0
			c-1-0.2-1.4,0.1-1.7,1l-1,2.3C1550.7,461.8,1551.4,462.8,1552.3,463z"/>
		<path id="XMLID_44_" class="st11" d="M1545.6,463L1545.6,463c1,0.2,1.9-0.4,2.2-1.4l0.2-2.5c0.2-1-0.1-1.4-1-1.7l0,0
			c-1-0.2-1.4,0.1-1.7,1l-1,2.3C1544,461.8,1544.7,462.8,1545.6,463z"/>
	</g>
	<g id="XMLID_64_">
		<g id="XMLID_84_">
			<g id="XMLID_105_">
				
					<rect id="XMLID_106_" x="323.7" y="456.5" transform="matrix(9.940146e-02 0.995 -0.995 9.940146e-02 750.9548 83.6855)" class="st6" width="11" height="0.3"/>
			</g>
			<g id="XMLID_103_">
				
					<rect id="XMLID_104_" x="330.6" y="456.5" transform="matrix(9.940146e-02 0.995 -0.995 9.940146e-02 757.1688 76.8199)" class="st6" width="11" height="0.3"/>
			</g>
			<g id="XMLID_101_">
				
					<rect id="XMLID_102_" x="346.2" y="451.2" transform="matrix(0.9952 9.757143e-02 -9.757143e-02 0.9952 46.2134 -31.6173)" class="st6" width="0.3" height="11"/>
			</g>
			<g id="XMLID_99_">
				<path id="XMLID_100_" class="st7" d="M341.6,470.7h-7.2c-1.6,0-3-1-3.5-2.5l-1.7-5.5c-0.1-0.4,0.2-0.8,0.6-0.8h9.6L341.6,470.7z
					"/>
			</g>
			<g id="XMLID_97_">
				<path id="XMLID_98_" class="st8" d="M341.3,470.7L341.3,470.7c-1.7,0-3.1-1.1-3.5-2.8l-1.4-5.5c-0.1-0.3,0.2-0.6,0.5-0.6h9
					c0.4,0,0.7,0.4,0.6,0.8l-1.7,5.5C344.2,469.7,342.8,470.7,341.3,470.7z"/>
			</g>
			<g id="XMLID_95_">
				<path id="XMLID_96_" class="st7" d="M343.3,401.7l3-1.1h-11.5c-13.8,0-22,9.4-22,20.4c0,0.4,0,0.7,0,1.1c0.1,1.6,1.4,2.9,3,2.9
					l10.6,0.4l5.5-0.1l-5.5-0.2c-0.1-0.5-0.2-1.5-0.2-3.2c0-4.4,3.2-8.9,8.7-8.9c5.7,0,8.4,3.6,8.4,7.3c0,2.5-0.9,4.7-3.4,6.6
					l-4.8,3.6c-5,3.8-6.9,8.3-7.2,12.5v0c0,0.2,0,4.8,0,7.1c0,0.8,0.6,1.4,1.4,1.4h10.2v-3.5h0c0-4.3,2.3-6.7,5.6-9.2l3.6-2.6
					c5.7-4.3,9.2-9.5,9.2-17C357.8,411.7,353,404.4,343.3,401.7z"/>
			</g>
			<g id="XMLID_87_">
				<path id="XMLID_94_" class="st9" d="M343.1,400.6c-13.8,0-22,9.4-22,20.4c0,0.4,0,0.7,0,1.1c0.1,1.6,1.4,2.9,3,2.9l7.6,0.3
					c1.5,0.1,2.8-1.2,2.8-2.7c0-0.2,0-0.4,0-0.7c0-4.4,3.2-8.9,8.7-8.9c5.7,0,8.4,3.6,8.4,7.3c0,2.5-0.9,4.7-3.4,6.6l-4.8,3.6
					c-5,3.8-6.9,8.3-7.2,12.5l0,0v0c0,0.3,0,8.5,0,8.5h10.2c0.8,0,1.4-0.6,1.4-1.4v-2.1h0c0-4.3,2.3-6.7,5.6-9.2l3.6-2.6
					c5.7-4.3,9.2-9.5,9.2-17C366.1,409.8,358.5,400.6,343.1,400.6z"/>
			</g>
		</g>
		<path id="XMLID_82_" class="st10" d="M341.2,465.8L341.2,465.8c-0.6,0.1-1.2-0.2-1.4-0.9l-0.1-1.6c-0.1-0.6,0-0.9,0.7-1.1l0,0
			c0.6-0.1,0.9,0,1.1,0.7l0.6,1.5C342.2,465.1,341.8,465.7,341.2,465.8z"/>
		<path id="XMLID_73_" class="st10" d="M345.5,465.8L345.5,465.8c-0.6,0.1-1.2-0.2-1.4-0.9l-0.1-1.6c-0.1-0.6,0-0.9,0.7-1.1l0,0
			c0.6-0.1,0.9,0,1.1,0.7l0.6,1.5C346.5,465.1,346.1,465.7,345.5,465.8z"/>
		<path id="XMLID_72_" class="st11" d="M334,465.8L334,465.8c0.6,0.1,1.2-0.2,1.4-0.9l0.1-1.6c0.1-0.6,0-0.9-0.7-1.1l0,0
			c-0.6-0.1-0.9,0-1.1,0.7l-0.6,1.5C333,465.1,333.4,465.7,334,465.8z"/>
		<path id="XMLID_71_" class="st11" d="M329.7,465.8L329.7,465.8c0.6,0.1,1.2-0.2,1.4-0.9l0.1-1.6c0.1-0.6,0-0.9-0.7-1.1l0,0
			c-0.6-0.1-0.9,0-1.1,0.7l-0.6,1.5C328.7,465.1,329.1,465.7,329.7,465.8z"/>
	</g>
	<g id="XMLID_107_">
		<g id="XMLID_112_">
			<g id="XMLID_125_">
				
					<rect id="XMLID_126_" x="1768.2" y="456.5" transform="matrix(9.940146e-02 0.995 -0.995 9.940146e-02 2051.7974 -1353.5809)" class="st6" width="11" height="0.3"/>
			</g>
			<g id="XMLID_123_">
				
					<rect id="XMLID_124_" x="1775.1" y="456.5" transform="matrix(9.940146e-02 0.995 -0.995 9.940146e-02 2058.0112 -1360.4465)" class="st6" width="11" height="0.3"/>
			</g>
			<g id="XMLID_121_">
				
					<rect id="XMLID_122_" x="1790.6" y="451.2" transform="matrix(0.9952 9.757143e-02 -9.757143e-02 0.9952 53.1054 -172.5514)" class="st6" width="0.3" height="11"/>
			</g>
			<g id="XMLID_119_">
				<path id="XMLID_120_" class="st7" d="M1786,470.7h-7.2c-1.6,0-3-1-3.5-2.5l-1.7-5.5c-0.1-0.4,0.2-0.8,0.6-0.8h9.6L1786,470.7z"
					/>
			</g>
			<g id="XMLID_117_">
				<path id="XMLID_118_" class="st8" d="M1785.7,470.7L1785.7,470.7c-1.7,0-3.1-1.1-3.5-2.8l-1.4-5.5c-0.1-0.3,0.2-0.6,0.5-0.6h9
					c0.4,0,0.7,0.4,0.6,0.8l-1.7,5.5C1788.7,469.7,1787.3,470.7,1785.7,470.7z"/>
			</g>
			<g id="XMLID_115_">
				<path id="XMLID_116_" class="st7" d="M1787.7,401.7l3-1.1h-11.5c-13.8,0-22,9.4-22,20.4c0,0.4,0,0.7,0,1.1
					c0.1,1.6,1.4,2.9,3,2.9l10.6,0.4l5.5-0.1l-5.5-0.2c-0.1-0.5-0.2-1.5-0.2-3.2c0-4.4,3.2-8.9,8.7-8.9c5.7,0,8.4,3.6,8.4,7.3
					c0,2.5-0.9,4.7-3.4,6.6l-4.8,3.6c-5,3.8-6.9,8.3-7.2,12.5v0c0,0.2,0,4.8,0,7.1c0,0.8,0.6,1.4,1.4,1.4h10.2v-3.5h0
					c0-4.3,2.3-6.7,5.6-9.2l3.6-2.6c5.7-4.3,9.2-9.5,9.2-17C1802.2,411.7,1797.4,404.4,1787.7,401.7z"/>
			</g>
			<g id="XMLID_113_">
				<path id="XMLID_114_" class="st9" d="M1787.6,400.6c-13.8,0-22,9.4-22,20.4c0,0.4,0,0.7,0,1.1c0.1,1.6,1.4,2.9,3,2.9l7.6,0.3
					c1.5,0.1,2.8-1.2,2.8-2.7c0-0.2,0-0.4,0-0.7c0-4.4,3.2-8.9,8.7-8.9c5.7,0,8.4,3.6,8.4,7.3c0,2.5-0.9,4.7-3.4,6.6l-4.8,3.6
					c-5,3.8-6.9,8.3-7.2,12.5l0,0v0c0,0.3,0,8.5,0,8.5h10.2c0.8,0,1.4-0.6,1.4-1.4v-2.1h0c0-4.3,2.3-6.7,5.6-9.2l3.6-2.6
					c5.7-4.3,9.2-9.5,9.2-17C1810.6,409.8,1802.9,400.6,1787.6,400.6z"/>
			</g>
		</g>
		<path id="XMLID_111_" class="st10" d="M1785.6,465.8L1785.6,465.8c-0.6,0.1-1.2-0.2-1.4-0.9l-0.1-1.6c-0.1-0.6,0-0.9,0.7-1.1l0,0
			c0.6-0.1,0.9,0,1.1,0.7l0.6,1.5C1786.6,465.1,1786.3,465.7,1785.6,465.8z"/>
		<path id="XMLID_110_" class="st10" d="M1789.9,465.8L1789.9,465.8c-0.6,0.1-1.2-0.2-1.4-0.9l-0.1-1.6c-0.1-0.6,0-0.9,0.7-1.1l0,0
			c0.6-0.1,0.9,0,1.1,0.7l0.6,1.5C1790.9,465.1,1790.5,465.7,1789.9,465.8z"/>
		<path id="XMLID_109_" class="st11" d="M1778.4,465.8L1778.4,465.8c0.6,0.1,1.2-0.2,1.4-0.9l0.1-1.6c0.1-0.6,0-0.9-0.7-1.1l0,0
			c-0.6-0.1-0.9,0-1.1,0.7l-0.6,1.5C1777.4,465.1,1777.8,465.7,1778.4,465.8z"/>
		<path id="XMLID_108_" class="st11" d="M1774.2,465.8L1774.2,465.8c0.6,0.1,1.2-0.2,1.4-0.9l0.1-1.6c0.1-0.6,0-0.9-0.7-1.1l0,0
			c-0.6-0.1-0.9,0-1.1,0.7l-0.6,1.5C1773.2,465.1,1773.6,465.7,1774.2,465.8z"/>
	</g>
	<g id="XMLID_1_">
		<g id="XMLID_4_">
			<g id="XMLID_31_">
				
					<rect id="XMLID_32_" x="1661" y="343.2" transform="matrix(9.940146e-02 0.995 -0.995 9.940146e-02 1851.0874 -1357.9617)" class="st6" width="29.4" height="0.8"/>
			</g>
			<g id="XMLID_29_">
				
					<rect id="XMLID_30_" x="1679.4" y="343.2" transform="matrix(9.940146e-02 0.995 -0.995 9.940146e-02 1867.6516 -1376.2629)" class="st6" width="29.4" height="0.8"/>
			</g>
			<g id="XMLID_27_">
				
					<rect id="XMLID_28_" x="1721" y="328.9" transform="matrix(0.9952 9.757143e-02 -9.757143e-02 0.9952 41.7418 -166.3191)" class="st6" width="0.8" height="29.4"/>
			</g>
			<g id="XMLID_25_">
				<path id="XMLID_26_" class="st7" d="M1708.6,381h-19.2c-4.2,0-7.9-2.7-9.2-6.7l-4.7-14.7c-0.3-1.1,0.5-2.2,1.6-2.2h25.6
					L1708.6,381z"/>
			</g>
			<g id="XMLID_23_">
				<path id="XMLID_24_" class="st8" d="M1707.8,381L1707.8,381c-4.4,0-8.3-3-9.4-7.3l-3.6-14.6c-0.2-0.9,0.4-1.7,1.3-1.7h23.9
					c1.2,0,2,1.1,1.6,2.2l-4.7,14.7C1715.7,378.3,1712,381,1707.8,381z"/>
			</g>
			<g id="XMLID_21_">
				<path id="XMLID_22_" class="st7" d="M1713.1,197l8.1-2.9h-30.5c-36.8,0-58.7,25-58.7,54.5c0,1,0,2,0.1,3c0.2,4.3,3.7,7.7,8,7.8
					l28.3,1l14.6-0.3l-14.8-0.5c-0.3-1.3-0.6-3.9-0.6-8.5c0-11.9,8.6-23.7,23.2-23.7c15.1,0,22.4,9.6,22.4,19.4
					c0,6.6-2.3,12.6-9.1,17.7l-12.9,9.6c-13.5,10.2-18.5,22.1-19.1,33.3v0c0,0.6,0,12.8,0,19c0,2,1.6,3.7,3.7,3.7h27.2v-9.3h0.1
					c0-11.3,6.1-17.9,14.9-24.5l9.6-7.1c15.1-11.3,24.5-25.2,24.5-45.4C1751.9,223.7,1739,204.1,1713.1,197z"/>
			</g>
			<g id="XMLID_19_">
				<path id="XMLID_20_" class="st8" d="M1712.8,194.1c-36.8,0-58.7,25-58.7,54.5c0,1,0,2,0.1,3c0.2,4.3,3.7,7.7,8,7.8l20.1,0.7
					c4.1,0.1,7.5-3.2,7.4-7.2c0-0.6,0-1.2,0-1.8c0-11.9,8.6-23.7,23.2-23.7c15.1,0,22.4,9.6,22.4,19.4c0,6.6-2.3,12.6-9.1,17.7
					l-12.9,9.6c-13.5,10.2-18.5,22.1-19.1,33.3l0,0v0c0,0.8,0,22.7,0,22.7h27.2c2,0,3.7-1.6,3.7-3.7v-5.6h0.1
					c0-11.3,6.1-17.9,14.9-24.5l9.6-7.1c15.1-11.3,24.5-25.2,24.5-45.4C1774,218.6,1753.6,194.1,1712.8,194.1z"/>
			</g>
		</g>
		<path id="XMLID_35_" class="st10" d="M1707.6,368L1707.6,368c-1.6,0.4-3.3-0.7-3.7-2.3l-0.3-4.3c-0.4-1.6,0.1-2.4,1.8-2.8l0,0
			c1.6-0.4,2.4,0.1,2.8,1.8l1.6,4C1710.3,365.9,1709.3,367.6,1707.6,368z"/>
		<path id="XMLID_36_" class="st10" d="M1719,368L1719,368c-1.6,0.4-3.3-0.7-3.7-2.3l-0.3-4.3c-0.4-1.6,0.1-2.4,1.8-2.8l0,0
			c1.6-0.4,2.4,0.1,2.8,1.8l1.6,4C1721.7,365.9,1720.7,367.6,1719,368z"/>
		<path id="XMLID_34_" class="st11" d="M1688.4,368L1688.4,368c1.6,0.4,3.3-0.7,3.7-2.3l0.3-4.3c0.4-1.6-0.1-2.4-1.8-2.8l0,0
			c-1.6-0.4-2.4,0.1-2.8,1.8l-1.6,4C1685.8,365.9,1686.8,367.6,1688.4,368z"/>
		<path id="XMLID_33_" class="st11" d="M1677.1,368L1677.1,368c1.6,0.4,3.3-0.7,3.7-2.3l0.3-4.3c0.4-1.6-0.1-2.4-1.8-2.8l0,0
			c-1.6-0.4-2.4,0.1-2.8,1.8l-1.6,4C1674.4,365.9,1675.4,367.6,1677.1,368z"/>
	</g>
</g>
</svg>
