<?xml version="1.0" encoding="utf-8"?>
<!-- Generator: Adobe Illustrator 19.0.0, SVG Export Plug-In . SVG Version: 6.00 Build 0)  -->
<svg version="1.1" id="Layer_1" xmlns="http://www.w3.org/2000/svg" xmlns:xlink="http://www.w3.org/1999/xlink" x="0px" y="0px"
	 viewBox="0 -45.9 1920 600" style="enable-background:new 0 -45.9 1920 600;" xml:space="preserve">
<style type="text/css">
	.st0{fill:#415176;}
	.st1{fill:#FFFFFF;}
	.st2{fill:#F1F1F2;}
	.st3{fill:#CCCCCC;}
	.st4{fill:#F1F1F1;}
	.st5{fill:#F6921E;}
	.st6{fill:#D0D1D2;}
	.st7{fill:#33405E;}
	.st8{fill:#C17418;}
	.st9{fill:#A4A6A8;}
</style>
<polyline class="st0" points="0,-45.9 1920,-45.9 1920,554.1 0,554.1 0,-45.9 "/>
<rect x="1257.5" y="369.7" transform="matrix(-0.7071 -0.7071 0.7071 -0.7071 1891.7109 1535.826)" class="st1" width="12.9" height="12.9"/>
<rect x="1782.2" y="288.7" transform="matrix(-0.7071 -0.7071 0.7071 -0.7071 2842.7827 1763.9175)" class="st1" width="9" height="9"/>
<rect x="431.1" y="433.1" transform="matrix(-0.7071 -0.7071 0.7071 -0.7071 434.2339 1054.9967)" class="st1" width="9" height="9"/>
<rect x="250.1" y="152.5" transform="matrix(-0.7071 -0.7071 0.7071 -0.7071 323.5323 448.0314)" class="st1" width="9" height="9"/>
<rect x="78.6" y="464.3" transform="matrix(-0.7071 -0.7071 0.7071 -0.7071 -189.6267 858.9762)" class="st1" width="9" height="9"/>
<rect x="1650.9" y="430.4" transform="matrix(-0.7071 -0.7071 0.7071 -0.7071 2517.52 1910.7719)" class="st1" width="7.2" height="7.2"/>
<rect x="1794.6" y="89.8" transform="matrix(-0.7071 -0.7071 0.7071 -0.7071 3003.6353 1430.8977)" class="st1" width="7.2" height="7.2"/>
<rect x="169.5" y="146.9" transform="matrix(-0.7071 -0.7071 0.7071 -0.7071 189.1323 379.3624)" class="st1" width="7.2" height="7.2"/>
<rect x="294.2" y="90.9" transform="matrix(-0.7071 -0.7071 0.7071 -0.7071 441.6436 371.891)" class="st1" width="7.2" height="7.2"/>
<rect x="396.2" y="477.8" transform="matrix(-0.7071 -0.7071 0.7071 -0.7071 341.0717 1102.0007)" class="st1" width="5.1" height="5.1"/>
<rect x="165.5" y="283" transform="matrix(-0.7071 -0.7071 0.7071 -0.7071 84.9279 606.3472)" class="st1" width="5.1" height="5.1"/>
<rect x="1279.8" y="408.7" transform="matrix(-0.7071 -0.7071 0.7071 -0.7071 1898.2776 1608.8267)" class="st1" width="5.1" height="5.1"/>
<rect x="1678.2" y="239.1" transform="matrix(-0.7071 -0.7071 0.7071 -0.7071 2698.2612 1600.963)" class="st1" width="5.1" height="5.1"/>
<rect x="1550.5" y="284.4" transform="matrix(-0.7071 -0.7071 0.7071 -0.7071 2448.2588 1587.9714)" class="st1" width="5.1" height="5.1"/>
<rect x="54.2" y="168.5" transform="matrix(-0.7071 -0.7071 0.7071 -0.7071 -24.07 332.1262)" class="st1" width="5.1" height="5.1"/>
<rect x="1765.1" y="268.2" transform="matrix(-0.7071 -0.7071 0.7071 -0.7071 2826.1204 1712.1116)" class="st1" width="5.1" height="5.1"/>
<rect x="1800.7" y="449.8" transform="matrix(-0.7071 -0.7071 0.7071 -0.7071 2758.4902 2047.3018)" class="st1" width="5.1" height="5.1"/>
<rect x="1784.1" y="246.2" transform="matrix(-0.7071 -0.7071 0.7071 -0.7071 2874.1221 1687.9019)" class="st1" width="5.1" height="5.1"/>
<rect x="1319" y="72.9" transform="matrix(-0.7071 -0.7071 0.7071 -0.7071 2202.6938 1063.1859)" class="st1" width="5.1" height="5.1"/>
<rect x="832.1" y="481.4" transform="matrix(-0.7071 -0.7071 0.7071 -0.7071 1082.5511 1416.3296)" class="st1" width="5.1" height="5.1"/>
<rect x="672.1" y="491.4" transform="matrix(-0.7071 -0.7071 0.7071 -0.7071 802.3513 1320.2574)" class="st1" width="5.1" height="5.1"/>
<rect x="1543.3" y="122.6" transform="matrix(-0.7071 -0.7071 0.7071 -0.7071 2550.4133 1306.782)" class="st1" width="5.1" height="5.1"/>
<rect x="297.2" y="389.7" transform="matrix(-0.7071 -0.7071 0.7071 -0.7071 238.2469 891.025)" class="st1" width="12.9" height="12.9"/>
<rect x="384.6" y="148.8" transform="matrix(-0.7071 -0.7071 0.7071 -0.7071 557.7812 541.4888)" class="st1" width="12.9" height="12.9"/>
<rect x="786.1" y="440.3" transform="matrix(-0.7071 -0.7071 0.7071 -0.7071 1037.049 1323.0665)" class="st1" width="12.9" height="12.9"/>
<rect x="1206.8" y="109.7" transform="matrix(-0.7071 -0.7071 0.7071 -0.7071 1988.9597 1056.1362)" class="st1" width="12.9" height="12.9"/>
<rect x="1686.9" y="189.6" transform="matrix(-0.7071 -0.7071 0.7071 -0.7071 2752.0234 1532.1141)" class="st1" width="12.9" height="12.9"/>
<rect x="142.1" y="259.7" transform="matrix(-0.7071 -0.7071 0.7071 -0.7071 65.4147 559.3212)" class="st1" width="12.9" height="12.9"/>
<path class="st2" d="M472,230c-10.9-1.4-21.7,4.2-32.4,0.5c-8.9-3-15.6-10.8-17.6-19.9c-0.4-1.7,0.4-2.9,1.6-3.5
	c1.8-1,4.5-0.4,5.1,2.2c1.7,7.8,8.1,14.3,16,15.6c9.3,1.5,18.4-2.8,27.8-1.6c1.9,0.2,2.9,1.7,3,3.1C475.6,228.3,474.4,230.3,472,230
	z"/>
<path class="st3" d="M475.4,226.4c-0.5,0.2-1.1,0.4-1.8,0.3c-10.9-1.4-21.7,4.2-32.4,0.5c-8.9-3-15.6-10.8-17.6-19.9
	c0-0.1,0-0.1,0-0.2c1.8-1,4.5-0.4,5.1,2.2c1.7,7.8,8.1,14.3,16,15.6c9.3,1.5,18.4-2.8,27.8-1.6C474.3,223.5,475.3,224.9,475.4,226.4
	z"/>
<path class="st2" d="M460.1,348.5c-10.9-0.7-23.4-4.6-37.6-11.8c-6.7-3.4-9.4-11.6-6-18.3c3.4-6.7,11.6-9.4,18.3-6
	c16.9,8.5,30.2,11.2,35.6,7.2c5.9-4.3,6.5-19,5.1-27.6c-1.3-7.4,3.7-14.4,11.1-15.7c7.4-1.3,14.5,3.7,15.8,11.1
	c0.7,3.9,5.9,38.1-15.7,54.1C479.4,346.9,470.5,349.2,460.1,348.5z"/>
<path class="st3" d="M473.9,323.8c-8.1,6-27.9,2.1-53-10.5c4-2.7,9.2-3.2,13.8-0.9c16.9,8.5,30.2,11.2,35.6,7.2
	c5.9-4.3,6.5-19,5.1-27.6c-0.9-5.4,1.5-10.7,5.8-13.6c0,1.2,0.1,2.3,0.3,3.5C483.7,295,482.8,317.3,473.9,323.8z"/>
<path class="st2" d="M513,406.5c-3.8-0.2-7.5-2.1-10-5.4c-4.5-6-3.4-14.5,2.6-19.1c18.3-13.8,25.1-31.5,20.9-54
	c-3.4-18.3-13.2-32.7-13.3-32.8c-4.3-6.2-2.7-14.7,3.5-18.9c6.2-4.3,14.7-2.7,19,3.5c0.5,0.7,12.7,18.6,17.4,42.2
	c2.9,14.5,2.4,28.2-1.4,40.9c-4.8,15.9-14.8,29.7-29.6,40.9C519.4,405.8,516.2,406.7,513,406.5z"/>
<path class="st3" d="M503,391.6c-1,0.8-1.9,1.6-2.7,2.5c-0.4-4.5,1.4-9.2,5.3-12.1c18.3-13.8,25.1-31.5,20.9-54
	c-3.4-18.3-13.2-32.7-13.3-32.8c-3.6-5.1-3.1-11.9,0.7-16.4c3.1,5,12.7,21.5,16.5,41.7C536.1,350.1,527.1,373.4,503,391.6z"/>
<path class="st2" d="M458.8,244.6c-4.4,0.4-8.5,1.9-12.1,4.5c-3.9,2.8-6.5,7-10.9,9.1c-8.5,4.2-17.6,1.6-24.4-4.5
	c-6.9-6.2-11.8-14.4-19.3-19.9c-7.1-5.3-16.6-7.5-24.7-3.5c-3.9,2-0.9,8.1,3.1,6.1c9-4.5,18,2.2,23.8,8.6c6.2,6.7,11.6,14.6,19.9,19
	c7.3,3.8,15.7,4.1,23.3,1c4.1-1.7,7.1-4.5,10.2-7.6c3.5-3.6,7.4-5.7,12.5-6.1C464.6,250.9,463.2,244.2,458.8,244.6z"/>
<path class="st3" d="M468,264.9c0,0-31-5.9-19.7-28.4c11.4-22.6,21-39.3,47.2-44.1s33.8,20.3,33.8,20.3l-28.7,46.4L468,264.9z"/>
<path class="st3" d="M633.5,296.1c-3.9-0.3-7.7-2.2-10.2-5.7c-24-33.6-75-34.5-75.5-34.5c-7.5-0.1-13.6-6.2-13.5-13.7
	c0-7.5,6.1-13.6,13.7-13.5c2.7,0,65.3,0.8,97.5,45.9c4.4,6.1,2.9,14.6-3.2,19C639.6,295.5,636.5,296.3,633.5,296.1z"/>
<path class="st2" d="M526,308.4c-18.3,3.2-33.7-1.5-44.1-10.6c-11.1-9.8-16.5-24.8-13.6-40.9c5.6-31,29.3-40.9,41-43.9
	c3.9-1,6.5-1.3,6.5-1.3s20.2-0.3,39.5,5.9c19.4,6.2,21.6,22.5,22.6,31.8C578.9,258.9,564,301.9,526,308.4z"/>
<path class="st4" d="M581.4,241.2c0,0,0.1,0.1,0,0.2c-6.4,8.8-16.4,14.9-28.2,16c-13,1.2-25.2-4.1-33.2-13.2
	c-5.4-6.1-8.9-13.9-9.7-22.6c-2-21.8,14-41,35.8-43c12.3-1.1,23.9,3.5,31.9,11.8c5.2,5.4,9,12.2,10.5,20c0.3,1.3,0.2,2.6,0.4,4
	c0.2,2.7-9.5,12.2-10.9,17.3C576.3,237.8,582.7,239.6,581.4,241.2z"/>
<path class="st2" d="M578.5,332.7c-0.4,0-0.8-0.1-1.2-0.1c-27.5-4.3-51.6-18.3-69.7-40.7c-13.6-16.7-19.1-32.4-19.4-33.1
	c-2.5-7.1,1.3-14.9,8.4-17.4s14.8,1.2,17.3,8.3c0.1,0.3,4.6,12.6,15.4,25.6c13.9,16.9,31.5,27,52.2,30.2c7.4,1.2,12.5,8.1,11.4,15.5
	C591.7,328.2,585.5,333.2,578.5,332.7z"/>
<path class="st3" d="M582.7,239.8c-0.9,1.9-2.1,3.7-3.3,5.4c-0.6,0.8-1.2,1.5-1.8,2.3c-6.5,7.6-15.8,12.8-26.5,13.8
	c-21.8,2-41-14-43-35.8c-0.4-4.3-0.1-8.4,0.8-12.4c0.6-0.2,1.1-0.3,1.7-0.4c-0.4,2.9-0.5,5.9-0.2,8.9c2,21.8,21.3,37.8,43,35.8
	c9.4-0.9,17.8-5,24.1-11.2c1.6-1.5,3-3.2,4.3-4.9C582,240.8,582.4,240.3,582.7,239.8z"/>
<path class="st3" d="M592.8,321.5c-1.2,6.9-7.4,11.7-14.3,11.3c-0.4,0-0.8-0.1-1.2-0.1c-27.5-4.3-51.6-18.3-69.7-40.7
	c-3.7-4.6-6.8-9.1-9.4-13.2c1.4,2,3,4,4.7,6.1c19.5,24.1,45.5,39.2,75,43.8c0.4,0.1,0.9,0.1,1.3,0.1
	C584.8,329.1,590,326.2,592.8,321.5z"/>
<path class="st3" d="M509.2,213l-0.9,14.5c-42.2,13.6-25.8,70.5-25.8,70.5l-0.6-0.2c-11.1-9.8-16.5-24.8-13.6-40.9
	C473.8,225.9,497.6,216.1,509.2,213z"/>
<path class="st3" d="M578,190.3c-9.2-7-21.4-10.9-36-3.8c-35.3,17.1-22.2,56.8-21.9,57.6c-5.4-6.1-9-13.9-9.8-22.6
	c-2-21.7,14-41,35.8-43C558.4,177.4,570,182.1,578,190.3z"/>
<path class="st3" d="M435.2,258.6c-0.9,0.7-1.8,1.3-2.9,1.9c-8.5,4.2-17.6,1.6-24.4-4.5c-6.9-6.2-11.8-14.4-19.3-19.9
	c-6.5-4.8-14.9-7.1-22.5-4.4c0.3-0.5,0.7-0.9,1.4-1.3c8.2-4.1,17.6-1.8,24.7,3.5c7.5,5.6,12.4,13.7,19.3,19.9
	C418.1,259.7,426.9,262.3,435.2,258.6z"/>
<path class="st3" d="M570.4,273.5c-4,7.6-9.8,15.7-17.5,22.2c-7.7-4.4-14.7-10.2-21-17.2C531.9,278.4,552.8,289,570.4,273.5z"/>
<path class="st0" d="M581.4,241.2c0,0,0.1,0.1,0,0.2c-1.5,1.8-17.3,19.7-41.2,6.1c-23.3-13.3-10.1-40.8,16.9-27.4s31.4-9.7,31.4-9.7
	c0.3,1.3,0.2,2.6,0.4,4C589.4,220.3,583.6,238.2,581.4,241.2z"/>
<path class="st5" d="M1376.5,311.3l-7.9,7.4l-2.2,2c0,0-3.8-2.9-9.2-5.4c-4.3-2-9.6-3.7-14.6-3.4l7.2-12.2
	C1349.9,299.6,1369.2,299,1376.5,311.3"/>
<polygon class="st3" points="1349,374.2 1422.6,344.7 1449.9,427.1 1383.9,441.2 "/>
<polyline class="st2" points="1349,374.2 1389.8,331.5 1453.5,306 1422.6,344.7 1349,374.2 "/>
<polygon class="st2" points="1453.5,306 1474.4,375.9 1449.9,427.1 1422.6,344.7 "/>
<polyline class="st6" points="1389.8,331.5 1397.6,354.7 1422.6,344.7 1453.5,306 1389.8,331.5 "/>
<path class="st5" d="M1386.6,349.8l-12.9,1.9c-11.8-13.9-23.2-19.7-23.2-19.7l9.2-0.4l7.6-0.3c3.2,1.5,6.3,3.8,9,6.2
	C1382.5,343.1,1386.6,349.8,1386.6,349.8"/>
<path class="st5" d="M1393.9,356.2c0,0,5.3-6.2,3.3-18.8l13.4,3.2c0,0,0,5.5-0.8,9.3L1393.9,356.2z"/>
<path class="st5" d="M1424.3,342.6l-1.7,2.1l-1.1,0.4l-8.2-0.6c0,0-9.5-5.6-10.6-21.6l14.1,3.3
	C1416.9,326.2,1417.6,336.8,1424.3,342.6"/>
<path class="st7" d="M1367.3,331.3l-7.6,0.3l0,0L1367.3,331.3c3.2,1.5,6.3,3.8,9,6.2l0,0C1373.6,335,1370.6,332.7,1367.3,331.3"/>
<path class="st8" d="M1367.3,331.3l-7.6,0.3c7.1,5.6,14.5,6.9,14.5,6.9l2.1-1C1373.6,335.1,1370.5,332.8,1367.3,331.3"/>
<path class="st8" d="M1363.7,312.4l-6.5,2.8c5.4,2.5,9.2,5.4,9.2,5.4l2.2-2C1365.5,315.3,1363.8,312.4,1363.7,312.4"/>
<path class="st5" d="M1374,336.5c0,0-15.5-2.8-23-17.1l14.9-6.5c0,0,9,14.6,22,16.8L1374,336.5z"/>
<path class="st5" d="M1447.1,296.1c0,0-3.6,18.8-13.9,21.8l-10.9-6.8c0,0,7.5-0.5,10-12.4c0.3-1.7,0.6-3.5,0.7-5.7l8.8,1.9
	L1447.1,296.1"/>
<path class="st8" d="M1433,293.1c-0.1,2.2-0.4,4-0.7,5.7l9.5-3.8L1433,293.1"/>
<path class="st5" d="M1366.6,361.6l-3,6.7l-4,1.6c-10-4.4-28-0.3-28-0.3l6.7-12.1C1354,352.4,1366.6,361.6,1366.6,361.6z"/>
<path class="st5" d="M1428.6,298.3l13.9-5.5c0,0-8.2-13.7-5.5-23.8l-6,8.6C1431.1,277.5,1424.4,286.4,1428.6,298.3z"/>
<path class="st5" d="M1400.5,283.5l2.8-17.4c0,0-16.2,0.9-15-14.6C1388.3,251.5,1375.5,272.6,1400.5,283.5z"/>
<path class="st5" d="M1312.9,462.7c0,0,0.3-17.8,15.1-23.4l14.1,6.9c0,0-13.7,7.7-17.6,18.6L1312.9,462.7z"/>
<path class="st5" d="M1396.4,253.1c0,0-3-16.5-13.6-21.2l17-0.1c0,0,10.1,7.4,12.8,16L1396.4,253.1z"/>
<path class="st5" d="M1484.9,341.7l20.9,5c0,0,19.7-3,22-15.7l-21.9,1.7C1505.9,332.8,1508.9,339.8,1484.9,341.7z"/>
<path class="st5" d="M1418.3,303.3l-6.7-15.9c0,0-2.6,1.3-5.4,3.9c-0.8,0.7-1.5,1.5-2.3,2.5l5.1,8l-7.8-12.2l-4.6,3l-1.2,6.3
	l-6.1-7.5l-2.1,1.7l-0.6,7.8c-0.5-0.5-1-1-1.5-1.5l-14.9-3.3c0,0,11.8,11.5,12.9,23.5l11.9,7.3l2.5,3.2l2.6-2l0.1-1.3l2.4,3.8
	l5.2-3.3l2.7-15.9l-1.7,10c0.2-1.2,2.1-9.4,6.7-15.1C1416.2,305.2,1417.2,304.2,1418.3,303.3"/>
<polyline class="st9" points="1397.4,330 1397.4,330.1 1397.5,330.1 1397.4,330 "/>
<polyline class="st8" points="1401.2,306.2 1399.1,307.9 1397.4,330 1397.5,330.1 1400,328 1401.2,306.2 "/>
<path class="st7" d="M1394.8,326.8c0,0.1,0,0.1,0,0.1S1394.8,326.9,1394.8,326.8L1394.8,326.8 M1386.9,295.5l-0.4,5.3l0.1,0.1
	L1386.9,295.5L1386.9,295.5"/>
<path class="st8" d="M1387,295.6l-0.4,5.3l-0.1-0.1v0.1c9.3,10.1,8.4,24.4,8.3,25.9l0,0C1395.2,325.5,1399,311.6,1387,295.6"/>
<path class="st7" d="M1405.8,291.7c-0.6,0.6-1.3,1.3-2,2l5.2,8.1l-5.1-8C1404.6,293,1405.1,292.3,1405.8,291.7"/>
<polyline class="st9" points="1402.4,330.3 1402.4,330.5 1402.5,330.4 1402.4,330.3 "/>
<path class="st8" d="M1406.1,291.4c-0.1,0.1-0.2,0.2-0.3,0.3c-0.6,0.6-1.2,1.3-1.9,2.1l5.1,8l-5.2-8.1c-0.1,0.1-0.1,0.2-0.2,0.2
	l7.4,11.9l-4.5,2.9l-4.1,21.6l0.1,0.1l5.1-3.2l1-5.9c0.3-1.1,2.1-9.3,6.7-15L1406.1,291.4"/>
<path class="st5" d="M1513.2,224.7c0,0-15.5-2.8-23-17.1l14.9-6.5c0,0,9,14.6,22,16.8L1513.2,224.7z"/>
<path class="st5" d="M1312.7,244.8c0,0,1.3-18.6,15.9-20.1l7.5,10.5c0,0-15.5,7-11.2,22.6L1312.7,244.8z"/>
<path class="st5" d="M1478.2,245.1c0,0,13.9-6.7,21,3.1l-4.4,9.7c0,0-11.4-8.2-20.8,1.2L1478.2,245.1z"/>
<path class="st5" d="M1291.6,213.6c0,0-14.4-7.6-23-6.5l-9.5-11.2c0,0,16.5-3.1,24.9,0.9L1291.6,213.6z"/>
<path class="st5" d="M611,338.1c0,0,3-18.7-7-29.7l20.2,9.8c0,0,6.8,24.5,0.2,33.9L611,338.1z"/>
<path class="st5" d="M625.6,267.8c0,0,1.1-17.3,21.4-28.3l2.8,18.1c0,0-14.6,14.9-15.1,29.2L625.6,267.8z"/>
<path class="st5" d="M693.7,288.5c0,0,9.8,11.3,27.4,3.5l-8.6,11.6c0,0-13,9.5-24.6,2.2L693.7,288.5z"/>
</svg>
