<?xml version="1.0" encoding="utf-8"?>
<!-- Generator: Adobe Illustrator 19.0.0, SVG Export Plug-In . SVG Version: 6.00 Build 0)  -->
<svg version="1.1" id="Layer_1" xmlns="http://www.w3.org/2000/svg" xmlns:xlink="http://www.w3.org/1999/xlink" x="0px" y="0px"
	 viewBox="-235 124.8 488.5 313.2" style="enable-background:new -235 124.8 488.5 313.2;" xml:space="preserve">
<style type="text/css">
	.st0{fill:#373536;}
	.st1{fill:#F1F1F1;}
	.st2{fill:#D0D1D2;}
	.st3{fill:#BABCBE;}
	.st4{fill:#454547;}
	.st5{fill:#A5A7AA;}
	.st6{fill:#F1F1F2;}
	.st7{fill:#D0D2D3;}
	.st8{fill:#F26E21;}
	.st9{fill:#FFFFFF;}
	.st10{fill:#929497;}
	.st11{fill:#FFFFFF;stroke:#FFFFFF;stroke-miterlimit:10;}
	.st12{fill:none;stroke:#BBBDBF;stroke-width:0.5;stroke-miterlimit:10;}
</style>
<g>
	<g id="XMLID_1191_">
		<path id="XMLID_1202_" class="st0" d="M203.5,381.7H-185V137.1c0-6.8,5.5-12.3,12.3-12.3h363.9c6.8,0,12.3,5.5,12.3,12.3V381.7z"
			/>
		<path id="XMLID_1201_" class="st1" d="M-169.7,145.9h357.9v211.5h-357.9V145.9z"/>
		<path id="XMLID_1200_" class="st2" d="M253.5,428.1H-235l50-46.4h388.5L253.5,428.1z"/>
		<path id="XMLID_1199_" class="st3" d="M240.1,438h-461.7c-4.1,0-13.4-2.7-13.4-6.1v-3.8h488.5v3.8
			C253.5,435.3,244.2,438,240.1,438z"/>
		<g id="XMLID_1196_">
			<path id="XMLID_1198_" class="st4" d="M195.8,401.4h-373l19.4-18.1h334.1L195.8,401.4z"/>
			<path id="XMLID_1197_" class="st0" d="M-177.2,401.4h373v2.5h-373V401.4z"/>
		</g>
		<path id="XMLID_1195_" class="st3" d="M-161.4,383.3l-25.8,23.9h-21.3l25.7-23.9H-161.4z"/>
		<path id="XMLID_1194_" class="st3" d="M179.8,383.3l25.7,23.9h21.4l-25.7-23.9H179.8z"/>
		<path id="XMLID_1193_" class="st3" d="M66.6,419.6H-48l11-11.3h92.5L66.6,419.6z"/>
		<path id="XMLID_1192_" class="st5" d="M39.1,432.1h-59.7c-2.2,0-4-1.8-4-4s1.8-4,4-4h59.7c2.2,0,4,1.8,4,4
			C43.2,430.3,41.4,432.1,39.1,432.1z"/>
	</g>
	<path id="XMLID_1190_" class="st6" d="M-169.7,145.9h357.9v211.5h-357.9V145.9z"/>
	<path class="st7" d="M-169.7,145.9h357.9v9.8h-357.9V145.9z"/>
	<circle class="st8" cx="-163.5" cy="150.8" r="2.1"/>
	<circle class="st8" cx="-156.5" cy="150.8" r="2.1"/>
	<circle class="st8" cx="-149.7" cy="150.8" r="2.1"/>
	<path class="st8" d="M-94.1,184.4h206.8v19.1H-94.1V184.4z M-94.1,209.4H51.4v19.1H-94.1V209.4z M54.4,228.4h58.3v55.5H54.4V228.4z
		 M-94.1,328.3H51.4v15.4H-94.1V328.3z"/>
	<path class="st9" d="M-94.1,228.4H51.4v99.8H-94.1V228.4z M60.9,191.4h43v5.1h-43V191.4z M-87,216.3h38.4v5.1H-87V216.3z"/>
	<path class="st10" d="M-67.8,233.1h38.4v5.1h-38.4V233.1z M-75.3,165.8h26.6v8.8h-26.6V165.8z M-67.8,239.9h21.4v1.2h-21.4V239.9z
		 M-67.8,242.8h21.4v1.2h-21.4V242.8z M-67.8,245.8h21.4v1.2h-21.4V245.8z M-67.8,257.9h44.1v5.1h-44.1V257.9z M-67.8,264.7h21.4
		v1.2h-21.4V264.7z M-67.8,267.7h21.4v1.2h-21.4V267.7z M-67.8,270.6h21.4v1.2h-21.4V270.6z"/>
	<path class="st9" d="M60.9,235.9h43v5.1h-43V235.9z M60.9,246.6h43v5.1h-43V246.6z M60.9,256.7h43v5.1h-43V256.7z M21.6,333.4h19.2
		v5.1H21.6V333.4z M-2.2,333.4H17v5.1H-2.2V333.4z M-25.9,333.4h19.2v5.1h-19.2V333.4z"/>
	<circle class="st9" cx="-3.2" cy="194" r="4.9"/>
	<circle class="st11" cx="-20.9" cy="194" r="4.9"/>
	<circle class="st11" cx="14.5" cy="194" r="4.9"/>
	<path class="st10" d="M-87,233.1h13.5v13.5H-87V233.1z M-87,258.1h13.5v13.5H-87V258.1z M-67.8,283.7h28.7v5.1h-28.7V283.7z
		 M-67.8,290.5h21.4v1.2h-21.4V290.5z M-67.8,293.5h21.4v1.2h-21.4V293.5z M-67.8,296.4h21.4v1.2h-21.4V296.4z M-87,283.9h13.5v13.5
		H-87V283.9z"/>
	<path class="st12" d="M-94.1,253.7H51.3 M-94.1,279.7H51.3"/>
	<path class="st10" d="M-67.8,309.5h50.7v5.1h-50.7V309.5z M-67.8,316.2h21.4v1.2h-21.4V316.2z M-67.8,319.2h21.4v1.2h-21.4V319.2z
		 M-67.8,322.2h21.4v1.2h-21.4V322.2z M-87,309.7h13.5v13.5H-87V309.7z"/>
	<path class="st12" d="M-94.1,305.4H51.3"/>
	<path class="st8" d="M-84.2,173.2c0-0.1,0-0.3-0.1-0.4c-0.1-0.7-0.5-1.3-1-1.7s-1.1-0.7-1.8-0.7h-0.3c-0.6,0-1.1,0.2-1.5,0.5
		c-0.6,0.4-0.9,1.1-0.9,1.8c0,1.2,1,2,2,2c0.3,0,0.5,0,0.7-0.1c0.5-0.2,0.9-0.7,0.9-1.3s-0.4-1-0.8-1.1h-0.2c-0.5,0-1,0.3-1,0.8
		h-0.7c0-0.8,0.7-1.4,1.6-1.4h0.2c0.8,0.1,1.5,0.7,1.5,1.7s-0.6,1.7-1.5,2c-0.2,0.1-0.5,0.1-0.7,0.1c-1.3,0-2.3-0.9-2.6-2.1
		c0-0.2-0.1-0.4-0.1-0.6c0-0.3,0.1-0.7,0.2-1c0.2-0.6,0.6-1,1.1-1.4c-1,0.6-1.6,1.7-1.6,2.9c0,1.9,1.5,3.4,3.3,3.5h0.4
		c0.2,0,0.4-0.1,0.5-0.1h0.1c0.1,0,0.2-0.1,0.3-0.1s0.2-0.1,0.3-0.1c0.1,0,0.1-0.1,0.2-0.1c0.1-0.1,0.2-0.1,0.3-0.2l0.1-0.1
		c0.6-0.6,1-1.4,1-2.3C-84.2,173.4-84.2,173.3-84.2,173.2"/>
	<path class="st8" d="M-83.4,166.6c0.4,0,0.7,0.3,0.7,0.7s-0.3,0.7-0.7,0.7c-0.4,0-0.7-0.3-0.7-0.7S-83.8,166.6-83.4,166.6
		 M-89.2,170.2C-89.2,170.2-89.1,170.2-89.2,170.2l0.2-0.2c0,0,0.1,0,0.1-0.1c0.5-0.2,1-0.3,1.6-0.3h6.6c0.3,0,0.5-0.3,0.5-0.6
		c-0.3-3.2-2.8-6-5.9-6.4c-0.3,0-0.6,0.2-0.6,0.5v0.7c0,0.1-0.1,0.2-0.2,0.3c-0.1,0.1-0.2,0.1-0.3,0.1s-0.2,0-0.3-0.1
		c-0.1-0.1-0.1-0.2-0.1-0.3v-0.6c0-0.3-0.3-0.6-0.6-0.5c-3.4,0.5-6,3.4-6,6.9v0.1c0,0.9,0.2,1.8,0.5,2.6c0.7,1.8,2.1,3.2,3.9,3.9
		c0.1,0,0.5,0.2,1.2,0.3h1c-1.8-0.1-3.3-1.6-3.3-3.5c0-0.4,0.1-0.8,0.2-1.2C-90.3,171.3-89.8,170.6-89.2,170.2"/>
	<path class="st7" d="M46.6,228.4h4.8v99.8h-4.8V228.4z"/>
	<path class="st10" d="M47.5,241.9h3v32h-3V241.9z"/>
</g>
</svg>
