<?xml version="1.0" encoding="utf-8"?>
<!-- Generator: Adobe Illustrator 19.0.0, SVG Export Plug-In . SVG Version: 6.00 Build 0)  -->
<svg version="1.1" id="Layer_1" xmlns="http://www.w3.org/2000/svg" xmlns:xlink="http://www.w3.org/1999/xlink" x="0px" y="0px"
	 viewBox="-429 201.2 100.2 159.8" style="enable-background:new -429 201.2 100.2 159.8;" xml:space="preserve">
<style type="text/css">
	.st0{fill:#454547;}
	.st1{fill:#373536;}
	.st2{fill:#E6E6E6;}
	.st3{opacity:0.25;}
	.st4{fill:#F9E5C4;}
	.st5{opacity:0.15;}
	.st6{fill:#FFFFFF;}
	.st7{opacity:0.25;fill:#F9E5C4;enable-background:new    ;}
</style>
<g>
	<g id="XMLID_433_">
		<g id="XMLID_1127_">
			<path id="XMLID_1128_" class="st0" d="M-387.4,308.1l-4.4-2.5l10.1-17.9c0.1-0.1,0.1-0.2,0-0.4l-4.1-12.9c0-0.1-0.1-0.3-0.4-0.3
				s-0.4,0.1-0.5,0.2l-7.8,12.1l-4.2-2.7l7.8-12.1c1.2-1.8,3.2-2.7,5.3-2.4s3.8,1.7,4.5,3.8l4.1,12.9c0.5,1.4,0.3,3-0.4,4.3
				L-387.4,308.1L-387.4,308.1z"/>
		</g>
		<path id="XMLID_1126_" class="st0" d="M-369.5,273.4c-0.7-2.6-8.9-2.3-23.2,2.3c-16.3,5.2-34.1,13.2-36.1,17.8
			c-0.2,0.5-0.3,0.9-0.1,1.3l20.6,64.7c0.9,2.4,9.1,2.1,23.2-2.4c16.3-5.2,34.2-13.5,36.1-17.8c0.2-0.4,0.2-0.7,0.2-1L-369.5,273.4z
			"/>
		<path id="XMLID_1125_" class="st1" d="M-374.9,278.2c-1.5,3.4-15.9,10.1-29.1,14.3s-19.9,3.9-18.6,0.8
			c1.6-3.7,15.9-10.1,29.1-14.3S-373.6,275.1-374.9,278.2z"/>
	</g>
	<path id="XMLID_381_" class="st2" d="M-374.1,227.6c-3.6,1.8-3.2,7.9-3.2,7.9l1.9,2.4c-0.1,5.2-0.1,10.4-1.4,15.4
		s-4.1,9.1-6.5,13.7c-2.9,5.7-4.7,12.1-1.1,17.9c0.3,0.5,1.2,0,0.9-0.5c-5.6-9.2,2.3-17.7,5.9-25.8c2.9-6.5,3.2-13.6,3.3-20.6
		l1.9-1.9c-0.2-4.7,3.8-7.3,3.8-7.3L-374.1,227.6L-374.1,227.6z"/>
	<g id="XMLID_424_" class="st3">
		<path id="XMLID_380_" class="st4" d="M-345.1,251.8c-0.3,1.1-0.8,1.9-1.5,2.7c-0.6,0.7-1.4,1.2-2.2,1.8c-0.9,0.5-1.9,1-2.2,2.1
			c-0.3,0.8-0.1,1.8,0.4,2.5c1.2,1.6,2.8,2.6,2.6,4.9c-0.4,4.8-5.5,5.5-8.9,7.3c-1,0.6-1.8,1.4-2.5,2.3l-1.2,1.5
			c-0.2,0.3-0.5,0.5-0.8,0.8c-1.6,1.4-3.5,2.3-5.6,2.6h-0.4c-0.6,0.1-1.1,0.1-1.7,0c-1.4,0-2.8-0.2-4.2-0.2
			c-1.4,0.1-3.2,0.1-4.4,0.9c-0.1,0.1-0.2,0.1-0.3,0.1h-0.1l-0.2,0.4l-0.1-0.2c-1,0.7-2.3,1.4-3.7,2.2c0.2-0.8,0.5-1.7,0.9-2.5
			c0.5-1.1,1.1-2.2,1.8-3.2c0.2-0.3,0.4-0.7,0.7-1c0.2-0.3,0.4-0.6,0.7-1l0.6-0.9c0.7-1.1,1.2-2.1,1.5-3.1c0.4-1.3,0.5-2.7,0.2-4.3
			c-0.1-1-0.3-2-0.4-2.9c-0.1-1.6,0-3.1,0.5-4.7c1-3,3.1-5.2,5.6-7c0.8-0.5,1.6-1,2.5-1.5l5.4-2.7c1.9-1,3.7-2.3,5.6-3.3
			c0.3-0.2,0.6-0.3,0.9-0.5c3.1-1.4,7.5-2.4,9.8,0.7C-344.5,247.4-344.5,249.8-345.1,251.8L-345.1,251.8z"/>
		<path id="XMLID_379_" class="st4" d="M-333.6,229.7c-0.2,0.5-0.5,1-0.5,1.6c0,0.7,0.3,0.9,0.7,1.4c1.6,2.1,0.9,4.3-0.5,6
			c-0.8,1-2,1.9-3,2.4c-0.4,0.2-0.7,0.4-1,0.5c-0.2,0.1-0.4,0.1-0.6,0.1h-0.4c-2,0-3.7-1.4-4.2-3.4c-0.5-1.7,0-3.2,0.5-4.8
			c0.3-0.8,0.7-1.7,1-2.5c0.7-2,0.3-4.3,1.3-6.3c0.1-0.2,0.3-0.5,0.4-0.7c1.1-1.4,2.8-2,4.6-2c2.3,0,3.6,1.8,3.2,4
			C-332.4,227.5-333,228.6-333.6,229.7z"/>
		<path id="XMLID_378_" class="st4" d="M-336.1,213.2c-0.2,0.3-0.5,0.6-0.7,0.9c-1.2,1.1-3.1,1.5-4.6,0.6c-1.7-0.9-2.3-2.9-1.7-4.6
			c-0.2-0.5-0.2-1,0.2-1.5c0.2-0.2,0.4-0.4,0.6-0.5c1.4-0.9,3.4-0.7,4.8,0C-335.5,208.9-335,211.3-336.1,213.2z"/>
		<path id="XMLID_377_" class="st4" d="M-359.9,240.5c-0.4,1.4-1.4,2.6-2.8,3.1c-0.1,0-0.2,0.1-0.2,0.1c-1.2,0.6-1.9,1.4-3.3,1.6
			h-0.8c-0.3,0-0.6,0-0.9-0.2c-2.4-1.7-4.2-4.5-3.5-7.5c0.2-0.6,0.5-1.3,0.9-1.9c1-1.4,2.6-2.5,4.3-2.3c0.4,0.1,0.8,0.2,1.2,0.4
			c0.7,0.4,1.2,1,1.8,1.5c0.7,0.6,1.6,0.9,2.4,1.5C-359.7,237.6-359.5,239.2-359.9,240.5L-359.9,240.5z"/>
		<path id="XMLID_376_" class="st4" d="M-355.3,234.3c-0.1,0.2-0.3,0.5-0.5,0.6c-0.6,0.5-1.4,0.7-2.2,0.6h-0.3
			c-0.8-0.1-1.5-0.4-2-0.9c-0.9-0.8-1.4-2.2-1-3.3l0.3-0.6c0.2-0.3,0.5-0.6,0.9-0.6l0.3-0.3c0.4-0.2,0.8-0.4,1.3-0.4
			c0.8-0.1,1.7,0.1,2.4,0.5c0.4,0.2,0.7,0.5,0.9,0.9C-354.7,231.7-354.7,233.2-355.3,234.3L-355.3,234.3z"/>
		<path id="XMLID_375_" class="st4" d="M-329.2,213.9L-329.2,213.9c-0.7,0.6-1.8,0.4-2.4,0c-0.6-0.5-0.8-1.3-0.3-2
			c0.1-0.2,0.3-0.3,0.5-0.3l0.1-0.1h0.1c0.7-0.4,1.8-0.1,2.2,0.5C-328.7,212.5-328.8,213.4-329.2,213.9L-329.2,213.9z"/>
	</g>
	<g id="XMLID_422_" class="st5">
		<path id="XMLID_374_" class="st6" d="M-359.3,274c-0.1,0.5-0.1,1-0.1,1.4l-1.2,1.5c-0.2,0.3-0.5,0.5-0.8,0.8
			c-1.6,1.4-3.5,2.3-5.6,2.6h-0.4c-0.6,0.1-1.1,0.1-1.7,0c-0.4-1.7-0.6-3.5-0.4-5.3c0.2-2.2,1.7-5.3-0.1-7.1
			c-1.4-1.4-4.5-1.8-6.1-3.1l-0.3-0.3c-0.1-1.6,0-3.1,0.5-4.7c1-3,3.1-5.2,5.6-7c-2,4.1,1.8,4.5,4.8,6c2.4,1.3,4.4,3,5.5,5.6
			C-358.2,267.7-358.9,270.7-359.3,274z"/>
	</g>
	<g id="XMLID_420_" class="st5">
		<path id="XMLID_373_" class="st6" d="M-345.1,251.8c-0.3,1.1-0.8,1.9-1.5,2.7c0.3-1.6,0.5-3.3-0.6-4.4c-1.4-1.4-4.5-1.8-6.1-3.1
			c-0.8-0.6-1.5-1.3-2.1-2c3.1-1.4,7.5-2.4,9.8,0.7C-344.5,247.4-344.5,249.8-345.1,251.8L-345.1,251.8z"/>
	</g>
	<g id="XMLID_418_" class="st5">
		<path id="XMLID_372_" class="st6" d="M-362.9,243.7c-1.2,0.6-1.9,1.4-3.3,1.6c-0.9-1.2-2.1-2.2-2.9-3.5c-0.9-1.6-1.4-3.4-1.4-5.2
			v-0.9c1-1.4,2.6-2.5,4.3-2.3c-1.7,1.7,0,6.3,1.1,7.7C-364.3,242-363.5,242.8-362.9,243.7L-362.9,243.7z"/>
	</g>
	<g id="XMLID_416_" class="st5">
		<path id="XMLID_371_" class="st6" d="M-355.3,234.3c-0.1,0.2-0.3,0.5-0.5,0.6c-0.6,0.5-1.4,0.7-2.2,0.6h-0.3
			c-1.1-0.7-2.1-1.6-2.7-2.9c-0.2-0.4-0.3-0.8-0.3-1.2l0.3-0.6c0.2-0.3,0.5-0.6,0.9-0.6l0.3-0.3c0.4-0.2,0.8-0.4,1.3-0.4
			c-0.5,1-0.5,2.2,0.4,3.1C-357.4,233.3-356.3,233.8-355.3,234.3L-355.3,234.3z"/>
	</g>
	<g id="XMLID_414_" class="st5">
		<path id="XMLID_370_" class="st6" d="M-334,238.7c-0.8,1-2,1.9-3,2.4c-0.4-0.4-0.8-0.9-1.1-1.5c-0.4-0.7-0.5-1.5-0.8-2.1
			c-1-2.2-1.6-1.8-3-3.1c-0.3-0.2-0.5-0.5-0.7-0.8c0.3-0.8,0.7-1.7,1-2.5c0.7-2,0.3-4.3,1.3-6.3c0.1-0.2,0.3-0.5,0.4-0.7
			c-0.4,1.7-0.9,3.9-0.4,5.7c0.6,2.1,1.7,1.9,3,3C-336,234.2-335.5,237.9-334,238.7L-334,238.7z"/>
	</g>
	<g id="XMLID_412_" class="st5">
		<path id="XMLID_369_" class="st6" d="M-336.9,214.1c-1.2,1.1-3.1,1.5-4.6,0.6c-1.7-0.9-2.3-2.9-1.7-4.6c-0.2-0.5-0.2-1,0.2-1.5
			c0.2-0.2,0.4-0.4,0.6-0.5c-0.1,1.4,1.6,2.6,2.5,3.5C-339.1,212.2-338.1,214-336.9,214.1z"/>
	</g>
	<g id="XMLID_410_" class="st5">
		<path id="XMLID_368_" class="st6" d="M-329.2,213.9L-329.2,213.9c-0.7,0.6-1.8,0.4-2.4,0c-0.6-0.5-0.8-1.3-0.3-2
			c0.1-0.2,0.3-0.3,0.5-0.3l0.1-0.1h0.1C-330.9,212.6-330.2,213.3-329.2,213.9L-329.2,213.9z"/>
	</g>
	<path id="XMLID_367_" class="st7" d="M-340.6,205.6C-340.6,205.7-340.7,205.7-340.6,205.6c-0.7,0-1.1-0.7-1.2-1.2s0.3-1.1,0.8-1.2
		c0.1,0,0.3,0,0.4,0.1h0.2c0.5,0.2,1,0.8,0.9,1.4C-339.6,205.2-340.1,205.6-340.6,205.6L-340.6,205.6z"/>
	<path id="XMLID_366_" class="st7" d="M-339.4,255.3C-339.4,255.3-339.4,255.2-339.4,255.3c-0.3-0.4-0.1-1,0.2-1.2
		c0.3-0.3,0.8-0.3,1.1,0c0.1,0.1,0.1,0.2,0.1,0.3c0,0,0,0.1,0.1,0.1v0.1c0.1,0.4-0.1,0.9-0.5,1.1
		C-338.7,255.7-339.2,255.5-339.4,255.3L-339.4,255.3z"/>
	<path id="XMLID_365_" class="st7" d="M-337.2,202.1c-0.1-0.4,0.2-0.8,0.5-0.9s0.7,0,0.8,0.3v0.3c0,0.3-0.3,0.7-0.6,0.7
		C-336.7,202.6-337.1,202.4-337.2,202.1L-337.2,202.1z"/>
	<path id="XMLID_364_" class="st7" d="M-337.8,259.6c0,0.4-0.1,0.8-0.2,1.1c-0.4,0.9-1.1,1.7-2.1,1.9c-0.2,0-0.5,0-0.7-0.1
		c-0.4-0.1-1.4,0.5-2.6-0.4c-0.9-0.7-1.1-1.9-1.1-2.7s0.5-1.6,1.1-2.1l0.1-0.1c0.6-0.5,0.9-1.1,1.6-1.3c0.1,0,0.2-0.1,0.3-0.1h0.2
		c0.1-0.1,0.3-0.1,0.5,0C-339.2,256.5-337.8,257.8-337.8,259.6L-337.8,259.6z"/>
	<g id="XMLID_404_" class="st5">
		<path id="XMLID_363_" class="st6" d="M-337.8,259.6c0,0.4-0.1,0.8-0.2,1.1c-0.4,0.9-1.1,1.7-2.1,1.9c0.7-1.2-0.8-3.5-1.6-4.1
			c-0.5-0.4-1.1-0.8-1.6-1.2c0.6-0.5,0.9-1.1,1.6-1.3c0.1,0,0.2-0.1,0.3-0.1h0.2c0.1-0.1,0.3-0.1,0.5,0
			C-339.2,256.5-337.8,257.8-337.8,259.6L-337.8,259.6z"/>
	</g>
</g>
</svg>
