<?xml version="1.0" encoding="utf-8"?>
<!-- Generator: Adobe Illustrator 19.0.0, SVG Export Plug-In . SVG Version: 6.00 Build 0)  -->
<svg version="1.1" id="Layer_1" xmlns="http://www.w3.org/2000/svg" xmlns:xlink="http://www.w3.org/1999/xlink" x="0px" y="0px"
	 viewBox="480 -260 1920 1080" style="enable-background:new 480 -260 1920 1080;" xml:space="preserve">
<style type="text/css">
	.st0{opacity:0.4;}
	.st1{opacity:0.44;fill:#FFFFFF;enable-background:new    ;}
	.st2{opacity:0.2;fill:#42210B;enable-background:new    ;}
	.st3{fill:#E6E7E8;}
	.st4{fill:#BABCBE;}
	.st5{fill:#A1715E;}
	.st6{fill:#D0D1D2;}
	.st7{fill:#F26E21;}
	.st8{fill:#E35425;}
	.st9{fill:#454547;}
	.st10{fill:#929497;}
	.st11{fill:#E6E6E6;}
	.st12{fill:#17B591;}
	.st13{fill:#D0D1D1;}
	.st14{clip-path:url(#SVGID_2_);fill:#77797C;}
	.st15{fill:#989A9C;}
	.st16{fill:#BCBDBD;}
	.st17{fill:#B9451E;}
	.st18{fill:#C55A1B;}
	.st19{fill:#373536;}
	.st20{fill:#F1F1F1;}
	.st21{fill:#FFFFFF;}
	.st22{fill:#808184;}
	.st23{fill:#6D6E70;}
</style>
<g>
	<g id="XMLID_727_" class="st0">
		<path id="XMLID_729_" class="st1" d="M479.6,819.7h807.5L479.6,12.1V819.7z"/>
		<path id="XMLID_728_" class="st1" d="M2399.5,328.1v491.6h-331.8L988-260.1h823.3L2399.5,328.1z"/>
	</g>
	<path id="XMLID_726_" class="st2" d="M985.8-259.9h12.8v784.9h-12.8V-259.9z"/>
	<path id="XMLID_1_" class="st2" d="M910.4-259.9h12.8v893h-12.8V-259.9z"/>
	<path id="XMLID_3_" class="st2" d="M1956.2-259.9h12.8v806.6h-12.8V-259.9z"/>
	<path id="XMLID_2_" class="st2" d="M1880.8-259.9h12.8v893h-12.8V-259.9z"/>
	<g id="XMLID_70_">
		<path id="XMLID_82_" class="st3" d="M924-260.1h62.5v943H924V-260.1z"/>
		<path id="XMLID_88_" class="st3" d="M1956.1-260.1h-62.6v943h62.6V-260.1"/>
		<path id="XMLID_89_" class="st4" d="M976.9-260.1h9.7v943h-9.7V-260.1z"/>
		<path id="XMLID_94_" class="st4" d="M1903.2-260.1h-9.7v943h9.7V-260.1"/>
		<path id="XMLID_95_" class="st5" d="M668.5,634.2v45.7l-0.1,76V820h-188v-10.8l138.9-129.3L668.5,634.2z"/>
		<path id="XMLID_96_" class="st3" d="M668.5,634.2L668.5,634.2l-49.1,45.7l-139,129.3v-175H668.5z"/>
		<path id="XMLID_97_" class="st5" d="M2212.3,634.2v131l59,54.8h129.1v-10.8l-138.9-129.3L2212.3,634.2z"/>
		<path id="XMLID_98_" class="st3" d="M2212.3,634.2L2212.3,634.2l49.1,45.7l139,129.3v-175H2212.3z"/>
		<path id="XMLID_99_" class="st3" d="M2271.3,820.1H609.4l201.2-186.9h1259.5L2271.3,820.1"/>
		<path id="XMLID_100_" class="st6" d="M823.5,622.6h90.8v45h-90.8V622.6z"/>
		<path id="XMLID_101_" class="st4" d="M841.4,656.6v44.9l36.7-34v-44.9L841.4,656.6z"/>
		<path id="XMLID_102_" class="st4" d="M786.7,656.6v44.9l36.7-34v-44.9L786.7,656.6z"/>
		<path id="XMLID_103_" class="st7" d="M786.7,656.6h90.8v64.9h-90.8V656.6z"/>
		<path id="XMLID_104_" class="st8" d="M877.6,656.6v64.9l36.6-34v-64.9L877.6,656.6z"/>
		<path id="XMLID_105_" class="st8" d="M1093,541.6h39.1v102.9H1093V541.6z"/>
		<path id="XMLID_106_" class="st7" d="M970,668.1l-79.6,74.7v3h162v-3l79.7-74.7L970,668.1L970,668.1z"/>
		<path id="XMLID_108_" class="st9" d="M1186.5,662.8l-3.4-3.7l15-14c0.1-0.1,0.1-0.2,0.1-0.3v-13.5c0-0.1,0-0.3-0.3-0.4
			s-0.4,0-0.5,0.1l-11.1,9.1l-3.2-3.9l11.1-9.1c1.6-1.4,3.9-1.6,5.8-0.7c1.9,0.9,3.1,2.8,3.1,4.9v13.5c0,1.5-0.6,3-1.7,4
			L1186.5,662.8L1186.5,662.8z"/>
		<path id="XMLID_109_" class="st9" d="M1214.1,635.2c0.1-2.7-7.8-4.9-22.8-4.9c-17.1,0-36.5,2.2-39.8,6c-0.4,0.4-0.5,0.8-0.5,1.2
			v67.8c0.1,2.6,8,4.7,22.8,4.7c17.1,0,36.7-2.5,39.8-6c0.3-0.3,0.4-0.6,0.5-0.9V635.2z"/>
		<path id="XMLID_110_" class="st6" d="M2007.1,546.8H1702l36.7,34v143.3h305.1V580.9L2007.1,546.8"/>
		<path id="XMLID_111_" class="st10" d="M2038.2,712.7h-293.4v-49.5h293.4V712.7"/>
		<path id="XMLID_112_" class="st10" d="M2038.2,639.8h-293.4v-49.5h293.4V639.8"/>
		<path id="XMLID_113_" class="st4" d="M1738.7,580.8v143.3l-36.7-34V546.8L1738.7,580.8z"/>
		<path id="XMLID_114_" class="st11" d="M2034.6,663.2h-286.7v45h286.7V663.2"/>
		<path id="XMLID_115_" class="st4" d="M2015.3,697.2v45l-36.6-34v-45L2015.3,697.2"/>
		<path id="XMLID_119_" class="st7" d="M2008.6,711.9h-40.9l-35-32.9h41L2008.6,711.9"/>
		<path id="XMLID_120_" class="st4" d="M1956.4,697.2v45l-36.7-34v-45L1956.4,697.2"/>
		<path id="XMLID_121_" class="st8" d="M1876.4,670.1v42.6l35.1,23.7v-33.4L1876.4,670.1"/>
		<path id="XMLID_122_" class="st7" d="M1952.5,702.9h-41l-35.1-32.9h41.1L1952.5,702.9"/>
		<path id="XMLID_123_" class="st4" d="M1900.8,697.2v45l-36.7-34v-45L1900.8,697.2"/>
		<path id="XMLID_124_" class="st7" d="M1895.1,700.9h-40.9l-35.1-32.9h41.1L1895.1,700.9"/>
		<path id="XMLID_125_" class="st8" d="M1819.1,668.1v42.6l35.1,23.7v-33.4L1819.1,668.1"/>
		<path id="XMLID_126_" class="st4" d="M2071.3,697.2v45l-36.7-34v-45L2071.3,697.2"/>
		<path id="XMLID_127_" class="st4" d="M1841.9,697.2v45l-36.7-34v-45L1841.9,697.2"/>
		<path id="XMLID_129_" class="st12" d="M1856.8,702.9h41v33.4h-41V702.9z"/>
		<path id="XMLID_130_" class="st8" d="M1758.2,668.1v42.6l35,23.7v-33.4L1758.2,668.1"/>
		<path id="XMLID_131_" class="st7" d="M1834.2,700.9h-41l-35-32.9h41L1834.2,700.9"/>
		<path id="XMLID_132_" class="st12" d="M1793.2,700.9h41v33.4h-41V700.9z"/>
		<path id="XMLID_133_" class="st13" d="M1955.5,742.2h-170.9l-36.7-34h170.9L1955.5,742.2z"/>
		<path id="XMLID_134_" class="st4" d="M1784.6,697.2v45l-36.7-34v-45L1784.6,697.2"/>
		<path id="XMLID_140_" class="st9" d="M1779.3,692.3h297.5v52.7h-297.5L1779.3,692.3L1779.3,692.3z"/>
		<path id="XMLID_141_" class="st6" d="M1923.5,714.2h9v9h-9V714.2z"/>
		<path id="XMLID_142_" class="st4" d="M2061.6,615.2v45l-28.3-26.3l-8.4-7.7v-36h9.7l21.8,20.2L2061.6,615.2"/>
		<path id="XMLID_143_" class="st11" d="M2024.9,590.2v36h-277v-36H2024.9"/>
		<path id="XMLID_144_" class="st7" d="M2053.3,633.9h-41.1l-34.9-32.9h40.9L2053.3,633.9z"/>
		<path id="XMLID_150_" class="st4" d="M2005.6,615.2v45l-36.6-34v-36h9.7l11.6,10.8l10.1,9.4L2005.6,615.2"/>
		<path id="XMLID_160_" class="st8" d="M1956,620.9v33.4l-9.3-6.3l-25.3-17.1l-0.4-0.2v-40.5h2.3l21.4,20.2L1956,620.9"/>
		<path id="XMLID_161_" class="st7" d="M1996.9,620.9H1956l-11.3-10.5l-21.4-20.2h41l4.7,4.4l16.7,15.8L1996.9,620.9"/>
		<path id="XMLID_162_" class="st4" d="M1946.7,615.2v45l-24-22.2l-6.2-5.8l-1.3-1.3l-5.2-4.7v-36h9.7l1.3,1.1l20.5,19.1
			L1946.7,615.2"/>
		<path id="XMLID_163_" class="st7" d="M1940.8,630.9h-41.1l-35-32.9h41L1940.8,630.9z"/>
		<path id="XMLID_164_" class="st4" d="M1891,615.2v45l-6.3-5.9l-30.3-28.1v-36h9.7l8.4,7.8l13.3,12.4L1891,615.2"/>
		<path id="XMLID_165_" class="st7" d="M1885.4,618.9h-41l-9.1-8.5l-21.5-20.2h41.1l21.3,20.2L1885.4,618.9"/>
		<path id="XMLID_166_" class="st8" d="M1844.4,618.9v33.4l-12.3-8.3l-7.6-5.1l-15.1-10.2v-38.5h4.4l21.5,20.2L1844.4,618.9"/>
		<path id="XMLID_167_" class="st4" d="M1832.1,615.2v45l-8.4-7.9l-26.4-24.4l-1.9-1.7v-36h9.8l4.2,3.9l17.5,16.3L1832.1,615.2"/>
		<path id="XMLID_168_" class="st12" d="M1847,620.9h41v33.4h-41V620.9z"/>
		<path id="XMLID_169_" class="st7" d="M1826.5,627.9h-41l-35-32.9h41L1826.5,627.9z"/>
		<path id="XMLID_170_" class="st12" d="M1783.5,618.9h41v33.4h-41V618.9z"/>
		<path id="XMLID_171_" class="st13" d="M1945.7,660.2h-170.8l-5.4-5l-21.6-20v-9H1909l5.2,4.7l1.3,1.3l7.2,6.7L1945.7,660.2z"/>
		<path id="XMLID_172_" class="st4" d="M1774.9,615.2v45l-5.4-5l-21.6-20v-45l5.2,4.8l16.6,15.4L1774.9,615.2"/>
		<path id="XMLID_173_" class="st9" d="M2067,662.9h-297.5v-52.5H2067V662.9"/>
		<path id="XMLID_174_" class="st6" d="M1913.8,632.2h9v9h-9V632.2z"/>
		<path id="XMLID_175_" class="st4" d="M1859.3,594.3l0.4,0.4h-0.4V594.3z"/>
		<g id="XMLID_185_">
			<g>
				<g>
					<defs>
						<path id="SVGID_1_" d="M1795.4,590.2h-47.5H1795.4 M1809.4,590.2h-4.2H1809.4 M1910,590.2h-96.1H1910 M1921,590.2h-1.2H1921
							 M1969,590.2h-4.7H1969 M2024.9,590.2h-46.3H2024.9 M2034.6,590.2l3.3,3.1h0.2L2034.6,590.2"/>
					</defs>
					<clipPath id="SVGID_2_">
						<use xlink:href="#SVGID_1_"  style="overflow:visible;"/>
					</clipPath>
					<path id="XMLID_186_" class="st14" d="M1747.9,590.2h290.3v3.1h-290.3V590.2z"/>
				</g>
			</g>
		</g>
		<path id="XMLID_176_" class="st15" d="M2034.6,590.2h-9.7v3.1h13.1L2034.6,590.2"/>
		<path id="XMLID_194_" class="st16" d="M1795.4,590.2h-47.5l3.3,3.1h44.2V590.2 M1809.4,590.2h-4.2l3.3,3.1h0.9L1809.4,590.2
			 M1910,590.2h-45.9l3.3,3.1h42.6V590.2 M1921,590.2h-1.2l1.2,1.1V590.2 M1969,590.2h-4.7l3.3,3.1h1.4L1969,590.2 M2024.9,590.2
			h-46.3l3.3,3.1h42.9L2024.9,590.2"/>
		<path id="XMLID_195_" class="st15" d="M1978.7,590.2h-9.7v3.1h13L1978.7,590.2"/>
		<path id="XMLID_196_" class="st17" d="M1923.3,590.2h-2.3v1.1l2.1,2h3.5L1923.3,590.2"/>
		<path id="XMLID_197_" class="st18" d="M1964.3,590.2h-41l3.3,3.1h41L1964.3,590.2"/>
		<path id="XMLID_198_" class="st15" d="M1919.7,590.2h-9.7v3.1h13.1l-2.1-2L1919.7,590.2"/>
		<path id="XMLID_199_" class="st15" d="M1864.1,590.2h-9.2l3.3,3.1h9.2L1864.1,590.2"/>
		<path id="XMLID_200_" class="st18" d="M1854.9,590.2h-41l3.3,3.1h41L1854.9,590.2"/>
		<path id="XMLID_201_" class="st17" d="M1813.8,590.2h-4.4v3.1h7.8L1813.8,590.2L1813.8,590.2"/>
		<path id="XMLID_202_" class="st15" d="M1805.2,590.2h-9.8v3.1h13.1L1805.2,590.2"/>
		<path id="XMLID_203_" class="st16" d="M2034.6,663.2h-286.7l10.3,9.5v-4.6l25.9,24.3l-25.9-24.3h41l6,5.5v-10.4l13.9,13v-8.1h41.1
			l3.9,3.7v-8.6l12.3,11.5v-4.6l23.8,22.3l-23.8-22.3h41.1l2.2,2.1v-9l17.1,15.9h36.9l5,4.7v-20.6l31.4,29.2h24.5L2034.6,663.2"/>
		<path id="XMLID_204_" class="st15" d="M1978.7,663.2v20.6l9.1,8.6h22.3L1978.7,663.2"/>
		<path id="XMLID_205_" class="st18" d="M1973.7,679.1h-36.9l14.4,13.3h36.6l-9.1-8.6L1973.7,679.1"/>
		<path id="XMLID_206_" class="st15" d="M1919.7,663.2v9l21.5,20.2h10l-14.4-13.3L1919.7,663.2"/>
		<path id="XMLID_207_" class="st17" d="M1876.4,670.1v4.6l19.1,17.7h4.7L1876.4,670.1"/>
		<path id="XMLID_208_" class="st18" d="M1917.5,670.1h-41.1l23.8,22.3h41l-21.5-20.2L1917.5,670.1"/>
		<path id="XMLID_209_" class="st15" d="M1864.1,663.2v8.6l21.9,20.6h9.5l-19.1-17.7L1864.1,663.2"/>
		<path id="XMLID_210_" class="st18" d="M1860.2,668.1h-41.1l25.9,24.3h41l-21.9-20.6L1860.2,668.1"/>
		<path id="XMLID_211_" class="st17" d="M1819.1,668.1v8.1l17.5,16.2h8.4L1819.1,668.1"/>
		<path id="XMLID_212_" class="st15" d="M2034.6,663.2v29.2h31.5L2034.6,663.2"/>
		<path id="XMLID_213_" class="st15" d="M1805.2,663.2v10.4l19.9,18.8h11.5l-17.5-16.2L1805.2,663.2"/>
		<path id="XMLID_214_" class="st17" d="M1758.2,668.1v4.6l21.2,19.7h4.7L1758.2,668.1"/>
		<path id="XMLID_215_" class="st18" d="M1799.2,668.1h-41l25.9,24.3h41l-19.9-18.8L1799.2,668.1"/>
		<path id="XMLID_216_" class="st9" d="M1185.3,745.2h157.1v7.3h-157.1V745.2z"/>
		<path id="XMLID_217_" class="st9" d="M1301.9,741.7h40.5v2h-40.5V741.7z"/>
		<path id="XMLID_218_" class="st19" d="M1207.5,638.1c-2.5,2.8-18.2,4.8-32,4.8s-20.2-2.3-18-4.8c2.6-3,18.2-4.8,32-4.8
			S1209.7,635.6,1207.5,638.1z"/>
		<path id="XMLID_219_" class="st11" d="M1122.3,668.1l-76.7,71.8H902.3l76.5-71.8H1122.3z"/>
		<path id="XMLID_220_" class="st20" d="M1118.3,666.1l-76.7,71.8H898.3l76.5-71.8H1118.3z"/>
		<path id="XMLID_221_" class="st21" d="M1131.3,662.1l-76.7,71.8H911.2l76.6-71.8H1131.3z"/>
		<path id="XMLID_222_" class="st11" d="M1136.3,647.7l-76.7,71.7H916.2l76.6-71.7H1136.3z"/>
		<path id="XMLID_223_" class="st21" d="M987.8,642.2l-76.6,71.7v20h143.4v-20l76.7-71.7H987.8z"/>
		<path id="XMLID_224_" class="st11" d="M1054.6,733.8v-20l76.7-71.7v19.9L1054.6,733.8z"/>
		<path id="XMLID_225_" class="st20" d="M1131.3,642.2l-76.7,71.7H911.2l76.6-71.7H1131.3z"/>
		<path id="XMLID_226_" class="st22" d="M1753.4,563.6v9.1l-25.4-23.7v-23.1L1753.4,563.6z"/>
		<path id="XMLID_227_" class="st4" d="M1783.5,525.8H1728l25.4,37.7h55.6L1783.5,525.8z"/>
		<path id="XMLID_228_" class="st22" d="M1783.8,534.7h-42.2l-4.4-6.6h42.2L1783.8,534.7z"/>
		<path id="XMLID_229_" class="st6" d="M1800.5,559.6h-42.2l-14.2-20.6h42.3L1800.5,559.6z"/>
		<path id="XMLID_230_" class="st4" d="M1753.4,563.6h55.6v9.1h-55.6V563.6z"/>
		<path id="XMLID_231_" class="st8" d="M1132,668.2v-23.7l-26.7,25l-13,36l-39.9,37.3v3l0.7-0.6l79-74.1L1132,668.2L1132,668.2z"/>
		<path id="XMLID_232_" class="st7" d="M1129.4,644.4l-26.7,25l-13,36h2.6l13-36l26.7-25H1129.4z"/>
		<path id="XMLID_233_" class="st7" d="M969.9,608.1l-79.6,74.6v3h162v-3l79.7-74.6H969.9z"/>
		<path id="XMLID_234_" class="st8" d="M1131.9,608.1H972.4l-1.3,1.2v-23.6l1.3-1.2h159.5V608.1z"/>
		<path id="XMLID_235_" class="st11" d="M1118.2,609.1l-76.7,71.7H898.2l76.5-71.7H1118.2z"/>
		<path id="XMLID_236_" class="st20" d="M1125.2,607.1l-76.7,71.7H905.2l76.5-71.7H1125.2z"/>
		<path id="XMLID_237_" class="st20" d="M1130.4,606.2l-76.7,71.7H910.2l76.7-71.7H1130.4z"/>
		<path id="XMLID_238_" class="st8" d="M1105.3,609.4l-13,35.9l-40,37.3v3l0.7-0.6l79-74v-26.6L1105.3,609.4z"/>
		<path id="XMLID_239_" class="st7" d="M1129.4,584.4h2.6l-26.7,25h-2.6L1129.4,584.4z"/>
		<path id="XMLID_240_" class="st7" d="M1092.2,645.4h-2.6l13.1-36h2.6L1092.2,645.4z"/>
		<path id="XMLID_241_" class="st8" d="M971.1,585.7v23.6l-38.5,36.2l13.1-36L971.1,585.7z"/>
		<path id="XMLID_242_" class="st7" d="M969.8,584.4l-26.7,25l-13.1,36h2.6l13.1-36l26.7-25H969.8z"/>
		<path id="XMLID_243_" class="st8" d="M1129.5,608.8h2.6V650h-2.6V608.8z"/>
		<path id="XMLID_244_" class="st7" d="M1129.5,646.8h-2.6v-30.8l2.6-2.5V646.8z"/>
		<path id="XMLID_245_" class="st7" d="M969.9,547.9l-79.6,74.7v3h162v-3l79.7-74.7H969.9z"/>
		<path id="XMLID_246_" class="st7" d="M1131.9,547.9H972.4l-1.3,1.2v-23.6l1.3-1.2h159.5V547.9z"/>
		<path id="XMLID_247_" class="st11" d="M1118.2,548.9l-76.7,71.8H898.2l76.5-71.8H1118.2z"/>
		<path id="XMLID_248_" class="st20" d="M1125.2,546.9l-76.7,71.8H905.2l76.5-71.8H1125.2z"/>
		<path id="XMLID_249_" class="st21" d="M1130.4,546.2l-76.7,71.8H910.2l76.7-71.8H1130.4z"/>
		<path id="XMLID_250_" class="st8" d="M971.1,525.6v23.6l-38.5,36.1l13.1-36L971.1,525.6z"/>
		<path id="XMLID_251_" class="st7" d="M969.8,524.3l-26.7,24.9l-13.1,36h2.6l13.1-36l26.7-24.9H969.8z"/>
		<path id="XMLID_252_" class="st21" d="M975.8,539.9l-76.5,71.7v5h143.3v-5l76.7-71.7H975.8z"/>
		<path id="XMLID_253_" class="st11" d="M1042.6,616.7v-5l76.7-71.7v4.9L1042.6,616.7z"/>
		<path id="XMLID_254_" class="st8" d="M1105.3,549.2l-13,35.9l-40,37.5v3l0.7-0.6l79-74.1v-26.6L1105.3,549.2z"/>
		<path id="XMLID_255_" class="st7" d="M1129.4,524.3l-26.7,24.9l-13.1,36h2.6l13.1-36l26.7-24.9H1129.4z"/>
		<path id="XMLID_256_" class="st8" d="M1129.5,548.7h2.6v41.3h-2.6V548.7z"/>
		<path id="XMLID_257_" class="st7" d="M1129.5,586.8h-2.6v-30.9l2.6-2.4V586.8z"/>
		<path id="XMLID_258_" class="st3" d="M1192.9,675.8v-31.5c0-1.3-0.8-2.5-2.1-2.9l-1.5-0.5c-0.5-0.2-1.1-0.1-1.6,0.2
			c-0.5,0.3-0.7,0.9-0.7,1.4h1c0-0.2,0.1-0.5,0.3-0.6s0.4-0.2,0.7-0.1l1.5,0.5c0.8,0.3,1.4,1.1,1.4,2V676l-3,2v9.4h7.1V678
			L1192.9,675.8L1192.9,675.8z"/>
		<path id="XMLID_259_" class="st23" d="M668.4,680.2h91.8l-91.8,85.1V680.2z"/>
		<path id="XMLID_260_" class="st23" d="M2212.3,765.2l-91.8-85.1h91.7L2212.3,765.2z"/>
	</g>
</g>
</svg>
