<?xml version="1.0" encoding="utf-8"?>
<!-- Generator: Adobe Illustrator 19.0.0, SVG Export Plug-In . SVG Version: 6.00 Build 0)  -->
<svg version="1.1" id="Layer_1" xmlns="http://www.w3.org/2000/svg" xmlns:xlink="http://www.w3.org/1999/xlink" x="0px" y="0px"
	 viewBox="0 0 1920 295.7" style="enable-background:new 0 0 1920 295.7;" xml:space="preserve">
<style type="text/css">
	.st0{fill:#A1715E;}
	.st1{fill:#E6E7E8;}
	.st2{fill:#D0D1D2;}
	.st3{fill:#BABCBE;}
	.st4{fill:#F26E21;}
	.st5{fill:#E35425;}
	.st6{fill:#454547;}
	.st7{fill:#929497;}
	.st8{fill:#E6E6E6;}
	.st9{fill:#17B591;}
	.st10{fill:#D0D1D1;}
	.st11{clip-path:url(#SVGID_2_);fill:#77797C;}
	.st12{fill:#989A9C;}
	.st13{fill:#BCBDBD;}
	.st14{fill:#B9451E;}
	.st15{fill:#C55A1B;}
	.st16{fill:#373536;}
	.st17{fill:#F1F1F1;}
	.st18{fill:#FFFFFF;}
	.st19{fill:#808184;}
	.st20{fill:#6D6E70;}
</style>
<g id="XMLID_1_">
	<polygon id="XMLID_95_" class="st0" points="188.1,109.9 188.1,110 188.1,155.6 188,231.6 188,293.2 188,295.7 0,295.7 0,284.9 
		138.9,155.6 	"/>
	<polygon id="XMLID_96_" class="st1" points="188.1,109.9 188.1,110 139,155.6 0,284.9 0,109.9 	"/>
	<polygon id="XMLID_97_" class="st0" points="1731.9,109.9 1731.9,110 1731.9,240.9 1790.9,295.7 1920,295.7 1920,284.9 
		1781.1,155.6 	"/>
	<polygon id="XMLID_98_" class="st1" points="1731.9,109.9 1731.9,110 1781,155.6 1920,284.9 1920,109.9 	"/>
	<polyline id="XMLID_99_" class="st1" points="1790.9,295.7 129,295.7 330.2,108.8 1589.7,108.8 1790.9,295.7 	"/>
	<rect id="XMLID_100_" x="343.1" y="98.2" class="st2" width="90.8" height="45"/>
	<polygon id="XMLID_101_" class="st3" points="361,132.2 361,177.1 397.7,143.1 397.7,98.2 	"/>
	<polygon id="XMLID_102_" class="st3" points="306.3,132.2 306.3,177.1 343,143.1 343,98.2 	"/>
	<rect id="XMLID_103_" x="306.3" y="132.2" class="st4" width="90.8" height="64.9"/>
	<polygon id="XMLID_104_" class="st5" points="397.2,132.2 397.2,197.1 433.8,163.1 433.8,98.2 	"/>
	<rect id="XMLID_105_" x="612.6" y="17.2" class="st5" width="39.1" height="102.9"/>
	<polygon id="XMLID_106_" class="st4" points="489.6,143.7 410,218.4 410,221.4 572,221.4 572,218.4 572,218.4 651.7,143.7 	"/>
	<path id="XMLID_108_" class="st6" d="M706.1,138.4l-3.4-3.7l15-14c0.1-0.1,0.1-0.2,0.1-0.3v-13.5c0-0.1,0-0.3-0.3-0.4
		c-0.3-0.1-0.4,0-0.5,0.1l-11.1,9.1l-3.2-3.9l11.1-9.1c1.6-1.4,3.9-1.6,5.8-0.7c1.9,0.9,3.1,2.8,3.1,4.9v13.5c0,1.5-0.6,3-1.7,4
		L706.1,138.4z"/>
	<path id="XMLID_109_" class="st6" d="M733.7,110.8c0.1-2.7-7.8-4.9-22.8-4.9c-17.1,0-36.5,2.2-39.8,6c-0.4,0.4-0.5,0.8-0.5,1.2
		v67.8l0,0c0.1,2.6,8,4.7,22.8,4.7c17.1,0,36.7-2.5,39.8-6c0.3-0.3,0.4-0.6,0.5-0.9l0,0V110.8z"/>
	<polyline id="XMLID_110_" class="st2" points="1526.7,22.5 1221.6,22.5 1258.3,56.5 1258.3,56.6 1258.3,199.8 1563.4,199.8 
		1563.4,56.6 1526.7,22.5 	"/>
	<polyline id="XMLID_111_" class="st7" points="1557.8,188.3 1264.4,188.3 1264.4,138.8 1557.8,138.8 1557.8,188.3 	"/>
	<polyline id="XMLID_112_" class="st7" points="1557.8,115.4 1264.4,115.4 1264.4,65.9 1557.8,65.9 1557.8,115.4 	"/>
	<polygon id="XMLID_113_" class="st3" points="1258.3,56.5 1258.3,199.8 1221.6,165.8 1221.6,22.5 	"/>
	<polyline id="XMLID_114_" class="st8" points="1554.2,138.8 1267.5,138.8 1267.5,183.8 1554.2,183.8 1554.2,138.8 	"/>
	<polyline id="XMLID_115_" class="st3" points="1534.9,172.8 1534.9,217.8 1498.3,183.8 1498.3,138.8 1534.9,172.8 	"/>
	<polyline id="XMLID_119_" class="st4" points="1528.2,187.6 1487.3,187.6 1452.3,154.7 1493.3,154.7 1528.2,187.6 	"/>
	<polyline id="XMLID_120_" class="st3" points="1476,172.8 1476,217.8 1439.3,183.8 1439.3,138.8 1476,172.8 	"/>
	<polyline id="XMLID_121_" class="st5" points="1396,145.7 1396,188.3 1431.1,212 1431.1,178.6 1396,145.7 	"/>
	<polyline id="XMLID_122_" class="st4" points="1472.1,178.6 1431.1,178.6 1396,145.7 1437.1,145.7 1472.1,178.6 	"/>
	<polyline id="XMLID_123_" class="st3" points="1420.4,172.8 1420.4,217.8 1383.7,183.8 1383.7,138.8 1420.4,172.8 	"/>
	<polyline id="XMLID_124_" class="st4" points="1414.7,176.6 1373.8,176.6 1338.7,143.7 1379.8,143.7 1414.7,176.6 	"/>
	<polyline id="XMLID_125_" class="st5" points="1338.7,143.7 1338.7,186.3 1373.8,210 1373.8,176.6 1338.7,143.7 	"/>
	<polyline id="XMLID_126_" class="st3" points="1590.9,172.8 1590.9,217.8 1554.2,183.8 1554.2,138.8 1590.9,172.8 	"/>
	<polyline id="XMLID_127_" class="st3" points="1361.5,172.8 1361.5,217.8 1324.8,183.8 1324.8,138.8 1361.5,172.8 	"/>
	<rect id="XMLID_129_" x="1376.4" y="178.6" class="st9" width="41" height="33.4"/>
	<polyline id="XMLID_130_" class="st5" points="1277.8,143.7 1277.8,186.3 1312.8,210 1312.8,176.6 1277.8,143.7 	"/>
	<polyline id="XMLID_131_" class="st4" points="1353.8,176.6 1312.8,176.6 1277.8,143.7 1318.8,143.7 1353.8,176.6 	"/>
	<rect id="XMLID_132_" x="1312.8" y="176.6" class="st9" width="41" height="33.4"/>
	<polygon id="XMLID_133_" class="st10" points="1475.1,217.8 1304.2,217.8 1267.5,183.8 1438.4,183.8 	"/>
	<polyline id="XMLID_134_" class="st3" points="1304.2,172.8 1304.2,217.8 1267.5,183.8 1267.5,138.8 1304.2,172.8 	"/>
	<rect id="XMLID_140_" x="1298.9" y="168" class="st6" width="297.5" height="52.7"/>
	<rect id="XMLID_141_" x="1443.1" y="189.8" class="st2" width="9" height="9"/>
	<polyline id="XMLID_142_" class="st3" points="1581.2,90.9 1581.2,135.9 1552.9,109.6 1544.5,101.9 1544.5,65.9 1554.2,65.9 
		1576,86.1 1576,86.1 1581.2,90.9 	"/>
	<polyline id="XMLID_143_" class="st8" points="1544.5,65.9 1544.5,101.9 1267.5,101.9 1267.5,65.9 1544.5,65.9 	"/>
	<polygon id="XMLID_144_" class="st4" points="1572.9,109.6 1531.8,109.6 1496.9,76.7 1537.8,76.7 	"/>
	<polyline id="XMLID_150_" class="st3" points="1525.2,90.9 1525.2,135.9 1488.6,101.9 1488.6,65.9 1498.3,65.9 1509.9,76.7 
		1520,86.1 1520,86.1 1525.2,90.9 	"/>
	<polyline id="XMLID_160_" class="st5" points="1475.6,96.6 1475.6,130 1466.3,123.7 1441,106.6 1440.6,106.4 1440.6,65.9 
		1442.9,65.9 1464.3,86.1 1475.6,96.6 	"/>
	<polyline id="XMLID_161_" class="st4" points="1516.5,96.6 1475.6,96.6 1464.3,86.1 1442.9,65.9 1483.9,65.9 1488.6,70.3 
		1505.3,86.1 1516.5,96.6 	"/>
	<polyline id="XMLID_162_" class="st3" points="1466.3,90.9 1466.3,135.9 1442.3,113.7 1436.1,107.9 1434.8,106.6 1429.6,101.9 
		1429.6,65.9 1439.3,65.9 1440.6,67 1461.1,86.1 1461.1,86.1 1466.3,90.9 	"/>
	<polygon id="XMLID_163_" class="st4" points="1460.4,106.6 1419.3,106.6 1384.3,73.7 1425.3,73.7 	"/>
	<polyline id="XMLID_164_" class="st3" points="1410.6,90.9 1410.6,135.9 1404.3,130 1404.3,130 1374,101.9 1374,65.9 1383.7,65.9 
		1392.1,73.7 1405.4,86.1 1405.4,86.1 1410.6,90.9 	"/>
	<polyline id="XMLID_165_" class="st4" points="1405,94.6 1364,94.6 1354.9,86.1 1333.4,65.9 1374.5,65.9 1395.8,86.1 1405,94.6 	
		"/>
	<polyline id="XMLID_166_" class="st5" points="1364,94.6 1364,128 1351.7,119.7 1344.1,114.6 1329,104.4 1329,65.9 1333.4,65.9 
		1354.9,86.1 1364,94.6 	"/>
	<polyline id="XMLID_167_" class="st3" points="1351.7,90.9 1351.7,135.9 1343.3,128 1343.3,128 1316.9,103.6 1315,101.9 1315,65.9 
		1324.8,65.9 1329,69.8 1329,69.8 1346.5,86.1 1346.5,86.1 1351.7,90.9 	"/>
	<rect id="XMLID_168_" x="1366.6" y="96.6" class="st9" width="41" height="33.4"/>
	<polygon id="XMLID_169_" class="st4" points="1346.1,103.6 1305.1,103.6 1270.1,70.7 1311.1,70.7 	"/>
	<rect id="XMLID_170_" x="1303.1" y="94.6" class="st9" width="41" height="33.4"/>
	<polygon id="XMLID_171_" class="st10" points="1465.3,135.9 1294.5,135.9 1289.1,130.9 1267.5,110.9 1267.5,101.9 1428.6,101.9 
		1433.8,106.6 1435.1,107.9 1442.3,114.6 	"/>
	<polyline id="XMLID_172_" class="st3" points="1294.5,90.9 1294.5,135.9 1289.1,130.9 1267.5,110.9 1267.5,65.9 1272.7,70.7 
		1289.3,86.1 1289.3,86.1 1294.5,90.9 	"/>
	<polyline id="XMLID_173_" class="st6" points="1586.6,138.6 1289.1,138.6 1289.1,86.1 1586.6,86.1 1586.6,138.6 	"/>
	<rect id="XMLID_174_" x="1433.4" y="107.9" class="st2" width="9" height="9"/>
	<polygon id="XMLID_175_" class="st3" points="1378.9,70 1379.3,70.4 1378.9,70.4 	"/>
	<g id="XMLID_185_">
		<g>
			<g>
				<g>
					<defs>
						<path id="SVGID_1_" d="M1315,65.9h-47.5l0,0H1315L1315,65.9 M1329,65.9h-4.2l0,0H1329L1329,65.9 M1429.6,65.9h-96.1l0,0h41
							h9.3H1429.6L1429.6,65.9 M1440.6,65.9h-1.2l0,0H1440.6L1440.6,65.9 M1488.6,65.9h-4.7l0,0H1488.6L1488.6,65.9 M1544.5,65.9
							h-46.3l0,0H1544.5L1544.5,65.9 M1554.2,65.9L1554.2,65.9l3.3,3.1h0.2L1554.2,65.9"/>
					</defs>
					<clipPath id="SVGID_2_">
						<use xlink:href="#SVGID_1_"  style="overflow:visible;"/>
					</clipPath>
					<rect id="XMLID_186_" x="1267.5" y="65.9" class="st11" width="290.3" height="3.1"/>
				</g>
			</g>
		</g>
	</g>
	<polyline id="XMLID_176_" class="st12" points="1554.2,65.9 1544.5,65.9 1544.5,65.9 1544.5,65.9 1544.5,69 1557.6,69 1554.2,65.9 
			"/>
	<path id="XMLID_194_" class="st13" d="M1315,65.9h-47.5l3.3,3.1h44.2V65.9 M1329,65.9h-4.2l3.3,3.1h0.9L1329,65.9 M1429.6,65.9
		h-45.9l3.3,3.1h42.6V65.9 M1440.6,65.9h-1.2l1.2,1.1V65.9 M1488.6,65.9h-4.7l3.3,3.1h1.4L1488.6,65.9 M1544.5,65.9L1544.5,65.9
		h-46.3l3.3,3.1h42.9L1544.5,65.9"/>
	<polyline id="XMLID_195_" class="st12" points="1498.3,65.9 1488.6,65.9 1488.6,65.9 1488.6,69 1501.6,69 1498.3,65.9 1498.3,65.9 
			"/>
	<polyline id="XMLID_196_" class="st14" points="1442.9,65.9 1440.6,65.9 1440.6,65.9 1440.6,67 1442.7,69 1446.2,69 1442.9,65.9 	
		"/>
	<polyline id="XMLID_197_" class="st15" points="1483.9,65.9 1442.9,65.9 1446.2,69 1487.2,69 1483.9,65.9 1483.9,65.9 	"/>
	<polyline id="XMLID_198_" class="st12" points="1439.3,65.9 1429.6,65.9 1429.6,65.9 1429.6,69 1442.7,69 1440.6,67 1439.3,65.9 
		1439.3,65.9 	"/>
	<polyline id="XMLID_199_" class="st12" points="1383.7,65.9 1374.5,65.9 1377.8,69 1387,69 1383.7,65.9 	"/>
	<polyline id="XMLID_200_" class="st15" points="1374.5,65.9 1333.5,65.9 1336.8,69 1377.8,69 1374.5,65.9 	"/>
	<polyline id="XMLID_201_" class="st14" points="1333.4,65.9 1329,65.9 1329,65.9 1329,69 1336.8,69 1333.5,65.9 1333.4,65.9 	"/>
	<polyline id="XMLID_202_" class="st12" points="1324.8,65.9 1315,65.9 1315,65.9 1315,69 1328.1,69 1324.8,65.9 1324.8,65.9 	"/>
	<polyline id="XMLID_203_" class="st13" points="1554.2,138.8 1267.5,138.8 1277.8,148.3 1277.8,143.7 1303.7,168 1277.8,143.7 
		1318.8,143.7 1324.8,149.2 1324.8,138.8 1338.7,151.8 1338.7,143.7 1379.8,143.7 1383.7,147.4 1383.7,138.8 1396,150.3 1396,145.7 
		1419.8,168 1396,145.7 1437.1,145.7 1439.3,147.8 1439.3,138.8 1456.4,154.7 1493.3,154.7 1498.3,159.4 1498.3,138.8 1529.7,168 
		1554.2,168 1554.2,138.8 	"/>
	<polyline id="XMLID_204_" class="st12" points="1498.3,138.8 1498.3,159.4 1507.4,168 1529.7,168 1498.3,138.8 	"/>
	<polyline id="XMLID_205_" class="st15" points="1493.3,154.7 1456.4,154.7 1470.8,168 1507.4,168 1498.3,159.4 1493.3,154.7 	"/>
	<polyline id="XMLID_206_" class="st12" points="1439.3,138.8 1439.3,147.8 1460.8,168 1470.8,168 1456.4,154.7 1439.3,138.8 	"/>
	<polyline id="XMLID_207_" class="st14" points="1396,145.7 1396,150.3 1415.1,168 1419.8,168 1396,145.7 	"/>
	<polyline id="XMLID_208_" class="st15" points="1437.1,145.7 1396,145.7 1419.8,168 1460.8,168 1439.3,147.8 1437.1,145.7 	"/>
	<polyline id="XMLID_209_" class="st12" points="1383.7,138.8 1383.7,147.4 1405.6,168 1415.1,168 1396,150.3 1383.7,138.8 	"/>
	<polyline id="XMLID_210_" class="st15" points="1379.8,143.7 1338.7,143.7 1364.6,168 1405.6,168 1383.7,147.4 1379.8,143.7 	"/>
	<polyline id="XMLID_211_" class="st14" points="1338.7,143.7 1338.7,143.7 1338.7,151.8 1356.2,168 1364.6,168 1338.7,143.7 	"/>
	<polyline id="XMLID_212_" class="st12" points="1554.2,138.8 1554.2,168 1585.7,168 1554.2,138.8 	"/>
	<polyline id="XMLID_213_" class="st12" points="1324.8,138.8 1324.8,149.2 1344.7,168 1356.2,168 1338.7,151.8 1324.8,138.8 	"/>
	<polyline id="XMLID_214_" class="st14" points="1277.8,143.7 1277.8,148.3 1299,168 1303.7,168 1277.8,143.7 	"/>
	<polyline id="XMLID_215_" class="st15" points="1318.8,143.7 1277.8,143.7 1303.7,168 1344.7,168 1324.8,149.2 1318.8,143.7 	"/>
	<rect id="XMLID_216_" x="704.9" y="220.8" class="st6" width="157.1" height="7.3"/>
	<rect id="XMLID_217_" x="821.5" y="217.3" class="st6" width="40.5" height="2"/>
	<path id="XMLID_218_" class="st16" d="M727.1,113.7c-2.5,2.8-18.2,4.8-32,4.8s-20.2-2.3-18-4.8c2.6-3,18.2-4.8,32-4.8
		S729.3,111.2,727.1,113.7z"/>
	<polygon id="XMLID_219_" class="st8" points="641.9,143.7 565.2,215.5 421.9,215.5 498.4,143.7 	"/>
	<polygon id="XMLID_220_" class="st17" points="637.9,141.7 561.2,213.5 417.9,213.5 494.4,141.7 	"/>
	<polygon id="XMLID_221_" class="st18" points="650.9,137.7 574.2,209.5 430.8,209.5 507.4,137.7 	"/>
	<polygon id="XMLID_222_" class="st8" points="655.9,123.3 579.2,195 435.8,195 512.4,123.3 	"/>
	<polygon id="XMLID_223_" class="st18" points="507.4,117.8 430.8,189.5 430.8,209.5 574.2,209.5 574.2,189.5 650.9,117.8 	"/>
	<polygon id="XMLID_224_" class="st8" points="574.2,209.5 574.2,189.5 650.9,117.8 650.9,137.7 	"/>
	<polygon id="XMLID_225_" class="st17" points="650.9,117.8 574.2,189.5 430.8,189.5 507.4,117.8 	"/>
	<polygon id="XMLID_226_" class="st19" points="1273,39.2 1273,48.3 1247.6,24.6 1247.6,1.5 	"/>
	<polygon id="XMLID_227_" class="st3" points="1303.1,1.5 1247.6,1.5 1273,39.2 1328.6,39.2 	"/>
	<polygon id="XMLID_228_" class="st19" points="1303.4,10.3 1261.2,10.3 1256.8,3.7 1299,3.7 	"/>
	<polygon id="XMLID_229_" class="st2" points="1320.1,35.2 1277.9,35.2 1263.7,14.6 1306,14.6 	"/>
	<rect id="XMLID_230_" x="1273" y="39.2" class="st3" width="55.6" height="9.1"/>
	<polygon id="XMLID_231_" class="st5" points="651.6,143.8 651.6,120.1 624.9,145.1 611.9,181.1 611.9,181.1 572,218.4 572,221.4 
		572.7,220.8 651.7,146.7 651.7,143.7 	"/>
	<polygon id="XMLID_232_" class="st4" points="649,120.1 622.3,145.1 609.3,181.1 611.9,181.1 624.9,145.1 651.6,120.1 	"/>
	<polygon id="XMLID_233_" class="st4" points="489.5,83.7 409.9,158.3 409.9,161.3 571.9,161.3 571.9,158.3 571.9,158.3 651.6,83.7 
			"/>
	<polygon id="XMLID_234_" class="st5" points="651.5,83.7 492,83.7 490.7,84.9 490.7,61.3 492,60.1 651.5,60.1 	"/>
	<polygon id="XMLID_235_" class="st8" points="637.8,84.7 561.1,156.4 417.8,156.4 494.3,84.7 	"/>
	<polygon id="XMLID_236_" class="st17" points="644.8,82.7 568.1,154.4 424.8,154.4 501.3,82.7 	"/>
	<polygon id="XMLID_237_" class="st17" points="650,81.9 573.3,153.6 429.8,153.6 506.5,81.9 	"/>
	<polygon id="XMLID_238_" class="st5" points="624.9,85.1 611.9,121 571.9,158.3 571.9,161.3 572.6,160.7 651.6,86.7 651.6,60.1 	
		"/>
	<polygon id="XMLID_239_" class="st4" points="649,60.1 651.6,60.1 624.9,85.1 622.3,85.1 	"/>
	<polygon id="XMLID_240_" class="st4" points="611.8,121.1 609.2,121.1 622.3,85.1 624.9,85.1 	"/>
	<polygon id="XMLID_241_" class="st5" points="490.7,61.3 490.7,84.9 452.2,121.1 465.3,85.1 	"/>
	<polygon id="XMLID_242_" class="st4" points="489.4,60.1 462.7,85.1 449.6,121.1 452.2,121.1 465.3,85.1 492,60.1 	"/>
	<rect id="XMLID_243_" x="649.1" y="84.4" class="st5" width="2.6" height="41.3"/>
	<polygon id="XMLID_244_" class="st4" points="649.1,122.5 646.5,122.5 646.5,91.7 649.1,89.2 	"/>
	<polygon id="XMLID_245_" class="st4" points="489.5,23.6 409.9,98.3 409.9,101.3 571.9,101.3 571.9,98.3 571.9,98.3 651.6,23.6 	
		"/>
	<polygon id="XMLID_246_" class="st4" points="651.5,23.6 492,23.6 490.7,24.8 490.7,1.2 492,0 651.5,0 	"/>
	<polygon id="XMLID_247_" class="st8" points="637.8,24.6 561.1,96.4 417.8,96.4 494.3,24.6 	"/>
	<polygon id="XMLID_248_" class="st17" points="644.8,22.6 568.1,94.4 424.8,94.4 501.3,22.6 	"/>
	<polygon id="XMLID_249_" class="st18" points="650,21.8 573.3,93.6 429.8,93.6 506.5,21.8 	"/>
	<polygon id="XMLID_250_" class="st5" points="490.7,1.2 490.7,24.8 452.2,60.9 465.3,24.9 	"/>
	<polygon id="XMLID_251_" class="st4" points="489.4,0 462.7,24.9 449.6,60.9 452.2,60.9 465.3,24.9 492,0 	"/>
	<polygon id="XMLID_252_" class="st18" points="495.4,15.6 418.9,87.3 418.9,92.3 562.2,92.3 562.2,87.3 638.9,15.6 	"/>
	<polygon id="XMLID_253_" class="st8" points="562.2,92.3 562.2,87.3 638.9,15.6 638.9,20.5 	"/>
	<polygon id="XMLID_254_" class="st5" points="624.9,24.9 611.9,60.8 571.9,98.3 571.9,101.3 572.6,100.7 651.6,26.6 651.6,0 	"/>
	<polygon id="XMLID_255_" class="st4" points="649,0 622.3,24.9 609.2,60.9 611.8,60.9 624.9,24.9 651.6,0 	"/>
	<rect id="XMLID_256_" x="649.1" y="24.3" class="st5" width="2.6" height="41.3"/>
	<polygon id="XMLID_257_" class="st4" points="649.1,62.4 646.5,62.4 646.5,31.5 649.1,29.1 	"/>
	<path id="XMLID_258_" class="st1" d="M712.5,151.4v-31.5c0-1.3-0.8-2.5-2.1-2.9l-1.5-0.5c-0.5-0.2-1.1-0.1-1.6,0.2
		s-0.7,0.9-0.7,1.4h1c0-0.2,0.1-0.5,0.3-0.6s0.4-0.2,0.7-0.1l1.5,0.5c0.8,0.3,1.4,1.1,1.4,2v31.7l-3,2v9.4h7.1v-9.4L712.5,151.4z"/>
	<polygon id="XMLID_259_" class="st20" points="188,155.8 279.8,155.8 188,240.9 	"/>
	<polygon id="XMLID_260_" class="st20" points="1731.9,240.9 1640.1,155.8 1731.8,155.8 	"/>
</g>
</svg>
