<?xml version="1.0" encoding="utf-8"?>
<!-- Generator: Adobe Illustrator 19.0.0, SVG Export Plug-In . SVG Version: 6.00 Build 0)  -->
<svg version="1.1" id="Layer_1" xmlns="http://www.w3.org/2000/svg" xmlns:xlink="http://www.w3.org/1999/xlink" x="0px" y="0px"
	 viewBox="480 -260 1920 1080" style="enable-background:new 480 -260 1920 1080;" xml:space="preserve">
<style type="text/css">
	.st0{opacity:0.4;}
	.st1{opacity:0.44;fill:#FFFFFF;enable-background:new    ;}
	.st2{opacity:0.2;fill:#42210B;enable-background:new    ;}
	.st3{fill:#E6E7E8;}
	.st4{fill:#BABCBE;}
</style>
<g id="XMLID_727_" class="st0">
	<polygon id="XMLID_729_" class="st1" points="479.2,819.5 1286.7,819.5 479.2,12 	"/>
	<polygon id="XMLID_728_" class="st1" points="2399.1,328 2399.1,819.6 2067.3,819.6 987.6,-260.2 1810.9,-260.2 	"/>
</g>
<rect id="XMLID_726_" x="985.4" y="-260" class="st2" width="12.8" height="1080"/>
<rect id="XMLID_1_" x="910" y="-260" class="st2" width="12.8" height="1080"/>
<rect id="XMLID_3_" x="1955.8" y="-260" class="st2" width="12.8" height="1080"/>
<rect id="XMLID_2_" x="1880.4" y="-260" class="st2" width="12.8" height="1079.5"/>
<g id="XMLID_70_">
	<rect id="XMLID_82_" x="923.6" y="-260.2" class="st3" width="62.5" height="1079.7"/>
	<polyline id="XMLID_88_" class="st3" points="1955.7,-260.2 1893.1,-260.2 1893.1,819.5 1955.7,819.5 1955.7,-260.2 	"/>
	<rect id="XMLID_89_" x="976.5" y="-260.2" class="st4" width="9.7" height="1079.7"/>
	<polyline id="XMLID_94_" class="st4" points="1902.8,-260.2 1893.1,-260.2 1893.1,819.5 1902.8,819.5 1902.8,-260.2 	"/>
</g>
</svg>
